<?xml version="1.0" standalone="no"?>
<!DOCTYPE svg PUBLIC "-//W3C//DTD SVG 1.1//EN" "http://www.w3.org/Graphics/SVG/1.1/DTD/svg11.dtd" >
<svg xmlns="http://www.w3.org/2000/svg">
<metadata></metadata>
<defs>
<font id="brandon_textmedium" horiz-adv-x="1228" >
<font-face units-per-em="2048" ascent="1434" descent="-614" />
<missing-glyph horiz-adv-x="491" />
<glyph unicode="fi" horiz-adv-x="1206" d="M223 45v711h-123q-20 0 -32.5 13.5t-12.5 31.5v100q0 20 12.5 32.5t32.5 12.5h123v94q0 191 102.5 302.5t290.5 111.5q170 0 334 -104q13 -9 17 -28t-4 -32l-58 -102q-19 -34 -61 -10q-3 2 -24 14.5t-31.5 18.5t-34 17t-42.5 16.5t-45 10.5t-51 5q-99 0 -143.5 -55.5 t-44.5 -168.5v-90h592q18 0 31.5 -13.5t13.5 -31.5v-856q0 -19 -13 -32t-32 -13h-115q-18 0 -31.5 13.5t-13.5 31.5v711h-432v-711q0 -45 -45 -45h-123q-17 0 -27 13t-10 32z" />
<glyph unicode="fl" horiz-adv-x="1243" d="M223 45v711h-127q-20 0 -32.5 14t-12.5 33v98q0 20 12.5 32.5t32.5 12.5h127v94q0 190 111.5 302t288.5 112q55 0 107 -12.5t86 -31t60.5 -36.5t39.5 -30l12 -13l20 62q18 41 51 41h50q17 0 31 -14t14 -31v-1344q0 -18 -13.5 -31.5t-31.5 -13.5h-115q-19 0 -32 13t-13 32 v1073q-6 9 -14.5 20t-34 34.5t-53.5 41.5t-71.5 32t-90.5 14q-85 0 -141 -54t-56 -164v-96h225q20 0 32.5 -12.5t12.5 -32.5v-98q0 -19 -12.5 -33t-32.5 -14h-225v-711q0 -18 -13.5 -31.5t-31.5 -13.5h-117q-17 0 -30 13t-13 32z" />
<glyph unicode="ffh" horiz-adv-x="2504" d="M428 946h432v105q0 65 12 108q-30 32 -88.5 57t-130.5 25q-105 0 -165 -60.5t-60 -168.5v-66zM1683 0h-112q-19 0 -32 13t-13 32v1073q-6 9 -14.5 20t-34 34.5t-53.5 41.5t-71.5 32t-90.5 14q-85 0 -141 -54t-56 -164v-96h225q20 0 32.5 -12.5t12.5 -32.5v-98 q0 -19 -12.5 -33t-32.5 -14h-225v-711q0 -19 -13 -32t-32 -13h-115q-19 0 -32 13t-13 32v711h-432v-711q0 -18 -13.5 -31.5t-31.5 -13.5h-115q-18 0 -31.5 13.5t-13.5 31.5v711h-125q-20 0 -32.5 13.5t-12.5 31.5v100q0 20 12.5 32.5t32.5 12.5h125v66q0 187 119 304.5 t313 117.5q99 0 179 -30.5t124 -68.5q49 54 128.5 86.5t173.5 32.5q55 0 107 -12.5t86 -31t60.5 -36.5t38.5 -30l13 -13l20 62q18 41 51 41h50q17 0 31 -14t14 -31v-521q1 1 10.5 7.5t16.5 11.5t20.5 13.5t27 15.5t31 15t36 14t39.5 11.5t45 8t48 2.5q98 0 170 -33 t114.5 -94t62.5 -140.5t20 -179.5v-475q0 -18 -13.5 -31.5t-31.5 -13.5h-115q-19 0 -32 13t-13 32v479q0 118 -48.5 183t-140.5 65q-95 0 -160 -46t-87 -91v-590q0 -20 -13 -32.5t-35 -12.5z" />
<glyph unicode="fk" horiz-adv-x="1765" d="M1049 0h-115q-19 0 -32 13t-13 32v1073q-6 9 -14.5 20t-34 34.5t-53.5 41.5t-71.5 32t-90.5 14q-85 0 -141 -54t-56 -164v-96h225q20 0 32.5 -12.5t12.5 -32.5v-98q0 -19 -12.5 -33t-32.5 -14h-225v-711q0 -18 -13.5 -31.5t-31.5 -13.5h-117q-17 0 -30 13t-13 32v711 h-127q-20 0 -32.5 14t-12.5 33v98q0 20 12.5 32.5t32.5 12.5h127v94q0 190 111.5 302t288.5 112q55 0 107 -12.5t86 -31t60.5 -36.5t39.5 -30l12 -13l20 62q18 41 51 41h50q17 0 31 -14t14 -31v-801l364 330q32 28 60 28h149q29 0 36.5 -25t-11.5 -40l-383 -361l401 -459 q15 -17 8.5 -39t-35.5 -22h-167q-29 0 -43 18l-379 441v-414q0 -18 -13.5 -31.5t-31.5 -13.5z" />
<glyph unicode="fj" horiz-adv-x="1206" d="M860 -111v867h-432v-711q0 -45 -45 -45h-123q-17 0 -27 13t-10 32v711h-123q-20 0 -32.5 13.5t-12.5 31.5v100q0 20 12.5 32.5t32.5 12.5h123v94q0 191 102.5 302.5t290.5 111.5q170 0 334 -104q13 -9 17 -28t-4 -32l-58 -102q-19 -34 -61 -10q-3 2 -24 14.5t-31.5 18.5 t-34 17t-42.5 16.5t-45 10.5t-51 5q-99 0 -143.5 -55.5t-44.5 -168.5v-90h592q18 0 31.5 -13.5t13.5 -31.5v-987q0 -165 -66.5 -271.5t-171.5 -146.5q-49 -17 -71 25l-43 80q-12 22 -5 43t29 32q123 63 123 213z" />
<glyph unicode="ffj" horiz-adv-x="1843" d="M428 946h432v105q0 59 14 110q-29 31 -88.5 55.5t-132.5 24.5q-105 0 -165 -60.5t-60 -168.5v-66zM1497 -111v867h-432v-711q0 -19 -13 -32t-32 -13h-115q-19 0 -32 13t-13 32v711h-432v-711q0 -18 -13.5 -31.5t-31.5 -13.5h-115q-18 0 -31.5 13.5t-13.5 31.5v711h-125 q-20 0 -32.5 13.5t-12.5 31.5v100q0 20 12.5 32.5t32.5 12.5h125v66q0 187 119 304.5t313 117.5q99 0 177 -30t122 -69q42 56 117.5 87.5t173.5 31.5q94 0 191 -35t151 -69q13 -9 16.5 -28t-4.5 -32l-57 -102q-19 -34 -61 -10q-3 2 -24 14.5t-31.5 18.5t-34 17t-42.5 16.5 t-45 10.5t-51 5q-99 0 -143.5 -55.5t-44.5 -168.5v-90h592q18 0 31.5 -13.5t13.5 -31.5v-987q0 -165 -66.5 -271.5t-171.5 -146.5q-49 -17 -71 25l-43 80q-12 22 -5 43t29 32q123 63 123 213z" />
<glyph unicode="fb" horiz-adv-x="1884" d="M983 0h-49q-19 0 -32 13t-13 32v1073q-6 9 -14.5 20t-34 34.5t-53.5 41.5t-71.5 32t-90.5 14q-85 0 -141 -54t-56 -164v-96h225q20 0 32.5 -12.5t12.5 -32.5v-98q0 -19 -12.5 -33t-32.5 -14h-225v-711q0 -18 -13.5 -31.5t-31.5 -13.5h-117q-17 0 -30 13t-13 32v711h-127 q-20 0 -32.5 14t-12.5 33v98q0 20 12.5 32.5t32.5 12.5h127v94q0 190 111.5 302t288.5 112q55 0 107 -12.5t86 -31t60.5 -36.5t39.5 -30l12 -13l20 62q18 41 51 41h50q17 0 31 -14t14 -31v-471q2 1 20 7.5t38.5 12.5t49 13t63 11.5t68.5 4.5q196 0 330.5 -143.5 t134.5 -350.5q0 -133 -57.5 -247t-159.5 -181.5t-223 -67.5q-53 0 -104 14t-87 33.5t-64 39t-42 33.5l-14 14l-21 -70q-10 -41 -43 -41zM1094 309q6 -14 22.5 -33.5t44 -44.5t72 -42t94.5 -17q113 0 189.5 89t76.5 212q0 122 -83 210.5t-199 88.5q-55 0 -109 -13t-81 -25 l-27 -13v-412z" />
<glyph unicode="ffk" horiz-adv-x="2402" d="M1636 1434h50q17 0 31 -14t14 -31v-801l364 330q32 28 59 28h150q29 0 36.5 -25t-11.5 -40l-383 -361l401 -459q15 -17 8.5 -39t-35.5 -22h-168q-29 0 -43 18l-378 441v-414q0 -18 -13.5 -31.5t-31.5 -13.5h-115q-19 0 -32 13t-13 32v1073q-6 9 -14.5 20t-34 34.5 t-53.5 41.5t-71.5 32t-90.5 14q-85 0 -141 -54t-56 -164v-96h225q20 0 32.5 -12.5t12.5 -32.5v-98q0 -19 -12.5 -33t-32.5 -14h-225v-711q0 -19 -13 -32t-32 -13h-115q-19 0 -32 13t-13 32v711h-432v-711q0 -18 -13.5 -31.5t-31.5 -13.5h-115q-18 0 -31.5 13.5t-13.5 31.5 v711h-125q-20 0 -32.5 13.5t-12.5 31.5v100q0 20 12.5 32.5t32.5 12.5h125v66q0 187 119 304.5t313 117.5q99 0 179 -30.5t124 -68.5q49 54 128.5 86.5t173.5 32.5q55 0 107 -12.5t86 -31t60.5 -36.5t38.5 -30l13 -13l20 62q18 41 51 41zM428 946h432v105q0 65 12 108 q-30 32 -88.5 57t-130.5 25q-105 0 -165 -60.5t-60 -168.5v-66z" />
<glyph unicode="fh" horiz-adv-x="1867" d="M1047 0h-113q-19 0 -32 13t-13 32v1073q-6 9 -14.5 20t-34 34.5t-53.5 41.5t-71.5 32t-90.5 14q-85 0 -141 -54t-56 -164v-96h225q20 0 32.5 -12.5t12.5 -32.5v-98q0 -19 -12.5 -33t-32.5 -14h-225v-711q0 -18 -13.5 -31.5t-31.5 -13.5h-117q-17 0 -30 13t-13 32v711 h-127q-20 0 -32.5 14t-12.5 33v98q0 20 12.5 32.5t32.5 12.5h127v94q0 190 111.5 302t288.5 112q55 0 107 -12.5t86 -31t60.5 -36.5t39.5 -30l12 -13l20 62q18 41 51 41h50q17 0 31 -14t14 -31v-521q1 1 10.5 7.5t16.5 11.5t20.5 13.5t27 15.5t31 15t36 14t39.5 11.5t45 8 t48 2.5q98 0 170 -33t114.5 -94t62.5 -140.5t20 -179.5v-475q0 -18 -13.5 -31.5t-31.5 -13.5h-115q-19 0 -32 13t-13 32v479q0 118 -49 183t-140 65q-95 0 -160 -46t-87 -91v-590q0 -20 -12.5 -32.5t-34.5 -12.5z" />
<glyph unicode="ffb" horiz-adv-x="2521" d="M428 946h432v105q0 65 12 108q-30 32 -88.5 57t-130.5 25q-105 0 -165 -60.5t-60 -168.5v-66zM1620 0h-49q-19 0 -32 13t-13 32v1073q-6 9 -14.5 20t-34 34.5t-53.5 41.5t-71.5 32t-90.5 14q-85 0 -141 -54t-56 -164v-96h225q20 0 32.5 -12.5t12.5 -32.5v-98 q0 -19 -12.5 -33t-32.5 -14h-225v-711q0 -19 -13 -32t-32 -13h-115q-19 0 -32 13t-13 32v711h-432v-711q0 -18 -13.5 -31.5t-31.5 -13.5h-115q-18 0 -31.5 13.5t-13.5 31.5v711h-125q-20 0 -32.5 13.5t-12.5 31.5v100q0 20 12.5 32.5t32.5 12.5h125v66q0 187 119 304.5 t313 117.5q99 0 179 -30.5t124 -68.5q49 54 128.5 86.5t173.5 32.5q55 0 107 -12.5t86 -31t60.5 -36.5t38.5 -30l13 -13l20 62q18 41 51 41h52q17 0 31 -14t14 -31v-471q2 1 20 7.5t38 12.5t48 13t62.5 11.5t68.5 4.5q196 0 330.5 -143.5t134.5 -350.5q0 -133 -57.5 -247 t-159.5 -181.5t-223 -67.5q-53 0 -104.5 14t-87 33.5t-64 39t-42.5 33.5l-14 14l-20 -70q-10 -41 -43 -41zM1731 309q6 -14 22.5 -33.5t44 -44.5t72 -42t94.5 -17q113 0 189.5 89t76.5 212q0 122 -83 210.5t-199 88.5q-55 0 -109 -13t-81 -25l-27 -13v-412z" />
<glyph unicode="&#xd;" horiz-adv-x="0" />
<glyph unicode=" "  horiz-adv-x="491" />
<glyph unicode="&#x09;" horiz-adv-x="491" />
<glyph unicode="&#xa0;" horiz-adv-x="491" />
<glyph unicode="!" horiz-adv-x="540" d="M248 557q-13 0 -25 10.5t-14 22.5l-59 571v234q0 15 11.5 27t26.5 12h164q15 0 27 -12t12 -27v-230l-59 -575q-2 -12 -14 -22.5t-25 -10.5h-45zM127 121q0 59 41.5 101t99.5 42q60 0 102 -41.5t42 -101.5q0 -59 -42 -100t-102 -41q-57 0 -99 41.5t-42 99.5z" />
<glyph unicode="&#x22;" horiz-adv-x="720" d="M483 1026q-15 0 -27 12t-12 27v330q0 15 12 27t27 12h117q21 0 32 -15.5t5 -36.5l-70 -325q-3 -12 -14.5 -21.5t-22.5 -9.5h-47zM154 1026q-15 0 -27 12t-12 27v330q0 15 12 27t27 12h116q21 0 32 -15.5t5 -36.5l-69 -325q-3 -12 -14.5 -21.5t-22.5 -9.5h-47z" />
<glyph unicode="#" horiz-adv-x="1155" d="M233 45l50 346h-144q-17 0 -28 10t-11 25v29q0 17 11 27t28 10h158l49 342h-147q-16 0 -27.5 9.5t-11.5 24.5v29q0 15 12 26t27 11h159l66 467q2 12 13 22.5t24 10.5h22q18 0 29 -13.5t8 -31.5l-61 -455h315l64 467q2 12 14 22.5t25 10.5h18q19 0 30.5 -13t8.5 -32 l-62 -455h138q17 0 28 -11t11 -26v-29q0 -15 -10 -24.5t-27 -9.5h-152l-49 -342h139q16 0 27.5 -10t11.5 -27v-29q0 -15 -11 -25t-26 -10h-155l-52 -358q-2 -14 -12.5 -23.5t-25.5 -9.5h-21q-19 0 -30 13t-9 32l51 346h-319l-49 -358q-1 -13 -13 -23t-26 -10h-19 q-20 0 -31 13t-8 32zM395 492h320l45 342h-316z" />
<glyph unicode="$" d="M182 141q-11 11 -15.5 17t-5 19.5t10.5 29.5l59 86q29 41 64 14q11 -11 43.5 -35t99.5 -58t129 -46v463q-61 24 -110 48t-105 63t-93 82.5t-62 105t-25 131.5q0 163 109.5 270t287.5 121v66q0 17 11.5 27.5t27.5 10.5h21q15 0 25 -10.5t10 -27.5v-68q81 -6 164.5 -35.5 t114.5 -47t56 -34.5q14 -9 19 -26.5t-6 -42.5q-6 -8 -15.5 -23.5t-16.5 -25.5t-16.5 -22.5t-17.5 -19.5t-17.5 -12t-19.5 -4t-20 8q-1 1 -17.5 10.5t-37.5 21t-48.5 24.5t-60 25.5t-61.5 19.5v-451q73 -31 126 -58t111 -67.5t94 -84.5t60 -105.5t24 -132.5q0 -159 -115 -265 t-300 -120v-213q0 -18 -12.5 -27.5t-30.5 -9.5q-54 0 -54 37v213q-75 6 -145 26.5t-119 49t-76 47.5t-45 36zM567 856v414q-96 -10 -146 -63.5t-50 -114.5q0 -76 48.5 -132.5t147.5 -103.5zM664 160q89 11 144.5 59.5t55.5 128.5q0 72 -49.5 128.5t-150.5 109.5v-426z" />
<glyph unicode="%" horiz-adv-x="1404" d="M373 903q-115 0 -196 80.5t-81 196.5q0 115 80.5 195.5t196.5 80.5q114 0 195 -80.5t81 -195.5t-81 -196t-195 -81zM276 55l703 1358q14 21 35 21h67q23 0 34.5 -18t0.5 -38l-706 -1358q-3 -6 -15.5 -13t-19.5 -7h-64q-23 0 -34 17.5t-1 37.5zM373 1049q53 0 90 38t37 93 q0 51 -37.5 89t-89.5 38q-53 0 -91 -37.5t-38 -89.5q0 -55 37.5 -93t91.5 -38zM758 254q0 116 80 196t196 80q114 0 195.5 -80.5t81.5 -195.5t-81.5 -196t-195.5 -81q-115 0 -195.5 80.5t-80.5 196.5zM903 254q0 -54 38 -91.5t93 -37.5q52 0 89.5 37.5t37.5 91.5 q0 52 -38 89.5t-89 37.5q-55 0 -93 -37t-38 -90z" />
<glyph unicode="&#x26;" horiz-adv-x="1366" d="M115 360q0 51 12.5 98.5t30 83t46.5 70t51.5 56t55.5 45.5t48.5 33.5t39.5 23.5v4l-47 51q-68 76 -104.5 142t-36.5 149q0 144 108.5 241t266.5 97q164 0 265 -94t101 -232q0 -41 -12 -81t-28 -71t-44.5 -64.5t-48.5 -54t-54 -47.5t-47.5 -36.5t-41.5 -28.5l287 -286 q67 129 77 295q1 33 14.5 44t43.5 5l84 -17q9 -1 15.5 -4t10.5 -6.5t6.5 -8.5t3.5 -8.5t1 -10v-9t-1 -9t-1 -7.5q-11 -107 -46 -211t-79 -182l190 -185q15 -15 21 -25.5t1.5 -28.5t-26.5 -40l-53 -53q-44 -41 -88 6l-162 164q-68 -77 -181 -132.5t-266 -55.5 q-187 0 -300 110t-113 270zM557 866q2 1 20.5 12t25.5 15.5t26.5 17.5t29 21t27 23t27.5 27t22.5 29.5t19 33.5t11 35.5t4.5 39.5q0 70 -53.5 123t-141.5 53q-77 0 -129.5 -50t-52.5 -130q0 -53 29.5 -99t89.5 -106zM309 373q0 -96 68.5 -158.5t167.5 -62.5q183 0 307 147 l-342 360q-36 -23 -60 -40.5t-62 -54.5t-58.5 -85.5t-20.5 -105.5z" />
<glyph unicode="'" horiz-adv-x="391" d="M154 1026q-15 0 -27 12t-12 27v330q0 15 12 27t27 12h116q21 0 32 -15.5t5 -36.5l-69 -325q-3 -12 -14.5 -21.5t-22.5 -9.5h-47z" />
<glyph unicode="(" horiz-adv-x="692" d="M612 -4q11 -3 18.5 -13.5t4.5 -23.5l-4 -94q-3 -27 -39 -27q-62 4 -118 22t-113.5 54.5t-104 99t-83.5 148t-57 209t-20 274.5q0 130 15.5 240t42 190.5t64.5 144t80.5 105t93 69.5t99.5 40.5t101 15.5q36 3 39 -27l4 -94q3 -13 -4.5 -24t-18.5 -13q-167 -37 -242 -198.5 t-75 -448.5q0 -288 75 -449t242 -200z" />
<glyph unicode=")" horiz-adv-x="692" d="M57 -39q-2 12 5.5 23t17.5 12q168 39 243.5 200t75.5 449q0 287 -76 448.5t-243 198.5q-11 2 -17.5 13t-5.5 24l6 94q0 30 37 27q52 -3 101 -15.5t99.5 -40.5t93 -69.5t80.5 -105t64.5 -144t42 -190.5t15.5 -240q0 -151 -20 -274.5t-57 -209t-83.5 -148t-104 -99 t-113.5 -54.5t-118 -22q-37 0 -37 27z" />
<glyph unicode="*" horiz-adv-x="856" d="M406 803q-15 0 -27 12t-12 27l4 174l-144 -101q-12 -9 -28.5 -5t-24.5 16l-24 39q-9 14 -5.5 30t15.5 25l162 98l-164 101q-12 9 -15.5 25t4.5 28q17 26 27 39q8 12 23.5 15.5t27.5 -5.5l146 -100l-4 174q0 15 12 27t27 12h45q15 0 26.5 -12t11.5 -27l-4 -174l144 104 q12 7 28 3.5t25 -15.5l25 -39q8 -13 5 -28.5t-16 -24.5l-164 -103l164 -102q14 -9 17.5 -25t-4.5 -28l-27 -39q-7 -13 -23.5 -17t-29.5 4l-144 103l4 -172q0 -15 -11.5 -27t-26.5 -12h-45z" />
<glyph unicode="+" d="M532 313v314h-315q-15 0 -27 12t-12 27v86q0 15 12 27t27 12h315v317q0 15 12 26t27 11h86q15 0 27 -11t12 -26v-317h316q15 0 26 -12t11 -27v-86q0 -15 -11 -27t-26 -12h-316v-314q0 -15 -12 -26t-27 -11h-86q-15 0 -27 11t-12 26z" />
<glyph unicode="," horiz-adv-x="522" d="M94 145q0 60 43 101t109 41q80 0 132 -68.5t52 -181.5q0 -220 -154 -406q-22 -22 -43 -4l-51 41q-19 19 2 43q111 139 111 262q0 41 -10 56q-26 -23 -68 -23q-58 0 -90.5 39.5t-32.5 99.5z" />
<glyph unicode="-" horiz-adv-x="770" d="M164 422q-17 0 -28 11t-11 26v88q0 17 11 28t28 11h442q17 0 28 -11t11 -28v-88q0 -15 -11 -26t-28 -11h-442z" />
<glyph unicode="." horiz-adv-x="516" d="M94 141q0 69 48 117.5t114 48.5q69 0 117.5 -48.5t48.5 -117.5q0 -68 -48.5 -116t-117.5 -48q-66 0 -114 48.5t-48 115.5z" />
<glyph unicode="/" horiz-adv-x="808" d="M119 51l401 1356q3 11 14 19t23 8h96q22 0 32.5 -15t4.5 -37l-399 -1355q-3 -10 -14.5 -18.5t-22.5 -8.5h-98q-21 0 -32 15t-5 36z" />
<glyph unicode="0" horiz-adv-x="1314" d="M657 -20q-248 0 -385 195t-137 542q0 348 137 542.5t385 194.5t385.5 -194.5t137.5 -542.5q0 -347 -137.5 -542t-385.5 -195zM657 170q148 0 229 142.5t81 404.5q0 259 -81 401t-229 142t-228.5 -141.5t-80.5 -401.5q0 -262 80.5 -404.5t228.5 -142.5z" />
<glyph unicode="1" horiz-adv-x="727" d="M313 41v1071l-168 -80q-13 -6 -28 -2t-19 17l-24 73q-9 24 6 43l268 244q34 27 72 27h63q15 0 26 -12t11 -27v-1354q0 -17 -11 -29t-26 -12h-129q-17 0 -29 12t-12 29z" />
<glyph unicode="2" horiz-adv-x="1128" d="M418 186v-4h532q41 0 41 -41v-100q0 -20 -11.5 -30.5t-29.5 -10.5h-815q-18 0 -29.5 11.5t-11.5 29.5v16q0 16 1 23.5t6.5 18t17.5 24.5q79 92 257.5 305t250.5 297q159 182 159 307q0 42 -15 81t-45 73.5t-81.5 55t-118.5 20.5q-135 0 -268 -142q-12 -12 -27.5 -12 t-27.5 12l-72 72q-11 9 -12 26t10 29q6 8 18.5 22t53 50t85 63t113 49.5t138.5 22.5q110 0 199.5 -33.5t146 -91t86.5 -131.5t30 -158q0 -59 -14 -111t-45.5 -105t-60.5 -91.5t-82 -101.5q-203 -243 -379 -445z" />
<glyph unicode="3" horiz-adv-x="1146" d="M106 166q-9 12 -8 27t11 24l81 76q30 27 58 -4q60 -62 125.5 -96.5t161.5 -34.5q111 0 187.5 60.5t76.5 176.5q0 107 -85 172.5t-249 65.5h-117q-41 0 -41 45v90q0 45 43 45h117q144 0 221.5 62.5t77.5 160.5q0 102 -72 166t-170 64q-139 0 -243 -119q-9 -12 -25.5 -14 t-30.5 10l-78 69q-12 11 -11.5 28t11.5 28q7 8 19 20.5t52 44.5t83 56.5t107.5 44.5t128.5 20q189 0 315.5 -106t126.5 -281q0 -111 -67.5 -201t-149.5 -129v-6q33 -14 64.5 -32t67 -48.5t61.5 -66.5t43.5 -86.5t17.5 -106.5q0 -176 -132.5 -293.5t-351.5 -117.5 q-261 0 -426 186z" />
<glyph unicode="4" horiz-adv-x="1294" d="M100 313q-17 0 -29 12.5t-12 28.5v86q0 40 27 74l745 913q22 27 64 27h55q16 0 28.5 -12t12.5 -29v-924h170q18 0 29.5 -10.5t11.5 -27.5v-99q0 -15 -12 -27t-29 -12h-170v-272q0 -17 -12 -29t-27 -12h-125q-15 0 -27 12t-12 29v272h-688zM293 494v-5h504v613h-4z" />
<glyph unicode="5" horiz-adv-x="1157" d="M150 154q-22 25 -23.5 38.5t18.5 32.5q9 8 36 34.5t42 39.5q29 25 51 0q60 -66 126.5 -101.5t156.5 -35.5q131 0 214 89.5t83 209.5q0 116 -76.5 192t-216.5 76h-323q-29 0 -47.5 23.5t-18.5 50.5v592q0 16 11.5 27.5t29.5 11.5h651q17 0 29 -12t12 -27v-105 q0 -15 -12 -27t-29 -12h-502v-333h213q229 0 357.5 -123.5t128.5 -331.5q0 -131 -64 -241.5t-179.5 -176t-256.5 -65.5q-81 0 -152.5 17.5t-121.5 46.5t-81.5 55t-55.5 55z" />
<glyph unicode="6" horiz-adv-x="1187" d="M121 569q0 121 29 231t74.5 192t111 155t127 122.5t134.5 92.5t122 65.5t100 42.5q40 12 53 -24l37 -88q17 -43 -39 -60q-35 -12 -82.5 -35t-114.5 -65.5t-125.5 -92t-108.5 -119.5t-70 -144q17 11 48.5 25.5t100 33.5t131.5 19q84 0 163 -31t141 -87.5t99.5 -144.5 t37.5 -194q0 -130 -64 -242t-172 -176.5t-233 -64.5q-123 0 -220 46t-157.5 126.5t-91.5 186.5t-31 230zM616 168q118 0 198.5 86t80.5 207q0 119 -81.5 203t-199.5 84q-70 0 -134.5 -31t-99.5 -65t-54 -66q-6 -69 7 -140t45.5 -134.5t94 -103.5t143.5 -40z" />
<glyph unicode="7" horiz-adv-x="1040" d="M735 1245v4h-620q-15 0 -27 12t-12 27v107q0 15 12 27t27 12h864q17 0 28 -9t11 -24q0 -17 -17 -55l-604 -1289q-14 -34 -29 -45.5t-53 -11.5h-96q-21 0 -35 12t-14 29q0 23 8 39z" />
<glyph unicode="8" horiz-adv-x="1236" d="M131 383q0 66 23.5 126t62 103.5t81.5 74.5t87 48v8q-89 45 -153 128.5t-64 195.5q0 172 127.5 279.5t320.5 107.5q196 0 323.5 -107t127.5 -280q0 -58 -20.5 -111t-55 -93t-69 -68.5t-72.5 -49.5v-10q43 -17 86 -48t82 -75t63.5 -104t24.5 -125q0 -176 -134 -289.5 t-358 -113.5q-219 0 -351 114t-132 289zM618 836q118 17 177 76t59 147q0 96 -69.5 158.5t-174.5 62.5q-95 0 -162 -63t-67 -158q0 -187 237 -223zM350 379q0 -101 79 -165t187 -64q115 0 192 63t77 166q0 89 -72.5 162.5t-194.5 91.5q-124 -18 -196 -91.5t-72 -162.5z" />
<glyph unicode="9" horiz-adv-x="1187" d="M279 84q-21 43 36 61q35 11 83 33t116 63t127 89.5t109.5 117.5t70.5 142q-16 -10 -49.5 -26t-100.5 -34t-130 -18q-85 0 -164 31.5t-141.5 88.5t-100 145t-37.5 194q0 98 38 187.5t101.5 154t151 103t182.5 38.5q122 0 218 -46.5t156 -128t91 -188t31 -231.5 q0 -121 -29.5 -230.5t-74 -190.5t-110.5 -154t-126.5 -121t-135 -92t-121.5 -66t-101 -43q-40 -12 -54 27zM573 684q59 0 113.5 19.5t90 47t57.5 52.5t28 41q7 70 -6.5 141.5t-46 135t-94.5 103.5t-144 40q-115 0 -196.5 -86.5t-81.5 -204.5q0 -120 81.5 -204.5t198.5 -84.5 z" />
<glyph unicode=":" horiz-adv-x="555" d="M279 662q-63 0 -108.5 45t-45.5 108t45.5 107.5t108.5 44.5q64 0 107.5 -44.5t43.5 -107.5q0 -64 -43.5 -108.5t-107.5 -44.5zM125 129q0 64 45.5 110t108.5 46q64 0 107.5 -45.5t43.5 -110.5q0 -62 -43.5 -107t-107.5 -45q-63 0 -108.5 45t-45.5 107z" />
<glyph unicode=";" horiz-adv-x="563" d="M279 662q-63 0 -108.5 45t-45.5 108t45.5 107.5t108.5 44.5q64 0 107.5 -44.5t43.5 -107.5q0 -64 -43.5 -108.5t-107.5 -44.5zM127 137q0 57 41 96t102 39q76 0 126 -65t50 -172q0 -213 -145 -385q-23 -22 -41 -4l-49 39q-18 18 2 41q104 132 104 247q0 39 -10 54 q-21 -21 -63 -21q-55 0 -86 37.5t-31 93.5z" />
<glyph unicode="&#x3c;" d="M217 430q-8 5 -14 15.5t-6 19.5v10q0 9 6 19.5t14 15.5l703 434q20 12 38.5 2t18.5 -35v-108q0 -24 -21 -37l-487 -295l487 -285q21 -13 21 -34v-109q0 -25 -18.5 -35t-38.5 2z" />
<glyph unicode="=" d="M295 705q-17 0 -28 11.5t-11 26.5v88q0 16 11 27.5t28 11.5h639q17 0 28 -11.5t11 -27.5v-88q0 -15 -11 -26.5t-28 -11.5h-639zM295 272q-17 0 -28 11.5t-11 27.5v90q0 16 11 27.5t28 11.5h639q17 0 28 -11.5t11 -27.5v-90q0 -16 -11 -27.5t-28 -11.5h-639z" />
<glyph unicode="&#x3e;" d="M252 43v109q0 24 20 34l486 285l-486 295q-20 10 -20 37v108q0 25 18.5 35t38.5 -2l703 -434q8 -5 14 -15.5t6 -19.5v-10q0 -9 -6 -19.5t-14 -15.5l-703 -420q-20 -12 -38.5 -2t-18.5 35z" />
<glyph unicode="?" horiz-adv-x="983" d="M401 557q-16 0 -27.5 11t-11.5 28v86q0 45 16.5 84t42.5 67.5t57.5 55t63.5 51t58 50t42.5 59t16.5 71.5q0 66 -49 112t-135 46q-41 0 -76.5 -8.5t-64 -25.5t-45.5 -29.5t-39.5 -34t-26.5 -25.5q-25 -21 -49 0l-68 66q-24 21 0 53q5 7 15.5 19.5t47 43.5t78 54.5t109 43 t140.5 19.5q161 0 268.5 -92.5t107.5 -237.5q0 -61 -23.5 -113t-58.5 -86.5t-76.5 -68t-76.5 -59t-58.5 -57.5t-23.5 -66v-76q0 -20 -12 -30.5t-31 -10.5h-111zM313 121q0 60 41.5 101.5t100.5 41.5q60 0 101.5 -41.5t41.5 -101.5q0 -59 -41.5 -100t-101.5 -41 q-59 0 -100.5 41.5t-41.5 99.5z" />
<glyph unicode="@" horiz-adv-x="2050" d="M117 457q0 216 69 401t192.5 316t303.5 205.5t393 74.5q205 0 372.5 -65.5t277.5 -181.5t169.5 -274t59.5 -343q0 -103 -30.5 -200t-85.5 -175.5t-141.5 -126t-189.5 -47.5q-185 0 -239 160h-17q-35 -69 -103.5 -114.5t-158.5 -45.5q-158 0 -261 122t-103 310 q0 192 103.5 310t266.5 118q27 0 52.5 -4.5t45 -11t39.5 -17t33 -19t27 -20.5t21 -18.5t15 -15.5l9 -9q3 10 8 27.5t7.5 24.5t8.5 17.5t13 14.5t18.5 7.5t28.5 3.5h27q15 0 26.5 -12t11.5 -27v-406q0 -70 10 -117.5t29.5 -72t43 -34t55.5 -9.5q109 0 180.5 108t71.5 273 q0 120 -28 226t-86 194t-141 151.5t-198.5 99t-253.5 35.5q-355 0 -565.5 -224t-210.5 -609q0 -264 141.5 -462.5t376.5 -297.5q20 -9 24 -20t-4 -31l-36 -92q-14 -31 -43 -19q-284 111 -459.5 356.5t-175.5 565.5zM1006 733q-64 0 -111.5 -39.5t-69.5 -98t-22 -126.5 q0 -114 58.5 -183t144.5 -69q96 0 143 59.5t47 169.5v158q-5 34 -56.5 81.5t-133.5 47.5z" />
<glyph unicode="A" horiz-adv-x="1366" d="M45 0q-23 0 -33.5 16.5t-1.5 36.5l629 1379q4 9 15.5 15.5t19.5 6.5h20q8 0 19.5 -6.5t15.5 -15.5l625 -1379q9 -20 -1.5 -36.5t-33.5 -16.5h-129q-33 0 -47 31l-127 280h-670l-125 -280q-13 -31 -47 -31h-129zM426 487h512l-252 562h-10z" />
<glyph unicode="B" horiz-adv-x="1269" d="M911 731v-4q105 -40 173.5 -123t68.5 -209q0 -172 -126 -283.5t-320 -111.5h-482q-17 0 -28 11.5t-11 27.5v1356q0 16 11 27.5t28 11.5h459q185 0 305.5 -108.5t120.5 -270.5q0 -111 -55 -196t-144 -128zM395 811h269q98 0 158.5 61t60.5 158q0 100 -59.5 155.5 t-159.5 55.5h-269v-430zM393 188h320q101 0 157 62.5t56 161.5q0 93 -61.5 154t-151.5 61h-320v-439z" />
<glyph unicode="C" horiz-adv-x="1429" d="M98 715q0 202 99 372t269 268.5t372 98.5q150 0 268 -47.5t227 -142.5q13 -12 13.5 -29t-11.5 -29l-90 -92q-22 -29 -51 0q-73 64 -166.5 100.5t-187.5 36.5q-143 0 -262 -73t-185.5 -195t-66.5 -264t67 -264t186.5 -194.5t262.5 -72.5q104 0 185.5 35t166.5 101 q27 21 49 2l94 -93q11 -11 10 -27.5t-12 -27.5q-204 -198 -497 -198q-202 0 -372 97.5t-269 266.5t-99 371z" />
<glyph unicode="D" horiz-adv-x="1513" d="M186 39v1356q0 15 11 27t26 12h471q145 0 278.5 -57t230 -153t153.5 -228t57 -277q0 -117 -36.5 -227t-103 -198t-155 -154.5t-198 -103t-226.5 -36.5h-471q-15 0 -26 12t-11 27zM395 195h277q225 0 369.5 148t144.5 376q0 226 -144.5 373t-369.5 147h-277v-1044z" />
<glyph unicode="E" horiz-adv-x="1179" d="M186 39v1356q0 16 11 27.5t28 11.5h819q17 0 28 -11.5t11 -27.5v-115q0 -16 -11 -27.5t-28 -11.5h-647v-418h547q15 0 27 -12t12 -27v-114q0 -17 -11.5 -28t-27.5 -11h-547v-441h647q17 0 28 -11.5t11 -26.5v-113q0 -16 -11 -27.5t-28 -11.5h-819q-17 0 -28 11.5 t-11 27.5z" />
<glyph unicode="F" horiz-adv-x="1140" d="M186 39v1356q0 16 11 27.5t28 11.5h819q17 0 28 -11.5t11 -27.5v-115q0 -16 -11 -27.5t-28 -11.5h-647v-473h547q15 0 27 -12t12 -27v-113q0 -15 -12 -26.5t-27 -11.5h-547v-539q0 -15 -12 -27t-27 -12h-133q-17 0 -28 11.5t-11 27.5z" />
<glyph unicode="G" horiz-adv-x="1486" d="M98 715q0 151 58.5 288t157 235.5t235.5 157t287 58.5q275 0 497 -190q12 -12 13 -29t-11 -29q-16 -17 -46.5 -48.5t-45.5 -47.5q-23 -25 -53 2q-74 64 -165 101.5t-183 37.5q-142 0 -261 -73t-186 -195t-67 -264q0 -141 67 -263t186 -195t261 -73q40 0 80.5 5t70 11.5 t59.5 16t46 16t34 13.5l17 8v229h-201q-17 0 -28 11t-11 26v119q0 17 11 28t28 11h375q15 0 26 -12t11 -27v-496q0 -19 -17 -32q-9 -5 -24.5 -14.5t-68 -32.5t-108 -41t-139.5 -32.5t-167 -14.5q-150 0 -287 57.5t-235.5 155.5t-157 234.5t-58.5 287.5z" />
<glyph unicode="H" horiz-adv-x="1548" d="M186 39v1356q0 15 12 27t27 12h135q17 0 28 -11.5t11 -27.5v-572h750v572q0 16 11 27.5t28 11.5h135q15 0 27 -12t12 -27v-1356q0 -15 -12 -27t-27 -12h-135q-17 0 -28 11.5t-11 27.5v592h-750v-592q0 -16 -11 -27.5t-28 -11.5h-135q-15 0 -27 12t-12 27z" />
<glyph unicode="I" horiz-adv-x="585" d="M186 39v1356q0 15 12 27t27 12h135q15 0 27 -12t12 -27v-1356q0 -15 -12 -27t-27 -12h-135q-15 0 -27 12t-12 27z" />
<glyph unicode="J" horiz-adv-x="946" d="M39 129q-17 27 4 51l74 80q35 30 65 -4q78 -88 168 -88q86 0 146.5 57t60.5 181v989q0 16 11 27.5t28 11.5h135q17 0 28 -11.5t11 -27.5v-987q0 -207 -116.5 -317.5t-303.5 -110.5q-190 0 -311 149z" />
<glyph unicode="K" horiz-adv-x="1271" d="M186 49v1335q0 21 14.5 35.5t35.5 14.5h118q20 0 34.5 -15t14.5 -35v-567l578 596q17 21 39 21h154q28 0 38.5 -25.5t-10.5 -48.5l-592 -602l627 -690q14 -15 3.5 -41.5t-40.5 -26.5h-164q-28 0 -37 14l-596 672v-637q0 -20 -14.5 -34.5t-34.5 -14.5h-118q-22 0 -36 14 t-14 35z" />
<glyph unicode="L" horiz-adv-x="1026" d="M186 39v1356q0 16 11 27.5t28 11.5h135q15 0 27 -12t12 -27v-1205h555q17 0 28 -11.5t11 -26.5v-113q0 -16 -11 -27.5t-28 -11.5h-729q-17 0 -28 11.5t-11 27.5z" />
<glyph unicode="M" horiz-adv-x="1779" d="M100 47l254 1376q3 12 14 21.5t23 9.5h33q10 0 21 -6.5t14 -15.5l428 -1047h8l426 1047q3 9 13.5 15.5t21.5 6.5h33q12 0 22.5 -9.5t13.5 -21.5l252 -1376q5 -22 -5 -34.5t-32 -12.5h-133q-13 0 -24.5 9t-14.5 20l-151 915h-6l-369 -942q-7 -22 -35 -22h-37q-27 0 -34 22 l-371 942h-8l-148 -915q-2 -11 -13.5 -20t-23.5 -9h-133q-45 0 -39 47z" />
<glyph unicode="N" horiz-adv-x="1562" d="M186 39v1378q0 15 12 26t27 11h17q13 0 19.5 -1t17.5 -8t24 -22l860 -997h4v969q0 16 11 27.5t28 11.5h131q15 0 27 -12t12 -27v-1379q0 -15 -12 -25.5t-27 -10.5h-18q-13 0 -19 1t-17 7t-23 20l-863 1028h-4v-997q0 -16 -11 -27.5t-28 -11.5h-129q-15 0 -27 12t-12 27z " />
<glyph unicode="O" horiz-adv-x="1669" d="M98 715q0 151 58 288t156 236t234.5 157t287.5 58t287.5 -58t235 -157t156.5 -236t58 -288t-58 -287.5t-156.5 -234.5t-235 -155.5t-287.5 -57.5q-202 0 -371 97.5t-267 266.5t-98 371zM303 715q0 -144 71.5 -268t194 -196.5t265.5 -72.5q144 0 266.5 72.5t194 196.5 t71.5 268q0 143 -71 267.5t-194 198.5t-267 74q-143 0 -265.5 -74t-194 -198.5t-71.5 -267.5z" />
<glyph unicode="P" horiz-adv-x="1210" d="M186 39v1356q0 16 11 27.5t28 11.5h467q189 0 324 -133.5t135 -319.5q0 -190 -134.5 -325.5t-322.5 -135.5h-297v-481q0 -15 -12 -27t-27 -12h-133q-17 0 -28 11.5t-11 27.5zM397 721h291q106 0 179 76t73 186q0 104 -73 175t-179 71h-291v-508z" />
<glyph unicode="Q" horiz-adv-x="1669" d="M98 715q0 151 58 288t156 236t234.5 157t287.5 58t287.5 -58t235 -157t156.5 -236t58 -288q0 -215 -114.5 -393.5t-303.5 -272.5l248 -393q13 -22 2.5 -42t-35.5 -20h-160q-20 0 -32 21l-222 373q-52 -8 -120 -8q-202 0 -371 97.5t-267 266.5t-98 371zM303 715 q0 -144 71.5 -267.5t194 -195.5t265.5 -72q144 0 266.5 72t194 195.5t71.5 267.5q0 143 -71 267.5t-194 198.5t-267 74q-143 0 -265.5 -74t-194 -198.5t-71.5 -267.5z" />
<glyph unicode="R" horiz-adv-x="1341" d="M186 39v1356q0 16 11 27.5t28 11.5h557q121 0 224 -58.5t163 -159.5t60 -221q0 -138 -83 -249t-220 -166l280 -521q11 -20 0.5 -39.5t-35.5 -19.5h-153q-30 0 -43 27l-268 534h-310v-522q0 -15 -12 -27t-27 -12h-133q-17 0 -28 11.5t-11 27.5zM401 737h365 q101 0 175.5 74.5t74.5 179.5q0 99 -75 171.5t-175 72.5h-365v-498z" />
<glyph unicode="S" horiz-adv-x="1103" d="M121 141q-12 11 -17 17t-5.5 19.5t10.5 29.5l53 84q12 20 32 24.5t37 -8.5q46 -38 71.5 -57t67 -42t87 -32.5t102.5 -9.5q103 0 167.5 55t64.5 135q0 88 -74.5 153.5t-235.5 131.5q-87 37 -148 73t-115 87t-81.5 119.5t-27.5 154.5q0 50 15 101t49.5 101.5t84.5 89.5 t127.5 63t171.5 24q71 0 140 -15.5t121.5 -40.5t76 -38.5t41.5 -26.5q14 -9 19.5 -26.5t-7.5 -42.5l-51 -78q-13 -21 -31.5 -27.5t-40.5 6.5q-44 28 -63 39t-58 30t-76 26.5t-79 7.5q-61 0 -108 -18t-73 -46.5t-38.5 -59t-12.5 -61.5q0 -84 63.5 -143.5t197.5 -114.5 q80 -32 138 -60.5t118.5 -70t98 -86t61.5 -106.5t24 -135q0 -162 -130 -274.5t-327 -112.5q-87 0 -167.5 19.5t-136.5 50.5t-86.5 52t-49.5 39z" />
<glyph unicode="T" horiz-adv-x="1064" d="M426 39v1202h-334q-17 0 -28 11.5t-11 27.5v115q0 16 11 27.5t28 11.5h881q17 0 28 -11.5t11 -27.5v-115q0 -16 -11 -27.5t-28 -11.5h-334v-1202q0 -15 -12 -27t-27 -12h-135q-15 0 -27 12t-12 27z" />
<glyph unicode="U" horiz-adv-x="1458" d="M172 518v877q0 15 12 27t27 12h137q17 0 28 -11.5t11 -27.5v-863q0 -155 92.5 -251.5t247.5 -96.5q157 0 250.5 95t93.5 249v867q0 16 11 27.5t28 11.5h137q15 0 27 -12t12 -27v-877q0 -233 -158 -385.5t-401 -152.5q-241 0 -398 152.5t-157 385.5z" />
<glyph unicode="V" horiz-adv-x="1361" d="M635 2l-625 1378q-9 20 1.5 37t33.5 17h145q11 0 21.5 -7.5t13.5 -15.5l451 -1014h10l453 1014q9 23 35 23h145q23 0 33.5 -17t1.5 -37l-629 -1378q-11 -22 -35 -22h-20q-24 0 -35 22z" />
<glyph unicode="W" horiz-adv-x="1814" d="M440 8l-387 1376q-6 22 4.5 36t32.5 14h137q12 0 23 -9t14 -20l248 -940h8l334 967q3 9 13 15.5t22 6.5h37q12 0 22 -6.5t13 -15.5l337 -967h9l243 940q3 11 14 20t23 9h137q22 0 32.5 -14t4.5 -36l-387 -1376q-3 -12 -14 -20t-23 -8h-32q-11 0 -21.5 6.5t-13.5 15.5 l-361 1018h-10l-354 -1018q-3 -9 -13.5 -15.5t-21.5 -6.5h-33q-12 0 -23 8t-14 20z" />
<glyph unicode="X" horiz-adv-x="1220" d="M59 57l422 678l-405 641q-12 20 -1.5 39t36.5 19h174q23 0 34 -19l285 -489h6l293 489q9 19 33 19h174q26 0 36.5 -19t-1.5 -39l-406 -641l420 -678q12 -22 1.5 -39.5t-36.5 -17.5h-157q-26 0 -35 18l-320 525h-8l-315 -525q-13 -18 -35 -18h-158q-27 0 -38.5 18.5 t1.5 38.5z" />
<glyph unicode="Y" horiz-adv-x="1193" d="M596 897h4l369 518q14 19 32 19h154q24 0 34.5 -20t-1.5 -40l-486 -682v-653q0 -15 -11.5 -27t-26.5 -12h-136q-17 0 -28 11.5t-11 27.5v651l-479 684q-12 20 -1.5 40t34.5 20h152q18 0 32 -19z" />
<glyph unicode="Z" horiz-adv-x="1091" d="M92 0q-15 0 -27 12t-12 27q0 34 17 65l659 1125v8h-577q-15 0 -27 12t-12 27v119q0 15 12 27t27 12h841q15 0 27 -12t12 -27q0 -27 -14 -54l-664 -1144v-2h598q17 0 28 -11.5t11 -27.5v-117q0 -16 -11 -27.5t-28 -11.5h-860z" />
<glyph unicode="[" horiz-adv-x="696" d="M334 -322h274q15 0 27 -10.5t12 -25.5v-91q0 -15 -12 -26.5t-27 -11.5h-422q-15 0 -27 11.5t-12 26.5v1844q0 15 12 27t27 12h422q15 0 27 -12t12 -27v-90q0 -17 -11.5 -28t-27.5 -11h-274v-1588z" />
<glyph unicode="\" horiz-adv-x="821" d="M518 27l-399 1355q-6 22 4.5 37t32.5 15h110q12 0 23 -8t14 -19l402 -1356q6 -21 -5 -36t-32 -15h-113q-11 0 -22.5 8.5t-14.5 18.5z" />
<glyph unicode="]" horiz-adv-x="698" d="M90 -322h272v1588h-272q-16 0 -27.5 11t-11.5 28v90q0 15 12 27t27 12h422q15 0 27 -12t12 -27v-1844q0 -15 -12 -26.5t-27 -11.5h-422q-15 0 -27 11.5t-12 26.5v91q0 15 12 25.5t27 10.5z" />
<glyph unicode="^" horiz-adv-x="1073" d="M115 801q-25 0 -35 18.5t2 38.5l420 584q5 8 15.5 14t19.5 6h10q9 0 19.5 -6t15.5 -14l407 -584q12 -20 2 -38.5t-35 -18.5h-104q-20 0 -35 20l-278 389l-283 -389q-12 -20 -37 -20h-104z" />
<glyph unicode="_" horiz-adv-x="1103" d="M186 -59q0 17 11 28t28 11h654q17 0 28 -11t11 -28v-58q0 -15 -11 -26t-28 -11h-654q-17 0 -28 11t-11 26v58z" />
<glyph unicode="`" horiz-adv-x="618" d="M481 1112l-344 148q-12 6 -15.5 20t3.5 29l47 90q7 12 26 12.5t27 -6.5l322 -186q10 -5 13.5 -16t-1.5 -23l-29 -60q-13 -26 -49 -8z" />
<glyph unicode="a" horiz-adv-x="976" d="M72 293q0 135 100.5 220t278.5 85q44 0 91.5 -7t73.5 -15l25 -7q3 115 -31 166t-121 51q-107 0 -264 -45q-42 -9 -53 39l-18 78q-8 42 30 55q21 8 53.5 17.5t113.5 23t159 13.5q64 0 114 -11.5t84.5 -30t59.5 -49.5t39 -63t22 -78.5t10.5 -87.5t2.5 -98v-504 q0 -18 -13.5 -31.5t-31.5 -13.5h-68q-26 0 -39 33l-22 63q-124 -119 -291 -119q-136 0 -220.5 85t-84.5 231zM272 295q0 -66 38.5 -108t109.5 -42q65 0 129.5 37.5t89.5 77.5v158q-13 9 -64.5 21t-107.5 12q-85 0 -140 -42t-55 -114z" />
<glyph unicode="b" horiz-adv-x="1138" d="M143 45v1344q0 18 13.5 31.5t31.5 13.5h117q17 0 31 -14t14 -31v-471q2 1 20 7.5t38.5 12.5t48.5 13t62.5 11.5t68.5 4.5q196 0 330.5 -143.5t134.5 -350.5q0 -133 -58 -247t-160 -181.5t-223 -67.5q-53 0 -104 14t-87 33.5t-64 39t-42 33.5l-14 14l-20 -70 q-10 -41 -43 -41h-50q-19 0 -32 13t-13 32zM348 309q6 -13 22.5 -33t44.5 -45t72.5 -42t94.5 -17q113 0 189.5 89t76.5 212q0 122 -83 210.5t-200 88.5q-55 0 -109 -13t-81 -25l-27 -13v-412z" />
<glyph unicode="c" horiz-adv-x="1007" d="M84 471q0 207 143.5 351.5t341.5 144.5q212 0 344 -164q13 -18 10.5 -36t-18.5 -32l-74 -67q-13 -12 -25 -11.5t-18.5 5.5t-17.5 16q-36 39 -89 66.5t-106 27.5q-121 0 -203.5 -86.5t-82.5 -212.5q0 -127 80.5 -214t199.5 -87q35 0 64 6.5t55 22.5t38 25t37.5 34t29.5 29 q30 30 63 4l64 -51q38 -33 16 -68q-61 -91 -155.5 -144t-213.5 -53q-131 0 -241.5 63.5t-176 177.5t-65.5 253z" />
<glyph unicode="d" horiz-adv-x="1130" d="M86 473q0 208 131 351t326 143q34 0 68.5 -4.5t62.5 -11.5t48 -13t38 -12.5t20 -7.5v471q0 17 14 31t31 14h117q18 0 31.5 -13.5t13.5 -31.5v-1344q0 -19 -13 -32t-32 -13h-49q-33 0 -43 41l-21 70l-14.5 -14.5t-41 -32.5t-65 -40.5t-85.5 -32t-105 -14.5 q-122 0 -222 67.5t-155 181t-55 247.5zM291 473q0 -123 72.5 -212t183.5 -89q50 0 95.5 17.5t73.5 42.5t44.5 45.5t21.5 33.5v406q-11 6 -30 15t-75.5 24.5t-111.5 15.5q-116 0 -195 -88t-79 -211z" />
<glyph unicode="e" horiz-adv-x="1060" d="M86 473q0 133 57.5 245.5t166.5 180.5t247 68q185 0 308.5 -123.5t123.5 -311.5q0 -33 -4 -65q-1 -18 -14 -29.5t-29 -11.5h-653q2 -100 82 -179t200 -79q74 0 126.5 21t105.5 59q36 25 55 -4l55 -86q29 -36 -4 -64q-57 -50 -148.5 -83.5t-201.5 -33.5q-140 0 -249 68 t-166.5 180.5t-57.5 247.5zM299 578h487q-3 89 -67.5 152t-165.5 63q-108 0 -175.5 -61t-78.5 -154z" />
<glyph unicode="f" horiz-adv-x="782" d="M223 45v711h-123q-20 0 -32.5 13.5t-12.5 31.5v100q0 20 12.5 32.5t32.5 12.5h123v109q0 192 89.5 295.5t260.5 103.5q86 0 157.5 -29t111.5 -65q12 -10 14 -26.5t-6 -26.5l-59 -86q-21 -35 -62 -9q-74 48 -151 48q-76 0 -113 -55.5t-37 -149.5v-109h268q19 0 32 -12.5 t13 -32.5v-100q0 -18 -13.5 -31.5t-31.5 -13.5h-268v-711q0 -18 -13.5 -31.5t-31.5 -13.5h-115q-18 0 -31.5 13.5t-13.5 31.5z" />
<glyph unicode="g" horiz-adv-x="1134" d="M291 473q0 -123 80.5 -212t195.5 -89q56 0 110.5 19t81.5 38l27 19v391q-21 41 -82.5 87t-144.5 46q-118 0 -193 -87.5t-75 -211.5zM991 901v-907q0 -143 -58.5 -245t-156 -150t-223.5 -48q-106 0 -196.5 39t-131.5 80q-11 7 -14 25.5t4 28.5l49 90q9 19 27 23t37 -9 q108 -88 221 -88q49 0 89.5 13t74.5 41t52.5 79t18.5 121v51q-16 -10 -42.5 -23t-85 -29t-113.5 -16q-127 0 -232 66t-165 180t-60 250q0 134 56.5 247t159.5 180t230 67q61 0 117 -14.5t94 -37t57.5 -36.5t30.5 -25l25 59q4 11 7 17t10 11t18 5h55q18 0 31.5 -13.5 t13.5 -31.5z" />
<glyph unicode="h" horiz-adv-x="1122" d="M143 45v1344q0 18 13.5 31.5t31.5 13.5h115q17 0 31 -14t14 -31v-521q1 0 10.5 7.5t16.5 12l21 13.5t27 15t31 14.5t36.5 14.5t39.5 11.5t45 8t48 2.5q98 0 170 -33t114 -94.5t62 -140.5t20 -179v-475q0 -18 -13.5 -31.5t-31.5 -13.5h-115q-19 0 -32 13t-13 32v479 q0 118 -48.5 183t-139.5 65q-95 0 -160.5 -46t-87.5 -91v-590q0 -20 -12.5 -32.5t-34.5 -12.5h-113q-19 0 -32 13t-13 32z" />
<glyph unicode="i" horiz-adv-x="491" d="M143 45v856q0 18 13.5 31.5t31.5 13.5h115q17 0 31 -14t14 -31v-856q0 -18 -13.5 -31.5t-31.5 -13.5h-115q-19 0 -32 13t-13 32zM246 1149q-57 0 -96 40t-39 97q0 59 39 99t96 40q58 0 98.5 -40.5t40.5 -98.5q0 -57 -40.5 -97t-98.5 -40z" />
<glyph unicode="j" horiz-adv-x="491" d="M348 901v-987q0 -165 -66.5 -271.5t-170.5 -146.5q-50 -17 -72 25l-43 80q-12 22 -5 43t29 32q123 63 123 213v1012q0 20 13 32.5t32 12.5h115q18 0 31.5 -12.5t13.5 -32.5zM246 1149q-57 0 -96 40t-39 97q0 59 39 99t96 40q58 0 98.5 -40.5t40.5 -98.5q0 -57 -40.5 -97 t-98.5 -40z" />
<glyph unicode="k" horiz-adv-x="1017" d="M143 45v1344q0 18 13.5 31.5t31.5 13.5h115q17 0 31 -14t14 -31v-801l365 330q32 28 59 28h150q29 0 36 -25t-12 -40l-383 -361l402 -459q15 -17 8.5 -39t-35.5 -22h-168q-29 0 -43 18l-379 441v-414q0 -18 -13.5 -31.5t-31.5 -13.5h-115q-19 0 -32 13t-13 32z" />
<glyph unicode="l" horiz-adv-x="503" d="M150 45v1344q0 18 13.5 31.5t31.5 13.5h114q17 0 31 -14t14 -31v-1344q0 -18 -13.5 -31.5t-31.5 -13.5h-114q-19 0 -32 13t-13 32z" />
<glyph unicode="m" horiz-adv-x="1705" d="M143 45v856q0 18 13.5 31.5t31.5 13.5h48q31 0 40 -28l27 -82q13 15 32 31t57 42t94 42t118 16q99 0 166.5 -37t122.5 -113l4 4q144 146 315 146q84 0 148 -23.5t104 -62.5t65 -97.5t34.5 -122t9.5 -141.5v-475q0 -19 -12.5 -32t-32.5 -13h-115q-21 0 -33 13t-12 32v483 q0 244 -186 244q-40 0 -76 -9.5t-62.5 -26t-43 -29.5t-31.5 -29l-15 -16q9 -45 9 -127v-490q0 -19 -13 -32t-30 -13h-117q-20 0 -32.5 13t-12.5 32v483q0 244 -187 244q-49 0 -92 -16.5t-69.5 -40t-41.5 -44.5t-20 -36v-590q0 -18 -13.5 -31.5t-31.5 -13.5h-115 q-19 0 -32 13t-13 32z" />
<glyph unicode="n" horiz-adv-x="1122" d="M143 45v856q0 18 13.5 31.5t31.5 13.5h50q32 0 38 -28l29 -82q11 14 33 32t61.5 42t99 40.5t124.5 16.5q84 0 148.5 -23.5t105.5 -63t66.5 -97.5t35.5 -121.5t10 -141.5v-475q0 -18 -13.5 -31.5t-31.5 -13.5h-115q-19 0 -32 13t-13 32v483q0 117 -47.5 180.5t-138.5 63.5 q-52 0 -99.5 -16.5t-77.5 -40t-48.5 -44.5t-24.5 -36v-590q0 -45 -55 -45h-105q-19 0 -32 13t-13 32z" />
<glyph unicode="o" horiz-adv-x="1132" d="M84 475q0 131 64.5 244.5t176.5 180.5t242 67t241 -67t176 -180.5t65 -244.5q0 -133 -65 -248t-176 -182.5t-241 -67.5q-98 0 -187.5 40t-154 107.5t-103 159t-38.5 191.5zM285 475q0 -130 81 -216.5t201 -86.5q119 0 200 86.5t81 216.5q0 127 -81 212t-200 85 q-120 0 -201 -85t-81 -212z" />
<glyph unicode="p" horiz-adv-x="1134" d="M352 43v-485q0 -21 -13 -33t-36 -12h-115q-19 0 -32 13t-13 32v1343q0 18 13.5 31.5t31.5 13.5h52q30 0 41 -31l24 -61q11 11 30.5 25t57.5 36.5t93.5 37t115.5 14.5q127 0 230 -67t160 -180t57 -247q0 -136 -59.5 -250t-164 -180t-231.5 -66q-55 0 -113.5 15.5t-86 28 t-42.5 22.5zM348 242q10 -8 29 -19.5t76.5 -31t113.5 -19.5q116 0 196.5 87t80.5 214q0 128 -74.5 213.5t-194.5 85.5q-89 0 -153 -49t-74 -84v-397z" />
<glyph unicode="q" horiz-adv-x="1134" d="M86 473q0 134 56.5 247t159.5 180t230 67q61 0 117 -14.5t94 -37t57.5 -36.5t30.5 -25l25 59q4 11 7 17t10 11t18 5h55q18 0 31.5 -13.5t13.5 -31.5v-1343q0 -19 -13 -32t-32 -13h-115q-20 0 -33.5 12t-13.5 33v487q-16 -10 -42.5 -23t-85 -29t-113.5 -16q-127 0 -232 66 t-165 180t-60 250zM291 473q0 -123 80.5 -212t195.5 -89q56 0 110.5 19t81.5 38l27 19v368q-4 13 -20.5 37t-44 51.5t-71 47.5t-91.5 20q-118 0 -193 -87.5t-75 -211.5z" />
<glyph unicode="r" horiz-adv-x="790" d="M143 45v856q0 18 13.5 31.5t31.5 13.5h50q14 0 26 -10t15 -23l26 -86q9 14 29 33.5t55 45.5t89 43.5t114 17.5q80 0 136.5 -22.5t35.5 -65.5l-49 -103q-9 -19 -26 -24.5t-32 2.5q-32 18 -86 18q-48 0 -91.5 -17t-70.5 -41t-41.5 -41.5t-19.5 -27.5v-600 q0 -28 -15.5 -36.5t-49.5 -8.5h-95q-19 0 -32 13t-13 32z" />
<glyph unicode="s" horiz-adv-x="827" d="M416 -23q-173 0 -312 97q-30 21 -16 49l43 88q8 15 25.5 18.5t36.5 -6.5q38 -22 62 -33t72.5 -23.5t100.5 -12.5q59 0 92 25.5t33 66.5q0 44 -47.5 79.5t-155.5 84.5q-125 57 -190.5 124t-65.5 175q0 47 17.5 91t53 82.5t98.5 61.5t145 23q89 0 161.5 -21t114.5 -49 q18 -12 24 -31.5t-3 -38.5l-33 -65q-19 -38 -62 -19q-109 48 -202 48q-58 0 -89.5 -24.5t-31.5 -59.5q0 -42 40.5 -73.5t121.5 -66.5q63 -27 100 -44.5t81.5 -46.5t67.5 -57.5t39.5 -71t16.5 -93.5q0 -115 -92.5 -196t-245.5 -81z" />
<glyph unicode="t" horiz-adv-x="778" d="M207 260v512h-109q-20 0 -32.5 13.5t-12.5 31.5v84q0 20 12.5 32.5t32.5 12.5h109v264q0 19 13 32t32 13h117q19 0 31 -13t12 -32v-264h250q19 0 32 -12.5t13 -32.5v-84q0 -18 -13.5 -31.5t-31.5 -13.5h-250v-504q0 -56 19 -76t56 -20q73 0 152 45q39 21 55 -20l37 -97 q13 -33 -22 -55q-37 -23 -112 -45.5t-151 -22.5q-133 0 -186 73t-53 210z" />
<glyph unicode="u" horiz-adv-x="1091" d="M133 412v489q0 17 14 31t31 14h115q18 0 31.5 -13.5t13.5 -31.5v-504q0 -225 184 -225q48 0 90.5 18t69 44t42.5 51t19 43v573q0 27 12.5 36t41.5 9h104q19 0 33 -14t14 -31v-856q0 -19 -14 -32t-33 -13h-49q-29 0 -43 39l-25 67q-1 -1 -9 -9.5t-14.5 -15t-19.5 -18 t-26.5 -20t-31.5 -19t-39 -18.5t-45.5 -15t-53.5 -10.5t-60 -3.5q-83 0 -145 22t-101 59.5t-63 94t-33.5 118.5t-9.5 141z" />
<glyph unicode="v" horiz-adv-x="993" d="M451 2l-410 891q-12 22 -1.5 37.5t36.5 15.5h125q28 0 41 -26l252 -580h4l264 580q8 18 22 22t41 4h93q26 0 36 -15.5t-2 -37.5l-409 -891q-13 -25 -39 -25h-12q-28 0 -41 25z" />
<glyph unicode="w" horiz-adv-x="1443" d="M342 2l-276 891q-11 22 -1.5 37.5t33.5 15.5h123q13 0 25.5 -7.5t15.5 -20.5l156 -543h4l256 569q12 23 39 23h14q33 0 41 -23l254 -571h4l152 545q4 10 11.5 16.5t20 8.5t19 2.5t20.5 0.5h86q25 0 36 -15.5t1 -37.5l-270 -891q-3 -10 -15.5 -17.5t-27.5 -7.5h-8 q-29 0 -41 23l-289 643h-4l-291 -643q-8 -23 -37 -23h-12q-32 0 -39 25z" />
<glyph unicode="x" horiz-adv-x="1003" d="M70 61l301 420l-293 400q-18 25 -8.5 45t36.5 20h142q39 0 55 -26l197 -293h4l198 293q17 26 56 26h143q29 0 37.5 -19t-8.5 -42l-293 -400l295 -424q15 -23 6.5 -42t-35.5 -19h-137q-30 0 -49 29l-213 313h-4l-219 -324q-11 -18 -37 -18h-148q-30 0 -37 19t11 42z" />
<glyph unicode="y" horiz-adv-x="1017" d="M373 33l-326 852q-9 25 2.5 43t38.5 18h135q11 0 24 -7.5t17 -18.5l219 -650h4l267 650q9 26 49 26h127q29 0 40.5 -18t0.5 -43l-578 -1344q-16 -28 -39 -28h-131q-27 0 -40 19.5t-1 43.5z" />
<glyph unicode="z" horiz-adv-x="847" d="M115 0q-19 0 -32 13t-13 32q0 24 16 53l399 654v4h-350q-17 0 -30 14t-13 31v100q0 20 12.5 32.5t30.5 12.5h610q20 0 34 -12t14 -29q0 -10 -7 -24l-413 -688v-7h325q20 0 32.5 -12.5t12.5 -32.5v-96q0 -19 -12.5 -32t-32.5 -13h-583z" />
<glyph unicode="{" horiz-adv-x="815" d="M223 -29v271q0 62 -47 101.5t-94 47.5q-12 1 -21.5 13t-9.5 24v82q0 11 9 20.5t20 12.5q37 4 90 47t53 102v275q0 86 17 156.5t45.5 119.5t70 86.5t84.5 60t95 36.5t97 19.5t95 6.5q18 2 29.5 -7.5t11.5 -27.5l4 -84q1 -12 -7.5 -23.5t-19.5 -13.5q-71 -12 -126.5 -34.5 t-102 -60.5t-71.5 -97t-25 -137v-224q0 -66 -19.5 -119t-50 -83.5t-53 -45.5t-43.5 -24v-6q22 -10 39.5 -19.5t43 -32t42 -49t29 -70.5t12.5 -97v-226q0 -78 25 -136.5t71.5 -95t101.5 -57.5t127 -34q11 -2 19.5 -12.5t7.5 -24.5l-4 -84q0 -15 -13 -26t-28 -9 q-504 10 -504 479z" />
<glyph unicode="|" horiz-adv-x="387" d="M145 -451v1969q0 17 11.5 27.5t27.5 10.5h21q15 0 26 -10.5t11 -27.5v-1969q0 -15 -12 -25.5t-27 -10.5h-19q-15 0 -27 10.5t-12 25.5z" />
<glyph unicode="}" horiz-adv-x="815" d="M395 -25v226q0 53 12.5 97t29 70.5t42 49t43 32t39.5 19.5v6q-21 9 -43.5 24t-53 46t-50 84t-19.5 119v223q0 78 -25 136.5t-71.5 95.5t-101.5 59t-127 34q-11 2 -19.5 13.5t-7.5 23.5l4 84q0 18 11.5 27.5t29.5 7.5q504 -10 504 -481v-275q0 -59 53 -102t90 -47 q11 -3 20 -12.5t9 -20.5v-82q0 -12 -9.5 -24t-21.5 -13q-47 -8 -94 -47.5t-47 -101.5v-271q0 -473 -504 -483q-15 -2 -28 9t-13 26l-4 84q-1 14 7.5 24.5t19.5 12.5q71 12 126.5 34.5t102 59.5t71.5 96t25 137z" />
<glyph unicode="~" horiz-adv-x="1128" d="M168 434q-13 12 -35.5 30.5t-34.5 29.5q-23 27 -4 49q5 8 15 21t41 47t63 60t79.5 47t92.5 21q42 0 86 -16.5t63.5 -29t63.5 -42.5q94 -67 150 -67q29 0 55 11.5t47.5 33.5t32 35t26.5 36q12 15 28 17t30 -10l65 -60q11 -9 12 -23.5t-8 -25.5q-5 -8 -14.5 -21t-40 -46.5 t-62.5 -59.5t-79 -47t-92 -21q-15 0 -29.5 1.5t-30 5.5t-26 7t-26 11t-22.5 10.5t-24 13t-20.5 13t-22 14.5t-19.5 13q-3 2 -17 12t-19 13t-18 11.5t-21.5 12t-20.5 8t-23.5 6.5t-23.5 2q-85 0 -162 -117q-10 -15 -26.5 -16.5t-28.5 10.5z" />
<glyph unicode="&#xa1;" horiz-adv-x="495" d="M250 682q-60 0 -102 41.5t-42 101.5q0 59 42 100.5t102 41.5q57 0 99 -42t42 -100q0 -59 -41.5 -101t-99.5 -42zM186 356q2 12 14 22.5t25 10.5h45q13 0 25 -10.5t14 -22.5l60 -571v-234q0 -15 -12 -26.5t-27 -11.5h-164q-15 0 -27 11.5t-12 26.5v230z" />
<glyph unicode="&#xa2;" horiz-adv-x="1093" d="M129 471q0 102 39 194.5t105 157.5t155 103.5t186 38.5q6 0 19.5 -1t19.5 -1l27 100q5 18 20.5 27t32.5 2l25 -7q18 -3 27 -18t3 -35l-24 -90q111 -37 194 -139q13 -18 10.5 -36t-18.5 -32l-73 -67q-13 -12 -25.5 -11.5t-19 5.5t-17.5 16q-52 52 -102 74l-156 -574 q27 -6 57 -6q35 0 64 6.5t55 22.5t38 25t37.5 34t29.5 29q30 30 63 4l64 -51q38 -33 16 -68q-61 -91 -155.5 -144t-213.5 -53q-49 0 -106 13l-64 -236q-3 -17 -18.5 -25t-34.5 -3l-20 6q-19 5 -28 18.5t-5 32.5l65 242q-124 60 -198 177.5t-74 268.5zM334 473 q0 -78 32.5 -144t88.5 -106l147 547q-115 -6 -191.5 -90.5t-76.5 -206.5z" />
<glyph unicode="&#xa3;" d="M258 39v37q92 170 92 362q0 89 -14 160h-90q-15 0 -26 12t-11 27v20q0 15 11 27t26 12h65q-3 13 -22 80t-30 128.5t-11 121.5q0 195 122.5 311.5t307.5 116.5q182 0 346 -145q12 -9 13 -25.5t-9 -28.5l-72 -88q-26 -35 -57 -4q-4 4 -12.5 11.5t-33.5 26t-50 32.5 t-60 25.5t-67 11.5q-97 0 -163.5 -66.5t-66.5 -173.5q0 -57 15 -121.5t34.5 -126t24.5 -86.5h287q17 0 28 -11.5t11 -27.5v-22q0 -15 -11 -26t-28 -11h-266q8 -47 8 -129q0 -171 -45 -291h457q15 0 25.5 -11t10.5 -28v-100q0 -15 -10.5 -27t-25.5 -12h-664q-15 0 -27 12 t-12 27z" />
<glyph unicode="&#xa4;" horiz-adv-x="995" d="M223 344l-61 62q-10 10 -10 27t10 28l92 90q-33 59 -33 129q0 68 33 127l-90 92q-10 11 -10 28t10 27l61 60q11 10 28 10t28 -10l90 -90q54 32 129 32q73 0 127 -32l90 92q11 10 27 9.5t28 -11.5l59 -62q11 -11 12 -26.5t-9 -26.5l-91 -90q33 -68 33 -129q0 -63 -33 -131 l91 -90q10 -11 10 -27t-10 -26l-62 -62q-11 -11 -26.5 -11.5t-26.5 9.5l-92 92q-64 -33 -127 -33q-69 0 -131 35l-90 -92q-11 -10 -28 -10t-28 10zM500 551q54 0 91.5 37.5t37.5 91.5t-37.5 91.5t-91.5 37.5t-91.5 -37.5t-37.5 -91.5t37.5 -91.5t91.5 -37.5z" />
<glyph unicode="&#xa5;" d="M258 248q-15 0 -26 12t-11 27v20q0 15 11 27t26 12h248v148h-248q-15 0 -26 11.5t-11 26.5v21q0 15 11 27t26 12h248v98l-481 684q-12 20 -2 40t34 20h154q19 0 33 -19l370 -522l371 522q14 19 33 19h153q24 0 34.5 -20t-1.5 -40l-487 -682v-100h244q17 0 27.5 -11.5 t10.5 -27.5v-23q0 -15 -10.5 -25.5t-27.5 -10.5h-244v-148h244q17 0 27.5 -11.5t10.5 -27.5v-22q0 -15 -10.5 -26t-27.5 -11h-244v-209q0 -15 -12 -27t-27 -12h-133q-17 0 -28 11.5t-11 27.5v209h-248z" />
<glyph unicode="&#xa6;" horiz-adv-x="403" d="M193 805q-15 0 -27 11t-12 26v678q0 17 11.5 28t27.5 11h20q15 0 26 -11t11 -28v-678q0 -15 -12 -26t-27 -11h-18zM154 229q0 17 11.5 28t27.5 11h20q15 0 26 -11t11 -28v-678q0 -15 -12 -25.5t-27 -10.5h-18q-15 0 -27 10.5t-12 25.5v678z" />
<glyph unicode="&#xa7;" horiz-adv-x="1153" d="M195 -203q29 42 67 10l13 -10q13 -10 29 -21t39.5 -26t51 -28.5t57.5 -25.5t64 -19t66 -7q85 0 151 42.5t72 117.5q6 91 -67.5 159.5t-233.5 135.5q-169 71 -267 169t-98 238q0 28 6 55t14 48t21.5 43.5t24 36.5t27.5 31.5t25 24.5t23 19l15 13q-1 1 -12.5 11t-18.5 17 t-21 21.5t-24 28t-23.5 32t-22.5 38.5t-17.5 43t-12.5 49t-4 53q0 62 26 123t76.5 114.5t138 87t198.5 33.5q90 0 181 -29t129.5 -51.5t59.5 -38.5q13 -8 19.5 -24t-4.5 -41l-58 -84q-24 -38 -67 -10q-163 98 -267 98q-112 0 -170.5 -52t-58.5 -116q0 -74 63.5 -132.5 t190.5 -109.5q80 -33 136.5 -60t117 -66t97 -80t60 -96.5t23.5 -119.5q0 -27 -6 -55t-14.5 -49.5t-23.5 -45t-26 -39t-28.5 -34t-25.5 -26.5t-23 -21l-15 -14q162 -138 162 -305q0 -155 -129 -260t-317 -105q-69 0 -136 14.5t-112.5 33t-87.5 44t-61 40.5t-33 28 q-12 11 -17.5 18t-6 21t12.5 30zM338 545q0 -27 7.5 -50.5t18.5 -41.5t33.5 -37.5t42 -32.5t55 -31.5t61.5 -30.5t73 -34t78 -37q4 2 11.5 6.5t25.5 21t32 35.5t25.5 51t11.5 68q0 80 -72.5 134t-244.5 126q-27 12 -60 23l-9 -7q-9 -6 -19 -14t-23 -23t-23 -32t-17 -42 t-7 -52z" />
<glyph unicode="&#xa8;" horiz-adv-x="847" d="M647 1149q-54 0 -90.5 36.5t-36.5 90.5q0 55 36.5 92t90.5 37q55 0 92 -36.5t37 -92.5q0 -54 -37 -90.5t-92 -36.5zM244 1149q-54 0 -90.5 36.5t-36.5 90.5q0 55 36.5 92t90.5 37q56 0 92.5 -36.5t36.5 -92.5q0 -54 -37 -90.5t-92 -36.5z" />
<glyph unicode="&#xa9;" horiz-adv-x="1714" d="M121 717q0 200 98.5 369.5t267.5 268.5t369 99t369.5 -99t268.5 -268.5t99 -369.5t-99 -369t-268.5 -267.5t-369.5 -98.5t-369 98.5t-267.5 267.5t-98.5 369zM262 717q0 -161 79.5 -298t216.5 -216.5t298 -79.5q162 0 299 79.5t216 216.5t79 298q0 122 -47 232t-126 189 t-189 126t-232 47q-161 0 -298 -79t-216.5 -216t-79.5 -299zM492 713q0 161 111.5 273t270.5 112q136 0 236 -78q14 -12 15 -28.5t-11 -30.5l-53 -58q-18 -26 -53 -4q-58 41 -131 41q-92 0 -153.5 -65t-61.5 -156q0 -94 61 -157.5t154 -63.5q71 0 127 39q35 21 55 -5l57 -59 q11 -12 10.5 -28.5t-12.5 -28.5q-102 -86 -240 -86q-158 0 -270 112.5t-112 270.5z" />
<glyph unicode="&#xaa;" horiz-adv-x="692" d="M276 821q-84 0 -138 56t-54 147q0 86 64 140.5t176 54.5q28 0 57 -4.5t44 -9.5l15 -5q0 76 -17 105.5t-73 29.5q-24 0 -52 -4t-45 -8t-42 -10.5t-29 -7.5q-26 -6 -32 26l-11 51q-6 25 17 35q7 4 33 12t76 16.5t100 8.5q54 0 93 -14t61 -35.5t34.5 -58t16 -72.5t3.5 -88 v-320q0 -12 -8.5 -20t-19.5 -8h-45q-18 0 -27 20q-2 7 -7 21.5t-7 21.5q-24 -23 -42.5 -37t-57.5 -28.5t-83 -14.5zM303 934q42 0 80 23.5t53 52.5v90q-32 24 -108 24q-48 0 -81.5 -28t-33.5 -70q0 -39 25.5 -65.5t64.5 -26.5z" />
<glyph unicode="&#xab;" horiz-adv-x="937" d="M463 459q-17 23 0 49l223 303q15 25 37 25h72q26 0 34.5 -19.5t-4.5 -44.5l-145 -285l139 -301q11 -25 3 -43t-34 -18h-81q-19 0 -31 16zM305 141l-213 318q-17 23 0 49l223 303q15 25 37 25h72q26 0 35 -19.5t-4 -44.5l-146 -285l140 -301q11 -25 3 -43t-34 -18h-82 q-19 0 -31 16z" />
<glyph unicode="&#xac;" horiz-adv-x="1193" d="M188 629q-15 0 -26.5 12t-11.5 27v86q0 15 11.5 27t26.5 12h791q16 0 27.5 -12.5t11.5 -26.5v-441q0 -15 -12 -26t-27 -11h-86q-15 0 -27 11t-12 26v316h-666z" />
<glyph unicode="&#xad;" horiz-adv-x="770" d="M164 422q-17 0 -28 11t-11 26v88q0 17 11 28t28 11h442q17 0 28 -11t11 -28v-88q0 -15 -11 -26t-28 -11h-442z" />
<glyph unicode="&#xae;" horiz-adv-x="1714" d="M121 717q0 200 98.5 369.5t267.5 268.5t369 99t369.5 -99t268.5 -268.5t99 -369.5t-99 -369t-268.5 -267.5t-369.5 -98.5t-369 98.5t-267.5 267.5t-98.5 369zM262 717q0 -161 79.5 -298t216.5 -216.5t298 -79.5q162 0 299 79.5t216 216.5t79 298q0 122 -47 232t-126 189 t-189 126t-232 47q-161 0 -298 -79t-216.5 -216t-79.5 -299zM592 383v672q0 16 11 27.5t28 11.5h303q102 0 177 -65.5t75 -176.5q0 -166 -156 -225q41 -84 109 -228q10 -20 -1.5 -37.5t-33.5 -17.5h-92q-11 0 -21.5 9t-15.5 20l-103 241h-127v-231q0 -16 -10.5 -27.5 t-27.5 -11.5h-76q-17 0 -28 11.5t-11 27.5zM741 750h183q45 0 73.5 29t28.5 71q0 44 -28 72t-74 28h-183v-200z" />
<glyph unicode="&#xaf;" horiz-adv-x="847" d="M162 1180q-17 0 -28 11t-11 26v57q0 17 11 28t28 11h524q17 0 28 -11t11 -28v-57q0 -15 -11 -26t-28 -11h-524z" />
<glyph unicode="&#xb0;" horiz-adv-x="712" d="M356 901q-115 0 -195.5 80.5t-80.5 196.5t80 196t196 80q114 0 195.5 -80.5t81.5 -195.5t-81.5 -196t-195.5 -81zM356 1040q51 0 91 42t40 96q0 51 -40 91t-91 40q-54 0 -95.5 -40t-41.5 -91q0 -54 41.5 -96t95.5 -42z" />
<glyph unicode="&#xb1;" d="M532 539v225h-313q-15 0 -27 12t-12 27v86q0 15 12 27t27 12h313v303q0 15 12 26t27 11h86q15 0 27 -11t12 -26v-303h316q15 0 26 -12t11 -27v-86q0 -15 -11 -27t-26 -12h-316v-225q0 -15 -12 -26t-27 -11h-86q-15 0 -27 11t-12 26zM180 145v86q0 15 12 27t27 12h793 q15 0 26 -12t11 -27v-86q0 -15 -11 -27t-26 -12h-793q-15 0 -27 12t-12 27z" />
<glyph unicode="&#xb2;" horiz-adv-x="575" d="M80 1032q-21 0 -21 19v30l242 267q59 62 59 108q0 34 -26 59t-74 25q-57 0 -108 -51q-14 -13 -29 2l-43 53q-14 22 4 33q5 5 12 11t27 20t40.5 24t52 18.5t63.5 8.5q102 0 160.5 -52t58.5 -134q0 -83 -88 -181l-138 -149h205q19 0 19 -21v-71q0 -19 -19 -19h-397z" />
<glyph unicode="&#xb3;" horiz-adv-x="577" d="M270 1012q-127 0 -202 75q-16 13 0 29l43 51q13 13 30 0l5 -4q6 -4 13.5 -8.5t19 -10t23 -10t27 -7.5t29.5 -3q44 0 74 21.5t30 56.5q0 36 -31 60t-91 24h-62q-26 0 -26 23v57q0 25 26 25h62q52 0 80 20.5t28 54.5t-27.5 56t-66.5 22q-52 0 -98 -41q-15 -12 -29 2l-45 49 q-6 6 -6 15.5t8 15.5q8 8 23 20.5t63.5 33t99.5 20.5q95 0 156 -46.5t61 -123.5q0 -50 -32 -89t-72 -54v-5q46 -18 84.5 -57.5t38.5 -95.5q0 -79 -66.5 -127.5t-169.5 -48.5z" />
<glyph unicode="&#xb4;" horiz-adv-x="618" d="M199 1112q-36 -18 -49 8l-29 60q-5 12 -1.5 23t13.5 16l322 186q8 7 27 6.5t26 -12.5l47 -90q7 -15 3.5 -29t-15.5 -20z" />
<glyph unicode="&#xb5;" horiz-adv-x="1114" d="M172 -442v1343q0 17 14 31t31 14h115q18 0 31.5 -13.5t13.5 -31.5v-491q0 -117 46.5 -177.5t137.5 -60.5q48 0 90.5 18t69 44t42.5 51t19 43v573q0 27 12.5 36t41.5 9h104q19 0 33 -14t14 -31v-856q0 -19 -14 -32t-33 -13h-49q-29 0 -43 39l-25 67q-1 -1 -9 -9.5 t-14.5 -15t-19.5 -18t-26.5 -20t-31.5 -19t-39 -18.5t-45.5 -15t-53.5 -10.5t-60 -3.5q-80 0 -147 23v-442q0 -18 -13.5 -31.5t-31.5 -13.5h-115q-19 0 -32 13t-13 32z" />
<glyph unicode="&#xb6;" horiz-adv-x="1540" d="M512 575q-175 0 -300.5 125.5t-125.5 305.5q0 176 115.5 302t281.5 126h920q15 0 27 -12t12 -27v-70q0 -17 -11.5 -28t-27.5 -11h-193v-1735q0 -15 -11 -26.5t-28 -11.5h-77q-15 0 -27 11.5t-12 26.5v1735h-299v-1735q0 -15 -12 -26.5t-27 -11.5h-76q-15 0 -27 11.5 t-12 26.5v1024h-90z" />
<glyph unicode="&#xb7;" horiz-adv-x="509" d="M254 379q-61 0 -105.5 44.5t-44.5 104.5q0 64 44 109t106 45q63 0 107.5 -45t44.5 -109q0 -60 -44.5 -104.5t-107.5 -44.5z" />
<glyph unicode="&#xb8;" horiz-adv-x="505" d="M231 6h125l-90 -137q12 4 39 4q74 0 124 -41.5t50 -126.5q0 -100 -66 -152.5t-167 -52.5q-109 0 -170 54q-16 16 0 53l18 37q17 39 49 14q40 -35 95 -35q47 0 74.5 22.5t27.5 63.5q0 39 -27.5 58.5t-72.5 19.5q-17 0 -31 -3.5t-29.5 -9.5t-19.5 -7q-13 -6 -26 7t-7 27z " />
<glyph unicode="&#xb9;" horiz-adv-x="397" d="M184 1032q-9 0 -14.5 5.5t-5.5 13.5v411l-92 -14q-19 -4 -19 12l-8 49q0 13 10 23l148 106h82q7 0 12.5 -5t5.5 -13v-569q0 -8 -5.5 -13.5t-12.5 -5.5h-101z" />
<glyph unicode="&#xba;" horiz-adv-x="696" d="M348 809q-124 0 -191 84.5t-67 236.5q0 153 67 238.5t191 85.5t191 -85.5t67 -238.5q0 -152 -67 -236.5t-191 -84.5zM348 934q54 0 84.5 51t30.5 145q0 95 -30.5 147t-84.5 52t-83 -52t-29 -147t29 -145.5t83 -50.5z" />
<glyph unicode="&#xbb;" horiz-adv-x="937" d="M487 186l140 301l-146 285q-13 25 -4 44.5t35 19.5h72q22 0 37 -25l223 -303q17 -26 0 -49l-213 -318q-12 -16 -31 -16h-82q-26 0 -34 18t3 43zM147 125q-25 0 -33 18t3 43l139 301l-145 285q-13 25 -4.5 44.5t34.5 19.5h72q22 0 37 -25l223 -303q17 -26 0 -49l-213 -318 q-12 -16 -31 -16h-82z" />
<glyph unicode="&#xbc;" horiz-adv-x="1361" d="M219 55l703 1358q14 21 34 21h68q23 0 34.5 -18t0.5 -38l-707 -1358q-3 -6 -15.5 -13t-19.5 -7h-63q-23 0 -34 17.5t-1 37.5zM236 827q-9 0 -15 5.5t-6 13.5v411l-92 -14q-19 -4 -19 12l-8 50q0 12 10 22l148 107h82q7 0 12.5 -5.5t5.5 -13.5v-569q0 -8 -5.5 -13.5 t-12.5 -5.5h-100zM721 135v82l342 383q6 6 16 6h64q8 0 14 -5.5t6 -12.5v-365h82q7 0 13 -5t6 -11v-70q0 -7 -5.5 -12.5t-13.5 -5.5h-82v-101q0 -7 -6 -12.5t-14 -5.5h-90q-8 0 -14.5 5.5t-6.5 12.5v101h-293q-7 0 -12.5 5t-5.5 11zM852 223h184v207z" />
<glyph unicode="&#xbd;" horiz-adv-x="1343" d="M219 55l703 1358q14 21 34 21h68q23 0 34.5 -18t0.5 -38l-707 -1358q-3 -6 -15.5 -13t-19.5 -7h-63q-23 0 -34 17.5t-1 37.5zM236 827q-9 0 -15 5.5t-6 13.5v411l-92 -14q-19 -4 -19 12l-8 50q0 12 10 22l148 107h82q7 0 12.5 -5.5t5.5 -13.5v-569q0 -8 -5.5 -13.5 t-12.5 -5.5h-100zM793 18v31l241 266q60 63 60 109q0 34 -26.5 59t-74.5 25q-57 0 -108 -51q-13 -13 -29 2l-43 53q-14 22 4 33q5 5 12 11t27 20t40.5 24t52 18.5t63.5 8.5q102 0 160.5 -52.5t58.5 -134.5t-88 -180l-137 -149h204q19 0 19 -21v-72q0 -18 -19 -18h-397 q-20 0 -20 18z" />
<glyph unicode="&#xbe;" horiz-adv-x="1439" d="M315 807q-126 0 -202 76q-16 12 0 28l43 52q13 13 30 0l6 -4q5 -4 12.5 -8.5t19 -10t23 -10t27 -7.5t29.5 -3q44 0 74.5 21.5t30.5 55.5q0 36 -31.5 60t-91.5 24h-62q-26 0 -26 23v57q0 25 26 25h62q52 0 80 21t28 55t-27.5 55.5t-66.5 21.5q-52 0 -98 -41q-15 -12 -29 2 l-45 50q-7 6 -7 15t9 15q8 8 23 20.5t63.5 33t99.5 20.5q95 0 156 -46.5t61 -123.5q0 -50 -32 -89t-72 -54v-4q45 -17 84 -57.5t39 -96.5q0 -79 -66.5 -127.5t-169.5 -48.5zM299 55l702 1358q14 21 35 21h68q23 0 34.5 -18t0.5 -38l-707 -1358q-3 -6 -15.5 -13t-19.5 -7h-63 q-23 0 -34 17.5t-1 37.5zM801 135v82l342 383q6 6 16 6h64q8 0 14 -5.5t6 -12.5v-365h82q7 0 12.5 -5t5.5 -11v-70q0 -7 -5.5 -12.5t-12.5 -5.5h-82v-101q0 -7 -6 -12.5t-14 -5.5h-90q-8 0 -14.5 5.5t-6.5 12.5v101h-293q-7 0 -12.5 5t-5.5 11zM932 223h184v207z" />
<glyph unicode="&#xbf;" horiz-adv-x="962" d="M518 682q-60 0 -101.5 41.5t-41.5 101.5q0 59 41.5 100.5t101.5 41.5q58 0 99.5 -41.5t41.5 -100.5q0 -60 -41 -101.5t-100 -41.5zM418 270v76q0 20 12 30.5t31 10.5h110q16 0 27.5 -11t11.5 -28v-86q0 -45 -16.5 -84t-42.5 -67.5t-57.5 -55t-63.5 -51t-58 -50t-42.5 -59 t-16.5 -71.5q0 -66 49.5 -112t135.5 -46q41 0 76.5 8.5t64 25.5t45.5 29.5t39.5 34t26.5 25.5q24 21 49 0l67 -65q24 -21 0 -54q-5 -7 -15.5 -19.5t-46.5 -43.5t-77.5 -54.5t-109 -43t-140.5 -19.5q-161 0 -269 92.5t-108 237.5q0 72 33 131t79.5 98t93 73t79.5 71.5 t33 76.5z" />
<glyph unicode="&#xc0;" horiz-adv-x="1366" d="M45 0q-23 0 -33.5 16.5t-1.5 36.5l629 1379q4 9 15.5 15.5t19.5 6.5h20q8 0 19.5 -6.5t15.5 -15.5l625 -1379q9 -20 -1.5 -36.5t-33.5 -16.5h-129q-33 0 -47 31l-127 280h-670l-125 -280q-13 -31 -47 -31h-129zM426 487h512l-252 562h-10zM823 1585l-344 148 q-12 6 -15.5 20t3.5 29l47 90q7 12 26 12.5t27 -6.5l322 -186q10 -5 13.5 -16t-1.5 -23l-29 -58q-11 -26 -49 -10z" />
<glyph unicode="&#xc1;" horiz-adv-x="1366" d="M45 0q-23 0 -33.5 16.5t-1.5 36.5l629 1379q4 9 15.5 15.5t19.5 6.5h20q8 0 19.5 -6.5t15.5 -15.5l625 -1379q9 -20 -1.5 -36.5t-33.5 -16.5h-129q-33 0 -47 31l-127 280h-670l-125 -280q-13 -31 -47 -31h-129zM426 487h512l-252 562h-10zM541 1585q-37 -17 -49 10 l-29 58q-5 13 -1 23.5t13 15.5l322 186q8 7 27 6.5t26 -12.5l47 -90q8 -15 4.5 -29t-16.5 -20z" />
<glyph unicode="&#xc2;" horiz-adv-x="1366" d="M45 0q-23 0 -33.5 16.5t-1.5 36.5l629 1379q4 9 15.5 15.5t19.5 6.5h20q8 0 19.5 -6.5t15.5 -15.5l625 -1379q9 -20 -1.5 -36.5t-33.5 -16.5h-129q-33 0 -47 31l-127 280h-670l-125 -280q-13 -31 -47 -31h-129zM426 487h512l-252 562h-10zM485 1573q-19 -10 -28.5 -8.5 t-18.5 14.5l-41 55q-6 11 -1.5 21.5t14.5 17.5l256 201q9 8 24 8t25 -8l256 -201q10 -7 14 -17.5t-2 -21.5l-41 -55q-10 -13 -18.5 -15t-28.5 9l-205 133z" />
<glyph unicode="&#xc3;" horiz-adv-x="1366" d="M45 0q-23 0 -33.5 16.5t-1.5 36.5l629 1379q4 9 15.5 15.5t19.5 6.5h20q8 0 19.5 -6.5t15.5 -15.5l625 -1379q9 -20 -1.5 -36.5t-33.5 -16.5h-129q-33 0 -47 31l-127 280h-670l-125 -280q-13 -31 -47 -31h-129zM426 487h512l-252 562h-10zM436 1622l-47 31q-26 15 -12 47 q13 27 23.5 44.5t37 53t62.5 55t78 19.5q40 0 75.5 -20.5t56 -45t45.5 -45t46 -20.5q16 0 30.5 9.5t21 18.5t18 29t14.5 25q21 35 51 18q5 -4 17 -11t21.5 -14t14.5 -14q11 -17 -6 -55q-10 -23 -23.5 -44t-37 -48.5t-57.5 -44.5t-74 -17q-35 0 -69.5 21t-57.5 45.5 t-48.5 45.5t-44.5 21q-51 0 -88 -84q-8 -19 -17 -24t-30 4z" />
<glyph unicode="&#xc4;" horiz-adv-x="1366" d="M45 0q-23 0 -33.5 16.5t-1.5 36.5l629 1379q4 9 15.5 15.5t19.5 6.5h20q8 0 19.5 -6.5t15.5 -15.5l625 -1379q9 -20 -1.5 -36.5t-33.5 -16.5h-129q-33 0 -47 31l-127 280h-670l-125 -280q-13 -31 -47 -31h-129zM426 487h512l-252 562h-10zM913 1589q-54 0 -90.5 37.5 t-36.5 91.5t36.5 90.5t90.5 36.5t91.5 -36.5t37.5 -90.5t-37.5 -91.5t-91.5 -37.5zM444 1589q-54 0 -90.5 37.5t-36.5 91.5t36.5 90.5t90.5 36.5t91.5 -36.5t37.5 -90.5t-37.5 -91.5t-91.5 -37.5z" />
<glyph unicode="&#xc5;" horiz-adv-x="1366" d="M45 0q-23 0 -33.5 16.5t-1.5 36.5l629 1379q4 9 15.5 15.5t19.5 6.5h20q8 0 19.5 -6.5t15.5 -15.5l625 -1379q9 -20 -1.5 -36.5t-33.5 -16.5h-129q-33 0 -47 31l-127 280h-670l-125 -280q-13 -31 -47 -31h-129zM426 487h512l-252 562h-10zM680 1548q-95 0 -161 66.5 t-66 161.5t66 161t161 66q94 0 160.5 -66t66.5 -161t-66.5 -161.5t-160.5 -66.5zM680 1661q44 0 76 35t32 80q0 44 -32 76t-76 32q-47 0 -81 -32t-34 -76q0 -45 33.5 -80t81.5 -35z" />
<glyph unicode="&#xc6;" horiz-adv-x="1828" d="M12 0q-23 0 -29.5 16.5t5.5 36.5l821 1317q2 3 7.5 11.5t7 11t6.5 9t7 8.5l7 7t8.5 6.5t9 4.5t10.5 3.5t12 1.5t15 1h795q17 0 28 -11.5t11 -27.5v-115q0 -16 -11 -27.5t-28 -11.5h-656v-418h555q15 0 27 -12t12 -27v-114q0 -17 -11.5 -28t-27.5 -11h-555v-441h656 q17 0 28 -11.5t11 -26.5v-113q0 -16 -11 -27.5t-28 -11.5h-822q-17 0 -27.5 11.5t-10.5 27.5v272h-455l-178 -284q-19 -27 -45 -27h-144zM485 487h349v562z" />
<glyph unicode="&#xc7;" horiz-adv-x="1429" d="M98 715q0 202 99 372t269 268.5t372 98.5q150 0 268 -47.5t227 -142.5q13 -12 13.5 -29t-11.5 -29l-90 -92q-22 -29 -51 0q-73 64 -166.5 100.5t-187.5 36.5q-143 0 -262 -73t-185.5 -195t-66.5 -264t67 -264t186.5 -194.5t262.5 -72.5q104 0 185.5 35t166.5 101 q27 21 49 2l94 -93q11 -11 10 -27.5t-12 -27.5q-189 -183 -454 -196l-74 -113q12 4 39 4q76 0 130 -42t54 -126q0 -99 -70.5 -152t-173.5 -53q-109 0 -170 54q-16 16 0 53l19 37q17 39 49 14q40 -35 94 -35q103 0 103 76q0 68 -101 68q-13 0 -27.5 -2.5t-23.5 -5.5t-22 -7.5 t-17 -5.5q-13 -6 -26 7.5t-7 27.5l103 203q-185 18 -336 118.5t-238.5 262t-87.5 350.5z" />
<glyph unicode="&#xc8;" horiz-adv-x="1179" d="M186 39v1356q0 16 11 27.5t28 11.5h819q17 0 28 -11.5t11 -27.5v-115q0 -16 -11 -27.5t-28 -11.5h-647v-418h547q15 0 27 -12t12 -27v-114q0 -17 -11.5 -28t-27.5 -11h-547v-441h647q17 0 28 -11.5t11 -26.5v-113q0 -16 -11 -27.5t-28 -11.5h-819q-17 0 -28 11.5 t-11 27.5zM770 1585l-344 148q-12 6 -15.5 20t3.5 29l47 90q7 12 26 12.5t27 -6.5l322 -186q10 -5 13.5 -16t-1.5 -23l-29 -58q-11 -26 -49 -10z" />
<glyph unicode="&#xc9;" horiz-adv-x="1179" d="M186 39v1356q0 16 11 27.5t28 11.5h819q17 0 28 -11.5t11 -27.5v-115q0 -16 -11 -27.5t-28 -11.5h-647v-418h547q15 0 27 -12t12 -27v-114q0 -17 -11.5 -28t-27.5 -11h-547v-441h647q17 0 28 -11.5t11 -26.5v-113q0 -16 -11 -27.5t-28 -11.5h-819q-17 0 -28 11.5 t-11 27.5zM489 1585q-37 -17 -49 10l-28 58q-5 13 -1 23.5t13 15.5l321 186q8 7 27.5 6.5t26.5 -12.5l47 -90q8 -15 4.5 -29t-16.5 -20z" />
<glyph unicode="&#xca;" horiz-adv-x="1179" d="M186 39v1356q0 16 11 27.5t28 11.5h819q17 0 28 -11.5t11 -27.5v-115q0 -16 -11 -27.5t-28 -11.5h-647v-418h547q15 0 27 -12t12 -27v-114q0 -17 -11.5 -28t-27.5 -11h-547v-441h647q17 0 28 -11.5t11 -26.5v-113q0 -16 -11 -27.5t-28 -11.5h-819q-17 0 -28 11.5 t-11 27.5zM420 1575q-19 -10 -28.5 -8.5t-18.5 14.5l-41 55q-6 11 -2 21.5t14 17.5l256 201q9 8 23.5 8t25.5 -8l256 -201q10 -7 14.5 -17.5t-1.5 -21.5l-41 -55q-19 -25 -48 -6l-204 133z" />
<glyph unicode="&#xcb;" horiz-adv-x="1179" d="M186 39v1356q0 16 11 27.5t28 11.5h819q17 0 28 -11.5t11 -27.5v-115q0 -16 -11 -27.5t-28 -11.5h-647v-418h547q15 0 27 -12t12 -27v-114q0 -17 -11.5 -28t-27.5 -11h-547v-441h647q17 0 28 -11.5t11 -26.5v-113q0 -16 -11 -27.5t-28 -11.5h-819q-17 0 -28 11.5 t-11 27.5zM866 1589q-54 0 -90.5 37.5t-36.5 91.5t36.5 90.5t90.5 36.5t91.5 -36.5t37.5 -90.5t-37.5 -91.5t-91.5 -37.5zM397 1589q-54 0 -90.5 37.5t-36.5 91.5t36.5 90.5t90.5 36.5t91.5 -36.5t37.5 -90.5t-37.5 -91.5t-91.5 -37.5z" />
<glyph unicode="&#xcc;" horiz-adv-x="585" d="M186 39v1356q0 15 12 27t27 12h135q15 0 27 -12t12 -27v-1356q0 -15 -12 -27t-27 -12h-135q-15 0 -27 12t-12 27zM432 1585l-344 148q-12 6 -15.5 20t3.5 29l47 90q7 12 26 12.5t27 -6.5l322 -186q10 -5 13.5 -16t-1.5 -23l-29 -58q-11 -26 -49 -10z" />
<glyph unicode="&#xcd;" horiz-adv-x="585" d="M186 39v1356q0 15 12 27t27 12h135q15 0 27 -12t12 -27v-1356q0 -15 -12 -27t-27 -12h-135q-15 0 -27 12t-12 27zM152 1585q-38 -17 -50 10l-28 58q-5 13 -1 23.5t13 15.5l322 186q8 7 27 6.5t26 -12.5l47 -90q8 -15 4.5 -29t-16.5 -20z" />
<glyph unicode="&#xce;" horiz-adv-x="585" d="M186 39v1356q0 15 12 27t27 12h135q15 0 27 -12t12 -27v-1356q0 -15 -12 -27t-27 -12h-135q-15 0 -27 12t-12 27zM86 1575q-19 -10 -28.5 -8.5t-18.5 14.5l-41 55q-6 11 -2 21.5t14 17.5l256 201q9 8 23.5 8t25.5 -8l256 -201q10 -7 14.5 -17.5t-1.5 -21.5l-41 -55 q-10 -13 -18.5 -15t-28.5 9l-205 133z" />
<glyph unicode="&#xcf;" horiz-adv-x="585" d="M186 39v1356q0 15 12 27t27 12h135q15 0 27 -12t12 -27v-1356q0 -15 -12 -27t-27 -12h-135q-15 0 -27 12t-12 27zM528 1589q-54 0 -90.5 37.5t-36.5 91.5t36.5 90.5t90.5 36.5t91.5 -36.5t37.5 -90.5t-37.5 -91.5t-91.5 -37.5zM59 1589q-54 0 -90.5 37.5t-36.5 91.5 t36.5 90.5t90.5 36.5t91.5 -36.5t37.5 -90.5t-37.5 -91.5t-91.5 -37.5z" />
<glyph unicode="&#xd0;" horiz-adv-x="1513" d="M186 39v620h-59q-15 0 -26 12t-11 27v21q0 15 11 27t26 12h59v637q0 15 11 27t26 12h471q145 0 278.5 -57t230 -153t153.5 -228t57 -277q0 -117 -36.5 -227t-103 -198t-155 -154.5t-198 -103t-226.5 -36.5h-471q-15 0 -26 12t-11 27zM395 195h271q226 0 373 148.5 t147 375.5q0 226 -147 373t-373 147h-271v-481h385q17 0 28 -11.5t11 -27.5v-23q0 -15 -11 -26t-28 -11h-385v-464z" />
<glyph unicode="&#xd1;" horiz-adv-x="1562" d="M186 39v1378q0 15 12 26t27 11h17q13 0 19.5 -1t17.5 -8t24 -22l860 -997h4v969q0 16 11 27.5t28 11.5h131q15 0 27 -12t12 -27v-1379q0 -15 -12 -25.5t-27 -10.5h-18q-13 0 -19 1t-17 7t-23 20l-863 1028h-4v-997q0 -16 -11 -27.5t-28 -11.5h-129q-15 0 -27 12t-12 27z M541 1622l-47 31q-26 16 -13 47q13 27 23.5 44.5t37 53t62.5 55t78 19.5q40 0 75.5 -20.5t56 -45t45.5 -45t46 -20.5q16 0 30.5 9.5t21 18.5t18 29t14.5 25q21 35 51 18q2 -1 24.5 -15t29.5 -24q10 -16 -7 -55q-10 -23 -23.5 -44t-37 -48.5t-57.5 -44.5t-74 -17 q-35 0 -69.5 21t-57 45.5t-48 45.5t-44.5 21q-51 0 -88 -84q-8 -19 -17 -24t-30 4z" />
<glyph unicode="&#xd2;" horiz-adv-x="1669" d="M98 715q0 151 58 288t156 236t234.5 157t287.5 58t287.5 -58t235 -157t156.5 -236t58 -288t-58 -287.5t-156.5 -234.5t-235 -155.5t-287.5 -57.5q-202 0 -371 97.5t-267 266.5t-98 371zM303 715q0 -144 71.5 -268t194 -196.5t265.5 -72.5q144 0 266.5 72.5t194 196.5 t71.5 268q0 143 -71 267.5t-194 198.5t-267 74q-143 0 -265.5 -74t-194 -198.5t-71.5 -267.5zM975 1585l-344 148q-12 6 -16 20t3 29l48 90q7 12 26 12.5t27 -6.5l321 -186q10 -5 14 -16t-1 -23l-29 -58q-11 -26 -49 -10z" />
<glyph unicode="&#xd3;" horiz-adv-x="1669" d="M98 715q0 151 58 288t156 236t234.5 157t287.5 58t287.5 -58t235 -157t156.5 -236t58 -288t-58 -287.5t-156.5 -234.5t-235 -155.5t-287.5 -57.5q-202 0 -371 97.5t-267 266.5t-98 371zM303 715q0 -144 71.5 -268t194 -196.5t265.5 -72.5q144 0 266.5 72.5t194 196.5 t71.5 268q0 143 -71 267.5t-194 198.5t-267 74q-143 0 -265.5 -74t-194 -198.5t-71.5 -267.5zM696 1585q-37 -17 -49 10l-29 58q-5 13 -0.5 23.5t13.5 15.5l321 186q8 7 27.5 6.5t26.5 -12.5l47 -90q8 -15 4 -29t-17 -20z" />
<glyph unicode="&#xd4;" horiz-adv-x="1669" d="M98 715q0 151 58 288t156 236t234.5 157t287.5 58t287.5 -58t235 -157t156.5 -236t58 -288t-58 -287.5t-156.5 -234.5t-235 -155.5t-287.5 -57.5q-202 0 -371 97.5t-267 266.5t-98 371zM303 715q0 -144 71.5 -268t194 -196.5t265.5 -72.5q144 0 266.5 72.5t194 196.5 t71.5 268q0 143 -71 267.5t-194 198.5t-267 74q-143 0 -265.5 -74t-194 -198.5t-71.5 -267.5zM627 1575q-19 -10 -28.5 -8.5t-18.5 14.5l-41 55q-6 11 -2 21.5t14 17.5l256 201q9 8 24 8t25 -8l256 -201q10 -7 14 -17.5t-2 -21.5l-41 -55q-10 -13 -18.5 -15t-28.5 9 l-205 133z" />
<glyph unicode="&#xd5;" horiz-adv-x="1669" d="M98 715q0 151 58 288t156 236t234.5 157t287.5 58t287.5 -58t235 -157t156.5 -236t58 -288t-58 -287.5t-156.5 -234.5t-235 -155.5t-287.5 -57.5q-202 0 -371 97.5t-267 266.5t-98 371zM303 715q0 -144 71.5 -268t194 -196.5t265.5 -72.5q144 0 266.5 72.5t194 196.5 t71.5 268q0 143 -71 267.5t-194 198.5t-267 74q-143 0 -265.5 -74t-194 -198.5t-71.5 -267.5zM584 1622l-47 31q-26 16 -13 47q13 27 23.5 44.5t37 53t62.5 55t78 19.5q40 0 75.5 -20.5t56 -45t45.5 -45t46 -20.5q16 0 30.5 9.5t21 18.5t18 29t14.5 25q21 35 51 18 q1 -1 24 -15t30 -24q10 -16 -7 -55q-10 -23 -23.5 -44t-37 -48.5t-57.5 -44.5t-74 -17q-35 0 -69.5 21t-57 45.5t-48 45.5t-44.5 21q-51 0 -88 -84q-8 -19 -17 -24t-30 4z" />
<glyph unicode="&#xd6;" horiz-adv-x="1669" d="M98 715q0 151 58 288t156 236t234.5 157t287.5 58t287.5 -58t235 -157t156.5 -236t58 -288t-58 -287.5t-156.5 -234.5t-235 -155.5t-287.5 -57.5q-202 0 -371 97.5t-267 266.5t-98 371zM303 715q0 -144 71.5 -268t194 -196.5t265.5 -72.5q144 0 266.5 72.5t194 196.5 t71.5 268q0 143 -71 267.5t-194 198.5t-267 74q-143 0 -265.5 -74t-194 -198.5t-71.5 -267.5zM1069 1589q-54 0 -90.5 37.5t-36.5 91.5t36.5 90.5t90.5 36.5t91.5 -36.5t37.5 -90.5t-37.5 -91.5t-91.5 -37.5zM600 1589q-54 0 -90.5 37.5t-36.5 91.5t36.5 90.5t90.5 36.5 t91.5 -36.5t37.5 -90.5t-37.5 -91.5t-91.5 -37.5z" />
<glyph unicode="&#xd7;" d="M338 373l-62 61q-10 10 -10 26t10 27l222 224l-222 221q-10 10 -10 27t10 28l60 62q10 11 27 11t28 -11l221 -222l224 224q11 10 26.5 9.5t26.5 -11.5l61 -62q11 -11 11.5 -26.5t-9.5 -26.5l-223 -223l223 -224q10 -12 9.5 -28t-11.5 -27l-61 -59q-11 -11 -26.5 -11.5 t-26.5 9.5l-224 225l-221 -223q-11 -11 -27 -11t-26 11z" />
<glyph unicode="&#xd8;" horiz-adv-x="1669" d="M152 45q-11 11 -11.5 26.5t9.5 26.5l129 129q-86 98 -133.5 223.5t-47.5 264.5q0 151 58 288t156 236t234.5 157t287.5 58q137 0 262.5 -48.5t224.5 -135.5l135 133q10 11 26 11t27 -11l15 -14q10 -11 10 -27t-10 -27l-133 -135q85 -99 132.5 -223.5t47.5 -261.5 q0 -151 -58 -287.5t-156.5 -234.5t-235 -155.5t-287.5 -57.5q-283 0 -486 178l-129 -129q-11 -10 -26.5 -9.5t-26.5 11.5zM428 375l748 749q-151 125 -342 125q-143 0 -265.5 -72.5t-194 -195.5t-71.5 -266q0 -193 125 -340zM496 305q146 -121 338 -121q144 0 266.5 71.5 t194 194t71.5 265.5q0 196 -123 338z" />
<glyph unicode="&#xd9;" horiz-adv-x="1458" d="M172 518v877q0 15 12 27t27 12h137q17 0 28 -11.5t11 -27.5v-863q0 -155 92.5 -251.5t247.5 -96.5q157 0 250.5 95t93.5 249v867q0 16 11 27.5t28 11.5h137q15 0 27 -12t12 -27v-877q0 -233 -158 -385.5t-401 -152.5q-241 0 -398 152.5t-157 385.5zM866 1585l-344 148 q-12 6 -15.5 20t3.5 29l47 90q7 12 26 12.5t27 -6.5l322 -186q10 -5 13.5 -16t-1.5 -23l-29 -58q-11 -26 -49 -10z" />
<glyph unicode="&#xda;" horiz-adv-x="1458" d="M172 518v877q0 15 12 27t27 12h137q17 0 28 -11.5t11 -27.5v-863q0 -155 92.5 -251.5t247.5 -96.5q157 0 250.5 95t93.5 249v867q0 16 11 27.5t28 11.5h137q15 0 27 -12t12 -27v-877q0 -233 -158 -385.5t-401 -152.5q-241 0 -398 152.5t-157 385.5zM588 1585 q-37 -17 -49 10l-29 58q-5 13 -1 23.5t13 15.5l322 186q8 7 27 6.5t26 -12.5l47 -90q8 -15 4.5 -29t-16.5 -20z" />
<glyph unicode="&#xdb;" horiz-adv-x="1458" d="M172 518v877q0 15 12 27t27 12h137q17 0 28 -11.5t11 -27.5v-863q0 -155 92.5 -251.5t247.5 -96.5q157 0 250.5 95t93.5 249v867q0 16 11 27.5t28 11.5h137q15 0 27 -12t12 -27v-877q0 -233 -158 -385.5t-401 -152.5q-241 0 -398 152.5t-157 385.5zM526 1575 q-19 -10 -28.5 -8.5t-18.5 14.5l-41 55q-6 11 -1.5 21.5t14.5 17.5l256 201q9 8 24 8t25 -8l256 -201q10 -7 14 -17.5t-2 -21.5l-41 -55q-10 -13 -18.5 -15t-28.5 9l-205 133z" />
<glyph unicode="&#xdc;" horiz-adv-x="1458" d="M172 518v877q0 15 12 27t27 12h137q17 0 28 -11.5t11 -27.5v-863q0 -155 92.5 -251.5t247.5 -96.5q157 0 250.5 95t93.5 249v867q0 16 11 27.5t28 11.5h137q15 0 27 -12t12 -27v-877q0 -233 -158 -385.5t-401 -152.5q-241 0 -398 152.5t-157 385.5zM971 1589 q-54 0 -90.5 37.5t-36.5 91.5t36.5 90.5t90.5 36.5t91.5 -36.5t37.5 -90.5t-37.5 -91.5t-91.5 -37.5zM502 1589q-54 0 -90.5 37.5t-36.5 91.5t36.5 90.5t90.5 36.5t91.5 -36.5t37.5 -90.5t-37.5 -91.5t-91.5 -37.5z" />
<glyph unicode="&#xdd;" horiz-adv-x="1193" d="M596 897h4l369 518q14 19 32 19h154q24 0 34.5 -20t-1.5 -40l-486 -682v-653q0 -15 -11.5 -27t-26.5 -12h-136q-17 0 -28 11.5t-11 27.5v651l-479 684q-12 20 -1.5 40t34.5 20h152q18 0 32 -19zM457 1585q-37 -17 -49 10l-29 58q-5 13 -1 23.5t13 15.5l322 186 q8 7 27 6.5t26 -12.5l47 -90q8 -15 4.5 -29t-16.5 -20z" />
<glyph unicode="&#xde;" horiz-adv-x="1210" d="M186 39v1356q0 16 11 27.5t28 11.5h133q15 0 27 -12t12 -27v-221h295q189 1 324 -133t135 -320q0 -190 -134.5 -325.5t-322.5 -135.5h-297v-221q0 -15 -12 -27t-27 -12h-133q-17 0 -28 11.5t-11 27.5zM397 461h283q107 0 183.5 76.5t76.5 187.5q0 103 -76.5 174.5 t-183.5 71.5h-283v-510z" />
<glyph unicode="&#xdf;" horiz-adv-x="1183" d="M143 43v801q0 610 473 610q103 0 191.5 -43t144.5 -128.5t56 -195.5q0 -72 -26 -137t-57 -103t-57 -76t-26 -62q0 -19 27 -43.5t65.5 -53.5t77 -65.5t65.5 -91.5t27 -119q0 -153 -99 -256t-278 -103q-44 0 -98 7q-35 3 -35 47v104q0 16 10 27t33 10q63 -10 90 -10 q77 0 125.5 41t48.5 116q0 40 -28 79t-68 70.5t-80 63.5t-68 71.5t-28 80.5q0 37 18 77t43.5 77t51 74.5t43.5 81t18 83.5q0 89 -58.5 136t-144.5 47q-252 0 -252 -418v-799q0 -17 -13 -30t-30 -13h-119q-17 0 -30 13t-13 30z" />
<glyph unicode="&#xe0;" horiz-adv-x="976" d="M72 293q0 135 100.5 220t278.5 85q44 0 91.5 -7t73.5 -15l25 -7q3 115 -31 166t-121 51q-107 0 -264 -45q-42 -9 -53 39l-18 78q-8 42 30 55q21 8 53.5 17.5t113.5 23t159 13.5q64 0 114 -11.5t84.5 -30t59.5 -49.5t39 -63t22 -78.5t10.5 -87.5t2.5 -98v-504 q0 -18 -13.5 -31.5t-31.5 -13.5h-68q-26 0 -39 33l-22 63q-124 -119 -291 -119q-136 0 -220.5 85t-84.5 231zM272 295q0 -66 38.5 -108t109.5 -42q65 0 129.5 37.5t89.5 77.5v158q-13 9 -64.5 21t-107.5 12q-85 0 -140 -42t-55 -114zM651 1112l-344 148q-12 6 -15.5 20 t3.5 29l47 90q7 12 26 12.5t27 -6.5l322 -186q10 -5 13.5 -16t-1.5 -23l-29 -60q-13 -26 -49 -8z" />
<glyph unicode="&#xe1;" horiz-adv-x="976" d="M72 293q0 135 100.5 220t278.5 85q44 0 91.5 -7t73.5 -15l25 -7q3 115 -31 166t-121 51q-107 0 -264 -45q-42 -9 -53 39l-18 78q-8 42 30 55q21 8 53.5 17.5t113.5 23t159 13.5q64 0 114 -11.5t84.5 -30t59.5 -49.5t39 -63t22 -78.5t10.5 -87.5t2.5 -98v-504 q0 -18 -13.5 -31.5t-31.5 -13.5h-68q-26 0 -39 33l-22 63q-124 -119 -291 -119q-136 0 -220.5 85t-84.5 231zM272 295q0 -66 38.5 -108t109.5 -42q65 0 129.5 37.5t89.5 77.5v158q-13 9 -64.5 21t-107.5 12q-85 0 -140 -42t-55 -114zM356 1112q-36 -18 -49 8l-28 60 q-5 12 -1.5 23t13.5 16l321 186q8 7 27.5 6.5t26.5 -12.5l47 -90q7 -15 3 -29t-16 -20z" />
<glyph unicode="&#xe2;" horiz-adv-x="976" d="M72 293q0 135 100.5 220t278.5 85q44 0 91.5 -7t73.5 -15l25 -7q3 115 -31 166t-121 51q-107 0 -264 -45q-42 -9 -53 39l-18 78q-8 42 30 55q21 8 53.5 17.5t113.5 23t159 13.5q64 0 114 -11.5t84.5 -30t59.5 -49.5t39 -63t22 -78.5t10.5 -87.5t2.5 -98v-504 q0 -18 -13.5 -31.5t-31.5 -13.5h-68q-26 0 -39 33l-22 63q-124 -119 -291 -119q-136 0 -220.5 85t-84.5 231zM272 295q0 -66 38.5 -108t109.5 -42q65 0 129.5 37.5t89.5 77.5v158q-13 9 -64.5 21t-107.5 12q-85 0 -140 -42t-55 -114zM238 1110l-41 55q-6 11 -2 21.5t14 17.5 l256 201q9 7 23.5 7t25.5 -7l256 -201q10 -7 14 -17.5t-2 -21.5l-41 -55q-10 -13 -18.5 -15t-28.5 9l-205 133l-204 -133q-19 -10 -28.5 -8.5t-18.5 14.5z" />
<glyph unicode="&#xe3;" horiz-adv-x="976" d="M72 293q0 135 100.5 220t278.5 85q44 0 91.5 -7t73.5 -15l25 -7q3 115 -31 166t-121 51q-107 0 -264 -45q-42 -9 -53 39l-18 78q-8 42 30 55q21 8 53.5 17.5t113.5 23t159 13.5q64 0 114 -11.5t84.5 -30t59.5 -49.5t39 -63t22 -78.5t10.5 -87.5t2.5 -98v-504 q0 -18 -13.5 -31.5t-31.5 -13.5h-68q-26 0 -39 33l-22 63q-124 -119 -291 -119q-136 0 -220.5 85t-84.5 231zM272 295q0 -66 38.5 -108t109.5 -42q65 0 129.5 37.5t89.5 77.5v158q-13 9 -64.5 21t-107.5 12q-85 0 -140 -42t-55 -114zM252 1163l-47 31q-26 15 -12 47l16.5 33 t26.5 42t40 48.5t51 33t66 15.5q40 0 75.5 -20.5t56 -45t45.5 -45t46 -20.5q16 0 30.5 9.5t21 18.5t18 29t14.5 25q21 35 52 18q5 -4 17 -11t21.5 -14t14.5 -14q11 -17 -6 -55q-10 -22 -23.5 -43.5t-37 -49t-58 -44t-74.5 -16.5q-35 0 -69.5 21t-57 45.5t-48 45.5t-44.5 21 q-51 0 -88 -84q-8 -19 -17 -24t-30 3z" />
<glyph unicode="&#xe4;" horiz-adv-x="976" d="M72 293q0 135 100.5 220t278.5 85q44 0 91.5 -7t73.5 -15l25 -7q3 115 -31 166t-121 51q-107 0 -264 -45q-42 -9 -53 39l-18 78q-8 42 30 55q21 8 53.5 17.5t113.5 23t159 13.5q64 0 114 -11.5t84.5 -30t59.5 -49.5t39 -63t22 -78.5t10.5 -87.5t2.5 -98v-504 q0 -18 -13.5 -31.5t-31.5 -13.5h-68q-26 0 -39 33l-22 63q-124 -119 -291 -119q-136 0 -220.5 85t-84.5 231zM272 295q0 -66 38.5 -108t109.5 -42q65 0 129.5 37.5t89.5 77.5v158q-13 9 -64.5 21t-107.5 12q-85 0 -140 -42t-55 -114zM702 1149q-54 0 -90.5 36.5t-36.5 90.5 q0 55 36.5 92t90.5 37q56 0 92.5 -36.5t36.5 -92.5q0 -54 -37 -90.5t-92 -36.5zM299 1149q-54 0 -90.5 36.5t-36.5 90.5q0 55 36.5 92t90.5 37q55 0 92 -36.5t37 -92.5q0 -54 -37 -90.5t-92 -36.5z" />
<glyph unicode="&#xe5;" horiz-adv-x="976" d="M72 293q0 135 100.5 220t278.5 85q44 0 91.5 -7t73.5 -15l25 -7q3 115 -31 166t-121 51q-107 0 -264 -45q-42 -9 -53 39l-18 78q-8 42 30 55q21 8 53.5 17.5t113.5 23t159 13.5q64 0 114 -11.5t84.5 -30t59.5 -49.5t39 -63t22 -78.5t10.5 -87.5t2.5 -98v-504 q0 -18 -13.5 -31.5t-31.5 -13.5h-68q-26 0 -39 33l-22 63q-124 -119 -291 -119q-136 0 -220.5 85t-84.5 231zM272 295q0 -66 38.5 -108t109.5 -42q65 0 129.5 37.5t89.5 77.5v158q-13 9 -64.5 21t-107.5 12q-85 0 -140 -42t-55 -114zM496 1040q-95 0 -161.5 66.5 t-66.5 161.5t66.5 161t161.5 66q94 0 160.5 -66t66.5 -161t-66.5 -161.5t-160.5 -66.5zM496 1153q44 0 76 35t32 80q0 44 -32 76t-76 32q-50 0 -82.5 -31.5t-32.5 -76.5q0 -46 33 -80.5t82 -34.5z" />
<glyph unicode="&#xe6;" horiz-adv-x="1595" d="M72 295q0 130 99 216.5t259 86.5q49 0 99 -3t75 -6l25 -3q-2 113 -29.5 156.5t-107.5 43.5q-41 0 -86 -6t-71 -11.5t-65 -16t-45 -11.5q-17 -4 -31.5 5t-19.5 26l-20 88q-9 43 36 55q16 6 44 14.5t112.5 23t165.5 14.5q114 0 179.5 -28.5t99.5 -84.5q126 113 286 113 q120 0 221.5 -54t163.5 -155.5t62 -227.5q0 -104 -54 -104h-647q5 -101 86 -179.5t199 -78.5q102 0 225 78q22 14 33.5 14.5t24.5 -14.5q27 -36 59 -88q9 -14 11.5 -21.5t-0.5 -19t-17 -23.5q-58 -51 -148 -84t-202 -33q-238 0 -365 160q-46 -61 -137 -110.5t-203 -49.5 q-151 0 -234 85t-83 233zM829 578h488q-3 89 -67.5 149.5t-166.5 60.5q-109 0 -176 -58.5t-78 -151.5zM272 295q0 -65 38 -103t110 -38q66 0 130.5 34t88.5 72v158q-13 9 -64.5 21t-107.5 12q-85 0 -140 -42t-55 -114z" />
<glyph unicode="&#xe7;" horiz-adv-x="1007" d="M84 471q0 207 143.5 351.5t341.5 144.5q212 0 344 -164q13 -18 10.5 -36t-18.5 -32l-74 -67q-13 -12 -25 -11.5t-18.5 5.5t-17.5 16q-36 39 -89 66.5t-106 27.5q-121 0 -203.5 -86.5t-82.5 -212.5q0 -127 80.5 -214t199.5 -87q35 0 64 6.5t55 22.5t38 25t37.5 34t29.5 29 q30 30 63 4l64 -51q38 -33 16 -68q-115 -173 -322 -194l-71 -111q12 4 39 4q76 0 130 -42t54 -126q0 -99 -70.5 -152t-173.5 -53q-109 0 -170 54q-16 16 0 53l19 37q17 39 49 14q40 -35 94 -35q102 0 102 76q0 38 -26 53t-74 15q-13 0 -27.5 -2.5t-23.5 -5.5t-22 -7.5 t-17 -5.5q-13 -6 -26 7.5t-7 27.5l103 203q-176 25 -294 161t-118 326z" />
<glyph unicode="&#xe8;" horiz-adv-x="1060" d="M86 473q0 133 57.5 245.5t166.5 180.5t247 68q185 0 308.5 -123.5t123.5 -311.5q0 -33 -4 -65q-1 -18 -14 -29.5t-29 -11.5h-653q2 -100 82 -179t200 -79q74 0 126.5 21t105.5 59q36 25 55 -4l55 -86q29 -36 -4 -64q-57 -50 -148.5 -83.5t-201.5 -33.5q-140 0 -249 68 t-166.5 180.5t-57.5 247.5zM299 578h487q-3 89 -67.5 152t-165.5 63q-108 0 -175.5 -61t-78.5 -154zM690 1112l-344 148q-12 6 -15.5 20t3.5 29l47 90q7 12 26 12.5t27 -6.5l322 -186q10 -5 13.5 -16t-1.5 -23l-29 -60q-13 -26 -49 -8z" />
<glyph unicode="&#xe9;" horiz-adv-x="1060" d="M86 473q0 133 57.5 245.5t166.5 180.5t247 68q185 0 308.5 -123.5t123.5 -311.5q0 -33 -4 -65q-1 -18 -14 -29.5t-29 -11.5h-653q2 -100 82 -179t200 -79q74 0 126.5 21t105.5 59q36 25 55 -4l55 -86q29 -36 -4 -64q-57 -50 -148.5 -83.5t-201.5 -33.5q-140 0 -249 68 t-166.5 180.5t-57.5 247.5zM299 578h487q-3 89 -67.5 152t-165.5 63q-108 0 -175.5 -61t-78.5 -154zM410 1112q-37 -18 -50 8l-28 60q-5 12 -1.5 23t13.5 16l322 186q8 7 27 6.5t26 -12.5l47 -90q7 -15 3.5 -29t-15.5 -20z" />
<glyph unicode="&#xea;" horiz-adv-x="1060" d="M86 473q0 133 57.5 245.5t166.5 180.5t247 68q185 0 308.5 -123.5t123.5 -311.5q0 -33 -4 -65q-1 -18 -14 -29.5t-29 -11.5h-653q2 -100 82 -179t200 -79q74 0 126.5 21t105.5 59q36 25 55 -4l55 -86q29 -36 -4 -64q-57 -50 -148.5 -83.5t-201.5 -33.5q-140 0 -249 68 t-166.5 180.5t-57.5 247.5zM299 578h487q-3 89 -67.5 152t-165.5 63q-108 0 -175.5 -61t-78.5 -154zM307 1110l-41 55q-6 11 -1.5 21.5t14.5 17.5l256 201q9 7 23.5 7t25.5 -7l256 -201q10 -7 14 -17.5t-2 -21.5l-41 -55q-10 -13 -18.5 -15t-28.5 9l-205 133l-205 -133 q-19 -10 -28.5 -8.5t-18.5 14.5z" />
<glyph unicode="&#xeb;" horiz-adv-x="1060" d="M86 473q0 133 57.5 245.5t166.5 180.5t247 68q185 0 308.5 -123.5t123.5 -311.5q0 -33 -4 -65q-1 -18 -14 -29.5t-29 -11.5h-653q2 -100 82 -179t200 -79q74 0 126.5 21t105.5 59q36 25 55 -4l55 -86q29 -36 -4 -64q-57 -50 -148.5 -83.5t-201.5 -33.5q-140 0 -249 68 t-166.5 180.5t-57.5 247.5zM299 578h487q-3 89 -67.5 152t-165.5 63q-108 0 -175.5 -61t-78.5 -154zM754 1149q-54 0 -90.5 36.5t-36.5 90.5q0 55 36.5 92t90.5 37q56 0 92.5 -36.5t36.5 -92.5q0 -54 -37 -90.5t-92 -36.5zM350 1149q-54 0 -90.5 36.5t-36.5 90.5 q0 55 36.5 92t90.5 37q56 0 92.5 -36.5t36.5 -92.5q0 -54 -37 -90.5t-92 -36.5z" />
<glyph unicode="&#xec;" horiz-adv-x="491" d="M143 45v856q0 18 13.5 31.5t31.5 13.5h115q17 0 31 -14t14 -31v-856q0 -18 -13.5 -31.5t-31.5 -13.5h-115q-19 0 -32 13t-13 32zM381 1112l-344 148q-12 6 -15.5 20t3.5 29l47 90q7 12 26 12.5t27 -6.5l321 -186q10 -5 14 -16t-1 -23l-29 -60q-13 -26 -49 -8z" />
<glyph unicode="&#xed;" horiz-adv-x="491" d="M143 45v856q0 18 13.5 31.5t31.5 13.5h115q17 0 31 -14t14 -31v-856q0 -18 -13.5 -31.5t-31.5 -13.5h-115q-19 0 -32 13t-13 32zM131 1112q-36 -18 -49 8l-29 60q-5 12 -1 23t14 16l321 186q8 7 27 6.5t26 -12.5l47 -90q7 -15 3.5 -29t-15.5 -20z" />
<glyph unicode="&#xee;" horiz-adv-x="491" d="M143 45v856q0 18 13.5 31.5t31.5 13.5h115q17 0 31 -14t14 -31v-856q0 -18 -13.5 -31.5t-31.5 -13.5h-115q-19 0 -32 13t-13 32zM2 1110l-41 55q-6 11 -2 21.5t14 17.5l256 201q9 7 24 7t26 -7l256 -201q10 -7 14 -17.5t-2 -21.5l-41 -55q-10 -13 -18.5 -15t-28.5 9 l-205 133l-205 -133q-19 -10 -28.5 -8.5t-18.5 14.5z" />
<glyph unicode="&#xef;" horiz-adv-x="491" d="M143 45v856q0 18 13.5 31.5t31.5 13.5h115q17 0 31 -14t14 -31v-856q0 -18 -13.5 -31.5t-31.5 -13.5h-115q-19 0 -32 13t-13 32zM457 1149q-54 0 -90.5 36.5t-36.5 90.5q0 55 36.5 92t90.5 37q55 0 92 -36.5t37 -92.5q0 -54 -37 -90.5t-92 -36.5zM53 1149 q-54 0 -90.5 36.5t-36.5 90.5q0 55 36.5 92t90.5 37q55 0 92 -36.5t37 -92.5q0 -54 -37 -90.5t-92 -36.5z" />
<glyph unicode="&#xf0;" horiz-adv-x="1157" d="M86 463q0 106 37.5 194t99.5 144.5t140.5 87.5t162.5 31q63 0 132 -19t100.5 -34t48.5 -25q-44 165 -244 319l-188 -106q-14 -7 -29 -3.5t-24 15.5l-11 20q-8 13 -4 30t17 24l147 84q-94 58 -166 84q-56 16 -39 59l37 88q13 37 51 25q156 -60 289 -156l150 88 q15 7 31 2.5t24 -18.5l12 -19q8 -13 3.5 -29.5t-17.5 -23.5l-113 -65l-2 -3q322 -275 322 -688q0 -124 -31 -230t-91 -186.5t-156.5 -126.5t-219.5 -46q-125 0 -233 64.5t-172 176.5t-64 242zM279 461q0 -121 81 -207t197 -86q82 0 144.5 40t95 103.5t46 134.5t7.5 140 q-16 44 -98.5 103t-192.5 59q-117 0 -198.5 -84t-81.5 -203z" />
<glyph unicode="&#xf1;" horiz-adv-x="1122" d="M143 45v856q0 18 13.5 31.5t31.5 13.5h50q32 0 38 -28l29 -82q11 14 33 32t61.5 42t99 40.5t124.5 16.5q84 0 148.5 -23.5t105.5 -63t66.5 -97.5t35.5 -121.5t10 -141.5v-475q0 -18 -13.5 -31.5t-31.5 -13.5h-115q-19 0 -32 13t-13 32v483q0 117 -47.5 180.5t-138.5 63.5 q-52 0 -99.5 -16.5t-77.5 -40t-48.5 -44.5t-24.5 -36v-590q0 -45 -55 -45h-105q-19 0 -32 13t-13 32zM332 1163l-47 31q-26 16 -13 47q13 27 23.5 44.5t37 53t62.5 55t78 19.5q40 0 75.5 -20.5t56 -45t45.5 -45t46 -20.5q16 0 30.5 9.5t21 18.5t18 29t14.5 25q21 35 51 18 q1 -1 24 -15t30 -24q11 -17 -6 -55q-10 -22 -23.5 -43.5t-37 -49t-58 -44t-74.5 -16.5q-35 0 -69.5 21t-57 45.5t-48 45.5t-44.5 21q-51 0 -88 -84q-8 -19 -17 -24t-30 3z" />
<glyph unicode="&#xf2;" horiz-adv-x="1132" d="M84 475q0 131 64.5 244.5t176.5 180.5t242 67t241 -67t176 -180.5t65 -244.5q0 -133 -65 -248t-176 -182.5t-241 -67.5q-98 0 -187.5 40t-154 107.5t-103 159t-38.5 191.5zM285 475q0 -130 81 -216.5t201 -86.5q119 0 200 86.5t81 216.5q0 127 -81 212t-200 85 q-120 0 -201 -85t-81 -212zM688 1112l-344 148q-12 6 -15.5 20t3.5 29l47 90q7 12 26 12.5t27 -6.5l322 -186q10 -5 13.5 -16t-1.5 -23l-29 -60q-13 -26 -49 -8z" />
<glyph unicode="&#xf3;" horiz-adv-x="1132" d="M84 475q0 131 64.5 244.5t176.5 180.5t242 67t241 -67t176 -180.5t65 -244.5q0 -133 -65 -248t-176 -182.5t-241 -67.5q-98 0 -187.5 40t-154 107.5t-103 159t-38.5 191.5zM285 475q0 -130 81 -216.5t201 -86.5q119 0 200 86.5t81 216.5q0 127 -81 212t-200 85 q-120 0 -201 -85t-81 -212zM428 1112q-36 -18 -49 8l-29 60q-5 12 -1.5 23t13.5 16l322 186q8 7 27 6.5t26 -12.5l47 -90q7 -15 3.5 -29t-15.5 -20z" />
<glyph unicode="&#xf4;" horiz-adv-x="1132" d="M84 475q0 131 64.5 244.5t176.5 180.5t242 67t241 -67t176 -180.5t65 -244.5q0 -133 -65 -248t-176 -182.5t-241 -67.5q-98 0 -187.5 40t-154 107.5t-103 159t-38.5 191.5zM285 475q0 -130 81 -216.5t201 -86.5q119 0 200 86.5t81 216.5q0 127 -81 212t-200 85 q-120 0 -201 -85t-81 -212zM309 1110l-41 55q-6 11 -1.5 21.5t14.5 17.5l256 201q9 7 23.5 7t25.5 -7l256 -201q10 -7 14 -17.5t-2 -21.5l-41 -55q-10 -13 -18.5 -15t-28.5 9l-205 133l-205 -133q-19 -10 -28.5 -8.5t-18.5 14.5z" />
<glyph unicode="&#xf5;" horiz-adv-x="1132" d="M84 475q0 131 64.5 244.5t176.5 180.5t242 67t241 -67t176 -180.5t65 -244.5q0 -133 -65 -248t-176 -182.5t-241 -67.5q-98 0 -187.5 40t-154 107.5t-103 159t-38.5 191.5zM285 475q0 -130 81 -216.5t201 -86.5q119 0 200 86.5t81 216.5q0 127 -81 212t-200 85 q-120 0 -201 -85t-81 -212zM313 1163l-47 31q-26 15 -12 47q13 27 23.5 44.5t37 53t62.5 55t78 19.5q40 0 75.5 -20.5t56 -45t45.5 -45t46 -20.5q16 0 30.5 9.5t21 18.5t18 29t14.5 25q21 35 51 18q5 -4 17 -11t21.5 -14t14.5 -14q11 -17 -6 -55q-10 -22 -23.5 -43.5 t-37 -49t-57.5 -44t-74 -16.5q-35 0 -69.5 21t-57 45.5t-48 45.5t-44.5 21q-52 0 -89 -84q-8 -19 -17 -24t-30 3z" />
<glyph unicode="&#xf6;" horiz-adv-x="1132" d="M84 475q0 131 64.5 244.5t176.5 180.5t242 67t241 -67t176 -180.5t65 -244.5q0 -133 -65 -248t-176 -182.5t-241 -67.5q-98 0 -187.5 40t-154 107.5t-103 159t-38.5 191.5zM285 475q0 -130 81 -216.5t201 -86.5q119 0 200 86.5t81 216.5q0 127 -81 212t-200 85 q-120 0 -201 -85t-81 -212zM766 1149q-54 0 -90.5 36.5t-36.5 90.5q0 55 36.5 92t90.5 37q56 0 92.5 -36.5t36.5 -92.5q0 -54 -37 -90.5t-92 -36.5zM362 1149q-54 0 -90 36.5t-36 90.5q0 55 36 92t90 37q56 0 93 -37t37 -92q0 -54 -37.5 -90.5t-92.5 -36.5z" />
<glyph unicode="&#xf7;" d="M608 965q-52 0 -90.5 38.5t-38.5 90.5q0 54 38 91.5t91 37.5q54 0 91.5 -37.5t37.5 -91.5q0 -53 -37.5 -91t-91.5 -38zM219 627q-15 0 -27 12t-12 27v86q0 15 12 27t27 12h793q15 0 26 -12t11 -27v-86q0 -15 -11 -27t-26 -12h-793zM479 338q0 54 37.5 91.5t91.5 37.5 t91.5 -37.5t37.5 -91.5q0 -53 -37.5 -91t-91.5 -38t-91.5 38t-37.5 91z" />
<glyph unicode="&#xf8;" horiz-adv-x="1132" d="M84 475q0 131 64.5 244.5t176.5 180.5t242 67q171 0 301 -111l56 55q14 13 31.5 13t29.5 -13l19 -16q15 -14 15 -32.5t-15 -31.5l-58 -57q103 -137 103 -299q0 -133 -65 -248t-176 -182.5t-241 -67.5q-170 0 -301 109l-43 -43q-11 -12 -30 -11t-33 13l-15 16 q-13 12 -13.5 31t11.5 31l45 45q-104 132 -104 307zM285 475q0 -96 43 -166l403 408q-71 55 -164 55q-120 0 -201 -85t-81 -212zM848 475q0 84 -41 158l-404 -408q68 -53 164 -53q119 0 200 86.5t81 216.5z" />
<glyph unicode="&#xf9;" horiz-adv-x="1091" d="M133 412v489q0 17 14 31t31 14h115q18 0 31.5 -13.5t13.5 -31.5v-504q0 -225 184 -225q48 0 90.5 18t69 44t42.5 51t19 43v573q0 27 12.5 36t41.5 9h104q19 0 33 -14t14 -31v-856q0 -19 -14 -32t-33 -13h-49q-29 0 -43 39l-25 67q-1 -1 -9 -9.5t-14.5 -15t-19.5 -18 t-26.5 -20t-31.5 -19t-39 -18.5t-45.5 -15t-53.5 -10.5t-60 -3.5q-83 0 -145 22t-101 59.5t-63 94t-33.5 118.5t-9.5 141zM696 1114l-344 148q-12 6 -15.5 20t3.5 29l47 90q7 12 26 12.5t27 -6.5l322 -186q10 -5 13.5 -16t-1.5 -23l-29 -60q-13 -26 -49 -8z" />
<glyph unicode="&#xfa;" horiz-adv-x="1091" d="M428 1112q-36 -18 -49 8l-29 60q-5 12 -1.5 23t13.5 16l322 186q8 7 27 6.5t26 -12.5l47 -90q7 -15 3.5 -29t-15.5 -20zM133 412v489q0 17 14 31t31 14h115q18 0 31.5 -13.5t13.5 -31.5v-504q0 -225 184 -225q48 0 90.5 18t69 44t42.5 51t19 43v573q0 27 12.5 36t41.5 9 h104q19 0 33 -14t14 -31v-856q0 -19 -14 -32t-33 -13h-49q-29 0 -43 39l-25 67q-1 -1 -9 -9.5t-14.5 -15t-19.5 -18t-26.5 -20t-31.5 -19t-39 -18.5t-45.5 -15t-53.5 -10.5t-60 -3.5q-83 0 -145 22t-101 59.5t-63 94t-33.5 118.5t-9.5 141z" />
<glyph unicode="&#xfb;" horiz-adv-x="1091" d="M311 1110l-41 55q-6 11 -1.5 21.5t14.5 17.5l256 201q9 7 24 7t25 -7l256 -201q10 -7 14 -17.5t-2 -21.5l-41 -55q-10 -13 -18.5 -15t-28.5 9l-205 133l-205 -133q-19 -10 -28.5 -8.5t-18.5 14.5zM133 412v489q0 17 14 31t31 14h115q18 0 31.5 -13.5t13.5 -31.5v-504 q0 -225 184 -225q48 0 90.5 18t69 44t42.5 51t19 43v573q0 27 12.5 36t41.5 9h104q19 0 33 -14t14 -31v-856q0 -19 -14 -32t-33 -13h-49q-29 0 -43 39l-25 67q-1 -1 -9 -9.5t-14.5 -15t-19.5 -18t-26.5 -20t-31.5 -19t-39 -18.5t-45.5 -15t-53.5 -10.5t-60 -3.5 q-83 0 -145 22t-101 59.5t-63 94t-33.5 118.5t-9.5 141z" />
<glyph unicode="&#xfc;" horiz-adv-x="1091" d="M754 1149q-54 0 -90.5 36.5t-36.5 90.5q0 55 36.5 92t90.5 37q56 0 92.5 -36.5t36.5 -92.5q0 -54 -37 -90.5t-92 -36.5zM350 1149q-54 0 -90.5 36.5t-36.5 90.5q0 55 36.5 92t90.5 37q56 0 92.5 -36.5t36.5 -92.5q0 -54 -37 -90.5t-92 -36.5zM133 412v489q0 17 14 31 t31 14h115q18 0 31.5 -13.5t13.5 -31.5v-504q0 -225 184 -225q48 0 90.5 18t69 44t42.5 51t19 43v573q0 27 12.5 36t41.5 9h104q19 0 33 -14t14 -31v-856q0 -19 -14 -32t-33 -13h-49q-29 0 -43 39l-25 67q-1 -1 -9 -9.5t-14.5 -15t-19.5 -18t-26.5 -20t-31.5 -19t-39 -18.5 t-45.5 -15t-53.5 -10.5t-60 -3.5q-83 0 -145 22t-101 59.5t-63 94t-33.5 118.5t-9.5 141z" />
<glyph unicode="&#xfd;" horiz-adv-x="1017" d="M373 33l-326 852q-9 25 2.5 43t38.5 18h135q11 0 24 -7.5t17 -18.5l219 -650h4l267 650q9 26 49 26h127q29 0 40.5 -18t0.5 -43l-578 -1344q-16 -28 -39 -28h-131q-27 0 -40 19.5t-1 43.5zM422 1112q-36 -18 -49 8l-29 60q-5 12 -1.5 23t13.5 16l322 186q8 7 27 6.5 t26 -12.5l47 -90q7 -15 3.5 -29t-15.5 -20z" />
<glyph unicode="&#xfe;" horiz-adv-x="1132" d="M350 43v-485q0 -17 -14 -31t-31 -14h-115q-20 0 -32.5 13.5t-12.5 31.5v1831q0 18 12.5 31.5t32.5 13.5h115q17 0 31 -14t14 -31v-502l15 9q15 9 28 16.5t37.5 18t48 18t56.5 13t65 5.5q128 0 231 -67.5t159.5 -181t56.5 -247.5q0 -211 -131.5 -352.5t-327.5 -141.5 q-119 0 -238 66zM350 242q12 -18 76.5 -43t138.5 -25q116 0 196.5 87.5t80.5 211.5q0 122 -75.5 210.5t-193.5 88.5q-79 0 -141 -37.5t-82 -70.5v-422z" />
<glyph unicode="&#xff;" horiz-adv-x="1017" d="M373 33l-326 852q-9 25 2.5 43t38.5 18h135q11 0 24 -7.5t17 -18.5l219 -650h4l267 650q9 26 49 26h127q29 0 40.5 -18t0.5 -43l-578 -1344q-16 -28 -39 -28h-131q-27 0 -40 19.5t-1 43.5zM725 1149q-54 0 -90.5 36.5t-36.5 90.5q0 55 36.5 92t90.5 37q55 0 92 -36.5 t37 -92.5q0 -54 -37 -90.5t-92 -36.5zM322 1149q-54 0 -90.5 36.5t-36.5 90.5q0 55 36.5 92t90.5 37q56 0 92.5 -36.5t36.5 -92.5q0 -54 -37 -90.5t-92 -36.5z" />
<glyph unicode="&#x100;" horiz-adv-x="1366" d="M45 0q-23 0 -33.5 16.5t-1.5 36.5l629 1379q4 9 15.5 15.5t19.5 6.5h20q8 0 19.5 -6.5t15.5 -15.5l625 -1379q9 -20 -1.5 -36.5t-33.5 -16.5h-129q-33 0 -47 31l-127 280h-670l-125 -280q-13 -31 -47 -31h-129zM426 487h512l-252 562h-10zM418 1667q-17 0 -28 11t-11 26 v57q0 17 11 28t28 11h524q17 0 28 -11t11 -28v-57q0 -15 -11 -26t-28 -11h-524z" />
<glyph unicode="&#x101;" horiz-adv-x="976" d="M72 293q0 135 100.5 220t278.5 85q44 0 91.5 -7t73.5 -15l25 -7q3 115 -31 166t-121 51q-107 0 -264 -45q-42 -9 -53 39l-18 78q-8 42 30 55q21 8 53.5 17.5t113.5 23t159 13.5q64 0 114 -11.5t84.5 -30t59.5 -49.5t39 -63t22 -78.5t10.5 -87.5t2.5 -98v-504 q0 -18 -13.5 -31.5t-31.5 -13.5h-68q-26 0 -39 33l-22 63q-124 -119 -291 -119q-136 0 -220.5 85t-84.5 231zM272 295q0 -66 38.5 -108t109.5 -42q65 0 129.5 37.5t89.5 77.5v158q-13 9 -64.5 21t-107.5 12q-85 0 -140 -42t-55 -114zM233 1180q-17 0 -27.5 11t-10.5 26v57 q0 17 10.5 28t27.5 11h525q17 0 28 -11t11 -28v-57q0 -15 -11 -26t-28 -11h-525z" />
<glyph unicode="&#x102;" horiz-adv-x="1366" d="M45 0q-23 0 -33.5 16.5t-1.5 36.5l629 1379q4 9 15.5 15.5t19.5 6.5h20q8 0 19.5 -6.5t15.5 -15.5l625 -1379q9 -20 -1.5 -36.5t-33.5 -16.5h-129q-33 0 -47 31l-127 280h-670l-125 -280q-13 -31 -47 -31h-129zM426 487h512l-252 562h-10zM682 1573q-109 0 -188.5 67.5 t-94.5 169.5q-3 18 6 30.5t27 12.5h60q28 0 36 -32q18 -54 58 -86.5t96 -32.5q49 0 90 35t57 84q10 32 37 32h64q18 0 27 -12.5t6 -30.5q-17 -102 -96 -169.5t-185 -67.5z" />
<glyph unicode="&#x103;" horiz-adv-x="976" d="M72 293q0 135 100.5 220t278.5 85q44 0 91.5 -7t73.5 -15l25 -7q3 115 -31 166t-121 51q-107 0 -264 -45q-42 -9 -53 39l-18 78q-8 42 30 55q21 8 53.5 17.5t113.5 23t159 13.5q64 0 114 -11.5t84.5 -30t59.5 -49.5t39 -63t22 -78.5t10.5 -87.5t2.5 -98v-504 q0 -18 -13.5 -31.5t-31.5 -13.5h-68q-26 0 -39 33l-22 63q-124 -119 -291 -119q-136 0 -220.5 85t-84.5 231zM272 295q0 -66 38.5 -108t109.5 -42q65 0 129.5 37.5t89.5 77.5v158q-13 9 -64.5 21t-107.5 12q-85 0 -140 -42t-55 -114zM498 1083q-109 0 -188.5 68t-94.5 170 q-3 19 6 31t27 12h59q29 0 37 -31q18 -55 58 -88t96 -33q50 0 91 35t56 86q10 31 37 31h63q18 0 27 -12t6 -31q-17 -103 -95.5 -170.5t-184.5 -67.5z" />
<glyph unicode="&#x104;" horiz-adv-x="1366" d="M45 0q-23 0 -33.5 16.5t-1.5 36.5l629 1379q4 9 15.5 15.5t19.5 6.5h20q8 0 19.5 -6.5t15.5 -15.5l625 -1379q9 -20 -1.5 -36.5t-33.5 -16.5h-8q-32 -20 -62.5 -44.5t-63.5 -58t-53 -74t-20 -79.5q0 -94 88 -94q64 0 127 55q12 12 24.5 7.5t12.5 -19.5l2 -90 q0 -41 -29 -60q-81 -47 -178 -47q-101 0 -156 59t-55 152q0 54 20 103t57 88t65 62.5t67 49.5l-141 301h-670l-125 -280q-13 -31 -47 -31h-129zM426 487h512l-252 562h-10z" />
<glyph unicode="&#x105;" horiz-adv-x="976" d="M72 293q0 135 100.5 220t278.5 85q44 0 91.5 -7t73.5 -15l25 -7q3 115 -31 166t-121 51q-107 0 -264 -45q-42 -9 -53 39l-18 78q-8 42 30 55q21 8 53.5 17.5t113.5 23t159 13.5q64 0 114 -11.5t84.5 -30t59.5 -49.5t39 -63t22 -78.5t10.5 -87.5t2.5 -98v-496 q0 -35 -31 -51q-70 -35 -136.5 -108.5t-66.5 -149.5q0 -94 88 -94q64 0 127 55q12 12 24.5 7.5t12.5 -19.5l2 -90q0 -42 -28 -60q-81 -47 -179 -47q-101 0 -156 59t-55 152q0 55 25 108.5t65 94.5t79 70t77 49l-22 67q-124 -119 -291 -119q-136 0 -220.5 85t-84.5 231z M272 295q0 -66 38.5 -108t109.5 -42q65 0 129.5 37.5t89.5 77.5v158q-13 9 -64.5 21t-107.5 12q-85 0 -140 -42t-55 -114z" />
<glyph unicode="&#x106;" horiz-adv-x="1429" d="M98 715q0 202 99 372t269 268.5t372 98.5q150 0 268 -47.5t227 -142.5q13 -12 13.5 -29t-11.5 -29l-90 -92q-22 -29 -51 0q-73 64 -166.5 100.5t-187.5 36.5q-143 0 -262 -73t-185.5 -195t-66.5 -264t67 -264t186.5 -194.5t262.5 -72.5q104 0 185.5 35t166.5 101 q27 21 49 2l94 -93q11 -11 10 -27.5t-12 -27.5q-204 -198 -497 -198q-202 0 -372 97.5t-269 266.5t-99 371zM692 1585q-37 -17 -49 10l-29 58q-5 13 -0.5 23.5t13.5 15.5l321 186q8 7 27 6.5t26 -12.5l48 -90q8 -15 4 -29t-17 -20z" />
<glyph unicode="&#x107;" horiz-adv-x="1007" d="M84 471q0 207 143.5 351.5t341.5 144.5q212 0 344 -164q13 -18 10.5 -36t-18.5 -32l-74 -67q-13 -12 -25 -11.5t-18.5 5.5t-17.5 16q-36 39 -89 66.5t-106 27.5q-121 0 -203.5 -86.5t-82.5 -212.5q0 -127 80.5 -214t199.5 -87q35 0 64 6.5t55 22.5t38 25t37.5 34t29.5 29 q30 30 63 4l64 -51q38 -33 16 -68q-61 -91 -155.5 -144t-213.5 -53q-131 0 -241.5 63.5t-176 177.5t-65.5 253zM420 1112q-36 -18 -49 8l-29 60q-5 12 -1.5 23t13.5 16l322 186q8 7 27 6.5t26 -12.5l47 -90q7 -15 3.5 -29t-15.5 -20z" />
<glyph unicode="&#x108;" horiz-adv-x="1429" d="M98 715q0 202 99 372t269 268.5t372 98.5q150 0 268 -47.5t227 -142.5q13 -12 13.5 -29t-11.5 -29l-90 -92q-22 -29 -51 0q-73 64 -166.5 100.5t-187.5 36.5q-143 0 -262 -73t-185.5 -195t-66.5 -264t67 -264t186.5 -194.5t262.5 -72.5q104 0 185.5 35t166.5 101 q27 21 49 2l94 -93q11 -11 10 -27.5t-12 -27.5q-204 -198 -497 -198q-202 0 -372 97.5t-269 266.5t-99 371zM631 1575q-19 -10 -28.5 -8.5t-18.5 14.5l-41 55q-6 11 -2 21.5t14 17.5l256 201q9 8 23.5 8t25.5 -8l256 -201q10 -7 14 -17.5t-2 -21.5l-41 -55 q-10 -13 -18.5 -15t-28.5 9l-204 133z" />
<glyph unicode="&#x109;" horiz-adv-x="1007" d="M84 471q0 207 143.5 351.5t341.5 144.5q212 0 344 -164q13 -18 10.5 -36t-18.5 -32l-74 -67q-13 -12 -25 -11.5t-18.5 5.5t-17.5 16q-36 39 -89 66.5t-106 27.5q-121 0 -203.5 -86.5t-82.5 -212.5q0 -127 80.5 -214t199.5 -87q35 0 64 6.5t55 22.5t38 25t37.5 34t29.5 29 q30 30 63 4l64 -51q38 -33 16 -68q-61 -91 -155.5 -144t-213.5 -53q-131 0 -241.5 63.5t-176 177.5t-65.5 253zM330 1110l-41 55q-6 11 -2 21.5t14 17.5l256 201q9 7 24 7t25 -7l256 -201q10 -7 14 -17.5t-2 -21.5l-40 -55q-19 -25 -48 -6l-204 133l-205 -133 q-19 -10 -28.5 -8.5t-18.5 14.5z" />
<glyph unicode="&#x10a;" horiz-adv-x="1429" d="M98 715q0 202 99 372t269 268.5t372 98.5q150 0 268 -47.5t227 -142.5q13 -12 13.5 -29t-11.5 -29l-90 -92q-22 -29 -51 0q-73 64 -166.5 100.5t-187.5 36.5q-143 0 -262 -73t-185.5 -195t-66.5 -264t67 -264t186.5 -194.5t262.5 -72.5q104 0 185.5 35t166.5 101 q27 21 49 2l94 -93q11 -11 10 -27.5t-12 -27.5q-204 -198 -497 -198q-202 0 -372 97.5t-269 266.5t-99 371zM838 1608q-57 0 -96.5 40t-39.5 97q0 58 39.5 98.5t96.5 40.5q58 0 98.5 -40t40.5 -99q0 -57 -40.5 -97t-98.5 -40z" />
<glyph unicode="&#x10b;" horiz-adv-x="1007" d="M84 471q0 207 143.5 351.5t341.5 144.5q212 0 344 -164q13 -18 10.5 -36t-18.5 -32l-74 -67q-13 -12 -25 -11.5t-18.5 5.5t-17.5 16q-36 39 -89 66.5t-106 27.5q-121 0 -203.5 -86.5t-82.5 -212.5q0 -127 80.5 -214t199.5 -87q35 0 64 6.5t55 22.5t38 25t37.5 34t29.5 29 q30 30 63 4l64 -51q38 -33 16 -68q-61 -91 -155.5 -144t-213.5 -53q-131 0 -241.5 63.5t-176 177.5t-65.5 253zM580 1149q-57 0 -96.5 40t-39.5 97q0 58 39.5 98.5t96.5 40.5q58 0 98.5 -40.5t40.5 -98.5q0 -57 -40.5 -97t-98.5 -40z" />
<glyph unicode="&#x10c;" horiz-adv-x="1429" d="M98 715q0 202 99 372t269 268.5t372 98.5q150 0 268 -47.5t227 -142.5q13 -12 13.5 -29t-11.5 -29l-90 -92q-22 -29 -51 0q-73 64 -166.5 100.5t-187.5 36.5q-143 0 -262 -73t-185.5 -195t-66.5 -264t67 -264t186.5 -194.5t262.5 -72.5q104 0 185.5 35t166.5 101 q27 21 49 2l94 -93q11 -11 10 -27.5t-12 -27.5q-204 -198 -497 -198q-202 0 -372 97.5t-269 266.5t-99 371zM811 1573l-256 201q-10 7 -14 17t2 21l41 56q9 13 18.5 14.5t28.5 -8.5l205 -133l204 133q20 11 28.5 9t18.5 -15l41 -56q6 -11 2 -21t-14 -17l-256 -201 q-10 -7 -25 -7t-24 7z" />
<glyph unicode="&#x10d;" horiz-adv-x="1007" d="M84 471q0 207 143.5 351.5t341.5 144.5q212 0 344 -164q13 -18 10.5 -36t-18.5 -32l-74 -67q-13 -12 -25 -11.5t-18.5 5.5t-17.5 16q-36 39 -89 66.5t-106 27.5q-121 0 -203.5 -86.5t-82.5 -212.5q0 -127 80.5 -214t199.5 -87q35 0 64 6.5t55 22.5t38 25t37.5 34t29.5 29 q30 30 63 4l64 -51q38 -33 16 -68q-61 -91 -155.5 -144t-213.5 -53q-131 0 -241.5 63.5t-176 177.5t-65.5 253zM555 1096l-256 200q-10 7 -14 17.5t2 21.5l41 56q9 13 18.5 14.5t28.5 -8.5l205 -133l204 133q20 11 28.5 9t18.5 -15l41 -56q6 -11 2 -21.5t-14 -17.5 l-256 -200q-10 -8 -25 -8t-24 8z" />
<glyph unicode="&#x10e;" horiz-adv-x="1513" d="M186 39v1356q0 15 11 27t26 12h471q145 0 278.5 -57t230 -153t153.5 -228t57 -277q0 -117 -36.5 -227t-103 -198t-155 -154.5t-198 -103t-226.5 -36.5h-471q-15 0 -26 12t-11 27zM395 195h277q225 0 369.5 148t144.5 376q0 226 -144.5 373t-369.5 147h-277v-1044z M649 1573l-256 201q-10 7 -14 17t2 21l41 56q9 13 18.5 14.5t28.5 -8.5l205 -133l205 133q20 11 28.5 9t18.5 -15l41 -56q14 -20 -13 -38l-256 -201q-11 -7 -25.5 -7t-23.5 7z" />
<glyph unicode="&#x10f;" horiz-adv-x="1136" d="M86 473q0 208 131 351t326 143q34 0 68.5 -4.5t62.5 -11.5t48 -13t38 -12.5t20 -7.5v471q0 17 14 31t31 14h117q18 0 31.5 -13.5t13.5 -31.5v-1344q0 -19 -13 -32t-32 -13h-49q-33 0 -43 41l-21 70l-14.5 -14.5t-41 -32.5t-65 -40.5t-85.5 -32t-105 -14.5 q-122 0 -222 67.5t-155 181t-55 247.5zM291 473q0 -123 72.5 -212t183.5 -89q50 0 95.5 17.5t73.5 42.5t44.5 45.5t21.5 33.5v406q-11 6 -30 15t-75.5 24.5t-111.5 15.5q-116 0 -195 -88t-79 -211zM1075 1325q0 60 42 94.5t110 34.5q79 0 128.5 -50.5t49.5 -148.5 q0 -153 -109 -270q-17 -17 -41 -2l-49 37q-12 9 -12 20.5t10 20.5q27 24 44.5 62t17.5 75q0 23 -6 35q-5 -5 -24 -12t-42 -7q-53 0 -86 32t-33 79z" />
<glyph unicode="&#x110;" horiz-adv-x="1513" d="M186 39v620h-59q-15 0 -26 12t-11 27v21q0 15 11 27t26 12h59v637q0 15 11 27t26 12h471q145 0 278.5 -57t230 -153t153.5 -228t57 -277q0 -117 -36.5 -227t-103 -198t-155 -154.5t-198 -103t-226.5 -36.5h-471q-15 0 -26 12t-11 27zM395 195h271q226 0 373 148.5 t147 375.5q0 226 -147 373t-373 147h-271v-481h385q17 0 28 -11.5t11 -27.5v-23q0 -15 -11 -26t-28 -11h-385v-464z" />
<glyph unicode="&#x111;" horiz-adv-x="1130" d="M86 473q0 208 131 351t326 143q34 0 68.5 -4.5t62.5 -11.5t48 -13t38 -12.5t20 -7.5v176h-280q-17 0 -28 10.5t-11 25.5v23q0 16 11 27.5t28 11.5h280v197q0 17 14 31t31 14h117q18 0 31.5 -13.5t13.5 -31.5v-197h53q15 0 26 -12t11 -27v-20q0 -15 -11 -27t-26 -12h-53 v-1049q0 -19 -13 -32t-32 -13h-49q-33 0 -43 41l-21 70l-14.5 -14.5t-41 -32.5t-65 -40.5t-85.5 -32t-105 -14.5q-122 0 -222 67.5t-155 181t-55 247.5zM291 473q0 -123 72.5 -212t183.5 -89q50 0 95.5 17.5t73.5 42.5t44.5 45.5t21.5 33.5v406q-11 6 -30 15t-75.5 24.5 t-111.5 15.5q-116 0 -195 -88t-79 -211z" />
<glyph unicode="&#x112;" horiz-adv-x="1179" d="M186 39v1356q0 16 11 27.5t28 11.5h819q17 0 28 -11.5t11 -27.5v-115q0 -16 -11 -27.5t-28 -11.5h-647v-418h547q15 0 27 -12t12 -27v-114q0 -17 -11.5 -28t-27.5 -11h-547v-441h647q17 0 28 -11.5t11 -26.5v-113q0 -16 -11 -27.5t-28 -11.5h-819q-17 0 -28 11.5 t-11 27.5zM369 1667q-17 0 -28 11t-11 26v57q0 17 11 28t28 11h524q17 0 28 -11t11 -28v-57q0 -15 -11 -26t-28 -11h-524z" />
<glyph unicode="&#x113;" horiz-adv-x="1060" d="M86 473q0 133 57.5 245.5t166.5 180.5t247 68q185 0 308.5 -123.5t123.5 -311.5q0 -33 -4 -65q-1 -18 -14 -29.5t-29 -11.5h-653q2 -100 82 -179t200 -79q74 0 126.5 21t105.5 59q36 25 55 -4l55 -86q29 -36 -4 -64q-57 -50 -148.5 -83.5t-201.5 -33.5q-140 0 -249 68 t-166.5 180.5t-57.5 247.5zM299 578h487q-3 89 -67.5 152t-165.5 63q-108 0 -175.5 -61t-78.5 -154zM297 1180q-17 0 -28 11t-11 26v57q0 17 11 28t28 11h524q17 0 28 -11t11 -28v-57q0 -15 -11 -26t-28 -11h-524z" />
<glyph unicode="&#x114;" horiz-adv-x="1179" d="M186 39v1356q0 16 11 27.5t28 11.5h819q17 0 28 -11.5t11 -27.5v-115q0 -16 -11 -27.5t-28 -11.5h-647v-418h547q15 0 27 -12t12 -27v-114q0 -17 -11.5 -28t-27.5 -11h-547v-441h647q17 0 28 -11.5t11 -26.5v-113q0 -16 -11 -27.5t-28 -11.5h-819q-17 0 -28 11.5 t-11 27.5zM631 1573q-109 0 -188.5 67.5t-94.5 169.5q-3 18 6 30.5t27 12.5h59q29 0 37 -32q18 -54 58 -86.5t96 -32.5q49 0 90 35t57 84q10 32 37 32h64q18 0 26.5 -12.5t5.5 -30.5q-17 -102 -95.5 -169.5t-184.5 -67.5z" />
<glyph unicode="&#x115;" horiz-adv-x="1060" d="M86 473q0 133 57.5 245.5t166.5 180.5t247 68q185 0 308.5 -123.5t123.5 -311.5q0 -33 -4 -65q-1 -18 -14 -29.5t-29 -11.5h-653q2 -100 82 -179t200 -79q74 0 126.5 21t105.5 59q36 25 55 -4l55 -86q29 -36 -4 -64q-57 -50 -148.5 -83.5t-201.5 -33.5q-140 0 -249 68 t-166.5 180.5t-57.5 247.5zM299 578h487q-3 89 -67.5 152t-165.5 63q-108 0 -175.5 -61t-78.5 -154zM565 1083q-109 0 -188 68t-94 170q-3 19 5.5 31t26.5 12h60q29 0 37 -31q18 -56 57.5 -88.5t95.5 -32.5q50 0 91.5 35t56.5 86q10 31 37 31h63q18 0 27 -12t6 -31 q-17 -102 -96 -170t-185 -68z" />
<glyph unicode="&#x116;" horiz-adv-x="1179" d="M186 39v1356q0 16 11 27.5t28 11.5h819q17 0 28 -11.5t11 -27.5v-115q0 -16 -11 -27.5t-28 -11.5h-647v-418h547q15 0 27 -12t12 -27v-114q0 -17 -11.5 -28t-27.5 -11h-547v-441h647q17 0 28 -11.5t11 -26.5v-113q0 -16 -11 -27.5t-28 -11.5h-819q-17 0 -28 11.5 t-11 27.5zM639 1608q-57 0 -96 40t-39 97q0 59 39 99t96 40q59 0 99 -40t40 -99q0 -57 -40.5 -97t-98.5 -40z" />
<glyph unicode="&#x117;" horiz-adv-x="1060" d="M86 473q0 133 57.5 245.5t166.5 180.5t247 68q185 0 308.5 -123.5t123.5 -311.5q0 -33 -4 -65q-1 -18 -14 -29.5t-29 -11.5h-653q2 -100 82 -179t200 -79q74 0 126.5 21t105.5 59q36 25 55 -4l55 -86q29 -36 -4 -64q-57 -50 -148.5 -83.5t-201.5 -33.5q-140 0 -249 68 t-166.5 180.5t-57.5 247.5zM299 578h487q-3 89 -67.5 152t-165.5 63q-108 0 -175.5 -61t-78.5 -154zM559 1149q-57 0 -96 40t-39 97q0 59 39 99t96 40q59 0 99 -40.5t40 -98.5q0 -57 -40.5 -97t-98.5 -40z" />
<glyph unicode="&#x118;" horiz-adv-x="1179" d="M186 39v1356q0 16 11 27.5t28 11.5h819q17 0 28 -11.5t11 -27.5v-115q0 -16 -11 -27.5t-28 -11.5h-647v-418h547q15 0 27 -12t12 -27v-114q0 -17 -11.5 -28t-27.5 -11h-547v-441h647q17 0 28 -11.5t11 -26.5v-109q0 -27 -24 -41q-69 -36 -136 -109t-67 -149q0 -94 88 -94 q64 0 127 55q12 12 24.5 7.5t12.5 -19.5l2 -90q0 -41 -29 -60q-81 -47 -178 -47q-101 0 -156 59t-55 152q0 159 195 293h-662q-17 0 -28 11.5t-11 27.5z" />
<glyph unicode="&#x119;" horiz-adv-x="1060" d="M86 473q0 133 57.5 245.5t166.5 180.5t247 68q185 0 308.5 -123.5t123.5 -311.5q0 -33 -4 -65q-1 -18 -14 -29.5t-29 -11.5h-653q2 -100 82 -179t200 -79q109 0 232 80q36 25 55 -4l55 -86q29 -36 -4 -64q-83 -72 -196 -98q-73 -48 -133 -115t-60 -137q0 -94 88 -94 q64 0 127 55q12 12 24.5 7.5t12.5 -19.5l2 -90q0 -41 -29 -60q-81 -47 -178 -47q-101 0 -156 59t-55 152q0 153 166 273q-195 13 -315.5 154t-120.5 339zM299 578h487q-3 89 -67.5 152t-165.5 63q-108 0 -175.5 -61t-78.5 -154z" />
<glyph unicode="&#x11a;" horiz-adv-x="1179" d="M186 39v1356q0 16 11 27.5t28 11.5h819q17 0 28 -11.5t11 -27.5v-115q0 -16 -11 -27.5t-28 -11.5h-647v-418h547q15 0 27 -12t12 -27v-114q0 -17 -11.5 -28t-27.5 -11h-547v-441h647q17 0 28 -11.5t11 -26.5v-113q0 -16 -11 -27.5t-28 -11.5h-819q-17 0 -28 11.5 t-11 27.5zM600 1573l-256 201q-10 7 -14 17t2 21l41 56q9 13 18.5 14.5t28.5 -8.5l205 -133l204 133q29 19 48 -6l41 -56q14 -20 -13 -38l-256 -201q-11 -7 -25.5 -7t-23.5 7z" />
<glyph unicode="&#x11b;" horiz-adv-x="1060" d="M86 473q0 133 57.5 245.5t166.5 180.5t247 68q185 0 308.5 -123.5t123.5 -311.5q0 -33 -4 -65q-1 -18 -14 -29.5t-29 -11.5h-653q2 -100 82 -179t200 -79q74 0 126.5 21t105.5 59q36 25 55 -4l55 -86q29 -36 -4 -64q-57 -50 -148.5 -83.5t-201.5 -33.5q-140 0 -249 68 t-166.5 180.5t-57.5 247.5zM299 578h487q-3 89 -67.5 152t-165.5 63q-108 0 -175.5 -61t-78.5 -154zM532 1096l-256 200q-10 7 -14 17.5t2 21.5l41 56q9 13 18.5 14.5t28.5 -8.5l205 -133l205 133q20 11 28.5 9t18.5 -15l41 -56q6 -11 2 -21.5t-14 -17.5l-256 -200 q-10 -8 -25.5 -8t-24.5 8z" />
<glyph unicode="&#x11c;" horiz-adv-x="1486" d="M98 715q0 151 58.5 288t157 235.5t235.5 157t287 58.5q275 0 497 -190q12 -12 13 -29t-11 -29q-16 -17 -46.5 -48.5t-45.5 -47.5q-23 -25 -53 2q-74 64 -165 101.5t-183 37.5q-142 0 -261 -73t-186 -195t-67 -264q0 -141 67 -263t186 -195t261 -73q40 0 80.5 5t70 11.5 t59.5 16t46 16t34 13.5l17 8v229h-201q-17 0 -28 11t-11 26v119q0 17 11 28t28 11h375q15 0 26 -12t11 -27v-496q0 -19 -17 -32q-9 -5 -24.5 -14.5t-68 -32.5t-108 -41t-139.5 -32.5t-167 -14.5q-150 0 -287 57.5t-235.5 155.5t-157 234.5t-58.5 287.5zM629 1575 q-19 -10 -28.5 -8.5t-18.5 14.5l-41 55q-6 11 -2 21.5t14 17.5l256 201q9 8 24 8t25 -8l256 -201q10 -7 14 -17.5t-2 -21.5l-41 -55q-10 -13 -18.5 -15t-28.5 9l-204 133z" />
<glyph unicode="&#x11d;" horiz-adv-x="1134" d="M362 1110l-40 55q-6 11 -2 21.5t14 17.5l256 201q9 7 24 7t25 -7l256 -201q10 -7 14 -17.5t-2 -21.5l-41 -55q-10 -13 -18.5 -15t-28.5 9l-205 133l-204 -133q-31 -17 -48 6zM291 473q0 -123 80.5 -212t195.5 -89q56 0 110.5 19t81.5 38l27 19v391q-21 41 -82.5 87 t-144.5 46q-118 0 -193 -87.5t-75 -211.5zM991 901v-907q0 -143 -58.5 -245t-156 -150t-223.5 -48q-106 0 -196.5 39t-131.5 80q-11 7 -14 25.5t4 28.5l49 90q9 19 27 23t37 -9q108 -88 221 -88q49 0 89.5 13t74.5 41t52.5 79t18.5 121v51q-16 -10 -42.5 -23t-85 -29 t-113.5 -16q-127 0 -232 66t-165 180t-60 250q0 134 56.5 247t159.5 180t230 67q61 0 117 -14.5t94 -37t57.5 -36.5t30.5 -25l25 59q4 11 7 17t10 11t18 5h55q18 0 31.5 -13.5t13.5 -31.5z" />
<glyph unicode="&#x11e;" horiz-adv-x="1486" d="M98 715q0 151 58.5 288t157 235.5t235.5 157t287 58.5q275 0 497 -190q12 -12 13 -29t-11 -29q-16 -17 -46.5 -48.5t-45.5 -47.5q-23 -25 -53 2q-74 64 -165 101.5t-183 37.5q-142 0 -261 -73t-186 -195t-67 -264q0 -141 67 -263t186 -195t261 -73q40 0 80.5 5t70 11.5 t59.5 16t46 16t34 13.5l17 8v229h-201q-17 0 -28 11t-11 26v119q0 17 11 28t28 11h375q15 0 26 -12t11 -27v-496q0 -19 -17 -32q-9 -5 -24.5 -14.5t-68 -32.5t-108 -41t-139.5 -32.5t-167 -14.5q-150 0 -287 57.5t-235.5 155.5t-157 234.5t-58.5 287.5zM838 1573 q-109 0 -188.5 67.5t-94.5 169.5q-3 18 6 30.5t27 12.5h59q29 0 37 -32q18 -54 58 -86.5t96 -32.5q49 0 90 35t57 84q10 32 37 32h63q18 0 27 -12.5t6 -30.5q-17 -102 -95.5 -169.5t-184.5 -67.5z" />
<glyph unicode="&#x11f;" horiz-adv-x="1134" d="M614 1083q-109 0 -188 68t-94 170q-3 19 6 31t27 12h59q29 0 37 -31q18 -56 57.5 -88.5t95.5 -32.5q50 0 91.5 35t56.5 86q10 31 37 31h63q18 0 27 -12t6 -31q-17 -102 -96 -170t-185 -68zM291 473q0 -123 80.5 -212t195.5 -89q56 0 110.5 19t81.5 38l27 19v391 q-21 41 -82.5 87t-144.5 46q-118 0 -193 -87.5t-75 -211.5zM991 901v-907q0 -143 -58.5 -245t-156 -150t-223.5 -48q-106 0 -196.5 39t-131.5 80q-11 7 -14 25.5t4 28.5l49 90q9 19 27 23t37 -9q108 -88 221 -88q49 0 89.5 13t74.5 41t52.5 79t18.5 121v51 q-16 -10 -42.5 -23t-85 -29t-113.5 -16q-127 0 -232 66t-165 180t-60 250q0 134 56.5 247t159.5 180t230 67q61 0 117 -14.5t94 -37t57.5 -36.5t30.5 -25l25 59q4 11 7 17t10 11t18 5h55q18 0 31.5 -13.5t13.5 -31.5z" />
<glyph unicode="&#x120;" horiz-adv-x="1486" d="M98 715q0 151 58.5 288t157 235.5t235.5 157t287 58.5q275 0 497 -190q12 -12 13 -29t-11 -29q-16 -17 -46.5 -48.5t-45.5 -47.5q-23 -25 -53 2q-74 64 -165 101.5t-183 37.5q-142 0 -261 -73t-186 -195t-67 -264q0 -141 67 -263t186 -195t261 -73q40 0 80.5 5t70 11.5 t59.5 16t46 16t34 13.5l17 8v229h-201q-17 0 -28 11t-11 26v119q0 17 11 28t28 11h375q15 0 26 -12t11 -27v-496q0 -19 -17 -32q-9 -5 -24.5 -14.5t-68 -32.5t-108 -41t-139.5 -32.5t-167 -14.5q-150 0 -287 57.5t-235.5 155.5t-157 234.5t-58.5 287.5zM836 1608 q-57 0 -96.5 40t-39.5 97q0 58 39.5 98.5t96.5 40.5q58 0 98.5 -40t40.5 -99q0 -57 -40.5 -97t-98.5 -40z" />
<glyph unicode="&#x121;" horiz-adv-x="1134" d="M612 1149q-57 0 -96 40t-39 97q0 59 39 99t96 40q59 0 99.5 -40.5t40.5 -98.5q0 -57 -41 -97t-99 -40zM291 473q0 -123 80.5 -212t195.5 -89q56 0 110.5 19t81.5 38l27 19v391q-21 41 -82.5 87t-144.5 46q-118 0 -193 -87.5t-75 -211.5zM991 901v-907q0 -143 -58.5 -245 t-156 -150t-223.5 -48q-106 0 -196.5 39t-131.5 80q-11 7 -14 25.5t4 28.5l49 90q9 19 27 23t37 -9q108 -88 221 -88q49 0 89.5 13t74.5 41t52.5 79t18.5 121v51q-16 -10 -42.5 -23t-85 -29t-113.5 -16q-127 0 -232 66t-165 180t-60 250q0 134 56.5 247t159.5 180t230 67 q61 0 117 -14.5t94 -37t57.5 -36.5t30.5 -25l25 59q4 11 7 17t10 11t18 5h55q18 0 31.5 -13.5t13.5 -31.5z" />
<glyph unicode="&#x122;" horiz-adv-x="1486" d="M98 715q0 151 58.5 288t157 235.5t235.5 157t287 58.5q275 0 497 -190q12 -12 13 -29t-11 -29q-16 -17 -46.5 -48.5t-45.5 -47.5q-23 -25 -53 2q-74 64 -165 101.5t-183 37.5q-142 0 -261 -73t-186 -195t-67 -264q0 -141 67 -263t186 -195t261 -73q40 0 80.5 5t70 11.5 t59.5 16t46 16t34 13.5l17 8v229h-201q-17 0 -28 11t-11 26v119q0 17 11 28t28 11h375q15 0 26 -12t11 -27v-496q0 -19 -17 -32q-9 -5 -24.5 -14.5t-68 -32.5t-108 -41t-139.5 -32.5t-167 -14.5q-150 0 -287 57.5t-235.5 155.5t-157 234.5t-58.5 287.5zM692 -258 q0 60 42 94.5t110 34.5q79 0 128.5 -50.5t49.5 -148.5q0 -153 -109 -270q-17 -17 -41 -2l-49 37q-11 9 -11 20t9 21q27 24 44.5 62t17.5 75q0 23 -6 35q-5 -5 -24 -12t-42 -7q-53 0 -86 32t-33 79z" />
<glyph unicode="&#x123;" horiz-adv-x="1134" d="M291 473q0 -123 80.5 -212t195.5 -89q56 0 110.5 19t81.5 38l27 19v391q-21 41 -82.5 87t-144.5 46q-118 0 -193 -87.5t-75 -211.5zM991 901v-907q0 -143 -58.5 -245t-156 -150t-223.5 -48q-106 0 -196.5 39t-131.5 80q-11 7 -14 25.5t4 28.5l49 90q9 19 27 23t37 -9 q108 -88 221 -88q49 0 89.5 13t74.5 41t52.5 79t18.5 121v51q-16 -10 -42.5 -23t-85 -29t-113.5 -16q-127 0 -232 66t-165 180t-60 250q0 134 56.5 247t159.5 180t230 67q61 0 117 -14.5t94 -37t57.5 -36.5t30.5 -25l25 59q4 11 7 17t10 11t18 5h55q18 0 31.5 -13.5 t13.5 -31.5zM719 1227q0 -60 -42 -94.5t-110 -34.5q-79 0 -128.5 50t-49.5 148q0 154 109 271q17 17 41 2l49 -37q12 -9 12 -20.5t-10 -20.5q-27 -24 -44.5 -62t-17.5 -75q0 -21 7 -35q5 5 23.5 11.5t41.5 6.5q53 0 86 -31.5t33 -78.5z" />
<glyph unicode="&#x124;" horiz-adv-x="1548" d="M186 39v1356q0 15 12 27t27 12h135q17 0 28 -11.5t11 -27.5v-572h750v572q0 16 11 27.5t28 11.5h135q15 0 27 -12t12 -27v-1356q0 -15 -12 -27t-27 -12h-135q-17 0 -28 11.5t-11 27.5v592h-750v-592q0 -16 -11 -27.5t-28 -11.5h-135q-15 0 -27 12t-12 27zM580 1575 q-31 -17 -48 6l-40 55q-6 11 -2 21.5t14 17.5l256 201q9 8 24 8t25 -8l256 -201q10 -7 14 -17.5t-2 -21.5l-41 -55q-10 -13 -18.5 -15t-28.5 9l-205 133z" />
<glyph unicode="&#x125;" horiz-adv-x="1122" d="M143 45v1344q0 18 13.5 31.5t31.5 13.5h115q17 0 31 -14t14 -31v-521q1 0 10.5 7.5t16.5 12l21 13.5t27 15t31 14.5t36.5 14.5t39.5 11.5t45 8t48 2.5q98 0 170 -33t114 -94.5t62 -140.5t20 -179v-475q0 -18 -13.5 -31.5t-31.5 -13.5h-115q-19 0 -32 13t-13 32v479 q0 118 -48.5 183t-139.5 65q-95 0 -160.5 -46t-87.5 -91v-590q0 -20 -12.5 -32.5t-34.5 -12.5h-113q-19 0 -32 13t-13 32zM-18 1554l-41 56q-6 11 -2 21.5t14 17.5l256 200q9 7 23.5 7t25.5 -7l256 -200q10 -7 14 -17.5t-2 -21.5l-41 -56q-10 -13 -18.5 -15t-28.5 9 l-205 133l-204 -133q-19 -10 -28.5 -8.5t-18.5 14.5z" />
<glyph unicode="&#x126;" horiz-adv-x="1548" d="M186 39v1055h-49q-15 0 -26 12t-11 27v20q0 15 11 27t26 12h49v203q0 15 12 27t27 12h135q17 0 28 -11.5t11 -27.5v-203h750v203q0 16 11 27.5t28 11.5h135q15 0 27 -12t12 -27v-203h47q17 0 28 -11.5t11 -27.5v-23q0 -15 -11 -25.5t-28 -10.5h-47v-1055q0 -15 -12 -27 t-27 -12h-135q-17 0 -28 11.5t-11 27.5v592h-750v-592q0 -16 -11 -27.5t-28 -11.5h-135q-15 0 -27 12t-12 27zM399 823h750v271h-750v-271z" />
<glyph unicode="&#x127;" horiz-adv-x="1163" d="M143 45v1049h-53q-15 0 -26 12t-11 27v20q0 15 11 27t26 12h53v197q0 18 13.5 31.5t31.5 13.5h115q17 0 31 -14t14 -31v-197h283q17 0 28 -11.5t11 -27.5v-23q0 -15 -11 -25.5t-28 -10.5h-283v-226q142 99 295 99q193 0 290 -122t97 -325v-475q0 -18 -13.5 -31.5 t-31.5 -13.5h-115q-19 0 -32 13t-13 32v479q0 115 -57.5 181.5t-151.5 66.5q-96 0 -171.5 -47.5t-96.5 -89.5v-590q0 -20 -12.5 -32.5t-34.5 -12.5h-113q-19 0 -32 13t-13 32z" />
<glyph unicode="&#x128;" horiz-adv-x="585" d="M186 39v1356q0 15 12 27t27 12h135q15 0 27 -12t12 -27v-1356q0 -15 -12 -27t-27 -12h-135q-15 0 -27 12t-12 27zM43 1622l-47 31q-26 15 -12 47l16.5 33t26.5 42t40 48.5t51 33t66 15.5q40 0 75.5 -20.5t56.5 -45t46 -45t46 -20.5q16 0 30.5 9.5t21 18.5t18 29t14.5 25 q21 35 51 18q5 -4 17 -11t21.5 -14t14.5 -14q11 -17 -6 -55q-10 -22 -23.5 -44t-37 -49t-58 -44t-74.5 -17q-35 0 -69.5 21t-57 45.5t-48 45.5t-44.5 21q-51 0 -88 -84q-8 -19 -17 -24t-30 4z" />
<glyph unicode="&#x129;" horiz-adv-x="491" d="M143 45v856q0 18 13.5 31.5t31.5 13.5h115q17 0 31 -14t14 -31v-856q0 -18 -13.5 -31.5t-31.5 -13.5h-115q-19 0 -32 13t-13 32zM0 1163l-47 31q-26 15 -12 47l16.5 33t26.5 42t40 48.5t51 33t66 15.5q40 0 75.5 -20.5t56.5 -45t46 -45t46 -20.5q16 0 30.5 9.5t21 18.5 t18 29t14.5 25q21 35 51 18q5 -4 17 -11t21.5 -14t14.5 -14q11 -17 -6 -55q-10 -22 -23.5 -43.5t-37 -49t-58 -44t-74.5 -16.5q-35 0 -69.5 21t-57 45.5t-48 45.5t-44.5 21q-51 0 -88 -84q-8 -19 -17 -24t-30 3z" />
<glyph unicode="&#x12a;" horiz-adv-x="585" d="M186 39v1356q0 15 12 27t27 12h135q15 0 27 -12t12 -27v-1356q0 -15 -12 -27t-27 -12h-135q-15 0 -27 12t-12 27zM33 1667q-17 0 -28 11t-11 26v57q0 17 11 28t28 11h524q17 0 28 -11t11 -28v-57q0 -15 -11 -26t-28 -11h-524z" />
<glyph unicode="&#x12b;" horiz-adv-x="491" d="M143 45v856q0 18 13.5 31.5t31.5 13.5h115q17 0 31 -14t14 -31v-856q0 -18 -13.5 -31.5t-31.5 -13.5h-115q-19 0 -32 13t-13 32zM-10 1180q-17 0 -28 11t-11 26v57q0 17 11 28t28 11h524q17 0 28 -11t11 -28v-57q0 -15 -11 -26t-28 -11h-524z" />
<glyph unicode="&#x12c;" horiz-adv-x="585" d="M186 39v1356q0 15 12 27t27 12h135q15 0 27 -12t12 -27v-1356q0 -15 -12 -27t-27 -12h-135q-15 0 -27 12t-12 27zM295 1573q-109 0 -188.5 67.5t-94.5 169.5q-3 18 6 30.5t27 12.5h59q29 0 37 -32q18 -54 58 -86.5t96 -32.5q49 0 90 35t57 84q10 32 37 32h64 q18 0 26.5 -12.5t5.5 -30.5q-17 -102 -95.5 -169.5t-184.5 -67.5z" />
<glyph unicode="&#x12d;" horiz-adv-x="491" d="M143 45v856q0 18 13.5 31.5t31.5 13.5h115q17 0 31 -14t14 -31v-856q0 -18 -13.5 -31.5t-31.5 -13.5h-115q-19 0 -32 13t-13 32zM256 1083q-109 0 -188.5 68t-94.5 170q-3 19 6 31t27 12h60q28 0 36 -31q18 -55 58 -88t96 -33q50 0 91 35t56 86q10 31 37 31h64 q18 0 27 -12t6 -31q-17 -102 -96 -170t-185 -68z" />
<glyph unicode="&#x12e;" horiz-adv-x="585" d="M186 39v1356q0 15 12 27t27 12h135q15 0 27 -12t12 -27v-1356q0 -22 -18 -33q-32 -20 -62.5 -44t-66.5 -59t-58 -77t-22 -82q0 -94 88 -94q64 0 127 55q12 12 24.5 7.5t12.5 -19.5l2 -90q0 -41 -29 -60q-81 -47 -178 -47q-101 0 -156 59t-55 152q0 164 201 297 q-23 10 -23 35z" />
<glyph unicode="&#x12f;" horiz-adv-x="491" d="M143 45v856q0 18 13.5 31.5t31.5 13.5h115q17 0 31 -14t14 -31v-848q0 -35 -31 -51q-69 -35 -135.5 -108.5t-66.5 -149.5q0 -94 88 -94q64 0 127 55q12 12 24.5 7.5t12.5 -19.5l2 -90q0 -41 -29 -60q-81 -47 -178 -47q-101 0 -156 59t-55 152q0 54 20 103t57 88t65 62.5 t67 49.5q-17 14 -17 35zM246 1149q-57 0 -96 40t-39 97q0 59 39 99t96 40q58 0 98.5 -40.5t40.5 -98.5q0 -57 -40.5 -97t-98.5 -40z" />
<glyph unicode="&#x130;" horiz-adv-x="585" d="M186 39v1356q0 15 12 27t27 12h135q15 0 27 -12t12 -27v-1356q0 -15 -12 -27t-27 -12h-135q-15 0 -27 12t-12 27zM293 1608q-57 0 -96 40t-39 97q0 59 39 99t96 40q59 0 99 -40t40 -99q0 -57 -40.5 -97t-98.5 -40z" />
<glyph unicode="&#x131;" horiz-adv-x="491" d="M143 45v856q0 18 13.5 31.5t31.5 13.5h115q17 0 31 -14t14 -31v-856q0 -18 -13.5 -31.5t-31.5 -13.5h-115q-19 0 -32 13t-13 32z" />
<glyph unicode="&#x132;" horiz-adv-x="1499" d="M186 39v1356q0 15 12 27t27 12h135q15 0 27 -12t12 -27v-1356q0 -15 -12 -27t-27 -12h-135q-15 0 -27 12t-12 27zM592 129q-17 27 4 51l74 80q35 30 65 -4q78 -88 168 -88q86 0 146.5 57t60.5 181v989q0 16 11 27.5t28 11.5h135q17 0 28 -11.5t11 -27.5v-987 q0 -207 -116.5 -317.5t-303.5 -110.5q-190 0 -311 149z" />
<glyph unicode="&#x133;" horiz-adv-x="997" d="M143 45v856q0 18 13.5 31.5t31.5 13.5h115q17 0 31 -14t14 -31v-856q0 -18 -13.5 -31.5t-31.5 -13.5h-115q-19 0 -32 13t-13 32zM246 1149q-57 0 -96 40t-39 97q0 59 39 99t96 40q58 0 98.5 -40.5t40.5 -98.5q0 -57 -40.5 -97t-98.5 -40zM854 901v-987 q0 -165 -66.5 -271.5t-171.5 -146.5q-49 -17 -71 25l-43 80q-12 22 -5 43t29 32q123 63 123 213v1012q0 20 13 32.5t32 12.5h115q18 0 31.5 -12.5t13.5 -32.5zM752 1149q-57 0 -96.5 40t-39.5 97q0 58 39.5 98.5t96.5 40.5q58 0 98.5 -40.5t40.5 -98.5q0 -57 -40.5 -97 t-98.5 -40z" />
<glyph unicode="&#x134;" horiz-adv-x="946" d="M39 129q-17 27 4 51l74 80q35 30 65 -4q78 -88 168 -88q86 0 146.5 57t60.5 181v989q0 16 11 27.5t28 11.5h135q17 0 28 -11.5t11 -27.5v-987q0 -207 -116.5 -317.5t-303.5 -110.5q-190 0 -311 149zM461 1575q-19 -10 -28.5 -8.5t-18.5 14.5l-41 55q-6 11 -2 21.5 t14 17.5l256 201q9 8 24 8t25 -8l256 -201q10 -7 14 -17.5t-2 -21.5l-40 -55q-19 -25 -48 -6l-204 133z" />
<glyph unicode="&#x135;" horiz-adv-x="491" d="M348 901v-987q0 -165 -66.5 -271.5t-170.5 -146.5q-50 -17 -72 25l-43 80q-12 22 -5 43t29 32q123 63 123 213v1012q0 20 13 32.5t32 12.5h115q18 0 31.5 -12.5t13.5 -32.5zM-8 1110l-41 55q-6 11 -2 21.5t14 17.5l256 201q9 7 24 7t25 -7l256 -201q10 -7 14.5 -17.5 t-1.5 -21.5l-41 -55q-10 -13 -18.5 -15t-28.5 9l-205 133l-205 -133q-19 -10 -28.5 -8.5t-18.5 14.5z" />
<glyph unicode="&#x136;" horiz-adv-x="1271" d="M186 49v1335q0 21 14.5 35.5t35.5 14.5h118q20 0 34.5 -15t14.5 -35v-567l578 596q17 21 39 21h154q28 0 38.5 -25.5t-10.5 -48.5l-592 -602l627 -690q14 -15 3.5 -41.5t-40.5 -26.5h-164q-28 0 -37 14l-596 672v-637q0 -20 -14.5 -34.5t-34.5 -14.5h-118q-22 0 -36 14 t-14 35zM528 -258q0 60 42 94.5t110 34.5q79 0 128.5 -50.5t49.5 -148.5q0 -154 -108 -270q-17 -17 -41 -2l-50 37q-11 9 -11 20t9 21q27 24 44.5 62t17.5 75q0 23 -6 35q-5 -5 -24 -12t-42 -7q-53 0 -86 32t-33 79z" />
<glyph unicode="&#x137;" horiz-adv-x="1017" d="M143 45v1344q0 18 13.5 31.5t31.5 13.5h115q17 0 31 -14t14 -31v-801l365 330q32 28 59 28h150q29 0 36 -25t-12 -40l-383 -361l402 -459q15 -17 8.5 -39t-35.5 -22h-168q-29 0 -43 18l-379 441v-414q0 -18 -13.5 -31.5t-31.5 -13.5h-115q-19 0 -32 13t-13 32zM377 -258 q0 60 42 94.5t109 34.5q79 0 129 -50.5t50 -148.5q0 -153 -109 -270q-17 -17 -41 -2l-49 37q-12 9 -12 20t10 21q27 24 44 61.5t17 75.5q0 23 -6 35q-5 -5 -23.5 -12t-41.5 -7q-53 0 -86 32t-33 79z" />
<glyph unicode="&#x138;" horiz-adv-x="1079" d="M143 45v856q0 18 13.5 31.5t31.5 13.5h115q17 0 31 -14t14 -31v-385l420 402q36 28 61 28h142q28 0 36 -25t-10 -40l-430 -418l467 -402q17 -15 10 -38t-36 -23h-177q-29 0 -43 18l-440 369v-342q0 -18 -13.5 -31.5t-31.5 -13.5h-115q-19 0 -32 13t-13 32z" />
<glyph unicode="&#x139;" horiz-adv-x="1026" d="M186 39v1356q0 16 11 27.5t28 11.5h135q15 0 27 -12t12 -27v-1205h555q17 0 28 -11.5t11 -26.5v-113q0 -16 -11 -27.5t-28 -11.5h-729q-17 0 -28 11.5t-11 27.5zM152 1585q-38 -17 -50 10l-28 58q-5 13 -1 23.5t13 15.5l322 186q8 7 27 6.5t26 -12.5l47 -90 q8 -15 4.5 -29t-16.5 -20z" />
<glyph unicode="&#x13a;" horiz-adv-x="503" d="M150 45v1344q0 18 13.5 31.5t31.5 13.5h114q17 0 31 -14t14 -31v-1344q0 -18 -13.5 -31.5t-31.5 -13.5h-114q-19 0 -32 13t-13 32zM129 1556q-36 -17 -49 9l-29 59q-5 12 -1.5 23t13.5 16l322 186q8 7 27 6.5t26 -12.5l47 -90q7 -15 3.5 -29t-15.5 -20z" />
<glyph unicode="&#x13b;" horiz-adv-x="1026" d="M186 39v1356q0 16 11 27.5t28 11.5h135q15 0 27 -12t12 -27v-1205h555q17 0 28 -11.5t11 -26.5v-113q0 -16 -11 -27.5t-28 -11.5h-729q-17 0 -28 11.5t-11 27.5zM442 -258q0 60 42 94.5t110 34.5q79 0 128.5 -50.5t49.5 -148.5q0 -154 -108 -270q-17 -17 -41 -2l-50 37 q-11 9 -11 20t9 21q27 24 44.5 62t17.5 75q0 23 -6 35q-5 -5 -24 -12t-42 -7q-53 0 -86 32t-33 79z" />
<glyph unicode="&#x13c;" horiz-adv-x="503" d="M150 45v1344q0 18 13.5 31.5t31.5 13.5h114q17 0 31 -14t14 -31v-1344q0 -18 -13.5 -31.5t-31.5 -13.5h-114q-19 0 -32 13t-13 32zM96 -266q0 60 42 94.5t110 34.5q79 0 128.5 -50.5t49.5 -148.5q0 -153 -109 -270q-17 -17 -41 -2l-49 37q-11 9 -11 20t9 21 q27 24 44.5 62t17.5 75q0 23 -6 35q-5 -5 -24 -12t-42 -7q-53 0 -86 32t-33 79z" />
<glyph unicode="&#x13d;" horiz-adv-x="1046" d="M186 39v1356q0 16 11 27.5t28 11.5h135q15 0 27 -12t12 -27v-1205h555q17 0 28 -11.5t11 -26.5v-113q0 -16 -11 -27.5t-28 -11.5h-729q-17 0 -28 11.5t-11 27.5zM643 1325q0 60 42 94.5t110 34.5q79 0 128.5 -50.5t49.5 -148.5q0 -153 -109 -270q-17 -17 -41 -2l-49 37 q-12 9 -12 20.5t10 20.5q27 24 44.5 62t17.5 75q0 21 -7 35q-5 -5 -23.5 -12t-41.5 -7q-53 0 -86 32t-33 79z" />
<glyph unicode="&#x13e;" horiz-adv-x="503" d="M150 45v1344q0 18 13.5 31.5t31.5 13.5h114q17 0 31 -14t14 -31v-1344q0 -18 -13.5 -31.5t-31.5 -13.5h-114q-19 0 -32 13t-13 32zM442 1325q0 60 42 94.5t110 34.5q79 0 128.5 -50.5t49.5 -148.5q0 -154 -108 -270q-17 -17 -41 -2l-50 37q-11 9 -11 20.5t9 20.5 q27 24 44.5 62t17.5 75q0 23 -6 35q-5 -5 -24 -12t-42 -7q-53 0 -86 32t-33 79z" />
<glyph unicode="&#x13f;" horiz-adv-x="1067" d="M186 39v1356q0 16 11 27.5t28 11.5h135q15 0 27 -12t12 -27v-1205h555q17 0 28 -11.5t11 -26.5v-113q0 -16 -11 -27.5t-28 -11.5h-729q-17 0 -28 11.5t-11 27.5zM895 598q-57 0 -96 40t-39 97q0 59 39 99t96 40q59 0 99 -40t40 -99q0 -57 -40.5 -97t-98.5 -40z" />
<glyph unicode="&#x140;" horiz-adv-x="747" d="M150 45v1344q0 18 13.5 31.5t31.5 13.5h114q17 0 31 -14t14 -31v-1344q0 -18 -13.5 -31.5t-31.5 -13.5h-114q-19 0 -32 13t-13 32zM623 563q-57 0 -96.5 40t-39.5 97q0 59 39.5 99.5t96.5 40.5q58 0 98.5 -40.5t40.5 -99.5q0 -57 -40.5 -97t-98.5 -40z" />
<glyph unicode="&#x141;" horiz-adv-x="1026" d="M186 39v592l-45 -25q-12 -8 -28 -3t-23 18l-10 18q-8 12 -4.5 28t16.5 25l94 51v652q0 16 11 27.5t28 11.5h135q15 0 27 -12t12 -27v-527l203 117q16 8 30.5 3.5t22.5 -17.5l11 -19q7 -14 3 -29t-18 -24l-252 -145v-564h555q17 0 28 -11.5t11 -26.5v-113q0 -16 -11 -27.5 t-28 -11.5h-729q-17 0 -28 11.5t-11 27.5z" />
<glyph unicode="&#x142;" horiz-adv-x="579" d="M172 45v600l-4 -2l-78 -45q-12 -8 -28 -3.5t-23 17.5l-10 19q-8 12 -4.5 28t16.5 25l127 74l4 2v629q0 18 13.5 31.5t31.5 13.5h115q17 0 31 -14t14 -31v-510l6 4l145 84q15 7 30.5 2t23.5 -17l10 -20q8 -12 3.5 -27t-17.5 -24l-195 -113l-6 -4v-719q0 -18 -13.5 -31.5 t-31.5 -13.5h-115q-19 0 -32 13t-13 32z" />
<glyph unicode="&#x143;" horiz-adv-x="1562" d="M186 39v1378q0 15 12 26t27 11h17q13 0 19.5 -1t17.5 -8t24 -22l860 -997h4v969q0 16 11 27.5t28 11.5h131q15 0 27 -12t12 -27v-1379q0 -15 -12 -25.5t-27 -10.5h-18q-13 0 -19 1t-17 7t-23 20l-863 1028h-4v-997q0 -16 -11 -27.5t-28 -11.5h-129q-15 0 -27 12t-12 27z M657 1585q-37 -17 -49 10l-28 58q-5 13 -1 23.5t13 15.5l321 186q8 7 27.5 6.5t26.5 -12.5l47 -90q8 -15 4 -29t-17 -20z" />
<glyph unicode="&#x144;" horiz-adv-x="1122" d="M143 45v856q0 18 13.5 31.5t31.5 13.5h50q32 0 38 -28l29 -82q11 14 33 32t61.5 42t99 40.5t124.5 16.5q84 0 148.5 -23.5t105.5 -63t66.5 -97.5t35.5 -121.5t10 -141.5v-475q0 -18 -13.5 -31.5t-31.5 -13.5h-115q-19 0 -32 13t-13 32v483q0 117 -47.5 180.5t-138.5 63.5 q-52 0 -99.5 -16.5t-77.5 -40t-48.5 -44.5t-24.5 -36v-590q0 -45 -55 -45h-105q-19 0 -32 13t-13 32zM449 1112q-37 -18 -50 8l-28 60q-5 12 -1.5 23t13.5 16l322 186q8 7 27 6.5t26 -12.5l47 -90q7 -15 3.5 -29t-15.5 -20z" />
<glyph unicode="&#x145;" horiz-adv-x="1562" d="M186 39v1378q0 15 12 26t27 11h17q13 0 19.5 -1t17.5 -8t24 -22l860 -997h4v969q0 16 11 27.5t28 11.5h131q15 0 27 -12t12 -27v-1379q0 -15 -12 -25.5t-27 -10.5h-18q-13 0 -19 1t-17 7t-23 20l-863 1028h-4v-997q0 -16 -11 -27.5t-28 -11.5h-129q-15 0 -27 12t-12 27z M639 -258q0 60 42 94.5t110 34.5q79 0 128.5 -50.5t49.5 -148.5q0 -153 -109 -270q-17 -17 -41 -2l-49 37q-12 9 -12 20t10 21q27 24 44 61.5t17 75.5q0 23 -6 35q-5 -5 -23.5 -12t-41.5 -7q-53 0 -86 32t-33 79z" />
<glyph unicode="&#x146;" horiz-adv-x="1122" d="M143 45v856q0 18 13.5 31.5t31.5 13.5h50q32 0 38 -28l29 -82q11 14 33 32t61.5 42t99 40.5t124.5 16.5q84 0 148.5 -23.5t105.5 -63t66.5 -97.5t35.5 -121.5t10 -141.5v-475q0 -18 -13.5 -31.5t-31.5 -13.5h-115q-19 0 -32 13t-13 32v483q0 117 -47.5 180.5t-138.5 63.5 q-52 0 -99.5 -16.5t-77.5 -40t-48.5 -44.5t-24.5 -36v-590q0 -45 -55 -45h-105q-19 0 -32 13t-13 32zM426 -258q0 60 42 94.5t110 34.5q79 0 128.5 -50.5t49.5 -148.5q0 -153 -109 -270q-17 -17 -41 -2l-49 37q-11 9 -11 20t9 21q27 24 44 61.5t17 75.5q0 23 -6 35 q-5 -5 -23.5 -12t-41.5 -7q-53 0 -86 32t-33 79z" />
<glyph unicode="&#x147;" horiz-adv-x="1562" d="M186 39v1378q0 15 12 26t27 11h17q13 0 19.5 -1t17.5 -8t24 -22l860 -997h4v969q0 16 11 27.5t28 11.5h131q15 0 27 -12t12 -27v-1379q0 -15 -12 -25.5t-27 -10.5h-18q-13 0 -19 1t-17 7t-23 20l-863 1028h-4v-997q0 -16 -11 -27.5t-28 -11.5h-129q-15 0 -27 12t-12 27z M766 1573l-256 201q-10 7 -14 17t2 21l41 56q9 13 18.5 14.5t28.5 -8.5l205 -133l204 133q20 11 28.5 9t18.5 -15l41 -56q6 -11 2 -21t-14 -17l-256 -201q-11 -7 -25.5 -7t-23.5 7z" />
<glyph unicode="&#x148;" horiz-adv-x="1122" d="M143 45v856q0 18 13.5 31.5t31.5 13.5h50q32 0 38 -28l29 -82q11 14 33 32t61.5 42t99 40.5t124.5 16.5q84 0 148.5 -23.5t105.5 -63t66.5 -97.5t35.5 -121.5t10 -141.5v-475q0 -18 -13.5 -31.5t-31.5 -13.5h-115q-19 0 -32 13t-13 32v483q0 117 -47.5 180.5t-138.5 63.5 q-52 0 -99.5 -16.5t-77.5 -40t-48.5 -44.5t-24.5 -36v-590q0 -45 -55 -45h-105q-19 0 -32 13t-13 32zM563 1096l-256 200q-10 7 -14 17.5t2 21.5l41 56q9 13 18.5 14.5t28.5 -8.5l205 -133l205 133q20 11 28.5 9t18.5 -15l41 -56q6 -11 1.5 -21.5t-14.5 -17.5l-256 -200 q-11 -8 -25.5 -8t-23.5 8z" />
<glyph unicode="&#x149;" horiz-adv-x="1122" d="M-190 1325q0 60 42 94.5t109 34.5q79 0 128.5 -50.5t49.5 -148.5q0 -154 -108 -270q-17 -17 -41 -2l-49 37q-11 9 -11 20.5t9 20.5q27 24 44 61.5t17 75.5q0 23 -6 35q-5 -5 -24 -12t-42 -7q-53 0 -85.5 32t-32.5 79zM143 45v856q0 18 13.5 31.5t31.5 13.5h50 q32 0 38 -28l29 -82q11 14 33 32t61.5 42t99 40.5t124.5 16.5q84 0 148.5 -23.5t105.5 -63t66.5 -97.5t35.5 -121.5t10 -141.5v-475q0 -18 -13.5 -31.5t-31.5 -13.5h-115q-19 0 -32 13t-13 32v483q0 117 -47.5 180.5t-138.5 63.5q-52 0 -99.5 -16.5t-77.5 -40t-48.5 -44.5 t-24.5 -36v-590q0 -45 -55 -45h-105q-19 0 -32 13t-13 32z" />
<glyph unicode="&#x14a;" horiz-adv-x="1562" d="M186 39v1378q0 15 12 26t27 11h31q22 0 35 -16l874 -1012h2v969q0 16 11 27.5t28 11.5h131q15 0 27 -12t12 -27v-1481q0 -165 -66.5 -271.5t-170.5 -146.5q-50 -17 -72 25l-43 80q-12 22 -4.5 43t29.5 32q122 62 122 213v230l-776 917h-2v-997q0 -16 -11 -27.5t-28 -11.5 h-129q-15 0 -27 12t-12 27z" />
<glyph unicode="&#x14b;" horiz-adv-x="1124" d="M784 528q0 117 -47.5 180.5t-138.5 63.5q-52 0 -99.5 -16.5t-77.5 -40t-48.5 -44.5t-24.5 -36v-590q0 -45 -55 -45h-105q-19 0 -32 13t-13 32v856q0 18 13.5 31.5t31.5 13.5h50q32 0 38 -28l29 -82q11 14 33 32t61.5 42t99 40.5t124.5 16.5q84 0 148.5 -23.5t105.5 -63 t66.5 -97.5t35.5 -121.5t10 -141.5v-606q0 -165 -66.5 -271.5t-170.5 -146.5q-50 -17 -72 25l-43 80q-12 22 -4.5 43t29.5 32q122 62 122 213v639z" />
<glyph unicode="&#x14c;" horiz-adv-x="1669" d="M98 715q0 151 58 288t156 236t234.5 157t287.5 58t287.5 -58t235 -157t156.5 -236t58 -288t-58 -287.5t-156.5 -234.5t-235 -155.5t-287.5 -57.5q-202 0 -371 97.5t-267 266.5t-98 371zM303 715q0 -144 71.5 -268t194 -196.5t265.5 -72.5q144 0 266.5 72.5t194 196.5 t71.5 268q0 143 -71 267.5t-194 198.5t-267 74q-143 0 -265.5 -74t-194 -198.5t-71.5 -267.5zM573 1667q-17 0 -27.5 11t-10.5 26v57q0 17 10.5 28t27.5 11h525q17 0 28 -11t11 -28v-57q0 -15 -11 -26t-28 -11h-525z" />
<glyph unicode="&#x14d;" horiz-adv-x="1132" d="M84 475q0 131 64.5 244.5t176.5 180.5t242 67t241 -67t176 -180.5t65 -244.5q0 -133 -65 -248t-176 -182.5t-241 -67.5q-98 0 -187.5 40t-154 107.5t-103 159t-38.5 191.5zM285 475q0 -130 81 -216.5t201 -86.5q119 0 200 86.5t81 216.5q0 127 -81 212t-200 85 q-120 0 -201 -85t-81 -212zM305 1180q-17 0 -28 11t-11 26v57q0 17 11 28t28 11h524q17 0 28 -11t11 -28v-57q0 -15 -11 -26t-28 -11h-524z" />
<glyph unicode="&#x14e;" horiz-adv-x="1669" d="M98 715q0 151 58 288t156 236t234.5 157t287.5 58t287.5 -58t235 -157t156.5 -236t58 -288t-58 -287.5t-156.5 -234.5t-235 -155.5t-287.5 -57.5q-202 0 -371 97.5t-267 266.5t-98 371zM303 715q0 -144 71.5 -268t194 -196.5t265.5 -72.5q144 0 266.5 72.5t194 196.5 t71.5 268q0 143 -71 267.5t-194 198.5t-267 74q-143 0 -265.5 -74t-194 -198.5t-71.5 -267.5zM836 1573q-109 0 -188.5 67.5t-94.5 169.5q-3 18 6 30.5t27 12.5h59q29 0 37 -32q18 -54 58 -86.5t96 -32.5q49 0 90 35t57 84q10 32 37 32h63q18 0 27 -12.5t6 -30.5 q-17 -102 -95.5 -169.5t-184.5 -67.5z" />
<glyph unicode="&#x14f;" horiz-adv-x="1132" d="M84 475q0 131 64.5 244.5t176.5 180.5t242 67t241 -67t176 -180.5t65 -244.5q0 -133 -65 -248t-176 -182.5t-241 -67.5q-98 0 -187.5 40t-154 107.5t-103 159t-38.5 191.5zM285 475q0 -130 81 -216.5t201 -86.5q119 0 200 86.5t81 216.5q0 127 -81 212t-200 85 q-120 0 -201 -85t-81 -212zM567 1083q-109 0 -188 68t-94 170q-3 19 5.5 31t26.5 12h60q29 0 37 -31q18 -56 57.5 -88.5t95.5 -32.5q50 0 91.5 35t56.5 86q10 31 37 31h63q18 0 27 -12t6 -31q-17 -102 -96 -170t-185 -68z" />
<glyph unicode="&#x150;" horiz-adv-x="1669" d="M98 715q0 151 58 288t156 236t234.5 157t287.5 58t287.5 -58t235 -157t156.5 -236t58 -288t-58 -287.5t-156.5 -234.5t-235 -155.5t-287.5 -57.5q-202 0 -371 97.5t-267 266.5t-98 371zM303 715q0 -144 71.5 -268t194 -196.5t265.5 -72.5q144 0 266.5 72.5t194 196.5 t71.5 268q0 143 -71 267.5t-194 198.5t-267 74q-143 0 -265.5 -74t-194 -198.5t-71.5 -267.5zM1012 1573q-24 0 -34 11.5t-5 27.5l88 289q11 38 39 38h117q29 0 39 -15.5t-3 -35.5l-159 -284q-18 -31 -37 -31h-45zM672 1573q-21 0 -32.5 12t-6.5 27l88 289q11 38 39 38h117 q28 0 38 -15.5t-2 -35.5l-159 -284q-16 -31 -37 -31h-45z" />
<glyph unicode="&#x151;" horiz-adv-x="1132" d="M84 475q0 131 64.5 244.5t176.5 180.5t242 67t241 -67t176 -180.5t65 -244.5q0 -133 -65 -248t-176 -182.5t-241 -67.5q-98 0 -187.5 40t-154 107.5t-103 159t-38.5 191.5zM285 475q0 -130 81 -216.5t201 -86.5q119 0 200 86.5t81 216.5q0 127 -81 212t-200 85 q-120 0 -201 -85t-81 -212zM668 1067q-24 0 -34 11.5t-5 27.5l90 289q12 39 39 39h116q28 0 38.5 -16.5t-1.5 -35.5l-159 -284q-16 -31 -37 -31h-47zM328 1067q-22 0 -33 11.5t-6 27.5l90 289q12 39 39 39h117q28 0 38 -16t-2 -36l-159 -284q-16 -31 -37 -31h-47z" />
<glyph unicode="&#x152;" horiz-adv-x="1976" d="M98 715q0 151 58 288t156 236t234.5 157t287.5 58q45 0 92 -5t72 -10l24 -5h819q17 0 28 -11.5t11 -27.5v-115q0 -16 -11 -27.5t-28 -11.5h-647v-418h547q15 0 27 -12t12 -27v-114q0 -17 -11.5 -28t-27.5 -11h-547v-441h647q17 0 28 -11.5t11 -26.5v-113q0 -16 -11 -27.5 t-28 -11.5h-819q-100 -20 -188 -20q-202 0 -371 97.5t-267 266.5t-98 371zM303 715q0 -144 71.5 -267t194 -194.5t265.5 -71.5q85 0 149 21v1024q-77 22 -149 22q-143 0 -265.5 -72.5t-194 -195.5t-71.5 -266z" />
<glyph unicode="&#x153;" horiz-adv-x="1787" d="M1026 578h487q-3 89 -67.5 152t-165.5 63q-108 0 -175.5 -61t-78.5 -154zM1716 532q0 -33 -4 -65q-1 -18 -14 -29.5t-29 -11.5h-653q3 -101 83.5 -179.5t198.5 -78.5q109 0 232 80q36 25 55 -4l55 -86q29 -36 -4 -64q-57 -50 -148.5 -83.5t-201.5 -33.5q-111 0 -206 46.5 t-160 126.5q-66 -80 -159 -126.5t-198 -46.5q-130 0 -241 68.5t-174.5 183.5t-63.5 248q0 131 63.5 244t174.5 179.5t241 66.5q105 0 198 -46.5t159 -127.5q62 83 155 128.5t207 45.5q181 0 307.5 -122t126.5 -313zM281 475q0 -130 81 -216.5t201 -86.5q119 0 200 86.5 t81 216.5q0 127 -81 212t-200 85q-120 0 -201 -85t-81 -212z" />
<glyph unicode="&#x154;" horiz-adv-x="1341" d="M186 39v1356q0 16 11 27.5t28 11.5h557q121 0 224 -58.5t163 -159.5t60 -221q0 -138 -83 -249t-220 -166l280 -521q11 -20 0.5 -39.5t-35.5 -19.5h-153q-30 0 -43 27l-268 534h-310v-522q0 -15 -12 -27t-27 -12h-133q-17 0 -28 11.5t-11 27.5zM401 737h365 q101 0 175.5 74.5t74.5 179.5q0 99 -75 171.5t-175 72.5h-365v-498zM494 1585q-38 -17 -50 10l-28 58q-5 13 -1 23.5t13 15.5l322 186q8 7 27 6.5t26 -12.5l47 -90q8 -15 4.5 -29t-16.5 -20z" />
<glyph unicode="&#x155;" horiz-adv-x="790" d="M143 45v856q0 18 13.5 31.5t31.5 13.5h50q14 0 26 -10t15 -23l26 -86q9 14 29 33.5t55 45.5t89 43.5t114 17.5q80 0 136.5 -22.5t35.5 -65.5l-49 -103q-9 -19 -26 -24.5t-32 2.5q-32 18 -86 18q-48 0 -91.5 -17t-70.5 -41t-41.5 -41.5t-19.5 -27.5v-600 q0 -28 -15.5 -36.5t-49.5 -8.5h-95q-19 0 -32 13t-13 32zM301 1112q-36 -18 -49 8l-29 60q-5 12 -1 23t14 16l321 186q8 7 27 6.5t26 -12.5l47 -90q7 -15 3.5 -29t-15.5 -20z" />
<glyph unicode="&#x156;" horiz-adv-x="1341" d="M186 39v1356q0 16 11 27.5t28 11.5h557q121 0 224 -58.5t163 -159.5t60 -221q0 -138 -83 -249t-220 -166l280 -521q11 -20 0.5 -39.5t-35.5 -19.5h-153q-30 0 -43 27l-268 534h-310v-522q0 -15 -12 -27t-27 -12h-133q-17 0 -28 11.5t-11 27.5zM401 737h365 q101 0 175.5 74.5t74.5 179.5q0 99 -75 171.5t-175 72.5h-365v-498zM504 -258q0 60 42 94.5t109 34.5q79 0 129 -50.5t50 -148.5q0 -153 -109 -270q-17 -17 -41 -2l-49 37q-11 9 -11 20t9 21q27 24 44 61.5t17 75.5q0 23 -6 35q-5 -5 -23.5 -12t-41.5 -7q-53 0 -86 32 t-33 79z" />
<glyph unicode="&#x157;" horiz-adv-x="790" d="M143 45v856q0 18 13.5 31.5t31.5 13.5h50q14 0 26 -10t15 -23l26 -86q9 14 29 33.5t55 45.5t89 43.5t114 17.5q80 0 136.5 -22.5t35.5 -65.5l-49 -103q-9 -19 -26 -24.5t-32 2.5q-32 18 -86 18q-48 0 -91.5 -17t-70.5 -41t-41.5 -41.5t-19.5 -27.5v-600 q0 -28 -15.5 -36.5t-49.5 -8.5h-95q-19 0 -32 13t-13 32zM98 -258q0 60 42 94.5t110 34.5q79 0 128.5 -50.5t49.5 -148.5q0 -153 -109 -270q-17 -17 -40 -2l-50 37q-11 9 -11 20t9 21q27 24 44.5 62t17.5 75q0 23 -6 35q-5 -5 -24 -12t-42 -7q-53 0 -86 32t-33 79z" />
<glyph unicode="&#x158;" horiz-adv-x="1341" d="M186 39v1356q0 16 11 27.5t28 11.5h557q121 0 224 -58.5t163 -159.5t60 -221q0 -138 -83 -249t-220 -166l280 -521q11 -20 0.5 -39.5t-35.5 -19.5h-153q-30 0 -43 27l-268 534h-310v-522q0 -15 -12 -27t-27 -12h-133q-17 0 -28 11.5t-11 27.5zM401 737h365 q101 0 175.5 74.5t74.5 179.5q0 99 -75 171.5t-175 72.5h-365v-498zM596 1573l-256 201q-10 7 -14 17t2 21l41 56q9 13 18.5 14.5t28.5 -8.5l205 -133l204 133q20 11 28.5 9t18.5 -15l41 -56q6 -11 2 -21t-14 -17l-256 -201q-10 -7 -25 -7t-24 7z" />
<glyph unicode="&#x159;" horiz-adv-x="790" d="M143 45v856q0 18 13.5 31.5t31.5 13.5h50q14 0 26 -10t15 -23l26 -86q9 14 29 33.5t55 45.5t89 43.5t114 17.5q80 0 136.5 -22.5t35.5 -65.5l-49 -103q-9 -19 -26 -24.5t-32 2.5q-32 18 -86 18q-48 0 -91.5 -17t-70.5 -41t-41.5 -41.5t-19.5 -27.5v-600 q0 -28 -15.5 -36.5t-49.5 -8.5h-95q-19 0 -32 13t-13 32zM367 1096l-256 200q-10 7 -14.5 17.5t1.5 21.5l41 56q9 13 18.5 14.5t28.5 -8.5l205 -133l205 133q20 11 28.5 9t18.5 -15l41 -56q6 -11 2 -21.5t-14 -17.5l-256 -200q-11 -8 -25.5 -8t-23.5 8z" />
<glyph unicode="&#x15a;" horiz-adv-x="1103" d="M121 141q-12 11 -17 17t-5.5 19.5t10.5 29.5l53 84q12 20 32 24.5t37 -8.5q46 -38 71.5 -57t67 -42t87 -32.5t102.5 -9.5q103 0 167.5 55t64.5 135q0 88 -74.5 153.5t-235.5 131.5q-87 37 -148 73t-115 87t-81.5 119.5t-27.5 154.5q0 50 15 101t49.5 101.5t84.5 89.5 t127.5 63t171.5 24q71 0 140 -15.5t121.5 -40.5t76 -38.5t41.5 -26.5q14 -9 19.5 -26.5t-7.5 -42.5l-51 -78q-13 -21 -31.5 -27.5t-40.5 6.5q-44 28 -63 39t-58 30t-76 26.5t-79 7.5q-61 0 -108 -18t-73 -46.5t-38.5 -59t-12.5 -61.5q0 -84 63.5 -143.5t197.5 -114.5 q80 -32 138 -60.5t118.5 -70t98 -86t61.5 -106.5t24 -135q0 -162 -130 -274.5t-327 -112.5q-87 0 -167.5 19.5t-136.5 50.5t-86.5 52t-49.5 39zM424 1585q-37 -17 -49 10l-29 58q-5 13 -1 23.5t13 15.5l322 186q8 7 27 6.5t26 -12.5l47 -90q8 -15 4.5 -29t-16.5 -20z" />
<glyph unicode="&#x15b;" horiz-adv-x="827" d="M416 -23q-173 0 -312 97q-30 21 -16 49l43 88q8 15 25.5 18.5t36.5 -6.5q38 -22 62 -33t72.5 -23.5t100.5 -12.5q59 0 92 25.5t33 66.5q0 44 -47.5 79.5t-155.5 84.5q-125 57 -190.5 124t-65.5 175q0 47 17.5 91t53 82.5t98.5 61.5t145 23q89 0 161.5 -21t114.5 -49 q18 -12 24 -31.5t-3 -38.5l-33 -65q-19 -38 -62 -19q-109 48 -202 48q-58 0 -89.5 -24.5t-31.5 -59.5q0 -42 40.5 -73.5t121.5 -66.5q63 -27 100 -44.5t81.5 -46.5t67.5 -57.5t39.5 -71t16.5 -93.5q0 -115 -92.5 -196t-245.5 -81zM291 1112q-36 -18 -49 8l-29 60 q-5 12 -1.5 23t13.5 16l322 186q8 7 27 6.5t26 -12.5l47 -90q7 -15 3.5 -29t-15.5 -20z" />
<glyph unicode="&#x15c;" horiz-adv-x="1103" d="M121 141q-12 11 -17 17t-5.5 19.5t10.5 29.5l53 84q12 20 32 24.5t37 -8.5q46 -38 71.5 -57t67 -42t87 -32.5t102.5 -9.5q103 0 167.5 55t64.5 135q0 88 -74.5 153.5t-235.5 131.5q-87 37 -148 73t-115 87t-81.5 119.5t-27.5 154.5q0 50 15 101t49.5 101.5t84.5 89.5 t127.5 63t171.5 24q71 0 140 -15.5t121.5 -40.5t76 -38.5t41.5 -26.5q14 -9 19.5 -26.5t-7.5 -42.5l-51 -78q-13 -21 -31.5 -27.5t-40.5 6.5q-44 28 -63 39t-58 30t-76 26.5t-79 7.5q-61 0 -108 -18t-73 -46.5t-38.5 -59t-12.5 -61.5q0 -84 63.5 -143.5t197.5 -114.5 q80 -32 138 -60.5t118.5 -70t98 -86t61.5 -106.5t24 -135q0 -162 -130 -274.5t-327 -112.5q-87 0 -167.5 19.5t-136.5 50.5t-86.5 52t-49.5 39zM344 1575q-19 -10 -28.5 -8.5t-18.5 14.5l-41 55q-6 11 -2 21.5t14 17.5l256 201q9 8 23.5 8t25.5 -8l256 -201 q10 -7 14.5 -17.5t-1.5 -21.5l-41 -55q-10 -13 -18.5 -15t-28.5 9l-205 133z" />
<glyph unicode="&#x15d;" horiz-adv-x="827" d="M416 -23q-173 0 -312 97q-30 21 -16 49l43 88q8 15 25.5 18.5t36.5 -6.5q38 -22 62 -33t72.5 -23.5t100.5 -12.5q59 0 92 25.5t33 66.5q0 44 -47.5 79.5t-155.5 84.5q-125 57 -190.5 124t-65.5 175q0 47 17.5 91t53 82.5t98.5 61.5t145 23q89 0 161.5 -21t114.5 -49 q18 -12 24 -31.5t-3 -38.5l-33 -65q-19 -38 -62 -19q-109 48 -202 48q-58 0 -89.5 -24.5t-31.5 -59.5q0 -42 40.5 -73.5t121.5 -66.5q63 -27 100 -44.5t81.5 -46.5t67.5 -57.5t39.5 -71t16.5 -93.5q0 -115 -92.5 -196t-245.5 -81zM164 1110l-41 55q-6 11 -2 21.5t14 17.5 l256 201q9 7 23.5 7t25.5 -7l256 -201q10 -7 14.5 -17.5t-1.5 -21.5l-41 -55q-10 -13 -18.5 -15t-28.5 9l-205 133l-205 -133q-19 -10 -28.5 -8.5t-18.5 14.5z" />
<glyph unicode="&#x15e;" horiz-adv-x="1103" d="M547 -131q12 4 39 4q76 0 130 -42t54 -126q0 -99 -70.5 -152t-173.5 -53q-109 0 -170 54q-16 16 0 53l19 37q17 39 49 14q40 -35 94 -35q103 0 103 76q0 68 -101 68q-13 0 -27.5 -2.5t-23.5 -5.5t-22 -7.5t-17 -5.5q-13 -6 -26 7.5t-7 27.5l103 203q-75 6 -144 26.5 t-117 48t-75 47t-43 35.5q-17 15 -20.5 26t8.5 40q9 14 26.5 42.5t26.5 41.5q14 20 33 24.5t36 -8.5q15 -12 36.5 -27.5t70 -45.5t108 -49t113.5 -19q103 0 167.5 55t64.5 135q0 88 -74.5 153.5t-235.5 131.5q-87 37 -148 73t-115 87t-81.5 119.5t-27.5 154.5q0 50 15 101 t49.5 101.5t84.5 89.5t127.5 63t171.5 24q71 0 140 -15.5t121.5 -40.5t76 -38.5t41.5 -26.5q14 -9 19.5 -26.5t-7.5 -42.5l-51 -78q-13 -21 -31.5 -27.5t-40.5 6.5q-1 0 -11 6.5t-21.5 13t-30 16.5t-36.5 18.5t-41 18t-44.5 16t-46 10.5t-45.5 4q-61 0 -108 -18t-73 -46.5 t-38.5 -59t-12.5 -61.5q0 -84 63.5 -143.5t197.5 -114.5q80 -32 138 -60.5t118.5 -70t98 -86t61.5 -106.5t24 -135q0 -149 -111 -257.5t-286 -125.5z" />
<glyph unicode="&#x15f;" horiz-adv-x="827" d="M354 -20l11 2q-147 12 -261 92q-30 21 -16 49l43 88q8 15 25.5 18.5t36.5 -6.5q38 -22 62 -33t72.5 -23.5t100.5 -12.5q59 0 92 25.5t33 66.5q0 44 -47.5 79.5t-155.5 84.5q-125 57 -190.5 124t-65.5 175q0 47 17.5 91t53 82.5t98.5 61.5t145 23q89 0 161.5 -21 t114.5 -49q18 -12 24 -31.5t-3 -38.5l-33 -65q-19 -38 -62 -19q-109 48 -202 48q-58 0 -89.5 -24.5t-31.5 -59.5q0 -42 40.5 -73.5t121.5 -66.5q63 -27 100 -44.5t81.5 -46.5t67.5 -57.5t39.5 -71t16.5 -93.5q0 -103 -76 -180t-203 -92l-72 -113q12 4 39 4q76 0 130.5 -42 t54.5 -126q0 -99 -70.5 -152t-173.5 -53q-109 0 -170 54q-16 16 0 53l18 37q18 40 50 14q40 -35 94 -35q102 0 102 76q0 38 -26 53t-74 15q-13 0 -27.5 -2.5t-23.5 -5.5t-22 -7.5t-17 -5.5q-13 -6 -26 7.5t-7 27.5z" />
<glyph unicode="&#x160;" horiz-adv-x="1103" d="M121 141q-12 11 -17 17t-5.5 19.5t10.5 29.5l53 84q12 20 32 24.5t37 -8.5q46 -38 71.5 -57t67 -42t87 -32.5t102.5 -9.5q103 0 167.5 55t64.5 135q0 88 -74.5 153.5t-235.5 131.5q-87 37 -148 73t-115 87t-81.5 119.5t-27.5 154.5q0 50 15 101t49.5 101.5t84.5 89.5 t127.5 63t171.5 24q71 0 140 -15.5t121.5 -40.5t76 -38.5t41.5 -26.5q14 -9 19.5 -26.5t-7.5 -42.5l-51 -78q-13 -21 -31.5 -27.5t-40.5 6.5q-44 28 -63 39t-58 30t-76 26.5t-79 7.5q-61 0 -108 -18t-73 -46.5t-38.5 -59t-12.5 -61.5q0 -84 63.5 -143.5t197.5 -114.5 q80 -32 138 -60.5t118.5 -70t98 -86t61.5 -106.5t24 -135q0 -162 -130 -274.5t-327 -112.5q-87 0 -167.5 19.5t-136.5 50.5t-86.5 52t-49.5 39zM522 1573l-256 201q-10 7 -14 17t2 21l41 56q9 13 18.5 14.5t28.5 -8.5l205 -133l205 133q20 11 28.5 9t18.5 -15l41 -56 q14 -20 -13 -38l-256 -201q-11 -7 -25.5 -7t-23.5 7z" />
<glyph unicode="&#x161;" horiz-adv-x="827" d="M416 -23q-173 0 -312 97q-30 21 -16 49l43 88q8 15 25.5 18.5t36.5 -6.5q38 -22 62 -33t72.5 -23.5t100.5 -12.5q59 0 92 25.5t33 66.5q0 44 -47.5 79.5t-155.5 84.5q-125 57 -190.5 124t-65.5 175q0 47 17.5 91t53 82.5t98.5 61.5t145 23q89 0 161.5 -21t114.5 -49 q18 -12 24 -31.5t-3 -38.5l-33 -65q-19 -38 -62 -19q-109 48 -202 48q-58 0 -89.5 -24.5t-31.5 -59.5q0 -42 40.5 -73.5t121.5 -66.5q63 -27 100 -44.5t81.5 -46.5t67.5 -57.5t39.5 -71t16.5 -93.5q0 -115 -92.5 -196t-245.5 -81zM387 1096l-256 200q-10 7 -14 17.5t2 21.5 l41 56q9 13 18.5 14.5t28.5 -8.5l205 -133l204 133q29 19 48 -6l41 -56q6 -11 1.5 -21.5t-14.5 -17.5l-256 -200q-10 -8 -25 -8t-24 8z" />
<glyph unicode="&#x162;" horiz-adv-x="1064" d="M426 39v1202h-334q-17 0 -28 11.5t-11 27.5v115q0 16 11 27.5t28 11.5h881q17 0 28 -11.5t11 -27.5v-115q0 -16 -11 -27.5t-28 -11.5h-334v-1202q0 -15 -12 -27t-27 -12h-8l-86 -131q12 4 39 4q74 0 124 -41.5t50 -126.5q0 -99 -66.5 -152t-167.5 -53q-109 0 -170 54 q-16 16 0 53l19 37q17 39 49 14q40 -35 94 -35q47 0 75 22.5t28 63.5q0 39 -28 58.5t-73 19.5q-17 0 -31 -3.5t-29.5 -9.5t-19.5 -7q-13 -6 -25.5 7t-6.5 27l100 199h-2q-15 0 -27 12t-12 27z" />
<glyph unicode="&#x163;" horiz-adv-x="780" d="M209 260v512h-109q-20 0 -32.5 13.5t-12.5 31.5v84q0 20 12.5 32.5t32.5 12.5h109v262q0 19 13 32t32 13h117q19 0 31 -13t12 -32v-262h250q19 0 32 -12.5t13 -32.5v-84q0 -18 -13.5 -31.5t-31.5 -13.5h-250v-504q0 -56 19 -76t56 -20q73 0 152 45q39 21 55 -20l37 -97 q13 -33 -22 -55q-78 -47 -199 -61l-74 -115q12 4 39 4q74 0 124 -41.5t50 -126.5q0 -100 -66 -152.5t-167 -52.5q-109 0 -170 54q-16 16 0 53l18 37q17 39 49 14q40 -35 95 -35q47 0 74.5 22.5t27.5 63.5q0 39 -27.5 58.5t-72.5 19.5q-17 0 -31 -3.5t-29.5 -9.5t-19.5 -7 q-13 -6 -26 7t-7 27l92 181q-100 14 -141 85t-41 193z" />
<glyph unicode="&#x164;" horiz-adv-x="1064" d="M426 39v1202h-334q-17 0 -28 11.5t-11 27.5v115q0 16 11 27.5t28 11.5h881q17 0 28 -11.5t11 -27.5v-115q0 -16 -11 -27.5t-28 -11.5h-334v-1202q0 -15 -12 -27t-27 -12h-135q-15 0 -27 12t-12 27zM506 1573l-256 201q-10 7 -14 17t2 21l41 56q9 13 18.5 14.5t28.5 -8.5 l204 -133l205 133q20 11 28.5 9t18.5 -15l41 -56q6 -11 2 -21t-14 -17l-256 -201q-10 -7 -25 -7t-24 7z" />
<glyph unicode="&#x165;" horiz-adv-x="778" d="M207 260v512h-109q-20 0 -32.5 13.5t-12.5 31.5v84q0 20 12.5 32.5t32.5 12.5h109v264q0 19 13 32t32 13h117q19 0 31 -13t12 -32v-264h250q19 0 32 -12.5t13 -32.5v-84q0 -18 -13.5 -31.5t-31.5 -13.5h-250v-504q0 -56 19 -76t56 -20q73 0 152 45q39 21 55 -20l37 -97 q13 -33 -22 -55q-37 -23 -112 -45.5t-151 -22.5q-133 0 -186 73t-53 210zM643 1325q0 60 42 94.5t110 34.5q79 0 128.5 -50.5t49.5 -148.5q0 -153 -109 -270q-17 -17 -41 -2l-49 37q-12 9 -12 20.5t10 20.5q27 24 44.5 62t17.5 75q0 21 -7 35q-5 -5 -23.5 -12t-41.5 -7 q-53 0 -86 32t-33 79z" />
<glyph unicode="&#x166;" horiz-adv-x="1069" d="M428 39v561h-215q-15 0 -26 12t-11 27v20q0 15 11 27t26 12h215v543h-334q-17 0 -28 11.5t-11 27.5v115q0 16 11 27.5t28 11.5h881q17 0 28 -11.5t11 -27.5v-115q0 -16 -11 -27.5t-28 -11.5h-334v-543h213q17 0 28 -11.5t11 -27.5v-22q0 -15 -11 -26t-28 -11h-213v-561 q0 -15 -12 -27t-27 -12h-135q-15 0 -27 12t-12 27z" />
<glyph unicode="&#x167;" horiz-adv-x="782" d="M209 260v143h-94q-18 0 -30.5 14t-12.5 32v24q0 19 12 32t31 13h94v254h-109q-20 0 -32.5 14t-12.5 33v10v7v65v6q3 21 19 31l4 4q2 0 5.5 1t4.5 1q4 2 12 2h109v262q0 19 13 32t32 13h117q19 0 31 -13t12 -32v-262h250q8 0 16 -4q2 0 10 -4l6 -6q4 -4 4 -6q5 -5 5 -8 q2 -2 2 -7q2 -4 2 -10v-82q0 -19 -13 -33t-32 -14h-250v-254h215q20 0 32.5 -13t12.5 -32v-27q0 -18 -12.5 -30.5t-32.5 -12.5h-215v-133q0 -56 20 -76t58 -20q58 0 145 45q40 18 55 -20l41 -95q15 -37 -22 -55q-37 -21 -113 -46.5t-149 -25.5q-133 0 -186.5 73t-53.5 210z " />
<glyph unicode="&#x168;" horiz-adv-x="1458" d="M172 518v877q0 15 12 27t27 12h137q17 0 28 -11.5t11 -27.5v-863q0 -155 92.5 -251.5t247.5 -96.5q157 0 250.5 95t93.5 249v867q0 16 11 27.5t28 11.5h137q15 0 27 -12t12 -27v-877q0 -233 -158 -385.5t-401 -152.5q-241 0 -398 152.5t-157 385.5zM504 1622l-47 31 q-26 16 -13 47q13 27 23.5 44.5t37 53t62.5 55t78 19.5q40 0 75.5 -20.5t56 -45t45.5 -45t46 -20.5q16 0 30.5 9.5t21 18.5t18 29t14.5 25q21 35 52 18q5 -4 17 -11t21.5 -14t14.5 -14q11 -17 -6 -55q-10 -22 -23.5 -44t-37 -49t-58 -44t-74.5 -17q-35 0 -69.5 21t-57 45.5 t-48 45.5t-44.5 21q-51 0 -88 -84q-8 -19 -17 -24t-30 4z" />
<glyph unicode="&#x169;" horiz-adv-x="1091" d="M303 1163l-47 31q-26 15 -12 47l16.5 33t26.5 42t40 48.5t51 33t66 15.5q40 0 75.5 -20.5t56.5 -45t46 -45t46 -20.5q16 0 30.5 9.5t21 18.5t18 29t14.5 25q21 35 51 18q5 -4 17 -11t21.5 -14t14.5 -14q11 -17 -6 -55q-10 -22 -23.5 -43.5t-37 -49t-58 -44t-74.5 -16.5 q-35 0 -69.5 21t-57 45.5t-48 45.5t-44.5 21q-51 0 -88 -84q-8 -19 -17 -24t-30 3zM133 412v489q0 17 14 31t31 14h115q18 0 31.5 -13.5t13.5 -31.5v-504q0 -225 184 -225q48 0 90.5 18t69 44t42.5 51t19 43v573q0 27 12.5 36t41.5 9h104q19 0 33 -14t14 -31v-856 q0 -19 -14 -32t-33 -13h-49q-29 0 -43 39l-25 67q-1 -1 -9 -9.5t-14.5 -15t-19.5 -18t-26.5 -20t-31.5 -19t-39 -18.5t-45.5 -15t-53.5 -10.5t-60 -3.5q-83 0 -145 22t-101 59.5t-63 94t-33.5 118.5t-9.5 141z" />
<glyph unicode="&#x16a;" horiz-adv-x="1458" d="M172 518v877q0 15 12 27t27 12h137q17 0 28 -11.5t11 -27.5v-863q0 -155 92.5 -251.5t247.5 -96.5q157 0 250.5 95t93.5 249v867q0 16 11 27.5t28 11.5h137q15 0 27 -12t12 -27v-877q0 -233 -158 -385.5t-401 -152.5q-241 0 -398 152.5t-157 385.5zM475 1667 q-17 0 -28 11t-11 26v57q0 17 11 28t28 11h524q17 0 28 -11t11 -28v-57q0 -15 -11 -26t-28 -11h-524z" />
<glyph unicode="&#x16b;" horiz-adv-x="1091" d="M289 1180q-17 0 -28 11t-11 26v57q0 17 11 28t28 11h524q17 0 28 -11t11 -28v-57q0 -15 -11 -26t-28 -11h-524zM133 412v489q0 17 14 31t31 14h115q18 0 31.5 -13.5t13.5 -31.5v-504q0 -225 184 -225q48 0 90.5 18t69 44t42.5 51t19 43v573q0 27 12.5 36t41.5 9h104 q19 0 33 -14t14 -31v-856q0 -19 -14 -32t-33 -13h-49q-29 0 -43 39l-25 67q-1 -1 -9 -9.5t-14.5 -15t-19.5 -18t-26.5 -20t-31.5 -19t-39 -18.5t-45.5 -15t-53.5 -10.5t-60 -3.5q-83 0 -145 22t-101 59.5t-63 94t-33.5 118.5t-9.5 141z" />
<glyph unicode="&#x16c;" horiz-adv-x="1458" d="M172 518v877q0 15 12 27t27 12h137q17 0 28 -11.5t11 -27.5v-863q0 -155 92.5 -251.5t247.5 -96.5q157 0 250.5 95t93.5 249v867q0 16 11 27.5t28 11.5h137q15 0 27 -12t12 -27v-877q0 -233 -158 -385.5t-401 -152.5q-241 0 -398 152.5t-157 385.5zM743 1573 q-109 0 -188 67.5t-94 169.5q-3 18 6 30.5t27 12.5h59q29 0 37 -32q18 -54 58 -86.5t95 -32.5q49 0 90.5 35t57.5 84q10 32 37 32h63q18 0 27 -12.5t6 -30.5q-17 -102 -96 -169.5t-185 -67.5z" />
<glyph unicode="&#x16d;" horiz-adv-x="1091" d="M543 1083q-109 0 -188.5 68t-94.5 170q-3 19 6 31t27 12h59q29 0 37 -31q18 -55 58 -88t96 -33q50 0 91 35t56 86q10 31 37 31h64q18 0 26.5 -12t5.5 -31q-17 -103 -95.5 -170.5t-184.5 -67.5zM133 412v489q0 17 14 31t31 14h115q18 0 31.5 -13.5t13.5 -31.5v-504 q0 -225 184 -225q48 0 90.5 18t69 44t42.5 51t19 43v573q0 27 12.5 36t41.5 9h104q19 0 33 -14t14 -31v-856q0 -19 -14 -32t-33 -13h-49q-29 0 -43 39l-25 67q-1 -1 -9 -9.5t-14.5 -15t-19.5 -18t-26.5 -20t-31.5 -19t-39 -18.5t-45.5 -15t-53.5 -10.5t-60 -3.5 q-83 0 -145 22t-101 59.5t-63 94t-33.5 118.5t-9.5 141z" />
<glyph unicode="&#x16e;" horiz-adv-x="1458" d="M172 518v877q0 15 12 27t27 12h137q17 0 28 -11.5t11 -27.5v-863q0 -155 92.5 -251.5t247.5 -96.5q157 0 250.5 95t93.5 249v867q0 16 11 27.5t28 11.5h137q15 0 27 -12t12 -27v-877q0 -233 -158 -385.5t-401 -152.5q-241 0 -398 152.5t-157 385.5zM735 1548 q-95 0 -161 66.5t-66 161.5t66 161t161 66q94 0 161 -66t67 -161t-67 -161.5t-161 -66.5zM735 1661q44 0 76.5 35t32.5 80q0 44 -32.5 76t-76.5 32q-47 0 -80.5 -32t-33.5 -76q0 -46 33 -80.5t81 -34.5z" />
<glyph unicode="&#x16f;" horiz-adv-x="1091" d="M549 1040q-95 0 -161 66.5t-66 161.5t66 161t161 66q94 0 160.5 -66t66.5 -161t-66.5 -161.5t-160.5 -66.5zM549 1153q44 0 76 35t32 80q0 44 -32 76t-76 32q-50 0 -82.5 -31.5t-32.5 -76.5q0 -46 33 -80.5t82 -34.5zM133 412v489q0 17 14 31t31 14h115q18 0 31.5 -13.5 t13.5 -31.5v-504q0 -225 184 -225q48 0 90.5 18t69 44t42.5 51t19 43v573q0 27 12.5 36t41.5 9h104q19 0 33 -14t14 -31v-856q0 -19 -14 -32t-33 -13h-49q-29 0 -43 39l-25 67q-1 -1 -9 -9.5t-14.5 -15t-19.5 -18t-26.5 -20t-31.5 -19t-39 -18.5t-45.5 -15t-53.5 -10.5 t-60 -3.5q-83 0 -145 22t-101 59.5t-63 94t-33.5 118.5t-9.5 141z" />
<glyph unicode="&#x170;" horiz-adv-x="1458" d="M172 518v877q0 15 12 27t27 12h137q17 0 28 -11.5t11 -27.5v-863q0 -155 92.5 -251.5t247.5 -96.5q157 0 250.5 95t93.5 249v867q0 16 11 27.5t28 11.5h137q15 0 27 -12t12 -27v-877q0 -233 -158 -385.5t-401 -152.5q-241 0 -398 152.5t-157 385.5zM885 1573 q-24 0 -34 11.5t-5 27.5l88 289q11 38 39 38h117q29 0 39 -15.5t-3 -35.5l-159 -284q-18 -31 -37 -31h-45zM545 1573q-21 0 -32.5 12t-6.5 27l88 289q11 38 39 38h117q28 0 38 -15.5t-2 -35.5l-159 -284q-15 -31 -37 -31h-45z" />
<glyph unicode="&#x171;" horiz-adv-x="1091" d="M647 1067q-24 0 -34 11.5t-5 27.5l90 289q12 39 39 39h117q28 0 38.5 -16.5t-1.5 -35.5l-160 -284q-15 -31 -37 -31h-47zM307 1067q-22 0 -33 11.5t-6 27.5l90 289q12 39 39 39h117q28 0 38 -16t-1 -36l-160 -284q-15 -31 -37 -31h-47zM133 412v489q0 17 14 31t31 14h115 q18 0 31.5 -13.5t13.5 -31.5v-504q0 -225 184 -225q48 0 90.5 18t69 44t42.5 51t19 43v573q0 27 12.5 36t41.5 9h104q19 0 33 -14t14 -31v-856q0 -19 -14 -32t-33 -13h-49q-29 0 -43 39l-25 67q-1 -1 -9 -9.5t-14.5 -15t-19.5 -18t-26.5 -20t-31.5 -19t-39 -18.5t-45.5 -15 t-53.5 -10.5t-60 -3.5q-83 0 -145 22t-101 59.5t-63 94t-33.5 118.5t-9.5 141z" />
<glyph unicode="&#x172;" horiz-adv-x="1458" d="M172 535v860q0 15 12 27t27 12h137q17 0 28 -11.5t11 -27.5v-846q0 -157 93 -261t247 -104q155 0 249.5 102.5t94.5 258.5v850q0 16 11 27.5t28 11.5h137q15 0 27 -12t12 -27v-860q0 -207 -127.5 -359t-329.5 -186q-180 -128 -180 -246q0 -94 88 -94q64 0 127 55 q12 12 24.5 7.5t12.5 -19.5l2 -90q0 -41 -29 -60q-81 -47 -178 -47q-101 0 -156 59t-55 152q0 156 172 277q-213 25 -349 179.5t-136 371.5z" />
<glyph unicode="&#x173;" horiz-adv-x="1091" d="M133 424v477q0 17 14 31t31 14h115q18 0 31.5 -13.5t13.5 -31.5v-491q0 -117 46.5 -177.5t137.5 -60.5q48 0 90.5 18t69 44t42.5 51t19 43v573q0 27 12.5 36t41.5 9h104q19 0 33 -14t14 -31v-856q0 -25 -24 -39q-31 -18 -62.5 -43t-67 -59.5t-57.5 -77t-22 -82.5 q0 -94 88 -94q64 0 127 55q12 12 24.5 7.5t12.5 -19.5l2 -90q0 -41 -29 -60q-81 -47 -178 -47q-101 0 -156 59t-55 152q0 55 26.5 109t70 97t82 72.5t79.5 53.5l-25 67q-1 -1 -9 -9.5t-14.5 -15t-19.5 -18t-26.5 -20t-31.5 -19t-39 -18.5t-45.5 -15t-53.5 -10.5t-60 -3.5 q-83 0 -145 23t-101 62.5t-63.5 97.5t-33.5 121.5t-9 142.5z" />
<glyph unicode="&#x174;" horiz-adv-x="1814" d="M440 8l-387 1376q-6 22 4.5 36t32.5 14h137q12 0 23 -9t14 -20l248 -940h8l334 967q3 9 13 15.5t22 6.5h37q12 0 22 -6.5t13 -15.5l337 -967h9l243 940q3 11 14 20t23 9h137q22 0 32.5 -14t4.5 -36l-387 -1376q-3 -12 -14 -20t-23 -8h-32q-11 0 -21.5 6.5t-13.5 15.5 l-361 1018h-10l-354 -1018q-3 -9 -13.5 -15.5t-21.5 -6.5h-33q-12 0 -23 8t-14 20zM700 1575q-19 -10 -28.5 -8.5t-18.5 14.5l-41 55q-6 11 -1.5 21.5t14.5 17.5l256 201q9 8 23.5 8t25.5 -8l256 -201q10 -7 14 -17.5t-2 -21.5l-41 -55q-10 -13 -18.5 -15t-28.5 9l-205 133z " />
<glyph unicode="&#x175;" horiz-adv-x="1443" d="M342 2l-276 891q-11 22 -1.5 37.5t33.5 15.5h123q13 0 25.5 -7.5t15.5 -20.5l156 -543h4l256 569q12 23 39 23h14q33 0 41 -23l254 -571h4l152 545q4 10 11.5 16.5t20 8.5t19 2.5t20.5 0.5h86q25 0 36 -15.5t1 -37.5l-270 -891q-3 -10 -15.5 -17.5t-27.5 -7.5h-8 q-29 0 -41 23l-289 643h-4l-291 -643q-8 -23 -37 -23h-12q-32 0 -39 25zM477 1110l-41 55q-6 11 -1.5 21.5t14.5 17.5l256 201q9 7 23.5 7t25.5 -7l256 -201q10 -7 14 -17.5t-2 -21.5l-41 -55q-10 -13 -18.5 -15t-28.5 9l-205 133l-205 -133q-19 -10 -28.5 -8.5t-18.5 14.5z " />
<glyph unicode="&#x176;" horiz-adv-x="1193" d="M596 897h4l369 518q14 19 32 19h154q24 0 34.5 -20t-1.5 -40l-486 -682v-653q0 -15 -11.5 -27t-26.5 -12h-136q-17 0 -28 11.5t-11 27.5v651l-479 684q-12 20 -1.5 40t34.5 20h152q18 0 32 -19zM393 1575q-19 -10 -28.5 -8.5t-18.5 14.5l-41 55q-6 11 -2 21.5t14 17.5 l256 201q9 8 24 8t26 -8l256 -201q10 -7 14 -17.5t-2 -21.5l-41 -55q-10 -13 -18.5 -15t-28.5 9l-205 133z" />
<glyph unicode="&#x177;" horiz-adv-x="1017" d="M373 33l-326 852q-9 25 2.5 43t38.5 18h135q11 0 24 -7.5t17 -18.5l219 -650h4l267 650q9 26 49 26h127q29 0 40.5 -18t0.5 -43l-578 -1344q-16 -28 -39 -28h-131q-27 0 -40 19.5t-1 43.5zM272 1110l-41 55q-6 11 -1.5 21.5t14.5 17.5l256 201q9 7 23.5 7t25.5 -7 l256 -201q10 -7 14 -17.5t-2 -21.5l-41 -55q-10 -13 -18.5 -15t-28.5 9l-205 133l-205 -133q-19 -10 -28.5 -8.5t-18.5 14.5z" />
<glyph unicode="&#x178;" horiz-adv-x="1193" d="M596 897h4l369 518q14 19 32 19h154q24 0 34.5 -20t-1.5 -40l-486 -682v-653q0 -15 -11.5 -27t-26.5 -12h-136q-17 0 -28 11.5t-11 27.5v651l-479 684q-12 20 -1.5 40t34.5 20h152q18 0 32 -19zM829 1589q-54 0 -90.5 37.5t-36.5 91.5t36.5 90.5t90.5 36.5t91.5 -36.5 t37.5 -90.5t-37.5 -91.5t-91.5 -37.5zM360 1589q-54 0 -90.5 37.5t-36.5 91.5t36.5 90.5t90.5 36.5t91.5 -36.5t37.5 -90.5t-37.5 -91.5t-91.5 -37.5z" />
<glyph unicode="&#x179;" horiz-adv-x="1091" d="M92 0q-15 0 -27 12t-12 27q0 34 17 65l659 1125v8h-577q-15 0 -27 12t-12 27v119q0 15 12 27t27 12h841q15 0 27 -12t12 -27q0 -27 -14 -54l-664 -1144v-2h598q17 0 28 -11.5t11 -27.5v-117q0 -16 -11 -27.5t-28 -11.5h-860zM432 1585q-37 -17 -49 10l-29 58 q-5 13 -0.5 23.5t13.5 15.5l321 186q8 7 27 6.5t26 -12.5l47 -90q8 -15 4.5 -29t-16.5 -20z" />
<glyph unicode="&#x17a;" horiz-adv-x="847" d="M115 0q-19 0 -32 13t-13 32q0 24 16 53l399 654v4h-350q-17 0 -30 14t-13 31v100q0 20 12.5 32.5t30.5 12.5h610q20 0 34 -12t14 -29q0 -10 -7 -24l-413 -688v-7h325q20 0 32.5 -12.5t12.5 -32.5v-96q0 -19 -12.5 -32t-32.5 -13h-583zM311 1112q-36 -18 -49 8l-29 60 q-5 12 -1 23t14 16l321 186q8 7 27.5 6.5t26.5 -12.5l47 -90q7 -15 3 -29t-16 -20z" />
<glyph unicode="&#x17b;" horiz-adv-x="1091" d="M92 0q-15 0 -27 12t-12 27q0 34 17 65l659 1125v8h-577q-15 0 -27 12t-12 27v119q0 15 12 27t27 12h841q15 0 27 -12t12 -27q0 -27 -14 -54l-664 -1144v-2h598q17 0 28 -11.5t11 -27.5v-117q0 -16 -11 -27.5t-28 -11.5h-860zM565 1608q-57 0 -96 40t-39 97q0 59 39 99 t96 40q59 0 99.5 -40.5t40.5 -98.5q0 -57 -41 -97t-99 -40z" />
<glyph unicode="&#x17c;" horiz-adv-x="847" d="M115 0q-19 0 -32 13t-13 32q0 24 16 53l399 654v4h-350q-17 0 -30 14t-13 31v100q0 20 12.5 32.5t30.5 12.5h610q20 0 34 -12t14 -29q0 -10 -7 -24l-413 -688v-7h325q20 0 32.5 -12.5t12.5 -32.5v-96q0 -19 -12.5 -32t-32.5 -13h-583zM444 1149q-57 0 -96 40t-39 97 q0 59 39 99t96 40q59 0 99.5 -40.5t40.5 -98.5q0 -57 -41 -97t-99 -40z" />
<glyph unicode="&#x17d;" horiz-adv-x="1091" d="M92 0q-15 0 -27 12t-12 27q0 34 17 65l659 1125v8h-577q-15 0 -27 12t-12 27v119q0 15 12 27t27 12h841q15 0 27 -12t12 -27q0 -27 -14 -54l-664 -1144v-2h598q17 0 28 -11.5t11 -27.5v-117q0 -16 -11 -27.5t-28 -11.5h-860zM539 1573l-256 201q-27 18 -13 38l41 56 q9 13 18.5 14.5t28.5 -8.5l205 -133l205 133q20 11 28.5 9t18.5 -15l41 -56q6 -11 2 -21t-14 -17l-256 -201q-10 -7 -25 -7t-24 7z" />
<glyph unicode="&#x17e;" horiz-adv-x="847" d="M115 0q-19 0 -32 13t-13 32q0 24 16 53l399 654v4h-350q-17 0 -30 14t-13 31v100q0 20 12.5 32.5t30.5 12.5h610q20 0 34 -12t14 -29q0 -10 -7 -24l-413 -688v-7h325q20 0 32.5 -12.5t12.5 -32.5v-96q0 -19 -12.5 -32t-32.5 -13h-583zM432 1096l-256 200q-10 7 -14 17.5 t2 21.5l41 56q9 13 18.5 14.5t28.5 -8.5l205 -133l205 133q20 11 28.5 9t18.5 -15l41 -56q6 -11 1.5 -21.5t-14.5 -17.5l-256 -200q-11 -8 -25.5 -8t-23.5 8z" />
<glyph unicode="&#x192;" horiz-adv-x="739" d="M231 -129v784h-139q-17 0 -28 11.5t-11 27.5v90q0 17 11 28t28 11h139v250q0 182 100 281.5t255 99.5q129 0 227 -82q9 -9 11.5 -23.5t-3.5 -25.5l-55 -90q-18 -28 -51 -6q-18 14 -58 30.5t-71 16.5q-68 0 -112 -50.5t-44 -150.5v-250h221q17 0 28 -11t11 -28v-90 q0 -16 -11 -27.5t-28 -11.5h-221v-786q0 -182 -99.5 -280.5t-254.5 -98.5q-136 0 -228 82q-9 9 -11.5 22.5t3.5 24.5l56 90q9 13 23.5 15t27.5 -9q18 -14 58 -30.5t71 -16.5q68 0 111.5 50.5t43.5 152.5z" />
<glyph unicode="&#x1fa;" horiz-adv-x="1368" d="M498 1829l-29 57q-5 13 -1 23.5t13 15.5l322 186q8 7 27 6.5t26 -12.5l47 -90q8 -15 4.5 -29t-16.5 -20l-344 -147q-37 -17 -49 10zM45 0q-23 0 -33.5 16.5t-1.5 36.5l598 1311q-67 25 -108 83t-41 132q0 95 66 161t161 66q94 0 160.5 -66t66.5 -161q0 -74 -43 -132.5 t-110 -82.5l594 -1311q9 -20 -1.5 -36.5t-33.5 -16.5h-129q-33 0 -47 31l-127 280h-670l-125 -280q-13 -31 -47 -31h-129zM686 1464q44 0 76.5 35t32.5 80q0 44 -32.5 76.5t-76.5 32.5q-47 0 -81 -32.5t-34 -76.5q0 -45 33.5 -80t81.5 -35zM426 487h512l-252 562h-10z" />
<glyph unicode="&#x1fb;" horiz-adv-x="976" d="M496 1030q-98 0 -163 57t-65 150t65 150t163 57q96 0 161.5 -57t65.5 -150t-65.5 -150t-161.5 -57zM496 1143q46 0 77 25.5t31 68.5q0 42 -30.5 65t-77.5 23q-53 0 -84 -22.5t-31 -65.5q0 -44 31.5 -69t83.5 -25zM305 1479l-26 59q-6 12 -2.5 23t12.5 16l321 145 q8 7 30.5 6.5t27.5 -12.5l43 -90q8 -15 4 -30t-17 -19l-344 -109q-24 -7 -33.5 -4.5t-15.5 15.5zM72 293q0 135 100.5 220t278.5 85q44 0 91.5 -7t73.5 -15l25 -7q3 115 -31 166t-121 51q-107 0 -264 -45q-42 -9 -53 39l-18 78q-8 42 30 55q21 8 53.5 17.5t113.5 23 t159 13.5q64 0 114 -11.5t84.5 -30t59.5 -49.5t39 -63t22 -78.5t10.5 -87.5t2.5 -98v-504q0 -18 -13.5 -31.5t-31.5 -13.5h-68q-26 0 -39 33l-22 63q-124 -119 -291 -119q-136 0 -220.5 85t-84.5 231zM272 295q0 -66 38.5 -108t109.5 -42q65 0 129.5 37.5t89.5 77.5v158 q-13 9 -64.5 21t-107.5 12q-85 0 -140 -42t-55 -114z" />
<glyph unicode="&#x1fc;" horiz-adv-x="1828" d="M12 0q-23 0 -29.5 16.5t5.5 36.5l821 1317q2 3 7.5 11.5t7 11t6.5 9t7 8.5l7 7t8.5 6.5t9 4.5t10.5 3.5t12 1.5t15 1h795q17 0 28 -11.5t11 -27.5v-115q0 -16 -11 -27.5t-28 -11.5h-656v-418h555q15 0 27 -12t12 -27v-114q0 -17 -11.5 -28t-27.5 -11h-555v-441h656 q17 0 28 -11.5t11 -26.5v-113q0 -16 -11 -27.5t-28 -11.5h-822q-17 0 -27.5 11.5t-10.5 27.5v272h-455l-178 -284q-19 -27 -45 -27h-144zM485 487h349v562zM1120 1587q-37 -17 -49 10l-29 58q-5 13 -0.5 23.5t13.5 15.5l321 186q8 7 27.5 6.5t26.5 -12.5l47 -90q8 -15 4 -29 t-17 -20z" />
<glyph unicode="&#x1fd;" horiz-adv-x="1595" d="M72 295q0 130 99 216.5t259 86.5q49 0 99 -3t75 -6l25 -3q-2 113 -29.5 156.5t-107.5 43.5q-41 0 -86 -6t-71 -11.5t-65 -16t-45 -11.5q-17 -4 -31.5 5t-19.5 26l-20 88q-9 43 36 55q16 6 44 14.5t112.5 23t165.5 14.5q114 0 179.5 -28.5t99.5 -84.5q126 113 286 113 q120 0 221.5 -54t163.5 -155.5t62 -227.5q0 -104 -54 -104h-647q5 -101 86 -179.5t199 -78.5q102 0 225 78q22 14 33.5 14.5t24.5 -14.5q27 -36 59 -88q9 -14 11.5 -21.5t-0.5 -19t-17 -23.5q-58 -51 -148 -84t-202 -33q-238 0 -365 160q-46 -61 -137 -110.5t-203 -49.5 q-151 0 -234 85t-83 233zM829 578h488q-3 89 -67.5 149.5t-166.5 60.5q-109 0 -176 -58.5t-78 -151.5zM272 295q0 -65 38 -103t110 -38q66 0 130.5 34t88.5 72v158q-13 9 -64.5 21t-107.5 12q-85 0 -140 -42t-55 -114zM772 1112q-36 -18 -49 8l-29 60q-5 12 -1 23t14 16 l321 186q8 7 27 6.5t26 -12.5l47 -90q7 -15 3.5 -29t-15.5 -20z" />
<glyph unicode="&#x1fe;" horiz-adv-x="1669" d="M152 45q-11 11 -11.5 26.5t9.5 26.5l129 129q-86 98 -133.5 223.5t-47.5 264.5q0 151 58 288t156 236t234.5 157t287.5 58q137 0 262.5 -48.5t224.5 -135.5l135 133q10 11 26 11t27 -11l15 -14q10 -11 10 -27t-10 -27l-133 -135q85 -99 132.5 -223.5t47.5 -261.5 q0 -151 -58 -287.5t-156.5 -234.5t-235 -155.5t-287.5 -57.5q-283 0 -486 178l-129 -129q-11 -10 -26.5 -9.5t-26.5 11.5zM428 375l748 749q-151 125 -342 125q-143 0 -265.5 -72.5t-194 -195.5t-71.5 -266q0 -193 125 -340zM496 305q146 -121 338 -121q144 0 266.5 71.5 t194 194t71.5 265.5q0 196 -123 338zM692 1585q-37 -17 -49 10l-29 58q-5 13 -0.5 23.5t13.5 15.5l321 186q8 7 27 6.5t26 -12.5l48 -90q8 -15 4 -29t-17 -20z" />
<glyph unicode="&#x1ff;" horiz-adv-x="1132" d="M84 475q0 131 64.5 244.5t176.5 180.5t242 67q171 0 301 -111l56 55q14 13 31.5 13t29.5 -13l19 -16q15 -14 15 -32.5t-15 -31.5l-58 -57q103 -137 103 -299q0 -133 -65 -248t-176 -182.5t-241 -67.5q-170 0 -301 109l-43 -43q-11 -12 -30 -11t-33 13l-15 16 q-13 12 -13.5 31t11.5 31l45 45q-104 132 -104 307zM285 475q0 -96 43 -166l403 408q-71 55 -164 55q-120 0 -201 -85t-81 -212zM848 475q0 84 -41 158l-404 -408q68 -53 164 -53q119 0 200 86.5t81 216.5zM408 1112q-37 -18 -50 8l-28 60q-5 12 -1.5 23t13.5 16l322 186 q8 7 27 6.5t26 -12.5l47 -90q7 -15 3.5 -29t-15.5 -20z" />
<glyph unicode="&#x218;" horiz-adv-x="1103" d="M121 141q-12 11 -17 17t-5.5 19.5t10.5 29.5l53 84q12 20 32 24.5t37 -8.5q46 -38 71.5 -57t67 -42t87 -32.5t102.5 -9.5q103 0 167.5 55t64.5 135q0 88 -74.5 153.5t-235.5 131.5q-87 37 -148 73t-115 87t-81.5 119.5t-27.5 154.5q0 50 15 101t49.5 101.5t84.5 89.5 t127.5 63t171.5 24q71 0 140 -15.5t121.5 -40.5t76 -38.5t41.5 -26.5q14 -9 19.5 -26.5t-7.5 -42.5l-51 -78q-13 -21 -31.5 -27.5t-40.5 6.5q-44 28 -63 39t-58 30t-76 26.5t-79 7.5q-61 0 -108 -18t-73 -46.5t-38.5 -59t-12.5 -61.5q0 -84 63.5 -143.5t197.5 -114.5 q80 -32 138 -60.5t118.5 -70t98 -86t61.5 -106.5t24 -135q0 -162 -130 -274.5t-327 -112.5q-87 0 -167.5 19.5t-136.5 50.5t-86.5 52t-49.5 39zM426 -258q0 60 42 94.5t110 34.5q79 0 128.5 -50.5t49.5 -148.5q0 -153 -109 -270q-17 -17 -41 -2l-49 37q-11 9 -11 20t9 21 q27 24 44 61.5t17 75.5q0 23 -6 35q-5 -5 -23.5 -12t-41.5 -7q-53 0 -86 32t-33 79z" />
<glyph unicode="&#x219;" horiz-adv-x="827" d="M416 -23q-173 0 -312 97q-30 21 -16 49l43 88q8 15 25.5 18.5t36.5 -6.5q38 -22 62 -33t72.5 -23.5t100.5 -12.5q59 0 92 25.5t33 66.5q0 44 -47.5 79.5t-155.5 84.5q-125 57 -190.5 124t-65.5 175q0 47 17.5 91t53 82.5t98.5 61.5t145 23q89 0 161.5 -21t114.5 -49 q18 -12 24 -31.5t-3 -38.5l-33 -65q-19 -38 -62 -19q-109 48 -202 48q-58 0 -89.5 -24.5t-31.5 -59.5q0 -42 40.5 -73.5t121.5 -66.5q63 -27 100 -44.5t81.5 -46.5t67.5 -57.5t39.5 -71t16.5 -93.5q0 -115 -92.5 -196t-245.5 -81zM258 -258q0 60 42 94.5t110 34.5 q79 0 128.5 -50.5t49.5 -148.5q0 -153 -109 -270q-17 -17 -41 -2l-49 37q-11 9 -11 20t9 21q27 24 44.5 62t17.5 75q0 21 -7 35q-5 -5 -23.5 -12t-41.5 -7q-53 0 -86 32t-33 79z" />
<glyph unicode="&#x21a;" horiz-adv-x="1064" d="M426 39v1202h-334q-17 0 -28 11.5t-11 27.5v115q0 16 11 27.5t28 11.5h881q17 0 28 -11.5t11 -27.5v-115q0 -16 -11 -27.5t-28 -11.5h-334v-1202q0 -15 -12 -27t-27 -12h-135q-15 0 -27 12t-12 27zM379 -258q0 60 42 94.5t109 34.5q79 0 129 -50.5t50 -148.5 q0 -153 -109 -270q-17 -17 -41 -2l-49 37q-12 9 -12 20t10 21q27 24 44 61.5t17 75.5q0 23 -6 35q-5 -5 -23.5 -12t-41.5 -7q-53 0 -86 32t-33 79z" />
<glyph unicode="&#x21b;" horiz-adv-x="778" d="M207 260v512h-109q-20 0 -32.5 13.5t-12.5 31.5v84q0 20 12.5 32.5t32.5 12.5h109v264q0 19 13 32t32 13h117q19 0 31 -13t12 -32v-264h250q19 0 32 -12.5t13 -32.5v-84q0 -18 -13.5 -31.5t-31.5 -13.5h-250v-504q0 -56 19 -76t56 -20q73 0 152 45q39 21 55 -20l37 -97 q13 -33 -22 -55q-37 -23 -112 -45.5t-151 -22.5q-133 0 -186 73t-53 210zM258 -258q0 60 42 94.5t110 34.5q79 0 128.5 -50.5t49.5 -148.5q0 -153 -109 -270q-17 -17 -41 -2l-49 37q-11 9 -11 20t9 21q27 24 44.5 62t17.5 75q0 21 -7 35q-5 -5 -23.5 -12t-41.5 -7 q-53 0 -86 32t-33 79z" />
<glyph unicode="&#x237;" horiz-adv-x="491" d="M348 901v-987q0 -165 -66.5 -271.5t-170.5 -146.5q-50 -17 -72 25l-43 80q-12 22 -5 43t29 32q123 63 123 213v1012q0 20 13 32.5t32 12.5h115q18 0 31.5 -12.5t13.5 -32.5z" />
<glyph unicode="&#x2c6;" horiz-adv-x="763" d="M125 1110l-41 55q-6 11 -2 21.5t14 17.5l256 201q9 7 24 7t25 -7l256 -201q10 -7 14.5 -17.5t-1.5 -21.5l-41 -55q-10 -13 -18.5 -15t-28.5 9l-205 133l-205 -133q-19 -10 -28.5 -8.5t-18.5 14.5z" />
<glyph unicode="&#x2c7;" horiz-adv-x="763" d="M352 1096l-256 200q-10 7 -14 17.5t2 21.5l41 56q9 13 18.5 14.5t28.5 -8.5l205 -133l205 133q20 11 28.5 9t18.5 -15l41 -56q6 -11 1.5 -21.5t-14.5 -17.5l-256 -200q-11 -8 -25.5 -8t-23.5 8z" />
<glyph unicode="&#x2c9;" horiz-adv-x="847" d="M162 1180q-17 0 -28 11t-11 26v57q0 17 11 28t28 11h524q17 0 28 -11t11 -28v-57q0 -15 -11 -26t-28 -11h-524z" />
<glyph unicode="&#x2d8;" horiz-adv-x="708" d="M354 1083q-109 0 -188 68t-94 170q-3 19 5.5 31t26.5 12h60q29 0 37 -31q18 -56 57.5 -88.5t95.5 -32.5q50 0 91.5 35t56.5 86q10 31 37 31h63q18 0 27 -12t6 -31q-17 -102 -96 -170t-185 -68z" />
<glyph unicode="&#x2d9;" horiz-adv-x="448" d="M221 1120q-57 0 -96 40t-39 97q0 59 39 99.5t96 40.5q58 0 98.5 -40.5t40.5 -99.5q0 -57 -40.5 -97t-98.5 -40z" />
<glyph unicode="&#x2da;" horiz-adv-x="593" d="M297 999q-95 0 -161 66.5t-66 161.5t66 161t161 66q94 0 160.5 -66t66.5 -161t-66.5 -161.5t-160.5 -66.5zM297 1112q44 0 76.5 35t32.5 80q0 44 -32.5 76t-76.5 32q-50 0 -82.5 -31.5t-32.5 -76.5q0 -46 33 -80.5t82 -34.5z" />
<glyph unicode="&#x2db;" horiz-adv-x="565" d="M422 6q-32 -20 -62.5 -44t-66.5 -59t-58 -77t-22 -82q0 -94 88 -94q64 0 127 55q12 12 24.5 7.5t12.5 -19.5l2 -90q0 -41 -29 -60q-81 -47 -178 -47q-101 0 -156 59t-55 152q0 55 20.5 104t58.5 89t66 62.5t68 49.5z" />
<glyph unicode="&#x2dc;" horiz-adv-x="778" d="M137 1163l-47 31q-26 15 -12 47q13 27 23.5 44.5t37 53t62.5 55t78 19.5q40 0 75.5 -20.5t56 -45t45.5 -45t46 -20.5q16 0 30.5 9.5t21 18.5t18 29t14.5 25q21 35 51 18q5 -4 17 -11t21.5 -14t14.5 -14q11 -17 -6 -55q-10 -22 -23.5 -43.5t-37 -49t-57.5 -44t-74 -16.5 q-35 0 -69.5 21t-57.5 45.5t-48.5 45.5t-44.5 21q-51 0 -88 -84q-8 -19 -17 -24t-30 3z" />
<glyph unicode="&#x2dd;" horiz-adv-x="802" d="M475 1067q-24 0 -34 11.5t-5 27.5l90 289q12 39 39 39h117q28 0 38.5 -16.5t-1.5 -35.5l-160 -284q-15 -31 -37 -31h-47zM135 1067q-22 0 -33 11.5t-6 27.5l90 289q12 39 39 39h117q28 0 38 -16t-1 -36l-160 -284q-15 -31 -37 -31h-47z" />
<glyph unicode="&#x394;" horiz-adv-x="1484" d="M90 84l617 1352q11 18 30 18h13q21 0 30 -18l615 -1356q15 -28 6.5 -54t-45.5 -26h-1221q-40 0 -52 22t7 62zM365 195l755 2l-377 858h-4z" />
<glyph unicode="&#x3a9;" horiz-adv-x="1703" d="M137 33v131q0 14 9.5 23.5t23.5 9.5h209q-119 74 -191.5 220.5t-72.5 307.5q0 151 58 286.5t156.5 232.5t235 153.5t287.5 56.5t287.5 -56.5t235 -153.5t156.5 -232.5t58 -286.5q0 -161 -73.5 -307t-192.5 -221h209q14 0 23.5 -9.5t9.5 -23.5v-131q0 -12 -10 -22.5 t-23 -10.5h-531q-13 0 -22.5 10.5t-9.5 22.5v84q0 28 9 39.5t32 21.5q167 65 268.5 214.5t101.5 322.5q0 106 -42 205t-113 171t-169 115t-204 43q-107 0 -205.5 -43t-170.5 -115t-114.5 -171t-42.5 -205q0 -173 102.5 -322t270.5 -215q23 -10 32 -21.5t9 -39.5v-84 q0 -12 -10 -22.5t-23 -10.5h-530q-13 0 -23 10.5t-10 22.5z" />
<glyph unicode="&#x3bc;" horiz-adv-x="1114" d="M172 -442v1343q0 17 14 31t31 14h115q18 0 31.5 -13.5t13.5 -31.5v-491q0 -117 46.5 -177.5t137.5 -60.5q48 0 90.5 18t69 44t42.5 51t19 43v573q0 27 12.5 36t41.5 9h104q19 0 33 -14t14 -31v-856q0 -19 -14 -32t-33 -13h-49q-29 0 -43 39l-25 67q-1 -1 -9 -9.5 t-14.5 -15t-19.5 -18t-26.5 -20t-31.5 -19t-39 -18.5t-45.5 -15t-53.5 -10.5t-60 -3.5q-80 0 -147 23v-442q0 -18 -13.5 -31.5t-31.5 -13.5h-115q-19 0 -32 13t-13 32z" />
<glyph unicode="&#x3c0;" horiz-adv-x="1359" d="M289 39v717h-207q-16 0 -27.5 12t-11.5 25v114q0 17 11.5 28t27.5 11h1196q18 0 28.5 -10.5t10.5 -28.5v-114q0 -16 -10.5 -26.5t-28.5 -10.5h-213v-717q0 -17 -12 -28t-29 -11h-125q-17 0 -28 11.5t-11 27.5v717h-366v-717q0 -17 -12 -28t-29 -11h-127q-12 0 -24.5 12 t-12.5 27z" />
<glyph unicode="&#x1e80;" horiz-adv-x="1814" d="M440 8l-387 1376q-6 22 4.5 36t32.5 14h137q12 0 23 -9t14 -20l248 -940h8l334 967q3 9 13 15.5t22 6.5h37q12 0 22 -6.5t13 -15.5l337 -967h9l243 940q3 11 14 20t23 9h137q22 0 32.5 -14t4.5 -36l-387 -1376q-3 -12 -14 -20t-23 -8h-32q-11 0 -21.5 6.5t-13.5 15.5 l-361 1018h-10l-354 -1018q-3 -9 -13.5 -15.5t-21.5 -6.5h-33q-12 0 -23 8t-14 20zM1044 1585l-344 148q-12 6 -15.5 20t3.5 29l47 90q7 12 26 12.5t27 -6.5l322 -186q10 -5 13.5 -16t-1.5 -23l-28 -58q-12 -26 -50 -10z" />
<glyph unicode="&#x1e81;" horiz-adv-x="1443" d="M342 2l-276 891q-11 22 -1.5 37.5t33.5 15.5h123q13 0 25.5 -7.5t15.5 -20.5l156 -543h4l256 569q12 23 39 23h14q33 0 41 -23l254 -571h4l152 545q4 10 11.5 16.5t20 8.5t19 2.5t20.5 0.5h86q25 0 36 -15.5t1 -37.5l-270 -891q-3 -10 -15.5 -17.5t-27.5 -7.5h-8 q-29 0 -41 23l-289 643h-4l-291 -643q-8 -23 -37 -23h-12q-32 0 -39 25zM868 1112l-344 148q-12 6 -15.5 20t3.5 29l47 90q7 12 26 12.5t27 -6.5l322 -186q10 -5 13.5 -16t-1.5 -23l-28 -60q-13 -26 -50 -8z" />
<glyph unicode="&#x1e82;" horiz-adv-x="1814" d="M440 8l-387 1376q-6 22 4.5 36t32.5 14h137q12 0 23 -9t14 -20l248 -940h8l334 967q3 9 13 15.5t22 6.5h37q12 0 22 -6.5t13 -15.5l337 -967h9l243 940q3 11 14 20t23 9h137q22 0 32.5 -14t4.5 -36l-387 -1376q-3 -12 -14 -20t-23 -8h-32q-11 0 -21.5 6.5t-13.5 15.5 l-361 1018h-10l-354 -1018q-3 -9 -13.5 -15.5t-21.5 -6.5h-33q-12 0 -23 8t-14 20zM764 1585q-37 -17 -49 10l-29 58q-5 13 -1 23.5t13 15.5l322 186q8 7 27 6.5t26 -12.5l47 -90q8 -15 4.5 -29t-16.5 -20z" />
<glyph unicode="&#x1e83;" horiz-adv-x="1443" d="M342 2l-276 891q-11 22 -1.5 37.5t33.5 15.5h123q13 0 25.5 -7.5t15.5 -20.5l156 -543h4l256 569q12 23 39 23h14q33 0 41 -23l254 -571h4l152 545q4 10 11.5 16.5t20 8.5t19 2.5t20.5 0.5h86q25 0 36 -15.5t1 -37.5l-270 -891q-3 -10 -15.5 -17.5t-27.5 -7.5h-8 q-29 0 -41 23l-289 643h-4l-291 -643q-8 -23 -37 -23h-12q-32 0 -39 25zM588 1112q-36 -18 -49 8l-29 60q-5 12 -1.5 23t13.5 16l322 186q8 7 27 6.5t26 -12.5l47 -90q7 -15 3.5 -29t-15.5 -20z" />
<glyph unicode="&#x1e84;" horiz-adv-x="1814" d="M440 8l-387 1376q-6 22 4.5 36t32.5 14h137q12 0 23 -9t14 -20l248 -940h8l334 967q3 9 13 15.5t22 6.5h37q12 0 22 -6.5t13 -15.5l337 -967h9l243 940q3 11 14 20t23 9h137q22 0 32.5 -14t4.5 -36l-387 -1376q-3 -12 -14 -20t-23 -8h-32q-11 0 -21.5 6.5t-13.5 15.5 l-361 1018h-10l-354 -1018q-3 -9 -13.5 -15.5t-21.5 -6.5h-33q-12 0 -23 8t-14 20zM1139 1589q-54 0 -90.5 37.5t-36.5 91.5t36.5 90.5t90.5 36.5t91.5 -36.5t37.5 -90.5t-37.5 -91.5t-91.5 -37.5zM670 1589q-54 0 -90.5 37.5t-36.5 91.5t36.5 90.5t90.5 36.5t91.5 -36.5 t37.5 -90.5t-37.5 -91.5t-91.5 -37.5z" />
<glyph unicode="&#x1e85;" horiz-adv-x="1443" d="M342 2l-276 891q-11 22 -1.5 37.5t33.5 15.5h123q13 0 25.5 -7.5t15.5 -20.5l156 -543h4l256 569q12 23 39 23h14q33 0 41 -23l254 -571h4l152 545q4 10 11.5 16.5t20 8.5t19 2.5t20.5 0.5h86q25 0 36 -15.5t1 -37.5l-270 -891q-3 -10 -15.5 -17.5t-27.5 -7.5h-8 q-29 0 -41 23l-289 643h-4l-291 -643q-8 -23 -37 -23h-12q-32 0 -39 25zM928 1149q-54 0 -90.5 36.5t-36.5 90.5q0 55 36.5 92t90.5 37q56 0 92.5 -36.5t36.5 -92.5q0 -54 -37 -90.5t-92 -36.5zM524 1149q-54 0 -90.5 36.5t-36.5 90.5q0 55 36.5 92t90.5 37q56 0 92.5 -36.5 t36.5 -92.5q0 -54 -37 -90.5t-92 -36.5z" />
<glyph unicode="&#x1ef2;" horiz-adv-x="1193" d="M596 897h4l369 518q14 19 32 19h154q24 0 34.5 -20t-1.5 -40l-486 -682v-653q0 -15 -11.5 -27t-26.5 -12h-136q-17 0 -28 11.5t-11 27.5v651l-479 684q-12 20 -1.5 40t34.5 20h152q18 0 32 -19zM739 1585l-344 148q-12 6 -15.5 20t3.5 29l47 90q7 12 26 12.5t27 -6.5 l322 -186q10 -5 13.5 -16t-1.5 -23l-29 -58q-11 -26 -49 -10z" />
<glyph unicode="&#x1ef3;" horiz-adv-x="1017" d="M373 33l-326 852q-9 25 2.5 43t38.5 18h135q11 0 24 -7.5t17 -18.5l219 -650h4l267 650q9 26 49 26h127q29 0 40.5 -18t0.5 -43l-578 -1344q-16 -28 -39 -28h-131q-27 0 -40 19.5t-1 43.5zM618 1112l-344 148q-12 6 -15.5 20t3.5 29l47 90q7 12 26 12.5t27 -6.5l322 -186 q10 -5 13.5 -16t-1.5 -23l-28 -60q-13 -26 -50 -8z" />
<glyph unicode="&#x2000;" horiz-adv-x="1058" />
<glyph unicode="&#x2001;" horiz-adv-x="2117" />
<glyph unicode="&#x2002;" horiz-adv-x="1058" />
<glyph unicode="&#x2003;" horiz-adv-x="2117" />
<glyph unicode="&#x2004;" horiz-adv-x="705" />
<glyph unicode="&#x2005;" horiz-adv-x="529" />
<glyph unicode="&#x2006;" horiz-adv-x="352" />
<glyph unicode="&#x2007;" horiz-adv-x="352" />
<glyph unicode="&#x2008;" horiz-adv-x="264" />
<glyph unicode="&#x2009;" horiz-adv-x="423" />
<glyph unicode="&#x200a;" horiz-adv-x="117" />
<glyph unicode="&#x2010;" horiz-adv-x="770" d="M164 422q-17 0 -28 11t-11 26v88q0 17 11 28t28 11h442q17 0 28 -11t11 -28v-88q0 -15 -11 -26t-28 -11h-442z" />
<glyph unicode="&#x2011;" horiz-adv-x="770" d="M164 422q-17 0 -28 11t-11 26v88q0 17 11 28t28 11h442q17 0 28 -11t11 -28v-88q0 -15 -11 -26t-28 -11h-442z" />
<glyph unicode="&#x2012;" horiz-adv-x="770" d="M164 422q-17 0 -28 11t-11 26v88q0 17 11 28t28 11h442q17 0 28 -11t11 -28v-88q0 -15 -11 -26t-28 -11h-442z" />
<glyph unicode="&#x2013;" horiz-adv-x="1118" d="M168 442q-17 0 -28 11t-11 26v49q0 17 11 28t28 11h782q17 0 28 -11t11 -28v-49q0 -15 -11 -26t-28 -11h-782z" />
<glyph unicode="&#x2014;" horiz-adv-x="1568" d="M168 442q-17 0 -28 11t-11 26v49q0 17 11 28t28 11h1233q17 0 28 -11t11 -28v-49q0 -15 -11 -26t-28 -11h-1233z" />
<glyph unicode="&#x2018;" horiz-adv-x="489" d="M412 950q0 -57 -41.5 -96t-102.5 -39q-76 0 -126 65.5t-50 172.5q0 211 146 385q22 22 41 4l49 -39q18 -18 -2 -41q-105 -134 -105 -248q0 -38 10 -53q20 20 64 20q55 0 86 -37.5t31 -93.5z" />
<glyph unicode="&#x2019;" horiz-adv-x="483" d="M76 1319q0 57 41 96t102 39q76 0 126 -65t50 -172q0 -214 -145 -386q-22 -23 -41 -4l-49 39q-18 18 2 41q104 132 104 248q0 38 -10 53q-20 -20 -63 -20q-55 0 -86 37.5t-31 93.5z" />
<glyph unicode="&#x201a;" horiz-adv-x="507" d="M96 137q0 57 41.5 96t102.5 39q76 0 126 -65t50 -172q0 -211 -146 -385q-22 -22 -41 -4l-49 39q-18 18 2 41q105 134 105 247q0 37 -11 54q-21 -21 -63 -21q-55 0 -86 37.5t-31 93.5z" />
<glyph unicode="&#x201c;" horiz-adv-x="897" d="M412 950q0 -57 -41.5 -96t-102.5 -39q-76 0 -126 65.5t-50 172.5q0 211 146 385q22 22 41 4l49 -39q18 -18 -2 -41q-105 -134 -105 -248q0 -38 10 -53q20 20 64 20q55 0 86 -37.5t31 -93.5zM819 950q0 -57 -41 -96t-102 -39q-76 0 -126 65.5t-50 172.5q0 213 145 385 q23 22 41 4l49 -39q18 -18 -2 -41q-104 -132 -104 -248q0 -38 10 -53q20 20 63 20q55 0 86 -37.5t31 -93.5z" />
<glyph unicode="&#x201d;" horiz-adv-x="892" d="M76 1319q0 57 41 96t102 39q76 0 126 -65t50 -172q0 -214 -145 -386q-22 -23 -41 -4l-49 39q-18 18 2 41q104 132 104 248q0 38 -10 53q-20 -20 -63 -20q-55 0 -86 37.5t-31 93.5zM485 1319q0 57 41.5 96t102.5 39q76 0 126 -65t50 -172q0 -212 -146 -386q-23 -23 -41 -4 l-49 39q-18 18 2 41q105 134 105 248q0 38 -10 53q-20 -20 -64 -20q-55 0 -86 37.5t-31 93.5z" />
<glyph unicode="&#x201e;" horiz-adv-x="917" d="M96 137q0 57 41.5 96t102.5 39q76 0 126 -65t50 -172q0 -211 -146 -385q-22 -22 -41 -4l-49 39q-18 18 2 41q105 134 105 247q0 37 -11 54q-21 -21 -63 -21q-55 0 -86 37.5t-31 93.5zM506 137q0 57 41 96t102 39q76 0 126 -65t50 -172q0 -213 -145 -385q-22 -22 -41 -4 l-49 39q-18 18 2 41q104 132 104 247q0 39 -10 54q-21 -21 -63 -21q-55 0 -86 37.5t-31 93.5z" />
<glyph unicode="&#x2020;" horiz-adv-x="1224" d="M121 635q-15 0 -27 12t-12 27v106q0 15 12 27t27 12h373v576q0 15 11.5 27t26.5 12h150q15 0 27 -12t12 -27v-576h385q15 0 26 -12t11 -27v-106q0 -15 -11 -27t-26 -12h-393l-51 -1090q0 -12 -12.5 -22t-26.5 -10h-31q-14 0 -26.5 10t-12.5 22l-49 1090h-383z" />
<glyph unicode="&#x2021;" horiz-adv-x="1257" d="M160 39v106q0 15 12 27t27 12h336l-25 633h-373q-15 0 -27 12t-12 27v107q0 15 12 26.5t27 11.5h373v394q0 15 12 27t27 12h149q15 0 27 -12t12 -27v-394h385q15 0 26 -11.5t11 -26.5v-107q0 -15 -11 -27t-26 -12h-385l-24 -633h348q15 0 26 -12t11 -27v-106 q0 -15 -11 -27t-26 -12h-359l-24 -455q0 -12 -12.5 -22t-26.5 -10h-31q-14 0 -26.5 10t-12.5 22l-24 455h-346q-15 0 -27 12t-12 27z" />
<glyph unicode="&#x2022;" horiz-adv-x="778" d="M385 281q-97 0 -168.5 70.5t-71.5 168.5q0 101 71.5 174.5t168.5 73.5q102 0 175 -73t73 -175q0 -98 -72.5 -168.5t-175.5 -70.5z" />
<glyph unicode="&#x2026;" horiz-adv-x="1300" d="M938 111q0 55 39 94t94 39t93 -38.5t38 -94.5q0 -54 -38 -92.5t-93 -38.5t-94 38.5t-39 92.5zM518 111q0 55 38.5 94t92.5 39q55 0 94 -39t39 -94q0 -54 -39 -92.5t-94 -38.5q-54 0 -92.5 38.5t-38.5 92.5zM98 111q0 55 38.5 94t92.5 39q55 0 94 -39t39 -94 q0 -54 -39 -92.5t-94 -38.5q-54 0 -92.5 38.5t-38.5 92.5z" />
<glyph unicode="&#x202f;" horiz-adv-x="423" />
<glyph unicode="&#x2030;" horiz-adv-x="2033" d="M379 903q-115 0 -196 80.5t-81 196.5q0 115 80.5 195.5t196.5 80.5q114 0 195 -80.5t81 -195.5t-81 -196t-195 -81zM283 55l702 1358q14 21 35 21h67q23 0 34.5 -18t0.5 -38l-706 -1358q-3 -6 -15.5 -13t-19.5 -7h-64q-23 0 -34 17.5t0 37.5zM379 1049q53 0 90 38t37 93 q0 51 -37.5 89t-89.5 38q-53 0 -91 -37.5t-38 -89.5q0 -55 37.5 -93t91.5 -38zM1391 254q0 115 81 195.5t195 80.5q116 0 197.5 -80.5t81.5 -195.5t-81.5 -196t-197.5 -81q-114 0 -195 81t-81 196zM764 254q0 116 80 196t196 80q114 0 195.5 -80.5t81.5 -195.5t-81.5 -196 t-195.5 -81q-115 0 -195.5 80.5t-80.5 196.5zM1538 254q0 -54 37.5 -91.5t91.5 -37.5q53 0 91 37.5t38 91.5q0 52 -38 89.5t-91 37.5q-54 0 -91.5 -37t-37.5 -90zM909 254q0 -54 38 -91.5t93 -37.5q52 0 89.5 37.5t37.5 91.5q0 52 -38 89.5t-89 37.5q-55 0 -93 -37t-38 -90z " />
<glyph unicode="&#x2039;" horiz-adv-x="567" d="M305 141l-213 318q-17 23 0 49l223 303q15 25 37 25h72q26 0 35 -19.5t-4 -44.5l-146 -285l140 -301q11 -25 3 -43t-34 -18h-82q-19 0 -31 16z" />
<glyph unicode="&#x203a;" horiz-adv-x="567" d="M147 125q-25 0 -33 18t3 43l139 301l-145 285q-13 25 -4.5 44.5t34.5 19.5h72q22 0 37 -25l223 -303q17 -26 0 -49l-213 -318q-12 -16 -31 -16h-82z" />
<glyph unicode="&#x2044;" horiz-adv-x="245" d="M-164 20q-3 -6 -15.5 -13t-19.5 -7h-63q-23 0 -34 17.5t-1 37.5l703 1358q14 21 34 21h68q23 0 34.5 -18t0.5 -38z" />
<glyph unicode="&#x205f;" horiz-adv-x="529" />
<glyph unicode="&#x2070;" horiz-adv-x="663" d="M332 1014q-124 0 -191 84.5t-67 236.5q0 153 67 238.5t191 85.5t191 -85.5t67 -238.5q0 -152 -67 -236.5t-191 -84.5zM332 1139q54 0 84 50.5t30 145.5t-30 147t-84 52t-83.5 -52t-29.5 -147t29.5 -145.5t83.5 -50.5z" />
<glyph unicode="&#x2074;" horiz-adv-x="651" d="M381 1032q-8 0 -14.5 6t-6.5 13v100h-292q-7 0 -13 5t-6 11v82l342 383q6 6 17 6h63q8 0 14.5 -5.5t6.5 -12.5v-365h81q7 0 13 -5t6 -11v-70q0 -7 -5.5 -12.5t-13.5 -5.5h-81v-100q0 -7 -6.5 -13t-14.5 -6h-90zM180 1255h185v207z" />
<glyph unicode="&#x2075;" horiz-adv-x="589" d="M281 1012q-70 0 -120.5 24t-78.5 54q-14 16 -2 30l49 54q15 16 29 2q6 -6 18.5 -15.5t44.5 -22t64 -12.5q47 0 79.5 29.5t32.5 69.5q0 41 -30.5 66.5t-85.5 25.5h-156q-14 0 -22.5 10t-8.5 23v270q0 7 5.5 12.5t13.5 5.5h323q8 0 13.5 -5.5t5.5 -12.5v-74q0 -6 -6 -11 t-13 -5h-225v-103h86q110 0 171.5 -53.5t61.5 -146.5q0 -92 -70 -153.5t-179 -61.5z" />
<glyph unicode="&#x2076;" horiz-adv-x="600" d="M309 1012q-113 0 -176 75t-63 189q0 73 28 137.5t67 105.5t89 74.5t85 49t64 24.5q10 4 19 -0.5t12 -13.5l25 -58q7 -21 -19 -30q-32 -9 -73.5 -29t-89 -59.5t-62.5 -83.5q5 4 19.5 10t44 13t57.5 7q82 0 142.5 -52t60.5 -146q0 -88 -68 -150.5t-162 -62.5zM309 1130 q43 0 73 28.5t30 68.5q0 41 -31 69.5t-74 28.5q-38 0 -69.5 -21.5t-42.5 -43.5q2 -48 33 -89t81 -41z" />
<glyph unicode="&#x2077;" horiz-adv-x="544" d="M106 1032q-20 0 -20 15v14l254 465h-258q-8 0 -13.5 5.5t-5.5 12.5v76q0 7 5.5 12.5t13.5 5.5h410q8 0 13 -5t5 -13v-27l-281 -542q-11 -19 -28 -19h-95z" />
<glyph unicode="&#x2078;" horiz-adv-x="618" d="M305 1012q-104 0 -168.5 50t-64.5 126q0 57 42 99t76 56v3q-38 17 -70 54.5t-32 88.5q0 75 62.5 122.5t156.5 47.5t157.5 -47.5t63.5 -122.5q0 -50 -33 -88t-71 -55v-3q45 -17 83 -57t38 -98q0 -76 -66 -126t-174 -50zM307 1401q39 6 60.5 26.5t21.5 49.5t-24.5 50 t-59.5 21q-32 0 -55 -21t-23 -50q0 -30 20.5 -50t59.5 -26zM307 1122q39 0 66.5 20.5t27.5 53.5q0 31 -25 55.5t-69 30.5q-41 -6 -66.5 -31t-25.5 -55q0 -33 27.5 -53.5t64.5 -20.5z" />
<glyph unicode="&#x2079;" horiz-adv-x="602" d="M197 997q-21 -6 -31 15l-23 59q-11 23 19 29q31 9 72 29t89 60t64 83q-62 -31 -123 -31q-81 0 -141 53.5t-60 147.5q0 88 68 150.5t162 62.5q113 0 176 -75t63 -189q0 -73 -28.5 -137.5t-67 -105.5t-89.5 -75.5t-85.5 -50t-64.5 -25.5zM293 1341q39 0 70.5 21.5 t44.5 44.5q-2 48 -33.5 88.5t-83.5 40.5q-43 0 -73 -29t-30 -69t31 -68.5t74 -28.5z" />
<glyph unicode="&#x2080;" horiz-adv-x="667" d="M76 -6q0 153 67 239t191 86t191 -86t67 -239q0 -152 -67 -237t-191 -85t-191 85t-67 237zM221 -6q0 -95 29.5 -146t83.5 -51t84.5 51t30.5 146t-30.5 148t-84.5 53t-83.5 -53t-29.5 -148z" />
<glyph unicode="&#x2081;" horiz-adv-x="399" d="M53 121l-8 49q0 13 10 23l148 106h82q7 0 12.5 -5.5t5.5 -12.5v-570q0 -7 -5.5 -12.5t-12.5 -5.5h-101q-20 0 -20 18v412l-92 -14q-19 -4 -19 12z" />
<glyph unicode="&#x2082;" horiz-adv-x="579" d="M125 152l-43 53q-14 22 4 33q11 11 28.5 25t67 35t99.5 21q102 0 160.5 -52t58.5 -134t-88 -180l-138 -150h205q19 0 19 -20v-72q0 -18 -19 -18h-397q-21 0 -21 18v31l242 266q59 62 59 109q0 34 -26 59t-74 25q-57 0 -108 -51q-14 -14 -29 2z" />
<glyph unicode="&#x2083;" horiz-adv-x="579" d="M152 27q0 24 26 24h62q52 0 80 21t28 55t-27.5 56t-66.5 22q-52 0 -98 -41q-15 -12 -29 2l-45 49q-6 7 -6 16t8 15q3 3 8.5 8t24 17.5t38.5 22t51.5 17.5t63.5 8q95 0 156 -46t61 -123q0 -50 -32 -89.5t-72 -54.5v-4q45 -17 84 -57.5t39 -96.5q0 -79 -66.5 -127.5 t-169.5 -48.5q-126 0 -202 76q-16 13 0 29l43 51q13 13 30 0l5 -4q6 -4 13.5 -8.5t19 -10t23 -10t27 -7.5t29.5 -3q44 0 74 21.5t30 56.5q0 36 -31 60t-91 24h-62q-26 0 -26 22v58z" />
<glyph unicode="&#x2084;" horiz-adv-x="651" d="M49 -90l342 383q6 6 17 6h63q8 0 14.5 -5.5t6.5 -12.5v-365h81q7 0 13 -5t6 -11v-70q0 -7 -5.5 -12.5t-13.5 -5.5h-81v-101q0 -7 -6.5 -12.5t-14.5 -5.5h-90q-8 0 -14.5 5.5t-6.5 12.5v101h-292q-7 0 -13 5t-6 11v82zM180 -84h185v207z" />
<glyph unicode="&#x2085;" horiz-adv-x="587" d="M94 10v271q0 7 5.5 12.5t13.5 5.5h323q8 0 13.5 -5.5t5.5 -12.5v-74q0 -6 -6 -11.5t-13 -5.5h-225v-102h86q109 0 171 -54t62 -147q0 -92 -70 -153.5t-179 -61.5q-70 0 -120.5 24t-78.5 54q-14 17 -2 31l49 53q15 16 29 2q6 -6 18.5 -15t44.5 -21.5t64 -12.5 q47 0 79.5 29t32.5 69q0 41 -30.5 66.5t-85.5 25.5h-156q-14 0 -22.5 10t-8.5 23z" />
<glyph unicode="&#x2086;" horiz-adv-x="602" d="M70 -63q0 73 28 137.5t67 105.5t89 74.5t85 49t64 24.5q10 4 19 -0.5t12 -14.5l25 -57q7 -22 -19 -31q-32 -9 -73.5 -29t-89 -59.5t-62.5 -83.5q6 4 20 10t43.5 13.5t57.5 7.5q82 0 142.5 -52.5t60.5 -146.5q0 -88 -68 -150.5t-162 -62.5q-113 0 -176 75.5t-63 189.5z M195 -80q2 -48 33 -88.5t81 -40.5q43 0 73 28t30 68q0 41 -31 70t-74 29q-37 0 -69 -21.5t-43 -44.5z" />
<glyph unicode="&#x2087;" horiz-adv-x="546" d="M82 186q-8 0 -13.5 6t-5.5 13v76q0 7 5.5 12.5t13.5 5.5h410q8 0 13 -5.5t5 -12.5v-27l-281 -543q-10 -18 -28 -18h-95q-20 0 -20 14v14l254 465h-258z" />
<glyph unicode="&#x2088;" horiz-adv-x="620" d="M74 -152q0 57 42.5 99.5t76.5 56.5v2q-39 17 -71 55t-32 89q0 75 62.5 122t156.5 47t157.5 -47t63.5 -122q0 -50 -33 -88.5t-71 -55.5v-2q45 -17 83 -57.5t38 -98.5q0 -76 -66 -126t-174 -50q-104 0 -168.5 50t-64.5 126zM229 137q0 -30 20.5 -50t59.5 -26 q39 6 60.5 26.5t21.5 49.5t-24.5 50.5t-59.5 21.5q-32 0 -55 -21.5t-23 -50.5zM217 -143q0 -33 27.5 -53.5t64.5 -20.5q39 0 66.5 20.5t27.5 53.5q0 31 -25 55.5t-69 30.5q-41 -6 -66.5 -31t-25.5 -55z" />
<glyph unicode="&#x2089;" horiz-adv-x="602" d="M63 102q0 88 68 150.5t162 62.5q113 0 176 -75t63 -189q0 -73 -28.5 -137.5t-67 -105.5t-89.5 -75t-85 -49.5t-65 -25.5q-21 -6 -31 14l-23 60q-11 22 19 28q31 9 72 29t89 60t64 83q-60 -30 -123 -30q-81 0 -141 53t-60 147zM188 98q0 -40 31 -68t74 -28q39 0 70.5 21.5 t44.5 44.5q-2 48 -33.5 88.5t-83.5 40.5q-42 0 -72.5 -29.5t-30.5 -69.5z" />
<glyph unicode="&#x20ac;" d="M88 612h98q-4 33 -4 103v45h-94q-15 0 -26 12t-11 27v20q0 15 11 27t26 12h105q18 123 66 230t121 189t176 129.5t222 47.5q109 0 206 -36t167 -103q27 -24 4 -58l-68 -98q-11 -15 -28.5 -15t-32.5 15q-92 92 -246 92q-135 0 -233 -104.5t-127 -288.5h493q17 0 28 -11.5 t11 -27.5v-22q0 -15 -11 -26t-28 -11h-503v-41q0 -72 4 -107h417q17 0 28 -11.5t11 -27.5v-22q0 -15 -11 -26t-28 -11h-399q34 -149 121.5 -238.5t228.5 -89.5q70 0 126 22t118 73q33 26 59 -13l64 -96q20 -31 -4 -55q-71 -70 -158.5 -105t-212.5 -35q-220 0 -373.5 143.5 t-199.5 393.5h-113q-15 0 -26 12t-11 27v20q0 15 11 27t26 12z" />
<glyph unicode="&#x2113;" horiz-adv-x="978" d="M207 309q0 59 10 131q-54 -16 -98 -24q-27 -3 -33 20l-8 60q-1 10 -0.5 18.5t7 14.5t21.5 8q87 16 138 32q20 122 32 185q67 348 167.5 524t252.5 176q107 0 168.5 -74t61.5 -200q0 -129 -48 -242.5t-132 -199t-184 -148t-218 -107.5q-20 -88 -20 -170q0 -92 39 -152.5 t126 -60.5q165 0 312 90q21 11 31 9.5t18 -15.5l22 -39q14 -25 11 -33q-5 -8 -15 -16q-12 -10 -39 -25t-76.5 -37.5t-120.5 -38t-143 -15.5q-75 0 -131.5 27t-88.5 74.5t-47 104t-15 123.5zM369 606q93 40 170 95t138.5 125.5t95.5 161.5t34 192q0 72 -29.5 113.5 t-81.5 41.5q-100 0 -173 -153.5t-130 -448.5z" />
<glyph unicode="&#x2117;" horiz-adv-x="1714" d="M121 717q0 200 98.5 369.5t267.5 268.5t369 99t369.5 -99t268.5 -268.5t99 -369.5t-99 -369t-268.5 -267.5t-369.5 -98.5t-369 98.5t-267.5 267.5t-98.5 369zM262 717q0 -161 79.5 -298t216.5 -216.5t298 -79.5q162 0 299 79.5t216 216.5t79 298q0 122 -47 232t-126 189 t-189 126t-232 47q-161 0 -298 -79t-216.5 -216t-79.5 -299zM612 383v672q0 16 11 27.5t28 11.5h303q102 0 177 -65.5t75 -176.5t-67.5 -174.5t-194.5 -63.5h-178v-231q0 -16 -11 -27.5t-28 -11.5h-76q-17 0 -28 11.5t-11 27.5zM762 750h182q45 0 74 29t29 71q0 44 -28.5 72 t-74.5 28h-182v-200z" />
<glyph unicode="&#x2122;" horiz-adv-x="1572" d="M733 801q-20 0 -31 14t-8 33l107 565q3 12 14.5 21.5t24.5 9.5h8q9 0 20.5 -7.5t14.5 -15.5l172 -407l176 407q3 8 14.5 15.5t20.5 7.5h8q12 0 24 -9.5t15 -21.5l108 -567q3 -19 -8.5 -32t-30.5 -13h-53q-13 0 -24.5 10.5t-14.5 24.5l-57 297l-139 -320 q-3 -7 -13.5 -12.5t-19.5 -5.5h-12q-8 0 -19.5 6t-15.5 14l-133 318l-62 -299q-1 -12 -14 -22.5t-25 -10.5h-47zM358 801q-17 0 -28 11.5t-11 27.5v467h-137q-16 0 -27.5 11t-11.5 28v49q0 15 12 27t27 12h406q17 0 28 -11.5t11 -27.5v-49q0 -17 -11 -28t-28 -11h-137v-467 q0 -15 -12 -27t-27 -12h-54z" />
<glyph unicode="&#x2126;" horiz-adv-x="1703" d="M137 33v131q0 14 9.5 23.5t23.5 9.5h209q-119 74 -191.5 220.5t-72.5 307.5q0 151 58 286.5t156.5 232.5t235 153.5t287.5 56.5t287.5 -56.5t235 -153.5t156.5 -232.5t58 -286.5q0 -161 -73.5 -307t-192.5 -221h209q14 0 23.5 -9.5t9.5 -23.5v-131q0 -12 -10 -22.5 t-23 -10.5h-531q-13 0 -22.5 10.5t-9.5 22.5v84q0 28 9 39.5t32 21.5q167 65 268.5 214.5t101.5 322.5q0 106 -42 205t-113 171t-169 115t-204 43q-107 0 -205.5 -43t-170.5 -115t-114.5 -171t-42.5 -205q0 -173 102.5 -322t270.5 -215q23 -10 32 -21.5t9 -39.5v-84 q0 -12 -10 -22.5t-23 -10.5h-530q-13 0 -23 10.5t-10 22.5z" />
<glyph unicode="&#x212e;" horiz-adv-x="1716" d="M371 332q78 -111 215 -174.5t288 -63.5q110 0 221 45t203 127q30 26 54 2l32 -37q20 -21 -10 -51q-104 -99 -233 -149.5t-267 -50.5q-154 0 -291.5 57t-236.5 154.5t-157 234t-58 289.5q0 205 98.5 374.5t269 267t375.5 97.5q152 0 289 -57.5t236.5 -156.5t158.5 -236.5 t60 -290.5q0 -31 -10 -43.5t-35 -12.5h-1202v-325zM371 768h1007v328q-85 113 -217.5 177t-286.5 64q-158 0 -288 -61.5t-215 -175.5v-332z" />
<glyph unicode="&#x2153;" horiz-adv-x="1349" d="M219 55l703 1358q14 21 34 21h68q23 0 34.5 -18t0.5 -38l-707 -1358q-3 -6 -15.5 -13t-19.5 -7h-63q-23 0 -34 17.5t-1 37.5zM236 827q-9 0 -15 5.5t-6 13.5v411l-92 -14q-19 -4 -19 12l-8 50q0 12 10 22l148 107h82q7 0 12.5 -5.5t5.5 -13.5v-569q0 -8 -5.5 -13.5 t-12.5 -5.5h-100zM805 55q-16 13 0 29l43 51q14 14 31 0l5 -4q6 -4 13 -8.5t18.5 -10t23 -10t27 -7.5t29.5 -3q44 0 74.5 22t30.5 56q0 36 -31.5 60t-91.5 24h-62q-26 0 -26 22v58q0 24 26 24h62q52 0 80 21t28 55t-27.5 56t-66.5 22q-52 0 -98 -41q-15 -12 -29 2l-45 49 q-7 6 -7 15.5t9 15.5q8 8 23 20.5t64 33t100 20.5q95 0 156 -46.5t61 -123.5q0 -50 -32.5 -89.5t-72.5 -54.5v-4q46 -18 84.5 -57.5t38.5 -95.5q0 -79 -66.5 -127.5t-168.5 -48.5q-128 0 -203 75z" />
<glyph unicode="&#x2154;" horiz-adv-x="1443" d="M123 827q-21 0 -21 19v31l242 266q59 62 59 108q0 34 -26 59t-74 25q-57 0 -108 -51q-13 -14 -29 2l-43 53q-14 22 4 33q5 5 12 11t27 20t40.5 24t52 18.5t63.5 8.5q102 0 160.5 -52t58.5 -134q0 -83 -88 -181l-138 -149h205q19 0 19 -20v-72q0 -19 -19 -19h-397zM319 55 l703 1358q14 21 35 21h67q23 0 34.5 -18t0.5 -38l-706 -1358q-3 -6 -15 -13t-20 -7h-64q-23 0 -34 17.5t-1 37.5zM905 55q-16 13 0 29l43 51q14 14 31 0l5 -4q6 -4 13.5 -8.5t19 -10t23 -10t27 -7.5t29.5 -3q44 0 74 21.5t30 56.5q0 36 -31.5 60t-91.5 24h-61q-27 0 -27 22 v58q0 24 27 24h61q52 0 80.5 21t28.5 55t-27.5 56t-66.5 22q-53 0 -99 -41q-15 -11 -28 2l-45 49q-6 6 -6 15.5t8 15.5q8 8 23 20.5t63.5 33t99.5 20.5q95 0 156 -46.5t61 -123.5q0 -50 -32 -89.5t-72 -54.5v-4q45 -17 83.5 -57t38.5 -96q0 -79 -66.5 -127.5t-168.5 -48.5 q-128 0 -203 75z" />
<glyph unicode="&#x215b;" horiz-adv-x="1392" d="M219 55l703 1358q14 21 34 21h68q23 0 34.5 -18t0.5 -38l-707 -1358q-3 -6 -15.5 -13t-19.5 -7h-63q-23 0 -34 17.5t-1 37.5zM236 827q-9 0 -15 5.5t-6 13.5v411l-92 -14q-19 -4 -19 12l-8 50q0 12 10 22l148 107h82q7 0 12.5 -5.5t5.5 -13.5v-569q0 -8 -5.5 -13.5 t-12.5 -5.5h-100zM815 156q0 57 42.5 99t76.5 56v2q-39 17 -71 55t-32 89q0 75 63 122.5t157 47.5t157.5 -47.5t63.5 -122.5q0 -50 -33.5 -88.5t-71.5 -55.5v-2q45 -17 83 -57t38 -98q0 -76 -65.5 -126t-173.5 -50q-104 0 -169 50t-65 126zM971 444q0 -63 80 -75 q39 6 60.5 26.5t21.5 48.5q0 29 -24.5 50.5t-59.5 21.5q-32 0 -55 -21.5t-23 -50.5zM958 164q0 -32 28 -53t65 -21q39 0 66.5 20.5t27.5 53.5q0 31 -25 55.5t-69 30.5q-42 -6 -67.5 -31t-25.5 -55z" />
<glyph unicode="&#x215c;" horiz-adv-x="1464" d="M311 807q-126 0 -202 76q-16 12 0 28l43 52q13 13 30 0l6 -4q5 -4 12.5 -8.5t19 -10t23 -10t27 -7.5t29.5 -3q44 0 74 21.5t30 55.5q0 36 -31 60t-91 24h-62q-26 0 -26 23v57q0 25 26 25h62q52 0 80 21t28 55t-27.5 55.5t-66.5 21.5q-52 0 -98 -41q-15 -12 -29 2l-45 50 q-7 6 -7 15t9 15q8 8 23 20.5t63.5 33t99.5 20.5q95 0 156 -46.5t61 -123.5q0 -50 -32 -89t-72 -54v-4q45 -17 84 -57.5t39 -96.5q0 -79 -66.5 -127.5t-169.5 -48.5zM295 55l702 1358q14 21 35 21h68q23 0 34.5 -18t0.5 -38l-707 -1358q-3 -6 -15.5 -13t-19.5 -7h-63 q-23 0 -34 17.5t-1 37.5zM891 156q0 57 42.5 99t76.5 56v2q-39 17 -71 55t-32 89q0 75 62.5 122.5t156.5 47.5t158 -47.5t64 -122.5q0 -50 -33.5 -88.5t-71.5 -55.5v-2q45 -17 83 -57t38 -98q0 -76 -66 -126t-174 -50q-104 0 -168.5 50t-64.5 126zM1047 444q0 -63 79 -75 q39 6 60.5 26.5t21.5 48.5q0 29 -24.5 50.5t-59.5 21.5q-32 0 -54.5 -21.5t-22.5 -50.5zM1034 164q0 -33 27.5 -53.5t64.5 -20.5q39 0 67 20.5t28 53.5q0 31 -25.5 55.5t-69.5 30.5q-41 -6 -66.5 -31t-25.5 -55z" />
<glyph unicode="&#x215d;" horiz-adv-x="1468" d="M301 55l703 1358q14 21 34 21h68q23 0 34.5 -18t0.5 -38l-707 -1358q-3 -6 -15.5 -13t-19.5 -7h-63q-23 0 -34 17.5t-1 37.5zM315 807q-125 0 -198 78q-8 9 -8.5 15t6.5 15l49 54q16 15 29 2q6 -6 18.5 -15t44 -21.5t63.5 -12.5q47 0 80 29t33 69q0 41 -31 66.5t-86 25.5 h-155q-14 0 -22.5 10t-8.5 23v270q0 8 5.5 13.5t12.5 5.5h324q7 0 12.5 -5.5t5.5 -13.5v-74q0 -6 -5.5 -11t-12.5 -5h-225v-102h86q109 0 171 -54t62 -147q0 -92 -70.5 -153.5t-179.5 -61.5zM897 156q0 57 42.5 99t76.5 56v2q-39 17 -71 55t-32 89q0 75 63 122.5t157 47.5 t157.5 -47.5t63.5 -122.5q0 -50 -33.5 -88.5t-71.5 -55.5v-2q45 -17 83 -57t38 -98q0 -76 -66 -126t-174 -50q-104 0 -168.5 50t-64.5 126zM1053 444q0 -63 80 -75q39 6 60 26t21 49t-24.5 50.5t-59.5 21.5q-32 0 -54.5 -21.5t-22.5 -50.5zM1040 164q0 -32 28 -53t65 -21 q39 0 66.5 20.5t27.5 53.5q0 31 -25 55.5t-69 30.5q-42 -6 -67.5 -31t-25.5 -55z" />
<glyph unicode="&#x215e;" horiz-adv-x="1400" d="M231 55l703 1358q14 21 35 21h67q23 0 34.5 -18t0.5 -38l-706 -1358q-3 -6 -15 -13t-20 -7h-64q-23 0 -34 17.5t-1 37.5zM150 827q-21 0 -21 15v14l254 465h-258q-8 0 -13.5 5.5t-5.5 12.5v76q0 7 6 13t13 6h410q7 0 12.5 -5.5t5.5 -13.5v-26l-281 -543q-11 -19 -28 -19 h-94zM827 156q0 57 42.5 99t76.5 56v2q-38 17 -70 55t-32 89q0 75 62.5 122.5t156.5 47.5t157.5 -47.5t63.5 -122.5q0 -50 -33 -88.5t-71 -55.5v-2q45 -17 82.5 -57t37.5 -98q0 -76 -65.5 -126t-173.5 -50q-104 0 -169 50t-65 126zM983 444q0 -63 80 -75q39 6 60.5 26.5 t21.5 48.5q0 29 -24.5 50.5t-59.5 21.5q-32 0 -55 -21.5t-23 -50.5zM971 164q0 -33 27.5 -53.5t64.5 -20.5q39 0 66.5 20.5t27.5 53.5q0 31 -25 55.5t-69 30.5q-41 -6 -66.5 -31t-25.5 -55z" />
<glyph unicode="&#x2202;" horiz-adv-x="1191" d="M102 463q0 106 37.5 194t99.5 144.5t141 87.5t163 31q63 0 131.5 -19t100 -33.5t48.5 -25.5q-20 74 -70 145t-108.5 122.5t-125 95.5t-115 68t-82.5 36q-56 16 -39 59l36 88q13 37 52 25q50 -19 100.5 -43t122.5 -67.5t134.5 -94t127 -125t110 -157.5t74.5 -193.5 t29 -231.5q0 -124 -31 -230t-91 -186.5t-156.5 -126.5t-219.5 -46q-125 0 -233 64.5t-172 176.5t-64 242zM295 461q0 -121 81 -207t197 -86q76 0 134.5 34t92.5 89.5t51 119t17 130.5q0 31 -2 45q-16 44 -98.5 103t-192.5 59q-117 0 -198.5 -84t-81.5 -203z" />
<glyph unicode="&#x2206;" horiz-adv-x="1484" d="M90 84l617 1352q11 18 30 18h13q21 0 30 -18l615 -1356q15 -28 6.5 -54t-45.5 -26h-1221q-40 0 -52 22t7 62zM365 195l755 2l-377 858h-4z" />
<glyph unicode="&#x220f;" horiz-adv-x="1587" d="M207 33v1368q0 12 10.5 22.5t22.5 10.5h1108q13 0 22.5 -10.5t9.5 -22.5v-1368q0 -12 -9.5 -22.5t-22.5 -10.5h-148q-14 0 -24.5 10t-10.5 23v1202h-745v-1202q0 -13 -9.5 -23t-23.5 -10h-147q-12 0 -22.5 10.5t-10.5 22.5z" />
<glyph unicode="&#x2211;" horiz-adv-x="1138" d="M102 33v61l605 633l-605 621v53q0 12 10 22.5t23 10.5h836q13 0 23 -10.5t10 -22.5v-133q0 -14 -10 -23.5t-23 -9.5h-520l419 -399q33 -33 33 -64v-84q0 -26 -33 -59l-419 -430h520q13 0 23 -10.5t10 -24.5v-131q0 -12 -10 -22.5t-23 -10.5h-836q-13 0 -23 10.5t-10 22.5 z" />
<glyph unicode="&#x2212;" d="M219 629q-15 0 -27 12t-12 27v86q0 15 12 27t27 12h793q15 0 26 -12t11 -27v-86q0 -15 -11 -27t-26 -12h-793z" />
<glyph unicode="&#x2215;" horiz-adv-x="245" d="M-164 20q-3 -6 -15.5 -13t-19.5 -7h-63q-23 0 -34 17.5t-1 37.5l703 1358q14 21 34 21h68q23 0 34.5 -18t0.5 -38z" />
<glyph unicode="&#x2219;" horiz-adv-x="509" d="M254 379q-61 0 -105.5 44.5t-44.5 104.5q0 64 44 109t106 45q63 0 107.5 -45t44.5 -109q0 -60 -44.5 -104.5t-107.5 -44.5z" />
<glyph unicode="&#x221a;" horiz-adv-x="1347" d="M408 0l-351 778q-8 17 -1 29t26 12h147q10 0 18.5 -6t10.5 -12l184 -428h9l464 1040q8 21 31 21h344q15 0 24 -9.5t9 -23.5v-111q0 -13 -9.5 -23t-23.5 -10h-233l-576 -1257q-8 -20 -28 -20h-17q-20 0 -28 20z" />
<glyph unicode="&#x221e;" horiz-adv-x="1294" d="M420 322q-119 0 -202 83t-83 201q0 120 83 203.5t202 83.5q67 0 127 -35.5t98 -91.5q40 57 100.5 92t128.5 35q118 0 201.5 -83.5t83.5 -203.5q0 -118 -84 -201t-201 -83q-68 0 -128.5 34t-100.5 90q-38 -56 -98 -90t-127 -34zM729 606q0 -58 40.5 -98.5t98.5 -40.5 q59 0 99.5 40.5t40.5 98.5t-40.5 98.5t-99.5 40.5q-58 0 -98.5 -40.5t-40.5 -98.5zM426 467q57 0 98 40.5t41 98.5t-41 98.5t-98 40.5q-59 0 -100 -40.5t-41 -98.5t41 -98.5t100 -40.5z" />
<glyph unicode="&#x222b;" horiz-adv-x="997" d="M399 -129v1202q0 182 100 281.5t255 99.5q129 0 227 -82q9 -9 11.5 -23.5t-3.5 -25.5l-55 -90q-18 -28 -51 -6q-18 14 -58 30.5t-71 16.5q-68 0 -112 -50.5t-44 -150.5v-1204q0 -182 -99.5 -280.5t-254.5 -98.5q-136 0 -228 82q-9 9 -11.5 22.5t3.5 24.5l55 90 q9 13 24 15t28 -9q18 -14 58 -30.5t71 -16.5q68 0 111.5 50.5t43.5 152.5z" />
<glyph unicode="&#x2248;" d="M297 657l-59 50q-23 20 -7 43q28 43 43 60q95 110 201 110q35 0 69.5 -13t50 -23.5t42.5 -31.5q6 -4 24.5 -18.5t29.5 -21.5t29 -14t34 -7q34 0 61 22.5t39.5 45.5t32 37t37.5 -3l59 -51q18 -18 2 -43q0 1 -2.5 -4t-9 -14t-15.5 -21t-21 -26t-26.5 -27.5t-32.5 -26 t-37 -22t-42 -15.5t-47 -6q-43 0 -83.5 20t-66.5 43.5t-60.5 43.5t-66.5 20q-30 0 -55.5 -15.5t-39.5 -35t-29.5 -38t-25.5 -24.5t-28 6zM313 266l-59 49q-22 22 -6 45q13 26 52 68q90 100 192 100q12 0 24 -1t23.5 -4.5t19.5 -5.5t19.5 -8t16.5 -8.5t17 -10.5t14 -9.5 l14 -10.5l13 -9q3 -3 18.5 -14.5t23.5 -17t22 -13.5t27 -11.5t26 -3.5q28 0 51 15t35 33.5t26.5 36t25 23t30.5 -6.5l61 -49q19 -19 2 -43q-19 -39 -63 -83q-80 -81 -170 -81q-43 0 -83.5 20t-66 43.5t-60 43.5t-66.5 20q-30 0 -56 -15.5t-40 -35t-30 -38t-26 -24.5t-27 6z " />
<glyph unicode="&#x2260;" d="M401 111q-14 6 -20 21t0 28l53 112h-141q-17 0 -28 11.5t-11 27.5v90q0 16 11 27.5t28 11.5h219l123 265h-342q-17 0 -28 11.5t-11 26.5v88q0 16 11 27.5t28 11.5h420l71 156q6 14 22.5 19.5t29.5 -1.5l18 -10q15 -6 21 -20.5t-3 -28.5l-53 -115h113q17 0 28 -11.5 t11 -27.5v-88q0 -15 -11 -26.5t-28 -11.5h-191l-120 -265h311q17 0 28 -11.5t11 -27.5v-90q0 -16 -11 -27.5t-28 -11.5h-389l-72 -153q-6 -15 -22 -20t-29 1z" />
<glyph unicode="&#x2264;" d="M184 784q-20 9 -20 35v17q0 21 20 32l805 389q17 9 30 1.5t13 -27.5v-119q0 -21 -16 -31l-565 -252l565 -247q16 -10 16 -31v-119q0 -21 -14 -28.5t-29 2.5zM203 106q-15 0 -27 12t-12 27v86q0 15 12 27t27 12h792q15 0 26 -12t11 -27v-86q0 -15 -11 -27t-26 -12h-792z " />
<glyph unicode="&#x2265;" d="M238 406q-15 -10 -29 -2.5t-14 28.5v119q0 21 16 31l565 247l-565 252q-16 10 -16 31v119q0 20 13 27.5t30 -1.5l804 -389q21 -12 21 -32v-17q0 -26 -21 -35zM231 106q-15 0 -25.5 12t-10.5 27v86q0 15 10.5 27t25.5 12h793q15 0 27 -12t12 -27v-86q0 -15 -12 -27 t-27 -12h-793z" />
<glyph unicode="&#x25ca;" horiz-adv-x="1294" d="M137 633q-16 21 -24.5 40t-9.5 29.5t-1 28.5q0 46 41 98l467 607q14 18 31 18h12q17 0 31 -18l467 -605q24 -33 32.5 -54t8.5 -48q0 -23 -5.5 -41t-11.5 -28t-24 -35l-467 -625q-14 -18 -31 -18h-12q-17 0 -31 18zM645 246h4l340 483l-340 461h-4l-342 -461z" />
<glyph unicode="&#x25fc;" horiz-adv-x="942" d="M0 942h942v-942h-942v942z" />
<glyph unicode="&#xf6c3;" horiz-adv-x="598" d="M143 -258q0 60 42 94.5t110 34.5q79 0 128.5 -50.5t49.5 -148.5q0 -154 -108 -270q-17 -17 -41 -2l-50 37q-12 9 -12 20t10 21q27 24 44.5 62t17.5 75q0 23 -6 35q-5 -5 -24 -12t-42 -7q-53 0 -86 32t-33 79z" />
<glyph unicode="&#xf8ff;" horiz-adv-x="1226" d="M102 61v1311q0 62 62 62h899q32 0 46.5 -15t14.5 -47v-1311q0 -32 -14.5 -46.5t-46.5 -14.5h-899q-32 0 -47 14.5t-15 46.5zM537 643q0 -10 8.5 -17.5t19.5 -7.5h74q31 0 31 27v53q0 23 16 44.5t40 39t51.5 40.5t51.5 46.5t40 59.5t16 78q0 99 -73 163t-183 64 q-50 0 -96 -13t-75.5 -31.5t-52.5 -36.5t-33 -31l-10 -13q-16 -24 0 -37l46 -45q17 -11 34 0q1 1 15 14.5t20.5 19t23.5 17.5t31.5 17.5t36.5 10.5t45 5q59 0 92 -31t33 -75q0 -35 -21 -65t-50.5 -53t-59 -47.5t-50.5 -59.5t-21 -77v-59zM502 319q0 -40 29 -69t69 -29 q41 0 70.5 29t29.5 69t-29.5 69.5t-70.5 29.5q-40 0 -69 -29.5t-29 -69.5z" />
<glyph unicode="&#xfb00;" horiz-adv-x="1419" d="M223 45v711h-125q-20 0 -32.5 13.5t-12.5 31.5v100q0 20 12.5 32.5t32.5 12.5h125v66q0 187 119 304.5t313 117.5q176 0 289 -99q82 119 264 119q87 0 160 -29t113 -65q10 -10 12 -26.5t-4 -26.5l-59 -88q-9 -17 -26 -19t-34 10q-67 50 -158 50q-78 0 -112.5 -49 t-34.5 -167v-98h268q20 0 32.5 -12.5t12.5 -32.5v-100q0 -18 -12.5 -31.5t-32.5 -13.5h-268v-711q0 -19 -13 -32t-32 -13h-115q-19 0 -32 13t-13 32v711h-432v-711q0 -18 -13.5 -31.5t-31.5 -13.5h-115q-18 0 -31.5 13.5t-13.5 31.5zM428 946h432v105q0 79 8 108 q-30 32 -86.5 57t-128.5 25q-105 0 -165 -60.5t-60 -168.5v-66z" />
<glyph unicode="&#xfb03;" horiz-adv-x="1843" d="M1245 1454q94 0 191 -35t151 -69q13 -9 16.5 -28t-4.5 -32l-57 -102q-19 -34 -61 -10q-3 2 -24 14.5t-31.5 18.5t-34 17t-42.5 16.5t-45 10.5t-51 5q-99 0 -143.5 -55.5t-44.5 -168.5v-90h592q18 0 31.5 -13.5t13.5 -31.5v-856q0 -19 -13 -32t-32 -13h-115 q-18 0 -31.5 13.5t-13.5 31.5v711h-432v-711q0 -19 -13 -32t-32 -13h-115q-19 0 -32 13t-13 32v711h-432v-711q0 -18 -13.5 -31.5t-31.5 -13.5h-115q-18 0 -31.5 13.5t-13.5 31.5v711h-125q-20 0 -32.5 13.5t-12.5 31.5v100q0 20 12.5 32.5t32.5 12.5h125v66 q0 187 119 304.5t313 117.5q99 0 177 -30t122 -69q42 56 117.5 87.5t173.5 31.5zM428 946h432v105q0 59 14 110q-29 31 -88.5 55.5t-132.5 24.5q-105 0 -165 -60.5t-60 -168.5v-66z" />
<glyph unicode="&#xfb04;" horiz-adv-x="1880" d="M1260 1454q55 0 107 -12.5t86 -31t60.5 -36.5t38.5 -30l13 -13l20 62q18 41 51 41h50q17 0 31 -14t14 -31v-1344q0 -18 -13.5 -31.5t-31.5 -13.5h-115q-19 0 -32 13t-13 32v1073q-6 9 -14.5 20t-34 34.5t-53.5 41.5t-71.5 32t-90.5 14q-85 0 -141 -54t-56 -164v-96h225 q20 0 32.5 -12.5t12.5 -32.5v-98q0 -19 -12.5 -33t-32.5 -14h-225v-711q0 -19 -13 -32t-32 -13h-115q-19 0 -32 13t-13 32v711h-432v-711q0 -18 -13.5 -31.5t-31.5 -13.5h-115q-18 0 -31.5 13.5t-13.5 31.5v711h-125q-20 0 -32.5 13.5t-12.5 31.5v100q0 20 12.5 32.5 t32.5 12.5h125v66q0 187 119 304.5t313 117.5q99 0 179 -30.5t124 -68.5q49 54 128.5 86.5t173.5 32.5zM428 946h432v105q0 65 12 108q-30 32 -88.5 57t-130.5 25q-105 0 -165 -60.5t-60 -168.5v-66z" />
<glyph horiz-adv-x="1095" d="M63 150q0 51 17 95t41 71t48 46t41 27l17 8q-8 8 -19.5 23.5t-30.5 65.5t-19 104q0 168 112.5 272.5t294.5 104.5h414q19 0 32 -12.5t13 -32.5v-58q0 -13 -8 -26.5t-19 -14.5l-135 -37q4 -2 11.5 -7t26 -23.5t32.5 -41t25.5 -60.5t11.5 -81q0 -154 -110 -253t-292 -99 q-53 0 -100 9.5t-74 19.5t-33 10q-13 0 -32.5 -6.5t-41.5 -30t-22 -57.5q0 -39 30 -59.5t85 -20.5h319q367 0 367 -264q0 -157 -131.5 -244.5t-366.5 -87.5q-241 0 -355 69.5t-114 192.5q0 43 17.5 77.5t45 54.5t44.5 29.5t33 14.5v6q-175 50 -175 216zM569 401q93 0 148 48 t55 137q0 95 -54 140.5t-149 45.5q-97 0 -155 -46t-58 -140q0 -89 58.5 -137t154.5 -48zM297 -203q0 -123 268 -123q50 0 87.5 2.5t78.5 10t67.5 21t44 38t17.5 57.5q0 41 -41 69t-121 28h-260q-63 0 -102 -28t-39 -75z" />
<glyph horiz-adv-x="618" d="M461 1585l-344 148q-12 6 -16 20t3 29l48 90q7 12 26 12.5t27 -6.5l321 -186q10 -5 14 -16t-1 -23l-29 -58q-11 -26 -49 -10z" />
<glyph horiz-adv-x="618" d="M180 1585q-37 -17 -49 10l-29 58q-5 13 -0.5 23.5t13.5 15.5l321 186q8 7 27 6.5t26 -12.5l48 -90q8 -15 4 -29t-17 -20z" />
<glyph horiz-adv-x="763" d="M172 1575q-19 -10 -28.5 -8.5t-18.5 14.5l-41 55q-6 11 -2 21.5t14 17.5l256 201q9 8 24 8t25 -8l256 -201q10 -7 14.5 -17.5t-1.5 -21.5l-41 -55q-10 -13 -18.5 -15t-28.5 9l-205 133z" />
<glyph horiz-adv-x="763" d="M352 1573l-256 201q-10 7 -14 17t2 21l41 56q9 13 18.5 14.5t28.5 -8.5l205 -133l205 133q20 11 28.5 9t18.5 -15l41 -56q14 -20 -13 -38l-256 -201q-10 -7 -25 -7t-24 7z" />
<glyph horiz-adv-x="763" d="M225 1325q0 60 42 94.5t110 34.5q79 0 128.5 -50.5t49.5 -148.5q0 -153 -109 -270q-17 -17 -40 -2l-50 37q-12 9 -12 20.5t10 20.5q27 24 44.5 62t17.5 75q0 23 -6 35q-5 -5 -24 -12t-42 -7q-53 0 -86 32t-33 79z" />
<glyph horiz-adv-x="778" d="M137 1622l-47 31q-26 15 -12 47q13 27 23.5 44.5t37 53t62.5 55t78 19.5q40 0 75.5 -20.5t56 -45t45.5 -45t46 -20.5q16 0 30.5 9.5t21 18.5t18 29t14.5 25q21 35 51 18q5 -4 17 -11t21.5 -14t14.5 -14q11 -17 -6 -55q-10 -23 -23.5 -44t-37 -48.5t-57.5 -44.5t-74 -17 q-35 0 -69.5 21t-57.5 45.5t-48.5 45.5t-44.5 21q-51 0 -88 -84q-8 -19 -17 -24t-30 4z" />
<glyph horiz-adv-x="970" d="M719 1589q-54 0 -90.5 37.5t-36.5 91.5t36.5 90.5t90.5 36.5t91.5 -36.5t37.5 -90.5t-37.5 -91.5t-91.5 -37.5zM250 1589q-54 0 -90.5 37.5t-36.5 91.5t36.5 90.5t90.5 36.5t91.5 -36.5t37.5 -90.5t-37.5 -91.5t-91.5 -37.5z" />
<glyph horiz-adv-x="847" d="M162 1667q-17 0 -28 11t-11 26v57q0 17 11 28t28 11h524q17 0 28 -11t11 -28v-57q0 -15 -11 -26t-28 -11h-524z" />
<glyph horiz-adv-x="708" d="M354 1573q-109 0 -188 67.5t-94 169.5q-3 18 5.5 30.5t26.5 12.5h60q29 0 37 -32q18 -54 58 -86.5t95 -32.5q49 0 90.5 35t57.5 84q10 32 37 32h63q18 0 27 -12.5t6 -30.5q-17 -102 -96 -169.5t-185 -67.5z" />
<glyph horiz-adv-x="593" d="M297 1548q-95 0 -161 66.5t-66 161.5t66 161t161 66q94 0 160.5 -66t66.5 -161t-66.5 -161.5t-160.5 -66.5zM297 1661q44 0 76.5 35t32.5 80q0 44 -32.5 76t-76.5 32q-47 0 -81 -32t-34 -76q0 -45 33.5 -80t81.5 -35z" />
<glyph horiz-adv-x="802" d="M463 1573q-24 0 -34 11.5t-5 27.5l88 289q11 38 39 38h117q29 0 39.5 -15.5t-2.5 -35.5l-160 -284q-18 -31 -37 -31h-45zM123 1573q-21 0 -32.5 12t-6.5 27l88 289q11 38 39 38h117q28 0 38 -15.5t-1 -35.5l-160 -284q-15 -31 -37 -31h-45z" />
<glyph horiz-adv-x="448" d="M221 1608q-57 0 -96 40t-39 97q0 59 39 99t96 40q59 0 99 -40t40 -99q0 -57 -40.5 -97t-98.5 -40z" />
<glyph horiz-adv-x="505" d="M231 6h125l-90 -137q12 4 39 4q74 0 124 -41.5t50 -126.5q0 -100 -66 -152.5t-167 -52.5q-109 0 -170 54q-16 16 0 53l18 37q17 39 49 14q40 -35 95 -35q47 0 74.5 22.5t27.5 63.5q0 39 -27.5 58.5t-72.5 19.5q-17 0 -31 -3.5t-29.5 -9.5t-19.5 -7q-13 -6 -26 7t-7 27z " />
<glyph horiz-adv-x="565" d="M422 6q-32 -20 -62.5 -44t-66.5 -59t-58 -77t-22 -82q0 -94 88 -94q64 0 127 55q12 12 24.5 7.5t12.5 -19.5l2 -90q0 -41 -29 -60q-81 -47 -178 -47q-101 0 -156 59t-55 152q0 55 20.5 104t58.5 89t66 62.5t68 49.5z" />
<glyph horiz-adv-x="598" d="M473 1227q0 -60 -42 -94.5t-109 -34.5q-80 0 -129.5 50t-49.5 148q0 154 109 271q17 17 41 2l49 -37q12 -9 12 -20.5t-10 -20.5q-27 -24 -44 -61.5t-17 -75.5q0 -23 6 -35q5 5 23.5 11.5t41.5 6.5q53 0 86 -31.5t33 -78.5z" />
<glyph horiz-adv-x="598" d="M143 -258q0 60 42 94.5t110 34.5q79 0 128.5 -50.5t49.5 -148.5q0 -154 -108 -270q-17 -17 -41 -2l-50 37q-12 9 -12 20t10 21q27 24 44.5 62t17.5 75q0 23 -6 35q-5 -5 -24 -12t-42 -7q-53 0 -86 32t-33 79z" />
<glyph horiz-adv-x="403" d="M193 946q-15 0 -27 11t-12 26v678q0 17 11.5 28t27.5 11h20q15 0 26 -11t11 -28v-678q0 -15 -12 -26t-27 -11h-18zM154 371q0 17 11.5 28t27.5 11h20q15 0 26 -11t11 -28v-678q0 -15 -12 -26t-27 -11h-18q-15 0 -27 11t-12 26v678z" />
<glyph d="M614 -20q-247 0 -374 193t-127 544q0 353 127 545t374 192q246 0 373 -192.5t127 -544.5q0 -351 -127.5 -544t-372.5 -193zM614 164q145 0 216 142.5t71 410.5q0 265 -71 407t-216 142q-288 0 -288 -549q0 -553 288 -553z" />
<glyph d="M240 0q-17 0 -29 11t-12 28v90q0 17 12 28t29 11h335v1001l-278 -129q-13 -6 -26 -1t-19 18l-31 61q-16 37 15 56l395 239q38 21 76 21h36q17 0 28 -11.5t11 -27.5v-1227h273q19 0 30 -11t11 -28v-90q0 -17 -11 -28t-30 -11h-815z" />
<glyph d="M465 184v-2h536q15 0 27 -13t12 -28v-100q0 -17 -12 -29t-27 -12h-817q-17 0 -29 12t-12 29v16q0 26 3.5 36t23.5 32q80 92 257 304.5t249 295.5q160 187 160 307q0 42 -15 81t-45 73.5t-82 55t-119 20.5q-138 0 -266 -142q-13 -12 -29 -12t-28 12l-72 72q-10 10 -11 26 t9 29q6 8 18.5 22t53 50t85 63t113.5 49.5t140 22.5q110 0 198.5 -33.5t145 -91t87 -131.5t30.5 -158q0 -110 -48.5 -196.5t-154.5 -212.5q-195 -238 -381 -447z" />
<glyph d="M137 166q-9 12 -8.5 27t10.5 24l84 76q29 26 56 -4q3 -3 22 -19t27 -22t28.5 -20.5t34 -22t37 -18t44 -16t48 -9.5t55.5 -4q129 0 202 65t73 172q0 116 -87.5 177t-256.5 61h-117q-41 0 -41 45v90q0 45 43 45h117q145 0 227 63t82 160q0 104 -71 167t-181 63 q-84 0 -149 -36.5t-105 -82.5q-9 -12 -25 -14t-30 10l-78 69q-12 11 -11.5 28t11.5 28q7 8 20 20.5t54.5 44.5t86 56.5t110 44.5t129.5 20q198 0 325 -105.5t127 -281.5q0 -110 -71 -199.5t-156 -130.5v-6q37 -16 66 -30.5t68.5 -44.5t65.5 -63.5t45 -86.5t19 -115 q0 -186 -133 -298.5t-352 -112.5q-92 0 -171.5 20.5t-134 54t-85 58.5t-54.5 53z" />
<glyph d="M115 313q-17 0 -28 12.5t-11 28.5v86q0 39 24 74l654 901q19 25 32.5 32t44.5 7h52q17 0 29 -12t12 -29v-924h149q19 0 30 -10.5t11 -27.5v-99q0 -16 -11.5 -27.5t-29.5 -11.5h-147v-272q0 -17 -12 -29t-29 -12h-123q-17 0 -29 12t-12 29v272h-606zM307 496v-7h422v609 h-6z" />
<glyph d="M184 154q-21 25 -21.5 38.5t17.5 32.5q9 8 36 34.5t42 39.5q29 25 51 0q132 -137 293 -137q129 0 208 82.5t79 216.5q0 117 -75.5 192.5t-217.5 75.5h-324q-29 0 -47 23.5t-18 50.5v592q0 15 12 27t29 12h651q17 0 29 -12t12 -27v-105q0 -15 -12 -27t-29 -12h-502v-333 h213q229 0 357.5 -123.5t128.5 -331.5q0 -210 -141.5 -346.5t-358.5 -136.5q-81 0 -152 17.5t-121.5 46.5t-82.5 55.5t-56 54.5z" />
<glyph d="M141 569q0 121 29 231t74.5 192t110 155t127.5 122.5t134 91.5t122.5 65t101.5 40q40 12 53 -24l35 -88q16 -44 -37 -60q-35 -12 -82.5 -34.5t-115 -64.5t-125.5 -91t-108.5 -118.5t-70.5 -143.5q17 10 48.5 25t100.5 34t132 19q84 0 162.5 -31t140.5 -87.5t99.5 -144.5 t37.5 -194q0 -131 -64 -242.5t-172.5 -176t-234.5 -64.5q-123 0 -219 46t-156.5 126.5t-91.5 186.5t-31 230zM637 168q117 0 197.5 86t80.5 207q0 119 -81 203t-199 84q-58 0 -111 -18.5t-88 -47t-57 -52.5t-33 -44q-5 -55 2 -111.5t28 -112t54.5 -98.5t87 -69.5 t119.5 -26.5z" />
<glyph d="M831 1245v4h-630q-19 0 -29 11.5t-10 27.5v107q0 16 10.5 27.5t28.5 11.5h862q17 0 29 -12t12 -27t-8 -33l-572 -1305q-14 -34 -29 -45.5t-53 -11.5h-96q-21 0 -35 12t-14 29q0 23 12 51z" />
</font>
</defs>
</svg>
