<?xml version="1.0" standalone="no"?>
<!DOCTYPE svg PUBLIC "-//W3C//DTD SVG 1.1//EN" "http://www.w3.org/Graphics/SVG/1.1/DTD/svg11.dtd" >
<svg xmlns="http://www.w3.org/2000/svg">
<metadata></metadata>
<defs>
<font id="brandon_textthin_italic" horiz-adv-x="1228" >
<font-face units-per-em="2048" ascent="1434" descent="-614" />
<missing-glyph horiz-adv-x="491" />
<glyph unicode="fi" horiz-adv-x="1064" d="M84 -487q-14 0 -10 18l190 1378h-149q-6 0 -11 5.5t-4 11.5l2 8q2 12 17 12h151l17 109q17 107 54 185.5t88.5 124.5t111.5 67.5t131 21.5q58 0 108 -14t84 -37t54.5 -42.5t35.5 -41.5q9 -12 -2 -21l-8 -6q-11 -7 -18 2q-13 18 -31.5 36t-49.5 39.5t-76 34.5t-97 13 q-132 0 -225.5 -87t-122.5 -275l-17 -109h613q14 0 14 -16l-129 -914q-3 -16 -14 -16h-13q-5 0 -9 4.5t-1 11.5l125 893h-592l-192 -1378q-4 -18 -17 -18h-8z" />
<glyph unicode="fl" horiz-adv-x="1120" d="M82 -487q-12 0 -8 18l190 1378h-149q-19 0 -15 15l2 10q2 12 17 12h151l19 129q16 107 53.5 183.5t91.5 118t112.5 59.5t127.5 18q109 0 190 -40t125 -89l12 92q3 17 17 17h10q13 0 10 -17l-198 -1401q-3 -16 -15 -16h-10q-13 0 -10 16l176 1264q-118 137 -307 137 q-299 0 -348 -342l-19 -129h402q17 0 14 -14l-2 -8q-4 -15 -19 -15h-401l-190 -1378q-4 -18 -19 -18h-10z" />
<glyph unicode="ffh" horiz-adv-x="2342" d="M1434 0h-9q-17 0 -14 16l180 1264q-42 49 -119.5 93t-183.5 44q-139 0 -233.5 -91.5t-118.5 -264.5l-18 -115h401q17 0 14 -14l-2 -8q-4 -15 -18 -15h-402l-190 -1378q-4 -18 -19 -18h-8q-6 0 -9.5 5.5t-2.5 12.5l192 1378h-571l-192 -1378q-4 -18 -15 -18h-10 q-6 0 -9.5 5.5t-2.5 12.5l192 1378h-129q-8 0 -11.5 3.5t-2.5 9.5l2 12q2 12 18 12h129l11 68q15 111 55.5 194.5t98.5 131.5t125 71t143 23q105 0 179.5 -37t112.5 -80q49 66 126 101.5t165 35.5q101 0 184 -40.5t125 -88.5l15 92q3 17 16 17h8q6 0 10 -5t3 -12l-90 -629 q29 32 55 56t70 56t98.5 49.5t113.5 17.5q332 0 267 -439l-74 -512q-3 -16 -14 -16h-9q-17 0 -14 16l74 512q29 205 -27.5 303.5t-202.5 98.5q-187 0 -340 -198q-3 -4 -4 -5l-102 -711q-3 -16 -16 -16zM309 946h572l18 115q20 131 74 223q-34 44 -106 78.5t-162 34.5 q-70 0 -131 -21t-114.5 -64.5t-90.5 -119.5t-50 -178z" />
<glyph unicode="fk" horiz-adv-x="1552" d="M815 0q-17 0 -14 16l180 1264q-118 137 -307 137q-299 0 -348 -342l-19 -129h402q17 0 14 -14l-2 -8q-4 -15 -19 -15h-401l-190 -1378q-4 -18 -19 -18h-10q-12 0 -8 18l190 1378h-149q-19 0 -15 15l2 10q2 12 17 12h151l19 129q16 107 53.5 183.5t91.5 118t112.5 59.5 t127.5 18q107 0 188.5 -40t124.5 -89l14 92q3 17 17 17h8q7 0 12 -5t4 -12l-127 -872l588 413q10 7 19 -2l8 -12q5 -10 -6 -18l-574 -406l457 -497q9 -9 -2 -21l-8 -8q-12 -12 -23 2l-463 512l-69 -492q-3 -16 -19 -16h-8z" />
<glyph unicode="fj" horiz-adv-x="1064" d="M748 -133l145 1042h-592l-192 -1378q-4 -18 -17 -18h-8q-14 0 -10 18l190 1378h-149q-6 0 -11 5.5t-4 11.5l2 8q2 12 17 12h151l17 109q17 107 54 185.5t88.5 124.5t111.5 67.5t131 21.5q58 0 108 -14t84 -37t54.5 -42.5t35.5 -41.5q9 -12 -2 -21l-8 -6q-11 -7 -18 2 q-13 18 -31.5 36t-49.5 39.5t-76 34.5t-97 13q-132 0 -225.5 -87t-122.5 -275l-17 -109h613q14 0 14 -16l-150 -1063q-24 -171 -100 -259t-217 -118q-18 -3 -21 10l-2 11q-1 7 3.5 10.5t13.5 5.5q129 30 196.5 106.5t90.5 233.5z" />
<glyph unicode="ffj" horiz-adv-x="1677" d="M309 946h572l16 111q24 148 82 237q-92 103 -274 103q-327 0 -386 -383zM1360 -133l145 1042h-594l-192 -1378q-4 -18 -17 -18h-8q-6 0 -9.5 5.5t-2.5 12.5l192 1378h-571l-192 -1378q-4 -18 -15 -18h-10q-6 0 -9.5 5.5t-2.5 12.5l192 1378h-129q-8 0 -11.5 3.5t-2.5 9.5 l2 12q2 12 18 12h129l11 68q65 420 422 420q108 0 187 -34t112 -73q102 127 278 127q109 0 178 -42t105 -93q9 -12 -2 -21l-9 -6q-11 -7 -18 2q-13 18 -31.5 36t-49.5 39.5t-76 34.5t-97 13q-138 0 -229 -90.5t-119 -271.5l-16 -109h614q14 0 14 -16l-149 -1063 q-24 -171 -100 -259t-218 -118q-17 -3 -20 10l-2 11q-2 12 16 16q129 30 196.5 106.5t90.5 233.5z" />
<glyph unicode="fb" horiz-adv-x="1765" d="M813 0q-15 0 -12 16l180 1264q-118 137 -307 137q-299 0 -348 -342l-19 -129h402q17 0 14 -14l-2 -8q-4 -15 -19 -15h-401l-190 -1378q-4 -18 -19 -18h-10q-12 0 -8 18l190 1378h-149q-19 0 -15 15l2 10q2 12 17 12h151l19 129q16 107 53.5 183.5t91.5 118t112.5 59.5 t127.5 18q107 0 188.5 -40t124.5 -89l14 92q3 17 15 17h10q6 0 10.5 -5t3.5 -12l-84 -571q6 5 16 13t43 29t68 37t87 29t102 13q164 0 263 -119t99 -301q0 -117 -39 -223.5t-104 -182t-151 -120t-177 -44.5q-114 0 -191 47t-114 107l-18 -115q-3 -16 -17 -16h-10zM866 195 q2 -7 12 -25t35 -45.5t57 -51.5t83.5 -41.5t109.5 -17.5q112 0 212 71.5t161 195t61 266.5q0 165 -90.5 274t-234.5 109q-55 0 -108 -15t-90 -36.5t-66 -43t-44 -36.5l-14 -15z" />
<glyph unicode="ffk" horiz-adv-x="2162" d="M1425 0q-17 0 -14 16l180 1264q-42 49 -119.5 93t-183.5 44q-139 0 -233.5 -91.5t-118.5 -264.5l-18 -115h401q17 0 14 -14l-2 -8q-4 -15 -18 -15h-402l-190 -1378q-4 -18 -19 -18h-8q-6 0 -9.5 5.5t-2.5 12.5l192 1378h-571l-192 -1378q-4 -18 -15 -18h-10 q-6 0 -9.5 5.5t-2.5 12.5l192 1378h-129q-8 0 -11.5 3.5t-2.5 9.5l2 12q2 12 18 12h129l11 68q15 111 55.5 194.5t98.5 131.5t125 71t143 23q105 0 179.5 -37t112.5 -80q49 66 126 101.5t165 35.5q101 0 184 -40.5t125 -88.5l15 92q3 17 16 17h8q7 0 12.5 -5t4.5 -12 l-127 -872l588 413q10 6 18 -2l8 -12q5 -10 -6 -18l-573 -406l456 -497q9 -9 -2 -21l-8 -8q-12 -12 -22 2l-463 512l-70 -492q-3 -16 -18 -16h-9zM309 946h572l18 115q20 131 74 223q-34 44 -106 78.5t-162 34.5q-70 0 -131 -21t-114.5 -64.5t-90.5 -119.5t-50 -178z" />
<glyph unicode="fh" horiz-adv-x="1732" d="M823 0h-8q-17 0 -14 16l180 1264q-118 137 -307 137q-299 0 -348 -342l-19 -129h402q17 0 14 -14l-2 -8q-4 -15 -19 -15h-401l-190 -1378q-4 -18 -19 -18h-10q-12 0 -8 18l190 1378h-149q-19 0 -15 15l2 10q2 12 17 12h151l19 129q16 107 53.5 183.5t91.5 118t112.5 59.5 t127.5 18q107 0 188.5 -40t124.5 -89l14 92q3 17 17 17h8q15 0 12 -17l-90 -629q162 179 338 179q331 0 266 -439l-73 -512q-3 -16 -15 -16h-8q-17 0 -14 16l74 512q29 205 -27.5 303.5t-202.5 98.5q-187 0 -340 -198q-3 -4 -4 -5l-102 -711q-3 -16 -17 -16z" />
<glyph unicode="ffb" horiz-adv-x="2375" d="M1423 0q-15 0 -12 16l180 1264q-42 49 -119.5 93t-183.5 44q-139 0 -233.5 -91.5t-118.5 -264.5l-18 -115h401q17 0 14 -14l-2 -8q-4 -15 -18 -15h-402l-190 -1378q-4 -18 -19 -18h-8q-6 0 -9.5 5.5t-2.5 12.5l192 1378h-571l-192 -1378q-4 -18 -15 -18h-10 q-6 0 -9.5 5.5t-2.5 12.5l192 1378h-129q-8 0 -11.5 3.5t-2.5 9.5l2 12q2 12 18 12h129l11 68q15 111 55.5 194.5t98.5 131.5t125 71t143 23q105 0 179.5 -37t112.5 -80q49 66 126 101.5t165 35.5q101 0 184 -40.5t125 -88.5l15 92q3 17 14 17h10q6 0 11 -5t4 -12l-84 -571 q6 5 16 13t43 29t67.5 37t86.5 29t102 13q164 0 263.5 -119t99.5 -301q0 -117 -39 -223.5t-104 -182t-151 -120t-177 -44.5q-114 0 -191.5 47t-114.5 107l-18 -115q-3 -16 -16 -16h-11zM1477 195q2 -7 12 -25t35 -45.5t57 -51.5t83.5 -41.5t109.5 -17.5q112 0 212 71.5 t161 195t61 266.5q0 165 -91 274t-235 109q-55 0 -108 -15t-90 -36.5t-66 -43t-43 -36.5l-14 -15zM309 946h572l18 115q20 131 74 223q-34 44 -106 78.5t-162 34.5q-70 0 -131 -21t-114.5 -64.5t-90.5 -119.5t-50 -178z" />
<glyph unicode="&#xd;" horiz-adv-x="0" />
<glyph unicode=" "  horiz-adv-x="491" />
<glyph unicode="&#x09;" horiz-adv-x="491" />
<glyph unicode="&#xa0;" horiz-adv-x="491" />
<glyph unicode="!" horiz-adv-x="462" d="M221 547q-12 0 -12 14l121 858q0 15 18 15h6q13 0 13 -15l-123 -858q0 -6 -5 -10t-10 -4h-8zM104 23q0 23 17 38t39 15q17 0 28 -12t11 -29q0 -22 -16 -38.5t-38 -16.5q-17 0 -29 13t-12 30z" />
<glyph unicode="&#x22;" horiz-adv-x="610" d="M500 1026q-13 0 -13 14l54 379q0 15 14 15h8q12 0 12 -15l-55 -379q0 -6 -4.5 -10t-9.5 -4h-6zM225 1026q-5 0 -8 4t-2 10l51 379q4 15 17 15h8q5 0 8 -4.5t2 -10.5l-53 -379q-4 -14 -17 -14h-6z" />
<glyph unicode="#" horiz-adv-x="1091" d="M158 16l135 428h-178q-5 0 -8.5 4.5t-2.5 10.5l2 6q4 14 13 14h182l125 398h-199q-15 0 -12 14l2 8q3 14 14 14h207l160 508q4 13 14 13h6q16 0 13 -17l-160 -504h322l159 508q4 13 13 13h8q17 0 10 -17l-158 -504h174q5 0 8.5 -4t2.5 -10l-2 -8q-4 -14 -13 -14h-180 l-123 -398h195q15 0 12 -14l-2 -6q-4 -15 -14 -15h-203l-135 -432q-4 -12 -15 -12h-8q-16 0 -10 16l135 428h-321l-136 -432q-4 -12 -14 -12h-8q-16 0 -10 16zM338 479h319l123 398h-319z" />
<glyph unicode="$" d="M172 150q-8 8 2 18l10 8q12 8 19 -2q54 -57 98 -87q103 -68 231 -71l99 695q-65 20 -112 39t-93 47t-74 61t-45.5 79.5t-17.5 104.5q0 73 26.5 143t78.5 130.5t140.5 98t200.5 38.5l13 88q0 6 4.5 10t9.5 4h8q12 0 12 -14l-14 -90q76 -4 146 -29.5t102 -48.5l33 -24 q9 -7 0 -25q-10 -19 -25 -8l-6 4q-5 4 -12 9t-18 12.5t-25 14.5l-30 15t-35.5 15t-40 13t-45 10t-48.5 5q-14 -97 -94 -676q82 -27 139.5 -57t103.5 -71t68.5 -97t22.5 -127q0 -114 -64.5 -207t-165 -144t-213.5 -54l-31 -232q-4 -12 -16 -12q-9 0 -14 2.5t-4 9.5l32 232 q-59 2 -116 18t-95 36.5t-72 47t-48.5 41.5t-24.5 27zM635 748l94 667q-83 -1 -151.5 -23.5t-114.5 -58.5t-77.5 -83.5t-45.5 -98t-14 -102.5q0 -63 21.5 -111t65 -83t95.5 -59.5t127 -47.5zM567 16q101 4 192.5 52.5t149.5 133t58 183.5q0 63 -21 113t-63.5 87t-94.5 63.5 t-124 51.5z" />
<glyph unicode="%" horiz-adv-x="1316" d="M416 874q-96 0 -158.5 73t-62.5 179q0 137 91 232.5t212 95.5q95 0 158 -73t63 -177q0 -138 -91 -234t-212 -96zM170 8q-7 7 0 17l963 1405q6 10 14 2l12 -7q11 -5 2 -16l-962 -1405q-7 -11 -15 -6zM422 911q103 0 182.5 85t79.5 202q0 92 -54 155.5t-138 63.5 q-104 0 -182.5 -85t-78.5 -202q0 -93 53 -156t138 -63zM639 229q0 138 91.5 234t213.5 96q94 0 157.5 -73.5t63.5 -178.5q0 -137 -91.5 -232t-211.5 -95q-97 0 -160 72.5t-63 176.5zM676 236q0 -93 53.5 -156.5t136.5 -63.5q104 0 182 85t78 202q0 93 -52.5 156t-135.5 63 q-104 0 -183 -84.5t-79 -201.5z" />
<glyph unicode="&#x26;" horiz-adv-x="1288" d="M133 307q0 69 18 130.5t48.5 109t76 90.5t94.5 75.5t111 63.5l-43 62q-102 142 -102 274q0 139 102 240.5t246 101.5q83 0 140.5 -38.5t82.5 -96.5t25 -129q0 -127 -108.5 -233.5t-284.5 -188.5l374 -492q103 114 161.5 262.5t58.5 274.5q0 16 12 16h12q12 0 12 -16 q0 -130 -61.5 -288t-169.5 -275l174 -221q8 -9 0 -17l-16 -12q-6 -6 -15 2l-170 219q-99 -112 -225.5 -176.5t-257.5 -64.5q-136 0 -215.5 95t-79.5 232zM514 793q84 40 148.5 80.5t119.5 89.5t84 106.5t29 120.5q0 95 -54 162t-161 67q-119 0 -214 -89t-95 -216 q0 -120 90 -250q34 -47 53 -71zM168 305q0 -122 71.5 -206.5t192.5 -84.5q123 0 242 63.5t215 172.5l-383 502q-60 -31 -106.5 -61.5t-91.5 -72t-74.5 -86t-47.5 -103t-18 -124.5z" />
<glyph unicode="'" horiz-adv-x="337" d="M227 1026q-12 0 -12 14l53 379q0 6 4.5 10.5t10.5 4.5h10q14 0 10 -15l-53 -379q-4 -14 -14 -14h-9z" />
<glyph unicode="(" horiz-adv-x="655" d="M129 428q0 158 18.5 294.5t50 238.5t76.5 184.5t95 138t108 93.5t114 56t114 21q15 0 12 -14v-8q0 -6 -5.5 -10.5t-11.5 -4.5q-78 -4 -151 -37t-144 -108t-123 -184.5t-84 -279t-32 -380.5q0 -116 17.5 -209t47 -155t70.5 -104t86 -62t96 -23q13 0 13 -14l-2 -8 q0 -4 -5 -8.5t-10 -4.5q-70 3 -130.5 36.5t-111 100.5t-79.5 182.5t-29 268.5z" />
<glyph unicode=")" horiz-adv-x="655" d="M-27 -125q55 6 107.5 24.5t106.5 55.5t100.5 90t87.5 132t70 176.5t46 228t17 282.5q0 145 -26 254t-72 171t-100.5 93t-119.5 35q-6 0 -9.5 4.5t-2.5 10.5l2 10q3 12 15 12q70 -4 130.5 -38t111 -100.5t79.5 -182t29 -267.5q0 -218 -35.5 -395t-92.5 -290.5t-133.5 -191 t-154.5 -111.5t-160 -38q-12 0 -12 13v8q0 6 5 10t11 4z" />
<glyph unicode="*" horiz-adv-x="821" d="M438 831q-12 0 -12 15l37 254l-215 -127q-12 -6 -15 2l-6 14q-4 11 9 15l213 129l-179 129q-8 4 -2 14q4 4 8 12q6 12 17 4l178 -127l37 254q0 6 4.5 10.5t9.5 4.5h8q13 0 13 -15l-37 -254l215 127q11 6 16 -4l4 -12q3 -9 -6 -14l-215 -129l178 -129q8 -4 4 -15l-10 -14 q-5 -7 -16 -2l-178 127l-37 -254q0 -6 -4.5 -10.5t-10.5 -4.5h-8z" />
<glyph unicode="+" d="M559 313l55 381h-342q-6 0 -9.5 4.5t-2.5 10.5l2 8q4 14 14 14h342l54 379q4 14 16 14h8q13 0 13 -14l-54 -379h338q6 0 10 -4t3 -10l-2 -8q-4 -15 -15 -15h-340l-53 -381q-4 -14 -16 -14h-9q-12 0 -12 14z" />
<glyph unicode="," horiz-adv-x="364" d="M47 23q0 23 19 39t43 16q38 0 57.5 -40t19.5 -97q0 -79 -39 -151.5t-108 -123.5q-17 -12 -23 0l-6 12q-6 12 8 23q58 41 92.5 104t34.5 136q0 36 -10 59q-20 -20 -45 -20q-19 0 -31 12t-12 31z" />
<glyph unicode="-" horiz-adv-x="753" d="M141 498q-5 0 -8 4t-2 10l2 8q4 15 14 15h447q5 0 7 -4.5t1 -10.5l-2 -8q-4 -14 -12 -14h-447z" />
<glyph unicode="." horiz-adv-x="368" d="M59 29q0 26 18.5 43.5t43.5 17.5q20 0 32.5 -13.5t12.5 -33.5q0 -26 -18.5 -46t-41.5 -20q-21 0 -34 15.5t-13 36.5z" />
<glyph unicode="/" horiz-adv-x="720" d="M43 0q-9 3 -2 14l647 1411q3 9 12 9h13q6 0 7.5 -6t-1.5 -11l-647 -1409q-3 -8 -17 -8h-12z" />
<glyph unicode="0" horiz-adv-x="1292" d="M561 -23q-185 0 -283 148t-98 407q0 276 71.5 484.5t205.5 323t313 114.5q183 0 281 -147.5t98 -405.5q0 -276 -71.5 -485t-205 -324t-311.5 -115zM565 14q169 0 292.5 110.5t188 309.5t64.5 465q0 242 -89 379t-257 137q-169 0 -292.5 -110t-188 -309t-64.5 -464 q0 -243 89 -380.5t257 -137.5z" />
<glyph unicode="1" horiz-adv-x="692" d="M330 14l192 1364l-346 -254q-11 -7 -14 2l-8 15q-3 7 6 14l385 285q7 7 15.5 1.5t6.5 -14.5l-198 -1413q-3 -14 -17 -14h-10q-12 0 -12 14z" />
<glyph unicode="2" horiz-adv-x="1064" d="M37 0q-9 0 -11.5 9.5t5.5 15.5l618 563q72 67 120.5 119.5t91 115t63 128.5t20.5 139q0 66 -20.5 124t-60.5 104t-105.5 72.5t-147.5 26.5q-43 0 -84 -11t-72.5 -28t-59 -38t-47 -42t-33.5 -38t-22 -28l-7 -11q-6 -12 -15 -7l-14 9q-9 9 -2 20q5 9 15.5 23t45.5 50.5 t73.5 64t100 50.5t125.5 23q120 0 205.5 -51t124.5 -130.5t39 -176.5q0 -79 -21 -150t-64.5 -137t-95.5 -122.5t-128 -125.5l-572 -522h709q12 0 12 -16l-2 -9q0 -6 -4.5 -10t-9.5 -4h-770z" />
<glyph unicode="3" horiz-adv-x="1134" d="M90 168q-6 15 2 20l10 9q10 7 17 -4q18 -25 26 -35t41.5 -42.5t64.5 -50t84 -33.5t111 -16q200 0 329.5 119.5t129.5 292.5q0 119 -81.5 208t-213.5 89h-252q-6 0 -9.5 5.5t-2.5 12.5l2 9q3 12 14 12h248q64 0 128 27.5t115.5 74.5t83.5 118t32 151q0 125 -77.5 203.5 t-209.5 78.5q-65 0 -126.5 -18t-99 -38t-76 -52.5t-46 -41t-21.5 -24.5q-7 -10 -16 -4l-10 8q-9 6 -2 17q11 14 25.5 29.5t53 46.5t81 54.5t109 41.5t136.5 18q144 0 231 -89t87 -226q0 -141 -83.5 -247t-201.5 -144v-3q99 -30 159 -119.5t60 -195.5q0 -188 -140 -319 t-356 -131q-73 0 -140 22.5t-110 55t-70 61.5t-36 49z" />
<glyph unicode="4" horiz-adv-x="1185" d="M55 336q-10 0 -12 7t4 15l977 1106q6 6 12.5 4.5t5.5 -10.5l-151 -1087h135q15 0 12 -13l-2 -10q-3 -12 -18 -12h-131l-47 -322q0 -5 -4.5 -9.5t-10.5 -4.5h-10q-5 0 -8 4t-2 10l47 322h-797zM106 371h750l143 1013z" />
<glyph unicode="5" horiz-adv-x="1130" d="M119 160q-7 13 2 20l14 8q11 8 17 -4q16 -27 38 -52t59 -53.5t93 -45.5t123 -17q134 0 246 70.5t176.5 192.5t64.5 268q0 155 -88 236t-266 81h-348q-12 0 -12 17l75 538q4 15 17 15h620q6 0 9.5 -4.5t1.5 -10.5l-3 -6q-4 -14 -16 -14h-592l-71 -498h319q192 3 292.5 -90 t100.5 -264q0 -156 -71 -286.5t-191.5 -205.5t-263.5 -75q-75 0 -136.5 17.5t-102 47.5t-65.5 57.5t-42 57.5z" />
<glyph unicode="6" horiz-adv-x="1153" d="M150 467q0 137 33.5 262.5t86.5 219t125 176.5t142 139.5t146 103t128 70.5t96 39q5 2 10 -0.5t5 -6.5l2 -14q3 -12 -11 -16q-36 -13 -79 -32.5t-105.5 -55.5t-122 -78.5t-124 -105t-116.5 -131.5t-94.5 -160.5t-62.5 -190.5q32 40 72.5 78t98.5 79t133 66t153 25 q152 0 254 -109.5t102 -285.5q0 -151 -72 -281t-187.5 -204t-242.5 -74q-89 0 -160.5 38t-116.5 104.5t-69 154.5t-24 190zM186 471q0 -129 37 -230.5t114 -163t183 -61.5q90 0 175 41t148.5 110.5t102.5 167.5t39 204q0 159 -93 258.5t-230 99.5q-57 0 -113 -15.5 t-98.5 -37t-84.5 -54.5t-67.5 -57.5t-51.5 -56.5t-33 -41.5t-15 -22.5q-13 -32 -13 -141z" />
<glyph unicode="7" horiz-adv-x="960" d="M223 18l740 1381h-777q-13 0 -10 12l2 10q3 13 10 13h816q6 0 8.5 -6.5t-0.5 -12.5l-760 -1413q-6 -11 -16 -6l-11 4q-11 4 -2 18z" />
<glyph unicode="8" horiz-adv-x="1185" d="M135 313q0 174 104.5 282.5t284.5 141.5q-117 28 -185.5 109.5t-68.5 193.5q0 75 26.5 146.5t78 132.5t138 98t196.5 37q89 0 157.5 -28t109 -75t61 -103.5t20.5 -119.5q0 -148 -100 -253t-257 -140q133 -26 212 -115t79 -206q0 -110 -38 -194.5t-105 -136t-153.5 -77.5 t-188.5 -26q-166 0 -268.5 85.5t-102.5 247.5zM618 758q173 11 286.5 109.5t113.5 260.5q0 57 -18 108t-53.5 93.5t-97.5 67t-142 24.5q-100 0 -179.5 -34t-126.5 -90t-71.5 -121t-24.5 -134q0 -123 87 -199.5t226 -84.5zM172 315q0 -147 93 -225t247 -78q122 0 220.5 43 t160 135.5t61.5 221.5q0 122 -93.5 206.5t-250.5 96.5q-200 -15 -319 -119.5t-119 -280.5z" />
<glyph unicode="9" horiz-adv-x="1155" d="M985 752q-32 -40 -72.5 -78t-99.5 -79.5t-134 -67t-153 -25.5q-152 0 -254 110.5t-102 286.5q0 113 43 216.5t112.5 177t161 117.5t185.5 44q119 0 204.5 -65t126.5 -172.5t41 -245.5q0 -137 -33.5 -263t-86.5 -220t-125.5 -177.5t-142.5 -140t-146 -103t-128 -71 t-95 -39.5q-12 -4 -15 8l-4 15q-3 12 13 16q36 13 79 32.5t105.5 55.5t121.5 79t123.5 105.5t116.5 132t94.5 161t63.5 190.5zM530 541q57 0 113 15.5t99 37.5t85 54t68 57t51.5 56t33 42t15.5 22q11 55 11 142q0 128 -37 228t-114 160t-183 60q-119 0 -225.5 -67.5 t-172 -187.5t-65.5 -261q0 -158 92.5 -258t228.5 -100z" />
<glyph unicode=":" horiz-adv-x="423" d="M252 858q-20 0 -32.5 14t-12.5 33q0 29 17.5 47.5t41.5 18.5q22 0 33.5 -13.5t11.5 -35.5q0 -25 -17.5 -44.5t-41.5 -19.5zM82 27q0 26 18 43.5t43 17.5q20 0 32.5 -13.5t12.5 -33.5q0 -27 -17.5 -46.5t-41.5 -19.5q-21 0 -34 15.5t-13 36.5z" />
<glyph unicode=";" horiz-adv-x="516" d="M276 858q-18 0 -30.5 14t-12.5 33q0 29 17 47.5t41 18.5q22 0 33.5 -13.5t11.5 -35.5q0 -25 -18 -44.5t-42 -19.5zM113 23q0 23 18.5 39t42.5 16q39 0 58.5 -40t19.5 -97q0 -79 -39 -151.5t-109 -123.5q-16 -11 -22 0l-6 12q-6 12 8 23q58 41 92.5 104t34.5 136 q0 36 -10 59q-20 -20 -45 -20q-19 0 -31 12t-12 31z" />
<glyph unicode="&#x3c;" d="M242 461q-7 6 -6.5 13.5t8.5 12.5l737 482q8 5 14 -4l6 -17q7 -10 -4 -16l-708 -463l579 -440q5 -3 5.5 -8.5t-3.5 -10.5l-8 -10q-9 -9 -16 -4z" />
<glyph unicode="=" d="M336 782q-6 0 -9.5 4.5t-2.5 10.5l2 8q4 14 16 14h608q6 0 10 -4t3 -10l-2 -8q-4 -15 -17 -15h-608zM276 360q-6 0 -9.5 4.5t-2.5 10.5l2 8q4 14 17 14h608q15 0 12 -14l-2 -8q-4 -15 -16 -15h-609z" />
<glyph unicode="&#x3e;" d="M219 -2q-13 -6 -18 2l-4 8q-8 11 4 19l706 454l-575 457q-8 8 -2 18l6 9q8 11 18 4l604 -482q6 -5 5 -12t-9 -12z" />
<glyph unicode="?" horiz-adv-x="919" d="M414 526q-5 0 -8.5 4.5t-2.5 10.5l19 123q3 20 10 39t13.5 32t23.5 29t24 23.5t31.5 23t30.5 19t35 20.5q26 15 48.5 30.5t61 49.5t64.5 68.5t46.5 86t20.5 105.5q0 94 -70 161.5t-183 67.5q-60 0 -117 -17.5t-95 -42t-67 -49t-43 -42.5l-14 -17q-10 -14 -23 -6l-8 6 q-11 7 -2 19q5 7 15.5 19.5t46 44.5t75 56t102.5 44t130 20q132 0 210 -74.5t78 -189.5q0 -60 -22.5 -116.5t-51.5 -94.5t-71.5 -75t-66 -53t-50.5 -32q-39 -23 -57 -34.5t-41.5 -32t-34 -42.5t-14.5 -51l-17 -118q-4 -15 -16 -15h-10zM311 23q0 23 16 38t38 15 q17 0 27.5 -11.5t10.5 -29.5q0 -22 -15.5 -38.5t-37.5 -16.5q-17 0 -28 12.5t-11 30.5z" />
<glyph unicode="@" horiz-adv-x="1894" d="M121 322q0 318 126.5 576t355 407t515.5 149q325 0 499.5 -189.5t174.5 -533.5q0 -190 -62.5 -348.5t-172.5 -250.5t-244 -91q-75 0 -118 46t-46 118q-113 -164 -305 -164q-136 0 -216.5 104.5t-80.5 262.5q0 209 125.5 351t298.5 142q91 0 154 -33.5t98 -76.5l10 75 q4 15 14 15h8q6 0 10 -4.5t3 -10.5l-82 -592q-12 -86 22 -141t105 -55q127 0 229.5 90.5t158.5 239.5t56 323q0 328 -164 507t-475 179q-207 0 -387 -84t-305.5 -230t-197.5 -348.5t-72 -432.5q0 -253 116.5 -450t311.5 -296q11 -6 4 -20l-4 -9q-6 -13 -17 -6 q-203 102 -324.5 309.5t-121.5 471.5zM582 410q0 -142 73.5 -237t188.5 -95q61 0 115 20.5t87.5 49.5t58 58t34.5 50l10 20l65 459q-4 10 -18.5 27.5t-42.5 42.5t-76.5 43t-105.5 18q-161 0 -275 -131.5t-114 -324.5z" />
<glyph unicode="A" horiz-adv-x="1202" d="M-18 2q-4 -8 -13 -6l-16 6q-9 3 -4 12l772 1454q3 9 12 9h2q7 0 10 -9l353 -1452q3 -10 -8 -14l-11 -4q-11 -4 -14 6l-102 426h-756zM227 465h725l-225 944h-2z" />
<glyph unicode="B" horiz-adv-x="1196" d="M141 14l199 1405q0 6 4.5 10.5t9.5 4.5h381q159 0 249.5 -81.5t90.5 -230.5q0 -140 -79.5 -240.5t-204.5 -144.5q107 -24 168 -99.5t61 -199.5q0 -194 -131.5 -316t-337.5 -122h-397q-13 0 -13 14zM283 752h360q171 0 283 102.5t112 267.5q0 132 -82 203.5t-225 71.5 h-358zM182 37h375q185 0 304.5 110.5t119.5 290.5q0 137 -83 207t-226 70h-396z" />
<glyph unicode="C" horiz-adv-x="1366" d="M141 616q0 169 65.5 325.5t172.5 268t249 178t290 66.5q137 0 237 -48t188 -142q9 -8 0 -17l-10 -10q-8 -8 -16 0q-80 90 -176 136t-223 46q-142 0 -277.5 -64.5t-237 -171.5t-163.5 -256.5t-62 -310.5q0 -166 70 -303.5t193.5 -217t273.5 -79.5q241 0 456 191q7 7 15 0 l10 -12q6 -7 -2 -15q-218 -200 -479 -200q-166 0 -298 85t-204 230t-72 321z" />
<glyph unicode="D" horiz-adv-x="1386" d="M141 14l197 1405q4 15 14 15h371q160 0 288 -84t198.5 -227t70.5 -316q0 -130 -40 -253t-112 -222.5t-166.5 -174.5t-208 -116t-231.5 -41h-370q-11 0 -11 14zM180 37h346q137 0 268 61.5t230 164t159 246t60 298.5q0 162 -66.5 296.5t-188 214t-271.5 79.5h-346z" />
<glyph unicode="E" horiz-adv-x="1120" d="M141 14l199 1405q0 6 4.5 10.5t9.5 4.5h750q6 0 9.5 -4.5t2.5 -10.5l-2 -8q-4 -14 -14 -14h-727l-88 -633h637q6 0 9.5 -4t2.5 -10l-2 -9q-4 -14 -14 -14h-639l-97 -690h725q10 0 13.5 -3.5t1.5 -10.5l-2 -9q-4 -14 -17 -14h-749q-13 0 -13 14z" />
<glyph unicode="F" horiz-adv-x="1077" d="M141 14l199 1405q0 6 4.5 10.5t9.5 4.5h750q6 0 9.5 -4.5t2.5 -10.5l-2 -8q-4 -14 -14 -14h-727l-97 -684h639q5 0 8.5 -3.5t2.5 -9.5l-4 -14q-3 -10 -19 -10h-631q-19 -126 -94 -662q0 -6 -5 -10t-11 -4h-8q-13 0 -13 14z" />
<glyph unicode="G" horiz-adv-x="1423" d="M141 616q0 169 65.5 325.5t172.5 268t249 178t290 66.5q137 0 237 -48t188 -142q9 -8 0 -17l-10 -10q-8 -8 -16 0q-80 90 -176 136t-223 46q-142 0 -277.5 -64.5t-237 -171.5t-163.5 -256.5t-62 -310.5q0 -167 69 -304t194 -216.5t280 -79.5q86 0 166.5 16.5t137 42 t91 46t53.5 37.5l70 481h-414q-13 0 -10 14l2 9q4 12 14 12h435q12 0 12 -12l-74 -519q-8 -12 -43.5 -36.5t-95 -54t-154 -51t-196.5 -21.5q-164 0 -296 85t-205 230t-73 321z" />
<glyph unicode="H" horiz-adv-x="1417" d="M141 14l199 1405q0 6 4.5 10.5t9.5 4.5h11q14 0 10 -15l-90 -655h901l92 655q4 15 14 15h11q6 0 9.5 -4.5t2.5 -10.5l-199 -1405q-4 -14 -14 -14h-10q-6 0 -10 4t-3 10l101 713h-901l-101 -713q-4 -14 -16 -14h-8q-6 0 -10 4t-3 10z" />
<glyph unicode="I" horiz-adv-x="479" d="M141 14l197 1405q4 15 16 15h8q6 0 10 -4.5t3 -10.5l-197 -1405q-4 -14 -16 -14h-8q-6 0 -10 4t-3 10z" />
<glyph unicode="J" horiz-adv-x="884" d="M250 -20q-57 0 -106 17t-80 44.5t-49 50.5t-29 45q-5 15 4 19l8 4q12 7 18 -2q80 -144 236 -144q150 0 246 110.5t125 313.5l139 981q0 15 14 15h8q6 0 9.5 -4.5t1.5 -10.5l-138 -981q-31 -218 -136.5 -338t-270.5 -120z" />
<glyph unicode="K" horiz-adv-x="1032" d="M141 14l199 1405q4 15 14 15h11q6 0 9.5 -4.5t2.5 -10.5l-96 -676l778 689q11 9 20 0l6 -7q10 -10 0 -20l-774 -682l598 -703q8 -10 -2 -20l-10 -8q-10 -7 -18 4l-605 711l-96 -693q-4 -14 -16 -14h-8q-6 0 -10 4t-3 10z" />
<glyph unicode="L" horiz-adv-x="933" d="M141 14l199 1405q4 15 14 15h11q5 0 8 -4.5t2 -10.5l-195 -1384h639q15 0 12 -12l-2 -9q-3 -14 -14 -14h-661q-13 0 -13 14z" />
<glyph unicode="M" horiz-adv-x="1626" d="M35 16l475 1442q3 10 14 10t11 -10l202 -1384l590 1384q5 10 15 10t12 -10l76 -1442q0 -14 -9 -16l-12 -2q-14 -4 -14 10l-72 1356l-584 -1380q-5 -10 -15 -10t-11 10l-197 1380l-446 -1356q-5 -12 -15 -12l-14 2q-12 3 -6 18z" />
<glyph unicode="N" horiz-adv-x="1454" d="M141 14l203 1440q2 11 12 14t15 -6l751 -1409l193 1366q4 15 16 15h8q6 0 10 -4.5t3 -10.5l-203 -1435q-2 -11 -12 -14.5t-15 5.5l-751 1409l-193 -1370q-4 -14 -16 -14h-8q-6 0 -10 4t-3 10z" />
<glyph unicode="O" horiz-adv-x="1597" d="M143 618q0 170 64.5 326t171.5 267t249.5 177t293.5 66q164 0 295 -86t203.5 -232t72.5 -323q0 -169 -65 -324.5t-171.5 -266t-249 -176.5t-292.5 -66q-164 0 -296 86t-204 231.5t-72 320.5zM180 621q0 -166 68.5 -304.5t192 -219.5t274.5 -81q142 0 277.5 63t237.5 169 t164 254t62 309q0 168 -68.5 306.5t-192 219t-275.5 80.5q-142 0 -277.5 -63t-237 -169t-163.5 -254.5t-62 -309.5z" />
<glyph unicode="P" horiz-adv-x="1138" d="M141 14l199 1405q0 6 4.5 10.5t9.5 4.5h385q156 0 259.5 -118t103.5 -286q0 -106 -41.5 -204t-109.5 -168.5t-158 -113t-183 -42.5h-362l-70 -488q-4 -14 -16 -14h-8q-6 0 -10 4t-3 10zM252 539h362q114 0 217.5 65.5t167.5 178.5t64 243q0 155 -93.5 263t-236.5 108 h-360z" />
<glyph unicode="Q" horiz-adv-x="1597" d="M143 618q0 170 64.5 326t171.5 267t249.5 177t293.5 66q164 0 295 -86t203.5 -232t72.5 -323q0 -270 -153.5 -487t-385.5 -303l158 -390q6 -9 -4 -16l-21 -10q-8 -3 -12 6l-157 397q-99 -30 -203 -30q-164 0 -296 86t-204 231.5t-72 320.5zM180 621q0 -166 68.5 -304.5 t192 -219.5t274.5 -81q142 0 277.5 63t237.5 169t164 254t62 309q0 168 -68.5 306.5t-192 219t-275.5 80.5q-142 0 -277.5 -63t-237 -169t-163.5 -254.5t-62 -309.5z" />
<glyph unicode="R" horiz-adv-x="1226" d="M141 14l199 1405q0 15 14 15h439q157 0 259.5 -108.5t102.5 -272.5q0 -187 -116 -326t-283 -172l213 -541q4 -13 -6 -16l-13 -4q-9 -3 -12 6l-213 549q-18 -2 -59 -2h-414l-76 -533q0 -6 -4.5 -10t-9.5 -4h-8q-13 0 -13 14zM256 582h410q91 0 174.5 36t145 98t98 150 t36.5 187q0 146 -94 245t-233 99h-422z" />
<glyph unicode="S" horiz-adv-x="1050" d="M84 150q-6 10 2 18l12 10q9 9 17 -2q11 -16 35 -39t65.5 -53t106.5 -50t137 -20q108 0 204 44.5t157 128t61 186.5q0 58 -17.5 105t-45.5 80.5t-75.5 63.5t-93.5 50.5t-114 44.5q-47 17 -79.5 30.5t-70.5 32.5t-63 37.5t-50 44.5t-39 55t-23 67t-9 83q0 67 27 133.5 t79.5 124t141.5 93.5t200 36q53 0 105 -10.5t87.5 -26t64 -31t42.5 -26.5l13 -10q8 -8 2 -17l-11 -12q-7 -10 -16 -4q-5 4 -14 11t-38 24.5t-60.5 31t-79 24.5t-95.5 11q-84 0 -154.5 -22t-117 -58t-79.5 -82.5t-47.5 -94.5t-14.5 -95q0 -69 21.5 -119.5t68.5 -87.5t96 -60 t129 -52q92 -32 152.5 -62t112 -73.5t75.5 -102t24 -137.5q0 -110 -62 -200.5t-166.5 -141.5t-227.5 -51q-78 0 -149.5 22t-117 53t-72.5 55.5t-36 39.5z" />
<glyph unicode="T" horiz-adv-x="948" d="M371 14l194 1383h-381q-6 0 -9.5 4t-2.5 10l2 10q3 13 14 13h803q6 0 10 -4.5t3 -10.5l-3 -10q-3 -12 -14 -12h-385l-194 -1383q-4 -14 -17 -14h-8q-15 0 -12 14z" />
<glyph unicode="U" horiz-adv-x="1366" d="M197 516l127 903q4 15 14 15h10q14 0 10 -15l-125 -903q-8 -47 -8 -102q0 -182 99.5 -290t277.5 -108q201 0 341 138.5t171 361.5l127 903q4 15 16 15h11q5 0 8 -4.5t2 -10.5l-127 -903q-35 -243 -180 -389.5t-375 -146.5q-189 0 -298.5 117.5t-109.5 314.5q0 25 9 104z " />
<glyph unicode="V" horiz-adv-x="1198" d="M492 -33l-349 1450q-4 11 7 15l16 4q9 3 12 -11l334 -1392l741 1399q5 9 15 6l14 -6q11 -4 2 -17l-768 -1448q-3 -7 -12.5 -8.5t-11.5 8.5z" />
<glyph unicode="W" horiz-adv-x="1648" d="M371 -25l-176 1446q0 10 8 13l18 4q4 1 7 -2.5t3 -8.5l164 -1364l533 1387q4 10 14 10t12 -10l160 -1384l535 1366q3 10 14 6l14 -6q11 -4 4 -17l-565 -1440q-3 -7 -8.5 -9.5t-10 0t-5.5 9.5l-162 1389l-535 -1389q-3 -7 -8.5 -9.5t-10 0t-5.5 9.5z" />
<glyph unicode="X" horiz-adv-x="1019" d="M-2 6q-8 6 0 19l510 706l-297 678q-5 14 4 18l14 9q11 6 15 -6l288 -666l482 666q7 10 16 6l12 -9q9 -5 0 -18l-491 -682l317 -704q5 -15 -6 -19l-14 -6q-10 -5 -14 6l-306 690l-499 -690q-8 -12 -17 -6z" />
<glyph unicode="Y" horiz-adv-x="1042" d="M418 14l96 688l-385 707q-8 12 4 18l12 7q9 5 17 -7l373 -690l571 693q8 12 16 6l15 -9q12 -6 0 -18l-586 -704l-96 -693q-3 -12 -15 -12h-12q-13 0 -10 14z" />
<glyph unicode="Z" horiz-adv-x="974" d="M-16 0q-9 0 -12 8t3 15l996 1374h-729q-14 0 -11 14l2 8q4 15 15 15h770q9 0 12 -8t-2 -15l-997 -1374h753q14 0 11 -14l-2 -9q-3 -14 -17 -14h-792z" />
<glyph unicode="[" horiz-adv-x="641" d="M78 -451h350q6 0 9.5 -4t2.5 -10l-2 -8q-4 -14 -14 -14h-375q-5 0 -8 4t-2 10l264 1892q4 15 16 15h373q6 0 10 -4.5t3 -10.5l-3 -8q-4 -14 -14 -14h-352z" />
<glyph unicode="\" horiz-adv-x="708" d="M481 8l-250 1413q-4 13 9 13h12q9 0 12 -9l250 -1413q4 -12 -6 -12h-12q-13 0 -15 8z" />
<glyph unicode="]" horiz-adv-x="638" d="M-78 -451h350l258 1848h-350q-14 0 -10 14l2 8q4 15 14 15h373q12 0 12 -15l-266 -1892q-3 -14 -16 -14h-373q-6 0 -9.5 4t-2.5 10l2 8q4 14 16 14z" />
<glyph unicode="^" horiz-adv-x="966" d="M125 815l-10 8q-11 8 -2 17l489 624q6 6 13 6t10 -6l305 -624q7 -10 -6 -17l-13 -8q-10 -7 -14 4l-287 598l-469 -598q-7 -10 -16 -4z" />
<glyph unicode="_" horiz-adv-x="1284" d="M254 -20h608q14 0 10 -15l-2 -8q-4 -12 -16 -12h-608q-5 0 -8 4t-2 10l2 6q4 15 16 15z" />
<glyph unicode="`" horiz-adv-x="557" d="M520 1147l-309 184q-11 7 -2 19l4 6q6 10 18 6l308 -186q10 -6 4 -15l-4 -8q-8 -12 -19 -6z" />
<glyph unicode="a" horiz-adv-x="1064" d="M102 399q0 157 65.5 287.5t177.5 205.5t245 75q103 0 175.5 -37t115.5 -86l16 86q3 16 12 16h11q13 0 10 -16l-127 -914q-3 -16 -17 -16h-10q-13 0 -10 16l16 121q-43 -57 -135.5 -108.5t-195.5 -51.5q-159 0 -254 120t-95 302zM139 401q0 -165 86 -276t226 -111 q106 0 200.5 59.5t139.5 133.5l81 581q-4 8 -14 21.5t-34.5 35.5t-55 40t-78 31.5t-100.5 13.5q-188 0 -319.5 -153t-131.5 -376z" />
<glyph unicode="b" horiz-adv-x="1067" d="M115 0q-16 0 -13 16l201 1401q3 17 14 17h11q6 0 10.5 -5t3.5 -12l-84 -571q6 5 16 13t43 29t67.5 37t86.5 29t102 13q164 0 263.5 -119t99.5 -301q0 -117 -39 -223.5t-104 -182t-151 -120t-177 -44.5q-114 0 -191 47t-114 107l-19 -115q-3 -16 -16 -16h-10zM168 195 q2 -7 12 -25t35 -45.5t57 -51.5t83.5 -41.5t109.5 -17.5q112 0 212 71.5t161 195t61 266.5q0 165 -91 274t-235 109q-55 0 -108 -15t-90 -36.5t-66 -43t-43 -36.5l-14 -15z" />
<glyph unicode="c" horiz-adv-x="1017" d="M100 408q0 161 75 290.5t195 199t257 69.5q184 0 309 -125q7 -12 -2 -21l-10 -10q-10 -9 -21 2l-11 11q-11 10 -21 18.5t-28.5 22t-40 24t-48 20.5t-59.5 15.5t-68 5.5q-95 0 -184 -39t-156.5 -106.5t-108.5 -166t-41 -210.5q0 -165 103 -279.5t247 -114.5q34 0 68.5 6.5 t63.5 17t57 24.5t49.5 28t40.5 28.5t31 25t21 18.5l9 8q9 10 17 2l10 -10q10 -10 0 -21q-9 -9 -20 -19.5t-50.5 -39t-79.5 -49.5t-99.5 -38.5t-117.5 -17.5q-162 0 -274.5 124t-112.5 307z" />
<glyph unicode="d" horiz-adv-x="1064" d="M100 399q0 120 40 226t107.5 180.5t160 118t194.5 43.5q50 0 97.5 -12.5t79 -30.5t55.5 -35.5t36 -30.5l11 -12l82 571q0 17 12 17h14q11 0 8 -17l-194 -1401q-2 -16 -17 -16h-10q-13 0 -10 16l16 115q-56 -60 -145 -107t-195 -47q-154 0 -248 120.5t-94 301.5zM137 399 q0 -164 85.5 -274.5t219.5 -110.5q59 0 115.5 18t95 41.5t71.5 52.5t47.5 46t19.5 25l83 591q-4 6 -11 15.5t-32.5 34t-54.5 43t-76 34t-98 15.5q-127 0 -234 -70.5t-169 -192.5t-62 -268z" />
<glyph unicode="e" horiz-adv-x="1009" d="M100 387q0 161 63.5 294t177 209.5t253.5 76.5q147 0 237.5 -74t90.5 -184q0 -130 -139 -202.5t-382 -72.5q-122 0 -260 21q-4 -46 -4 -64q0 -167 86 -272t238 -105q89 0 168 32t131 73q12 10 18 -2l6 -13q4 -8 -2 -14q-37 -37 -134 -75t-187 -38q-119 0 -202 57 t-121 147.5t-38 205.5zM145 492q157 -21 254 -21q227 0 356.5 62t129.5 176q0 95 -79.5 158t-211.5 63q-174 0 -298 -125t-151 -313z" />
<glyph unicode="f" horiz-adv-x="710" d="M86 -487q-6 0 -9.5 5.5t-2.5 12.5l192 1378h-129q-8 0 -11.5 3.5t-2.5 9.5l2 12q2 12 16 12h131l19 135q50 373 327 373q145 0 228 -96q10 -13 -2 -25l-4 -4q-12 -11 -23 0q-90 90 -199 90q-244 0 -290 -338l-19 -135h383q7 0 11.5 -3.5t3.5 -10.5l-2 -10q-3 -13 -17 -13 h-385l-190 -1378q-4 -18 -17 -18h-10z" />
<glyph unicode="g" horiz-adv-x="1067" d="M100 401q0 157 66 287t178.5 204.5t245.5 74.5q102 0 176 -39t117 -88l14 90q3 16 12 16h11q13 0 10 -16l-125 -924q-32 -240 -140 -347.5t-266 -107.5q-60 0 -115 19t-94 48.5t-60.5 50.5t-35.5 40q-11 13 2 23l10 8q8 5 15 -2q126 -150 280 -150q145 0 242 105.5 t125 318.5l12 82q-132 -117 -299 -117q-174 0 -277.5 120.5t-103.5 303.5zM137 401q0 -165 94 -276t250 -111q61 0 118.5 18t95.5 44t60 46t31 32l86 626q-4 8 -14 22t-34.5 37.5t-55 42.5t-78 33.5t-100.5 14.5q-123 0 -227 -69.5t-165 -191t-61 -268.5z" />
<glyph unicode="h" horiz-adv-x="1034" d="M125 0h-8q-18 0 -15 16l201 1401q3 17 16 17h9q15 0 12 -17l-90 -629q162 179 338 179q331 0 266 -439l-74 -512q-3 -16 -14 -16h-8q-18 0 -15 16l74 512q29 205 -27 303.5t-202 98.5q-187 0 -340 -198q-3 -4 -4 -5l-103 -711q-3 -16 -16 -16z" />
<glyph unicode="i" horiz-adv-x="405" d="M117 0q-18 0 -15 16l129 914q3 16 17 16h10q15 0 12 -16l-129 -914q-3 -16 -14 -16h-10zM293 1239q-19 0 -30 12.5t-11 30.5q0 22 16.5 38.5t38.5 16.5q18 0 28.5 -12.5t10.5 -30.5q0 -22 -15 -38.5t-38 -16.5z" />
<glyph unicode="j" horiz-adv-x="403" d="M297 1239q-19 0 -30 12.5t-11 30.5q0 22 16.5 38.5t38.5 16.5q18 0 28.5 -12.5t10.5 -30.5q0 -22 -15 -38.5t-38 -16.5zM256 946q15 0 12 -16l-149 -1063q-23 -170 -99.5 -258.5t-218.5 -118.5q-17 -3 -20 10l-2 11q-2 12 16 16q129 30 196.5 106.5t90.5 233.5l149 1063 q3 16 17 16h8z" />
<glyph unicode="k" horiz-adv-x="854" d="M117 0q-18 0 -15 16l201 1401q3 17 16 17h9q7 0 12 -5t4 -12l-127 -872l588 413q10 6 18 -2l8 -12q5 -10 -6 -18l-573 -406l457 -497q9 -9 -2 -21l-9 -8q-12 -12 -22 2l-463 512l-70 -492q-3 -16 -18 -16h-8z" />
<glyph unicode="l" horiz-adv-x="438" d="M141 0h-8q-17 0 -14 16l200 1401q3 17 15 17h10q5 0 9 -5t3 -12l-198 -1401q-3 -16 -17 -16z" />
<glyph unicode="m" horiz-adv-x="1562" d="M117 0q-18 0 -15 16l129 914q3 16 15 16h10q15 0 12 -16l-16 -129q129 166 317 166q184 0 240 -181q134 181 321 181q314 0 252 -439l-71 -512q-3 -16 -17 -16h-8q-17 0 -14 16l74 512q29 203 -24 302.5t-192 99.5q-34 0 -66 -7t-57 -17t-49.5 -26.5t-40.5 -29.5 t-34.5 -33.5t-27 -31t-21.5 -28.5t-15 -20q13 -76 -6 -209l-72 -512q-3 -16 -16 -16h-8q-18 0 -15 16l74 512q28 196 -23.5 299t-183.5 103q-202 0 -327 -195l-101 -719q-3 -16 -16 -16h-8z" />
<glyph unicode="n" horiz-adv-x="1036" d="M102 16l131 914q3 16 15 16h10q10 0 10 -16l-16 -129q155 166 338 166q331 0 266 -439l-72 -512q-3 -16 -16 -16h-10q-16 0 -13 16l74 512q59 402 -229 402q-69 0 -132.5 -23.5t-107 -60t-67.5 -62.5t-39 -49l-103 -719q-3 -16 -16 -16h-8q-18 0 -15 16z" />
<glyph unicode="o" horiz-adv-x="1099" d="M100 403q0 115 41.5 220t110.5 180t161.5 119.5t190.5 44.5q161 0 263 -122t102 -300q0 -115 -41.5 -221t-109.5 -181.5t-160.5 -120.5t-190.5 -45q-163 0 -265 122t-102 304zM137 403q0 -165 93.5 -277t236.5 -112q122 0 229.5 72t171.5 194.5t64 264.5 q0 164 -91.5 274.5t-236.5 110.5q-91 0 -177 -42.5t-149.5 -113t-102 -168.5t-38.5 -203z" />
<glyph unicode="p" horiz-adv-x="1062" d="M152 96l-80 -567q-3 -16 -15 -16h-10q-5 0 -9 4.5t-3 11.5l196 1403q3 14 15 14h10q13 0 10 -14l-10 -88q52 48 135.5 85.5t188.5 37.5q159 0 255.5 -117.5t96.5 -296.5q0 -160 -67 -292t-184.5 -208t-258.5 -76q-171 0 -270 119zM160 152q4 -8 13 -21.5t31 -34.5 t50 -38.5t72.5 -30.5t95.5 -13q131 0 239.5 71.5t171 195.5t62.5 272q0 164 -87.5 270.5t-227.5 106.5q-68 0 -131 -18.5t-104 -45.5t-64.5 -47t-32.5 -33z" />
<glyph unicode="q" horiz-adv-x="1064" d="M100 401q0 157 66 287t178.5 204.5t245.5 74.5q102 0 174.5 -38.5t116.5 -88.5l16 90q3 16 12 16h11q13 0 10 -16l-195 -1399q-4 -18 -14 -18h-8q-19 0 -15 18l80 563q-132 -117 -297 -117q-174 0 -277.5 120.5t-103.5 303.5zM137 401q0 -167 94 -277t250 -110 q61 0 118 17.5t94.5 43.5t59.5 45.5t31 31.5l88 632q-4 8 -14 21.5t-34.5 36.5t-55 41.5t-78 32.5t-100.5 14q-123 0 -227 -69.5t-165 -191t-61 -268.5z" />
<glyph unicode="r" horiz-adv-x="710" d="M125 0h-10q-16 0 -13 16l129 914q3 16 15 16h12q11 0 8 -16l-14 -125q46 62 125 112t174 50q83 0 149 -39q12 -9 2 -23l-4 -6q-6 -12 -20 -4q-54 35 -127 35q-49 0 -97 -18t-81 -41.5t-63 -53.5t-44 -48t-22 -32l-105 -721q-3 -16 -14 -16z" />
<glyph unicode="s" horiz-adv-x="823" d="M338 -23q-71 0 -130 19.5t-86 38.5t-56 47q-11 11 0 22l8 9q11 11 20 2q96 -101 244 -101q124 0 212.5 67.5t88.5 168.5q0 27 -8 50.5t-18 41t-33 35t-39 28t-50.5 25.5t-53 22.5t-60.5 22.5q-125 44 -182.5 100.5t-57.5 145.5q0 41 20.5 83.5t58 79t99 60t136.5 23.5 q145 0 237 -72q11 -9 2 -21l-6 -8q-5 -7 -7.5 -8t-12.5 4q-93 68 -213 68q-129 0 -203 -66t-74 -143q0 -79 52 -124t169 -89q37 -14 49.5 -19t44.5 -18.5t45 -21t38 -22t36 -26t27.5 -29.5t23 -35t12 -39.5t5.5 -47.5q0 -117 -100.5 -195t-237.5 -78z" />
<glyph unicode="t" horiz-adv-x="659" d="M303 -23q-77 0 -116 36.5t-42 98.5t7 142l92 655h-94q-5 0 -7.5 5.5t-1.5 11.5l2 4q3 16 15 16h92l35 256q4 15 12 15h10q6 0 9.5 -4.5t2.5 -10.5l-32 -256h344q17 0 14 -16l-2 -4q-4 -17 -18 -17h-344l-93 -655q-6 -46 -8 -76.5t1.5 -64.5t16.5 -53.5t39 -32.5t66 -13 q65 0 133.5 26.5t106.5 51.5q12 7 20 -4l6 -12q6 -9 -6 -17q-41 -25 -117.5 -53.5t-142.5 -28.5z" />
<glyph unicode="u" horiz-adv-x="1015" d="M414 14q56 0 108.5 18.5t87 42t65 55t42.5 48t20 29.5l103 723q3 16 16 16h10q16 0 13 -16l-129 -914q-3 -16 -17 -16h-10q-13 0 -10 16l16 125q-27 -31 -52.5 -54.5t-65 -51t-90 -43t-107.5 -15.5q-169 0 -234.5 109t-34.5 326l74 520q3 14 17 14h8q15 0 12 -16 l-72 -518q-60 -398 230 -398z" />
<glyph unicode="v" horiz-adv-x="903" d="M352 -25l-241 961q-3 14 6 16l14 6q13 2 16 -10l224 -911l485 913q7 14 18 8l11 -4q13 -4 6 -18l-510 -961q-6 -11 -15.5 -11t-13.5 11z" />
<glyph unicode="w" horiz-adv-x="1304" d="M281 -25l-148 963q-4 18 8 20l11 3q13 2 16 -11l137 -897l383 920q5 14 16.5 14.5t16.5 -16.5l125 -920l389 901q6 11 14 9l15 -7q11 -3 4 -16l-414 -963q-8 -11 -19 -11.5t-14 11.5l-125 926l-385 -926q-6 -11 -17 -11.5t-13 11.5z" />
<glyph unicode="x" horiz-adv-x="860" d="M2 4q-8 8 0 19l391 471l-252 434q-7 13 4 20l11 6q12 7 18 -6l246 -426l371 434q7 11 16 2l10 -10q7 -7 2 -16l-379 -443l262 -466q10 -14 -4 -21l-12 -6q-9 -5 -16 4l-256 465l-383 -469q-9 -10 -17 -2z" />
<glyph unicode="y" horiz-adv-x="901" d="M354 20l-243 916q-3 13 6 16l12 4q12 3 16 -8l234 -887l475 891q8 11 18 6l11 -4q12 -6 6 -18l-768 -1425q-8 -13 -19 -7l-8 4q-11 7 -4 21z" />
<glyph unicode="z" horiz-adv-x="806" d="M2 0q-10 0 -13 9t5 18l719 882h-525q-7 0 -11.5 4.5t-2.5 10.5l2 10q2 12 17 12h569q11 0 14 -8.5t-4 -17.5l-721 -883h559q6 0 10 -4t3 -10l-2 -9q-3 -14 -17 -14h-602z" />
<glyph unicode="{" horiz-adv-x="671" d="M154 -31l43 303q12 84 -31.5 135.5t-91.5 51.5q-16 0 -13 14l2 8q4 15 15 15q46 0 105 50.5t71 135.5l41 297q19 139 57 233.5t95.5 146.5t125 73.5t158.5 21.5q15 0 12 -14l-2 -8q-4 -15 -16 -15q-62 0 -112 -12t-97 -42t-81.5 -78.5t-61.5 -125.5t-41 -180l-41 -297 q-10 -72 -54 -124.5t-98 -80.5q46 -27 75 -79.5t19 -125.5l-43 -303q-17 -104 -9.5 -180t27 -126.5t59 -80.5t86 -42.5t108.5 -12.5q15 0 12 -14l-2 -9q-3 -14 -16 -14q-369 0 -301 479z" />
<glyph unicode="|" horiz-adv-x="403" d="M37 -473l282 2013q3 14 17 14h8q5 0 8 -4t2 -10l-282 -2013q-4 -14 -15 -14h-8q-15 0 -12 14z" />
<glyph unicode="}" horiz-adv-x="671" d="M307 -31l43 303q10 72 54 124.5t98 80.5q-46 27 -75 79.5t-19 125.5l41 297q17 104 9.5 180t-27 125.5t-59 79t-86 41.5t-108.5 12q-6 0 -9.5 4.5t-2.5 10.5l2 8q4 14 16 14q56 0 101 -9.5t84.5 -32t65.5 -58.5t43 -89t17.5 -123.5t-10.5 -162.5l-41 -297 q-12 -85 32.5 -135.5t90.5 -50.5q6 0 10 -4.5t3 -10.5l-2 -8q-3 -14 -15 -14q-48 0 -106.5 -51.5t-69.5 -135.5l-43 -303q-19 -139 -57 -234t-95 -148t-124.5 -75t-157.5 -22q-6 0 -9.5 4t-2.5 10l2 9q4 14 16 14q77 0 137 20.5t112.5 69t88 136.5t53.5 216z" />
<glyph unicode="~" horiz-adv-x="1112" d="M147 512l-16 8q-6 6 0 17q4 8 12.5 21.5t35.5 47.5t56.5 60t74.5 47.5t91 21.5q33 0 61 -12t50 -35.5t34 -41t29 -46.5q29 -50 61.5 -79t82.5 -29q39 0 77.5 18.5t65.5 45t49 53t33 45.5l10 18q7 9 17 6l12 -6q10 -5 4 -17q-4 -8 -12 -21.5t-35 -47.5t-56 -60t-74 -47.5 t-91 -21.5q-35 0 -63 10.5t-49.5 33t-34 39.5t-29.5 46q-20 33 -34 52.5t-44 39.5t-64 20q-39 0 -78 -18.5t-66.5 -45t-49.5 -53t-33 -45.5l-10 -18q-6 -13 -17 -6z" />
<glyph unicode="&#xa1;" horiz-adv-x="411" d="M246 870q-17 0 -28 12t-11 29q0 22 16 39t37 17q17 0 29 -13t12 -30q0 -23 -16.5 -38.5t-38.5 -15.5zM162 385q0 6 4.5 10t9.5 4h8q13 0 13 -14l-121 -858q0 -14 -19 -14h-6q-12 0 -12 14z" />
<glyph unicode="&#xa2;" horiz-adv-x="1075" d="M283 -190l73 198q-106 46 -170.5 154t-64.5 246q0 120 42 224.5t113.5 177t168.5 114t204 41.5q22 0 74 -9l35 91q3 15 20 12l6 -2q16 -4 9 -23l-33 -86q113 -29 196 -112q8 -11 -2 -21l-10 -10q-14 -10 -22 2q-7 8 -20.5 20.5t-60 40t-98.5 41.5l-333 -876 q66 -15 108 -15q52 0 105 15.5t92 38t69.5 45t47.5 37.5l18 16q8 8 18 2l6 -8q3 -3 4.5 -9.5t-1.5 -9.5l-9 -9q-10 -10 -28 -24.5t-42 -32.5t-56 -36t-67 -32.5t-78.5 -24t-86.5 -9.5q-65 0 -117 17l-76 -199q-7 -13 -16 -10l-10 2q-15 3 -8 23zM377 47l330 868 q-4 0 -27 3.5t-35 3.5q-93 0 -180 -37.5t-154.5 -103t-108 -161t-40.5 -204.5q0 -127 59 -228t156 -141z" />
<glyph unicode="&#xa3;" d="M190 20q83 163 126.5 312.5t37.5 304.5h-78q-6 0 -9.5 4t-2.5 10l2 8q4 13 15 13h73q-14 187 -14 254q0 124 35.5 225.5t95 166.5t136.5 100.5t161 35.5q65 0 121.5 -15.5t96 -40.5t64 -46.5t42.5 -44.5q6 -8 -5 -19l-8 -8q-10 -10 -16 -2q-113 139 -299 139 q-71 0 -139.5 -32t-124.5 -91t-90.5 -153.5t-34.5 -208.5q0 -69 14 -260h438q16 0 13 -13l-2 -8q-4 -14 -15 -14h-436q6 -284 -147 -600h634q6 0 10 -4t3 -10l-2 -9q-3 -14 -15 -14h-669q-7 0 -10.5 6t-0.5 14z" />
<glyph unicode="&#xa4;" horiz-adv-x="972" d="M319 471q51 -72 140 -72q97 0 173.5 87t76.5 192q0 86 -52 142.5t-129 56.5q-100 0 -174.5 -86.5t-74.5 -188.5q0 -80 40 -131zM174 309q-13 -9 -21.5 2t-0.5 23l131 127q-37 61 -37 137q0 133 86 225l-92 125q-7 12 5 22.5t21 2.5l96 -125q75 63 168 63q92 0 150 -67 l135 129q10 6 16 0q13 -17 5 -25l-134 -131q39 -56 39 -135q0 -132 -84 -225l93 -123q6 -12 -7 -22.5t-22 -2.5l-94 121q-77 -65 -170 -65q-91 0 -154 69z" />
<glyph unicode="&#xa5;" d="M244 317q-5 0 -8.5 4.5t-2.5 10.5l3 8q3 12 14 12h309l29 207h-309q-6 0 -9.5 3.5t-1.5 8.5l2 13q2 10 13 10h309l16 108l-387 707q-9 13 4 21l13 6q9 4 14 -6l377 -695l569 695q3 5 9.5 7.5t11.5 -1.5l10 -9q10 -8 0 -18l-584 -704l-16 -111h311q5 0 8 -4t2 -10l-2 -9 q-3 -12 -12 -12h-311l-31 -207h311q5 0 9.5 -3.5t3.5 -8.5l-3 -10q-3 -13 -14 -13h-311l-43 -303q0 -6 -5 -10t-10 -4h-10q-12 0 -12 14l43 303h-309z" />
<glyph unicode="&#xa6;" horiz-adv-x="417" d="M231 786q-14 0 -10 15l103 739q4 14 16 14h8q5 0 8 -4t2 -10l-104 -739q0 -15 -14 -15h-9zM147 268q0 4 5 8.5t10 4.5h8q12 0 12 -13l-104 -739q0 -6 -5 -10t-10 -4h-8q-12 0 -12 14z" />
<glyph unicode="&#xa7;" horiz-adv-x="1107" d="M92 -246q11 7 17 -2q11 -15 32.5 -35t61 -49t100.5 -48t129 -19q98 0 188 43.5t147.5 123t57.5 173.5q0 121 -82.5 191.5t-240.5 115.5q-336 96 -336 332q0 158 129 278q-59 75 -59 186q0 58 14.5 114t48.5 110.5t84.5 95t129.5 65.5t177 25q51 0 100.5 -10.5t83.5 -26 t60.5 -31t39.5 -26.5l13 -10q9 -4 2 -15l-10 -14q-11 -11 -18 -6q-4 4 -12.5 11t-36.5 24.5t-58 31t-76.5 24.5t-93.5 11q-105 0 -187.5 -33.5t-130 -88t-72 -117t-24.5 -127.5q0 -119 80.5 -192t229.5 -116q82 -23 142.5 -51t109 -67t73.5 -92.5t25 -120.5 q0 -133 -142 -271q72 -75 72 -196q0 -161 -126.5 -270t-305.5 -109q-68 0 -133 20.5t-109 50t-69 51t-37 36.5q-10 10 0 18zM514 281q174 -53 248 -117q129 116 129 242q0 62 -23 111t-68.5 85t-101.5 61.5t-133 47.5q-170 49 -246 125q-116 -110 -116 -250 q0 -118 81.5 -191t229.5 -114z" />
<glyph unicode="&#xa8;" horiz-adv-x="763" d="M639 1239q-37 0 -37 39q0 20 15 36.5t34 16.5q39 0 39 -41q0 -23 -15 -37t-36 -14zM291 1239q-18 0 -28.5 10.5t-10.5 28.5q0 24 15.5 38.5t35.5 14.5q37 0 37 -41q0 -23 -13 -37t-36 -14z" />
<glyph unicode="&#xa9;" horiz-adv-x="1648" d="M168 621q0 167 64.5 322t171 266.5t249 178t293.5 66.5q160 0 291.5 -86.5t206 -233.5t74.5 -321q0 -168 -64.5 -323t-171.5 -266t-249.5 -177.5t-293.5 -66.5q-160 0 -291.5 86.5t-205.5 233.5t-74 321zM205 625q0 -167 68.5 -306t192.5 -221t277 -82q141 0 276 63.5 t236.5 169t163.5 253.5t62 307q0 166 -69 305t-193.5 221t-278.5 82q-140 0 -274.5 -63t-235.5 -168.5t-163 -253.5t-62 -307zM500 662q0 184 123 315t290 131q122 0 205 -80q9 -6 2 -16l-10 -11q-5 -8 -14 -2q-74 74 -187 74q-147 0 -260.5 -120.5t-113.5 -286.5 q0 -129 78 -219.5t196 -90.5q114 0 209 80q11 8 18 -4l4 -10q2 -7 -4 -14q-108 -89 -233 -89q-127 0 -215 100.5t-88 242.5z" />
<glyph unicode="&#xaa;" horiz-adv-x="688" d="M334 821q-78 0 -125.5 57.5t-34.5 149.5q12 89 83.5 145t182.5 56q79 0 144 -27l8 53q11 87 -14 124.5t-101 37.5q-45 0 -86.5 -10.5t-60.5 -21.5l-19 -11q-8 -6 -12 2l-6 13q-3 10 6 16q8 5 23 13.5t62.5 22t96.5 13.5q91 0 125.5 -49.5t20.5 -149.5l-58 -401 q-3 -14 -16 -14h-6q-15 0 -12 14l8 51q-41 -33 -97 -58.5t-112 -25.5zM338 858q61 0 121 31.5t90 66.5l29 209q-70 31 -142 31q-92 0 -155 -48t-72 -120q-10 -80 25.5 -125t103.5 -45z" />
<glyph unicode="&#xab;" horiz-adv-x="796" d="M571 127l-174 352q-3 9 2 17l273 348q10 10 18 2l8 -8q8 -8 0 -17l-260 -338l166 -340q4 -11 -6 -16l-10 -4q-11 -5 -17 4zM276 127l-174 352q-3 9 2 17l273 348q10 10 18 2l8 -8q9 -8 0 -17l-260 -338l166 -340q4 -11 -6 -16l-10 -4q-11 -5 -17 4z" />
<glyph unicode="&#xac;" horiz-adv-x="1146" d="M236 696q-5 0 -8.5 4.5t-2.5 10.5l2 8q3 14 13 14h718q14 0 11 -14l-56 -404q-3 -14 -14 -14h-10q-13 0 -10 14l53 381h-696z" />
<glyph unicode="&#xad;" horiz-adv-x="753" d="M141 498q-5 0 -8 4t-2 10l2 8q4 15 14 15h447q5 0 7 -4.5t1 -10.5l-2 -8q-4 -14 -12 -14h-447z" />
<glyph unicode="&#xae;" horiz-adv-x="1646" d="M168 621q0 167 64.5 322t170.5 266.5t248 178t293 66.5q160 0 291.5 -86.5t206 -233.5t74.5 -321q0 -168 -64.5 -323t-171.5 -266t-249.5 -177.5t-293.5 -66.5q-159 0 -290 86.5t-205 233.5t-74 321zM205 625q0 -167 68.5 -306t192.5 -221t277 -82q140 0 275 63.5 t236.5 169t164 253.5t62.5 307q0 124 -41 236t-112 193.5t-172 130t-216 48.5q-113 0 -222.5 -40t-201 -113.5t-162 -170.5t-110 -218.5t-39.5 -249.5zM549 354l104 736q0 6 4 10t9 4h276q88 0 148.5 -52t60.5 -145q0 -118 -68.5 -187.5t-167.5 -82.5l105 -277q3 -10 -4 -14 l-15 -6q-8 -5 -12 6l-108 289h-258l-39 -281q-4 -14 -17 -14h-8q-5 0 -8 4t-2 10zM627 668h254q90 0 162.5 61t72.5 172q0 82 -52 125t-128 43h-252z" />
<glyph unicode="&#xaf;" horiz-adv-x="763" d="M88 1243q-16 0 -12 14l2 9q4 14 16 14h529q15 0 12 -14l-2 -9q-3 -14 -15 -14h-530z" />
<glyph unicode="&#xb0;" horiz-adv-x="751" d="M414 874q-94 0 -159 70t-65 174q0 135 91 235.5t213 100.5q94 0 158.5 -71t64.5 -175q0 -134 -93 -234t-210 -100zM418 911q102 0 181 87t79 206q0 92 -52.5 152.5t-136.5 60.5q-106 0 -184 -88t-78 -207q0 -92 53 -151.5t138 -59.5z" />
<glyph unicode="&#xb1;" d="M596 446q-5 0 -8 4.5t-2 10.5l45 319h-340q-6 0 -9.5 4.5t-2.5 10.5l2 8q3 14 14 14h340l53 379q4 14 14 14h13q5 0 8 -4t2 -10l-53 -379h340q5 0 9 -4t3 -10l-2 -8q-4 -15 -14 -15h-340l-45 -319q-4 -15 -15 -15h-12zM209 174q-5 0 -8 4t-2 10v9q3 14 14 14h717 q6 0 9.5 -4t2.5 -10v-9q-4 -14 -16 -14h-717z" />
<glyph unicode="&#xb2;" horiz-adv-x="546" d="M152 1032q-10 0 -12.5 10.5t5.5 16.5l273 227q131 105 131 207q0 54 -36.5 91.5t-100.5 37.5q-27 0 -52.5 -8t-41.5 -19t-28.5 -22t-17.5 -19l-6 -8q-6 -12 -16 -6l-10 8q-8 8 0 19q2 4 6.5 10t20.5 22t35 28t50.5 22t65.5 10q76 0 121 -47t45 -117t-37 -123.5 t-107 -111.5l-231 -191h301q5 0 8 -4t2 -10l-2 -8q-4 -15 -14 -15h-352z" />
<glyph unicode="&#xb3;" horiz-adv-x="585" d="M342 1012q-109 0 -184 86q-6 10 4 20l6 6q9 9 18 0q1 -1 6.5 -7.5t8.5 -9.5l10.5 -10.5t14 -11.5t16.5 -10.5t21 -10.5t24 -7.5t29 -5.5t34 -2q42 0 85 17t75.5 54t32.5 86q0 50 -35 83.5t-98 33.5h-121q-5 0 -8 4t-2 10l2 9q3 14 12 14h121q61 0 108 45t47 111 q0 50 -35 78t-96 28q-48 0 -91 -18.5t-62 -37.5l-19 -18q-2 -3 -6.5 -4t-7.5 2l-6 6q-10 10 0 21q3 3 8 9t24 21t40 26t55 20.5t71 9.5q72 0 117 -37t45 -102q0 -55 -32 -105.5t-85 -71.5q42 -19 67.5 -55t25.5 -80q0 -86 -72.5 -139.5t-167.5 -56.5z" />
<glyph unicode="&#xb4;" horiz-adv-x="557" d="M195 1145q-12 -5 -17 6l-6 12q-4 9 8 15l361 186q10 3 16 -6l6 -10q6 -12 -8 -19z" />
<glyph unicode="&#xb5;" horiz-adv-x="1038" d="M457 14q56 0 108.5 18.5t87 42t65 55t42.5 48t20 29.5l103 723q3 16 16 16h10q16 0 13 -16l-129 -914q-3 -16 -17 -16h-10q-13 0 -10 16l16 125q-27 -31 -52.5 -54.5t-65 -51t-90 -43t-107.5 -15.5q-220 0 -267 185l-88 -633q-3 -16 -16 -16h-8q-18 0 -15 16l199 1403 q3 14 17 14h8q15 0 12 -16l-72 -518q-28 -202 28.5 -300t201.5 -98z" />
<glyph unicode="&#xb6;" horiz-adv-x="1327" d="M465 561q-140 0 -234 110t-94 269q0 133 55.5 246t155.5 180.5t223 67.5h764q13 0 13 -15l-2 -8q0 -6 -5 -10t-10 -4h-184l-260 -1870q-3 -14 -17 -14q-10 0 -15.5 3t-4.5 11l260 1870h-352l-260 -1870q-4 -14 -17 -14q-20 0 -20 14l262 1870h-158q-157 0 -273 -135 t-116 -320q0 -148 84 -248t215 -100q11 0 4 -21q-3 -12 -14 -12z" />
<glyph unicode="&#xb7;" horiz-adv-x="409" d="M190 487q-17 0 -27.5 12.5t-10.5 30.5q0 23 16 38.5t37 15.5q18 0 28.5 -11.5t10.5 -29.5q0 -22 -15.5 -39t-38.5 -17z" />
<glyph unicode="&#xb8;" horiz-adv-x="505" d="M291 6h45l-125 -162q33 11 61 11q64 0 110 -36t46 -106q0 -84 -58 -139t-147 -55q-101 0 -155 69q-10 10 2 21l8 8q10 10 18 -2q46 -59 125 -59q67 0 117.5 42.5t50.5 112.5q0 53 -33 80t-88 27q-51 0 -100 -19q-8 -4 -13.5 6.5t-0.5 16.5z" />
<glyph unicode="&#xb9;" horiz-adv-x="327" d="M258 1032q-12 0 -12 15l78 544l-111 -80q-8 -6 -16 2l-9 11q-4 8 7 14l149 109q7 6 13.5 1t4.5 -14l-81 -587q0 -6 -5.5 -10.5t-11.5 -4.5h-6z" />
<glyph unicode="&#xba;" horiz-adv-x="702" d="M379 807q-86 0 -134 63.5t-48 176.5q0 185 77 296t197 111q87 0 136.5 -65.5t49.5 -180.5q0 -180 -79.5 -290.5t-198.5 -110.5zM385 844q101 0 168.5 100.5t67.5 265.5q0 100 -40.5 154.5t-115.5 54.5q-101 0 -167.5 -101.5t-66.5 -268.5q0 -98 40 -151.5t114 -53.5z" />
<glyph unicode="&#xbb;" horiz-adv-x="796" d="M367 131q-8 8 -2 16l262 345l-166 335q-7 10 6 17l10 4q12 4 17 -4l174 -348q3 -9 -2 -17l-273 -352q-11 -11 -18 -4zM80 125l-8 8q-8 8 -2 17l262 342l-166 335q-7 10 6 17l10 4q12 4 17 -4l174 -348q3 -9 -2 -17l-273 -352q-10 -10 -18 -2z" />
<glyph unicode="&#xbc;" horiz-adv-x="1206" d="M305 827q-12 0 -12 15l78 544l-111 -79q-8 -6 -16 2l-8 10q-4 8 6 14l149 109q7 6 14 1.5t5 -13.5l-82 -588q0 -6 -5.5 -10.5t-11.5 -4.5h-6zM74 8q-10 7 -2 19l966 1405q6 9 17 2l10 -9q7 -7 0 -16l-965 -1405q-3 -4 -9 -4.5t-9 2.5zM535 162l438 456q9 6 16 3t6 -13 l-61 -434h92q5 0 8 -4t2 -10l-2 -10q-4 -11 -12 -11h-92l-19 -125q-3 -14 -14 -14h-8q-13 0 -10 14l18 125h-354q-9 0 -11.5 7.5t3.5 15.5zM592 174h309l53 375z" />
<glyph unicode="&#xbd;" horiz-adv-x="1181" d="M305 827q-12 0 -12 15l78 544l-111 -79q-8 -6 -16 2l-8 10q-4 8 6 14l149 109q7 6 14 1.5t5 -13.5l-82 -588q0 -6 -5.5 -10.5t-11.5 -4.5h-6zM74 8q-10 7 -2 19l966 1405q6 9 17 2l10 -9q7 -7 0 -16l-965 -1405q-3 -4 -9 -4.5t-9 2.5zM598 0q-10 0 -12 10.5t6 16.5 l272 227q131 105 131 207q0 54 -36.5 91.5t-100.5 37.5q-44 0 -80 -19t-50 -38l-15 -19q-7 -13 -17 -6l-10 8q-8 8 0 19q2 4 6.5 10t20.5 22t35 28t50.5 22t65.5 10q76 0 121 -47t45 -117t-36.5 -124.5t-106.5 -111.5l-232 -190h301q5 0 8.5 -4t2.5 -10l-2 -9 q-3 -14 -15 -14h-352z" />
<glyph unicode="&#xbe;" horiz-adv-x="1312" d="M178 27l967 1405q6 9 16 2l10 -9q7 -7 0 -16l-964 -1405q-3 -4 -9.5 -4.5t-9.5 2.5l-8 6q-10 7 -2 19zM641 162l438 456q9 6 16.5 3t6.5 -13l-62 -434h93q5 0 8 -4t2 -10l-2 -10q-4 -11 -13 -11h-92l-18 -125q-4 -14 -14 -14h-9q-13 0 -10 14l19 125h-355q-9 0 -11.5 7.5 t3.5 15.5zM698 174h310l53 375zM360 807q-109 0 -184 86q-6 10 4 20l6 7q10 10 19 0l7 -8q7 -8 10 -11.5t13 -12t17.5 -13.5t21 -11.5t26.5 -10t31 -6.5t38 -3q42 0 84.5 17t75 54t32.5 86q0 50 -35 83.5t-98 33.5h-121q-5 0 -8 4.5t-2 10.5l2 8q3 14 12 14h121 q61 0 108.5 45.5t47.5 110.5q0 50 -35 78t-96 28q-48 0 -91 -18.5t-62 -36.5l-19 -19q-2 -3 -7 -4t-8 2l-6 7q-10 10 0 20q3 3 8 9t24 21t40.5 26t55.5 20.5t71 9.5q72 0 117 -37t45 -102q0 -55 -32 -105t-85 -71q42 -19 67 -55t25 -80q0 -86 -72.5 -140t-167.5 -57z" />
<glyph unicode="&#xbf;" horiz-adv-x="825" d="M467 870q-17 0 -28 12t-11 29q0 22 16 39t37 17q17 0 28 -12.5t11 -30.5q0 -23 -15.5 -38.5t-37.5 -15.5zM227 127q40 23 57.5 34.5t41.5 32t34.5 42.5t14.5 51l16 119q3 14 17 14h10q5 0 8 -4t2 -10l-18 -123q-3 -28 -15.5 -53t-24.5 -41t-39 -36t-40.5 -28.5 t-48.5 -28.5q-242 -144 -242 -338q0 -94 70.5 -161.5t183.5 -67.5q60 0 117 17.5t95 42t67 49t43 42.5l14 17q10 13 22 6l9 -6q11 -7 2 -19q-5 -7 -15.5 -19.5t-46 -44.5t-75 -56t-102.5 -44t-130 -20q-132 0 -210.5 73.5t-78.5 188.5q0 60 22.5 116.5t51.5 94.5t71.5 75 t66 53t50.5 32z" />
<glyph unicode="&#xc0;" horiz-adv-x="1202" d="M-18 2q-4 -8 -13 -6l-16 6q-9 3 -4 12l772 1454q3 9 12 9h2q7 0 10 -9l353 -1452q3 -10 -8 -14l-11 -4q-11 -4 -14 6l-102 426h-756zM227 465h725l-225 944h-2zM920 1595l-310 185q-10 7 -2 18l4 6q6 10 19 6l307 -186q9 -6 4 -14l-4 -8q-8 -12 -18 -7z" />
<glyph unicode="&#xc1;" horiz-adv-x="1202" d="M-18 2q-4 -8 -13 -6l-16 6q-9 3 -4 12l772 1454q3 9 12 9h2q7 0 10 -9l353 -1452q3 -10 -8 -14l-11 -4q-11 -4 -14 6l-102 426h-756zM227 465h725l-225 944h-2zM594 1591q-11 -4 -16 6l-7 13q-4 8 9 14l360 186q10 3 16 -6l7 -10q5 -11 -9 -18z" />
<glyph unicode="&#xc2;" horiz-adv-x="1202" d="M-18 2q-4 -8 -13 -6l-16 6q-9 3 -4 12l772 1454q3 9 12 9h2q7 0 10 -9l353 -1452q3 -10 -8 -14l-11 -4q-11 -4 -14 6l-102 426h-756zM227 465h725l-225 944h-2zM518 1563q-8 -5 -14 2l-6 10q-2 11 -1.5 12t13.5 12l260 209q10 6 16 0l207 -217q9 -9 2 -16l-8 -8 q-7 -7 -14 -2l-197 207z" />
<glyph unicode="&#xc3;" horiz-adv-x="1202" d="M-18 2q-4 -8 -13 -6l-16 6q-9 3 -4 12l772 1454q3 9 12 9h2q7 0 10 -9l353 -1452q3 -10 -8 -14l-11 -4q-11 -4 -14 6l-102 426h-756zM227 465h725l-225 944h-2zM512 1642l-14 5q-12 3 -6 18q9 23 21 44.5t35 54.5t56.5 53t71.5 20q40 0 64 -23t33.5 -55.5t18 -64.5 t27 -55t49.5 -23q87 0 144 147q6 16 14 13l14 -4q16 -4 7 -19q-74 -172 -183 -172q-39 0 -63 23t-34.5 55.5t-19.5 64.5t-27 55t-48 23q-28 0 -54.5 -18t-45 -45.5t-29 -48t-17.5 -37.5q-6 -15 -14 -11z" />
<glyph unicode="&#xc4;" horiz-adv-x="1202" d="M-18 2q-4 -8 -13 -6l-16 6q-9 3 -4 12l772 1454q3 9 12 9h2q7 0 10 -9l353 -1452q3 -10 -8 -14l-11 -4q-11 -4 -14 6l-102 426h-756zM227 465h725l-225 944h-2zM954 1655q-18 0 -28.5 10.5t-10.5 28.5q0 24 15.5 38.5t36.5 14.5q37 0 37 -41q0 -22 -15 -36.5t-35 -14.5z M571 1655q-18 0 -28.5 10.5t-10.5 28.5q0 24 16 38.5t36 14.5q39 0 39 -41q0 -22 -15.5 -36.5t-36.5 -14.5z" />
<glyph unicode="&#xc5;" horiz-adv-x="1202" d="M-18 2q-4 -8 -13 -6l-16 6q-9 3 -4 12l772 1454q3 9 12 9h2q7 0 10 -9l353 -1452q3 -10 -8 -14l-11 -4q-11 -4 -14 6l-102 426h-756zM227 465h725l-225 944h-2zM748 1536q-73 0 -119.5 52.5t-46.5 129.5q0 100 67.5 172t157.5 72q71 0 117.5 -53t46.5 -131 q0 -100 -67 -171t-156 -71zM752 1571q72 0 128 59.5t56 141.5q0 66 -36 110.5t-97 44.5q-73 0 -129 -60t-56 -141q0 -68 34.5 -111.5t99.5 -43.5z" />
<glyph unicode="&#xc6;" horiz-adv-x="1720" d="M-49 0q-6 -9 -17 -2l-10 6q-10 6 -2 16l1022 1407q4 7 14 7h746q6 0 9.5 -4.5t2.5 -10.5l-2 -8q-4 -14 -14 -14h-727l-90 -633h639q12 0 12 -12q0 -25 -18 -25h-637l-99 -690h727q6 0 10 -4t3 -10l-2 -9q-4 -14 -15 -14h-747q-6 0 -10 4t-3 10l58 416h-539zM287 465h520 l125 889z" />
<glyph unicode="&#xc7;" horiz-adv-x="1366" d="M141 616q0 169 65.5 325.5t172.5 268t249 178t290 66.5q137 0 237 -48t188 -142q9 -8 0 -17l-10 -10q-8 -8 -16 0q-80 90 -176 136t-223 46q-142 0 -277.5 -64.5t-237 -171.5t-163.5 -256.5t-62 -310.5q0 -166 70 -303.5t193.5 -217t273.5 -79.5q241 0 456 191q7 7 15 0 l10 -12q6 -7 -2 -15q-208 -190 -465 -200l-104 -136q33 11 61 11q64 0 110 -36t46 -106q0 -84 -58 -139t-147 -55q-102 0 -156 69q-9 10 2 21l9 8q10 10 18 -2q46 -59 125 -59q67 0 117.5 42.5t50.5 112.5q0 53 -33 80t-88 27q-51 0 -100 -19q-9 -4 -14.5 6.5t-0.5 16.5 l117 160q-159 7 -283.5 93t-192 228t-67.5 313z" />
<glyph unicode="&#xc8;" horiz-adv-x="1120" d="M141 14l199 1405q0 6 4.5 10.5t9.5 4.5h750q6 0 9.5 -4.5t2.5 -10.5l-2 -8q-4 -14 -14 -14h-727l-88 -633h637q6 0 9.5 -4t2.5 -10l-2 -9q-4 -14 -14 -14h-639l-97 -690h725q10 0 13.5 -3.5t1.5 -10.5l-2 -9q-4 -14 -17 -14h-749q-13 0 -13 14zM911 1595l-309 185 q-10 7 -2 18l4 6q6 10 19 6l307 -186q9 -6 4 -14l-4 -8q-8 -12 -19 -7z" />
<glyph unicode="&#xc9;" horiz-adv-x="1120" d="M141 14l199 1405q0 6 4.5 10.5t9.5 4.5h750q6 0 9.5 -4.5t2.5 -10.5l-2 -8q-4 -14 -14 -14h-727l-88 -633h637q6 0 9.5 -4t2.5 -10l-2 -9q-4 -14 -14 -14h-639l-97 -690h725q10 0 13.5 -3.5t1.5 -10.5l-2 -9q-4 -14 -17 -14h-749q-13 0 -13 14zM588 1591q-12 -5 -17 6 l-6 13q-4 8 8 14l361 186q10 3 16 -6l6 -10q6 -11 -8 -18z" />
<glyph unicode="&#xca;" horiz-adv-x="1120" d="M141 14l199 1405q0 6 4.5 10.5t9.5 4.5h750q6 0 9.5 -4.5t2.5 -10.5l-2 -8q-4 -14 -14 -14h-727l-88 -633h637q6 0 9.5 -4t2.5 -10l-2 -9q-4 -14 -14 -14h-639l-97 -690h725q10 0 13.5 -3.5t1.5 -10.5l-2 -9q-4 -14 -17 -14h-749q-13 0 -13 14zM487 1563q-7 -5 -14 2 l-6 10q-2 11 -1.5 12t13.5 12l260 209q10 7 17 0l207 -217q9 -9 2 -16l-9 -8q-7 -7 -14 -2l-197 207z" />
<glyph unicode="&#xcb;" horiz-adv-x="1120" d="M141 14l199 1405q0 6 4.5 10.5t9.5 4.5h750q6 0 9.5 -4.5t2.5 -10.5l-2 -8q-4 -14 -14 -14h-727l-88 -633h637q6 0 9.5 -4t2.5 -10l-2 -9q-4 -14 -14 -14h-639l-97 -690h725q10 0 13.5 -3.5t1.5 -10.5l-2 -9q-4 -14 -17 -14h-749q-13 0 -13 14zM918 1655 q-18 0 -28.5 10.5t-10.5 28.5q0 24 15 38.5t36 14.5q37 0 37 -41q0 -22 -14.5 -36.5t-34.5 -14.5zM535 1655q-18 0 -28.5 10.5t-10.5 28.5q0 24 15.5 38.5t35.5 14.5q39 0 39 -41q0 -23 -15 -37t-36 -14z" />
<glyph unicode="&#xcc;" horiz-adv-x="479" d="M141 14l197 1405q4 15 16 15h8q6 0 10 -4.5t3 -10.5l-197 -1405q-4 -14 -16 -14h-8q-6 0 -10 4t-3 10zM545 1595l-309 185q-11 7 -3 18l5 6q6 10 18 6l307 -186q9 -6 4 -14l-4 -8q-8 -12 -18 -7z" />
<glyph unicode="&#xcd;" horiz-adv-x="479" d="M141 14l197 1405q4 15 16 15h8q6 0 10 -4.5t3 -10.5l-197 -1405q-4 -14 -16 -14h-8q-6 0 -10 4t-3 10zM223 1591q-11 -4 -16 6l-6 13q-4 8 8 14l360 186q11 4 17 -6l6 -10q6 -11 -8 -18z" />
<glyph unicode="&#xce;" horiz-adv-x="479" d="M141 14l197 1405q4 15 16 15h8q6 0 10 -4.5t3 -10.5l-197 -1405q-4 -14 -16 -14h-8q-6 0 -10 4t-3 10zM147 1563q-7 -5 -14 2l-6 10q-2 11 -1.5 12t13.5 12l260 209q10 7 17 0l207 -217q9 -9 2 -16l-9 -8q-7 -7 -14 -2l-196 207z" />
<glyph unicode="&#xcf;" horiz-adv-x="479" d="M141 14l197 1405q4 15 16 15h8q6 0 10 -4.5t3 -10.5l-197 -1405q-4 -14 -16 -14h-8q-6 0 -10 4t-3 10zM586 1655q-18 0 -28.5 10.5t-10.5 28.5q0 24 15 38.5t36 14.5q37 0 37 -41q0 -22 -14.5 -36.5t-34.5 -14.5zM203 1655q-18 0 -28.5 10.5t-10.5 28.5q0 24 15.5 38.5 t35.5 14.5q39 0 39 -41q0 -23 -15 -37t-36 -14z" />
<glyph unicode="&#xd0;" horiz-adv-x="1425" d="M141 14l97 682h-74q-5 0 -8 4.5t-2 10.5v8q4 14 16 14h74l96 686q0 15 14 15h406q159 0 287.5 -83.5t200 -226t71.5 -313.5q0 -163 -64 -314t-169 -259.5t-243.5 -173t-283.5 -64.5h-405q-13 0 -13 14zM182 37h381q137 0 268 61.5t230 164t159 246t60 298.5 q0 162 -66.5 296.5t-188 214t-271.5 79.5h-381l-94 -664h528q15 0 12 -14l-2 -8q0 -15 -14 -15h-529z" />
<glyph unicode="&#xd1;" horiz-adv-x="1454" d="M141 14l203 1440q2 11 12 14t15 -6l751 -1409l193 1366q4 15 16 15h8q6 0 10 -4.5t3 -10.5l-203 -1435q-2 -11 -12 -14.5t-15 5.5l-751 1409l-193 -1370q-4 -14 -16 -14h-8q-6 0 -10 4t-3 10zM627 1642l-15 5q-12 3 -6 18q9 23 21 45t35.5 54.5t57 52.5t71.5 20 q40 0 64 -23t33.5 -55.5t18 -64.5t27 -55t49.5 -23q86 0 143 147q6 16 15 13l14 -4q15 -4 6 -19q-74 -172 -182 -172q-39 0 -63 23t-35 55.5t-20 64.5t-27 55t-48 23q-28 0 -54 -18t-44.5 -46t-29 -48t-17.5 -37q-6 -15 -14 -11z" />
<glyph unicode="&#xd2;" horiz-adv-x="1597" d="M143 618q0 170 64.5 326t171.5 267t249.5 177t293.5 66q164 0 295 -86t203.5 -232t72.5 -323q0 -169 -65 -324.5t-171.5 -266t-249 -176.5t-292.5 -66q-164 0 -296 86t-204 231.5t-72 320.5zM180 621q0 -166 68.5 -304.5t192 -219.5t274.5 -81q142 0 277.5 63t237.5 169 t164 254t62 309q0 168 -68.5 306.5t-192 219t-275.5 80.5q-142 0 -277.5 -63t-237 -169t-163.5 -254.5t-62 -309.5zM1110 1595l-309 185q-10 7 -2 18l4 6q6 10 18 6l307 -186q10 -7 5 -14l-5 -8q-8 -12 -18 -7z" />
<glyph unicode="&#xd3;" horiz-adv-x="1597" d="M143 618q0 170 64.5 326t171.5 267t249.5 177t293.5 66q164 0 295 -86t203.5 -232t72.5 -323q0 -169 -65 -324.5t-171.5 -266t-249 -176.5t-292.5 -66q-164 0 -296 86t-204 231.5t-72 320.5zM180 621q0 -166 68.5 -304.5t192 -219.5t274.5 -81q142 0 277.5 63t237.5 169 t164 254t62 309q0 168 -68.5 306.5t-192 219t-275.5 80.5q-142 0 -277.5 -63t-237 -169t-163.5 -254.5t-62 -309.5zM788 1591q-11 -4 -16 6l-6 13q-4 8 8 14l361 186q10 3 16 -6l6 -10q6 -11 -8 -18z" />
<glyph unicode="&#xd4;" horiz-adv-x="1597" d="M143 618q0 170 64.5 326t171.5 267t249.5 177t293.5 66q164 0 295 -86t203.5 -232t72.5 -323q0 -169 -65 -324.5t-171.5 -266t-249 -176.5t-292.5 -66q-164 0 -296 86t-204 231.5t-72 320.5zM180 621q0 -166 68.5 -304.5t192 -219.5t274.5 -81q142 0 277.5 63t237.5 169 t164 254t62 309q0 168 -68.5 306.5t-192 219t-275.5 80.5q-142 0 -277.5 -63t-237 -169t-163.5 -254.5t-62 -309.5zM713 1563q-8 -5 -15 2l-6 10q-2 4 -2.5 6t0.5 4.5t2 3.5t5.5 4.5t7.5 5.5l260 209q10 6 16 0l207 -217q9 -9 2 -16l-8 -8q-8 -8 -15 -2l-196 207z" />
<glyph unicode="&#xd5;" horiz-adv-x="1597" d="M143 618q0 170 64.5 326t171.5 267t249.5 177t293.5 66q164 0 295 -86t203.5 -232t72.5 -323q0 -169 -65 -324.5t-171.5 -266t-249 -176.5t-292.5 -66q-164 0 -296 86t-204 231.5t-72 320.5zM180 621q0 -166 68.5 -304.5t192 -219.5t274.5 -81q142 0 277.5 63t237.5 169 t164 254t62 309q0 168 -68.5 306.5t-192 219t-275.5 80.5q-142 0 -277.5 -63t-237 -169t-163.5 -254.5t-62 -309.5zM707 1642l-15 5q-12 3 -6 18q9 23 21 44.5t35 54.5t56.5 53t71.5 20q40 0 64 -23t34 -55.5t18.5 -64.5t27 -55t49.5 -23q86 0 143 147q6 16 15 13l14 -4 q15 -4 6 -19q-74 -172 -182 -172q-39 0 -63 23t-35 55.5t-20 64.5t-27 55t-48 23q-28 0 -54 -18t-44.5 -46t-29 -48t-17.5 -37q-6 -15 -14 -11z" />
<glyph unicode="&#xd6;" horiz-adv-x="1597" d="M143 618q0 170 64.5 326t171.5 267t249.5 177t293.5 66q164 0 295 -86t203.5 -232t72.5 -323q0 -169 -65 -324.5t-171.5 -266t-249 -176.5t-292.5 -66q-164 0 -296 86t-204 231.5t-72 320.5zM180 621q0 -166 68.5 -304.5t192 -219.5t274.5 -81q142 0 277.5 63t237.5 169 t164 254t62 309q0 168 -68.5 306.5t-192 219t-275.5 80.5q-142 0 -277.5 -63t-237 -169t-163.5 -254.5t-62 -309.5zM1149 1655q-18 0 -28.5 10.5t-10.5 28.5q0 24 15 38.5t36 14.5q37 0 37 -41q0 -22 -14.5 -36.5t-34.5 -14.5zM766 1655q-18 0 -28.5 10.5t-10.5 28.5 q0 24 15.5 38.5t35.5 14.5q39 0 39 -41q0 -23 -15 -37t-36 -14z" />
<glyph unicode="&#xd7;" d="M328 416l-6 8q-3 3 -2.5 9t4.5 9l282 273l-205 268q-9 14 2 21l7 4q12 8 18 0l203 -269l280 269q11 11 19 0l6 -9q8 -12 -2 -20l-279 -268l201 -269q8 -8 0 -16l-8 -8q-9 -9 -17 2l-202 266l-285 -270q-10 -10 -16 0z" />
<glyph unicode="&#xd8;" horiz-adv-x="1599" d="M106 70q-8 8 5 20l141 131q-51 78 -80 183.5t-29 211.5q0 170 63.5 326t169 267.5t247 178t292.5 66.5q136 0 251.5 -56.5t191.5 -156.5l145 133q13 13 19 0l4 -6q6 -12 -2 -20l-146 -134q53 -80 84 -188t31 -215q0 -169 -64 -323.5t-169.5 -265.5t-247.5 -176.5 t-293 -65.5q-139 0 -255.5 55.5t-193.5 157.5l-141 -130q-10 -6 -16 0zM279 246l1052 971q-75 95 -182 147.5t-234 52.5q-142 0 -277 -63.5t-235.5 -170t-161.5 -255.5t-61 -312q0 -100 26 -199.5t73 -170.5zM301 219q71 -97 179 -150t239 -53q142 0 277 62.5t236 168 t162.5 253.5t61.5 309q0 103 -27.5 206t-76.5 175z" />
<glyph unicode="&#xd9;" horiz-adv-x="1366" d="M197 516l127 903q4 15 14 15h10q14 0 10 -15l-125 -903q-8 -47 -8 -102q0 -182 99.5 -290t277.5 -108q201 0 341 138.5t171 361.5l127 903q4 15 16 15h11q5 0 8 -4.5t2 -10.5l-127 -903q-35 -243 -180 -389.5t-375 -146.5q-189 0 -298.5 117.5t-109.5 314.5q0 25 9 104z M987 1595l-309 185q-10 7 -2 18l4 6q6 10 18 6l308 -186q9 -6 4 -14l-4 -8q-8 -12 -19 -7z" />
<glyph unicode="&#xda;" horiz-adv-x="1366" d="M197 516l127 903q4 15 14 15h10q14 0 10 -15l-125 -903q-8 -47 -8 -102q0 -182 99.5 -290t277.5 -108q201 0 341 138.5t171 361.5l127 903q4 15 16 15h11q5 0 8 -4.5t2 -10.5l-127 -903q-35 -243 -180 -389.5t-375 -146.5q-189 0 -298.5 117.5t-109.5 314.5q0 25 9 104z M670 1591q-12 -5 -17 6l-6 13q-4 8 8 14l361 186q10 3 16 -6l6 -10q6 -11 -8 -18z" />
<glyph unicode="&#xdb;" horiz-adv-x="1366" d="M197 516l127 903q4 15 14 15h10q14 0 10 -15l-125 -903q-8 -47 -8 -102q0 -182 99.5 -290t277.5 -108q201 0 341 138.5t171 361.5l127 903q4 15 16 15h11q5 0 8 -4.5t2 -10.5l-127 -903q-35 -243 -180 -389.5t-375 -146.5q-189 0 -298.5 117.5t-109.5 314.5q0 25 9 104z M596 1563q-8 -5 -14 2l-7 10q-4 8 -1 12t14 12l260 209q10 6 16 0l207 -217q9 -9 2 -16l-8 -8q-7 -7 -14 -2l-197 207z" />
<glyph unicode="&#xdc;" horiz-adv-x="1366" d="M197 516l127 903q4 15 14 15h10q14 0 10 -15l-125 -903q-8 -47 -8 -102q0 -182 99.5 -290t277.5 -108q201 0 341 138.5t171 361.5l127 903q4 15 16 15h11q5 0 8 -4.5t2 -10.5l-127 -903q-35 -243 -180 -389.5t-375 -146.5q-189 0 -298.5 117.5t-109.5 314.5q0 25 9 104z M1030 1655q-18 0 -28.5 10.5t-10.5 28.5q0 24 15 38.5t36 14.5q37 0 37 -41q0 -22 -14.5 -36.5t-34.5 -14.5zM647 1655q-18 0 -28.5 10.5t-10.5 28.5q0 24 15.5 38.5t35.5 14.5q39 0 39 -41q0 -23 -15 -37t-36 -14z" />
<glyph unicode="&#xdd;" horiz-adv-x="1042" d="M418 14l96 688l-385 707q-8 12 4 18l12 7q9 5 17 -7l373 -690l571 693q8 12 16 6l15 -9q12 -6 0 -18l-586 -704l-96 -693q-3 -12 -15 -12h-12q-13 0 -10 14zM500 1591q-12 -5 -17 6l-6 13q-4 8 8 14l361 186q10 3 16 -6l6 -10q6 -11 -8 -18z" />
<glyph unicode="&#xde;" horiz-adv-x="1138" d="M141 14l199 1405q0 6 4.5 10.5t9.5 4.5h11q6 0 9.5 -4.5t2.5 -10.5l-35 -235h363q156 1 259 -117t103 -285q0 -143 -66 -264.5t-179.5 -192.5t-246.5 -71h-362l-35 -240q0 -6 -5 -10t-11 -4h-8q-6 0 -10 4t-3 10zM217 289h363q114 0 218 65.5t168 179.5t64 244 q0 155 -94.5 263.5t-237.5 107.5h-360z" />
<glyph unicode="&#xdf;" horiz-adv-x="1173" d="M651 -23q-114 0 -202 52q-14 9 -7 20l7 8q8 13 22 2q64 -45 184 -45q69 0 127.5 16t107 48.5t76 88.5t27.5 130q0 49 -26 98t-63.5 88.5t-75 76.5t-63.5 75.5t-26 71.5q0 34 26.5 73t64 77t75 79t64 94.5t26.5 108.5q0 69 -28 124.5t-72.5 87.5t-95 49t-101.5 17 q-96 0 -173.5 -39t-128.5 -107t-82 -150t-44 -177l-194 -1413q0 -7 -4.5 -12.5t-10.5 -5.5h-10q-16 0 -12 18l192 1413q12 84 34 156.5t60 138.5t89.5 113t124.5 74.5t161 27.5q57 0 114 -19.5t106.5 -56.5t80.5 -98t31 -135q0 -62 -26.5 -120.5t-64 -101.5t-75 -81t-64 -73 t-26.5 -62q0 -26 26 -61t63.5 -72t75 -78.5t63.5 -93.5t26 -103q0 -158 -104.5 -240t-274.5 -82z" />
<glyph unicode="&#xe0;" horiz-adv-x="1064" d="M102 399q0 157 65.5 287.5t177.5 205.5t245 75q103 0 175.5 -37t115.5 -86l16 86q3 16 12 16h11q13 0 10 -16l-127 -914q-3 -16 -17 -16h-10q-13 0 -10 16l16 121q-43 -57 -135.5 -108.5t-195.5 -51.5q-159 0 -254 120t-95 302zM139 401q0 -165 86 -276t226 -111 q106 0 200.5 59.5t139.5 133.5l81 581q-4 8 -14 21.5t-34.5 35.5t-55 40t-78 31.5t-100.5 13.5q-188 0 -319.5 -153t-131.5 -376zM733 1147l-309 184q-11 7 -2 19l4 6q6 10 18 6l308 -186q10 -6 4 -15l-4 -8q-8 -12 -19 -6z" />
<glyph unicode="&#xe1;" horiz-adv-x="1064" d="M102 399q0 157 65.5 287.5t177.5 205.5t245 75q103 0 175.5 -37t115.5 -86l16 86q3 16 12 16h11q13 0 10 -16l-127 -914q-3 -16 -17 -16h-10q-13 0 -10 16l16 121q-43 -57 -135.5 -108.5t-195.5 -51.5q-159 0 -254 120t-95 302zM139 401q0 -165 86 -276t226 -111 q106 0 200.5 59.5t139.5 133.5l81 581q-4 8 -14 21.5t-34.5 35.5t-55 40t-78 31.5t-100.5 13.5q-188 0 -319.5 -153t-131.5 -376zM494 1145q-12 -5 -17 6l-6 12q-4 9 8 15l361 186q10 3 16 -6l6 -10q6 -12 -8 -19z" />
<glyph unicode="&#xe2;" horiz-adv-x="1064" d="M102 399q0 157 65.5 287.5t177.5 205.5t245 75q103 0 175.5 -37t115.5 -86l16 86q3 16 12 16h11q13 0 10 -16l-127 -914q-3 -16 -17 -16h-10q-13 0 -10 16l16 121q-43 -57 -135.5 -108.5t-195.5 -51.5q-159 0 -254 120t-95 302zM139 401q0 -165 86 -276t226 -111 q106 0 200.5 59.5t139.5 133.5l81 581q-4 8 -14 21.5t-34.5 35.5t-55 40t-78 31.5t-100.5 13.5q-188 0 -319.5 -153t-131.5 -376zM408 1122q-8 -5 -15 2l-6 11q-2 11 -1.5 12t13.5 12l260 209q10 7 17 0l207 -217q9 -9 2 -16l-8 -9q-8 -8 -15 -2l-196 207z" />
<glyph unicode="&#xe3;" horiz-adv-x="1064" d="M102 399q0 157 65.5 287.5t177.5 205.5t245 75q103 0 175.5 -37t115.5 -86l16 86q3 16 12 16h11q13 0 10 -16l-127 -914q-3 -16 -17 -16h-10q-13 0 -10 16l16 121q-43 -57 -135.5 -108.5t-195.5 -51.5q-159 0 -254 120t-95 302zM139 401q0 -165 86 -276t226 -111 q106 0 200.5 59.5t139.5 133.5l81 581q-4 8 -14 21.5t-34.5 35.5t-55 40t-78 31.5t-100.5 13.5q-188 0 -319.5 -153t-131.5 -376zM391 1194l-14 4q-12 3 -6 19q9 23 21 44.5t35 54.5t56.5 53t71.5 20q40 0 64 -23t34 -55.5t18.5 -65t27 -55.5t49.5 -23q85 0 143 148 q6 15 14 12l15 -4q15 -4 6 -18q-74 -172 -183 -172q-39 0 -63 23t-34.5 55.5t-19.5 64.5t-27 55t-48 23q-28 0 -54 -18t-44.5 -46t-29 -48.5t-17.5 -37.5q-6 -15 -15 -10z" />
<glyph unicode="&#xe4;" horiz-adv-x="1064" d="M102 399q0 157 65.5 287.5t177.5 205.5t245 75q103 0 175.5 -37t115.5 -86l16 86q3 16 12 16h11q13 0 10 -16l-127 -914q-3 -16 -17 -16h-10q-13 0 -10 16l16 121q-43 -57 -135.5 -108.5t-195.5 -51.5q-159 0 -254 120t-95 302zM139 401q0 -165 86 -276t226 -111 q106 0 200.5 59.5t139.5 133.5l81 581q-4 8 -14 21.5t-34.5 35.5t-55 40t-78 31.5t-100.5 13.5q-188 0 -319.5 -153t-131.5 -376zM842 1239q-37 0 -37 39q0 20 15 36.5t34 16.5q39 0 39 -41q0 -23 -15 -37t-36 -14zM494 1239q-18 0 -28.5 10.5t-10.5 28.5q0 24 15.5 38.5 t35.5 14.5q37 0 37 -41q0 -23 -13 -37t-36 -14z" />
<glyph unicode="&#xe5;" horiz-adv-x="1064" d="M102 399q0 157 65.5 287.5t177.5 205.5t245 75q103 0 175.5 -37t115.5 -86l16 86q3 16 12 16h11q13 0 10 -16l-127 -914q-3 -16 -17 -16h-10q-13 0 -10 16l16 121q-43 -57 -135.5 -108.5t-195.5 -51.5q-159 0 -254 120t-95 302zM139 401q0 -165 86 -276t226 -111 q106 0 200.5 59.5t139.5 133.5l81 581q-4 8 -14 21.5t-34.5 35.5t-55 40t-78 31.5t-100.5 13.5q-188 0 -319.5 -153t-131.5 -376zM627 1044q-73 0 -119.5 52.5t-46.5 130.5q0 100 67.5 171.5t157.5 71.5q71 0 117.5 -53t46.5 -131q0 -100 -67 -171t-156 -71zM631 1079 q72 0 128 59.5t56 141.5q0 66 -36 111t-97 45q-73 0 -128.5 -60t-55.5 -141q0 -68 34 -112t99 -44z" />
<glyph unicode="&#xe6;" horiz-adv-x="1542" d="M758 483q82 -16 207 -16q204 -2 329 63t125 179q0 95 -80.5 158t-212.5 63q-98 0 -192.5 -45t-151.5 -119q1 -26 -1.5 -65.5t-5.5 -66t-9.5 -82.5t-7.5 -69zM94 254q0 -111 55.5 -175.5t165.5 -64.5q105 0 207 49t152 103l51 356q-3 1 -34.5 13t-59 21t-72 17.5 t-84.5 8.5q-165 0 -273 -92t-108 -236zM752 446l-37 -278q44 -76 120.5 -115t165.5 -39q150 0 289 105q9 6 15 -4l8 -13q4 -8 -8 -20q-45 -37 -130.5 -71t-177.5 -34q-99 0 -182 44t-125 110q-61 -59 -164.5 -106.5t-208.5 -47.5q-123 0 -191.5 73t-68.5 200 q0 162 117.5 265t302.5 103q71 0 140 -17.5t112 -37.5q18 123 15 204.5t-50.5 122t-152.5 40.5q-56 0 -107 -10.5t-75.5 -20.5t-57.5 -28t-35 -19q-11 -6 -16 4l-6 12q-5 12 8 19q5 3 14 8.5t39.5 19.5t62.5 24.5t81 19t98 8.5q105 0 161 -36.5t70 -111.5q65 70 158.5 109 t191.5 39q147 0 237.5 -74t90.5 -184q0 -130 -135 -205.5t-356 -73.5q-107 0 -213 16z" />
<glyph unicode="&#xe7;" horiz-adv-x="1017" d="M100 408q0 161 75 290.5t195 199t257 69.5q184 0 309 -125q7 -12 -2 -21l-10 -10q-10 -9 -21 2l-11 11q-11 10 -21 18.5t-28.5 22t-40 24t-48 20.5t-59.5 15.5t-68 5.5q-95 0 -184 -39t-156.5 -106.5t-108.5 -166t-41 -210.5q0 -165 103 -279.5t247 -114.5q34 0 68.5 6.5 t63.5 17t57 24.5t49.5 28t40.5 28.5t31 25t21 18.5l9 8q9 10 17 2l10 -10q10 -10 0 -21q-8 -8 -19 -18t-47.5 -37t-73.5 -47t-93 -38t-111 -21l-121 -160q30 10 62 10q64 0 109.5 -35.5t45.5 -105.5q0 -84 -58 -139.5t-147 -55.5q-100 0 -155 70q-9 9 2 20l8 8q10 10 18 -2 q46 -59 125 -59q67 0 117.5 43t50.5 113q0 53 -33 79.5t-88 26.5q-54 0 -100 -18q-9 -4 -14 6t0 16l133 180q-155 9 -260 131.5t-105 299.5z" />
<glyph unicode="&#xe8;" horiz-adv-x="1009" d="M100 387q0 161 63.5 294t177 209.5t253.5 76.5q147 0 237.5 -74t90.5 -184q0 -130 -139 -202.5t-382 -72.5q-122 0 -260 21q-4 -46 -4 -64q0 -167 86 -272t238 -105q89 0 168 32t131 73q12 10 18 -2l6 -13q4 -8 -2 -14q-37 -37 -134 -75t-187 -38q-119 0 -202 57 t-121 147.5t-38 205.5zM145 492q157 -21 254 -21q227 0 356.5 62t129.5 176q0 95 -79.5 158t-211.5 63q-174 0 -298 -125t-151 -313zM739 1147l-309 184q-11 7 -2 19l4 6q6 10 19 6l307 -186q10 -6 4 -15l-4 -8q-8 -12 -19 -6z" />
<glyph unicode="&#xe9;" horiz-adv-x="1009" d="M100 387q0 161 63.5 294t177 209.5t253.5 76.5q147 0 237.5 -74t90.5 -184q0 -130 -139 -202.5t-382 -72.5q-122 0 -260 21q-4 -46 -4 -64q0 -167 86 -272t238 -105q89 0 168 32t131 73q12 10 18 -2l6 -13q4 -8 -2 -14q-37 -37 -134 -75t-187 -38q-119 0 -202 57 t-121 147.5t-38 205.5zM145 492q157 -21 254 -21q227 0 356.5 62t129.5 176q0 95 -79.5 158t-211.5 63q-174 0 -298 -125t-151 -313zM500 1145q-12 -5 -17 6l-6 12q-4 9 8 15l361 186q10 3 16 -6l6 -10q6 -12 -8 -19z" />
<glyph unicode="&#xea;" horiz-adv-x="1009" d="M100 387q0 161 63.5 294t177 209.5t253.5 76.5q147 0 237.5 -74t90.5 -184q0 -130 -139 -202.5t-382 -72.5q-122 0 -260 21q-4 -46 -4 -64q0 -167 86 -272t238 -105q89 0 168 32t131 73q12 10 18 -2l6 -13q4 -8 -2 -14q-37 -37 -134 -75t-187 -38q-119 0 -202 57 t-121 147.5t-38 205.5zM145 492q157 -21 254 -21q227 0 356.5 62t129.5 176q0 95 -79.5 158t-211.5 63q-174 0 -298 -125t-151 -313zM385 1122q-7 -5 -14 2l-6 11q-2 11 -1.5 12t13.5 12l260 209q10 6 16 0l207 -217q9 -9 2 -16l-8 -9q-7 -7 -14 -2l-197 207z" />
<glyph unicode="&#xeb;" horiz-adv-x="1009" d="M100 387q0 161 63.5 294t177 209.5t253.5 76.5q147 0 237.5 -74t90.5 -184q0 -130 -139 -202.5t-382 -72.5q-122 0 -260 21q-4 -46 -4 -64q0 -167 86 -272t238 -105q89 0 168 32t131 73q12 10 18 -2l6 -13q4 -8 -2 -14q-37 -37 -134 -75t-187 -38q-119 0 -202 57 t-121 147.5t-38 205.5zM145 492q157 -21 254 -21q227 0 356.5 62t129.5 176q0 95 -79.5 158t-211.5 63q-174 0 -298 -125t-151 -313zM805 1239q-37 0 -37 39q0 20 15 36.5t34 16.5q39 0 39 -41q0 -23 -15 -37t-36 -14zM457 1239q-18 0 -28.5 10.5t-10.5 28.5q0 24 15.5 38.5 t35.5 14.5q37 0 37 -41q0 -23 -13 -37t-36 -14z" />
<glyph unicode="&#xec;" horiz-adv-x="405" d="M117 0q-18 0 -15 16l129 914q3 16 17 16h10q15 0 12 -16l-129 -914q-3 -16 -14 -16h-10zM401 1147l-309 184q-11 7 -2 19l4 6q6 10 19 6l307 -186q10 -6 4 -15l-4 -8q-8 -12 -19 -6z" />
<glyph unicode="&#xed;" horiz-adv-x="405" d="M117 0q-18 0 -15 16l129 914q3 16 17 16h10q15 0 12 -16l-129 -914q-3 -16 -14 -16h-10zM145 1145q-11 -4 -16 6l-6 12q-4 9 8 15l361 186q10 3 16 -6l6 -10q6 -12 -8 -19z" />
<glyph unicode="&#xee;" horiz-adv-x="405" d="M117 0q-18 0 -15 16l129 914q3 16 17 16h10q15 0 12 -16l-129 -914q-3 -16 -14 -16h-10zM51 1122q-8 -5 -14 2l-6 11q-2 11 -1.5 12t13.5 12l260 209q10 6 16 0l207 -217q9 -9 2 -16l-8 -9q-7 -7 -14 -2l-197 207z" />
<glyph unicode="&#xef;" horiz-adv-x="405" d="M117 0q-18 0 -15 16l129 914q3 16 17 16h10q15 0 12 -16l-129 -914q-3 -16 -14 -16h-10zM467 1239q-37 0 -37 39q0 20 15 36.5t34 16.5q39 0 39 -41q0 -23 -15 -37t-36 -14zM119 1239q-18 0 -28.5 10.5t-10.5 28.5q0 24 15.5 38.5t35.5 14.5q37 0 37 -41q0 -23 -13 -37 t-36 -14z" />
<glyph unicode="&#xf0;" horiz-adv-x="1136" d="M100 395q-1 98 34 194.5t97.5 173t156 124t198.5 47.5q76 0 142 -25t112 -66.5t75 -79t50 -77.5q13 344 -209 574l-279 -162q-4 -3 -10.5 -1.5t-7.5 7.5l-2 6q-7 10 8 18l266 156q-111 108 -248 168q-11 7 -4 16l6 13q5 11 19 6q147 -67 262 -182l139 81q10 7 17 -4l2 -6 q6 -15 -9 -22l-127 -74q216 -235 216 -557q0 -80 -14 -163.5t-41.5 -167.5t-73 -157.5t-103.5 -131t-138 -90.5t-173 -33q-152 0 -256.5 119t-104.5 296zM580 897q-126 -3 -229 -73.5t-159.5 -185t-56.5 -245.5q0 -161 95 -269t237 -108q129 0 234 76t169 202.5t86 287.5 l5 30q0 1 -2 5q-65 163 -196 235q-83 45 -183 45z" />
<glyph unicode="&#xf1;" horiz-adv-x="1036" d="M102 16l131 914q3 16 15 16h10q10 0 10 -16l-16 -129q155 166 338 166q331 0 266 -439l-72 -512q-3 -16 -16 -16h-10q-16 0 -13 16l74 512q59 402 -229 402q-69 0 -132.5 -23.5t-107 -60t-67.5 -62.5t-39 -49l-103 -719q-3 -16 -16 -16h-8q-18 0 -15 16zM377 1196l-15 4 q-12 3 -6 19q9 23 21 45t35.5 54.5t57 52.5t71.5 20q40 0 64 -23t33.5 -55.5t18 -65t27 -55.5t49.5 -23q86 0 144 148q6 15 14 12l14 -4q15 -4 6 -18q-74 -172 -182 -172q-39 0 -63 23t-34.5 55.5t-19.5 64.5t-27 55t-48 23q-28 0 -54 -18t-45 -46t-29.5 -48.5t-17.5 -37.5 q-6 -14 -14 -10z" />
<glyph unicode="&#xf2;" horiz-adv-x="1099" d="M100 403q0 115 41.5 220t110.5 180t161.5 119.5t190.5 44.5q161 0 263 -122t102 -300q0 -115 -41.5 -221t-109.5 -181.5t-160.5 -120.5t-190.5 -45q-163 0 -265 122t-102 304zM137 403q0 -165 93.5 -277t236.5 -112q122 0 229.5 72t171.5 194.5t64 264.5 q0 164 -91.5 274.5t-236.5 110.5q-91 0 -177 -42.5t-149.5 -113t-102 -168.5t-38.5 -203zM750 1147l-310 184q-11 7 -2 19l4 6q6 10 19 6l307 -186q10 -6 4 -15l-4 -8q-8 -11 -18 -6z" />
<glyph unicode="&#xf3;" horiz-adv-x="1099" d="M100 403q0 115 41.5 220t110.5 180t161.5 119.5t190.5 44.5q161 0 263 -122t102 -300q0 -115 -41.5 -221t-109.5 -181.5t-160.5 -120.5t-190.5 -45q-163 0 -265 122t-102 304zM137 403q0 -165 93.5 -277t236.5 -112q122 0 229.5 72t171.5 194.5t64 264.5 q0 164 -91.5 274.5t-236.5 110.5q-91 0 -177 -42.5t-149.5 -113t-102 -168.5t-38.5 -203zM516 1145q-11 -4 -16 6l-6 12q-4 9 8 15l360 186q11 4 17 -6l6 -10q6 -12 -8 -19z" />
<glyph unicode="&#xf4;" horiz-adv-x="1099" d="M100 403q0 115 41.5 220t110.5 180t161.5 119.5t190.5 44.5q161 0 263 -122t102 -300q0 -115 -41.5 -221t-109.5 -181.5t-160.5 -120.5t-190.5 -45q-163 0 -265 122t-102 304zM137 403q0 -165 93.5 -277t236.5 -112q122 0 229.5 72t171.5 194.5t64 264.5 q0 164 -91.5 274.5t-236.5 110.5q-91 0 -177 -42.5t-149.5 -113t-102 -168.5t-38.5 -203zM406 1122q-8 -5 -15 2l-6 11q-2 11 -1.5 12t13.5 12l260 209q10 7 17 0l207 -217q9 -9 2 -16l-9 -9q-7 -7 -14 -2l-196 207z" />
<glyph unicode="&#xf5;" horiz-adv-x="1099" d="M100 403q0 115 41.5 220t110.5 180t161.5 119.5t190.5 44.5q161 0 263 -122t102 -300q0 -115 -41.5 -221t-109.5 -181.5t-160.5 -120.5t-190.5 -45q-163 0 -265 122t-102 304zM137 403q0 -165 93.5 -277t236.5 -112q122 0 229.5 72t171.5 194.5t64 264.5 q0 164 -91.5 274.5t-236.5 110.5q-91 0 -177 -42.5t-149.5 -113t-102 -168.5t-38.5 -203zM391 1194l-14 4q-12 3 -6 19q9 23 21 44.5t35 54.5t56.5 53t71.5 20q40 0 64 -23t34 -55.5t18.5 -65t27 -55.5t49.5 -23q85 0 143 148q6 15 14 12l15 -4q15 -4 6 -18 q-74 -172 -183 -172q-39 0 -63 23t-34.5 55.5t-19.5 64.5t-27 55t-48 23q-28 0 -54 -18t-44.5 -46t-29 -48.5t-17.5 -37.5q-6 -15 -15 -10z" />
<glyph unicode="&#xf6;" horiz-adv-x="1099" d="M100 403q0 115 41.5 220t110.5 180t161.5 119.5t190.5 44.5q161 0 263 -122t102 -300q0 -115 -41.5 -221t-109.5 -181.5t-160.5 -120.5t-190.5 -45q-163 0 -265 122t-102 304zM137 403q0 -165 93.5 -277t236.5 -112q122 0 229.5 72t171.5 194.5t64 264.5 q0 164 -91.5 274.5t-236.5 110.5q-91 0 -177 -42.5t-149.5 -113t-102 -168.5t-38.5 -203zM821 1239q-37 0 -37 39q0 20 15.5 36.5t34.5 16.5q38 0 38 -41q0 -23 -15 -37t-36 -14zM473 1239q-18 0 -28.5 10.5t-10.5 28.5q0 24 15.5 38.5t35.5 14.5q37 0 37 -41q0 -23 -13 -37 t-36 -14z" />
<glyph unicode="&#xf7;" d="M651 952q-17 0 -28.5 14.5t-8.5 34.5t18 34t32 14q20 0 30.5 -13.5t7.5 -34.5t-17 -35t-34 -14zM262 696q-5 0 -8 4.5t-2 10.5l2 8q4 14 14 14h719q5 0 8 -4t2 -10l-2 -8q-4 -15 -14 -15h-719zM535 428q3 20 17.5 33.5t31.5 13.5q20 0 31 -13.5t8 -33.5q-3 -21 -17.5 -35 t-34.5 -14q-17 0 -28 14.5t-8 34.5z" />
<glyph unicode="&#xf8;" horiz-adv-x="1099" d="M100 403q0 115 41.5 220t110.5 180t161.5 119.5t190.5 44.5q92 0 166 -42t123 -116l70 59q14 9 20 0l6 -8q6 -11 -2 -24l-72 -64q54 -102 54 -227q0 -115 -41.5 -221t-109.5 -181.5t-160.5 -120.5t-190.5 -45q-93 0 -168.5 43t-124.5 119l-51 -45q-5 -4 -12.5 -3.5 t-10.5 5.5l-4 6q-8 11 4 23l54 45q-54 105 -54 233zM932 545q0 117 -45 205l-684 -586q46 -70 114 -110t150 -40q122 0 229.5 72t171.5 194.5t64 264.5zM137 403q0 -119 47 -208l682 587q-44 69 -111.5 108.5t-150.5 39.5q-91 0 -177 -42.5t-149.5 -113t-102 -168.5 t-38.5 -203z" />
<glyph unicode="&#xf9;" horiz-adv-x="1015" d="M414 14q56 0 108.5 18.5t87 42t65 55t42.5 48t20 29.5l103 723q3 16 16 16h10q16 0 13 -16l-129 -914q-3 -16 -17 -16h-10q-13 0 -10 16l16 125q-27 -31 -52.5 -54.5t-65 -51t-90 -43t-107.5 -15.5q-169 0 -234.5 109t-34.5 326l74 520q3 14 17 14h8q15 0 12 -16 l-72 -518q-60 -398 230 -398zM772 1147l-309 184q-11 7 -2 19l4 6q6 10 18 6l308 -186q10 -6 4 -15l-4 -8q-8 -12 -19 -6z" />
<glyph unicode="&#xfa;" horiz-adv-x="1015" d="M414 14q56 0 108.5 18.5t87 42t65 55t42.5 48t20 29.5l103 723q3 16 16 16h10q16 0 13 -16l-129 -914q-3 -16 -17 -16h-10q-13 0 -10 16l16 125q-27 -31 -52.5 -54.5t-65 -51t-90 -43t-107.5 -15.5q-169 0 -234.5 109t-34.5 326l74 520q3 14 17 14h8q15 0 12 -16 l-72 -518q-60 -398 230 -398zM371 1145q-12 -5 -17 6l-6 12q-4 9 8 15l361 186q10 3 16 -6l6 -10q6 -12 -8 -19z" />
<glyph unicode="&#xfb;" horiz-adv-x="1015" d="M414 14q56 0 108.5 18.5t87 42t65 55t42.5 48t20 29.5l103 723q3 16 16 16h10q16 0 13 -16l-129 -914q-3 -16 -17 -16h-10q-13 0 -10 16l16 125q-27 -31 -52.5 -54.5t-65 -51t-90 -43t-107.5 -15.5q-169 0 -234.5 109t-34.5 326l74 520q3 14 17 14h8q15 0 12 -16 l-72 -518q-60 -398 230 -398zM338 1122q-8 -5 -14 2l-7 11q-2 4 -2.5 6t0.5 4.5t2 3.5t5.5 4.5t7.5 5.5l260 209q10 6 16 0l207 -217q9 -9 2 -16l-8 -9q-7 -7 -14 -2l-197 207z" />
<glyph unicode="&#xfc;" horiz-adv-x="1015" d="M414 14q56 0 108.5 18.5t87 42t65 55t42.5 48t20 29.5l103 723q3 16 16 16h10q16 0 13 -16l-129 -914q-3 -16 -17 -16h-10q-13 0 -10 16l16 125q-27 -31 -52.5 -54.5t-65 -51t-90 -43t-107.5 -15.5q-169 0 -234.5 109t-34.5 326l74 520q3 14 17 14h8q15 0 12 -16 l-72 -518q-60 -398 230 -398zM768 1239q-37 0 -37 39q0 20 15 36.5t34 16.5q39 0 39 -41q0 -23 -15 -37t-36 -14zM420 1239q-18 0 -28.5 10.5t-10.5 28.5q0 24 15.5 38.5t35.5 14.5q37 0 37 -41q0 -23 -13 -37t-36 -14z" />
<glyph unicode="&#xfd;" horiz-adv-x="901" d="M354 20l-243 916q-3 13 6 16l12 4q12 3 16 -8l234 -887l475 891q8 11 18 6l11 -4q12 -6 6 -18l-768 -1425q-8 -13 -19 -7l-8 4q-11 7 -4 21zM397 1145q-11 -4 -16 6l-6 12q-4 9 8 15l360 186q11 4 17 -6l6 -10q6 -12 -8 -19z" />
<glyph unicode="&#xfe;" horiz-adv-x="1069" d="M150 96l-76 -565q0 -7 -6 -12.5t-11 -5.5h-14q-8 0 -8 18l266 1886q3 17 14 17h9q6 0 11 -5t5 -12l-84 -581q51 51 136 91t192 40q158 0 254 -121.5t96 -302.5q0 -248 -141 -407t-371 -159q-168 0 -272 119zM160 150q3 -10 19.5 -29.5t46.5 -45t83.5 -43.5t116.5 -18 q137 0 245 69.5t167 190t59 269.5q0 166 -89 276.5t-233 110.5q-66 0 -127.5 -20t-103 -49.5t-63.5 -49t-33 -33.5z" />
<glyph unicode="&#xff;" horiz-adv-x="901" d="M354 20l-243 916q-3 13 6 16l12 4q12 3 16 -8l234 -887l475 891q8 11 18 6l11 -4q12 -6 6 -18l-768 -1425q-8 -13 -19 -7l-8 4q-11 7 -4 21zM721 1239q-37 0 -37 39q0 20 15 36.5t34 16.5q39 0 39 -41q0 -23 -15 -37t-36 -14zM373 1239q-18 0 -28.5 10.5t-10.5 28.5 q0 24 15.5 38.5t35.5 14.5q37 0 37 -41q0 -23 -13 -37t-36 -14z" />
<glyph unicode="&#x100;" horiz-adv-x="1202" d="M-18 2q-4 -8 -13 -6l-16 6q-9 3 -4 12l772 1454q3 9 12 9h2q7 0 10 -9l353 -1452q3 -10 -8 -14l-11 -4q-11 -4 -14 6l-102 426h-756zM227 465h725l-225 944h-2zM508 1724q-16 0 -12 15l2 8q4 14 16 14h528q6 0 10 -4t3 -10l-2 -8q-4 -15 -15 -15h-530z" />
<glyph unicode="&#x101;" horiz-adv-x="1064" d="M102 399q0 157 65.5 287.5t177.5 205.5t245 75q103 0 175.5 -37t115.5 -86l16 86q3 16 12 16h11q13 0 10 -16l-127 -914q-3 -16 -17 -16h-10q-13 0 -10 16l16 121q-43 -57 -135.5 -108.5t-195.5 -51.5q-159 0 -254 120t-95 302zM139 401q0 -165 86 -276t226 -111 q106 0 200.5 59.5t139.5 133.5l81 581q-4 8 -14 21.5t-34.5 35.5t-55 40t-78 31.5t-100.5 13.5q-188 0 -319.5 -153t-131.5 -376zM383 1243q-15 0 -12 14l2 9q3 14 16 14h529q6 0 9.5 -4t2.5 -10l-2 -9q-4 -14 -15 -14h-530z" />
<glyph unicode="&#x102;" horiz-adv-x="1202" d="M-18 2q-4 -8 -13 -6l-16 6q-9 3 -4 12l772 1454q3 9 12 9h2q7 0 10 -9l353 -1452q3 -10 -8 -14l-11 -4q-11 -4 -14 6l-102 426h-756zM227 465h725l-225 944h-2zM766 1597q-91 0 -147 63t-56 157q0 16 10 16h13q10 0 10 -12q-1 -83 47.5 -135t126.5 -52q75 0 137.5 52 t87.5 135q3 12 13 12h16q12 0 8 -16q-28 -94 -102 -157t-164 -63z" />
<glyph unicode="&#x103;" horiz-adv-x="1064" d="M102 399q0 157 65.5 287.5t177.5 205.5t245 75q103 0 175.5 -37t115.5 -86l16 86q3 16 12 16h11q13 0 10 -16l-127 -914q-3 -16 -17 -16h-10q-13 0 -10 16l16 121q-43 -57 -135.5 -108.5t-195.5 -51.5q-159 0 -254 120t-95 302zM139 401q0 -165 86 -276t226 -111 q106 0 200.5 59.5t139.5 133.5l81 581q-4 8 -14 21.5t-34.5 35.5t-55 40t-78 31.5t-100.5 13.5q-188 0 -319.5 -153t-131.5 -376zM631 1116q-91 0 -147 62.5t-56 156.5q0 17 10 17h13q10 0 10 -13q-1 -83 47.5 -134.5t126.5 -51.5q75 0 137.5 51.5t87.5 134.5q3 13 12 13h17 q12 0 8 -17q-28 -94 -102 -156.5t-164 -62.5z" />
<glyph unicode="&#x104;" horiz-adv-x="1202" d="M-18 2q-4 -8 -13 -6l-16 6q-9 3 -4 12l772 1454q3 9 12 9h2q7 0 10 -9l353 -1452q3 -10 -8 -14q-48 -23 -82 -41.5t-79.5 -50.5t-74.5 -63.5t-49.5 -76.5t-20.5 -94q0 -55 32.5 -91t92.5 -36q44 0 86 18t58 30q11 7 18 -3l8 -12q5 -10 -12 -20q-84 -49 -160 -49 q-78 0 -118.5 45t-40.5 116q0 60 25 113t72.5 96.5t97 75.5t116.5 66l-96 405h-756zM227 465h725l-225 944h-2z" />
<glyph unicode="&#x105;" horiz-adv-x="1064" d="M102 399q0 157 65.5 287.5t177.5 205.5t245 75q103 0 175.5 -37t115.5 -86l16 86q3 16 12 16h11q13 0 10 -16l-127 -912q-3 -14 -15 -18q-47 -22 -81 -41t-78.5 -50.5t-73 -63.5t-48.5 -76.5t-20 -92.5q0 -55 32.5 -91t92.5 -36q44 0 86 18t58 30q10 7 18 -3l8 -12 q5 -10 -12 -20q-84 -49 -160 -49q-78 0 -118.5 45t-40.5 116q0 61 26 115t74 98t99 77t118 67l14 106q-43 -57 -135.5 -108.5t-195.5 -51.5q-159 0 -254 120t-95 302zM139 401q0 -165 86 -276t226 -111q106 0 200.5 59.5t139.5 133.5l81 581q-4 8 -14 21.5t-34.5 35.5 t-55 40t-78 31.5t-100.5 13.5q-188 0 -319.5 -153t-131.5 -376z" />
<glyph unicode="&#x106;" horiz-adv-x="1366" d="M141 616q0 169 65.5 325.5t172.5 268t249 178t290 66.5q137 0 237 -48t188 -142q9 -8 0 -17l-10 -10q-8 -8 -16 0q-80 90 -176 136t-223 46q-142 0 -277.5 -64.5t-237 -171.5t-163.5 -256.5t-62 -310.5q0 -166 70 -303.5t193.5 -217t273.5 -79.5q241 0 456 191q7 7 15 0 l10 -12q6 -7 -2 -15q-218 -200 -479 -200q-166 0 -298 85t-204 230t-72 321zM778 1591q-11 -4 -16 6l-6 13q-4 8 8 14l360 186q11 4 17 -6l6 -10q6 -11 -8 -18z" />
<glyph unicode="&#x107;" horiz-adv-x="1017" d="M100 408q0 161 75 290.5t195 199t257 69.5q184 0 309 -125q7 -12 -2 -21l-10 -10q-10 -9 -21 2l-11 11q-11 10 -21 18.5t-28.5 22t-40 24t-48 20.5t-59.5 15.5t-68 5.5q-95 0 -184 -39t-156.5 -106.5t-108.5 -166t-41 -210.5q0 -165 103 -279.5t247 -114.5q34 0 68.5 6.5 t63.5 17t57 24.5t49.5 28t40.5 28.5t31 25t21 18.5l9 8q9 10 17 2l10 -10q10 -10 0 -21q-9 -9 -20 -19.5t-50.5 -39t-79.5 -49.5t-99.5 -38.5t-117.5 -17.5q-162 0 -274.5 124t-112.5 307zM541 1145q-12 -5 -17 6l-6 12q-4 9 8 15l361 186q10 3 16 -6l6 -10q6 -12 -8 -19z " />
<glyph unicode="&#x108;" horiz-adv-x="1366" d="M141 616q0 169 65.5 325.5t172.5 268t249 178t290 66.5q137 0 237 -48t188 -142q9 -8 0 -17l-10 -10q-8 -8 -16 0q-80 90 -176 136t-223 46q-142 0 -277.5 -64.5t-237 -171.5t-163.5 -256.5t-62 -310.5q0 -166 70 -303.5t193.5 -217t273.5 -79.5q241 0 456 191q7 7 15 0 l10 -12q6 -7 -2 -15q-218 -200 -479 -200q-166 0 -298 85t-204 230t-72 321zM705 1563q-8 -5 -15 2l-6 10q-2 11 -1.5 12t13.5 12l260 209q10 7 17 0l207 -217q9 -9 2 -16l-8 -8q-8 -8 -15 -2l-196 207z" />
<glyph unicode="&#x109;" horiz-adv-x="1017" d="M100 408q0 161 75 290.5t195 199t257 69.5q184 0 309 -125q7 -12 -2 -21l-10 -10q-10 -9 -21 2l-11 11q-11 10 -21 18.5t-28.5 22t-40 24t-48 20.5t-59.5 15.5t-68 5.5q-95 0 -184 -39t-156.5 -106.5t-108.5 -166t-41 -210.5q0 -165 103 -279.5t247 -114.5q34 0 68.5 6.5 t63.5 17t57 24.5t49.5 28t40.5 28.5t31 25t21 18.5l9 8q9 10 17 2l10 -10q10 -10 0 -21q-9 -9 -20 -19.5t-50.5 -39t-79.5 -49.5t-99.5 -38.5t-117.5 -17.5q-162 0 -274.5 124t-112.5 307zM424 1122q-8 -5 -14 2l-7 11q-2 4 -2.5 6t0.5 4.5t2 3.5t5.5 4.5t7.5 5.5l260 209 q10 6 16 0l207 -217q9 -9 2 -16l-8 -9q-7 -7 -14 -2l-197 207z" />
<glyph unicode="&#x10a;" horiz-adv-x="1366" d="M141 616q0 169 65.5 325.5t172.5 268t249 178t290 66.5q137 0 237 -48t188 -142q9 -8 0 -17l-10 -10q-8 -8 -16 0q-80 90 -176 136t-223 46q-142 0 -277.5 -64.5t-237 -171.5t-163.5 -256.5t-62 -310.5q0 -166 70 -303.5t193.5 -217t273.5 -79.5q241 0 456 191q7 7 15 0 l10 -12q6 -7 -2 -15q-218 -200 -479 -200q-166 0 -298 85t-204 230t-72 321zM950 1677q-19 0 -30 12.5t-11 30.5q0 22 17 39t39 17q18 0 28.5 -12.5t10.5 -30.5q0 -22 -15.5 -39t-38.5 -17z" />
<glyph unicode="&#x10b;" horiz-adv-x="1017" d="M100 408q0 161 75 290.5t195 199t257 69.5q184 0 309 -125q7 -12 -2 -21l-10 -10q-10 -9 -21 2l-11 11q-11 10 -21 18.5t-28.5 22t-40 24t-48 20.5t-59.5 15.5t-68 5.5q-95 0 -184 -39t-156.5 -106.5t-108.5 -166t-41 -210.5q0 -165 103 -279.5t247 -114.5q34 0 68.5 6.5 t63.5 17t57 24.5t49.5 28t40.5 28.5t31 25t21 18.5l9 8q9 10 17 2l10 -10q10 -10 0 -21q-9 -9 -20 -19.5t-50.5 -39t-79.5 -49.5t-99.5 -38.5t-117.5 -17.5q-162 0 -274.5 124t-112.5 307zM662 1239q-19 0 -30 12.5t-11 30.5q0 22 16.5 38.5t38.5 16.5q18 0 28.5 -12.5 t10.5 -30.5q0 -22 -15 -38.5t-38 -16.5z" />
<glyph unicode="&#x10c;" horiz-adv-x="1366" d="M141 616q0 169 65.5 325.5t172.5 268t249 178t290 66.5q137 0 237 -48t188 -142q9 -8 0 -17l-10 -10q-8 -8 -16 0q-80 90 -176 136t-223 46q-142 0 -277.5 -64.5t-237 -171.5t-163.5 -256.5t-62 -310.5q0 -166 70 -303.5t193.5 -217t273.5 -79.5q241 0 456 191q7 7 15 0 l10 -12q6 -7 -2 -15q-218 -200 -479 -200q-166 0 -298 85t-204 230t-72 321zM930 1579l-207 217q-9 9 -2 16l8 9q7 7 14 2l197 -207l258 209q8 5 14 -2l7 -11q2 -4 2.5 -6t-0.5 -4.5t-2 -3.5t-5.5 -4.5t-7.5 -5.5l-260 -209q-10 -6 -16 0z" />
<glyph unicode="&#x10d;" horiz-adv-x="1017" d="M100 408q0 161 75 290.5t195 199t257 69.5q184 0 309 -125q7 -12 -2 -21l-10 -10q-10 -9 -21 2l-11 11q-11 10 -21 18.5t-28.5 22t-40 24t-48 20.5t-59.5 15.5t-68 5.5q-95 0 -184 -39t-156.5 -106.5t-108.5 -166t-41 -210.5q0 -165 103 -279.5t247 -114.5q34 0 68.5 6.5 t63.5 17t57 24.5t49.5 28t40.5 28.5t31 25t21 18.5l9 8q9 10 17 2l10 -10q10 -10 0 -21q-9 -9 -20 -19.5t-50.5 -39t-79.5 -49.5t-99.5 -38.5t-117.5 -17.5q-162 0 -274.5 124t-112.5 307zM637 1133l-207 217q-9 9 -2 16l8 8q8 8 15 2l196 -207l258 209q8 5 15 -2l6 -10 q2 -11 1 -12.5t-14 -12.5l-260 -208q-10 -6 -16 0z" />
<glyph unicode="&#x10e;" horiz-adv-x="1386" d="M141 14l197 1405q4 15 14 15h371q160 0 288 -84t198.5 -227t70.5 -316q0 -130 -40 -253t-112 -222.5t-166.5 -174.5t-208 -116t-231.5 -41h-370q-11 0 -11 14zM180 37h346q137 0 268 61.5t230 164t159 246t60 298.5q0 162 -66.5 296.5t-188 214t-271.5 79.5h-346z M721 1579l-207 217q-9 9 -2 16l8 9q8 8 15 2l196 -207l258 209q8 5 15 -2l6 -11q4 -8 1 -12t-14 -12l-260 -209q-10 -6 -16 0z" />
<glyph unicode="&#x10f;" horiz-adv-x="1081" d="M1122 1397q0 23 17.5 40t42.5 17q69 0 69 -98q0 -60 -25 -117.5t-73 -93.5q-13 -10 -18 0l-9 12q-8 13 9 23q73 54 73 159q0 15 -4 29q-12 -12 -39 -12q-19 0 -31 12t-12 29zM100 399q0 120 40 226t107.5 180.5t160 118t194.5 43.5q50 0 97.5 -12.5t79 -30.5t55.5 -35.5 t36 -30.5l11 -12l82 571q0 17 12 17h14q11 0 8 -17l-194 -1401q-2 -16 -17 -16h-10q-13 0 -10 16l16 115q-56 -60 -145 -107t-195 -47q-154 0 -248 120.5t-94 301.5zM137 399q0 -164 85.5 -274.5t219.5 -110.5q59 0 115.5 18t95 41.5t71.5 52.5t47.5 46t19.5 25l83 591 q-4 6 -11 15.5t-32.5 34t-54.5 43t-76 34t-98 15.5q-127 0 -234 -70.5t-169 -192.5t-62 -268z" />
<glyph unicode="&#x110;" horiz-adv-x="1425" d="M141 14l97 682h-74q-5 0 -8 4.5t-2 10.5v8q4 14 16 14h74l96 686q0 15 14 15h406q159 0 287.5 -83.5t200 -226t71.5 -313.5q0 -163 -64 -314t-169 -259.5t-243.5 -173t-283.5 -64.5h-405q-13 0 -13 14zM182 37h381q137 0 268 61.5t230 164t159 246t60 298.5 q0 162 -66.5 296.5t-188 214t-271.5 79.5h-381l-94 -664h528q15 0 12 -14l-2 -8q0 -15 -14 -15h-529z" />
<glyph unicode="&#x111;" horiz-adv-x="1064" d="M100 399q0 120 40 226t107.5 180.5t160 118t194.5 43.5q50 0 97.5 -12.5t79 -30.5t55.5 -35.5t36 -30.5l11 -12l39 276h-416q-12 0 -12 15l2 8q0 6 5 10t11 4h416l37 258q0 17 12 17h14q11 0 8 -17l-36 -258h79q6 0 10 -4t3 -10l-2 -8q-4 -15 -17 -15h-78l-153 -1106 q-2 -16 -17 -16h-10q-13 0 -10 16l16 115q-56 -60 -145 -107t-195 -47q-154 0 -248 120.5t-94 301.5zM137 399q0 -164 85.5 -274.5t219.5 -110.5q59 0 115.5 18t95 41.5t71.5 52.5t47.5 46t19.5 25l83 591q-4 6 -11 15.5t-32.5 34t-54.5 43t-76 34t-98 15.5 q-127 0 -234 -70.5t-169 -192.5t-62 -268z" />
<glyph unicode="&#x112;" horiz-adv-x="1120" d="M141 14l199 1405q0 6 4.5 10.5t9.5 4.5h750q6 0 9.5 -4.5t2.5 -10.5l-2 -8q-4 -14 -14 -14h-727l-88 -633h637q6 0 9.5 -4t2.5 -10l-2 -9q-4 -14 -14 -14h-639l-97 -690h725q10 0 13.5 -3.5t1.5 -10.5l-2 -9q-4 -14 -17 -14h-749q-13 0 -13 14zM479 1724q-16 0 -12 15 l2 8q3 14 16 14h529q6 0 9.5 -4t2.5 -10l-2 -8q-4 -15 -14 -15h-531z" />
<glyph unicode="&#x113;" horiz-adv-x="1009" d="M100 387q0 161 63.5 294t177 209.5t253.5 76.5q147 0 237.5 -74t90.5 -184q0 -130 -139 -202.5t-382 -72.5q-122 0 -260 21q-4 -46 -4 -64q0 -167 86 -272t238 -105q89 0 168 32t131 73q12 10 18 -2l6 -13q4 -8 -2 -14q-37 -37 -134 -75t-187 -38q-119 0 -202 57 t-121 147.5t-38 205.5zM145 492q157 -21 254 -21q227 0 356.5 62t129.5 176q0 95 -79.5 158t-211.5 63q-174 0 -298 -125t-151 -313zM373 1243q-17 0 -13 14l2 9q4 14 17 14h528q6 0 10 -4t3 -10l-2 -9q-4 -14 -15 -14h-530z" />
<glyph unicode="&#x114;" horiz-adv-x="1120" d="M141 14l199 1405q0 6 4.5 10.5t9.5 4.5h750q6 0 9.5 -4.5t2.5 -10.5l-2 -8q-4 -14 -14 -14h-727l-88 -633h637q6 0 9.5 -4t2.5 -10l-2 -9q-4 -14 -14 -14h-639l-97 -690h725q10 0 13.5 -3.5t1.5 -10.5l-2 -9q-4 -14 -17 -14h-749q-13 0 -13 14zM739 1597q-91 0 -146.5 63 t-55.5 157q0 16 10 16h12q10 0 10 -12q-1 -83 47.5 -135t126.5 -52q75 0 138 52t88 135q3 12 12 12h16q13 0 9 -16q-28 -94 -102.5 -157t-164.5 -63z" />
<glyph unicode="&#x115;" horiz-adv-x="1009" d="M100 387q0 161 63.5 294t177 209.5t253.5 76.5q147 0 237.5 -74t90.5 -184q0 -130 -139 -202.5t-382 -72.5q-122 0 -260 21q-4 -46 -4 -64q0 -167 86 -272t238 -105q89 0 168 32t131 73q12 10 18 -2l6 -13q4 -8 -2 -14q-37 -37 -134 -75t-187 -38q-119 0 -202 57 t-121 147.5t-38 205.5zM145 492q157 -21 254 -21q227 0 356.5 62t129.5 176q0 95 -79.5 158t-211.5 63q-174 0 -298 -125t-151 -313zM610 1116q-91 0 -146.5 62.5t-55.5 156.5q0 17 10 17h12q10 0 10 -13q-1 -83 47.5 -134.5t126.5 -51.5q75 0 138 51.5t88 134.5q3 13 12 13 h16q13 0 9 -17q-28 -94 -102 -156.5t-165 -62.5z" />
<glyph unicode="&#x116;" horiz-adv-x="1120" d="M141 14l199 1405q0 6 4.5 10.5t9.5 4.5h750q6 0 9.5 -4.5t2.5 -10.5l-2 -8q-4 -14 -14 -14h-727l-88 -633h637q6 0 9.5 -4t2.5 -10l-2 -9q-4 -14 -14 -14h-639l-97 -690h725q10 0 13.5 -3.5t1.5 -10.5l-2 -9q-4 -14 -17 -14h-749q-13 0 -13 14zM756 1677q-19 0 -30 12.5 t-11 30.5q0 22 16.5 39t38.5 17q18 0 28.5 -12.5t10.5 -30.5q0 -22 -15 -39t-38 -17z" />
<glyph unicode="&#x117;" horiz-adv-x="1009" d="M100 387q0 161 63.5 294t177 209.5t253.5 76.5q147 0 237.5 -74t90.5 -184q0 -130 -139 -202.5t-382 -72.5q-122 0 -260 21q-4 -46 -4 -64q0 -167 86 -272t238 -105q89 0 168 32t131 73q12 10 18 -2l6 -13q4 -8 -2 -14q-37 -37 -134 -75t-187 -38q-119 0 -202 57 t-121 147.5t-38 205.5zM145 492q157 -21 254 -21q227 0 356.5 62t129.5 176q0 95 -79.5 158t-211.5 63q-174 0 -298 -125t-151 -313zM631 1239q-19 0 -30 12.5t-11 30.5q0 22 16.5 38.5t38.5 16.5q18 0 28.5 -12.5t10.5 -30.5q0 -22 -15 -38.5t-38 -16.5z" />
<glyph unicode="&#x118;" horiz-adv-x="1120" d="M141 14l199 1405q0 6 4.5 10.5t9.5 4.5h750q6 0 9.5 -4.5t2.5 -10.5l-2 -8q-4 -14 -14 -14h-727l-88 -633h637q6 0 9.5 -4t2.5 -10l-2 -9q-4 -14 -14 -14h-639l-97 -690h725q10 0 13.5 -3.5t1.5 -10.5l-2 -9q-2 -7 -15 -14q-47 -22 -81 -41t-78.5 -50.5t-73 -63.5 t-48.5 -76.5t-20 -92.5q0 -55 32.5 -91t92.5 -36q44 0 85.5 17.5t57.5 30.5q11 7 19 -3l8 -12q5 -10 -12 -20q-84 -49 -160 -49q-78 0 -119 45t-41 116q0 54 21.5 102.5t61.5 89t83.5 71.5t100.5 63h-680q-13 0 -13 14z" />
<glyph unicode="&#x119;" horiz-adv-x="1009" d="M100 387q0 161 63.5 294t177 209.5t253.5 76.5q147 0 237.5 -74t90.5 -184q0 -130 -139.5 -203.5t-381.5 -71.5q-122 0 -260 21q-4 -46 -4 -64q-2 -166 85 -271.5t239 -105.5q89 0 168 32t131 73q12 10 18 -2l6 -13q4 -8 -2 -14q-23 -23 -73 -48t-109 -42 q-58 -28 -101 -54t-92 -66.5t-75.5 -92t-26.5 -111.5q0 -55 32.5 -91t92.5 -36q44 0 85.5 17.5t57.5 30.5q11 7 19 -3l8 -12q5 -10 -12 -20q-84 -49 -160 -49q-78 0 -119 45t-41 116q0 171 228 306q-18 -3 -35 -3q-119 0 -202 57t-121 147.5t-38 205.5zM145 492 q157 -21 254 -21q226 -2 356 61t130 177q0 95 -79.5 158t-211.5 63q-174 0 -298 -125t-151 -313z" />
<glyph unicode="&#x11a;" horiz-adv-x="1120" d="M141 14l199 1405q0 6 4.5 10.5t9.5 4.5h750q6 0 9.5 -4.5t2.5 -10.5l-2 -8q-4 -14 -14 -14h-727l-88 -633h637q6 0 9.5 -4t2.5 -10l-2 -9q-4 -14 -14 -14h-639l-97 -690h725q10 0 13.5 -3.5t1.5 -10.5l-2 -9q-4 -14 -17 -14h-749q-13 0 -13 14zM719 1579l-207 217 q-9 9 -2 16l8 9q7 7 14 2l197 -207l258 209q7 5 14 -2l7 -11q4 -8 1 -12t-14 -12l-260 -209q-10 -6 -16 0z" />
<glyph unicode="&#x11b;" horiz-adv-x="1009" d="M100 387q0 161 63.5 294t177 209.5t253.5 76.5q147 0 237.5 -74t90.5 -184q0 -130 -139 -202.5t-382 -72.5q-122 0 -260 21q-4 -46 -4 -64q0 -167 86 -272t238 -105q89 0 168 32t131 73q12 10 18 -2l6 -13q4 -8 -2 -14q-37 -37 -134 -75t-187 -38q-119 0 -202 57 t-121 147.5t-38 205.5zM145 492q157 -21 254 -21q227 0 356.5 62t129.5 176q0 95 -79.5 158t-211.5 63q-174 0 -298 -125t-151 -313zM608 1133l-207 217q-9 9 -2 16l9 8q7 7 14 2l196 -207l259 209q7 4 14 -2l6 -10q3 -11 1.5 -12.5t-13.5 -12.5l-260 -208q-10 -7 -17 0z " />
<glyph unicode="&#x11c;" horiz-adv-x="1423" d="M141 616q0 169 65.5 325.5t172.5 268t249 178t290 66.5q137 0 237 -48t188 -142q9 -8 0 -17l-10 -10q-8 -8 -16 0q-80 90 -176 136t-223 46q-142 0 -277.5 -64.5t-237 -171.5t-163.5 -256.5t-62 -310.5q0 -167 69 -304t194 -216.5t280 -79.5q86 0 166.5 16.5t137 42 t91 46t53.5 37.5l70 481h-414q-13 0 -10 14l2 9q4 12 14 12h435q12 0 12 -12l-74 -519q-8 -12 -43.5 -36.5t-95 -54t-154 -51t-196.5 -21.5q-164 0 -296 85t-205 230t-73 321zM717 1563q-8 -5 -15 2l-6 10q-2 4 -2.5 6t0.5 4.5t2 3.5t5.5 4.5t7.5 5.5l260 209q10 6 16 0 l207 -217q9 -9 2 -16l-8 -8q-8 -8 -15 -2l-196 207z" />
<glyph unicode="&#x11d;" horiz-adv-x="1067" d="M401 1122q-7 -5 -14 2l-6 11q-2 11 -1.5 12t13.5 12l260 209q10 7 17 0l207 -217q9 -9 2 -16l-9 -9q-7 -7 -14 -2l-197 207zM100 401q0 157 66 287t178.5 204.5t245.5 74.5q102 0 176 -39t117 -88l14 90q3 16 12 16h11q13 0 10 -16l-125 -924q-32 -240 -140 -347.5 t-266 -107.5q-60 0 -115 19t-94 48.5t-60.5 50.5t-35.5 40q-11 13 2 23l10 8q8 5 15 -2q126 -150 280 -150q145 0 242 105.5t125 318.5l12 82q-132 -117 -299 -117q-174 0 -277.5 120.5t-103.5 303.5zM137 401q0 -165 94 -276t250 -111q61 0 118.5 18t95.5 44t60 46t31 32 l86 626q-4 8 -14 22t-34.5 37.5t-55 42.5t-78 33.5t-100.5 14.5q-123 0 -227 -69.5t-165 -191t-61 -268.5z" />
<glyph unicode="&#x11e;" horiz-adv-x="1423" d="M141 616q0 169 65.5 325.5t172.5 268t249 178t290 66.5q137 0 237 -48t188 -142q9 -8 0 -17l-10 -10q-8 -8 -16 0q-80 90 -176 136t-223 46q-142 0 -277.5 -64.5t-237 -171.5t-163.5 -256.5t-62 -310.5q0 -167 69 -304t194 -216.5t280 -79.5q86 0 166.5 16.5t137 42 t91 46t53.5 37.5l70 481h-414q-13 0 -10 14l2 9q4 12 14 12h435q12 0 12 -12l-74 -519q-8 -12 -43.5 -36.5t-95 -54t-154 -51t-196.5 -21.5q-164 0 -296 85t-205 230t-73 321zM969 1597q-91 0 -147 63t-56 157q0 16 10 16h12q11 0 11 -12q-1 -83 47.5 -135t126.5 -52 q75 0 137.5 52t87.5 135q3 12 12 12h17q12 0 8 -16q-28 -94 -102 -157t-164 -63z" />
<glyph unicode="&#x11f;" horiz-adv-x="1067" d="M627 1116q-91 0 -147 62.5t-56 156.5q0 17 10 17h12q11 0 11 -13q-1 -83 47.5 -134.5t126.5 -51.5q75 0 137.5 51.5t87.5 134.5q3 13 12 13h17q12 0 8 -17q-28 -94 -102 -156.5t-164 -62.5zM100 401q0 157 66 287t178.5 204.5t245.5 74.5q102 0 176 -39t117 -88l14 90 q3 16 12 16h11q13 0 10 -16l-125 -924q-32 -240 -140 -347.5t-266 -107.5q-60 0 -115 19t-94 48.5t-60.5 50.5t-35.5 40q-11 13 2 23l10 8q8 5 15 -2q126 -150 280 -150q145 0 242 105.5t125 318.5l12 82q-132 -117 -299 -117q-174 0 -277.5 120.5t-103.5 303.5zM137 401 q0 -165 94 -276t250 -111q61 0 118.5 18t95.5 44t60 46t31 32l86 626q-4 8 -14 22t-34.5 37.5t-55 42.5t-78 33.5t-100.5 14.5q-123 0 -227 -69.5t-165 -191t-61 -268.5z" />
<glyph unicode="&#x120;" horiz-adv-x="1423" d="M141 616q0 169 65.5 325.5t172.5 268t249 178t290 66.5q137 0 237 -48t188 -142q9 -8 0 -17l-10 -10q-8 -8 -16 0q-80 90 -176 136t-223 46q-142 0 -277.5 -64.5t-237 -171.5t-163.5 -256.5t-62 -310.5q0 -167 69 -304t194 -216.5t280 -79.5q86 0 166.5 16.5t137 42 t91 46t53.5 37.5l70 481h-414q-13 0 -10 14l2 9q4 12 14 12h435q12 0 12 -12l-74 -519q-8 -12 -43.5 -36.5t-95 -54t-154 -51t-196.5 -21.5q-164 0 -296 85t-205 230t-73 321zM967 1677q-19 0 -30 12.5t-11 30.5q0 22 16.5 39t38.5 17q18 0 28.5 -12.5t10.5 -30.5 q0 -22 -15 -39t-38 -17z" />
<glyph unicode="&#x121;" horiz-adv-x="1067" d="M641 1239q-19 0 -30 12.5t-11 30.5q0 22 16.5 38.5t38.5 16.5q18 0 28.5 -12.5t10.5 -30.5q0 -22 -15 -38.5t-38 -16.5zM100 401q0 157 66 287t178.5 204.5t245.5 74.5q102 0 176 -39t117 -88l14 90q3 16 12 16h11q13 0 10 -16l-125 -924q-32 -240 -140 -347.5 t-266 -107.5q-60 0 -115 19t-94 48.5t-60.5 50.5t-35.5 40q-11 13 2 23l10 8q8 5 15 -2q126 -150 280 -150q145 0 242 105.5t125 318.5l12 82q-132 -117 -299 -117q-174 0 -277.5 120.5t-103.5 303.5zM137 401q0 -165 94 -276t250 -111q61 0 118.5 18t95.5 44t60 46t31 32 l86 626q-4 8 -14 22t-34.5 37.5t-55 42.5t-78 33.5t-100.5 14.5q-123 0 -227 -69.5t-165 -191t-61 -268.5z" />
<glyph unicode="&#x122;" horiz-adv-x="1423" d="M141 616q0 169 65.5 325.5t172.5 268t249 178t290 66.5q137 0 237 -48t188 -142q9 -8 0 -17l-10 -10q-8 -8 -16 0q-80 90 -176 136t-223 46q-142 0 -277.5 -64.5t-237 -171.5t-163.5 -256.5t-62 -310.5q0 -167 69 -304t194 -216.5t280 -79.5q86 0 166.5 16.5t137 42 t91 46t53.5 37.5l70 481h-414q-13 0 -10 14l2 9q4 12 14 12h435q12 0 12 -12l-74 -519q-8 -12 -43.5 -36.5t-95 -54t-154 -51t-196.5 -21.5q-164 0 -296 85t-205 230t-73 321zM635 -227q0 23 17 40t42 17q70 0 70 -98q0 -60 -25 -117.5t-73 -93.5q-14 -11 -19 0l-8 12 q-9 13 8 23q74 55 74 159q0 15 -4 29q-12 -12 -39 -12q-19 0 -31 12t-12 29z" />
<glyph unicode="&#x123;" horiz-adv-x="1067" d="M100 401q0 157 66 287t178.5 204.5t245.5 74.5q102 0 176 -39t117 -88l14 90q3 16 12 16h11q13 0 10 -16l-125 -924q-32 -240 -140 -347.5t-266 -107.5q-60 0 -115 19t-94 48.5t-60.5 50.5t-35.5 40q-11 13 2 23l10 8q8 5 15 -2q126 -150 280 -150q145 0 242 105.5 t125 318.5l12 82q-132 -117 -299 -117q-174 0 -277.5 120.5t-103.5 303.5zM137 401q0 -165 94 -276t250 -111q61 0 118.5 18t95.5 44t60 46t31 32l86 626q-4 8 -14 22t-34.5 37.5t-55 42.5t-78 33.5t-100.5 14.5q-123 0 -227 -69.5t-165 -191t-61 -268.5zM733 1237 q0 -23 -17 -40t-42 -17q-70 0 -70 98q0 60 25 117.5t73 93.5q14 11 19 0l8 -12q9 -13 -8 -23q-74 -55 -74 -160q0 -14 4 -28q12 12 39 12q19 0 31 -12t12 -29z" />
<glyph unicode="&#x124;" horiz-adv-x="1417" d="M141 14l199 1405q0 6 4.5 10.5t9.5 4.5h11q14 0 10 -15l-90 -655h901l92 655q4 15 14 15h11q6 0 9.5 -4.5t2.5 -10.5l-199 -1405q-4 -14 -14 -14h-10q-6 0 -10 4t-3 10l101 713h-901l-101 -713q-4 -14 -16 -14h-8q-6 0 -10 4t-3 10zM616 1563q-8 -5 -14 2l-6 10 q-2 11 -1.5 12t13.5 12l260 209q10 7 17 0l207 -217q9 -9 2 -16l-9 -8q-7 -7 -14 -2l-197 207z" />
<glyph unicode="&#x125;" horiz-adv-x="1032" d="M125 0h-8q-18 0 -15 16l201 1401q3 17 16 17h9q15 0 12 -17l-90 -629q162 179 338 179q331 0 266 -439l-74 -512q-3 -16 -14 -16h-8q-18 0 -15 16l74 512q29 205 -27 303.5t-202 98.5q-187 0 -340 -198q-3 -4 -4 -5l-103 -711q-3 -16 -16 -16zM96 1567q-8 -5 -14 2l-6 10 q-3 11 -1.5 12.5t13.5 12.5l260 208q10 7 17 0l206 -217q9 -9 2 -16l-8 -8q-7 -7 -14 -2l-197 207z" />
<glyph unicode="&#x126;" horiz-adv-x="1417" d="M141 14l156 1108h-53q-15 0 -11 15l3 8q4 14 14 14h53l37 260q0 6 4.5 10.5t9.5 4.5h11q14 0 10 -15l-35 -260h901l37 260q0 6 5 10.5t11 4.5h9q12 0 12 -15l-37 -260h57q6 0 10 -4t3 -10l-2 -8q-4 -15 -15 -15h-59l-156 -1108q-3 -14 -14 -14h-12q-14 0 -11 14l101 713 h-901l-101 -713q0 -6 -5 -10t-11 -4h-8q-13 0 -13 14zM285 764h901l49 358h-901z" />
<glyph unicode="&#x127;" horiz-adv-x="1075" d="M125 0h-8q-18 0 -15 16l158 1106h-80q-14 0 -10 15l2 8q4 14 14 14h80l37 258q3 17 16 17h9q15 0 12 -17l-37 -258h414q15 0 12 -14l-2 -8q-4 -15 -16 -15h-414l-47 -334q179 179 358 179q170 0 244.5 -112t42.5 -327l-74 -512q-3 -16 -14 -16h-8q-18 0 -15 16l74 512 q29 202 -36 302t-214 100q-55 0 -111.5 -19t-96 -43.5t-77 -57.5t-53 -50t-26.5 -31l-103 -713q-3 -16 -16 -16z" />
<glyph unicode="&#x128;" horiz-adv-x="479" d="M141 14l197 1405q4 15 16 15h8q6 0 10 -4.5t3 -10.5l-197 -1405q-4 -14 -16 -14h-8q-6 0 -10 4t-3 10zM141 1642l-14 5q-12 3 -6 18q9 23 21 44.5t35 54.5t56.5 53t71.5 20q40 0 64 -23t34 -55.5t18.5 -64.5t27 -55t49.5 -23q86 0 143 147q6 16 14 13l15 -4q15 -4 6 -19 q-74 -172 -182 -172q-39 0 -63 23t-35 55.5t-20 64.5t-27 55t-48 23q-28 0 -54 -18t-44.5 -46t-29 -48t-17.5 -37q-6 -15 -15 -11z" />
<glyph unicode="&#x129;" horiz-adv-x="405" d="M119 0q-18 0 -15 16l129 914q3 16 17 16h10q15 0 12 -16l-129 -914q-3 -16 -14 -16h-10zM41 1194l-14 4q-13 3 -7 19q9 23 21 45t35.5 54.5t57 52.5t71.5 20q40 0 64 -23t33.5 -55.5t18 -65t27 -55.5t49.5 -23q86 0 144 148q6 15 14 12l14 -4q15 -4 6 -18 q-74 -172 -182 -172q-39 0 -63 23t-34.5 55.5t-19.5 64.5t-27 55t-48 23q-28 0 -54 -18t-45 -46t-29.5 -48.5t-17.5 -37.5q-6 -14 -14 -10z" />
<glyph unicode="&#x12a;" horiz-adv-x="479" d="M141 14l197 1405q4 15 16 15h8q6 0 10 -4.5t3 -10.5l-197 -1405q-4 -14 -16 -14h-8q-6 0 -10 4t-3 10zM135 1724q-16 0 -12 15l2 8q3 14 16 14h529q6 0 9.5 -4t2.5 -10l-2 -8q-4 -15 -14 -15h-531z" />
<glyph unicode="&#x12b;" horiz-adv-x="405" d="M117 0q-18 0 -15 16l129 914q3 16 17 16h10q15 0 12 -16l-129 -914q-3 -16 -14 -16h-10zM29 1243q-17 0 -13 14l2 9q4 14 17 14h528q15 0 12 -14l-2 -9q-3 -14 -14 -14h-530z" />
<glyph unicode="&#x12c;" horiz-adv-x="479" d="M141 14l197 1405q4 15 16 15h8q6 0 10 -4.5t3 -10.5l-197 -1405q-4 -14 -16 -14h-8q-6 0 -10 4t-3 10zM393 1597q-91 0 -147 63t-56 157q0 16 11 16h12q10 0 10 -12q-1 -83 47.5 -135t126.5 -52q75 0 138 52t88 135q3 12 12 12h16q12 0 8 -16q-28 -94 -102 -157t-164 -63 z" />
<glyph unicode="&#x12d;" horiz-adv-x="405" d="M117 0q-18 0 -15 16l129 914q3 16 17 16h10q15 0 12 -16l-129 -914q-3 -16 -14 -16h-10zM274 1116q-91 0 -146.5 62.5t-55.5 156.5q0 17 10 17h12q10 0 10 -13q-1 -83 48 -134.5t127 -51.5q75 0 137.5 51.5t87.5 134.5q3 13 12 13h16q13 0 9 -17q-28 -94 -102 -156.5 t-165 -62.5z" />
<glyph unicode="&#x12e;" horiz-adv-x="479" d="M143 29l195 1390q4 15 16 15h8q6 0 10 -4.5t3 -10.5l-197 -1399q-2 -16 -14 -20q-47 -22 -81 -41t-78.5 -50.5t-73 -63.5t-48.5 -76.5t-20 -92.5q0 -55 32.5 -91t92.5 -36q44 0 85.5 17.5t57.5 30.5q11 7 19 -3l8 -12q5 -9 -13 -20q-84 -49 -159 -49q-78 0 -119 45 t-41 116q0 61 26 115t74.5 97.5t98.5 76t118 66.5z" />
<glyph unicode="&#x12f;" horiz-adv-x="407" d="M-207 -326q0 60 25.5 114t73 97.5t98 76.5t116.5 67l127 901q3 16 17 16h10q7 0 11 -4.5t1 -11.5l-127 -910q-3 -14 -14 -20q-47 -22 -81 -41t-78.5 -50.5t-73 -63.5t-48.5 -76.5t-20 -92.5q0 -55 32.5 -91t92.5 -36q44 0 85.5 17.5t57.5 30.5q11 7 19 -3l8 -12 q5 -10 -12 -20q-84 -49 -160 -49q-78 0 -119 45t-41 116zM295 1239q-19 0 -30 12.5t-11 30.5q0 22 16.5 38.5t38.5 16.5q18 0 28.5 -12.5t10.5 -30.5q0 -22 -15 -38.5t-38 -16.5z" />
<glyph unicode="&#x130;" horiz-adv-x="479" d="M141 14l197 1405q4 15 16 15h8q6 0 10 -4.5t3 -10.5l-197 -1405q-4 -14 -16 -14h-8q-6 0 -10 4t-3 10zM395 1677q-19 0 -30 12.5t-11 30.5q0 22 17 39t39 17q18 0 28.5 -12.5t10.5 -30.5q0 -22 -15.5 -39t-38.5 -17z" />
<glyph unicode="&#x131;" horiz-adv-x="405" d="M117 0q-18 0 -15 16l129 914q3 16 17 16h10q15 0 12 -16l-129 -914q-3 -16 -14 -16h-10z" />
<glyph unicode="&#x132;" horiz-adv-x="1251" d="M141 14l197 1405q4 15 16 15h8q6 0 10 -4.5t3 -10.5l-197 -1405q-4 -14 -16 -14h-8q-6 0 -10 4t-3 10zM616 -20q-57 0 -106 17t-80 44.5t-49 50.5t-29 45q-5 15 4 19l9 4q12 7 18 -2q80 -144 235 -144q150 0 246 110.5t125 313.5l139 981q0 6 4.5 10.5t10.5 4.5h8 q14 0 10 -15l-137 -981q-31 -218 -137 -338t-271 -120z" />
<glyph unicode="&#x133;" horiz-adv-x="774" d="M117 0q-18 0 -15 16l129 914q3 16 17 16h10q15 0 12 -16l-129 -914q-3 -16 -14 -16h-10zM293 1239q-19 0 -30 12.5t-11 30.5q0 22 16.5 38.5t38.5 16.5q18 0 28.5 -12.5t10.5 -30.5q0 -22 -15 -38.5t-38 -16.5zM668 1239q-19 0 -30 12.5t-11 30.5q0 22 16.5 38.5 t38.5 16.5q18 0 28.5 -12.5t10.5 -30.5q0 -22 -15 -38.5t-38 -16.5zM627 946q15 0 12 -16l-150 -1063q-23 -171 -99 -259t-218 -118q-17 -3 -20 10l-2 11q-2 12 16 16q129 30 196.5 106.5t90.5 233.5l149 1063q3 16 16 16h9z" />
<glyph unicode="&#x134;" horiz-adv-x="884" d="M250 -20q-57 0 -106 17t-80 44.5t-49 50.5t-29 45q-5 15 4 19l8 4q12 7 18 -2q80 -144 236 -144q150 0 246 110.5t125 313.5l139 981q0 15 14 15h8q6 0 9.5 -4.5t1.5 -10.5l-138 -981q-31 -218 -136.5 -338t-270.5 -120zM569 1563q-7 -5 -14 2l-6 10q-2 11 -1.5 12 t13.5 12l260 209q10 7 17 0l206 -217q10 -9 3 -16l-9 -8q-7 -7 -14 -2l-197 207z" />
<glyph unicode="&#x135;" horiz-adv-x="403" d="M268 930l-149 -1063q-23 -170 -99.5 -258.5t-218.5 -118.5q-17 -3 -20 10l-2 11q-2 12 16 16q129 30 196.5 106.5t90.5 233.5l149 1063q3 16 17 16h8q15 0 12 -16zM51 1122q-8 -5 -14 2l-6 11q-2 11 -1.5 12t13.5 12l260 209q10 6 16 0l207 -217q9 -9 2 -16l-8 -9 q-7 -7 -14 -2l-197 207z" />
<glyph unicode="&#x136;" horiz-adv-x="1032" d="M141 14l199 1405q4 15 14 15h11q6 0 9.5 -4.5t2.5 -10.5l-96 -676l778 689q11 9 20 0l6 -7q10 -10 0 -20l-774 -682l598 -703q8 -10 -2 -20l-10 -8q-10 -7 -18 4l-605 711l-96 -693q-4 -14 -16 -14h-8q-6 0 -10 4t-3 10zM408 -227q0 23 17 40t42 17q70 0 70 -98 q0 -59 -25 -117t-74 -94q-13 -10 -18 0l-8 12q-9 13 8 23q74 55 74 159q0 11 -5 29q-12 -12 -38 -12q-19 0 -31 12t-12 29z" />
<glyph unicode="&#x137;" horiz-adv-x="854" d="M117 0q-18 0 -15 16l201 1401q3 17 16 17h9q7 0 12 -5t4 -12l-127 -872l588 413q10 6 18 -2l8 -12q5 -10 -6 -18l-573 -406l457 -497q9 -9 -2 -21l-9 -8q-12 -12 -22 2l-463 512l-70 -492q-3 -16 -18 -16h-8zM291 -227q0 23 17 40t42 17q70 0 70 -98q0 -60 -25 -117.5 t-73 -93.5q-14 -11 -19 0l-8 12q-9 13 8 23q74 55 74 159q0 15 -4 29q-12 -12 -39 -12q-19 0 -31 12t-12 29z" />
<glyph unicode="&#x138;" horiz-adv-x="892" d="M102 16l131 914q0 16 19 16h8q12 0 12 -16l-59 -438l616 466q13 8 19 -4l8 -14q5 -11 -4 -20l-606 -451l508 -442q13 -10 0 -23l-11 -10q-8 -8 -16 -2l-522 459l-62 -435q0 -7 -5.5 -11.5t-12.5 -4.5h-6q-17 0 -17 16z" />
<glyph unicode="&#x139;" horiz-adv-x="933" d="M141 14l199 1405q4 15 14 15h11q5 0 8 -4.5t2 -10.5l-195 -1384h639q15 0 12 -12l-2 -9q-3 -14 -14 -14h-661q-13 0 -13 14zM225 1591q-11 -4 -16 6l-6 13q-4 8 8 14l360 186q11 4 17 -6l6 -10q6 -11 -8 -18z" />
<glyph unicode="&#x13a;" horiz-adv-x="438" d="M141 0h-8q-17 0 -14 16l200 1401q3 17 15 17h10q5 0 9 -5t3 -12l-198 -1401q-3 -16 -17 -16zM244 1589q-12 -5 -17 6l-6 13q-4 8 8 14l361 186q10 3 16 -6l6 -10q6 -11 -8 -18z" />
<glyph unicode="&#x13b;" horiz-adv-x="933" d="M141 14l199 1405q4 15 14 15h11q5 0 8 -4.5t2 -10.5l-195 -1384h639q15 0 12 -12l-2 -9q-3 -14 -14 -14h-661q-13 0 -13 14zM387 -227q0 23 17 40t42 17q70 0 70 -98q0 -60 -25 -117.5t-73 -93.5q-14 -11 -19 0l-8 12q-9 13 8 23q74 55 74 159q0 15 -4 29 q-12 -12 -39 -12q-19 0 -31 12t-12 29z" />
<glyph unicode="&#x13c;" horiz-adv-x="438" d="M141 0h-8q-17 0 -14 16l200 1401q3 17 15 17h10q5 0 9 -5t3 -12l-198 -1401q-3 -16 -17 -16zM55 -227q0 23 17.5 40t42.5 17q69 0 69 -98q0 -60 -25 -117.5t-73 -93.5q-13 -10 -18 0l-9 12q-8 13 9 23q73 54 73 159q0 15 -4 29q-12 -12 -39 -12q-19 0 -31 12t-12 29z" />
<glyph unicode="&#x13d;" horiz-adv-x="946" d="M141 14l199 1405q4 15 14 15h11q5 0 8 -4.5t2 -10.5l-195 -1384h639q15 0 12 -12l-2 -9q-3 -14 -14 -14h-661q-13 0 -13 14zM803 1399q0 23 17 40t42 17q70 0 70 -98q0 -60 -25 -117.5t-73 -93.5q-14 -11 -19 0l-8 12q-9 13 8 23q74 55 74 159q0 15 -4 29 q-12 -12 -39 -12q-19 0 -31 12t-12 29z" />
<glyph unicode="&#x13e;" horiz-adv-x="438" d="M141 0h-8q-17 0 -14 16l200 1401q3 17 15 17h10q5 0 9 -5t3 -12l-198 -1401q-3 -16 -17 -16zM475 1397q0 23 17.5 40t42.5 17q69 0 69 -98q0 -60 -25 -117.5t-73 -93.5q-14 -11 -19 0l-8 12q-9 13 8 23q74 55 74 159q0 15 -4 29q-12 -12 -39 -12q-19 0 -31 12t-12 29z " />
<glyph unicode="&#x13f;" horiz-adv-x="950" d="M141 14l199 1405q4 15 14 15h11q5 0 8 -4.5t2 -10.5l-195 -1384h639q15 0 12 -12l-2 -9q-3 -14 -14 -14h-661q-13 0 -13 14zM811 659q-17 0 -28 12.5t-11 30.5q0 23 16 38.5t37 15.5q18 0 28.5 -11.5t10.5 -29.5q0 -22 -15 -39t-38 -17z" />
<glyph unicode="&#x140;" horiz-adv-x="645" d="M141 0h-8q-17 0 -14 16l200 1401q3 17 15 17h10q5 0 9 -5t3 -12l-198 -1401q-3 -16 -17 -16zM532 657q-17 0 -27.5 12.5t-10.5 30.5q0 23 16 38.5t37 15.5q18 0 28.5 -11.5t10.5 -29.5q0 -22 -15.5 -39t-38.5 -17z" />
<glyph unicode="&#x141;" horiz-adv-x="942" d="M139 14l94 660l-86 -41q-13 -7 -16 2l-4 16q-3 11 10 15l103 49l98 704q0 6 5 10.5t11 4.5h8q6 0 10 -4.5t3 -10.5l-96 -688l352 174q12 4 16 -6l4 -12q3 -9 -10 -15l-369 -182l-92 -653h674q8 0 12 -4t2 -10l-2 -9q-4 -14 -16 -14h-698q-13 0 -13 14z" />
<glyph unicode="&#x142;" horiz-adv-x="557" d="M154 0h-9q-17 0 -14 16l98 697l-163 -80q-10 -3 -13 4l-4 12q-3 13 8 17l179 86l96 665q3 17 14 17h10q5 0 9.5 -5t3.5 -12l-93 -645l269 131q12 6 18 -6l4 -10q4 -9 -8 -15l-289 -139l-100 -717q-3 -16 -16 -16z" />
<glyph unicode="&#x143;" horiz-adv-x="1454" d="M141 14l203 1440q2 11 12 14t15 -6l751 -1409l193 1366q4 15 16 15h8q6 0 10 -4.5t3 -10.5l-203 -1435q-2 -11 -12 -14.5t-15 5.5l-751 1409l-193 -1370q-4 -14 -16 -14h-8q-6 0 -10 4t-3 10zM735 1591q-11 -4 -16 6l-6 13q-4 8 8 14l360 186q11 4 17 -6l6 -10 q6 -11 -8 -18z" />
<glyph unicode="&#x144;" horiz-adv-x="1036" d="M102 16l131 914q3 16 15 16h10q10 0 10 -16l-16 -129q155 166 338 166q331 0 266 -439l-72 -512q-3 -16 -16 -16h-10q-16 0 -13 16l74 512q59 402 -229 402q-69 0 -132.5 -23.5t-107 -60t-67.5 -62.5t-39 -49l-103 -719q-3 -16 -16 -16h-8q-18 0 -15 16zM494 1147 q-12 -5 -17 6l-6 12q-4 9 8 15l361 186q10 3 16 -6l6 -10q6 -12 -8 -19z" />
<glyph unicode="&#x145;" horiz-adv-x="1454" d="M141 14l203 1440q2 11 12 14t15 -6l751 -1409l193 1366q4 15 16 15h8q6 0 10 -4.5t3 -10.5l-203 -1435q-2 -11 -12 -14.5t-15 5.5l-751 1409l-193 -1370q-4 -14 -16 -14h-8q-6 0 -10 4t-3 10zM575 -227q0 23 17.5 40t42.5 17q70 0 70 -98q0 -59 -25 -117t-74 -94 q-13 -10 -18 0l-8 12q-9 13 8 23q74 55 74 159q0 11 -5 29q-12 -12 -39 -12q-19 0 -31 12t-12 29z" />
<glyph unicode="&#x146;" horiz-adv-x="1036" d="M102 16l131 914q3 16 15 16h10q10 0 10 -16l-16 -129q155 166 338 166q331 0 266 -439l-72 -512q-3 -16 -16 -16h-10q-16 0 -13 16l74 512q59 402 -229 402q-69 0 -132.5 -23.5t-107 -60t-67.5 -62.5t-39 -49l-103 -719q-3 -16 -16 -16h-8q-18 0 -15 16zM369 -225 q0 23 17 40t42 17q70 0 70 -98q0 -59 -25 -117t-74 -94q-13 -10 -18 0l-8 12q-9 13 8 23q74 55 74 159q0 15 -4 29q-12 -12 -39 -12q-19 0 -31 12t-12 29z" />
<glyph unicode="&#x147;" horiz-adv-x="1454" d="M141 14l203 1440q2 11 12 14t15 -6l751 -1409l193 1366q4 15 16 15h8q6 0 10 -4.5t3 -10.5l-203 -1435q-2 -11 -12 -14.5t-15 5.5l-751 1409l-193 -1370q-4 -14 -16 -14h-8q-6 0 -10 4t-3 10zM866 1579l-207 217q-9 9 -2 16l9 9q7 7 14 2l197 -207l258 209q7 5 14 -2 l6 -11q2 -11 1.5 -12t-13.5 -12l-260 -209q-10 -7 -17 0z" />
<glyph unicode="&#x148;" horiz-adv-x="1036" d="M102 16l131 914q3 16 15 16h10q10 0 10 -16l-16 -129q155 166 338 166q331 0 266 -439l-72 -512q-3 -16 -16 -16h-10q-16 0 -13 16l74 512q59 402 -229 402q-69 0 -132.5 -23.5t-107 -60t-67.5 -62.5t-39 -49l-103 -719q-3 -16 -16 -16h-8q-18 0 -15 16zM610 1135 l-207 217q-9 9 -2 16l9 8q7 7 14 2l197 -207l258 209q7 4 14 -2l6 -10q3 -11 1.5 -12.5t-13.5 -12.5l-260 -208q-10 -7 -17 0z" />
<glyph unicode="&#x149;" horiz-adv-x="1036" d="M102 16l131 914q3 16 15 16h10q10 0 10 -16l-16 -129q155 166 338 166q331 0 266 -439l-72 -512q-3 -16 -16 -16h-10q-16 0 -13 16l74 512q59 402 -229 402q-69 0 -132.5 -23.5t-107 -60t-67.5 -62.5t-39 -49l-103 -719q-3 -16 -16 -16h-8q-18 0 -15 16zM152 1397 q0 23 17 40t42 17q70 0 70 -98q0 -59 -25 -117t-74 -94q-13 -10 -18 0l-8 12q-9 13 8 23q74 55 74 159q0 11 -5 29q-12 -12 -38 -12q-19 0 -31 12t-12 29z" />
<glyph unicode="&#x14a;" horiz-adv-x="1456" d="M1352 1419l-217 -1552q-24 -171 -100 -259t-218 -118q-17 -3 -20 10l-2 11q-2 12 16 16q129 30 197.5 107t89.5 233l16 123l-743 1394l-193 -1370q-4 -14 -16 -14h-8q-6 0 -10 4t-3 10l203 1440q2 11 12 14t15 -6l751 -1409l193 1366q4 15 16 15h8q6 0 10 -4.5t3 -10.5z " />
<glyph unicode="&#x14b;" horiz-adv-x="1036" d="M723 -133l96 661q59 402 -229 402q-69 0 -133 -24t-107 -60t-67.5 -63t-38.5 -48l-103 -719q-3 -16 -16 -16h-8q-18 0 -15 16l131 914q3 16 15 16h10q10 0 10 -16l-16 -129q155 166 338 166q331 0 266 -439l-92 -661q-24 -171 -101 -259t-219 -118q-17 -3 -20 10l-2 11 q-2 12 16 16q128 30 195 106.5t90 233.5z" />
<glyph unicode="&#x14c;" horiz-adv-x="1597" d="M143 618q0 170 64.5 326t171.5 267t249.5 177t293.5 66q164 0 295 -86t203.5 -232t72.5 -323q0 -169 -65 -324.5t-171.5 -266t-249 -176.5t-292.5 -66q-164 0 -296 86t-204 231.5t-72 320.5zM180 621q0 -166 68.5 -304.5t192 -219.5t274.5 -81q142 0 277.5 63t237.5 169 t164 254t62 309q0 168 -68.5 306.5t-192 219t-275.5 80.5q-142 0 -277.5 -63t-237 -169t-163.5 -254.5t-62 -309.5zM700 1724q-16 0 -12 15l2 8q4 14 17 14h528q15 0 12 -14l-2 -8q-4 -15 -14 -15h-531z" />
<glyph unicode="&#x14d;" horiz-adv-x="1099" d="M100 403q0 115 41.5 220t110.5 180t161.5 119.5t190.5 44.5q161 0 263 -122t102 -300q0 -115 -41.5 -221t-109.5 -181.5t-160.5 -120.5t-190.5 -45q-163 0 -265 122t-102 304zM137 403q0 -165 93.5 -277t236.5 -112q122 0 229.5 72t171.5 194.5t64 264.5 q0 164 -91.5 274.5t-236.5 110.5q-91 0 -177 -42.5t-149.5 -113t-102 -168.5t-38.5 -203zM383 1243q-15 0 -12 14l2 9q3 14 16 14h529q6 0 9.5 -4t2.5 -10l-2 -9q-4 -14 -15 -14h-530z" />
<glyph unicode="&#x14e;" horiz-adv-x="1597" d="M143 618q0 170 64.5 326t171.5 267t249.5 177t293.5 66q164 0 295 -86t203.5 -232t72.5 -323q0 -169 -65 -324.5t-171.5 -266t-249 -176.5t-292.5 -66q-164 0 -296 86t-204 231.5t-72 320.5zM180 621q0 -166 68.5 -304.5t192 -219.5t274.5 -81q142 0 277.5 63t237.5 169 t164 254t62 309q0 168 -68.5 306.5t-192 219t-275.5 80.5q-142 0 -277.5 -63t-237 -169t-163.5 -254.5t-62 -309.5zM969 1597q-91 0 -147 63t-56 157q0 16 10 16h12q11 0 11 -12q-1 -83 47.5 -135t126.5 -52q75 0 137.5 52t87.5 135q3 12 12 12h17q12 0 8 -16 q-28 -94 -102 -157t-164 -63z" />
<glyph unicode="&#x14f;" horiz-adv-x="1099" d="M100 403q0 115 41.5 220t110.5 180t161.5 119.5t190.5 44.5q161 0 263 -122t102 -300q0 -115 -41.5 -221t-109.5 -181.5t-160.5 -120.5t-190.5 -45q-163 0 -265 122t-102 304zM137 403q0 -165 93.5 -277t236.5 -112q122 0 229.5 72t171.5 194.5t64 264.5 q0 164 -91.5 274.5t-236.5 110.5q-91 0 -177 -42.5t-149.5 -113t-102 -168.5t-38.5 -203zM637 1116q-91 0 -147 62.5t-56 156.5q0 17 10 17h13q10 0 10 -13q-1 -83 47.5 -134.5t126.5 -51.5q75 0 137.5 51.5t87.5 134.5q3 13 13 13h16q12 0 8 -17q-28 -94 -102 -156.5 t-164 -62.5z" />
<glyph unicode="&#x150;" horiz-adv-x="1597" d="M143 618q0 170 64.5 326t171.5 267t249.5 177t293.5 66q164 0 295 -86t203.5 -232t72.5 -323q0 -169 -65 -324.5t-171.5 -266t-249 -176.5t-292.5 -66q-164 0 -296 86t-204 231.5t-72 320.5zM180 621q0 -166 68.5 -304.5t192 -219.5t274.5 -81q142 0 277.5 63t237.5 169 t164 254t62 309q0 168 -68.5 306.5t-192 219t-275.5 80.5q-142 0 -277.5 -63t-237 -169t-163.5 -254.5t-62 -309.5zM1087 1550l-10 6q-8 8 0 19l246 354q7 10 16 4l11 -6q11 -7 2 -18l-246 -355q-10 -10 -19 -4zM782 1550l-10 6q-10 6 -2 19l246 354q7 9 18 4l10 -6 q10 -7 3 -18l-248 -355q-8 -10 -17 -4z" />
<glyph unicode="&#x151;" horiz-adv-x="1099" d="M100 403q0 115 41.5 220t110.5 180t161.5 119.5t190.5 44.5q161 0 263 -122t102 -300q0 -115 -41.5 -221t-109.5 -181.5t-160.5 -120.5t-190.5 -45q-163 0 -265 122t-102 304zM137 403q0 -165 93.5 -277t236.5 -112q122 0 229.5 72t171.5 194.5t64 264.5 q0 164 -91.5 274.5t-236.5 110.5q-91 0 -177 -42.5t-149.5 -113t-102 -168.5t-38.5 -203zM778 1051l-8 6q-9 6 -2 18l246 355q7 10 16 4l10 -7q11 -7 2 -18l-245 -354q-7 -10 -19 -4zM473 1051l-10 6q-8 8 0 18l244 355q10 10 18 4l10 -7q11 -7 2 -18l-248 -354 q-7 -10 -16 -4z" />
<glyph unicode="&#x152;" horiz-adv-x="1824" d="M141 614q0 170 64 326.5t170 268.5t248 178.5t292 66.5q74 0 152 -20h743q6 0 9.5 -4.5t1.5 -10.5l-2 -8q-3 -14 -13 -14h-727l-88 -633h637q5 0 8 -4t2 -10l-2 -9q-4 -14 -14 -14h-637l-96 -690h725q6 0 9.5 -4t2.5 -10l-2 -9q-4 -14 -14 -14h-742q-82 -20 -161 -20 q-164 0 -294 84.5t-201 229t-71 320.5zM176 618q0 -167 68 -304.5t191.5 -217.5t277.5 -80q70 0 137 17l192 1368q-69 16 -131 16q-142 0 -277 -63.5t-235.5 -170t-161.5 -255t-61 -310.5z" />
<glyph unicode="&#x153;" horiz-adv-x="1703" d="M100 406q0 115 42 220t111.5 179t162 118t190.5 44q100 0 180 -53t129 -142q66 90 162.5 142.5t216.5 52.5q140 0 234 -72.5t94 -185.5q0 -71 -46 -126t-125 -87t-175 -48t-205 -16q-108 0 -182 10l-33 -231q32 -92 110 -144.5t179 -52.5q91 0 171 32.5t130 72.5 q13 11 20 -2l7 -15q2 -5 -5 -12q-37 -37 -134 -75t-189 -38q-107 0 -186.5 51t-122.5 138q-73 -89 -169 -139t-198 -50q-162 0 -265.5 123t-103.5 306zM897 479q88 -10 166 -10q100 0 190.5 14.5t165 42.5t118.5 75t44 108q0 88 -81.5 154.5t-205.5 66.5 q-111 0 -206.5 -54.5t-159.5 -144.5zM139 406q0 -164 94.5 -278t235.5 -114q97 0 191 54t161 145l72 522q-45 94 -120 144.5t-167 50.5q-121 0 -229 -70.5t-173 -192t-65 -261.5z" />
<glyph unicode="&#x154;" horiz-adv-x="1226" d="M141 14l199 1405q0 15 14 15h439q157 0 259.5 -108.5t102.5 -272.5q0 -187 -116 -326t-283 -172l213 -541q4 -13 -6 -16l-13 -4q-9 -3 -12 6l-213 549q-18 -2 -59 -2h-414l-76 -533q0 -6 -4.5 -10t-9.5 -4h-8q-13 0 -13 14zM256 582h410q91 0 174.5 36t145 98t98 150 t36.5 187q0 146 -94 245t-233 99h-422zM553 1591q-11 -4 -16 6l-7 13q-4 8 9 14l360 186q10 3 16 -6l7 -10q5 -11 -9 -18z" />
<glyph unicode="&#x155;" horiz-adv-x="710" d="M125 0h-10q-16 0 -13 16l129 914q3 16 15 16h12q11 0 8 -16l-14 -125q46 62 125 112t174 50q83 0 149 -39q12 -9 2 -23l-4 -6q-6 -12 -20 -4q-54 35 -127 35q-49 0 -97 -18t-81 -41.5t-63 -53.5t-44 -48t-22 -32l-105 -721q-3 -16 -14 -16zM348 1145q-11 -4 -16 6l-6 12 q-4 9 8 15l360 186q11 4 17 -6l6 -10q6 -12 -8 -19z" />
<glyph unicode="&#x156;" horiz-adv-x="1226" d="M141 14l199 1405q0 15 14 15h439q157 0 259.5 -108.5t102.5 -272.5q0 -187 -116 -326t-283 -172l213 -541q4 -13 -6 -16l-13 -4q-9 -3 -12 6l-213 549q-18 -2 -59 -2h-414l-76 -533q0 -6 -4.5 -10t-9.5 -4h-8q-13 0 -13 14zM256 582h410q91 0 174.5 36t145 98t98 150 t36.5 187q0 146 -94 245t-233 99h-422zM457 -227q0 23 17 40t42 17q70 0 70 -98q0 -59 -25 -117t-74 -94q-13 -10 -18 0l-8 12q-9 13 8 23q74 55 74 159q0 15 -4 29q-12 -12 -39 -12q-19 0 -31 12t-12 29z" />
<glyph unicode="&#x157;" horiz-adv-x="710" d="M125 0h-10q-16 0 -13 16l129 914q3 16 15 16h12q11 0 8 -16l-14 -125q46 62 125 112t174 50q83 0 149 -39q12 -9 2 -23l-4 -6q-6 -12 -20 -4q-54 35 -127 35q-49 0 -97 -18t-81 -41.5t-63 -53.5t-44 -48t-22 -32l-105 -721q-3 -16 -14 -16zM41 -227q0 23 17 40t42 17 q70 0 70 -98q0 -60 -25 -117.5t-73 -93.5q-14 -11 -19 0l-8 12q-9 13 8 23q74 55 74 159q0 15 -4 29q-12 -12 -39 -12q-19 0 -31 12t-12 29z" />
<glyph unicode="&#x158;" horiz-adv-x="1226" d="M141 14l199 1405q0 15 14 15h439q157 0 259.5 -108.5t102.5 -272.5q0 -187 -116 -326t-283 -172l213 -541q4 -13 -6 -16l-13 -4q-9 -3 -12 6l-213 549q-18 -2 -59 -2h-414l-76 -533q0 -6 -4.5 -10t-9.5 -4h-8q-13 0 -13 14zM256 582h410q91 0 174.5 36t145 98t98 150 t36.5 187q0 146 -94 245t-233 99h-422zM684 1579l-207 217q-9 9 -2 16l8 9q8 8 15 2l196 -207l258 209q8 5 15 -2l6 -11q2 -11 1.5 -12t-13.5 -12l-261 -209q-10 -6 -16 0z" />
<glyph unicode="&#x159;" horiz-adv-x="710" d="M125 0h-10q-16 0 -13 16l129 914q3 16 15 16h12q11 0 8 -16l-14 -125q46 62 125 112t174 50q83 0 149 -39q12 -9 2 -23l-4 -6q-6 -12 -20 -4q-54 35 -127 35q-49 0 -97 -18t-81 -41.5t-63 -53.5t-44 -48t-22 -32l-105 -721q-3 -16 -14 -16zM475 1133l-207 217q-9 9 -2 16 l8 8q8 8 15 2l196 -207l258 209q8 5 15 -2l6 -10q3 -11 1.5 -12.5t-13.5 -12.5l-260 -208q-10 -7 -17 0z" />
<glyph unicode="&#x15a;" horiz-adv-x="1050" d="M84 150q-6 10 2 18l12 10q9 9 17 -2q11 -16 35 -39t65.5 -53t106.5 -50t137 -20q108 0 204 44.5t157 128t61 186.5q0 58 -17.5 105t-45.5 80.5t-75.5 63.5t-93.5 50.5t-114 44.5q-47 17 -79.5 30.5t-70.5 32.5t-63 37.5t-50 44.5t-39 55t-23 67t-9 83q0 67 27 133.5 t79.5 124t141.5 93.5t200 36q53 0 105 -10.5t87.5 -26t64 -31t42.5 -26.5l13 -10q8 -8 2 -17l-11 -12q-7 -10 -16 -4q-5 4 -14 11t-38 24.5t-60.5 31t-79 24.5t-95.5 11q-84 0 -154.5 -22t-117 -58t-79.5 -82.5t-47.5 -94.5t-14.5 -95q0 -69 21.5 -119.5t68.5 -87.5t96 -60 t129 -52q92 -32 152.5 -62t112 -73.5t75.5 -102t24 -137.5q0 -110 -62 -200.5t-166.5 -141.5t-227.5 -51q-78 0 -149.5 22t-117 53t-72.5 55.5t-36 39.5zM524 1561q-11 -4 -16 6l-6 12q-4 8 8 14l360 187q11 4 17 -6l6 -11q6 -11 -8 -18z" />
<glyph unicode="&#x15b;" horiz-adv-x="823" d="M338 -23q-71 0 -130 19.5t-86 38.5t-56 47q-11 11 0 22l8 9q11 11 20 2q96 -101 244 -101q124 0 212.5 67.5t88.5 168.5q0 27 -8 50.5t-18 41t-33 35t-39 28t-50.5 25.5t-53 22.5t-60.5 22.5q-125 44 -182.5 100.5t-57.5 145.5q0 41 20.5 83.5t58 79t99 60t136.5 23.5 q145 0 237 -72q11 -9 2 -21l-6 -8q-5 -7 -7.5 -8t-12.5 4q-93 68 -213 68q-129 0 -203 -66t-74 -143q0 -79 52 -124t169 -89q37 -14 49.5 -19t44.5 -18.5t45 -21t38 -22t36 -26t27.5 -29.5t23 -35t12 -39.5t5.5 -47.5q0 -117 -100.5 -195t-237.5 -78zM358 1151q-11 -4 -16 6 l-6 12q-4 9 8 15l361 186q10 3 16 -6l6 -10q6 -12 -8 -19z" />
<glyph unicode="&#x15c;" horiz-adv-x="1050" d="M84 150q-6 10 2 18l12 10q9 9 17 -2q11 -16 35 -39t65.5 -53t106.5 -50t137 -20q108 0 204 44.5t157 128t61 186.5q0 58 -17.5 105t-45.5 80.5t-75.5 63.5t-93.5 50.5t-114 44.5q-47 17 -79.5 30.5t-70.5 32.5t-63 37.5t-50 44.5t-39 55t-23 67t-9 83q0 67 27 133.5 t79.5 124t141.5 93.5t200 36q53 0 105 -10.5t87.5 -26t64 -31t42.5 -26.5l13 -10q8 -8 2 -17l-11 -12q-7 -10 -16 -4q-5 4 -14 11t-38 24.5t-60.5 31t-79 24.5t-95.5 11q-84 0 -154.5 -22t-117 -58t-79.5 -82.5t-47.5 -94.5t-14.5 -95q0 -69 21.5 -119.5t68.5 -87.5t96 -60 t129 -52q92 -32 152.5 -62t112 -73.5t75.5 -102t24 -137.5q0 -110 -62 -200.5t-166.5 -141.5t-227.5 -51q-78 0 -149.5 22t-117 53t-72.5 55.5t-36 39.5zM449 1532q-8 -5 -15 2l-6 10q-3 11 -1.5 12.5t13.5 12.5l260 209q10 7 17 0l207 -217q10 -9 2 -17l-8 -8q-8 -8 -15 -2 l-196 207z" />
<glyph unicode="&#x15d;" horiz-adv-x="823" d="M338 -23q-71 0 -130 19.5t-86 38.5t-56 47q-11 11 0 22l8 9q11 11 20 2q96 -101 244 -101q124 0 212.5 67.5t88.5 168.5q0 27 -8 50.5t-18 41t-33 35t-39 28t-50.5 25.5t-53 22.5t-60.5 22.5q-125 44 -182.5 100.5t-57.5 145.5q0 41 20.5 83.5t58 79t99 60t136.5 23.5 q145 0 237 -72q11 -9 2 -21l-6 -8q-5 -7 -7.5 -8t-12.5 4q-93 68 -213 68q-129 0 -203 -66t-74 -143q0 -79 52 -124t169 -89q37 -14 49.5 -19t44.5 -18.5t45 -21t38 -22t36 -26t27.5 -29.5t23 -35t12 -39.5t5.5 -47.5q0 -117 -100.5 -195t-237.5 -78zM248 1128q-8 -5 -15 2 l-6 11q-2 4 -2.5 6t0.5 4.5t2 3.5t5.5 4.5t7.5 5.5l260 209q10 6 16 0l207 -217q9 -9 2 -16l-8 -8q-8 -8 -15 -3l-196 207z" />
<glyph unicode="&#x15e;" horiz-adv-x="1050" d="M84 150q-6 10 2 18l12 10q9 9 17 -2q11 -16 35 -39t65.5 -53t106.5 -50t137 -20q108 0 204 44.5t157 128t61 186.5q0 58 -17.5 105t-45.5 80.5t-75.5 63.5t-93.5 50.5t-114 44.5q-47 17 -79.5 30.5t-70.5 32.5t-63 37.5t-50 44.5t-39 55t-23 67t-9 83q0 67 27 133.5 t79.5 124t141.5 93.5t200 36q53 0 105 -10.5t87.5 -26t64 -31t42.5 -26.5l13 -10q8 -8 2 -17l-11 -12q-7 -10 -16 -4q-5 4 -14 11t-38 24.5t-60.5 31t-79 24.5t-95.5 11q-84 0 -154.5 -22t-117 -58t-79.5 -82.5t-47.5 -94.5t-14.5 -95q0 -69 21.5 -119.5t68.5 -87.5t96 -60 t129 -52q92 -32 152.5 -62t112 -73.5t75.5 -102t24 -137.5q0 -163 -127.5 -275t-310.5 -118l-104 -136q33 11 61 11q64 0 110 -36t46 -106q0 -84 -58 -139t-147 -55q-102 0 -156 69q-9 10 2 21l9 8q10 10 18 -2q46 -59 125 -59q67 0 117.5 42.5t50.5 112.5q0 53 -33 80 t-88 27q-51 0 -100 -19q-9 -4 -14.5 6.5t-0.5 16.5l117 160q-73 3 -139 25.5t-108.5 52t-67.5 53t-33 37.5z" />
<glyph unicode="&#x15f;" horiz-adv-x="823" d="M676 250q0 -114 -94.5 -190.5t-227.5 -82.5l-102 -133q33 11 61 11q64 0 110 -36t46 -106q0 -84 -58 -139t-147 -55q-101 0 -155 69q-9 10 2 21l8 8q10 10 18 -2q46 -59 125 -59q67 0 117.5 42.5t50.5 112.5q0 53 -33 80t-88 27q-51 0 -100 -19q-9 -4 -14 6.5t0 16.5 l114 155q-147 9 -243 105q-11 11 0 22l8 9q11 11 20 2q96 -101 244 -101q124 0 212.5 67.5t88.5 168.5q0 27 -8 50.5t-18 41t-33 35t-39 28t-50.5 25.5t-53 22.5t-60.5 22.5q-125 44 -182.5 100.5t-57.5 145.5q0 41 20.5 83.5t58 79t99 60t136.5 23.5q145 0 237 -72 q9 -7 2 -21l-4 -8q-7 -14 -22 -4q-93 68 -213 68q-129 0 -203 -66t-74 -143q0 -79 52 -124t169 -89q37 -14 49.5 -19t44.5 -18.5t45 -21t38 -22t36 -26t27.5 -29.5t23 -35t12 -39.5t5.5 -47.5z" />
<glyph unicode="&#x160;" horiz-adv-x="1050" d="M84 150q-6 10 2 18l12 10q9 9 17 -2q11 -16 35 -39t65.5 -53t106.5 -50t137 -20q108 0 204 44.5t157 128t61 186.5q0 58 -17.5 105t-45.5 80.5t-75.5 63.5t-93.5 50.5t-114 44.5q-47 17 -79.5 30.5t-70.5 32.5t-63 37.5t-50 44.5t-39 55t-23 67t-9 83q0 67 27 133.5 t79.5 124t141.5 93.5t200 36q53 0 105 -10.5t87.5 -26t64 -31t42.5 -26.5l13 -10q8 -8 2 -17l-11 -12q-7 -10 -16 -4q-5 4 -14 11t-38 24.5t-60.5 31t-79 24.5t-95.5 11q-84 0 -154.5 -22t-117 -58t-79.5 -82.5t-47.5 -94.5t-14.5 -95q0 -69 21.5 -119.5t68.5 -87.5t96 -60 t129 -52q92 -32 152.5 -62t112 -73.5t75.5 -102t24 -137.5q0 -110 -62 -200.5t-166.5 -141.5t-227.5 -51q-78 0 -149.5 22t-117 53t-72.5 55.5t-36 39.5zM672 1548l-207 217q-9 9 -2 17l8 8q7 7 14 2l197 -207l258 209q8 4 14 -2l7 -10q2 -11 1 -12.5t-14 -12.5l-260 -209 q-10 -6 -16 0z" />
<glyph unicode="&#x161;" horiz-adv-x="823" d="M338 -23q-71 0 -130 19.5t-86 38.5t-56 47q-11 11 0 22l8 9q11 11 20 2q96 -101 244 -101q124 0 212.5 67.5t88.5 168.5q0 27 -8 50.5t-18 41t-33 35t-39 28t-50.5 25.5t-53 22.5t-60.5 22.5q-125 44 -182.5 100.5t-57.5 145.5q0 41 20.5 83.5t58 79t99 60t136.5 23.5 q145 0 237 -72q11 -9 2 -21l-6 -8q-5 -7 -7.5 -8t-12.5 4q-93 68 -213 68q-129 0 -203 -66t-74 -143q0 -79 52 -124t169 -89q37 -14 49.5 -19t44.5 -18.5t45 -21t38 -22t36 -26t27.5 -29.5t23 -35t12 -39.5t5.5 -47.5q0 -117 -100.5 -195t-237.5 -78zM475 1139l-207 217 q-9 9 -2 16l8 8q8 8 15 2l196 -206l258 208q8 5 15 -2l6 -10q2 -11 1.5 -12t-13.5 -12l-260 -209q-10 -7 -17 0z" />
<glyph unicode="&#x162;" horiz-adv-x="948" d="M602 1397l-192 -1368q-2 -14 -17 -37l-108 -148q33 11 61 11q64 0 110 -36t46 -106q0 -84 -58 -139t-147 -55q-102 0 -156 69q-9 10 2 21l9 8q10 10 18 -2q46 -59 125 -59q67 0 117.5 42.5t50.5 112.5q0 53 -33 80t-88 27q-51 0 -100 -19q-9 -4 -14.5 6.5t-0.5 16.5 l144 198l194 1377h-381q-6 0 -9.5 4t-2.5 10l2 10q3 13 14 13h803q6 0 10 -4.5t3 -10.5l-3 -10q-3 -12 -14 -12h-385z" />
<glyph unicode="&#x163;" horiz-adv-x="663" d="M567 59q-33 -21 -102.5 -47.5t-134.5 -31.5l-103 -136q33 11 62 11q63 0 109 -36t46 -106q0 -84 -57.5 -139t-146.5 -55q-102 0 -156 69q-10 10 2 21l8 8q5 4 10.5 3.5t8.5 -5.5q46 -59 125 -59q67 0 117.5 42.5t50.5 112.5q0 53 -33 80t-88 27q-52 0 -101 -19 q-8 -4 -13.5 6.5t-0.5 16.5l117 158q-68 4 -102.5 41t-36.5 96.5t8 136.5l92 655h-94q-5 0 -7.5 5.5t-1.5 11.5l2 4q3 16 15 16h92l35 256q4 15 12 15h10q6 0 10 -4.5t3 -10.5l-33 -256h344q17 0 14 -16l-2 -4q-4 -17 -18 -17h-344l-92 -655q-8 -68 -9 -121.5t28.5 -86 t94.5 -32.5t133.5 26.5t106.5 51.5q12 7 20 -4l6 -12q6 -9 -6 -17z" />
<glyph unicode="&#x164;" horiz-adv-x="948" d="M371 14l194 1383h-381q-6 0 -9.5 4t-2.5 10l2 10q3 13 14 13h803q6 0 10 -4.5t3 -10.5l-3 -10q-3 -12 -14 -12h-385l-194 -1383q-4 -14 -17 -14h-8q-15 0 -12 14zM596 1579l-207 217q-9 9 -2 16l8 9q8 8 15 2l196 -207l258 209q8 5 15 -2l6 -11q4 -8 1 -12t-14 -12 l-260 -209q-10 -6 -16 0z" />
<glyph unicode="&#x165;" horiz-adv-x="659" d="M303 -23q-77 0 -116 36.5t-42 98.5t7 142l92 655h-94q-5 0 -7.5 5.5t-1.5 11.5l2 4q3 16 15 16h92l35 256q4 15 12 15h10q6 0 9.5 -4.5t2.5 -10.5l-32 -256h344q17 0 14 -16l-2 -4q-4 -17 -18 -17h-344l-93 -655q-6 -46 -8 -76.5t1.5 -64.5t16.5 -53.5t39 -32.5t66 -13 q65 0 133.5 26.5t106.5 51.5q12 7 20 -4l6 -12q6 -9 -6 -17q-41 -25 -117.5 -53.5t-142.5 -28.5zM662 1397q0 23 17 40t42 17q70 0 70 -98q0 -59 -25 -117t-74 -94q-13 -10 -18 0l-8 12q-9 13 8 23q74 55 74 159q0 11 -5 29q-12 -12 -38 -12q-19 0 -31 12t-12 29z" />
<glyph unicode="&#x166;" horiz-adv-x="950" d="M375 14l88 623h-270q-5 0 -8.5 4t-2.5 10l2 8q4 13 17 13h266l102 725h-383q-14 0 -10 14l2 10q3 13 15 13h802q6 0 10 -4.5t3 -10.5l-2 -8q-4 -14 -17 -14h-385l-102 -725h276q16 0 13 -13l-3 -8q-4 -14 -14 -14h-278l-86 -623q0 -6 -5.5 -10t-11.5 -4h-8q-5 0 -8 4 t-2 10z" />
<glyph unicode="&#x167;" horiz-adv-x="659" d="M303 -23q-77 0 -116 36.5t-42 98.5t7 142l30 223h-69q-6 0 -10 4.5t-3 10.5l2 8q0 5 4.5 8.5t10.5 3.5h71l56 397h-94q-12 0 -9 13l2 8q3 16 15 16h92l35 256q4 15 12 15h10q6 0 9.5 -4.5t2.5 -10.5l-32 -256h344q17 0 14 -16l-2 -8q-3 -13 -18 -13h-344l-56 -397h262 q7 0 10.5 -3t2.5 -9l-2 -8q-4 -15 -15 -15h-264l-31 -223q-6 -46 -8 -76.5t1.5 -64.5t16.5 -53.5t39 -32.5t66 -13q65 0 133.5 26.5t106.5 51.5q12 7 20 -4l6 -12q6 -9 -6 -17q-41 -25 -117.5 -53.5t-142.5 -28.5z" />
<glyph unicode="&#x168;" horiz-adv-x="1366" d="M197 516l127 903q4 15 14 15h10q14 0 10 -15l-125 -903q-8 -47 -8 -102q0 -182 99.5 -290t277.5 -108q201 0 341 138.5t171 361.5l127 903q4 15 16 15h11q5 0 8 -4.5t2 -10.5l-127 -903q-35 -243 -180 -389.5t-375 -146.5q-189 0 -298.5 117.5t-109.5 314.5q0 25 9 104z M588 1642l-15 5q-12 3 -6 18q9 23 21 45t35.5 54.5t57 52.5t71.5 20q40 0 64 -23t33.5 -55.5t18 -64.5t27 -55t49.5 -23q86 0 143 147q6 16 15 13l14 -4q15 -4 6 -19q-74 -172 -182 -172q-39 0 -63 23t-34.5 55.5t-19.5 64.5t-27 55t-48 23q-28 0 -54.5 -18t-45 -45.5 t-29 -48t-17.5 -37.5q-6 -15 -14 -11z" />
<glyph unicode="&#x169;" horiz-adv-x="1015" d="M414 14q56 0 108.5 18.5t87 42t65 55t42.5 48t20 29.5l103 723q3 16 16 16h10q16 0 13 -16l-129 -914q-3 -16 -17 -16h-10q-13 0 -10 16l16 125q-27 -31 -52.5 -54.5t-65 -51t-90 -43t-107.5 -15.5q-169 0 -234.5 109t-34.5 326l74 520q3 14 17 14h8q15 0 12 -16 l-72 -518q-60 -398 230 -398zM340 1194l-14 4q-13 3 -7 19q9 23 21 45t35.5 54.5t57 52.5t71.5 20q40 0 64 -23t33.5 -55.5t18 -65t27 -55.5t49.5 -23q86 0 144 148q6 15 14 12l14 -4q15 -4 6 -18q-74 -172 -182 -172q-39 0 -63 23t-34.5 55.5t-19.5 64.5t-27 55t-48 23 q-28 0 -54 -18t-45 -46t-29.5 -48.5t-17.5 -37.5q-6 -14 -14 -10z" />
<glyph unicode="&#x16a;" horiz-adv-x="1366" d="M197 516l127 903q4 15 14 15h10q14 0 10 -15l-125 -903q-8 -47 -8 -102q0 -182 99.5 -290t277.5 -108q201 0 341 138.5t171 361.5l127 903q4 15 16 15h11q5 0 8 -4.5t2 -10.5l-127 -903q-35 -243 -180 -389.5t-375 -146.5q-189 0 -298.5 117.5t-109.5 314.5q0 25 9 104z M582 1724q-7 0 -11 4.5t-2 10.5l2 8q3 14 17 14h528q6 0 9.5 -4t2.5 -10l-2 -8q-4 -15 -14 -15h-530z" />
<glyph unicode="&#x16b;" horiz-adv-x="1015" d="M414 14q56 0 108.5 18.5t87 42t65 55t42.5 48t20 29.5l103 723q3 16 16 16h10q16 0 13 -16l-129 -914q-3 -16 -17 -16h-10q-13 0 -10 16l16 125q-27 -31 -52.5 -54.5t-65 -51t-90 -43t-107.5 -15.5q-169 0 -234.5 109t-34.5 326l74 520q3 14 17 14h8q15 0 12 -16 l-72 -518q-60 -398 230 -398zM319 1243q-15 0 -12 14l2 9q3 14 17 14h528q6 0 9.5 -4t2.5 -10l-2 -9q-4 -14 -14 -14h-531z" />
<glyph unicode="&#x16c;" horiz-adv-x="1366" d="M197 516l127 903q4 15 14 15h10q14 0 10 -15l-125 -903q-8 -47 -8 -102q0 -182 99.5 -290t277.5 -108q201 0 341 138.5t171 361.5l127 903q4 15 16 15h11q5 0 8 -4.5t2 -10.5l-127 -903q-35 -243 -180 -389.5t-375 -146.5q-189 0 -298.5 117.5t-109.5 314.5q0 25 9 104z M838 1597q-91 0 -147 63t-56 157q0 16 10 16h12q11 0 11 -12q-1 -83 47.5 -135t126.5 -52q75 0 137.5 52t87.5 135q3 12 12 12h17q12 0 8 -16q-28 -94 -102 -157t-164 -63z" />
<glyph unicode="&#x16d;" horiz-adv-x="1015" d="M414 14q56 0 108.5 18.5t87 42t65 55t42.5 48t20 29.5l103 723q3 16 16 16h10q16 0 13 -16l-129 -914q-3 -16 -17 -16h-10q-13 0 -10 16l16 125q-27 -31 -52.5 -54.5t-65 -51t-90 -43t-107.5 -15.5q-169 0 -234.5 109t-34.5 326l74 520q3 14 17 14h8q15 0 12 -16 l-72 -518q-60 -398 230 -398zM569 1116q-91 0 -146.5 62.5t-55.5 156.5q0 17 10 17h12q10 0 10 -13q-1 -83 47.5 -134.5t126.5 -51.5q75 0 138 51.5t88 134.5q3 13 12 13h16q13 0 9 -17q-28 -94 -102 -156.5t-165 -62.5z" />
<glyph unicode="&#x16e;" horiz-adv-x="1366" d="M197 516l127 903q4 15 14 15h10q14 0 10 -15l-125 -903q-8 -47 -8 -102q0 -182 99.5 -290t277.5 -108q201 0 341 138.5t171 361.5l127 903q4 15 16 15h11q5 0 8 -4.5t2 -10.5l-127 -903q-35 -243 -180 -389.5t-375 -146.5q-189 0 -298.5 117.5t-109.5 314.5q0 25 9 104z M821 1536q-73 0 -119.5 52.5t-46.5 129.5q0 100 68 172t158 72q71 0 117 -53t46 -131q0 -100 -67 -171t-156 -71zM825 1571q72 0 128.5 59.5t56.5 141.5q0 66 -36 110.5t-97 44.5q-73 0 -129 -60t-56 -141q0 -68 34 -111.5t99 -43.5z" />
<glyph unicode="&#x16f;" horiz-adv-x="1015" d="M414 14q56 0 108.5 18.5t87 42t65 55t42.5 48t20 29.5l103 723q3 16 16 16h10q16 0 13 -16l-129 -914q-3 -16 -17 -16h-10q-13 0 -10 16l16 125q-27 -31 -52.5 -54.5t-65 -51t-90 -43t-107.5 -15.5q-169 0 -234.5 109t-34.5 326l74 520q3 14 17 14h8q15 0 12 -16 l-72 -518q-60 -398 230 -398zM559 1044q-73 0 -119.5 52.5t-46.5 130.5q0 100 67.5 171.5t157.5 71.5q71 0 117.5 -53t46.5 -131q0 -100 -67 -171t-156 -71zM563 1079q72 0 128.5 59.5t56.5 141.5q0 66 -36.5 111t-97.5 45q-73 0 -128.5 -60t-55.5 -141q0 -68 34 -112 t99 -44z" />
<glyph unicode="&#x170;" horiz-adv-x="1366" d="M197 516l127 903q4 15 14 15h10q14 0 10 -15l-125 -903q-8 -47 -8 -102q0 -182 99.5 -290t277.5 -108q201 0 341 138.5t171 361.5l127 903q4 15 16 15h11q5 0 8 -4.5t2 -10.5l-127 -903q-35 -243 -180 -389.5t-375 -146.5q-189 0 -298.5 117.5t-109.5 314.5q0 25 9 104z M952 1550l-10 6q-8 8 0 19l246 354q7 10 16 4l10 -6q11 -8 3 -18l-246 -355q-10 -10 -19 -4zM647 1550l-10 6q-10 6 -2 19l246 354q7 9 18 4l10 -6q9 -6 2 -18l-247 -355q-8 -10 -17 -4z" />
<glyph unicode="&#x171;" horiz-adv-x="1015" d="M414 14q56 0 108.5 18.5t87 42t65 55t42.5 48t20 29.5l103 723q3 16 16 16h10q16 0 13 -16l-129 -914q-3 -16 -17 -16h-10q-13 0 -10 16l16 125q-27 -31 -52.5 -54.5t-65 -51t-90 -43t-107.5 -15.5q-169 0 -234.5 109t-34.5 326l74 520q3 14 17 14h8q15 0 12 -16 l-72 -518q-60 -398 230 -398zM715 1051l-8 6q-9 6 -2 18l245 355q8 10 17 4l10 -7q11 -7 2 -18l-246 -354q-7 -9 -18 -4zM410 1051l-11 6q-8 8 0 18l244 355q10 10 19 4l10 -7q11 -7 2 -18l-248 -354q-7 -10 -16 -4z" />
<glyph unicode="&#x172;" horiz-adv-x="1366" d="M197 516l127 903q4 15 14 15h10q14 0 10 -15l-125 -903q-33 -224 67 -362t302 -138q201 0 341 138.5t171 361.5l127 903q4 15 16 15h11q5 0 8 -4.5t2 -10.5l-127 -903q-28 -200 -132.5 -337t-270.5 -181q-46 -22 -80.5 -41t-78 -50.5t-71.5 -63t-47.5 -75.5t-19.5 -92 q0 -56 32 -91.5t92 -35.5q44 0 86 18t58 30q11 7 18 -3l8 -12q5 -10 -12 -20q-84 -49 -160 -49q-78 0 -118.5 45t-40.5 116q0 174 227 308q-7 0 -22.5 -1t-22.5 -1q-214 0 -323.5 149t-75.5 387z" />
<glyph unicode="&#x173;" horiz-adv-x="1013" d="M414 14q56 0 108.5 18.5t87 42t65 55t42.5 48t20 29.5l103 723q3 16 16 16h10q16 0 13 -16l-129 -912q-2 -12 -15 -18q-47 -22 -81 -41t-78.5 -50.5t-73 -63.5t-48.5 -76.5t-20 -92.5q0 -55 32.5 -91t92.5 -36q44 0 85.5 17.5t57.5 30.5q11 7 19 -3l8 -12q5 -10 -12 -20 q-84 -49 -160 -49q-78 0 -119 45t-41 116q0 61 26 115t74.5 97.5t99 76t118.5 66.5l14 112q-27 -31 -52.5 -54.5t-65 -51t-90 -43t-107.5 -15.5q-169 0 -234.5 109t-34.5 326l74 520q3 14 17 14h8q15 0 12 -16l-72 -518q-60 -398 230 -398z" />
<glyph unicode="&#x174;" horiz-adv-x="1648" d="M371 -25l-176 1446q0 10 8 13l18 4q4 1 7 -2.5t3 -8.5l164 -1364l533 1387q4 10 14 10t12 -10l160 -1384l535 1366q3 10 14 6l14 -6q11 -4 4 -17l-565 -1440q-3 -7 -8.5 -9.5t-10 0t-5.5 9.5l-162 1389l-535 -1389q-3 -7 -8.5 -9.5t-10 0t-5.5 9.5zM731 1563q-8 -5 -14 2 l-6 10q-2 11 -1.5 12t13.5 12l260 209q10 6 16 0l207 -217q9 -9 2 -16l-8 -8q-7 -7 -14 -2l-197 207z" />
<glyph unicode="&#x175;" horiz-adv-x="1304" d="M281 -25l-148 963q-4 18 8 20l11 3q13 2 16 -11l137 -897l383 920q5 14 16.5 14.5t16.5 -16.5l125 -920l389 901q6 11 14 9l15 -7q11 -3 4 -16l-414 -963q-8 -11 -19 -11.5t-14 11.5l-125 926l-385 -926q-6 -11 -17 -11.5t-13 11.5zM502 1122q-8 -5 -15 2l-6 11 q-2 4 -2.5 6t0.5 4.5t2 3.5t5.5 4.5t7.5 5.5l260 209q10 6 16 0l207 -217q9 -9 2 -16l-8 -9q-8 -8 -15 -2l-196 207z" />
<glyph unicode="&#x176;" horiz-adv-x="1042" d="M418 14l96 688l-385 707q-8 12 4 18l12 7q9 5 17 -7l373 -690l571 693q8 12 16 6l15 -9q12 -6 0 -18l-586 -704l-96 -693q-3 -12 -15 -12h-12q-13 0 -10 14zM426 1563q-8 -5 -14 2l-6 10q-2 11 -1.5 12t13.5 12l260 209q10 6 16 0l207 -217q9 -9 2 -16l-8 -8 q-7 -7 -14 -2l-197 207z" />
<glyph unicode="&#x177;" horiz-adv-x="901" d="M354 20l-243 916q-3 13 6 16l12 4q12 3 16 -8l234 -887l475 891q8 11 18 6l11 -4q12 -6 6 -18l-768 -1425q-8 -13 -19 -7l-8 4q-11 7 -4 21zM309 1122q-8 -5 -14 2l-6 11q-2 11 -1.5 12t13.5 12l260 209q10 7 17 0l206 -217q9 -9 2 -16l-8 -9q-7 -7 -14 -2l-197 207z" />
<glyph unicode="&#x178;" horiz-adv-x="1042" d="M418 14l96 688l-385 707q-8 12 4 18l12 7q9 5 17 -7l373 -690l571 693q8 12 16 6l15 -9q12 -6 0 -18l-586 -704l-96 -693q-3 -12 -15 -12h-12q-13 0 -10 14zM862 1655q-18 0 -28.5 10.5t-10.5 28.5q0 24 15 38.5t36 14.5q37 0 37 -41q0 -22 -14.5 -36.5t-34.5 -14.5z M479 1655q-18 0 -28.5 10.5t-10.5 28.5q0 24 16 38.5t36 14.5q38 0 38 -41q0 -23 -15 -37t-36 -14z" />
<glyph unicode="&#x179;" horiz-adv-x="974" d="M-16 0q-9 0 -12 8t3 15l996 1374h-729q-14 0 -11 14l2 8q4 15 15 15h770q9 0 12 -8t-2 -15l-997 -1374h753q14 0 11 -14l-2 -9q-3 -14 -17 -14h-792zM510 1591q-11 -4 -16 6l-7 13q-4 8 9 14l360 186q10 3 16 -6l7 -10q5 -11 -9 -18z" />
<glyph unicode="&#x17a;" horiz-adv-x="806" d="M2 0q-10 0 -13 9t5 18l719 882h-525q-7 0 -11.5 4.5t-2.5 10.5l2 10q2 12 17 12h569q11 0 14 -8.5t-4 -17.5l-721 -883h559q6 0 10 -4t3 -10l-2 -9q-3 -14 -17 -14h-602zM369 1145q-12 -5 -17 6l-6 12q-4 9 8 15l361 186q10 3 16 -6l6 -10q6 -12 -8 -19z" />
<glyph unicode="&#x17b;" horiz-adv-x="974" d="M-16 0q-9 0 -12 8t3 15l996 1374h-729q-14 0 -11 14l2 8q4 15 15 15h770q9 0 12 -8t-2 -15l-997 -1374h753q14 0 11 -14l-2 -9q-3 -14 -17 -14h-792zM666 1677q-19 0 -30 12.5t-11 30.5q0 22 16.5 39t38.5 17q18 0 28.5 -12.5t10.5 -30.5q0 -22 -15 -39t-38 -17z" />
<glyph unicode="&#x17c;" horiz-adv-x="806" d="M2 0q-10 0 -13 9t5 18l719 882h-525q-7 0 -11.5 4.5t-2.5 10.5l2 10q2 12 17 12h569q11 0 14 -8.5t-4 -17.5l-721 -883h559q6 0 10 -4t3 -10l-2 -9q-3 -14 -17 -14h-602zM496 1239q-19 0 -30 12.5t-11 30.5q0 22 16.5 38.5t38.5 16.5q18 0 28.5 -12.5t10.5 -30.5 q0 -22 -15 -38.5t-38 -16.5z" />
<glyph unicode="&#x17d;" horiz-adv-x="974" d="M-16 0q-9 0 -12 8t3 15l996 1374h-729q-14 0 -11 14l2 8q4 15 15 15h770q9 0 12 -8t-2 -15l-997 -1374h753q14 0 11 -14l-2 -9q-3 -14 -17 -14h-792zM631 1579l-207 217q-9 9 -2 16l8 9q7 7 14 2l197 -207l258 209q7 5 14 -2l7 -11q4 -8 1 -12t-14 -12l-260 -209 q-10 -6 -16 0z" />
<glyph unicode="&#x17e;" horiz-adv-x="806" d="M2 0q-10 0 -13 9t5 18l719 882h-525q-7 0 -11.5 4.5t-2.5 10.5l2 10q2 12 17 12h569q11 0 14 -8.5t-4 -17.5l-721 -883h559q6 0 10 -4t3 -10l-2 -9q-3 -14 -17 -14h-602zM477 1133l-207 217q-9 9 -2 16l8 8q8 8 15 2l196 -207l258 209q8 5 15 -2l6 -10q3 -11 1.5 -12.5 t-13.5 -12.5l-260 -208q-10 -7 -17 0z" />
<glyph unicode="&#x192;" horiz-adv-x="720" d="M172 -147l129 929h-199q-6 0 -9.5 4.5t-2.5 10.5l2 8q4 14 14 14h201l39 275q25 179 111.5 269.5t214.5 90.5q69 0 119 -26.5t77 -61.5q9 -9 -2 -20l-8 -7q-11 -11 -18 0q-64 78 -174 78q-111 0 -186 -81t-99 -242l-37 -275h330q5 0 9 -4t3 -10l-2 -8q-4 -15 -16 -15 h-330l-129 -929q-25 -179 -112 -270t-214 -91q-70 0 -120.5 26.5t-77.5 61.5q-8 11 2 21l8 6q11 11 18 0q64 -78 174 -78q111 0 186.5 81.5t98.5 242.5z" />
<glyph unicode="&#x1fa;" horiz-adv-x="1208" d="M645 1919q-11 -4 -16 6l-6 12q-4 9 8 15l360 186q11 4 17 -6l6 -10q6 -12 -8 -19zM-14 2q-4 -8 -13 -6l-16 6q-9 3 -4 12l762 1438q-63 9 -101.5 59t-38.5 121q0 100 68 172t158 72q71 0 117.5 -53t46.5 -131q0 -97 -63 -167t-148 -75l348 -1434q3 -10 -8 -14l-11 -4 q-11 -4 -14 6l-102 426h-756zM745 1483q72 0 129.5 60.5t57.5 142.5q0 65 -37 111t-98 46q-73 0 -130 -61t-57 -142q0 -68 35 -112.5t100 -44.5zM231 465h725l-225 944h-2z" />
<glyph unicode="&#x1fb;" horiz-adv-x="1064" d="M629 1047q-73 0 -119.5 52.5t-46.5 129.5q0 100 67.5 172t157.5 72q71 0 117.5 -53.5t46.5 -131.5q0 -100 -67 -170.5t-156 -70.5zM633 1079q72 0 129 60.5t57 142.5q0 66 -37 112t-98 46q-73 0 -129.5 -61t-56.5 -142q0 -68 35 -113t100 -45zM535 1479q-12 -5 -17 6 l-6 12q-4 8 8 14l361 187q10 3 16 -6l6 -11q6 -11 -8 -18zM102 399q0 157 65.5 287.5t177.5 205.5t245 75q103 0 175.5 -37t115.5 -86l16 86q3 16 12 16h11q13 0 10 -16l-127 -914q-3 -16 -17 -16h-10q-13 0 -10 16l16 121q-43 -57 -135.5 -108.5t-195.5 -51.5 q-159 0 -254 120t-95 302zM139 401q0 -165 86 -276t226 -111q106 0 200.5 59.5t139.5 133.5l81 581q-4 8 -14 21.5t-34.5 35.5t-55 40t-78 31.5t-100.5 13.5q-188 0 -319.5 -153t-131.5 -376z" />
<glyph unicode="&#x1fc;" horiz-adv-x="1720" d="M-49 0q-6 -9 -17 -2l-10 6q-10 6 -2 16l1022 1407q4 7 14 7h746q6 0 9.5 -4.5t2.5 -10.5l-2 -8q-4 -14 -14 -14h-727l-90 -633h639q12 0 12 -12q0 -25 -18 -25h-637l-99 -690h727q6 0 10 -4t3 -10l-2 -9q-4 -14 -15 -14h-747q-6 0 -10 4t-3 10l58 416h-539zM287 465h520 l125 889zM1169 1593q-11 -4 -16 6l-6 13q-4 8 8 14l361 186q10 3 16 -6l6 -10q6 -11 -8 -18z" />
<glyph unicode="&#x1fd;" horiz-adv-x="1542" d="M758 483q82 -16 207 -16q204 -2 329 63t125 179q0 95 -80.5 158t-212.5 63q-98 0 -192.5 -45t-151.5 -119q1 -26 -1.5 -65.5t-5.5 -66t-9.5 -82.5t-7.5 -69zM94 254q0 -111 55.5 -175.5t165.5 -64.5q105 0 207 49t152 103l51 356q-3 1 -34.5 13t-59 21t-72 17.5 t-84.5 8.5q-165 0 -273 -92t-108 -236zM752 446l-37 -278q44 -76 120.5 -115t165.5 -39q150 0 289 105q9 6 15 -4l8 -13q4 -8 -8 -20q-45 -37 -130.5 -71t-177.5 -34q-99 0 -182 44t-125 110q-61 -59 -164.5 -106.5t-208.5 -47.5q-123 0 -191.5 73t-68.5 200 q0 162 117.5 265t302.5 103q71 0 140 -17.5t112 -37.5q18 123 15 204.5t-50.5 122t-152.5 40.5q-56 0 -107 -10.5t-75.5 -20.5t-57.5 -28t-35 -19q-11 -6 -16 4l-6 12q-5 12 8 19q5 3 14 8.5t39.5 19.5t62.5 24.5t81 19t98 8.5q105 0 161 -36.5t70 -111.5q65 70 158.5 109 t191.5 39q147 0 237.5 -74t90.5 -184q0 -130 -135 -205.5t-356 -73.5q-107 0 -213 16zM760 1145q-12 -5 -17 6l-6 12q-4 9 8 15l361 186q10 3 16 -6l6 -10q6 -12 -8 -19z" />
<glyph unicode="&#x1fe;" horiz-adv-x="1599" d="M106 70q-8 8 5 20l141 131q-51 78 -80 183.5t-29 211.5q0 170 63.5 326t169 267.5t247 178t292.5 66.5q136 0 251.5 -56.5t191.5 -156.5l145 133q13 13 19 0l4 -6q6 -12 -2 -20l-146 -134q53 -80 84 -188t31 -215q0 -169 -64 -323.5t-169.5 -265.5t-247.5 -176.5 t-293 -65.5q-139 0 -255.5 55.5t-193.5 157.5l-141 -130q-10 -6 -16 0zM279 246l1052 971q-75 95 -182 147.5t-234 52.5q-142 0 -277 -63.5t-235.5 -170t-161.5 -255.5t-61 -312q0 -100 26 -199.5t73 -170.5zM301 219q71 -97 179 -150t239 -53q142 0 277 62.5t236 168 t162.5 253.5t61.5 309q0 103 -27.5 206t-76.5 175zM795 1591q-12 -5 -17 6l-6 13q-4 8 8 14l361 186q10 3 16 -6l6 -10q6 -11 -8 -18z" />
<glyph unicode="&#x1ff;" horiz-adv-x="1099" d="M100 403q0 115 41.5 220t110.5 180t161.5 119.5t190.5 44.5q92 0 166 -42t123 -116l70 59q14 9 20 0l6 -8q6 -11 -2 -24l-72 -64q54 -102 54 -227q0 -115 -41.5 -221t-109.5 -181.5t-160.5 -120.5t-190.5 -45q-93 0 -168.5 43t-124.5 119l-51 -45q-5 -4 -12.5 -3.5 t-10.5 5.5l-4 6q-8 11 4 23l54 45q-54 105 -54 233zM932 545q0 117 -45 205l-684 -586q46 -70 114 -110t150 -40q122 0 229.5 72t171.5 194.5t64 264.5zM137 403q0 -119 47 -208l682 587q-44 69 -111.5 108.5t-150.5 39.5q-91 0 -177 -42.5t-149.5 -113t-102 -168.5 t-38.5 -203zM516 1145q-11 -4 -16 6l-6 12q-4 9 8 15l360 186q11 4 17 -6l6 -10q6 -12 -8 -19z" />
<glyph unicode="&#x218;" horiz-adv-x="1050" d="M84 150q-6 10 2 18l12 10q9 9 17 -2q11 -16 35 -39t65.5 -53t106.5 -50t137 -20q108 0 204 44.5t157 128t61 186.5q0 58 -17.5 105t-45.5 80.5t-75.5 63.5t-93.5 50.5t-114 44.5q-47 17 -79.5 30.5t-70.5 32.5t-63 37.5t-50 44.5t-39 55t-23 67t-9 83q0 67 27 133.5 t79.5 124t141.5 93.5t200 36q53 0 105 -10.5t87.5 -26t64 -31t42.5 -26.5l13 -10q8 -8 2 -17l-11 -12q-7 -10 -16 -4q-5 4 -14 11t-38 24.5t-60.5 31t-79 24.5t-95.5 11q-84 0 -154.5 -22t-117 -58t-79.5 -82.5t-47.5 -94.5t-14.5 -95q0 -69 21.5 -119.5t68.5 -87.5t96 -60 t129 -52q92 -32 152.5 -62t112 -73.5t75.5 -102t24 -137.5q0 -110 -62 -200.5t-166.5 -141.5t-227.5 -51q-78 0 -149.5 22t-117 53t-72.5 55.5t-36 39.5zM348 -258q0 23 17.5 40t42.5 17q69 0 69 -98q0 -60 -25 -117.5t-73 -93.5q-14 -11 -19 0l-8 12q-9 13 8 23 q74 55 74 160q0 14 -4 28q-12 -12 -39 -12q-19 0 -31 12t-12 29z" />
<glyph unicode="&#x219;" horiz-adv-x="823" d="M338 -23q-71 0 -130 19.5t-86 38.5t-56 47q-11 11 0 22l8 9q11 11 20 2q96 -101 244 -101q124 0 212.5 67.5t88.5 168.5q0 27 -8 50.5t-18 41t-33 35t-39 28t-50.5 25.5t-53 22.5t-60.5 22.5q-125 44 -182.5 100.5t-57.5 145.5q0 41 20.5 83.5t58 79t99 60t136.5 23.5 q145 0 237 -72q11 -9 2 -21l-6 -8q-5 -7 -7.5 -8t-12.5 4q-93 68 -213 68q-129 0 -203 -66t-74 -143q0 -79 52 -124t169 -89q37 -14 49.5 -19t44.5 -18.5t45 -21t38 -22t36 -26t27.5 -29.5t23 -35t12 -39.5t5.5 -47.5q0 -117 -100.5 -195t-237.5 -78zM229 -221q0 23 17.5 40 t42.5 17q69 0 69 -98q0 -60 -25 -117.5t-73 -93.5q-13 -10 -18 0l-9 12q-8 13 9 23q73 54 73 159q0 15 -4 29q-12 -12 -39 -12q-19 0 -31 12t-12 29z" />
<glyph unicode="&#x21a;" horiz-adv-x="948" d="M371 14l194 1383h-381q-6 0 -9.5 4t-2.5 10l2 10q3 13 14 13h803q6 0 10 -4.5t3 -10.5l-3 -10q-3 -12 -14 -12h-385l-194 -1383q-4 -14 -17 -14h-8q-15 0 -12 14zM291 -227q0 23 17 40t42 17q70 0 70 -98q0 -60 -25 -117.5t-73 -93.5q-14 -11 -19 0l-8 12q-9 13 8 23 q74 55 74 159q0 15 -4 29q-12 -12 -39 -12q-19 0 -31 12t-12 29z" />
<glyph unicode="&#x21b;" horiz-adv-x="659" d="M303 -23q-77 0 -116 36.5t-42 98.5t7 142l92 655h-94q-5 0 -7.5 5.5t-1.5 11.5l2 4q3 16 15 16h92l35 256q4 15 12 15h10q6 0 9.5 -4.5t2.5 -10.5l-32 -256h344q17 0 14 -16l-2 -4q-4 -17 -18 -17h-344l-93 -655q-6 -46 -8 -76.5t1.5 -64.5t16.5 -53.5t39 -32.5t66 -13 q65 0 133.5 26.5t106.5 51.5q12 7 20 -4l6 -12q6 -9 -6 -17q-41 -25 -117.5 -53.5t-142.5 -28.5zM217 -227q0 23 17 40t42 17q70 0 70 -98q0 -60 -25 -117.5t-73 -93.5q-14 -11 -19 0l-8 12q-9 13 8 23q74 55 74 159q0 15 -4 29q-12 -12 -39 -12q-19 0 -31 12t-12 29z" />
<glyph unicode="&#x237;" horiz-adv-x="403" d="M268 930l-149 -1063q-23 -170 -99.5 -258.5t-218.5 -118.5q-17 -3 -20 10l-2 11q-2 12 16 16q129 30 196.5 106.5t90.5 233.5l149 1063q3 16 17 16h8q15 0 12 -16z" />
<glyph unicode="&#x2c6;" horiz-adv-x="688" d="M150 1122q-8 -5 -15 2l-6 11q-2 11 -1.5 12t13.5 12l260 209q10 7 17 0l207 -217q9 -9 2 -16l-9 -9q-7 -7 -14 -2l-196 207z" />
<glyph unicode="&#x2c7;" horiz-adv-x="688" d="M369 1133l-207 217q-9 9 -2 16l8 8q7 7 14 2l197 -207l258 209q7 4 14 -2l6 -10q3 -11 1.5 -12.5t-13.5 -12.5l-260 -208q-10 -6 -16 0z" />
<glyph unicode="&#x2c9;" horiz-adv-x="763" d="M168 1243q-16 0 -12 14l2 9q4 14 16 14h528q6 0 10 -4t3 -10l-2 -9q-3 -14 -15 -14h-530z" />
<glyph unicode="&#x2d8;" horiz-adv-x="636" d="M352 1116q-91 0 -146.5 62.5t-55.5 156.5q0 17 10 17h12q10 0 10 -13q-1 -83 47.5 -134.5t126.5 -51.5q75 0 138 51.5t88 134.5q3 13 12 13h16q12 0 8 -17q-28 -94 -102 -156.5t-164 -62.5z" />
<glyph unicode="&#x2d9;" horiz-adv-x="403" d="M248 1214q-19 0 -30 12.5t-11 30.5q0 22 16.5 39t38.5 17q18 0 28.5 -12.5t10.5 -30.5q0 -22 -15 -39t-38 -17z" />
<glyph unicode="&#x2da;" horiz-adv-x="534" d="M289 1024q-73 0 -119.5 52.5t-46.5 129.5q0 100 67.5 172t157.5 72q71 0 117.5 -53t46.5 -131q0 -100 -67 -171t-156 -71zM293 1059q72 0 128 59.5t56 141.5q0 66 -36 110.5t-97 44.5q-73 0 -128.5 -60t-55.5 -141q0 -68 34 -111.5t99 -43.5z" />
<glyph unicode="&#x2db;" horiz-adv-x="565" d="M397 2q-47 -23 -81.5 -41.5t-80 -50.5t-74 -63.5t-49 -76.5t-20.5 -94q0 -55 32.5 -91t92.5 -36q44 0 85.5 17.5t57.5 30.5q11 7 19 -3l8 -12q5 -10 -12 -20q-84 -49 -160 -49q-78 0 -119 45t-41 116q0 50 19 96t48.5 81.5t74.5 70.5t87 60t97 53z" />
<glyph unicode="&#x2dc;" horiz-adv-x="700" d="M129 1194l-14 4q-12 3 -6 19q9 23 21 44.5t35 54.5t56.5 53t71.5 20q40 0 64 -23t33.5 -55.5t18 -65t27 -55.5t49.5 -23q86 0 144 148q6 15 14 12l14 -4q15 -4 7 -18q-74 -172 -183 -172q-39 0 -63 23t-34.5 55.5t-19.5 64.5t-27 55t-48 23q-28 0 -54 -18t-45 -46 t-29.5 -48.5t-17.5 -37.5q-6 -14 -14 -10z" />
<glyph unicode="&#x2dd;" horiz-adv-x="722" d="M457 1051l-8 6q-10 7 -3 18l246 355q8 10 17 4l10 -7q11 -7 2 -18l-246 -354q-7 -9 -18 -4zM152 1051l-11 6q-8 8 0 18l244 355q10 10 18 4l11 -7q11 -7 2 -18l-248 -354q-7 -10 -16 -4z" />
<glyph unicode="&#x394;" horiz-adv-x="1290" d="M25 0h-8.5t-7.5 2t-6 5.5t0 11.5t7 20l758 1429q4 9 10 9h4q4 0 9 -9l346 -1433q10 -35 -27 -35h-1085zM49 37h1047l-324 1360z" />
<glyph unicode="&#x3a9;" horiz-adv-x="1601" d="M109 14l2 9q3 14 14 14h342q-149 73 -235.5 221t-86.5 338q0 99 26 202t73 198t117 178.5t154 145.5t189.5 98t217.5 36q162 0 293.5 -82t205.5 -225.5t74 -319.5q0 -245 -137.5 -461.5t-368.5 -328.5h340q15 0 12 -14l-2 -9q-3 -14 -14 -14h-438q-13 0 -10 14l2 9 q3 14 12 14q162 49 291.5 168.5t202.5 282.5t73 339q0 167 -68.5 301.5t-192 211.5t-279.5 77q-150 0 -288 -70.5t-235 -184.5t-155 -262.5t-58 -299.5q0 -207 103 -359.5t278 -203.5q5 0 9 -4t3 -10l-2 -9q-3 -14 -14 -14h-438q-15 0 -12 14z" />
<glyph unicode="&#x3bc;" horiz-adv-x="1038" d="M457 14q56 0 108.5 18.5t87 42t65 55t42.5 48t20 29.5l103 723q3 16 16 16h10q16 0 13 -16l-129 -914q-3 -16 -17 -16h-10q-13 0 -10 16l16 125q-27 -31 -52.5 -54.5t-65 -51t-90 -43t-107.5 -15.5q-220 0 -267 185l-88 -633q-3 -16 -16 -16h-8q-18 0 -15 16l199 1403 q3 14 17 14h8q15 0 12 -16l-72 -518q-28 -202 28.5 -300t201.5 -98z" />
<glyph unicode="&#x3c0;" horiz-adv-x="1183" d="M221 0q-13 0 -10 16l127 893h-232q-13 0 -10 13l2 10q3 14 19 14h1059q13 0 10 -14l-2 -10q-3 -13 -15 -13h-229l-125 -893q-3 -16 -16 -16h-11q-5 0 -9 4.5t-3 11.5l129 893h-530l-125 -893q-3 -16 -17 -16h-12z" />
<glyph unicode="&#x1e80;" horiz-adv-x="1648" d="M371 -25l-176 1446q0 10 8 13l18 4q4 1 7 -2.5t3 -8.5l164 -1364l533 1387q4 10 14 10t12 -10l160 -1384l535 1366q3 10 14 6l14 -6q11 -4 4 -17l-565 -1440q-3 -7 -8.5 -9.5t-10 0t-5.5 9.5l-162 1389l-535 -1389q-3 -7 -8.5 -9.5t-10 0t-5.5 9.5zM1124 1595l-309 185 q-10 7 -2 18l4 6q6 10 19 6l307 -186q9 -6 4 -14l-4 -8q-8 -12 -19 -7z" />
<glyph unicode="&#x1e81;" horiz-adv-x="1304" d="M281 -25l-148 963q-4 18 8 20l11 3q13 2 16 -11l137 -897l383 920q5 14 16.5 14.5t16.5 -16.5l125 -920l389 901q6 11 14 9l15 -7q11 -3 4 -16l-414 -963q-8 -11 -19 -11.5t-14 11.5l-125 926l-385 -926q-6 -11 -17 -11.5t-13 11.5zM854 1147l-309 184q-11 7 -2 19l4 6 q6 10 18 6l307 -186q10 -7 5 -15l-5 -8q-8 -11 -18 -6z" />
<glyph unicode="&#x1e82;" horiz-adv-x="1648" d="M371 -25l-176 1446q0 10 8 13l18 4q4 1 7 -2.5t3 -8.5l164 -1364l533 1387q4 10 14 10t12 -10l160 -1384l535 1366q3 10 14 6l14 -6q11 -4 4 -17l-565 -1440q-3 -7 -8.5 -9.5t-10 0t-5.5 9.5l-162 1389l-535 -1389q-3 -7 -8.5 -9.5t-10 0t-5.5 9.5zM803 1591 q-12 -5 -17 6l-6 13q-4 8 8 14l361 186q10 3 16 -6l6 -10q6 -11 -8 -18z" />
<glyph unicode="&#x1e83;" horiz-adv-x="1304" d="M281 -25l-148 963q-4 18 8 20l11 3q13 2 16 -11l137 -897l383 920q5 14 16.5 14.5t16.5 -16.5l125 -920l389 901q6 11 14 9l15 -7q11 -3 4 -16l-414 -963q-8 -11 -19 -11.5t-14 11.5l-125 926l-385 -926q-6 -11 -17 -11.5t-13 11.5zM616 1145q-11 -4 -16 6l-6 12 q-4 9 8 15l361 186q10 3 16 -6l6 -10q6 -12 -8 -19z" />
<glyph unicode="&#x1e84;" horiz-adv-x="1648" d="M371 -25l-176 1446q0 10 8 13l18 4q4 1 7 -2.5t3 -8.5l164 -1364l533 1387q4 10 14 10t12 -10l160 -1384l535 1366q3 10 14 6l14 -6q11 -4 4 -17l-565 -1440q-3 -7 -8.5 -9.5t-10 0t-5.5 9.5l-162 1389l-535 -1389q-3 -7 -8.5 -9.5t-10 0t-5.5 9.5zM1163 1655 q-18 0 -28.5 10.5t-10.5 28.5q0 24 15.5 38.5t36.5 14.5q36 0 36 -41q0 -22 -14.5 -36.5t-34.5 -14.5zM780 1655q-18 0 -28.5 10.5t-10.5 28.5q0 24 16 38.5t36 14.5q38 0 38 -41q0 -23 -15 -37t-36 -14z" />
<glyph unicode="&#x1e85;" horiz-adv-x="1304" d="M281 -25l-148 963q-4 18 8 20l11 3q13 2 16 -11l137 -897l383 920q5 14 16.5 14.5t16.5 -16.5l125 -920l389 901q6 11 14 9l15 -7q11 -3 4 -16l-414 -963q-8 -11 -19 -11.5t-14 11.5l-125 926l-385 -926q-6 -11 -17 -11.5t-13 11.5zM922 1239q-37 0 -37 39q0 20 15 36.5 t34 16.5q39 0 39 -41q0 -23 -15 -37t-36 -14zM573 1239q-38 0 -38 39q0 24 15.5 38.5t35.5 14.5q37 0 37 -41q0 -23 -13.5 -37t-36.5 -14z" />
<glyph unicode="&#x1ef2;" horiz-adv-x="1042" d="M418 14l96 688l-385 707q-8 12 4 18l12 7q9 5 17 -7l373 -690l571 693q8 12 16 6l15 -9q12 -6 0 -18l-586 -704l-96 -693q-3 -12 -15 -12h-12q-13 0 -10 14zM817 1595l-309 185q-10 7 -2 18l4 6q6 10 18 6l308 -186q9 -6 4 -14l-4 -8q-8 -12 -19 -7z" />
<glyph unicode="&#x1ef3;" horiz-adv-x="901" d="M354 20l-243 916q-3 13 6 16l12 4q12 3 16 -8l234 -887l475 891q8 11 18 6l11 -4q12 -6 6 -18l-768 -1425q-8 -13 -19 -7l-8 4q-11 7 -4 21zM655 1147l-309 184q-11 7 -2 19l4 6q6 10 19 6l307 -186q10 -6 4 -15l-4 -8q-8 -12 -19 -6z" />
<glyph unicode="&#x2000;" horiz-adv-x="1069" />
<glyph unicode="&#x2001;" horiz-adv-x="2139" />
<glyph unicode="&#x2002;" horiz-adv-x="1069" />
<glyph unicode="&#x2003;" horiz-adv-x="2139" />
<glyph unicode="&#x2004;" horiz-adv-x="713" />
<glyph unicode="&#x2005;" horiz-adv-x="534" />
<glyph unicode="&#x2006;" horiz-adv-x="356" />
<glyph unicode="&#x2007;" horiz-adv-x="356" />
<glyph unicode="&#x2008;" horiz-adv-x="267" />
<glyph unicode="&#x2009;" horiz-adv-x="427" />
<glyph unicode="&#x200a;" horiz-adv-x="118" />
<glyph unicode="&#x2010;" horiz-adv-x="753" d="M141 498q-5 0 -8 4t-2 10l2 8q4 15 14 15h447q5 0 7 -4.5t1 -10.5l-2 -8q-4 -14 -12 -14h-447z" />
<glyph unicode="&#x2011;" horiz-adv-x="753" d="M141 498q-5 0 -8 4t-2 10l2 8q4 15 14 15h447q5 0 7 -4.5t1 -10.5l-2 -8q-4 -14 -12 -14h-447z" />
<glyph unicode="&#x2012;" horiz-adv-x="753" d="M141 498q-5 0 -8 4t-2 10l2 8q4 15 14 15h447q5 0 7 -4.5t1 -10.5l-2 -8q-4 -14 -12 -14h-447z" />
<glyph unicode="&#x2013;" horiz-adv-x="1044" d="M143 498q-15 0 -12 14l2 8q4 15 14 15h734q6 0 9.5 -4.5t2.5 -10.5l-2 -8q-3 -14 -14 -14h-734z" />
<glyph unicode="&#x2014;" horiz-adv-x="1443" d="M141 498q-5 0 -8 4t-2 10l2 8q4 15 14 15h1133q5 0 9 -4.5t3 -10.5l-2 -8q-4 -14 -16 -14h-1133z" />
<glyph unicode="&#x2018;" horiz-adv-x="405" d="M348 1090q0 -23 -18.5 -39.5t-42.5 -16.5q-39 0 -58.5 40t-19.5 97q0 79 39 151.5t108 123.5q17 12 23 0l6 -12q6 -12 -8 -23q-58 -41 -92.5 -104t-34.5 -136q0 -36 10 -59q21 21 45 21q19 0 31 -12t12 -31z" />
<glyph unicode="&#x2019;" horiz-adv-x="401" d="M240 1399q0 23 18.5 39t42.5 16q39 0 58.5 -40t19.5 -97q0 -79 -39 -151.5t-109 -123.5q-17 -11 -22 0l-6 13q-6 12 8 22q58 41 92.5 104t34.5 136q0 36 -10 59q-20 -20 -45 -20q-19 0 -31 12t-12 31z" />
<glyph unicode="&#x201a;" horiz-adv-x="364" d="M47 23q0 23 19 39t43 16q38 0 57.5 -40t19.5 -97q0 -79 -39 -151.5t-108 -123.5q-17 -12 -23 0l-6 12q-6 12 8 23q58 41 92.5 104t34.5 136q0 36 -10 59q-20 -20 -45 -20q-19 0 -31 12t-12 31z" />
<glyph unicode="&#x201c;" horiz-adv-x="733" d="M348 1090q0 -23 -18.5 -39.5t-42.5 -16.5q-39 0 -58.5 40t-19.5 97q0 79 39 151.5t108 123.5q17 12 23 0l6 -12q6 -12 -8 -23q-58 -41 -92.5 -104t-34.5 -136q0 -36 10 -59q21 21 45 21q19 0 31 -12t12 -31zM676 1090q0 -23 -19 -39.5t-43 -16.5q-38 0 -57.5 40t-19.5 97 q0 79 39 151.5t108 123.5q17 12 23 0l6 -12q6 -12 -8 -23q-58 -41 -92.5 -104t-34.5 -136q0 -36 10 -59q21 21 45 21q19 0 31 -12t12 -31z" />
<glyph unicode="&#x201d;" horiz-adv-x="729" d="M240 1399q0 23 18.5 39t42.5 16q39 0 58.5 -40t19.5 -97q0 -79 -39 -151.5t-109 -123.5q-17 -11 -22 0l-6 13q-6 12 8 22q58 41 92.5 104t34.5 136q0 36 -10 59q-20 -20 -45 -20q-19 0 -31 12t-12 31zM567 1399q0 23 19 39t43 16q39 0 58.5 -40t19.5 -97 q0 -79 -39 -151.5t-109 -123.5q-17 -11 -22 0l-7 13q-6 11 9 22q58 41 92.5 104t34.5 136q0 33 -11 59q-20 -20 -45 -20q-19 0 -31 12t-12 31z" />
<glyph unicode="&#x201e;" horiz-adv-x="692" d="M47 23q0 23 19 39t43 16q38 0 57.5 -40t19.5 -97q0 -79 -39 -151.5t-108 -123.5q-17 -12 -23 0l-6 12q-6 12 8 23q58 41 92.5 104t34.5 136q0 36 -10 59q-20 -20 -45 -20q-19 0 -31 12t-12 31zM375 23q0 23 18.5 39t42.5 16q39 0 58.5 -40t19.5 -97q0 -79 -39 -151.5 t-108 -123.5q-17 -12 -23 0l-6 12q-6 12 8 23q58 41 92.5 104t34.5 136q0 36 -10 59q-20 -20 -45 -20q-19 0 -31 12t-12 31z" />
<glyph unicode="&#x2020;" horiz-adv-x="1015" d="M340 -473l176 1255h-395q-6 0 -9.5 4.5t-2.5 10.5l2 8q3 14 14 14h395l86 600q0 6 4.5 10.5t10.5 4.5h10q12 0 12 -15l-84 -600h395q6 0 10 -4t3 -10l-2 -8q-4 -15 -15 -15h-397l-176 -1255q-3 -14 -17 -14h-8q-6 0 -9.5 4t-2.5 10z" />
<glyph unicode="&#x2021;" horiz-adv-x="1073" d="M84 18l2 9q2 10 14 10h340l109 782h-395q-6 0 -9.5 5.5t-1.5 13.5l2 8q3 10 15 10h395l80 563q0 15 18 15h6q13 0 13 -15l-80 -563h397q15 0 12 -14l-2 -8q-4 -15 -16 -15h-395l-111 -782h342q5 0 9 -4t3 -10l-2 -9q-3 -14 -16 -14h-342l-65 -473q-4 -14 -17 -14h-8 q-15 0 -12 14l65 473h-340q-14 0 -10 18z" />
<glyph unicode="&#x2022;" horiz-adv-x="542" d="M250 449q-27 0 -44.5 19t-17.5 46q0 37 25 63.5t59 26.5q29 0 47.5 -19.5t18.5 -49.5q0 -35 -26.5 -60.5t-61.5 -25.5z" />
<glyph unicode="&#x2026;" horiz-adv-x="1060" d="M766 37q0 23 15 38t36 15q18 0 29.5 -11.5t11.5 -29.5q0 -22 -16 -38.5t-39 -16.5q-17 0 -27 12.5t-10 30.5zM410 37q0 23 15 38t36 15q18 0 29.5 -11.5t11.5 -29.5q0 -22 -15.5 -38.5t-37.5 -16.5q-17 0 -28 12.5t-11 30.5zM59 37q0 23 16.5 38t37.5 15q18 0 28.5 -11.5 t10.5 -29.5q0 -22 -15.5 -38.5t-38.5 -16.5q-17 0 -28 12.5t-11 30.5z" />
<glyph unicode="&#x202f;" horiz-adv-x="427" />
<glyph unicode="&#x2030;" horiz-adv-x="1898" d="M420 874q-96 0 -160.5 73.5t-64.5 178.5q0 137 89 232.5t210 95.5q96 0 160.5 -73t64.5 -177q0 -139 -89 -234.5t-210 -95.5zM170 8q-7 7 0 17l963 1405q6 10 14 2l12 -7q11 -5 2 -16l-962 -1405q-7 -11 -15 -6zM422 911q103 0 182.5 85t79.5 202q0 92 -54 155.5 t-138 63.5q-104 0 -182.5 -85t-78.5 -202q0 -93 53 -156t138 -63zM1243 229q0 139 89.5 234.5t211.5 95.5q95 0 160 -73.5t65 -178.5q0 -137 -90 -232t-209 -95q-97 0 -162 72.5t-65 176.5zM639 229q0 139 89.5 234.5t211.5 95.5q95 0 160 -73.5t65 -178.5q0 -137 -90 -232 t-209 -95q-97 0 -162 72.5t-65 176.5zM1280 236q0 -93 53.5 -156.5t136.5 -63.5q104 0 182.5 85t78.5 202q0 93 -53 156t-136 63q-104 0 -183 -84.5t-79 -201.5zM676 236q0 -93 53.5 -156.5t136.5 -63.5q104 0 182 85t78 202q0 93 -52.5 156t-135.5 63q-104 0 -183 -84.5 t-79 -201.5z" />
<glyph unicode="&#x2039;" horiz-adv-x="499" d="M276 127l-174 352q-5 7 2 17l273 348q7 10 18 4l8 -6q11 -9 3 -17l-265 -340l166 -342q4 -11 -6 -16l-8 -4q-13 -7 -17 4z" />
<glyph unicode="&#x203a;" horiz-adv-x="497" d="M76 123l-6 6q-8 8 -2 16l262 344l-166 338q-7 10 6 17l8 4q10 7 17 -4l174 -348q3 -9 -2 -17l-273 -352q-11 -11 -18 -4z" />
<glyph unicode="&#x2044;" horiz-adv-x="286" d="M-305 4q-3 -4 -9.5 -4.5t-9.5 2.5l-8 6q-10 7 -2 19l967 1405q6 9 16 2l10 -9q7 -7 0 -16z" />
<glyph unicode="&#x205f;" horiz-adv-x="534" />
<glyph unicode="&#x2070;" horiz-adv-x="632" d="M375 1012q-86 0 -134 63t-48 176q0 185 77 296.5t197 111.5q87 0 136.5 -65.5t49.5 -180.5q0 -180 -79.5 -290.5t-198.5 -110.5zM381 1049q101 0 168 100.5t67 265.5q0 100 -40 154.5t-115 54.5q-100 0 -167 -102t-67 -269q0 -97 39.5 -150.5t114.5 -53.5z" />
<glyph unicode="&#x2074;" horiz-adv-x="624" d="M498 1032q-6 0 -9.5 4.5t-1.5 10.5l19 124h-354q-9 0 -12 7.5t3 15.5l439 457q9 6 16 2.5t6 -13.5l-61 -434h92q5 0 8 -4t2 -10l-2 -10q-4 -11 -12 -11h-92l-19 -124q-4 -15 -14 -15h-8zM201 1206h309l53 375z" />
<glyph unicode="&#x2075;" horiz-adv-x="579" d="M340 1012q-104 0 -172 80q-7 11 4 22l6 6q6 6 11.5 5.5t7.5 -5.5q51 -71 149 -71q83 0 149 59.5t66 148.5q0 129 -168 129h-157q-6 0 -10 4.5t-3 10.5l31 223q4 14 16 14h295q5 0 8 -4t2 -10l-2 -8q-3 -14 -14 -14h-274l-25 -179h137q99 0 150 -42t51 -119 q0 -107 -73.5 -175.5t-184.5 -74.5z" />
<glyph unicode="&#x2076;" horiz-adv-x="581" d="M369 1012q-87 0 -138 62.5t-51 160.5q0 152 103 269.5t254 172.5q16 5 16 -8v-14q0 -11 -8 -15q-30 -11 -67.5 -31.5t-86 -55t-91 -86.5t-64.5 -111q95 86 196 86q72 0 122 -49.5t50 -130.5q0 -100 -67 -172t-168 -78zM373 1049q77 0 135.5 64t58.5 147q0 66 -39.5 104.5 t-101.5 38.5q-37 0 -71 -11.5t-57 -27.5t-41 -32.5t-26 -27.5l-8 -12q-4 -36 -4 -53q0 -85 40 -137.5t114 -52.5z" />
<glyph unicode="&#x2077;" horiz-adv-x="499" d="M199 1030l-6 4q-10 6 -3 21l349 547h-320q-5 0 -8 4t-2 10l2 8q3 14 14 14h359q9 0 11 -6t-3 -14l-373 -584q-8 -12 -20 -4z" />
<glyph unicode="&#x2078;" horiz-adv-x="604" d="M367 1012q-82 0 -137.5 36.5t-55.5 108.5q0 67 45 118.5t119 70.5q-47 15 -74.5 47t-27.5 75q0 79 54 135t159 56q84 0 130 -42.5t46 -105.5q0 -59 -40 -105t-106 -65q119 -31 119 -135q0 -97 -66 -145.5t-165 -48.5zM414 1368q76 3 123 42t47 99q0 50 -34.5 81.5 t-103.5 31.5q-82 0 -127 -43t-45 -106q0 -46 37.5 -74t102.5 -31zM369 1049q78 0 133 38.5t55 114.5q0 51 -39 82t-112 35q-89 -4 -140 -47t-51 -111q0 -57 43 -84.5t111 -27.5z" />
<glyph unicode="&#x2079;" horiz-adv-x="581" d="M258 993q-16 -5 -16 8v15q0 11 8 14q31 11 66.5 30t83.5 53t89.5 87t63.5 115q-30 -27 -47.5 -40.5t-58 -29.5t-85.5 -16q-72 0 -123 49.5t-51 130.5q0 94 70 172t168 78q86 0 136 -61.5t50 -157.5q0 -19 -4 -51q-10 -72 -44 -136.5t-73.5 -106t-88.5 -76t-82 -50.5 t-62 -27zM369 1268q37 0 70.5 11.5t55.5 27.5t38.5 32t24.5 27l7 12q4 40 4 58q0 83 -37.5 134.5t-109.5 51.5q-77 0 -136 -64t-59 -147q0 -66 40 -104.5t102 -38.5z" />
<glyph unicode="&#x2080;" horiz-adv-x="632" d="M10 -4q20 152 90.5 237.5t178.5 85.5q87 0 136.5 -65t49.5 -180q0 -180 -80 -291t-199 -111q-86 0 -134 63.5t-48 176.5q0 40 6 84zM45 -4q-6 -46 -6 -82q0 -98 40 -151.5t114 -53.5q101 0 168 101t67 266q0 100 -40.5 154.5t-115.5 54.5q-89 0 -148.5 -76.5 t-78.5 -212.5z" />
<glyph unicode="&#x2081;" horiz-adv-x="327" d="M8 174l-8 10q-4 9 6 15l150 108q7 6 13.5 1.5t4.5 -13.5l-82 -588q0 -6 -5 -10t-11 -4h-6q-13 0 -13 14l78 545l-110 -80q-9 -6 -17 2z" />
<glyph unicode="&#x2082;" horiz-adv-x="542" d="M-39 -307q-10 0 -12 10t6 16l272 228q131 105 131 207q0 54 -36.5 91.5t-100.5 37.5q-44 0 -80 -19t-51 -38l-14 -19q-6 -13 -17 -6l-10 8q-8 8 0 18q2 4 6.5 10t20.5 22t35 28t50.5 22t65.5 10q76 0 121 -46.5t45 -116.5t-36.5 -124.5t-106.5 -111.5l-232 -190h301 q5 0 8.5 -4.5t2.5 -10.5l-2 -8q-4 -14 -15 -14h-352z" />
<glyph unicode="&#x2083;" horiz-adv-x="585" d="M152 -328q-110 0 -185 86q-7 10 4 21l6 6q9 9 19 0l7 -8q7 -8 10 -11.5t13 -12t17.5 -13.5t21 -11.5t26.5 -10t31 -6.5t38 -3q42 0 84.5 17t75 54.5t32.5 86.5q0 50 -35 83.5t-98 33.5h-121q-5 0 -8 4t-2 10l2 8q4 14 12 14h121q61 0 108.5 45t47.5 111q0 50 -35 78.5 t-96 28.5q-48 0 -91 -18.5t-62 -36.5l-19 -19q-2 -3 -7 -4t-8 2l-6 6q-10 10 0 20q3 3 8 9t24 21t40.5 26t55.5 20.5t71 9.5q72 0 117 -37t45 -102q0 -55 -32 -105t-85 -71q42 -19 67 -55t25 -80q0 -86 -72.5 -140t-166.5 -57z" />
<glyph unicode="&#x2084;" horiz-adv-x="624" d="M-43 -145l438 456q9 6 16.5 3t6.5 -13l-62 -434h93q5 0 8 -4t2 -10l-2 -11q-3 -10 -13 -10h-92l-18 -125q-4 -14 -15 -14h-8q-13 0 -10 14l18 125h-354q-9 0 -11.5 8t3.5 15zM14 -133h310l53 375z" />
<glyph unicode="&#x2085;" horiz-adv-x="579" d="M152 -328q-104 0 -172 80q-8 11 4 23l6 6q14 13 18 0q52 -72 150 -72q83 0 149 60t66 149q0 129 -168 129h-158q-15 0 -12 14l31 224q4 14 16 14h295q5 0 8 -4t2 -10l-2 -9q-3 -14 -14 -14h-275l-24 -178h137q99 0 150 -42.5t51 -119.5q0 -107 -73.5 -175.5t-184.5 -74.5 z" />
<glyph unicode="&#x2086;" horiz-adv-x="581" d="M182 -328q-87 0 -137.5 63t-50.5 161q0 152 102.5 269.5t253.5 172.5q17 6 17 -8v-15q0 -9 -9 -14q-29 -11 -67 -32t-86.5 -55.5t-91 -86.5t-64.5 -111q95 86 197 86q72 0 122 -49.5t50 -130.5q0 -100 -67.5 -172t-168.5 -78zM186 -291q77 0 136 64t59 147 q0 66 -39.5 104.5t-101.5 38.5q-37 0 -71 -11.5t-57 -27.5t-41 -32t-26 -28l-8 -11q-4 -36 -4 -53q0 -85 39.5 -138t113.5 -53z" />
<glyph unicode="&#x2087;" horiz-adv-x="495" d="M29 262q-5 0 -8.5 4t-2.5 10l2 9q4 14 15 14h358q9 0 11 -6.5t-3 -13.5l-372 -584q-8 -12 -21 -4l-6 4q-9 6 -2 20l348 547h-319z" />
<glyph unicode="&#x2088;" horiz-adv-x="604" d="M-14 -182q0 66 45 115t119 73q-47 15 -75 47.5t-28 75.5q0 78 56 134t157 56q84 0 130 -42t46 -105q0 -59 -40 -105t-105 -65q119 -31 119 -135q0 -97 -66.5 -146t-165.5 -49q-82 0 -137 37t-55 109zM258 283q-67 0 -119.5 -40.5t-52.5 -109.5q0 -46 37 -73.5t102 -30.5 q76 3 123 42t47 99q0 50 -34 81.5t-103 31.5zM217 -20q-47 -3 -87.5 -18.5t-71.5 -52t-31 -87.5q0 -57 42.5 -85t110.5 -28q78 0 133.5 39t55.5 115q0 51 -39.5 82t-112.5 35z" />
<glyph unicode="&#x2089;" horiz-adv-x="581" d="M2 100q14 92 81 155.5t155 63.5q98 0 147.5 -77.5t34.5 -192.5q-10 -72 -44 -136.5t-73.5 -105.5t-88.5 -75.5t-82 -50.5t-62 -27q-17 -6 -17 8v14q0 12 8 15q24 9 50 21.5t65.5 37.5t73 54.5t65.5 74.5t50 96q-30 -27 -47.5 -40.5t-58 -29.5t-85.5 -16q-79 0 -131.5 59 t-40.5 152zM41 100q-10 -77 30.5 -124.5t108.5 -47.5q37 0 70.5 11.5t55.5 27.5t39 32.5t25 28.5l7 11q14 107 -22 175.5t-122 68.5q-69 0 -125 -54t-67 -129z" />
<glyph unicode="&#x20ac;" d="M991 782h-755q-23 -102 -23 -204h670q5 0 9 -3t3 -8l-4 -14q-3 -10 -12 -10h-664q2 -108 28.5 -201t77 -167.5t135 -117.5t195.5 -43q116 0 207.5 40.5t188.5 131.5q8 8 16 0l8 -10q9 -9 -2 -16q-101 -94 -197 -138.5t-221 -44.5q-118 0 -210 45t-148.5 123.5t-85.5 179 t-31 218.5h-113q-13 0 -10 12l2 12q3 11 15 11h106q0 96 23 204h-101q-5 0 -8 4.5t-2 10.5l2 10q3 12 14 12h103q31 130 90 244t140 201.5t187.5 138.5t223.5 51q223 0 379 -170q5 -9 -2 -16l-8 -11q-12 -9 -17 0q-79 84 -159.5 122t-190.5 38q-145 0 -271.5 -82 t-210.5 -215.5t-124 -300.5h753q7 0 10.5 -2t2.5 -8l-4 -16q-3 -11 -15 -11z" />
<glyph unicode="&#x2113;" horiz-adv-x="876" d="M358 -20q-69 0 -113.5 29.5t-63 76t-20 110t10 127t33.5 130.5l12 32q-99 -32 -139 -41q-12 -3 -12 11l-3 16q-3 12 15 16q71 15 153 43l68 215q117 359 226 534t239 175q80 0 121 -68t26 -180q-15 -107 -58.5 -203.5t-105 -171t-142 -138.5t-164 -110t-177.5 -81 l-20 -58q-17 -56 -28.5 -107t-13.5 -111.5t11 -104t51 -72.5t101 -29q55 0 108.5 9.5t89 22t67 28t43.5 24t19 13.5q16 8 19 -2l6 -9q5 -14 -4 -20q-6 -5 -20.5 -14.5t-49 -26t-73.5 -30.5t-96.5 -24.5t-115.5 -10.5zM276 545q109 43 204.5 103t178.5 141t138.5 188 t72.5 229q14 96 -14 151.5t-96 55.5q-114 0 -212.5 -167.5t-209.5 -504.5z" />
<glyph unicode="&#x2117;" horiz-adv-x="1646" d="M168 621q0 167 64.5 322t170.5 266.5t248 178t293 66.5q160 0 291.5 -86.5t206 -233.5t74.5 -321q0 -168 -64.5 -323t-171.5 -266t-249.5 -177.5t-293.5 -66.5q-159 0 -290 86.5t-205 233.5t-74 321zM205 625q0 -167 68.5 -306t192.5 -221t277 -82q140 0 275 63.5 t236.5 169t164 253.5t62.5 307q0 124 -41 236t-112 193.5t-172 130t-216 48.5q-113 0 -222.5 -40t-201 -113.5t-162 -170.5t-110 -218.5t-39.5 -249.5zM684 633l-39 -279q-3 -14 -14 -14h-13q-12 0 -8 14l103 736q3 14 18 14h234q91 0 150 -49t59 -148q0 -113 -77.5 -193.5 t-197.5 -80.5h-215zM688 668h215q103 0 169.5 67.5t66.5 171.5q0 81 -49 121.5t-129 40.5h-216z" />
<glyph unicode="&#x2122;" horiz-adv-x="1521" d="M698 797q-9 4 -6 16l242 633q3 7 9 9.5t10.5 0t4.5 -9.5l89 -576l245 576q3 10 15.5 10t13.5 -10l63 -633q0 -14 -10 -16l-18 -4q-5 -2 -7 5q0 1 -0.5 1.5t-0.5 1.5l-54 553l-245 -570q-5 -10 -15 -10t-12 10l-86 570l-211 -553q-5 -11 -18 -8zM381 797q-5 0 -8 4t-2 10 l82 586h-193q-10 0 -10 14v8q0 6 4.5 10.5t9.5 4.5h414q10 0 10 -15v-8q0 -14 -14 -14h-189l-82 -586q-3 -14 -14 -14h-8z" />
<glyph unicode="&#x2126;" horiz-adv-x="1601" d="M109 14l2 9q3 14 14 14h342q-149 73 -235.5 221t-86.5 338q0 99 26 202t73 198t117 178.5t154 145.5t189.5 98t217.5 36q162 0 293.5 -82t205.5 -225.5t74 -319.5q0 -245 -137.5 -461.5t-368.5 -328.5h340q15 0 12 -14l-2 -9q-3 -14 -14 -14h-438q-13 0 -10 14l2 9 q3 14 12 14q162 49 291.5 168.5t202.5 282.5t73 339q0 167 -68.5 301.5t-192 211.5t-279.5 77q-150 0 -288 -70.5t-235 -184.5t-155 -262.5t-58 -299.5q0 -207 103 -359.5t278 -203.5q5 0 9 -4t3 -10l-2 -9q-3 -14 -14 -14h-438q-15 0 -12 14z" />
<glyph unicode="&#x212e;" horiz-adv-x="1605" d="M270 303q66 -130 192 -208.5t279 -78.5q240 0 455 191q8 8 14 0l9 -12q0 -11 -2 -15q-107 -99 -232.5 -149.5t-247.5 -50.5q-167 0 -298 80t-202 220t-71 316q0 123 36 247t105.5 233t163 194t216.5 134.5t257 49.5q122 0 228.5 -48t181.5 -131t118.5 -199.5t43.5 -248.5 q0 -41 -7 -106v-2l-2 -8q0 -6 -4.5 -10.5t-9.5 -4.5h-1167zM332 733h1028l53 391q-67 135 -191.5 214t-281.5 79q-156 0 -301.5 -77.5t-251.5 -211.5z" />
<glyph unicode="&#x2153;" horiz-adv-x="1226" d="M305 827q-12 0 -12 15l78 544l-111 -79q-8 -6 -16 2l-8 10q-4 8 6 14l149 109q7 6 14 1.5t5 -13.5l-82 -588q0 -6 -5.5 -10.5t-11.5 -4.5h-6zM82 2l-8 6q-10 7 -2 19l966 1405q6 9 17 2l10 -9q7 -7 0 -16l-965 -1405q-3 -4 -9 -4.5t-9 2.5zM803 -20q-110 0 -185 86 q-6 9 5 20l6 6q9 9 18 0l7 -8q7 -8 10 -11.5t13 -12t17.5 -13.5t21 -11.5t26.5 -10t31 -6.5t38 -3q42 0 85 17t75.5 54.5t32.5 86.5q0 50 -35.5 83.5t-98.5 33.5h-120q-5 0 -8.5 4t-2.5 10l2 8q4 15 13 15h120q61 0 108.5 45t47.5 110q0 50 -35 78.5t-96 28.5 q-48 0 -91 -18.5t-62 -37.5l-19 -18q-2 -3 -6.5 -4t-7.5 2l-6 6q-11 10 0 21q3 3 8 9t24 21t40 26t55 20.5t71 9.5q72 0 117 -37.5t45 -102.5q0 -55 -32 -105t-85 -71q42 -19 67 -55t25 -80q0 -86 -72 -139.5t-167 -56.5z" />
<glyph unicode="&#x2154;" horiz-adv-x="1349" d="M209 2l-8 6q-10 7 -2 19l966 1405q6 9 17 2l10 -9q7 -7 0 -16l-965 -1405q-3 -4 -9 -4.5t-9 2.5zM928 -20q-110 0 -185 86q-6 9 5 20l6 6q9 9 18 0l7 -8q7 -8 10 -11.5t13 -12t17.5 -13.5t21 -11.5t26.5 -10t31 -6.5t38 -3q42 0 84.5 17t75 54.5t32.5 86.5q0 50 -35 83.5 t-98 33.5h-121q-5 0 -8 4t-2 10l2 8q4 15 13 15h120q61 0 108.5 45t47.5 110q0 50 -35 78.5t-96 28.5q-48 0 -91 -18.5t-62 -37.5l-19 -18q-2 -3 -6.5 -4t-7.5 2l-7 6q-11 10 0 21q3 3 8 9t24 21t40.5 26t55.5 20.5t71 9.5q72 0 117 -37.5t45 -102.5q0 -55 -32 -105t-85 -71 q42 -19 67 -55t25 -80q0 -86 -72 -139.5t-167 -56.5zM174 827q-10 0 -12 10.5t6 16.5l272 227q131 105 131 207q0 54 -36.5 91.5t-100.5 37.5q-44 0 -80 -19t-50 -38l-15 -19q-7 -13 -17 -6l-10 8q-8 8 0 19q2 4 6.5 10t20.5 22t35 28t50.5 22t65.5 10q76 0 121 -47t45 -117 t-36.5 -123.5t-106.5 -111.5l-232 -191h301q5 0 8.5 -4t2.5 -10l-2 -8q-4 -15 -15 -15h-352z" />
<glyph unicode="&#x215b;" horiz-adv-x="1245" d="M641 152q7 58 51 101t111 60q-47 15 -75 47.5t-28 75.5q0 79 54 135t159 56q84 0 130.5 -42.5t46.5 -105.5q0 -59 -40 -105t-106 -65q119 -31 119 -135q0 -97 -66.5 -145.5t-165.5 -48.5q-82 0 -137 36.5t-55 108.5q0 19 2 27zM911 594q-67 0 -119.5 -42.5t-52.5 -111.5 q0 -46 37.5 -73.5t102.5 -30.5q76 3 123 42t47 99q0 51 -35 84t-103 33zM682 152q-2 -8 -2 -23q0 -57 43.5 -87t110.5 -30q77 0 132.5 40.5t55.5 117.5q0 51 -39.5 82t-112.5 35q-80 -5 -130.5 -41t-57.5 -94zM303 827q-12 0 -12 15l78 544l-111 -79q-8 -6 -16 2l-9 10 q-4 8 7 14l149 109q7 6 14 1.5t5 -13.5l-82 -588q0 -6 -5.5 -10.5t-11.5 -4.5h-6zM74 8q-10 7 -2 19l966 1405q6 9 17 2l10 -9q7 -7 0 -16l-965 -1405q-3 -4 -9 -4.5t-9 2.5z" />
<glyph unicode="&#x215c;" horiz-adv-x="1337" d="M731 152q7 58 51 101t111 60q-47 15 -74.5 47.5t-27.5 75.5q0 79 54 135t159 56q84 0 130 -42.5t46 -105.5q0 -59 -40 -105t-106 -65q119 -31 119 -135q0 -97 -66 -145.5t-165 -48.5q-82 0 -137.5 36.5t-55.5 108.5q0 19 2 27zM1001 590q-67 0 -119.5 -40.5t-52.5 -109.5 q0 -46 37.5 -73.5t102.5 -30.5q76 3 123 42t47 99q0 50 -34.5 81.5t-103.5 31.5zM772 152q-2 -8 -2 -23q0 -57 43 -85t111 -28q78 0 133 39t55 115q0 51 -39 82t-112 35q-80 -5 -131 -41t-58 -94zM182 8q-10 7 -2 19l967 1405q6 9 16 2l11 -9q7 -7 0 -16l-965 -1405 q-3 -4 -9.5 -4.5t-9.5 2.5zM360 807q-109 0 -184 86q-6 10 4 20l6 7q10 10 19 0l7 -8q7 -8 10 -11.5t13 -12t17.5 -13.5t21 -11.5t26.5 -10t31 -6.5t38 -3q42 0 84.5 17t75 54t32.5 86q0 50 -35 83.5t-98 33.5h-121q-5 0 -8 4.5t-2 10.5l2 8q3 14 12 14h121q61 0 108.5 45.5 t47.5 110.5q0 50 -35 78t-96 28q-48 0 -91 -18.5t-62 -36.5l-19 -19q-2 -3 -7 -4t-8 2l-6 7q-10 10 0 20q3 3 8 9t24 21t40.5 26t55.5 20.5t71 9.5q72 0 117 -37t45 -102q0 -55 -32 -105t-85 -71q42 -19 67 -55t25 -80q0 -86 -72.5 -140t-167.5 -57z" />
<glyph unicode="&#x215d;" horiz-adv-x="1329" d="M723 152q7 58 51 101t111 60q-47 15 -75 47.5t-28 75.5q0 79 54 135t159 56q84 0 130 -42.5t46 -105.5q0 -59 -40 -105t-105 -65q119 -31 119 -135q0 -97 -66.5 -145.5t-165.5 -48.5q-82 0 -137 36.5t-55 108.5q0 19 2 27zM993 590q-67 0 -119.5 -40.5t-52.5 -109.5 q0 -46 37.5 -73.5t102.5 -30.5q76 3 122.5 42t46.5 99q0 50 -34 81.5t-103 31.5zM764 152q-2 -8 -2 -23q0 -57 42.5 -85t110.5 -28q78 0 133.5 39t55.5 115q0 51 -39.5 82t-112.5 35q-80 -5 -130.5 -41t-57.5 -94zM174 8q-10 7 -2 19l967 1405q6 9 16 2l10 -9q7 -7 0 -16 l-964 -1405q-3 -4 -9.5 -4.5t-9.5 2.5zM360 807q-104 0 -172 80q-7 10 5 22l6 6q13 13 18 0q51 -71 150 -71q83 0 149 60t66 149q0 129 -168 129h-158q-6 0 -9.5 4t-2.5 10l30 223q4 15 17 15h295q5 0 8 -4.5t2 -10.5l-2 -8q-4 -14 -14 -14h-275l-24 -178h137q98 0 149 -42 t51 -120q0 -107 -73.5 -175.5t-184.5 -74.5z" />
<glyph unicode="&#x215e;" d="M621 152q7 58 50.5 101t110.5 60q-47 15 -74.5 47.5t-27.5 75.5q0 79 54 135t159 56q84 0 130 -42.5t46 -105.5q0 -59 -40 -105t-105 -65q58 -15 88 -50t30 -85q0 -97 -66 -145.5t-165 -48.5q-82 0 -137.5 36.5t-55.5 108.5q0 15 3 27zM891 594q-67 0 -119.5 -42.5 t-52.5 -111.5q0 -46 37 -73.5t102 -30.5q76 3 123 42t47 99q0 51 -34.5 84t-102.5 33zM662 152q-3 -12 -3 -23q0 -57 43.5 -87t110.5 -30q77 0 132.5 40.5t55.5 117.5q0 51 -39 82t-112 35q-80 -5 -130.5 -41t-57.5 -94zM76 8q-10 7 -2 19l966 1405q6 9 17 2l10 -9 q7 -7 0 -16l-965 -1405q-3 -4 -9 -4.5t-9 2.5zM238 825l-7 4q-10 6 -2 21l349 547h-320q-5 0 -8 4t-2 10l2 8q4 15 14 15h359q9 0 11 -7t-3 -14l-373 -584q-8 -12 -20 -4z" />
<glyph unicode="&#x2202;" horiz-adv-x="1146" d="M98 395q0 99 35.5 195.5t97.5 173t155 123.5t198 47q76 0 142 -25t112 -66.5t75 -79t50 -77.5q4 103 -14.5 197.5t-50 165t-77.5 133t-91 105t-95.5 78.5t-86 54.5t-67.5 32.5q-11 7 -4 16l6 13q5 11 19 6q31 -13 66.5 -33t86 -56.5t96 -80t92.5 -106.5t81 -133 t55.5 -162.5t21.5 -192.5q0 -97 -19 -197t-62 -199t-104.5 -175.5t-154 -124t-202.5 -47.5q-152 0 -256.5 119t-104.5 296zM578 897q-126 -3 -229 -73.5t-159.5 -185t-56.5 -245.5q0 -161 95 -269t237 -108q129 0 234 76t169 202.5t86 287.5l4 30q0 1 -2 5q-6 15 -12 28.5 t-23.5 44t-36 55t-50.5 54.5t-67.5 50t-84.5 34t-104 14z" />
<glyph unicode="&#x2206;" horiz-adv-x="1290" d="M25 0h-8.5t-7.5 2t-6 5.5t0 11.5t7 20l758 1429q4 9 10 9h4q4 0 9 -9l346 -1433q10 -35 -27 -35h-1085zM49 37h1047l-324 1360z" />
<glyph unicode="&#x220f;" horiz-adv-x="1464" d="M164 14l198 1405q0 6 5.5 10.5t11.5 4.5h946q12 0 12 -15l-198 -1405q0 -6 -5.5 -10t-11.5 -4h-6q-6 0 -9.5 4t-2.5 10l194 1383h-905l-194 -1383q0 -6 -5.5 -10t-11.5 -4h-6q-6 0 -9.5 4t-2.5 10z" />
<glyph unicode="&#x2211;" horiz-adv-x="1034" d="M45 0q-13 0 -14.5 16t8.5 23l745 713l-555 647q-8 9 -1.5 22t20.5 13h749q6 0 10 -4.5t3 -10.5l-2 -8q-4 -14 -17 -14h-708l532 -627q12 -12 10 -20l-2 -11q-1 -5 -14 -18l-723 -684h715q15 0 12 -14l-2 -9q-3 -14 -16 -14h-750z" />
<glyph unicode="&#x2212;" d="M266 696q-5 0 -8 4.5t-2 10.5l2 8q4 14 14 14h719q5 0 8 -4t2 -10l-2 -8q-4 -15 -14 -15h-719z" />
<glyph unicode="&#x2215;" horiz-adv-x="286" d="M-305 4q-3 -4 -9.5 -4.5t-9.5 2.5l-8 6q-10 7 -2 19l967 1405q6 9 16 2l10 -9q7 -7 0 -16z" />
<glyph unicode="&#x2219;" horiz-adv-x="409" d="M190 487q-17 0 -27.5 12.5t-10.5 30.5q0 23 16 38.5t37 15.5q18 0 28.5 -11.5t10.5 -29.5q0 -22 -15.5 -39t-38.5 -17z" />
<glyph unicode="&#x221a;" horiz-adv-x="1241" d="M326 -33l-203 840q-3 11 6 14l12 4q10 3 13 -10l188 -782l737 1384q7 17 23 17h207q6 0 9.5 -4.5t2.5 -10.5l-2 -8q-3 -14 -14 -14h-199l-758 -1430q-6 -9 -13 -9t-9 9z" />
<glyph unicode="&#x221e;" horiz-adv-x="1343" d="M391 322q-97 0 -160 72.5t-63 176.5q0 138 91.5 234t213.5 96q76 0 134 -51t79 -131q38 83 112 132.5t160 49.5q94 0 158 -73.5t64 -178.5q0 -137 -91.5 -232t-211.5 -95q-80 0 -138 50t-77 130q-40 -82 -114 -131t-157 -49zM690 578q0 -92 54 -156t137 -64q104 0 182 85 t78 202q0 93 -53 156t-136 63q-112 0 -187 -90t-75 -196zM395 358q104 0 182 85t78 202q0 93 -52.5 156t-135.5 63q-104 0 -183 -84.5t-79 -201.5q0 -93 53.5 -156.5t136.5 -63.5z" />
<glyph unicode="&#x222b;" horiz-adv-x="1024" d="M391 -147l172 1241q25 179 112.5 269.5t215.5 90.5q125 0 199 -88q8 -12 0 -18l-11 -9q-9 -9 -18 0q-64 78 -174 78q-113 0 -189 -81t-100 -242l-172 -1241q-26 -179 -111.5 -270t-212.5 -91q-69 0 -120 27t-78 61q-8 11 0 19l10 10q8 8 18 -2q59 -78 174 -78 q112 0 186.5 81t98.5 243z" />
<glyph unicode="&#x2248;" d="M309 707l-10 6q-9 5 -2 14q4 7 10.5 18t28.5 39t46 50t61 39.5t75 17.5q77 0 139 -103q24 -42 50.5 -67t64.5 -25q32 0 63.5 15t53.5 36.5t39.5 43t25.5 36.5l9 15q5 10 12 6l10 -8q11 -7 4 -17q-3 -6 -9.5 -17t-28 -38.5t-45 -48.5t-61 -38t-75.5 -17q-80 0 -139 102 q-16 27 -27 42.5t-35.5 31.5t-52.5 16q-50 0 -98 -36t-71 -72l-23 -35q-7 -14 -15 -6zM262 367l-10 6q-9 5 -2 14q4 7 10.5 18t28.5 39t46 50t61 39.5t75 17.5q78 0 139 -102q16 -27 29 -44.5t36 -33t50 -15.5q32 0 63.5 15t53.5 36.5t39 43t25 36.5l9 15q5 10 13 6l10 -8 q11 -7 4 -17q-3 -6 -9.5 -17t-28 -38.5t-45 -48.5t-61 -38t-75.5 -17q-80 0 -139 102q-16 27 -27 42.5t-35.5 31.5t-52.5 16q-32 0 -63.5 -14.5t-53.5 -35.5t-40 -42.5t-27 -35.5l-9 -15q-7 -13 -14 -6z" />
<glyph unicode="&#x2260;" d="M358 164l-10 6q-15 7 -4 18l113 172h-183q-6 0 -9.5 4.5t-2.5 10.5l2 8q4 14 15 14h202l254 385h-401q-6 0 -9.5 4.5t-2.5 10.5l2 8q4 14 14 14h420l88 135q5 9 20 4l8 -4q16 -8 7 -20l-78 -115h143q6 0 11 -4t4 -10l-3 -8q-4 -15 -16 -15h-164l-254 -385h363 q6 0 10.5 -4t3.5 -10l-2 -8q-4 -15 -16 -15h-383l-125 -190q-6 -10 -17 -6z" />
<glyph unicode="&#x2264;" d="M272 805q-7 5 -6.5 12t8.5 12l768 420q13 6 17 -6l4 -10q5 -14 -6 -19l-738 -399l625 -383q10 -5 2 -18l-6 -11q-5 -10 -16 -4zM193 174q-5 0 -8.5 4t-2.5 10l2 9q4 14 15 14h716q6 0 10 -4t3 -10l-2 -9q-4 -14 -17 -14h-716z" />
<glyph unicode="&#x2265;" d="M264 399q-10 -5 -16 7l-4 10q-4 13 6 18l735 385l-623 400q-10 5 -2 18l5 6q7 13 18 6l649 -420q7 -5 6.5 -12t-8.5 -12zM213 174q-15 0 -12 14l2 9q3 14 16 14h717q5 0 8 -4t2 -10l-2 -9q-4 -14 -14 -14h-717z" />
<glyph unicode="&#x25ca;" horiz-adv-x="1095" d="M457 -12l-301 686q-14 33 -12.5 44.5t24.5 43.5l496 688q4 8 10 8h4q5 0 8 -8l295 -684q17 -35 15.5 -47t-29.5 -47l-488 -684q-4 -8 -10 -8h-4q-4 0 -8 8zM475 53l479 668l-284 670l-488 -676z" />
<glyph unicode="&#x25fc;" horiz-adv-x="962" d="M0 963h963v-963h-963v963z" />
<glyph unicode="&#xf6c3;" horiz-adv-x="538" d="M303 -227q0 23 17 40t42 17q70 0 70 -98q0 -60 -25 -117.5t-73 -93.5q-14 -11 -19 0l-8 12q-9 13 8 23q74 55 74 159q0 15 -4 29q-12 -12 -39 -12q-19 0 -31 12t-12 29z" />
<glyph unicode="&#xf8ff;" horiz-adv-x="1226" d="M102 61v1311q0 62 62 62h899q32 0 46.5 -15t14.5 -47v-1311q0 -32 -14.5 -46.5t-46.5 -14.5h-899q-32 0 -47 14.5t-15 46.5zM537 643q0 -10 8.5 -17.5t19.5 -7.5h74q31 0 31 27v53q0 23 16 44.5t40 39t51.5 40.5t51.5 46.5t40 59.5t16 78q0 99 -73 163t-183 64 q-50 0 -96 -13t-75.5 -31.5t-52.5 -36.5t-33 -31l-10 -13q-16 -24 0 -37l46 -45q17 -11 34 0q1 1 15 14.5t20.5 19t23.5 17.5t31.5 17.5t36.5 10.5t45 5q59 0 92 -31t33 -75q0 -35 -21 -65t-50.5 -53t-59 -47.5t-50.5 -59.5t-21 -77v-59zM502 319q0 -40 29 -69t69 -29 q41 0 70.5 29t29.5 69t-29.5 69.5t-70.5 29.5q-40 0 -69 -29.5t-29 -69.5z" />
<glyph unicode="&#xfb00;" horiz-adv-x="1320" d="M74 -469l192 1378h-129q-8 0 -11.5 3.5t-2.5 9.5l2 12q2 12 18 12h129l11 68q17 112 57.5 195t97.5 131t122.5 71t141.5 23q94 0 170.5 -33t108.5 -70q47 63 104.5 93t141.5 30q81 0 138 -28.5t89 -67.5q9 -14 -2 -25l-4 -4q-12 -11 -23 0q-85 90 -198 90 q-116 0 -190 -75.5t-101 -262.5l-18 -135h382q7 0 12.5 -3.5t4.5 -10.5l-2 -10q-3 -13 -15 -13h-389l-190 -1378q-4 -18 -16 -18h-11q-6 0 -9.5 5.5t-2.5 12.5l192 1378h-571l-192 -1378q-4 -18 -15 -18h-10q-6 0 -9.5 5.5t-2.5 12.5zM309 946h572l18 135q16 121 62 215 q-29 43 -102.5 72t-156.5 29q-69 0 -129 -21t-112.5 -64.5t-89 -119.5t-52.5 -178z" />
<glyph unicode="&#xfb03;" horiz-adv-x="1677" d="M702 -487h-8q-6 0 -9.5 5.5t-2.5 12.5l192 1378h-571l-192 -1378q-4 -18 -15 -18h-10q-6 0 -9.5 5.5t-2.5 12.5l192 1378h-129q-8 0 -11.5 3.5t-2.5 9.5l2 12q2 12 18 12h129l11 68q65 420 422 420q108 0 187 -34t112 -73q102 127 278 127q109 0 178 -42t105 -93 q9 -12 -2 -21l-9 -6q-11 -7 -18 2q-13 18 -31.5 36t-49.5 39.5t-76 34.5t-97 13q-138 0 -229 -90.5t-119 -271.5l-16 -109h614q14 0 14 -16l-129 -914q-3 -16 -14 -16h-12q-5 0 -9.5 4.5t-1.5 11.5l125 893h-594l-192 -1378q-4 -18 -17 -18zM309 946h572l16 111 q24 148 82 237q-92 103 -274 103q-327 0 -386 -383z" />
<glyph unicode="&#xfb04;" horiz-adv-x="1730" d="M1288 1454q102 0 185.5 -40.5t125.5 -88.5l13 92q3 17 16 17h10q14 0 11 -17l-199 -1401q-3 -16 -14 -16h-11q-13 0 -10 16l176 1264q-42 49 -119.5 93t-183.5 44q-139 0 -233.5 -91.5t-118.5 -264.5l-18 -115h401q17 0 14 -14l-2 -8q-4 -15 -18 -15h-402l-190 -1378 q-4 -18 -19 -18h-8q-6 0 -9.5 5.5t-2.5 12.5l192 1378h-571l-192 -1378q-4 -18 -15 -18h-10q-6 0 -9.5 5.5t-2.5 12.5l192 1378h-129q-8 0 -11.5 3.5t-2.5 9.5l2 12q2 12 18 12h129l11 68q15 111 55.5 194.5t98.5 131.5t125 71t143 23q105 0 179.5 -37t112.5 -80 q49 66 126 101.5t165 35.5zM309 946h572l18 115q20 131 74 223q-34 44 -106 78.5t-162 34.5q-70 0 -131 -21t-114.5 -64.5t-90.5 -119.5t-50 -178z" />
<glyph horiz-adv-x="557" d="M520 1595l-309 185q-10 7 -2 18l4 6q6 10 18 6l308 -186q9 -6 4 -14l-4 -8q-8 -12 -19 -7z" />
<glyph horiz-adv-x="557" d="M195 1591q-12 -5 -17 6l-6 13q-4 8 8 14l361 186q10 3 16 -6l6 -10q6 -11 -8 -18z" />
<glyph horiz-adv-x="688" d="M170 1563q-8 -5 -14 2l-6 10q-2 11 -1.5 12t13.5 12l260 209q10 6 16 0l207 -217q9 -9 2 -16l-8 -8q-7 -7 -14 -2l-197 207z" />
<glyph horiz-adv-x="688" d="M391 1579l-207 217q-9 9 -2 16l8 9q8 8 15 2l196 -207l258 209q8 5 15 -2l6 -11q2 -11 1.5 -12t-13.5 -12l-260 -209q-10 -7 -17 0z" />
<glyph horiz-adv-x="688" d="M350 1401q0 23 17.5 40t42.5 17q69 0 69 -98q0 -60 -25 -117.5t-73 -93.5q-14 -11 -19 0l-8 12q-9 13 8 23q74 55 74 159q0 15 -4 29q-12 -12 -39 -12q-19 0 -31 12t-12 29z" />
<glyph horiz-adv-x="700" d="M166 1642l-14 5q-13 3 -7 18q9 23 21 45t35.5 54.5t57 52.5t71.5 20q40 0 64 -23t33.5 -55.5t18 -64.5t27 -55t49.5 -23q87 0 144 147q6 16 14 13l14 -4q15 -4 6 -19q-74 -172 -182 -172q-39 0 -63 23t-34.5 55.5t-19.5 64.5t-27 55t-48 23q-28 0 -54.5 -18t-45 -45.5 t-29 -48t-17.5 -37.5q-6 -15 -14 -11z" />
<glyph horiz-adv-x="874" d="M698 1655q-18 0 -28.5 10.5t-10.5 28.5q0 24 15.5 38.5t36.5 14.5q37 0 37 -41q0 -22 -15 -36.5t-35 -14.5zM315 1655q-18 0 -28.5 10.5t-10.5 28.5q0 24 16 38.5t36 14.5q39 0 39 -41q0 -22 -15.5 -36.5t-36.5 -14.5z" />
<glyph horiz-adv-x="763" d="M195 1724q-7 0 -11 4.5t-2 10.5l2 8q4 14 17 14h528q15 0 12 -14l-2 -8q-4 -15 -14 -15h-530z" />
<glyph horiz-adv-x="636" d="M379 1597q-91 0 -147 63t-56 157q0 16 10 16h13q10 0 10 -12q-1 -83 47.5 -135t126.5 -52q75 0 137.5 52t87.5 135q3 12 13 12h16q12 0 8 -16q-28 -94 -102 -157t-164 -63z" />
<glyph horiz-adv-x="534" d="M322 1536q-73 0 -119.5 52.5t-46.5 129.5q0 100 67.5 172t157.5 72q71 0 117.5 -53t46.5 -131q0 -100 -67 -171t-156 -71zM326 1571q72 0 128 59.5t56 141.5q0 66 -36 110.5t-97 44.5q-73 0 -128.5 -60t-55.5 -141q0 -68 34 -111.5t99 -43.5z" />
<glyph horiz-adv-x="722" d="M463 1550l-10 6q-8 8 0 19l245 354q8 10 17 4l10 -6q11 -7 2 -18l-246 -355q-10 -10 -18 -4zM158 1550l-11 6q-10 6 -2 19l246 354q7 10 19 4l10 -6q9 -6 2 -18l-248 -355q-7 -10 -16 -4z" />
<glyph horiz-adv-x="403" d="M272 1677q-19 0 -30 12.5t-11 30.5q0 22 17 39t39 17q18 0 28.5 -12.5t10.5 -30.5q0 -22 -15.5 -39t-38.5 -17z" />
<glyph horiz-adv-x="505" d="M291 6h45l-125 -162q33 11 61 11q64 0 110 -36t46 -106q0 -84 -58 -139t-147 -55q-101 0 -155 69q-10 10 2 21l8 8q10 10 18 -2q46 -59 125 -59q67 0 117.5 42.5t50.5 112.5q0 53 -33 80t-88 27q-51 0 -100 -19q-8 -4 -13.5 6.5t-0.5 16.5z" />
<glyph horiz-adv-x="565" d="M397 2q-47 -23 -81.5 -41.5t-80 -50.5t-74 -63.5t-49 -76.5t-20.5 -94q0 -55 32.5 -91t92.5 -36q44 0 85.5 17.5t57.5 30.5q11 7 19 -3l8 -12q5 -10 -12 -20q-84 -49 -160 -49q-78 0 -119 45t-41 116q0 50 19 96t48.5 81.5t74.5 70.5t87 60t97 53z" />
<glyph horiz-adv-x="538" d="M360 1237q0 -23 -17 -40t-42 -17q-70 0 -70 98q0 59 25 117t74 94q13 10 18 0l8 -12q9 -13 -8 -23q-74 -55 -74 -160q0 -10 5 -28q12 12 38 12q19 0 31 -12t12 -29z" />
<glyph horiz-adv-x="538" d="M303 -227q0 23 17 40t42 17q70 0 70 -98q0 -60 -25 -117.5t-73 -93.5q-14 -11 -19 0l-8 12q-9 13 8 23q74 55 74 159q0 15 -4 29q-12 -12 -39 -12q-19 0 -31 12t-12 29z" />
<glyph horiz-adv-x="417" d="M252 932q-14 0 -10 14l102 740q4 14 16 14h9q5 0 8 -4t2 -10l-105 -740q0 -14 -14 -14h-8zM168 414q0 4 4.5 8t9.5 4h8q13 0 13 -12l-105 -740q0 -6 -4.5 -10t-9.5 -4h-8q-13 0 -13 14z" />
<glyph d="M530 -23q-206 0 -309.5 136t-103.5 391q0 85 9 172.5t31 181.5t54.5 179t82.5 162t112 133t147 89t184 33q204 0 308 -135t104 -387q0 -278 -78 -496t-219.5 -338.5t-321.5 -120.5zM535 14q122 0 228.5 67t183.5 185.5t121 290.5t44 373q0 236 -95.5 361.5t-283.5 125.5 q-91 0 -169.5 -31.5t-136.5 -85t-105 -127.5t-77.5 -155.5t-51.5 -172t-30 -175t-9 -166.5q0 -237 96 -363.5t285 -126.5z" />
<glyph d="M586 39l190 1339l-459 -319q-10 -7 -16 2l-8 16q-4 9 6 17l500 346q9 6 16.5 1t5.5 -14l-196 -1388h413q8 0 11 -3t2 -9l-2 -15q-3 -12 -15 -12h-917q-6 0 -9 4t-2 10l3 11q3 14 12 14h465z" />
<glyph d="M145 39h797q14 0 10 -14l-2 -11q-4 -14 -16 -14h-858q-10 0 -13 9.5t5 15.5l682 561q57 47 96.5 84t85.5 88.5t73.5 99.5t46.5 108.5t19 123.5q0 140 -97 233.5t-274 93.5q-62 0 -119.5 -16.5t-96.5 -39.5t-73 -53t-50.5 -50.5t-28.5 -38.5q-6 -12 -17 -7l-14 11 q-12 8 -2 20q19 26 40.5 50t59.5 55t79.5 53t100 37.5t121.5 15.5q98 0 177 -29t128.5 -79t76 -115t26.5 -139q0 -85 -26 -161t-79 -144t-103 -116.5t-128 -113.5z" />
<glyph d="M664 723h-281q-15 0 -12 16l2 9q3 14 16 14h281q156 0 270.5 110.5t114.5 266.5q0 125 -87.5 201.5t-236.5 76.5q-81 0 -152 -19t-121 -51t-78.5 -56t-51.5 -50q-9 -12 -21 -4l-12 10q-9 6 -2 17q182 190 438 190q164 0 263.5 -87t99.5 -230q0 -135 -88 -244.5 t-224 -149.5q114 -30 182 -115.5t68 -191.5t-44 -194t-118.5 -144.5t-169 -87t-198.5 -30.5q-263 0 -406 186q-10 13 0 20l10 9q10 8 21 -7q19 -25 43.5 -48.5t70 -54.5t113.5 -50t148 -19q73 0 144 17t134 52t111 84t76 117.5t28 147.5q0 120 -90 204.5t-241 84.5z" />
<glyph d="M862 336h-809q-9 0 -11 7t5 15l985 1102q6 8 15 5t8 -13l-154 -1081h170q6 0 10.5 -3.5t3.5 -9.5l-2 -8q-3 -14 -16 -14h-170l-45 -322q-4 -14 -16 -14h-7q-15 0 -12 14zM109 371h757l144 1013z" />
<glyph d="M291 901h348q217 0 329.5 -90.5t112.5 -263.5q0 -154 -71 -284t-199.5 -206.5t-286.5 -76.5q-84 0 -154.5 18t-117 48t-75 57t-48.5 57q-7 13 2 20l12 8q11 8 19 -4q113 -168 360 -168q146 0 266 72t187 193.5t67 265.5q0 157 -103.5 237t-305.5 80h-373q-12 0 -12 17 l76 538q4 15 16 15h688q15 0 12 -13l-2 -10q-3 -12 -14 -12h-664z" />
<glyph d="M147 457q0 171 65 334t177 293.5t259 231.5t315 161q11 3 14 -7l4 -14q3 -13 -10 -16q-57 -18 -128 -50.5t-169.5 -98t-184 -146t-162.5 -202t-114 -257.5q220 248 487 248q172 0 286 -109t114 -286q0 -143 -71 -272t-195 -208t-269 -79q-206 0 -312 131t-106 346z M197 612q-15 -86 -15 -153q0 -199 98 -321t283 -122q99 0 191 42.5t159.5 113t108.5 167.5t41 200q0 162 -103.5 260t-259.5 98q-61 0 -120 -14.5t-103 -33t-89.5 -50.5t-71 -53.5t-56.5 -56t-37.5 -43.5t-21.5 -29l-3 -3t-1 -2z" />
<glyph d="M1139 1399h-865q-14 0 -10 14l2 10q3 11 17 11h897q9 0 12 -6.5t0 -12.5l-821 -1413q-8 -13 -19 -8l-12 6q-11 6 -4 18z" />
<glyph d="M543 731q-137 28 -217 108t-80 197q0 75 30 147t86.5 133.5t151.5 99.5t213 38q99 0 176 -26.5t123 -73t69 -104.5t23 -124q0 -154 -106.5 -257t-286.5 -138q154 -29 244 -112t90 -211q0 -103 -44.5 -186.5t-119 -135t-168 -79t-195.5 -27.5q-124 0 -217.5 32.5 t-151 107.5t-57.5 187q0 86 34.5 159t95.5 124.5t138.5 87t168.5 53.5zM637 758q124 6 224 50.5t160 127.5t60 190q0 125 -88.5 209t-265.5 84q-108 0 -195 -34.5t-140 -91t-81 -123.5t-28 -136q0 -122 98 -195t256 -81zM631 709q-86 -7 -169 -35.5t-155.5 -76.5 t-117 -123.5t-44.5 -166.5q0 -145 107.5 -220t277.5 -75q74 0 144 15t133 46.5t110 77t75 112t28 145.5q0 125 -104 207t-285 94z" />
<glyph d="M1118 977q0 -171 -64.5 -333.5t-176.5 -292.5t-259 -231t-315 -161q-11 -4 -14 6l-4 15q-3 13 10 16q38 12 85 31.5t111.5 55t127.5 78.5t131 104.5t124.5 131t104 161t74.5 190.5q-220 -248 -488 -248q-172 0 -285.5 109t-113.5 286q0 107 42 209t113 179t170.5 124 t208.5 47q206 0 312 -131t106 -346zM1069 821q14 80 14 154q0 199 -98 320.5t-283 121.5q-132 0 -247 -71.5t-183.5 -192t-68.5 -258.5q0 -162 103 -260t259 -98q84 0 163.5 26t133 60.5t100.5 78t69 70t35 44.5q1 2 2 3t1 2z" />
<glyph horiz-adv-x="708" d="M268 -20q-86 0 -134 63t-48 176q0 185 77 296.5t197 111.5q87 0 137 -65.5t50 -180.5q0 -180 -80 -290.5t-199 -110.5zM274 16q101 0 168.5 101t67.5 266q0 100 -40.5 154.5t-115.5 54.5q-100 0 -166.5 -102t-66.5 -269q0 -98 39.5 -151.5t113.5 -53.5z" />
<glyph horiz-adv-x="419" d="M143 14l78 545l-110 -80q-9 -6 -17 2l-8 11q-4 8 6 14l150 108q7 6 13.5 1.5t4.5 -13.5l-82 -588q0 -6 -5 -10t-11 -4h-6q-13 0 -13 14z" />
<glyph horiz-adv-x="632" d="M53 0q-10 0 -12 10.5t6 16.5l272 227q132 106 132 207q0 54 -36.5 91.5t-101.5 37.5q-44 0 -80 -19t-51 -38l-14 -19q-6 -12 -16 -6l-11 8q-8 8 0 19q2 4 6.5 10t20.5 22t35 28t50.5 22t65.5 10q76 0 121 -47t45 -117t-36.5 -124.5t-106.5 -111.5l-231 -190h301q5 0 8 -4 t2 -10l-2 -9q-4 -14 -14 -14h-353z" />
<glyph horiz-adv-x="677" d="M248 -20q-110 0 -185 86q-6 9 5 20l6 6q9 9 18 0l7 -8q7 -8 10 -11.5t13 -12t17.5 -13.5t21 -11.5t26.5 -10t31 -6.5t38 -3q42 0 85 17t75.5 54.5t32.5 86.5q0 50 -35.5 83.5t-98.5 33.5h-120q-5 0 -8.5 4t-2.5 10l2 8q4 15 13 15h120q61 0 108.5 45t47.5 110 q0 50 -35 78.5t-96 28.5q-48 0 -91 -18.5t-62 -37.5l-19 -18q-2 -3 -6.5 -4t-7.5 2l-6 6q-10 10 0 21q3 3 8 9t24 21t40 26t55 20.5t71 9.5q72 0 117 -37.5t45 -102.5q0 -55 -32 -105t-85 -71q42 -19 67 -55t25 -80q0 -86 -72 -139.5t-167 -56.5z" />
<glyph horiz-adv-x="688" d="M33 139q-9 0 -11.5 7.5t3.5 15.5l438 456q9 6 16 3t6 -13l-61 -434h92q5 0 8 -4t2 -10l-2 -10q-4 -11 -12 -11h-92l-19 -125q-3 -14 -14 -14h-8q-13 0 -10 14l18 125h-354zM82 174h309l53 375z" />
<glyph horiz-adv-x="684" d="M250 -20q-105 0 -172 79q-8 11 4 23l6 6q6 6 11 5.5t7 -5.5q52 -72 150 -72q83 0 149 60t66 149q0 129 -168 129h-158q-6 0 -9.5 4.5t-2.5 10.5l31 223q4 14 16 14h295q5 0 8 -4t2 -10l-2 -8q-4 -15 -14 -15h-274l-25 -178h137q99 0 150 -42.5t51 -119.5 q0 -106 -73.5 -174.5t-184.5 -74.5z" />
<glyph horiz-adv-x="692" d="M276 -20q-87 0 -137.5 62.5t-50.5 160.5q0 152 102.5 269.5t253.5 172.5q17 6 17 -8v-14q0 -11 -8 -15q-30 -11 -67.5 -31.5t-86 -55t-91.5 -86.5t-65 -111q95 86 197 86q71 0 121.5 -50t50.5 -131q0 -100 -67.5 -171.5t-168.5 -77.5zM281 16q77 0 135.5 64t58.5 147 q0 66 -40 105t-101 39q-37 0 -71 -11.5t-57 -27.5t-41 -32.5t-26 -27.5l-8 -12q-4 -36 -4 -53q0 -85 40 -138t114 -53z" />
<glyph horiz-adv-x="614" d="M109 23l348 546h-320q-5 0 -8 4.5t-2 10.5l2 8q3 14 14 14h359q9 0 11 -6t-3 -14l-373 -584q-8 -12 -20 -4l-6 4q-10 6 -2 21z" />
<glyph horiz-adv-x="686" d="M72 125q0 66 45 115t119 73q-47 15 -75 47.5t-28 75.5q0 79 54 135t159 56q84 0 130 -42.5t46 -105.5q0 -59 -40 -105t-105 -65q119 -31 119 -135q0 -97 -66.5 -145.5t-165.5 -48.5q-82 0 -137 36.5t-55 108.5zM311 336q76 3 123 42t47 99q0 50 -34 81.5t-103 31.5 q-82 0 -127 -43.5t-45 -106.5q0 -46 37 -73.5t102 -30.5zM303 287q-47 -3 -87.5 -18.5t-71.5 -52t-31 -87.5q0 -57 42.5 -85t110.5 -28q78 0 133.5 39t55.5 115q0 51 -39.5 82t-112.5 35z" />
<glyph horiz-adv-x="659" d="M139 -16q0 11 8 14q31 11 66.5 30t84 53t90 87t63.5 115q-30 -27 -47.5 -40.5t-58 -29.5t-85.5 -16q-79 0 -131.5 59t-40.5 152q14 92 81 155.5t155 63.5q98 0 147.5 -78t34.5 -193q-10 -72 -44 -136.5t-73.5 -105.5t-88.5 -75.5t-82 -50.5t-62 -27q-17 -6 -17 8v15z M266 236q37 0 70.5 11.5t55.5 27.5t39 32t25 27l7 12q14 107 -22 175.5t-122 68.5q-69 0 -125 -53.5t-67 -128.5q-10 -77 30.5 -124.5t108.5 -47.5z" />
<glyph horiz-adv-x="632" d="M346 807q-86 0 -134 63.5t-48 176.5q0 185 77 296t197 111q87 0 137 -65.5t50 -180.5q0 -180 -80 -290.5t-199 -110.5zM352 844q101 0 168.5 100.5t67.5 265.5q0 100 -40.5 154.5t-115.5 54.5q-100 0 -166.5 -101.5t-66.5 -268.5q0 -98 39.5 -151.5t113.5 -53.5z" />
<glyph horiz-adv-x="329" d="M229 827q-12 0 -12 15l78 544l-111 -79q-8 -6 -16 2l-8 10q-4 8 6 14l149 109q7 6 14 1.5t5 -13.5l-82 -588q0 -6 -5 -10.5t-11 -4.5h-7z" />
<glyph horiz-adv-x="546" d="M123 827q-10 0 -12 10.5t6 16.5l272 227q131 105 131 207q0 54 -36.5 91.5t-100.5 37.5q-44 0 -80 -19t-51 -38l-14 -19q-7 -13 -17 -6l-10 8q-8 8 0 19q2 4 6.5 10t20.5 22t35 28t50.5 22t65.5 10q76 0 121 -47t45 -117t-36.5 -123.5t-106.5 -111.5l-232 -191h301 q5 0 8.5 -4t2.5 -10l-3 -8q-4 -15 -14 -15h-352z" />
<glyph horiz-adv-x="585" d="M313 807q-109 0 -184 86q-6 10 4 20l6 7q9 10 19 0l7 -8q7 -8 10 -11.5t13 -12t17.5 -13.5t21 -11.5t26.5 -10t31 -6.5t38 -3q42 0 84.5 17t75 54t32.5 86q0 50 -35 83.5t-98 33.5h-121q-5 0 -8 4.5t-2 10.5l2 8q4 14 12 14h121q61 0 108.5 45.5t47.5 110.5q0 50 -35 78 t-96 28q-48 0 -91 -18.5t-62 -36.5l-19 -19q-2 -3 -7 -4t-8 2l-6 7q-10 10 0 20q3 3 8 9t24 21t40.5 26t55.5 20.5t71 9.5q72 0 117 -37t45 -102q0 -55 -32 -105t-85 -71q42 -19 67 -55t25 -80q0 -86 -72.5 -140t-167.5 -57z" />
<glyph horiz-adv-x="624" d="M123 967q-9 0 -11.5 7.5t3.5 14.5l438 457q9 6 16 3t6 -13l-61 -435h92q5 0 8 -4t2 -10l-2 -10q-3 -10 -12 -10h-92l-18 -125q-4 -15 -15 -15h-8q-14 0 -10 15l18 125h-354zM172 1001h309l54 375z" />
<glyph horiz-adv-x="579" d="M311 807q-104 0 -172 80q-7 11 4 22l7 6q14 13 18 0q51 -71 149 -71q83 0 149 60t66 149q0 129 -167 129h-158q-15 0 -12 14l30 223q4 15 17 15h295q5 0 8 -4.5t2 -10.5l-2 -8q-3 -14 -15 -14h-274l-25 -178h138q98 0 149 -42t51 -120q0 -107 -73.5 -175.5t-184.5 -74.5z " />
<glyph horiz-adv-x="581" d="M340 807q-87 0 -137.5 62.5t-50.5 160.5q0 152 102.5 270t253.5 173q16 5 16 -9v-14q0 -10 -8 -14q-29 -11 -67 -32t-86.5 -55.5t-91 -86.5t-64.5 -111q95 86 196 86q72 0 122 -49.5t50 -130.5q0 -100 -67 -172t-168 -78zM344 844q77 0 136 64t59 147q0 66 -40 104.5 t-102 38.5q-37 0 -71 -11.5t-57 -28t-40.5 -32.5t-25.5 -28l-8 -11q-5 -45 -5 -53q0 -85 40 -137.5t114 -52.5z" />
<glyph horiz-adv-x="499" d="M170 825l-6 4q-10 6 -2 21l348 547h-320q-5 0 -8 4t-2 10l2 8q4 15 15 15h358q9 0 11 -7t-3 -14l-373 -584q-8 -12 -20 -4z" />
<glyph horiz-adv-x="604" d="M338 807q-82 0 -137.5 36.5t-55.5 108.5q0 67 45 118.5t119 70.5q-47 15 -74.5 47.5t-27.5 75.5q0 79 54 134.5t159 55.5q84 0 130 -42t46 -105q0 -59 -40 -105t-105 -65q58 -15 88 -50.5t30 -85.5q0 -97 -66 -145.5t-165 -48.5zM385 1163q76 3 123 42.5t47 99.5 q0 50 -34 81t-103 31q-82 0 -127 -43t-45 -106q0 -46 37 -74t102 -31zM340 844q78 0 133 38.5t55 114.5q0 51 -39 82t-112 35q-89 -4 -140 -47t-51 -111q0 -57 43 -84.5t111 -27.5z" />
<glyph horiz-adv-x="581" d="M229 788q-16 -5 -16 9v14q0 11 8 14q31 11 66.5 30t83.5 53t89.5 87t63.5 115q-30 -27 -47 -40.5t-57.5 -29.5t-85.5 -16q-79 0 -131.5 59t-40.5 152q14 92 80.5 155.5t154.5 63.5q98 0 148 -77.5t35 -192.5q-10 -72 -44 -136.5t-73.5 -106t-89 -76t-82.5 -50.5t-62 -27z M340 1063q37 0 70.5 11.5t55.5 27.5t39 32.5t25 27.5l7 12q14 107 -22 175t-122 68q-69 0 -125 -53.5t-67 -128.5q-10 -77 30.5 -124.5t108.5 -47.5z" />
<glyph horiz-adv-x="653" d="M131 489q0 225 38.5 421.5t102 334.5t144.5 238t166 148t166 48q6 0 10.5 -4t3.5 -10l-2 -8q-4 -15 -17 -15q-75 0 -155 -49t-155 -148t-134 -234t-95 -323t-36 -399q0 -145 26 -273t69.5 -217.5t99.5 -144t116 -61.5q6 0 10 -4t3 -10l-3 -10q-4 -11 -14 -11 q-89 4 -167.5 96.5t-127.5 261t-49 373.5z" />
<glyph horiz-adv-x="653" d="M561 948q0 -225 -38.5 -421.5t-102 -334.5t-144 -238t-165.5 -148t-166 -48q-6 0 -11 4.5t-4 10.5l2 8q4 14 17 14q75 0 155 49t155 148t134 234t95 323t36 399q0 145 -26 273.5t-69.5 218t-99.5 144t-116 61.5q-15 0 -12 14l2 10q3 10 14 10q89 -4 167.5 -96.5 t127.5 -261t49 -373.5z" />
<glyph horiz-adv-x="727" d="M152 682q-5 0 -8.5 4t-2.5 10l2 9q3 14 15 14h446q12 0 8 -14l-2 -9q-4 -14 -12 -14h-446z" />
<glyph horiz-adv-x="641" d="M113 -205h350q15 0 12 -14l-2 -8q-4 -15 -14 -15h-375q-5 0 -8 4.5t-2 10.5l264 1892q4 14 16 14h373q15 0 12 -14l-2 -8q-4 -15 -14 -15h-352z" />
<glyph horiz-adv-x="638" d="M-43 -205h350l258 1847h-350q-14 0 -10 15l2 8q3 14 14 14h373q12 0 12 -14l-266 -1892q-4 -15 -16 -15h-373q-6 0 -9.5 4.5t-2.5 10.5l2 8q3 14 16 14z" />
<glyph horiz-adv-x="671" d="M188 215l43 303q12 84 -31 135.5t-91 51.5q-16 0 -13 14l2 8q4 14 15 14q46 0 105 51t71 136l41 297q19 139 57 233.5t95.5 146.5t125 73.5t158.5 21.5q6 0 9.5 -4t2.5 -10l-2 -9q-4 -14 -16 -14q-62 0 -112 -12t-97 -42t-81.5 -78.5t-61.5 -125.5t-41 -180l-41 -297 q-10 -72 -54 -124.5t-98 -80.5q46 -27 75 -79.5t19 -125.5l-43 -303q-17 -104 -9.5 -180t27 -126.5t59 -80.5t86 -42.5t108.5 -12.5q6 0 9.5 -4.5t2.5 -10.5l-2 -8q-4 -14 -17 -14q-369 0 -301 479z" />
<glyph horiz-adv-x="403" d="M57 -328l283 2014q4 14 16 14h9q5 0 8 -4t2 -10l-283 -2014q-4 -14 -14 -14h-8q-6 0 -10 4t-3 10z" />
<glyph horiz-adv-x="671" d="M342 215l43 303q10 72 54 124.5t98 80.5q-47 27 -76 79.5t-19 125.5l41 297q17 104 9.5 180t-26.5 125.5t-58.5 79t-86 41.5t-108.5 12q-15 0 -12 14l2 9q3 14 16 14q56 0 101 -9.5t84.5 -32t65.5 -58.5t43 -89t17.5 -123.5t-10.5 -162.5l-41 -297q-12 -85 32.5 -136 t90.5 -51q6 0 9.5 -4t2.5 -10l-2 -8q-3 -14 -14 -14q-48 0 -106.5 -51.5t-69.5 -135.5l-43 -303q-19 -139 -57 -234t-95 -148t-124.5 -75t-157.5 -22q-6 0 -10 4t-3 10l2 8q4 15 17 15q77 0 137 20.5t112.5 69t88 136.5t53.5 216z" />
<glyph horiz-adv-x="499" d="M303 311l-174 353q-4 6 2 16l272 348q7 10 19 4l8 -6q10 -8 2 -16l-264 -340l166 -342q4 -12 -6 -17l-9 -4q-13 -6 -16 4z" />
<glyph horiz-adv-x="491" d="M96 307l-6 6q-8 8 -2 17l262 344l-166 338q-6 10 6 16l9 4q9 6 16 -4l174 -348q3 -9 -2 -16l-272 -353q-11 -11 -19 -4z" />
<glyph horiz-adv-x="792" d="M596 311l-174 353q-3 9 2 16l272 348q10 10 19 2l8 -8q8 -8 0 -16l-260 -338l166 -340q4 -12 -6 -17l-11 -4q-10 -5 -16 4zM301 311l-174 353q-3 9 2 16l272 348q11 10 19 2l8 -8q8 -8 0 -16l-260 -338l166 -340q4 -12 -6 -17l-11 -4q-10 -5 -16 4z" />
<glyph horiz-adv-x="788" d="M385 315q-8 8 -2 17l262 344l-166 336q-7 10 6 16l11 4q11 4 16 -4l174 -348q3 -9 -2 -16l-272 -353q-12 -11 -19 -4zM98 309l-8 8q-8 8 -2 17l262 342l-166 336q-6 10 6 16l11 4q11 4 16 -4l174 -348q3 -9 -2 -16l-272 -353q-11 -11 -19 -2z" />
<glyph horiz-adv-x="1017" d="M154 682q-6 0 -10 4t-3 10l2 9q3 14 15 14h733q15 0 12 -14l-2 -9q-3 -14 -14 -14h-733z" />
<glyph horiz-adv-x="1417" d="M152 682q-5 0 -8.5 4t-2.5 10l2 9q3 14 15 14h1132q5 0 9.5 -4t3.5 -10l-3 -9q-4 -14 -16 -14h-1132z" />
<glyph horiz-adv-x="544" d="M266 571q-27 0 -44 19.5t-17 46.5q0 37 25 63.5t59 26.5q29 0 47 -20t18 -50q0 -35 -26.5 -60.5t-61.5 -25.5z" />
<glyph horiz-adv-x="405" d="M211 672q-17 0 -28 12.5t-11 30.5q0 23 16 38t37 15q18 0 28.5 -11.5t10.5 -29.5q0 -22 -15 -38.5t-38 -16.5z" />
</font>
</defs>
</svg>
