<?xml version="1.0" standalone="no"?>
<!DOCTYPE svg PUBLIC "-//W3C//DTD SVG 1.1//EN" "http://www.w3.org/Graphics/SVG/1.1/DTD/svg11.dtd" >
<svg xmlns="http://www.w3.org/2000/svg">
<metadata></metadata>
<defs>
<font id="brandon_textlight" horiz-adv-x="1228" >
<font-face units-per-em="2048" ascent="1434" descent="-614" />
<missing-glyph horiz-adv-x="491" />
<glyph unicode="fi" horiz-adv-x="1153" d="M238 31v827h-160q-33 0 -33 37v20q0 12 10 21.5t23 9.5h160v127q0 174 92 277.5t258 103.5q102 0 192 -37t131 -74q17 -17 2 -36l-22 -31q-13 -16 -37 -2q-136 92 -266 92q-125 0 -192.5 -74.5t-67.5 -218.5v-127h628q12 0 20.5 -9.5t8.5 -21.5v-884q0 -14 -9 -22.5 t-22 -8.5h-28q-13 0 -22 9.5t-9 21.5v827h-567v-827q0 -13 -8 -22t-21 -9h-39q-22 0 -22 31z" />
<glyph unicode="fl" horiz-adv-x="1206" d="M240 31v827h-162q-14 0 -23.5 10t-9.5 21v26q0 12 10.5 21.5t22.5 9.5h162v111q0 195 99.5 296t260.5 101q63 0 124 -15t104.5 -37t70 -39.5t41.5 -31.5l10 74q3 29 31 29h12q12 0 20.5 -8.5t8.5 -20.5v-1374q0 -14 -10 -22.5t-23 -8.5h-24q-13 0 -23 9.5t-10 21.5v1188 q-15 16 -37 34.5t-64.5 47t-102 47t-122.5 18.5q-120 0 -198 -73.5t-78 -229.5v-117h334q32 0 32 -28v-33q0 -27 -32 -27h-334v-827q0 -12 -10 -21.5t-23 -9.5h-29q-12 0 -20 9.5t-8 21.5z" />
<glyph unicode="ffh" horiz-adv-x="2512" d="M322 946h567v103q0 101 35 192q-30 34 -122 69.5t-181 35.5q-155 0 -227 -84.5t-72 -253.5v-62zM1630 1434h15q10 0 18 -9.5t8 -21.5v-584q138 148 326 148q354 0 354 -418v-518q0 -12 -9.5 -21.5t-21.5 -9.5h-28q-12 0 -21.5 9.5t-9.5 21.5v518q0 330 -268 330 q-180 0 -322 -174v-674q0 -31 -31 -31h-30q-13 0 -21 9t-8 22v1188q-15 16 -37 34.5t-64.5 47t-102 47t-122.5 18.5q-126 0 -201 -81.5t-75 -242.5v-96h334q33 0 33 -28v-33q0 -27 -33 -27h-334v-827q0 -14 -10 -22.5t-23 -8.5h-26q-11 0 -21 9.5t-10 21.5v827h-567v-827 q0 -14 -9.5 -22.5t-23.5 -8.5h-29q-11 0 -20 9.5t-9 21.5v827h-151q-14 0 -22.5 9.5t-8.5 21.5v26q0 12 9.5 21.5t21.5 9.5h151v64q0 204 102 314t288 110q105 0 198 -33.5t148 -75.5q104 129 282 129q63 0 124 -15t104.5 -37t70 -39.5t41.5 -31.5l10 74q3 29 31 29z" />
<glyph unicode="fk" horiz-adv-x="1708" d="M981 1434h12q11 0 20 -9.5t9 -21.5v-842l487 371q20 14 39 14h68q17 0 18.5 -16t-12.5 -27l-502 -379l525 -483q13 -12 7 -26.5t-20 -14.5h-53q-21 0 -47 18l-510 476v-463q0 -31 -31 -31h-26q-13 0 -23 9.5t-10 21.5v1188q-15 16 -37 34.5t-64.5 47t-102 47t-122.5 18.5 q-120 0 -198 -73.5t-78 -229.5v-117h334q32 0 32 -28v-33q0 -27 -32 -27h-334v-827q0 -12 -10 -21.5t-23 -9.5h-29q-12 0 -20 9.5t-8 21.5v827h-162q-14 0 -23.5 10t-9.5 21v26q0 12 10.5 21.5t22.5 9.5h162v111q0 195 99.5 296t260.5 101q63 0 124 -15t104.5 -37t70 -39.5 t41.5 -31.5l10 74q3 29 31 29z" />
<glyph unicode="fj" horiz-adv-x="1153" d="M895 -164v1022h-567v-827q0 -13 -8 -22t-21 -9h-39q-22 0 -22 31v827h-160q-33 0 -33 37v20q0 12 10 21.5t23 9.5h160v127q0 174 92 277.5t258 103.5q102 0 192 -37t131 -74q17 -17 2 -36l-22 -31q-13 -16 -37 -2q-136 92 -266 92q-125 0 -192.5 -74.5t-67.5 -218.5v-127 h628q12 0 20.5 -9.5t8.5 -21.5v-1060q0 -157 -57.5 -238t-179.5 -121q-37 -12 -48 17l-8 20q-6 12 -0.5 26.5t21.5 18.5q88 22 135 82t47 176z" />
<glyph unicode="ffj" horiz-adv-x="1804" d="M322 946h567v123q0 99 24 172q-31 35 -117.5 70t-174.5 35q-155 0 -227 -84.5t-72 -253.5v-62zM1546 -164v1022h-567v-827q0 -14 -10 -22.5t-23 -8.5h-26q-11 0 -21 9.5t-10 21.5v827h-567v-827q0 -14 -9.5 -22.5t-23.5 -8.5h-29q-11 0 -20 9.5t-9 21.5v827h-151 q-14 0 -22.5 9.5t-8.5 21.5v26q0 12 9.5 21.5t21.5 9.5h151v64q0 204 102 314t288 110q103 0 196.5 -35.5t136.5 -73.5q92 129 285 129q102 0 192.5 -37.5t131.5 -73.5q17 -17 2 -36l-23 -31q-13 -16 -37 -2q-136 92 -266 92q-125 0 -192.5 -74.5t-67.5 -218.5v-127h629 q12 0 20 -9.5t8 -21.5v-1060q0 -157 -57.5 -238t-179.5 -121q-36 -11 -47 17l-9 20q-6 12 -0.5 26.5t21.5 18.5q88 22 135 82t47 176z" />
<glyph unicode="fb" horiz-adv-x="1886" d="M1778 473q0 -208 -123.5 -352t-306.5 -144q-64 0 -124 16.5t-101.5 41t-67.5 44.5t-39 36l-6 -84q-5 -31 -35 -31h-10q-13 0 -23 9.5t-10 21.5v1188q-15 16 -37 34.5t-64.5 47t-102 47t-122.5 18.5q-120 0 -198 -73.5t-78 -229.5v-117h334q32 0 32 -28v-33q0 -27 -32 -27 h-334v-827q0 -12 -10 -21.5t-23 -9.5h-29q-12 0 -20 9.5t-8 21.5v827h-162q-14 0 -23.5 10t-9.5 21v26q0 12 10.5 21.5t22.5 9.5h162v111q0 195 99.5 296t260.5 101q63 0 124 -15t104.5 -37t70 -39.5t41.5 -31.5l10 74q3 29 31 29h10q14 0 22.5 -9t8.5 -22v-529q5 4 14 10 t39 22t62.5 28.5t82.5 22.5t101 10q198 0 327.5 -143.5t129.5 -350.5zM1688 473q0 169 -109 287.5t-270 118.5q-48 0 -95.5 -11t-80.5 -26.5t-59 -31.5t-39 -27l-13 -11v-547q2 -5 14.5 -20.5t40.5 -39.5t63 -46t89 -37.5t112 -15.5q147 0 247 120t100 287z" />
<glyph unicode="ffk" horiz-adv-x="2355" d="M322 946h567v103q0 101 35 192q-30 34 -122 69.5t-181 35.5q-155 0 -227 -84.5t-72 -253.5v-62zM1630 1434h10q11 0 20 -9.5t9 -21.5v-842l488 371q20 14 38 14h68q17 0 18.5 -16t-12.5 -27l-502 -379l525 -483q13 -12 7 -26.5t-20 -14.5h-53q-21 0 -47 18l-510 476v-463 q0 -31 -31 -31h-24q-13 0 -23 9.5t-10 21.5v1188q-15 16 -37 34.5t-64.5 47t-102 47t-122.5 18.5q-126 0 -201 -81.5t-75 -242.5v-96h334q33 0 33 -28v-33q0 -27 -33 -27h-334v-827q0 -14 -10 -22.5t-23 -8.5h-26q-11 0 -21 9.5t-10 21.5v827h-567v-827q0 -14 -9.5 -22.5 t-23.5 -8.5h-29q-11 0 -20 9.5t-9 21.5v827h-151q-14 0 -22.5 9.5t-8.5 21.5v26q0 12 9.5 21.5t21.5 9.5h151v64q0 204 102 314t288 110q105 0 198 -33.5t148 -75.5q104 129 282 129q63 0 124 -15t104.5 -37t70 -39.5t41.5 -31.5l10 74q3 29 31 29z" />
<glyph unicode="fh" horiz-adv-x="1863" d="M991 0h-26q-13 0 -23 9.5t-10 21.5v1188q-15 16 -37 34.5t-64.5 47t-102 47t-122.5 18.5q-120 0 -198 -73.5t-78 -229.5v-117h334q32 0 32 -28v-33q0 -27 -32 -27h-334v-827q0 -12 -10 -21.5t-23 -9.5h-29q-12 0 -20 9.5t-8 21.5v827h-162q-14 0 -23.5 10t-9.5 21v26 q0 12 10.5 21.5t22.5 9.5h162v111q0 195 99.5 296t260.5 101q63 0 124 -15t104.5 -37t70 -39.5t41.5 -31.5l10 74q3 29 31 29h10q11 0 21 -9.5t10 -21.5v-584q138 148 326 148q354 0 354 -418v-518q0 -12 -9.5 -21.5t-21.5 -9.5h-29q-12 0 -21 9.5t-9 21.5v518 q0 330 -269 330q-179 0 -321 -174v-674q0 -31 -31 -31z" />
<glyph unicode="ffb" horiz-adv-x="2535" d="M322 946h567v103q0 101 35 192q-30 34 -122 69.5t-181 35.5q-155 0 -227 -84.5t-72 -253.5v-62zM1630 1434h10q14 0 22.5 -9t8.5 -22v-529q5 4 14 10t39 22t62.5 28.5t82.5 22.5t101 10q198 0 327.5 -143.5t129.5 -350.5q0 -208 -123.5 -352t-306.5 -144q-64 0 -124 16.5 t-101.5 41t-67.5 44.5t-39 36l-6 -84q-5 -31 -35 -31h-10q-13 0 -23 9.5t-10 21.5v1188q-15 16 -37 34.5t-64.5 47t-102 47t-122.5 18.5q-126 0 -201 -81.5t-75 -242.5v-96h334q33 0 33 -28v-33q0 -27 -33 -27h-334v-827q0 -14 -10 -22.5t-23 -8.5h-26q-11 0 -21 9.5 t-10 21.5v827h-567v-827q0 -14 -9.5 -22.5t-23.5 -8.5h-29q-11 0 -20 9.5t-9 21.5v827h-151q-14 0 -22.5 9.5t-8.5 21.5v26q0 12 9.5 21.5t21.5 9.5h151v64q0 204 102 314t288 110q105 0 198 -33.5t148 -75.5q104 129 282 129q63 0 124 -15t104.5 -37t70 -39.5t41.5 -31.5 l10 74q3 29 31 29zM2337 473q0 169 -109 287.5t-270 118.5q-48 0 -95.5 -11t-80.5 -26.5t-59 -31.5t-39 -27l-13 -11v-547q2 -5 14.5 -20.5t40.5 -39.5t63.5 -46t89.5 -37.5t112 -15.5q147 0 246.5 120t99.5 287z" />
<glyph unicode="&#xd;" horiz-adv-x="0" />
<glyph unicode=" "  horiz-adv-x="491" />
<glyph unicode="&#x09;" horiz-adv-x="491" />
<glyph unicode="&#xa0;" horiz-adv-x="491" />
<glyph unicode="!" horiz-adv-x="505" d="M246 551q-10 0 -18.5 7.5t-8.5 16.5l-20 582v250q0 27 30 27h52q10 0 18 -8t8 -19v-248l-18 -584q0 -9 -9 -16.5t-18 -7.5h-16zM170 61q0 35 25 58.5t59 23.5q35 0 58.5 -23.5t23.5 -58.5q0 -34 -23.5 -57.5t-58.5 -23.5q-34 0 -59 24t-25 57z" />
<glyph unicode="&#x22;" horiz-adv-x="669" d="M469 1026q-18 0 -18 23v358q0 11 8 19t18 8h43q12 0 19 -9t6 -24l-33 -352q-4 -23 -20 -23h-23zM162 1026q-19 0 -19 23v358q0 11 8.5 19t18.5 8h43q12 0 19 -9t6 -24l-33 -352q-2 -9 -8 -16t-13 -7h-22z" />
<glyph unicode="#" horiz-adv-x="1136" d="M227 31l68 391h-172q-10 0 -17.5 8t-7.5 19v10q0 11 7.5 18.5t17.5 7.5h180l64 373h-185q-10 0 -18 8t-8 19v12q0 11 8 19t18 8h195l82 487q3 23 26 23h13q12 0 18 -9t4 -22l-80 -479h334l82 487q3 23 27 23h14q11 0 17 -9t4 -22l-80 -479h170q10 0 17 -8t7 -19v-12 q0 -11 -6 -19t-16 -8h-181l-63 -373h182q11 0 19 -8t8 -18v-10q0 -11 -7.5 -19t-17.5 -8h-194l-68 -399q-2 -9 -9.5 -16t-16.5 -7h-13q-29 0 -24 31l67 391h-336l-65 -399q-1 -9 -9.5 -16t-17.5 -7h-12q-30 0 -25 31zM369 485h333l62 373h-332z" />
<glyph unicode="$" d="M197 147q-12 10 -14 17t7 26l23 29q17 21 51 -6q20 -17 43.5 -34t68 -43.5t103 -45t119.5 -22.5v614q-104 34 -172 66t-127 79.5t-87 112.5t-28 152q0 58 23.5 116.5t70.5 112.5t130 90t190 41v76q0 13 8.5 19.5t20.5 6.5h8q11 0 19 -7t8 -19v-78q52 -3 103.5 -14.5 t88 -26t66 -28.5t44.5 -23l15 -10q25 -20 10 -41l-20 -31q-15 -22 -43 -8q-16 11 -40.5 25t-92.5 39t-131 30q0 -100 -1.5 -301t-1.5 -301q104 -36 175.5 -72.5t129 -85.5t85.5 -113.5t28 -146.5q0 -145 -123.5 -249t-294.5 -113v-222q0 -11 -8.5 -17.5t-19.5 -6.5 q-33 0 -33 24v222q-219 12 -401 167zM598 784v580q-83 -4 -147.5 -30.5t-100 -66.5t-53.5 -84t-18 -89q0 -61 21.5 -109t66 -84.5t98.5 -63t133 -53.5zM659 68q131 8 224.5 86.5t93.5 185.5q0 114 -78.5 185t-239.5 130v-587z" />
<glyph unicode="%" horiz-adv-x="1386" d="M373 889q-117 0 -200 82t-83 200t83 200.5t200 82.5t199.5 -82.5t82.5 -200.5t-82.5 -200t-199.5 -82zM252 35l778 1388q7 11 25 11h37q13 0 18.5 -13t-2.5 -26l-780 -1381q-7 -14 -25 -14h-37q-13 0 -17.5 11.5t3.5 23.5zM373 965q85 0 145 60t60 146q0 85 -60 145 t-145 60q-86 0 -145.5 -60t-59.5 -145q0 -86 59.5 -146t145.5 -60zM731 260q0 119 82.5 202t200.5 83q117 0 199.5 -83.5t82.5 -201.5q0 -117 -82.5 -200t-199.5 -83q-118 0 -200.5 83t-82.5 200zM807 260q0 -86 60.5 -145.5t146.5 -59.5q85 0 145 59.5t60 145.5 q0 85 -60 145t-145 60q-86 0 -146.5 -60t-60.5 -145z" />
<glyph unicode="&#x26;" horiz-adv-x="1361" d="M137 354q0 253 303 416l-30 33q-41 45 -66 75.5t-54 75t-43 90t-14 93.5q0 55 21 109.5t62 101.5t111 76.5t157 29.5q156 0 243.5 -90.5t87.5 -218.5q0 -61 -29 -120t-79.5 -108t-106.5 -88t-122 -73l417 -414q123 197 123 418q0 5 -1 20.5t-1 20.5q0 18 17 18h43 q18 0 24 -18q4 -14 4 -41q0 -121 -39 -246t-108 -231l213 -211q31 -27 8 -47l-33 -31q-19 -18 -41 4l-205 207q-192 -225 -473 -225q-178 0 -283.5 108.5t-105.5 265.5zM518 815q50 25 90 49t82 56.5t70.5 65.5t46.5 73.5t18 83.5q0 94 -65 162.5t-182 68.5 q-124 0 -191.5 -72t-67.5 -167q0 -117 140 -261q9 -8 18.5 -18t21.5 -22zM227 354q0 -124 85 -208.5t216 -84.5q124 0 229.5 53.5t184.5 149.5l-444 451q-271 -147 -271 -361z" />
<glyph unicode="'" horiz-adv-x="362" d="M162 1026q-19 0 -19 23v358q0 11 8.5 19t18.5 8h43q12 0 19 -9t6 -24l-33 -352q-2 -9 -8 -16t-13 -7h-22z" />
<glyph unicode="(" horiz-adv-x="692" d="M616 -88q8 0 13 -7.5t4 -17.5l-2 -30q0 -9 -7 -14t-18 -3q-75 3 -142 29t-131.5 86t-111.5 149t-75.5 228t-28.5 313t28.5 313t75.5 228t111.5 149.5t131.5 86.5t142 30q25 0 25 -18l2 -31q1 -10 -4 -17.5t-13 -7.5q-191 -26 -300 -204.5t-109 -528.5t109 -528.5 t300 -204.5z" />
<glyph unicode=")" horiz-adv-x="692" d="M78 -88q191 26 299 204t108 529t-108 529t-299 204q-9 0 -14.5 7.5t-4.5 17.5l2 31q3 18 27 18q75 -4 142 -30t131 -86.5t110.5 -149.5t75 -228t28.5 -313t-28.5 -313t-75 -228t-110.5 -149t-131 -86t-142 -29q-24 -3 -27 17l-2 30q-1 10 4.5 17.5t14.5 7.5z" />
<glyph unicode="*" horiz-adv-x="841" d="M412 840q-11 0 -19 8t-8 18l2 211l-180 -112q-9 -6 -19 -3.5t-16 11.5l-10 16q-6 9 -3 19.5t11 15.5l186 113l-188 112q-8 5 -10 15.5t2 19.5l12 21q10 17 33 4l182 -113l-2 211q0 11 8.5 19t18.5 8h16q10 0 18.5 -8t8.5 -19l-2 -211l180 115q20 11 35 -8l10 -17 q11 -22 -8 -35l-189 -114l191 -115q7 -4 10 -15t-2 -18l-10 -18q-6 -9 -17 -11.5t-20 3.5l-180 114l2 -211q0 -10 -8 -18t-19 -8h-16z" />
<glyph unicode="+" d="M571 317v351h-352q-11 0 -18.5 8t-7.5 18v31q0 11 8 19t18 8h352v354q0 10 8 17t19 7h33q11 0 18.5 -7t7.5 -17v-354h351q10 0 18 -8t8 -19v-31q0 -10 -8 -18t-18 -8h-351v-351q0 -11 -7.5 -18.5t-18.5 -7.5h-33q-11 0 -19 8t-8 18z" />
<glyph unicode="," horiz-adv-x="460" d="M133 63q0 35 24.5 58.5t61.5 23.5q58 0 93.5 -60t35.5 -142q0 -168 -127 -291q-16 -16 -26 0l-23 20q-11 15 2 31q102 95 102 213q0 62 -18 92q-19 -22 -51 -22t-53 22t-21 55z" />
<glyph unicode="-" horiz-adv-x="808" d="M172 473q-10 0 -17.5 8t-7.5 19v22q0 12 7 19.5t18 7.5h463q11 0 19 -7.5t8 -19.5v-22q0 -10 -8 -18.5t-19 -8.5h-463z" />
<glyph unicode="." horiz-adv-x="440" d="M133 63q0 38 25.5 62.5t62.5 24.5t61.5 -24.5t24.5 -62.5q0 -36 -25 -61t-61 -25q-37 0 -62.5 25.5t-25.5 60.5z" />
<glyph unicode="/" horiz-adv-x="757" d="M113 29l452 1388q7 17 27 17h29q14 0 21 -8.5t3 -20.5l-452 -1387q-6 -18 -27 -18h-31q-13 0 -19.5 8t-2.5 21z" />
<glyph unicode="0" horiz-adv-x="1329" d="M666 -23q-246 0 -382.5 197t-136.5 545t136 541.5t383 193.5q245 0 380.5 -193.5t135.5 -541.5t-135.5 -545t-380.5 -197zM666 66q200 0 307.5 170t107.5 483q0 310 -107.5 478.5t-307.5 168.5q-203 0 -310.5 -168t-107.5 -479q0 -314 107.5 -483.5t310.5 -169.5z" />
<glyph unicode="1" horiz-adv-x="686" d="M367 1290h-2l-250 -205q-18 -14 -31 5l-25 28q-15 15 4 31l320 272q13 13 37 13h12q13 0 22 -7t9 -18v-1382q0 -11 -8.5 -19t-18.5 -8h-43q-10 0 -18 8t-8 19v1263z" />
<glyph unicode="2" horiz-adv-x="1126" d="M246 88v-2h706q12 0 20.5 -8t8.5 -19v-32q0 -11 -8.5 -19t-20.5 -8h-825q-13 0 -21 7.5t-8 17.5v18q0 20 15 35l544 547q116 116 175 216t59 199q0 62 -21.5 118t-63.5 102.5t-111.5 74t-157.5 27.5q-34 0 -67 -6.5t-59 -16t-52 -24t-43 -27.5t-36 -30t-28 -27t-21 -23.5 t-14 -15.5q-20 -23 -43 -6l-24 20q-19 19 -5 39q5 8 15.5 22.5t47.5 50.5t79 63.5t109.5 50t140.5 22.5q109 0 196.5 -33.5t143 -90.5t85 -131t29.5 -157q0 -67 -19 -130t-58 -123t-82 -110t-107 -114z" />
<glyph unicode="3" horiz-adv-x="1169" d="M123 166q-19 22 0 37l33 26q20 17 39 -6q1 -1 16 -17.5t19.5 -21t21 -20t26 -22t29.5 -20t36 -19.5t41 -15.5t49 -13.5t55.5 -7.5t64.5 -3.5q164 0 268.5 87.5t104.5 228.5q0 98 -57.5 170t-141.5 105.5t-180 33.5h-197q-17 0 -22.5 6t-5.5 21v39q0 24 30 24h195 q61 0 118.5 16t108.5 49t82 91.5t31 134.5q0 131 -92 213t-228 82q-197 0 -331 -156q-16 -20 -35 -4l-33 27q-9 6 -9.5 17t7.5 18q6 8 17.5 20.5t50.5 45t82 57t111.5 45t139.5 20.5q183 0 301.5 -104t118.5 -271q0 -117 -71.5 -210t-167.5 -128v-6q110 -33 193 -131 t83 -219q0 -177 -129.5 -291t-345.5 -114q-262 0 -426 186z" />
<glyph unicode="4" horiz-adv-x="1267" d="M92 330q-37 0 -37 30v17q0 17 13 37l839 1024q11 16 33 16h18q25 0 25 -24v-1016h160q11 0 18.5 -7.5t7.5 -19.5v-31q0 -10 -7.5 -18t-18.5 -8h-160v-303q0 -11 -8.5 -19t-18.5 -8h-38q-27 0 -27 27v303h-799zM178 418v-4h713v868h-4z" />
<glyph unicode="5" horiz-adv-x="1169" d="M160 156q-13 18 -14 26.5t12 20.5l30 26q20 17 35 -4q137 -159 348 -159q172 0 285 118.5t113 280.5t-102 256t-296 94h-350q-18 0 -29.5 13.5t-11.5 29.5v549q0 11 8.5 19t20.5 8h661q11 0 20 -8.5t9 -18.5v-33q0 -12 -9 -20t-20 -8h-600v-443h301q241 0 367.5 -113.5 t126.5 -324.5q0 -132 -63 -243t-177.5 -176.5t-255.5 -65.5q-261 0 -409 176z" />
<glyph unicode="6" horiz-adv-x="1187" d="M131 580q0 118 29 226t74.5 188.5t110 153.5t126 122t133 92t120 66t97.5 42q24 7 31 -14l14 -33q10 -28 -22 -39q-31 -11 -69 -28t-92 -48t-106.5 -68t-107.5 -89t-99.5 -109.5t-79 -132t-48.5 -153.5q17 20 48 45t80.5 55t120.5 50t146 20q90 0 172.5 -32.5t146 -91 t101 -146.5t37.5 -191q0 -200 -139 -342.5t-330 -142.5q-160 0 -273.5 81t-167 214t-53.5 305zM221 565q0 -99 25.5 -188t74.5 -159.5t127.5 -112.5t176.5 -42q155 0 265.5 117.5t110.5 280.5q0 164 -109 271.5t-263 107.5q-71 0 -139.5 -22.5t-110.5 -48.5t-83 -64 t-50.5 -50t-20.5 -26q-4 -40 -4 -64z" />
<glyph unicode="7" horiz-adv-x="1015" d="M858 1341v5h-776q-27 0 -27 30v31q0 13 8 20t19 7h872q14 0 22.5 -7.5t8.5 -17.5q0 -11 -6 -23l-614 -1353q-9 -21 -16 -27t-25 -6h-50q-16 0 -19 12t5 21z" />
<glyph unicode="8" horiz-adv-x="1230" d="M143 375q0 132 92 229.5t224 128.5v4q-117 34 -198 125t-81 211q0 164 114.5 272.5t317.5 108.5q205 0 322 -108.5t117 -272.5q0 -120 -81 -211t-198 -125v-4q133 -31 224 -126.5t91 -231.5q0 -185 -130 -290t-345 -105q-211 0 -340 105.5t-129 289.5zM616 784 q156 10 247 87.5t91 199.5q0 129 -91.5 216t-252.5 87q-158 0 -246 -87t-88 -216q0 -122 91 -199.5t249 -87.5zM240 367q0 -99 51 -170t133.5 -104.5t187.5 -33.5q168 0 273.5 79.5t105.5 228.5q0 121 -102.5 210.5t-272.5 104.5q-174 -15 -275 -101.5t-101 -213.5z" />
<glyph unicode="9" horiz-adv-x="1189" d="M322 10q-11 30 24 41q36 12 82 34.5t110.5 60t127 90.5t120 117t100 149.5t58.5 177.5q-15 -21 -46 -46.5t-80 -55.5t-119.5 -50t-145.5 -20q-91 0 -174 33t-146.5 92t-101 147t-37.5 191q0 131 64 242.5t172.5 176t234.5 64.5q120 0 215 -46.5t155.5 -128t92 -190 t31.5 -235.5q0 -118 -29 -226t-74.5 -189t-110 -153.5t-126.5 -122t-133 -92.5t-120.5 -66t-98.5 -42q-21 -7 -31 17zM559 596q71 0 139 22.5t109.5 48t83 64t50.5 50t20 26.5q6 30 6 63q0 98 -25.5 186.5t-74 159t-126.5 112.5t-176 42q-156 0 -267.5 -116.5t-111.5 -278.5 q0 -164 109.5 -271.5t263.5 -107.5z" />
<glyph unicode=":" horiz-adv-x="485" d="M244 774q-38 0 -67.5 28.5t-29.5 65.5q0 41 29 70t68 29q40 0 67 -29t27 -70q0 -37 -27.5 -65.5t-66.5 -28.5zM147 74q0 39 29 66.5t68 27.5q40 0 67 -27t27 -67t-27.5 -68.5t-66.5 -28.5t-68 29t-29 68z" />
<glyph unicode=";" horiz-adv-x="542" d="M258 774q-38 0 -66 28.5t-28 65.5q0 41 28 70t66 29q40 0 67 -29t27 -70q0 -37 -27.5 -65.5t-66.5 -28.5zM172 63q0 35 24.5 58.5t61.5 23.5q58 0 93.5 -60t35.5 -142q0 -168 -127 -291q-17 -17 -27 0l-22 20q-11 15 2 31q102 95 102 213q0 62 -18 92q-19 -22 -51 -22 t-53 22t-21 55z" />
<glyph unicode="&#x3c;" d="M225 440q-20 12 -20 33v2q0 17 20 29l723 459q10 8 19.5 2t9.5 -23v-47q0 -22 -16 -31l-623 -391l623 -379q16 -9 16 -31v-47q0 -17 -9.5 -22.5t-19.5 2.5z" />
<glyph unicode="=" d="M291 750q-27 0 -27 26v35q0 27 27 27h645q10 0 18.5 -8t8.5 -19v-35q0 -10 -8 -18t-19 -8h-645zM291 324q-27 0 -27 26v35q0 27 27 27h645q10 0 18.5 -8t8.5 -19v-35q0 -10 -8 -18t-19 -8h-645z" />
<glyph unicode="&#x3e;" d="M252 16v47q0 22 16 31l623 379l-623 391q-16 9 -16 31v47q0 17 9 23t20 -2l723 -459q20 -12 20 -29v-2q0 -21 -20 -33l-723 -444q-11 -8 -20 -2.5t-9 22.5z" />
<glyph unicode="?" horiz-adv-x="921" d="M399 559q-24 0 -24 29v119q0 40 19 76.5t49 64.5t66.5 55t73 54.5t66.5 56t49 66t19 79.5q0 85 -68.5 149t-183.5 64q-39 0 -74.5 -6.5t-63.5 -18.5t-50.5 -24.5t-41.5 -29t-30 -27t-22.5 -23.5t-12.5 -14q-15 -15 -35 -2l-20 14q-22 15 -6 39q5 7 14 19t41.5 42t71 52.5 t102 41.5t133.5 19q153 0 245.5 -80.5t92.5 -208.5q0 -63 -25.5 -117.5t-63.5 -89.5t-83 -69.5t-83 -60t-63.5 -58t-25.5 -65.5v-117q0 -29 -27 -29h-39zM336 61q0 35 24 58.5t58 23.5q35 0 59.5 -23.5t24.5 -58.5q0 -34 -24.5 -57.5t-59.5 -23.5q-34 0 -58 23.5t-24 57.5z " />
<glyph unicode="@" horiz-adv-x="2015" d="M119 459q0 217 67 401t188 315t298 205t389 74q201 0 365 -65t272.5 -180.5t167.5 -273.5t59 -343q0 -105 -24.5 -200.5t-73.5 -175.5t-132 -127.5t-190 -47.5q-96 0 -153 44.5t-76 117.5q-16 -25 -39 -49.5t-59 -51.5t-87 -44t-108 -17q-166 0 -272.5 122t-106.5 312 q0 189 116.5 307.5t285.5 118.5q46 0 89 -9.5t71.5 -22.5t49.5 -26t31 -23l10 -9l7 45q3 25 28 25h21q10 0 18 -8t8 -19v-514q0 -223 170 -223q155 0 244.5 129t89.5 346q0 169 -51.5 312.5t-149 249t-247.5 165t-336 59.5q-259 0 -454 -114t-299.5 -322t-104.5 -483 q0 -296 155 -514t416 -330q13 -6 15.5 -13t-3.5 -20l-14 -33q-9 -21 -29 -12q-282 120 -452 360t-170 562zM692 475q0 -155 83.5 -251.5t213.5 -96.5q51 0 95.5 16t72.5 38t50 50t31.5 48t14.5 36v387q-2 4 -11 15t-30.5 29.5t-48 34t-67.5 27t-86 11.5q-134 0 -226 -95.5 t-92 -248.5z" />
<glyph unicode="A" horiz-adv-x="1333" d="M23 0q-24 0 -15 25l631 1415q7 14 25 14h6q19 0 26 -14l625 -1415q8 -25 -18 -25h-54q-19 0 -28 18l-166 377h-783l-163 -377q-9 -18 -29 -18h-57zM309 475h711l-350 815h-4z" />
<glyph unicode="B" horiz-adv-x="1280" d="M879 733v-4q115 -34 187.5 -119t72.5 -221q0 -172 -126 -280.5t-325 -108.5h-455q-10 0 -18 8t-8 19v1380q0 11 8 19t18 8h437q190 0 307 -101.5t117 -269.5q0 -116 -59 -202.5t-156 -127.5zM301 770h383q142 0 223.5 80t81.5 209q0 133 -85.5 208.5t-233.5 75.5h-369 v-573zM301 86h395q151 0 244.5 83.5t93.5 221.5q0 134 -93.5 212.5t-242.5 78.5h-397v-596z" />
<glyph unicode="C" horiz-adv-x="1464" d="M115 715q0 151 58.5 288t157.5 235.5t236.5 157t288.5 58.5q289 0 498 -190q8 -8 8.5 -18.5t-6.5 -18.5l-33 -35q-17 -16 -35 2q-189 168 -432 168q-176 0 -323 -87.5t-231.5 -236t-84.5 -323.5q0 -174 84.5 -321.5t231.5 -234.5t323 -87q124 0 228 44.5t204 127.5 q20 17 33 4l35 -35q8 -6 8 -16.5t-8 -18.5q-102 -99 -231 -148.5t-269 -49.5q-151 0 -288 57.5t-236.5 155t-158 234t-58.5 288.5z" />
<glyph unicode="D" horiz-adv-x="1503" d="M207 27v1380q0 10 7.5 18.5t16.5 8.5h435q146 0 279.5 -57t230 -153t153.5 -228t57 -277q0 -196 -96.5 -361.5t-262.5 -261.5t-361 -96h-435q-9 0 -16.5 8.5t-7.5 18.5zM303 88h346q135 0 253 48.5t201.5 132.5t132 201t48.5 249q0 175 -81.5 318.5t-227.5 226t-326 82.5 h-346v-1258z" />
<glyph unicode="E" horiz-adv-x="1185" d="M207 27v1380q0 11 8 19t18 8h822q10 0 18 -8t8 -19v-35q0 -10 -7.5 -18t-18.5 -8h-750v-566h649q11 0 19 -8t8 -18v-35q0 -11 -8.5 -19t-18.5 -8h-649v-606h750q10 0 18 -8t8 -19v-32q0 -11 -8 -19t-18 -8h-822q-10 0 -18 8t-8 19z" />
<glyph unicode="F" horiz-adv-x="1142" d="M207 27v1380q0 11 8 19t18 8h822q10 0 18 -8t8 -19v-35q0 -10 -7.5 -18t-18.5 -8h-752v-623h651q10 0 18.5 -8.5t8.5 -18.5v-9v-10t-0.5 -9.5t-1.5 -10t-3 -8t-5 -6.5t-7 -4t-10 -2h-651v-610q0 -11 -9 -19t-24 -8h-37q-10 0 -18 8t-8 19z" />
<glyph unicode="G" horiz-adv-x="1519" d="M115 715q0 151 58.5 288t157.5 236t236 157t289 58q287 0 496 -190q8 -8 8.5 -18.5t-6.5 -18.5q-10 -12 -33 -35q-16 -19 -35 0q-187 172 -432 172q-175 0 -321.5 -87t-231 -235t-84.5 -323t84.5 -323t231 -235t321.5 -87q87 0 167.5 14.5t133.5 36t83 36.5t42 25v385 h-350q-16 0 -21.5 6t-5.5 21v41q0 13 5.5 19t21.5 6h420q10 0 18 -8t8 -17v-475q0 -21 -6.5 -31.5t-21.5 -21.5q-21 -14 -57.5 -32t-99.5 -42.5t-152.5 -40.5t-182.5 -16q-152 0 -289 57.5t-236 155t-157.5 234t-58.5 288.5z" />
<glyph unicode="H" horiz-adv-x="1525" d="M207 27v1380q0 11 8 19t18 8h43q12 0 19.5 -8t7.5 -19v-629h920v629q0 11 8 19t18 8h43q12 0 19.5 -8t7.5 -19v-1380q0 -11 -7.5 -19t-19.5 -8h-43q-10 0 -18 8t-8 19v665h-920v-665q0 -11 -7.5 -19t-19.5 -8h-43q-10 0 -18 8t-8 19z" />
<glyph unicode="I" horiz-adv-x="512" d="M207 27v1380q0 11 8 19t18 8h46q10 0 18 -8t8 -19v-1380q0 -12 -9 -19.5t-20 -7.5h-43q-10 0 -18 8t-8 19z" />
<glyph unicode="J" horiz-adv-x="952" d="M45 133q-13 20 2 35l27 25q18 17 35 0q56 -56 86 -76q74 -51 165 -51q138 0 218.5 84.5t80.5 259.5v997q0 12 8.5 19.5t20.5 7.5h41q11 0 19 -8t8 -19v-995q0 -211 -105.5 -321.5t-292.5 -110.5q-188 0 -313 153z" />
<glyph unicode="K" horiz-adv-x="1169" d="M207 27v1376q0 13 8.5 22t22.5 9h36q14 0 22.5 -9t8.5 -22v-637l696 653q17 15 41 15h58q16 0 19 -13t-7 -22l-713 -666l736 -698q10 -7 5 -21t-24 -14h-65q-25 0 -45 20l-701 676v-669q0 -27 -31 -27h-41q-26 0 -26 27z" />
<glyph unicode="L" horiz-adv-x="1011" d="M207 27v1380q0 11 8 19t18 8h46q9 0 16.5 -8.5t7.5 -18.5v-1321h653q17 0 22 -7t5 -20v-36q0 -10 -8 -16.5t-19 -6.5h-723q-10 0 -18 8t-8 19z" />
<glyph unicode="M" horiz-adv-x="1755" d="M100 27l291 1413q3 14 19 14h22q15 0 21 -14l421 -1258h5l424 1258q6 14 20 14h23q14 0 18 -14l291 -1413q5 -27 -23 -27h-49q-9 0 -15.5 7t-8.5 16l-232 1200h-4l-414 -1227q-5 -16 -28 -16h-9q-21 0 -26 16l-414 1227h-4l-231 -1200q-2 -9 -9 -16t-16 -7h-49 q-28 0 -23 27z" />
<glyph unicode="N" horiz-adv-x="1562" d="M209 27v1400q0 12 9.5 19.5t21.5 7.5h14q22 0 33 -16l970 -1264h3v1233q0 11 8 19t18 8h41q11 0 19 -8t8 -19v-1401q0 -13 -10 -19.5t-23 -6.5h-6q-22 0 -33 16l-979 1276h-2v-1245q0 -11 -8.5 -19t-18.5 -8h-38q-10 0 -18.5 8t-8.5 19z" />
<glyph unicode="O" horiz-adv-x="1705" d="M115 715q0 151 58 288t156.5 236t235 157t287.5 58q152 0 289 -58t235.5 -157t156.5 -236t58 -288q0 -152 -58 -288.5t-156.5 -234t-235.5 -155t-289 -57.5q-151 0 -287.5 57.5t-235 155t-156.5 234t-58 288.5zM205 715q0 -176 86.5 -324.5t235.5 -234.5t325 -86 t325.5 86t236.5 234.5t87 324.5t-87 325.5t-236.5 236.5t-325.5 87t-325 -87t-235.5 -236.5t-86.5 -325.5z" />
<glyph unicode="P" horiz-adv-x="1212" d="M207 27v1380q0 11 8 19t18 8h441q126 0 232 -59t168.5 -165t62.5 -235q0 -131 -62.5 -238.5t-168 -167t-230.5 -59.5h-373v-483q0 -11 -9 -19t-24 -8h-37q-10 0 -18 8t-8 19zM303 604h367q154 0 262 105t108 268q0 159 -108 259.5t-264 100.5h-365v-733z" />
<glyph unicode="Q" horiz-adv-x="1705" d="M115 715q0 151 58 288t156.5 236t235 157t287.5 58q152 0 289 -58t235.5 -157t156.5 -236t58 -288q0 -231 -127 -415t-334 -267l244 -398q5 -7 1 -18.5t-15 -11.5h-68q-14 0 -26 20l-228 377q-90 -22 -186 -22q-151 0 -287.5 57.5t-235 155t-156.5 234t-58 288.5z M205 715q0 -176 86.5 -324.5t235.5 -234.5t325 -86t325.5 86t236.5 234.5t87 324.5t-87 325.5t-236.5 236.5t-325.5 87t-325 -87t-235.5 -236.5t-86.5 -325.5z" />
<glyph unicode="R" horiz-adv-x="1318" d="M207 27v1380q0 11 7 19t19 8h508q190 0 323.5 -124t133.5 -309q0 -153 -95 -272.5t-243 -161.5l299 -530q8 -12 4 -24.5t-18 -12.5h-53q-18 0 -26.5 5.5t-16.5 19.5l-293 530q-27 -2 -76 -2h-377v-526q0 -11 -9 -19t-24 -8h-37q-10 0 -18 8t-8 19zM305 647h432 q150 0 256.5 102t106.5 252q0 144 -107 241t-258 97h-430v-692z" />
<glyph unicode="S" horiz-adv-x="1107" d="M135 147q-23 19 -6 43l18 25q24 27 46 8q15 -13 28 -24t53.5 -38t80 -45.5t99 -34t117.5 -15.5q145 0 244.5 74t99.5 200q0 67 -26 119t-81 92.5t-122 71.5t-168 65q-79 28 -133 52t-107.5 58.5t-85 74t-50.5 95t-19 124.5q0 48 15 97t49 97t84 85t126 60t168 23 q57 0 114 -10.5t98.5 -26t74.5 -31t50 -26.5l16 -10q23 -18 8 -43l-17 -27q-15 -28 -45 -10q-8 5 -19 12t-44 23.5t-66 28.5t-80.5 22t-91.5 10q-90 0 -159.5 -25.5t-108.5 -67t-58.5 -87t-19.5 -92.5q0 -64 23 -113t70.5 -86.5t105 -64t141.5 -54.5q92 -31 156.5 -59 t125.5 -66t97.5 -80t58 -99.5t21.5 -127.5q0 -110 -63 -194t-164 -127t-220 -43q-69 0 -136.5 15.5t-114 35.5t-89.5 47t-61.5 41.5t-32.5 27.5z" />
<glyph unicode="T" horiz-adv-x="1040" d="M471 27v1319h-391q-27 0 -27 30v31q0 12 8 19.5t19 7.5h881q12 0 19 -8t7 -19v-35q0 -11 -7 -18.5t-19 -7.5h-394v-1319q0 -11 -9 -19t-23 -8h-37q-10 0 -18.5 8t-8.5 19z" />
<glyph unicode="U" horiz-adv-x="1460" d="M195 514v893q0 11 8 19t18 8h43q10 0 18.5 -8t8.5 -19v-883q0 -201 118.5 -325.5t319.5 -124.5q203 0 322.5 124t119.5 324v885q0 27 29 27h41q11 0 19 -8t8 -19v-893q0 -237 -148 -385.5t-391 -148.5q-241 0 -387.5 148.5t-146.5 385.5z" />
<glyph unicode="V" horiz-adv-x="1320" d="M629 -2l-619 1409q-6 12 -1.5 19.5t18.5 7.5h55q17 0 22 -15l553 -1272h5l559 1272q5 15 22 15h53q14 0 19.5 -8.5t-0.5 -20.5l-629 -1407q-7 -18 -24 -18h-11q-16 0 -22 18z" />
<glyph unicode="W" horiz-adv-x="1794" d="M465 -6l-406 1413q-5 27 23 27h49q9 0 16 -7t9 -16l344 -1200h4l360 1225q6 18 31 18h4q25 0 31 -18l362 -1225h4l342 1200q2 9 9 16t16 7h49q28 0 23 -27l-406 -1413q-3 -14 -18 -14h-23q-14 0 -20 14l-369 1247h-4l-369 -1247q-6 -14 -20 -14h-23q-15 0 -18 14z" />
<glyph unicode="X" horiz-adv-x="1136" d="M61 31l445 702l-420 670q-8 12 -3.5 21.5t19.5 9.5h66q17 0 27 -13l370 -602h2l375 602q10 13 27 13h65q15 0 20 -9.5t-3 -21.5l-422 -670l448 -702q8 -12 3.5 -21.5t-19.5 -9.5h-66q-17 0 -26 12l-402 633h-2l-395 -633q-9 -12 -27 -12h-65q-15 0 -20 9.5t3 21.5z" />
<glyph unicode="Y" horiz-adv-x="1159" d="M530 27v669l-522 707q-9 12 -3.5 21.5t20.5 9.5h61q17 0 27 -13l467 -637l475 637q10 13 26 13h62q15 0 20 -9.5t-4 -21.5l-532 -705v-671q0 -11 -8.5 -19t-18.5 -8q-3 0 -12 -0.5t-14 0t-13 1t-12.5 2t-9 4.5t-7 8t-2.5 12z" />
<glyph unicode="Z" horiz-adv-x="1075" d="M53 25v16q0 20 10 37l822 1261v4h-742q-11 0 -18.5 9t-7.5 22v33q0 11 8 19t18 8h844q12 0 19.5 -8t7.5 -19v-12q0 -20 -10 -37l-824 -1266v-2h764q12 0 19.5 -8t7.5 -19v-36q0 -11 -7.5 -19t-19.5 -8h-862q-12 0 -20.5 7.5t-8.5 17.5z" />
<glyph unicode="[" horiz-adv-x="679" d="M262 -403h338q10 0 18.5 -8.5t8.5 -18.5v-31q0 -10 -8 -18t-19 -8h-399q-11 0 -19 8t-8 18v1868q0 11 8 19t19 8h399q10 0 18.5 -8t8.5 -19v-31q0 -10 -8 -18t-19 -8h-338v-1753z" />
<glyph unicode="\" horiz-adv-x="755" d="M565 18l-452 1387q-4 12 3 20.5t21 8.5h29q20 0 27 -17l452 -1388q4 -13 -2.5 -21t-19.5 -8h-31q-21 0 -27 18z" />
<glyph unicode="]" horiz-adv-x="677" d="M80 -403h336v1753h-336q-11 0 -19 8t-8 18v31q0 11 8.5 19t18.5 8h397q11 0 19 -8t8 -19v-1868q0 -10 -8 -18t-19 -8h-397q-11 0 -19 8t-8 18v31q0 10 8.5 18.5t18.5 8.5z" />
<glyph unicode="^" horiz-adv-x="1073" d="M94 819q-15 0 -18 10.5t6 22.5l432 596q10 14 23 14h6q11 0 22 -14l430 -596q9 -12 6 -22.5t-18 -10.5h-47q-20 0 -33 17l-364 505l-365 -505q-13 -17 -33 -17h-47z" />
<glyph unicode="_" horiz-adv-x="976" d="M139 -47q0 11 7.5 19t19.5 8h645q11 0 19 -8t8 -19v-21q0 -10 -8 -17t-19 -7h-645q-12 0 -19.5 6.5t-7.5 17.5v21z" />
<glyph unicode="`" horiz-adv-x="618" d="M508 1145l-352 162q-19 10 -9 30l21 41q10 18 35 6l336 -184q19 -11 12 -29l-10 -20q-8 -17 -33 -6z" />
<glyph unicode="a" horiz-adv-x="980" d="M90 291q0 140 105.5 229.5t287.5 89.5q110 0 244 -43q0 68 -4.5 113.5t-17 87t-36 65t-62 37t-93.5 13.5q-44 0 -87 -6t-76 -15t-56.5 -17.5t-43 -17t-20.5 -8.5q-28 -11 -36 15l-11 28q-11 20 13 35q11 7 42 20.5t112.5 31.5t170.5 18q43 0 78 -4.5t62.5 -15.5 t49.5 -22.5t38 -32.5t27.5 -39t18.5 -48t11.5 -53t6.5 -60.5t2.5 -65t0.5 -71.5v-524q0 -12 -10.5 -21.5t-22.5 -9.5h-16q-26 0 -29 27l-10 86q-53 -53 -141.5 -94.5t-190.5 -41.5q-135 0 -221 85t-86 229zM178 293q0 -100 65.5 -163.5t164.5 -63.5q98 0 188.5 46t130.5 97 v272q-36 16 -103 32.5t-141 16.5q-135 0 -220 -66.5t-85 -170.5z" />
<glyph unicode="b" horiz-adv-x="1126" d="M1018 473q0 -208 -123.5 -352t-306.5 -144q-64 0 -124 16.5t-101.5 41t-67.5 44.5t-39 36l-6 -84q-5 -31 -35 -31h-12q-11 0 -21 9.5t-10 21.5v1372q0 11 10 21t19 10h30q14 0 22.5 -9t8.5 -22v-529q5 4 14 10t39 22t62.5 28.5t82.5 22.5t101 10q198 0 327.5 -143.5 t129.5 -350.5zM928 473q0 169 -109 287.5t-270 118.5q-48 0 -95.5 -11t-80.5 -26.5t-59 -31.5t-39 -27l-13 -11v-547q2 -5 14.5 -20.5t40.5 -39.5t63.5 -46t89.5 -37.5t112 -15.5q147 0 246.5 120t99.5 287z" />
<glyph unicode="c" horiz-adv-x="1058" d="M106 473q0 139 66.5 253t178.5 177.5t245 63.5q122 0 215 -47t133 -99q19 -22 -2 -43l-16 -16q-24 -24 -52 4q-17 19 -48.5 41.5t-96.5 47t-133 24.5q-162 0 -280.5 -118.5t-118.5 -285.5q0 -172 116 -290.5t285 -118.5q49 0 95.5 13.5t75.5 28t61.5 41t40.5 35t26 27.5 q22 25 45 2l19 -16q18 -18 6 -37q-17 -25 -48 -53.5t-77 -59t-111.5 -50.5t-134.5 -20q-133 0 -245 63.5t-178.5 178t-66.5 254.5z" />
<glyph unicode="d" horiz-adv-x="1126" d="M109 473q0 207 129 350.5t327 143.5q81 0 155.5 -23.5t109.5 -46.5l34 -23v529q0 13 8.5 22t22.5 9h31q9 0 18.5 -9.5t9.5 -21.5v-1372q0 -12 -9.5 -21.5t-20.5 -9.5h-13q-29 0 -34 31l-7 84q-19 -23 -56.5 -51t-114.5 -57.5t-160 -29.5q-183 0 -306.5 144t-123.5 352z M199 473q0 -167 99.5 -287t246.5 -120q58 0 112 15.5t89 37.5t63 46t40.5 39.5t14.5 20.5v547q-5 4 -13.5 11.5t-37.5 26t-60 32.5t-79 25.5t-96 11.5q-161 0 -270 -118.5t-109 -287.5z" />
<glyph unicode="e" horiz-adv-x="1083" d="M109 475q0 135 55 246t160 178.5t241 67.5q186 0 305 -123t119 -307q0 -20 -0.5 -31.5t-3.5 -28t-11 -25t-20 -8.5h-755q3 -159 108.5 -268.5t257.5 -109.5q154 0 291 94q29 17 41 0l23 -35q6 -6 3.5 -17t-14.5 -20q-50 -41 -146 -76t-198 -35q-136 0 -241 67t-160 180 t-55 251zM201 528h698q0 146 -90 248.5t-244 102.5q-152 0 -253.5 -100.5t-110.5 -250.5z" />
<glyph unicode="f" horiz-adv-x="749" d="M227 31v827h-149q-14 0 -21.5 9.5t-7.5 21.5v26q0 12 8.5 21.5t20.5 9.5h149v146q0 170 79.5 266t230.5 96q84 0 156.5 -30.5t107.5 -69.5q9 -10 10.5 -21.5t-4.5 -17.5l-21 -25q-17 -20 -41 -2q-100 78 -208 78q-220 0 -220 -274v-146h357q33 0 33 -28v-33 q0 -27 -33 -27h-357v-827q0 -12 -8.5 -21.5t-21.5 -9.5h-31q-11 0 -20 9.5t-9 21.5z" />
<glyph unicode="g" horiz-adv-x="1128" d="M866 180v574q-7 10 -28.5 27t-59 41t-96 40.5t-121.5 16.5q-159 0 -260.5 -117t-101.5 -285q0 -176 107 -293.5t276 -117.5q55 0 108.5 15.5t90.5 38t56 36.5t29 24zM866 -25v101q-22 -19 -51 -37t-96 -40t-139 -22q-134 0 -242.5 66t-168.5 180t-60 252q0 137 57 249.5 t160 177.5t231 65q180 0 320 -111l8 66q3 24 26 24h13q13 0 22.5 -8.5t9.5 -22.5v-940q0 -199 -117.5 -311.5t-301.5 -112.5q-104 0 -189.5 40t-130.5 83q-16 16 -4 35l20 27q16 19 41 0q39 -33 111.5 -64.5t151.5 -31.5q146 0 237.5 87t91.5 248z" />
<glyph unicode="h" horiz-adv-x="1103" d="M172 31v1372q0 13 9 22t24 9h26q11 0 21 -9.5t10 -21.5v-584q138 148 326 148q354 0 354 -418v-518q0 -12 -9.5 -21.5t-21.5 -9.5h-28q-12 0 -21.5 9.5t-9.5 21.5v518q0 330 -268 330q-180 0 -322 -174v-674q0 -31 -31 -31h-32q-13 0 -20 9t-7 22z" />
<glyph unicode="i" horiz-adv-x="434" d="M172 31v884q0 12 9 21.5t22 9.5h28q11 0 21 -9.5t10 -21.5v-884q0 -31 -31 -31h-32q-13 0 -20 9t-7 22zM215 1208q-34 0 -58 23t-24 55q0 34 24 57t58 23t57 -23t23 -57q0 -32 -23 -55t-57 -23z" />
<glyph unicode="j" horiz-adv-x="434" d="M215 1208q-34 0 -58 23t-24 55q0 34 24 57t58 23t57 -23t23 -57q0 -32 -23 -55t-57 -23zM262 915v-1060q0 -157 -57.5 -238t-179.5 -121q-37 -12 -48 17l-8 20q-6 12 -0.5 26.5t21.5 18.5q88 22 135 82t47 176v1079q0 12 9 21.5t22 9.5h28q11 0 21 -9.5t10 -21.5z" />
<glyph unicode="k" horiz-adv-x="946" d="M172 31v1372q0 12 9 21.5t22 9.5h26q11 0 21 -9.5t10 -21.5v-842l488 371q20 14 38 14h68q17 0 18.5 -16t-12.5 -27l-502 -379l525 -483q13 -12 7 -26.5t-20 -14.5h-53q-21 0 -47 18l-510 476v-463q0 -31 -31 -31h-30q-13 0 -20 9t-7 22z" />
<glyph unicode="l" horiz-adv-x="458" d="M184 31v1372q0 12 9 21.5t22 9.5h29q11 0 20.5 -9.5t9.5 -21.5v-1372q0 -31 -30 -31h-33q-13 0 -20 9t-7 22z" />
<glyph unicode="m" horiz-adv-x="1695" d="M172 31v884q0 12 9 21.5t22 9.5h16q20 0 23 -24l12 -101q15 20 35 39t58.5 46t96 44t123.5 17q105 0 174 -42t119 -126q132 168 332 168q342 0 342 -418v-518q0 -12 -9 -21.5t-22 -9.5h-35q-24 0 -24 31v518q0 166 -64 248t-196 82q-32 0 -62 -6t-53 -14.5t-47 -23 t-38.5 -25.5t-32.5 -29t-25.5 -26.5t-20.5 -24.5t-14 -17q18 -63 18 -164v-518q0 -12 -9.5 -21.5t-20.5 -9.5h-31q-29 0 -29 31v518q0 330 -262 330q-54 0 -103.5 -15t-81 -35.5t-57.5 -46t-37 -41t-16 -24.5v-686q0 -31 -31 -31h-32q-13 0 -20 9t-7 22z" />
<glyph unicode="n" horiz-adv-x="1105" d="M172 31v884q0 13 9 22t24 9h10q26 0 29 -24l10 -101q18 19 40.5 38t65.5 46.5t103 44.5t125 17q191 0 273.5 -107.5t82.5 -306.5v-522q0 -12 -9.5 -21.5t-21.5 -9.5h-28q-12 0 -21.5 9.5t-9.5 21.5v518q0 330 -270 330q-54 0 -106.5 -16t-88 -37.5t-66 -47t-43.5 -40 t-18 -21.5v-686q0 -31 -31 -31h-32q-13 0 -20 9t-7 22z" />
<glyph unicode="o" horiz-adv-x="1163" d="M106 475q0 133 62 245.5t172 179.5t242 67q129 0 239 -66.5t173 -180t63 -245.5q0 -136 -63 -250.5t-172.5 -181t-239.5 -66.5q-201 0 -338.5 145t-137.5 353zM197 475q0 -170 112 -289.5t273 -119.5q158 0 268.5 119.5t110.5 289.5q0 166 -110.5 285t-268.5 119 q-160 0 -272.5 -118.5t-112.5 -285.5z" />
<glyph unicode="p" horiz-adv-x="1128" d="M262 76v-533q0 -11 -11 -20.5t-22 -9.5h-26q-13 0 -22 9t-9 21v1372q0 14 10 22.5t23 8.5h12q24 0 27 -24l8 -66q140 111 319 111q129 0 232 -65t160 -177.5t57 -249.5q0 -138 -60 -252t-168.5 -180t-242.5 -66q-55 0 -106 11.5t-88 30t-57.5 31.5t-35.5 26zM262 180 q9 -9 28.5 -23.5t57 -37t91 -38t108.5 -15.5q169 0 276 117.5t107 293.5q0 168 -102 285t-261 117q-63 0 -121.5 -16.5t-96 -40.5t-59 -41t-28.5 -27v-574z" />
<glyph unicode="q" horiz-adv-x="1128" d="M866 -457v533q-22 -19 -51 -37t-96 -40t-139 -22q-134 0 -242.5 66t-168.5 180t-60 252q0 137 57 249.5t160 177.5t231 65q180 0 320 -111l8 66q3 24 26 24h13q13 0 22.5 -8.5t9.5 -22.5v-1372q0 -12 -8.5 -21t-21.5 -9h-27q-11 0 -22 9.5t-11 20.5zM866 180v574 q-7 10 -28.5 27t-59 41t-96 40.5t-121.5 16.5q-159 0 -260.5 -117t-101.5 -285q0 -176 107 -293.5t276 -117.5q55 0 108.5 15.5t90.5 38t56 36.5t29 24z" />
<glyph unicode="r" horiz-adv-x="765" d="M172 31v884q0 12 9 21.5t22 9.5h14q24 0 27 -26l10 -97q14 18 34.5 37.5t58 46t92.5 43.5t116 17q66 0 147 -27q15 -4 22.5 -16.5t2.5 -26.5l-12 -37q-9 -27 -39 -12q-52 31 -127 31q-52 0 -100 -15.5t-79.5 -37t-57 -46.5t-36.5 -40.5t-14 -22.5v-686q0 -31 -31 -31h-32 q-13 0 -20 9t-7 22z" />
<glyph unicode="s" horiz-adv-x="847" d="M123 82q-21 16 -10 35l18 33q6 11 18.5 12t24.5 -8q21 -17 48.5 -34t88.5 -38t121 -21q107 0 171.5 47t64.5 123q0 32 -14 59.5t-36 48t-60 41.5t-74 36t-91 35q-69 24 -115.5 47t-87 55t-60 74.5t-19.5 97.5q0 40 17.5 81t52 78t95.5 60t138 23q149 0 266 -72 q25 -18 12 -43l-12 -23q-11 -23 -41 -8q-119 62 -225 62q-104 0 -158.5 -47.5t-54.5 -108.5q0 -66 58 -110t175 -87q38 -14 52.5 -19.5t48 -19t47.5 -21t41.5 -22t39.5 -25.5t31 -27.5t27.5 -33t19 -37t14 -44t3.5 -50.5q0 -108 -92.5 -181t-233.5 -73q-172 0 -309 105z" />
<glyph unicode="t" horiz-adv-x="743" d="M215 229v629h-115q-30 0 -30 31v33q0 24 30 24h115v258q0 27 33 31l26 2q12 1 21.5 -9t9.5 -22v-260h334q15 0 24 -9t9 -22v-26q0 -14 -9 -22.5t-24 -8.5h-334v-618q0 -97 25.5 -135.5t103.5 -38.5q96 0 217 75q25 13 37 -8l17 -29q10 -20 -9 -36q-40 -31 -114.5 -61 t-159.5 -30q-63 0 -106 19.5t-64 57t-29 78.5t-8 97z" />
<glyph unicode="u" horiz-adv-x="1081" d="M162 385v530q0 12 9.5 21.5t21.5 9.5h30q12 0 20.5 -9.5t8.5 -21.5v-530q0 -167 62 -243t206 -76q175 0 299 176v673q0 31 31 31h31q11 0 19.5 -9.5t8.5 -21.5v-884q0 -12 -8.5 -21.5t-19.5 -9.5h-19q-11 0 -18.5 8.5t-9.5 20.5l-9 92q-14 -18 -34.5 -37.5t-59 -46 t-95.5 -43.5t-122 -17q-193 0 -272.5 100t-79.5 308z" />
<glyph unicode="v" horiz-adv-x="989" d="M459 0l-406 911q-8 13 -4.5 24t17.5 11h47q20 0 30 -22l346 -799h5l352 799q7 22 31 22h47q15 0 18 -11t-6 -24l-410 -911q-13 -23 -28 -23h-11q-17 0 -28 23z" />
<glyph unicode="w" horiz-adv-x="1431" d="M360 0l-282 907q-10 39 14 39h45q26 0 31 -22l223 -762h4l287 784q8 21 29 21h8q20 0 29 -21l282 -784h4l226 762q5 22 30 22h47q27 0 13 -39l-283 -907q-6 -23 -29 -23h-8q-21 0 -31 23l-282 807h-4l-285 -807q-7 -23 -29 -23h-8q-23 0 -31 23z" />
<glyph unicode="x" horiz-adv-x="948" d="M70 33l346 452l-328 428q-9 12 -4 22.5t20 10.5h48q20 0 36 -22l281 -379h4l287 379q11 22 35 22h49q15 0 19.5 -10.5t-7.5 -22.5l-324 -426l342 -454q10 -12 5 -22.5t-19 -10.5h-49q-23 0 -37 20l-299 412h-4l-303 -412q-11 -20 -33 -20h-51q-14 0 -18.5 10.5t4.5 22.5z " />
<glyph unicode="y" horiz-adv-x="980" d="M434 2l-377 905q-7 15 -3 27t18 12h43q24 0 32 -22l334 -818h6l349 818q8 22 30 22h45q16 0 19.5 -12t-4.5 -27l-592 -1376q-9 -18 -31 -18h-47q-32 0 -18 32z" />
<glyph unicode="z" horiz-adv-x="856" d="M70 27v4q0 19 12 37l559 784v6h-498q-12 0 -20 9t-8 20v28q0 31 28 31h613q13 0 21.5 -9.5t8.5 -21.5q0 -10 -12 -26l-571 -795v-6h516q13 0 22 -9t9 -22v-26q0 -12 -9 -21.5t-22 -9.5h-619q-13 0 -21.5 7.5t-8.5 19.5z" />
<glyph unicode="{" horiz-adv-x="755" d="M238 -37v295q0 37 -12 68t-27.5 49t-39.5 33t-38 20.5t-33 11.5q-18 6 -18 19v33q0 4 1 7t3.5 5t5 3t8.5 3q19 6 33 11.5t38 20.5t39.5 33t27.5 49t12 68v287q0 109 26 193.5t68.5 137t101.5 85.5t119.5 46t128.5 13q11 0 20 -7t9 -17v-25q0 -21 -21 -25 q-175 -13 -269.5 -107.5t-94.5 -295.5v-285q0 -49 -18.5 -91.5t-47 -69t-45 -38t-29.5 -18.5v-2q6 -3 18.5 -10t35 -25.5t40.5 -41.5t32 -60t14 -78v-293q0 -201 94.5 -294.5t269.5 -106.5q21 -4 21 -25v-24q0 -10 -9 -17.5t-20 -7.5q-68 0 -128 12.5t-119.5 45.5t-102 85 t-68.5 136.5t-26 193.5z" />
<glyph unicode="|" horiz-adv-x="407" d="M172 -463v1991q0 12 8 19t19 7h12q11 0 18 -7t7 -19v-1991q0 -10 -8 -17t-19 -7h-10q-11 0 -19 7t-8 17z" />
<glyph unicode="}" horiz-adv-x="755" d="M518 258v-295q0 -109 -26 -193.5t-68.5 -136.5t-102 -85t-119.5 -45.5t-128 -12.5q-11 0 -20 7.5t-9 17.5v24q0 21 21 25q175 13 269.5 106.5t94.5 294.5v293q0 41 14 78t32 60t40 41.5t34.5 25.5t18.5 10v2q-13 7 -29.5 18.5t-44.5 38t-46.5 69t-18.5 91.5v285 q0 201 -94.5 295.5t-269.5 107.5q-21 4 -21 25v25q0 10 9 17t20 7q68 0 128.5 -13t119.5 -46t101.5 -85.5t68.5 -137t26 -193.5v-287q0 -37 12 -68t27.5 -49t39.5 -33t38 -20.5t33 -11.5q7 -2 10 -3.5t5.5 -5t2.5 -9.5v-33q0 -13 -18 -19q-19 -6 -33 -11.5t-38 -20.5 t-39.5 -33t-27.5 -49t-12 -68z" />
<glyph unicode="~" horiz-adv-x="1177" d="M162 489l-27 21q-17 14 -4 33q4 8 12 21t34.5 46.5t55.5 59t75.5 46.5t94.5 21q109 0 215 -110q87 -92 162 -92q18 0 36 4t33 10.5t29.5 16t25.5 19t22.5 21.5t19 21.5t15.5 21.5t12 18.5t9 15t5 9.5q16 22 35 6l27 -18q9 -6 10.5 -16t-4.5 -17q-4 -8 -12 -21 t-34.5 -46.5t-56.5 -59t-76.5 -46.5t-95.5 -21q-44 0 -87.5 19.5t-65.5 37.5t-56 51q-27 27 -45.5 43t-53.5 32.5t-69 16.5q-20 0 -39.5 -4.5t-35.5 -13t-30.5 -18.5t-27 -23t-22.5 -24t-19 -24.5t-13.5 -21t-10.5 -18.5l-6 -10q-16 -22 -37 -7z" />
<glyph unicode="&#xa1;" horiz-adv-x="454" d="M227 803q-35 0 -58.5 23.5t-23.5 58.5q0 34 23.5 58t58.5 24q34 0 59 -24t25 -58q0 -35 -25 -58.5t-59 -23.5zM193 371q0 9 8.5 16.5t17.5 7.5h17q10 0 18 -7.5t8 -16.5l21 -582v-250q0 -26 -31 -26h-51q-11 0 -19 8t-8 18v248z" />
<glyph unicode="&#xa2;" horiz-adv-x="1089" d="M115 473q0 211 143 352.5t346 141.5q25 0 86 -9l15 50q3 11 12.5 16t21.5 2l15 -4q24 -7 18 -35l-12 -45q65 -21 115.5 -55t76.5 -66q19 -22 -2 -43l-16 -16q-24 -24 -51 4q-57 57 -148 88l-209 -780q33 -8 80 -8q49 0 95.5 13.5t75.5 28t61.5 41t40.5 35t26 27.5 q22 25 45 2l19 -16q18 -18 6 -37q-17 -25 -48 -53.5t-77 -59t-111.5 -50.5t-134.5 -20q-42 0 -102 11l-53 -203q-6 -20 -33 -16l-15 2q-12 1 -17.5 11t-2.5 21l53 203q-142 50 -230.5 176.5t-88.5 290.5zM205 475q0 -131 69.5 -234.5t184.5 -148.5l209 780q-35 7 -64 7 q-162 0 -280.5 -118.5t-118.5 -285.5z" />
<glyph unicode="&#xa3;" d="M248 29v18q47 104 72.5 217.5t25.5 188.5q0 71 -16 165h-88q-12 0 -19.5 9.5t-7.5 21.5v8q0 9 8.5 17t18.5 8h73q-2 9 -23.5 88.5t-31.5 141.5t-10 128q0 183 121.5 298.5t294.5 115.5q122 0 222 -50.5t136 -98.5q16 -22 -4 -45l-16 -19q-21 -21 -46 4q-13 13 -31 27 t-57 39t-94 41t-114 16q-134 0 -228 -92t-94 -238q0 -64 11.5 -129t31 -137.5t23.5 -89.5h413q13 0 20 -9t7 -20v-8q0 -11 -7.5 -19t-19.5 -8h-397q12 -73 12 -165q-3 -198 -76 -369h615q24 0 24 -29v-30q0 -9 -7 -17t-17 -8h-701q-10 0 -18 9t-6 20z" />
<glyph unicode="&#xa4;" horiz-adv-x="1001" d="M197 332l-21 24q-10 7 -10 17.5t6 15.5l109 109q-54 73 -54 159q0 89 54 162l-109 107q-15 20 4 37l21 22q16 13 39 4l104 -108q67 53 160 53q92 0 162 -55l108 108q4 6 16.5 5.5t20.5 -11.5l22 -18q15 -20 0 -39l-104 -105q51 -68 51 -160q0 -93 -51 -159l104 -105 q14 -22 -6 -39l-20 -22q-19 -16 -37 -2l-104 104q-71 -53 -162 -53q-89 0 -160 53l-104 -108q-18 -11 -39 4zM365 518q58 -55 141 -55q82 0 137 55q57 57 57 139q0 80 -57 140q-54 57 -139 57q-82 0 -139 -57q-58 -58 -58 -140q0 -84 58 -139z" />
<glyph unicode="&#xa5;" d="M254 285q-11 0 -18 7t-7 17v13q0 11 6.5 18.5t18.5 7.5h307v180h-307q-10 0 -17.5 7t-7.5 18v12q0 11 7 19t18 8h307v104l-481 707q-9 12 -4 21.5t20 9.5h62q16 0 26 -13l426 -639l434 639q10 13 27 13h62q15 0 20 -9.5t-4 -21.5l-492 -705v-106h308q24 0 24 -27v-12 q0 -11 -7 -18t-17 -7h-308v-180h308q24 0 24 -26v-13q0 -11 -6.5 -17.5t-17.5 -6.5h-308v-258q0 -11 -8 -19t-18 -8h-45q-10 0 -17.5 8t-7.5 19v258h-307z" />
<glyph unicode="&#xa6;" horiz-adv-x="423" d="M207 795q-11 0 -19 8t-8 18v707q0 12 8 19t19 7h12q11 0 18 -7t7 -19v-707q0 -10 -8 -18t-19 -8h-10zM180 242q0 10 8 18t19 8h12q10 0 17.5 -7.5t7.5 -18.5v-705q0 -10 -8 -17t-19 -7h-10q-11 0 -19 7t-8 17v705z" />
<glyph unicode="&#xa7;" horiz-adv-x="1153" d="M188 -233q19 22 39 2q14 -14 39 -33t73.5 -49.5t116 -51t136.5 -20.5q131 0 231.5 70.5t100.5 179.5q0 119 -95 195t-290 141q-92 30 -159.5 64.5t-123.5 80.5t-84.5 108t-28.5 138q0 127 133 246q-131 123 -131 266q0 47 15 94.5t49.5 94t84 82t125.5 57.5t167 22 q57 0 114 -10.5t97.5 -26t73 -31t49.5 -26.5l16 -10q8 -4 12 -14.5t-4 -26.5l-20 -31q-16 -23 -41 -8l-7 4q-6 4 -13 8.5t-19.5 11.5t-25 13.5t-30 14t-34.5 14t-38 12.5t-41 10.5t-43.5 7t-45.5 2.5q-91 0 -160.5 -24t-108.5 -63.5t-58 -84.5t-19 -92q0 -112 86 -185 t249 -124q89 -30 151.5 -55.5t123 -61t96.5 -74.5t58 -91.5t22 -115.5q0 -26 -6 -51t-18 -48.5t-23 -41.5t-28.5 -38.5t-26.5 -30t-25.5 -25.5t-17.5 -17q143 -118 143 -278q0 -96 -60.5 -174t-160 -121t-213.5 -43q-81 0 -158 20.5t-132.5 52t-84.5 52t-47 37.5 q-22 22 -6 43zM567 293q139 -44 238 -100q1 1 14.5 13t21.5 19.5t22 22.5t23 29.5t18.5 32.5t14.5 39t5 42q0 60 -25 107t-79 84.5t-118 65.5t-163 61q-127 34 -193 84q-54 -51 -76 -87q-30 -53 -30 -110q0 -114 80.5 -180t246.5 -123z" />
<glyph unicode="&#xa8;" horiz-adv-x="847" d="M653 1208q-33 0 -56.5 23.5t-23.5 56.5q0 35 23 59.5t57 24.5q35 0 59.5 -24.5t24.5 -59.5q0 -33 -24.5 -56.5t-59.5 -23.5zM262 1208q-34 0 -58 24t-24 56q0 35 24 59.5t58 24.5q35 0 58.5 -24.5t23.5 -59.5q0 -33 -23.5 -56.5t-58.5 -23.5z" />
<glyph unicode="&#xa9;" horiz-adv-x="1738" d="M131 717q0 200 98.5 369.5t268 268.5t370.5 99q150 0 286.5 -58.5t236 -157.5t158.5 -235.5t59 -285.5q0 -150 -59 -286.5t-158.5 -235t-236 -157t-286.5 -58.5t-286.5 58t-235.5 157t-157 235.5t-58 286.5zM211 717q0 -178 88 -329.5t239.5 -240t329.5 -88.5t329.5 88.5 t240 240t88.5 329.5t-88.5 329t-240 238.5t-329.5 87.5q-133 0 -255 -52t-210 -139.5t-140 -209t-52 -254.5zM498 713q0 162 113.5 275.5t275.5 113.5q141 0 237 -78q9 -8 10 -19t-6 -20l-18 -22q-14 -19 -35 -2q-75 59 -186 59q-127 0 -214 -89t-87 -216t87 -215t214 -88 q100 0 184 63q23 17 39 -4l18 -25q13 -19 -2 -34q-98 -88 -241 -88q-161 0 -275 114t-114 275z" />
<glyph unicode="&#xaa;" horiz-adv-x="712" d="M299 825q-85 0 -140 55t-55 146q0 88 67.5 143.5t182.5 55.5q83 0 144 -23q0 107 -22.5 147t-100.5 40q-20 0 -39.5 -2t-36 -5.5t-30 -7t-26.5 -8t-20 -7.5t-15 -7t-9 -4q-19 -6 -23 10l-8 26q-6 17 10 25q90 45 201 45q34 0 61.5 -5t46.5 -16.5t33 -23.5t22.5 -34.5 t14 -39.5t7.5 -48.5t2.5 -52t0.5 -58.5v-316q0 -9 -6 -14.5t-14 -5.5h-23q-17 0 -20 16l-6 47q-92 -78 -199 -78zM305 889q59 0 112 27.5t79 60.5v164q-81 28 -146 28q-79 0 -130.5 -40.5t-51.5 -100.5q0 -62 39 -100.5t98 -38.5z" />
<glyph unicode="&#xab;" horiz-adv-x="868" d="M440 469q-12 15 0 35l222 315q13 19 32 19h33q12 0 15.5 -11t-5.5 -26l-192 -314l192 -321q9 -15 5.5 -26t-15.5 -11h-33q-19 0 -32 18zM334 147l-221 322q-12 15 0 35l221 315q13 19 33 19h32q12 0 16 -11t-5 -26l-193 -314l193 -321q9 -15 5 -26t-16 -11h-32 q-20 0 -33 18z" />
<glyph unicode="&#xac;" horiz-adv-x="1193" d="M201 670q-11 0 -19 8t-8 18v31q0 11 8 19t19 8h788q10 0 17.5 -8t7.5 -19v-410q0 -10 -8 -17t-19 -7h-33q-11 0 -18.5 7t-7.5 17v353h-727z" />
<glyph unicode="&#xad;" horiz-adv-x="808" d="M172 473q-10 0 -17.5 8t-7.5 19v22q0 12 7 19.5t18 7.5h463q11 0 19 -7.5t8 -19.5v-22q0 -10 -8 -18.5t-19 -8.5h-463z" />
<glyph unicode="&#xae;" horiz-adv-x="1738" d="M131 717q0 200 98.5 369.5t268 268.5t370.5 99q150 0 286.5 -58.5t236 -157.5t158.5 -235.5t59 -285.5q0 -150 -59 -286.5t-158.5 -235t-236 -157t-286.5 -58.5t-286.5 58t-235.5 157t-157 235.5t-58 286.5zM211 717q0 -178 88 -329.5t239.5 -240t329.5 -88.5t329.5 88.5 t240 240t88.5 329.5t-88.5 329t-240 238.5t-329.5 87.5q-133 0 -255 -52t-210 -139.5t-140 -209t-52 -254.5zM606 369v702q0 11 7.5 19t17.5 8h299q107 0 183.5 -59.5t76.5 -172.5q0 -100 -59.5 -157t-135.5 -72l144 -262q6 -11 1 -21t-18 -10h-47q-17 0 -28 21l-138 266 h-28h-193v-262q0 -27 -24 -27h-33q-10 0 -17.5 8t-7.5 19zM688 707h242q72 0 124 43.5t52 115.5q0 84 -55.5 121t-145.5 37h-217v-317z" />
<glyph unicode="&#xaf;" horiz-adv-x="847" d="M145 1219q-26 0 -26 24v27q0 11 7 18.5t19 7.5h557q11 0 19 -8t8 -18v-27q0 -10 -8 -17t-19 -7h-557z" />
<glyph unicode="&#xb0;" horiz-adv-x="774" d="M387 889q-119 0 -201 82t-82 200q0 119 82 201t201 82q116 0 199.5 -82.5t83.5 -200.5t-83.5 -200t-199.5 -82zM387 961q84 0 146.5 62t62.5 148q0 84 -62.5 146.5t-146.5 62.5q-86 0 -148.5 -62t-62.5 -147q0 -86 62.5 -148t148.5 -62z" />
<glyph unicode="&#xb1;" d="M571 524v258h-350q-10 0 -18 8t-8 19v31q0 10 7.5 18t18.5 8h350v344q0 10 8 17.5t19 7.5h33q11 0 18.5 -7.5t7.5 -17.5v-344h353q10 0 17 -7.5t7 -18.5v-31q0 -11 -7 -19t-17 -8h-353v-258q0 -10 -7.5 -18t-18.5 -8h-33q-11 0 -19 8t-8 18zM195 178v31q0 11 8 19t18 8 h789q10 0 17 -8t7 -19v-31q0 -11 -7 -18.5t-17 -7.5h-789q-11 0 -18.5 8t-7.5 18z" />
<glyph unicode="&#xb2;" horiz-adv-x="589" d="M90 1032q-18 0 -18 17v18l284 266q74 71 74 135q0 49 -39 86t-108 37q-73 0 -140 -67q-4 -6 -10.5 -6t-9.5 4l-27 24q-10 10 -2 21q3 4 8 10t23.5 22t39.5 28t54 22t68 10q101 0 159 -53.5t58 -130.5q0 -94 -94 -181l-217 -198h292q15 0 15 -17v-30q0 -17 -15 -17h-395z " />
<glyph unicode="&#xb3;" horiz-adv-x="610" d="M293 1012q-83 0 -138 28t-77 56q-11 11 0 22l22 23q14 13 27 0l8 -7q8 -8 13.5 -12.5t16.5 -12.5t23 -13t27.5 -10.5t35 -8t40.5 -2.5q69 0 113.5 33t44.5 84q0 49 -43 83t-123 34h-93q-16 0 -16 20v25q0 16 16 16h93q66 0 107.5 29t41.5 84q0 50 -39 80t-100 30 q-85 0 -146 -61q-11 -11 -20 -2l-27 22q-12 12 -2 23q3 3 8.5 9t25.5 20.5t41.5 25.5t55 20t68.5 9q92 0 151.5 -45.5t59.5 -122.5q0 -48 -32.5 -88.5t-74.5 -59.5q5 -2 13.5 -5t30 -16t38 -29t30 -44t13.5 -61q0 -76 -65 -126t-168 -50z" />
<glyph unicode="&#xb4;" horiz-adv-x="618" d="M188 1143q-14 -5 -18.5 -3.5t-9.5 11.5l-13 27q-7 17 13 28l338 178q23 14 34 -6l21 -41q11 -22 -18 -37z" />
<glyph unicode="&#xb5;" horiz-adv-x="1073" d="M188 -457v1372q0 12 9.5 21.5t21.5 9.5h31q12 0 20.5 -9.5t8.5 -21.5v-518q0 -169 62.5 -250t205.5 -81q175 0 299 176v673q0 31 31 31h30q11 0 20 -9.5t9 -21.5v-884q0 -12 -9 -21.5t-20 -9.5h-18q-11 0 -19 9t-10 20l-8 92q-14 -18 -34.5 -37.5t-59 -46t-95.5 -43.5 t-122 -17q-178 0 -262 93v-527q0 -30 -31 -30h-33q-27 0 -27 30z" />
<glyph unicode="&#xb6;" horiz-adv-x="1470" d="M485 580q-118 0 -211.5 60.5t-142.5 157t-49 206.5q0 178 117 304t286 126h877q10 0 18.5 -8t8.5 -19v-25q0 -12 -8 -19t-19 -7h-219v-1817q0 -10 -8 -18t-19 -8h-22q-10 0 -18.5 7t-8.5 19v1817h-358v-1817q0 -10 -8 -18t-19 -8h-23q-10 0 -18 6.5t-8 19.5v1041h-148z " />
<glyph unicode="&#xb7;" horiz-adv-x="460" d="M231 453q-34 0 -59 24t-25 58q0 35 25 58t59 23q35 0 58.5 -23t23.5 -58q0 -34 -23.5 -58t-58.5 -24z" />
<glyph unicode="&#xb8;" horiz-adv-x="505" d="M238 4l88 -4h-4l-89 -141q12 4 39 4q74 0 130.5 -41t56.5 -125q0 -82 -61 -131t-152 -49q-99 0 -166 63q-12 12 -2 27l20 39q10 15 27 2q47 -51 117 -51q60 0 94.5 25t34.5 71q0 45 -33.5 68.5t-87.5 23.5q-58 0 -103 -18q-10 -4 -20.5 5.5t-5.5 18.5z" />
<glyph unicode="&#xb9;" horiz-adv-x="362" d="M201 1032q-17 0 -17 17v493l-96 -57q-12 -6 -18 4l-13 20q-6 13 6 23l150 106h25q20 0 20 -16v-573q0 -7 -5 -12t-11 -5h-41z" />
<glyph unicode="&#xba;" horiz-adv-x="731" d="M365 807q-118 0 -184 85.5t-66 235.5q0 153 66 239.5t184 86.5q119 0 185 -86.5t66 -239.5q0 -150 -66 -235.5t-185 -85.5zM365 874q85 0 131.5 67t46.5 187q0 122 -47 191.5t-131 69.5q-83 0 -130 -69.5t-47 -191.5q0 -120 47 -187t130 -67z" />
<glyph unicode="&#xbb;" horiz-adv-x="868" d="M459 166l192 321l-192 314q-9 15 -5.5 26t15.5 11h33q20 0 33 -19l221 -315q12 -20 0 -35l-221 -322q-13 -18 -33 -18h-33q-12 0 -15.5 11t5.5 26zM141 129q-12 0 -15.5 11t5.5 26l193 321l-193 314q-9 15 -5.5 26t15.5 11h33q20 0 33 -19l221 -315q12 -20 0 -35 l-221 -322q-13 -18 -33 -18h-33z" />
<glyph unicode="&#xbc;" horiz-adv-x="1273" d="M156 29l786 1394q7 11 27 11h30q12 0 17.5 -8.5t-0.5 -20.5l-787 -1395q-6 -10 -26 -10h-31q-12 0 -17 8.5t1 20.5zM242 827q-17 0 -17 17v493l-96 -57q-11 -6 -18 4l-13 21q-6 12 6 22l150 107h25q20 0 20 -17v-573q0 -7 -5 -12t-11 -5h-41zM647 160v18l387 428h29 q8 0 14 -5.5t6 -12.5v-379h80q7 0 13 -5t6 -11v-33q0 -6 -6 -11.5t-13 -5.5h-80v-125q0 -7 -6 -12.5t-14 -5.5h-35q-8 0 -14 5.5t-6 12.5v123h-342q-8 0 -13.5 5.5t-5.5 13.5zM764 211h244v266z" />
<glyph unicode="&#xbd;" horiz-adv-x="1327" d="M156 29l786 1394q7 11 27 11h30q12 0 17.5 -8.5t-0.5 -20.5l-787 -1395q-6 -10 -26 -10h-31q-12 0 -17 8.5t1 20.5zM242 827q-17 0 -17 17v493l-96 -57q-11 -6 -18 4l-13 21q-6 12 6 22l150 107h25q20 0 20 -17v-573q0 -7 -5 -12t-11 -5h-41zM795 16v19l284 266 q71 68 74 135q0 49 -39 86t-108 37q-73 0 -140 -67q-10 -13 -20 -3l-27 25q-10 10 -2 21q3 4 8 10t23.5 22t39.5 28t54 22t68 10q101 0 159 -53.5t58 -131.5q0 -93 -94 -180l-218 -199h293q15 0 15 -16v-31q0 -16 -15 -16h-395q-18 0 -18 16z" />
<glyph unicode="&#xbe;" horiz-adv-x="1423" d="M322 807q-83 0 -138.5 28t-77.5 56q-11 11 0 22l23 23q13 14 27 0q1 -1 8.5 -8t13 -11.5t16.5 -12t22.5 -13t27 -11t35 -8t40.5 -2.5q69 0 113.5 33t44.5 84q0 49 -43 83t-123 34h-92q-16 0 -16 20v25q0 16 16 16h92q66 0 108 29t42 84q0 50 -39 80.5t-100 30.5 q-84 0 -146 -62q-11 -11 -20 -2l-27 23q-12 12 -2 22q3 3 8.5 9t25.5 20.5t41.5 25.5t55 20t68.5 9q92 0 151.5 -45.5t59.5 -122.5q0 -48 -32 -88t-75 -59q5 -2 13.5 -5t30 -16t38 -29.5t30 -44.5t13.5 -61q0 -76 -65 -126t-168 -50zM303 29l787 1394q7 11 26 11h31 q12 0 17 -8.5t-1 -20.5l-786 -1395q-6 -10 -27 -10h-31q-12 0 -17 8.5t1 20.5zM795 160v18l387 428h28q8 0 14.5 -5.5t6.5 -12.5v-379h80q7 0 12.5 -5t5.5 -11v-33q0 -6 -5.5 -11.5t-12.5 -5.5h-80v-125q0 -7 -6.5 -12.5t-14.5 -5.5h-34q-8 0 -14.5 5.5t-6.5 12.5v123h-342 q-7 0 -12.5 5.5t-5.5 13.5zM911 211h244v266z" />
<glyph unicode="&#xbf;" horiz-adv-x="888" d="M494 803q-35 0 -59.5 23.5t-24.5 58.5q0 34 24.5 58t59.5 24q34 0 57.5 -24t23.5 -58q0 -35 -23.5 -58.5t-57.5 -23.5zM446 240v116q0 29 27 29h39q25 0 25 -29v-118q0 -46 -25.5 -88t-63.5 -72t-82 -63.5t-82 -64t-63.5 -74t-25.5 -91.5q0 -85 68 -149t183 -64 q39 0 74.5 6.5t63.5 18.5t50.5 24.5t41.5 29t30 27t22.5 23.5t12.5 14q15 15 35 2l21 -14q22 -15 6 -39q-5 -7 -14 -19t-42 -42t-71.5 -52.5t-102 -41.5t-133.5 -19q-153 0 -245.5 80.5t-92.5 208.5q0 75 35.5 136.5t86 101.5t101 74.5t86 72t35.5 76.5z" />
<glyph unicode="&#xc0;" horiz-adv-x="1333" d="M23 0q-24 0 -15 25l631 1415q7 14 25 14h6q19 0 26 -14l625 -1415q8 -25 -18 -25h-54q-19 0 -28 18l-166 377h-783l-163 -377q-9 -18 -29 -18h-57zM309 475h711l-350 815h-4zM852 1602l-352 161q-19 9 -8 31l20 41q10 18 35 6l336 -184q19 -11 12 -29l-10 -20 q-8 -17 -33 -6z" />
<glyph unicode="&#xc1;" horiz-adv-x="1333" d="M23 0q-24 0 -15 25l631 1415q7 14 25 14h6q19 0 26 -14l625 -1415q8 -25 -18 -25h-54q-19 0 -28 18l-166 377h-783l-163 -377q-9 -18 -29 -18h-57zM309 475h711l-350 815h-4zM532 1602q-24 -11 -32 6l-11 20q-7 18 13 29l336 184q24 12 34 -6l21 -41q11 -22 -8 -31z" />
<glyph unicode="&#xc2;" horiz-adv-x="1333" d="M23 0q-24 0 -15 25l631 1415q7 14 25 14h6q19 0 26 -14l625 -1415q8 -25 -18 -25h-54q-19 0 -28 18l-166 377h-783l-163 -377q-9 -18 -29 -18h-57zM309 475h711l-350 815h-4zM440 1573q-17 -13 -30 4l-19 22q-11 14 8 29l248 201q10 10 21 10h6q10 0 20 -10l248 -201 q19 -15 8 -29l-18 -22q-13 -17 -31 -4l-231 172z" />
<glyph unicode="&#xc3;" horiz-adv-x="1333" d="M23 0q-24 0 -15 25l631 1415q7 14 25 14h6q19 0 26 -14l625 -1415q8 -25 -18 -25h-54q-19 0 -28 18l-166 377h-783l-163 -377q-9 -18 -29 -18h-57zM309 475h711l-350 815h-4zM403 1636l-24 11q-19 6 -12 28q32 86 71 125q50 51 119 51q41 0 70.5 -19t46.5 -46.5t32 -55 t35 -46.5t47 -19q78 0 117 121q3 10 12.5 14.5t18.5 -0.5l22 -8q18 -9 13 -27q-3 -11 -7.5 -25t-20 -43t-35 -51t-53 -39.5t-73.5 -17.5t-69.5 19.5t-46.5 47.5t-32.5 55.5t-36 47t-46.5 19.5q-27 0 -48.5 -13t-35.5 -37t-20 -39t-13 -38q-3 -11 -12 -15t-19 0z" />
<glyph unicode="&#xc4;" horiz-adv-x="1333" d="M23 0q-24 0 -15 25l631 1415q7 14 25 14h6q19 0 26 -14l625 -1415q8 -25 -18 -25h-54q-19 0 -28 18l-166 377h-783l-163 -377q-9 -18 -29 -18h-57zM309 475h711l-350 815h-4zM887 1628q-34 0 -58 24t-24 56q0 35 24 59.5t58 24.5q35 0 59.5 -24.5t24.5 -59.5 q0 -33 -24.5 -56.5t-59.5 -23.5zM459 1628q-34 0 -58 24t-24 56q0 35 24 59.5t58 24.5q35 0 59.5 -24.5t24.5 -59.5q0 -33 -24.5 -56.5t-59.5 -23.5z" />
<glyph unicode="&#xc5;" horiz-adv-x="1333" d="M23 0q-24 0 -15 25l631 1415q7 14 25 14h6q19 0 26 -14l625 -1415q8 -25 -18 -25h-54q-19 0 -28 18l-166 377h-783l-163 -377q-9 -18 -29 -18h-57zM309 475h711l-350 815h-4zM674 1544q-92 0 -154.5 62.5t-62.5 154.5t62.5 155.5t154.5 63.5q91 0 155 -63.5t64 -155.5 t-64 -154.5t-155 -62.5zM674 1610q62 0 106.5 45t44.5 106q0 62 -45 107t-106 45q-62 0 -107 -45.5t-45 -106.5t45 -106t107 -45z" />
<glyph unicode="&#xc6;" horiz-adv-x="1847" d="M-6 0q-9 0 -13 5t-2.5 13t7.5 17l870 1364q11 18 21 26.5t30 8.5h805q12 0 19.5 -8t7.5 -19v-33q0 -11 -7.5 -18.5t-19.5 -7.5h-756v-568h658q10 0 18 -8t8 -18v-35q0 -27 -26 -27h-658v-606h756q27 0 27 -29v-30q0 -11 -7.5 -19t-19.5 -8h-819q-11 0 -19 8t-8 19v368 h-544l-238 -377q-13 -18 -33 -18h-57zM369 475h497v782z" />
<glyph unicode="&#xc7;" horiz-adv-x="1464" d="M115 715q0 151 58.5 288t157.5 235.5t236.5 157t288.5 58.5q289 0 498 -190q8 -8 8.5 -18.5t-6.5 -18.5l-33 -35q-17 -16 -35 2q-189 168 -432 168q-176 0 -323 -87.5t-231.5 -236t-84.5 -323.5q0 -174 84.5 -321.5t231.5 -234.5t323 -87q124 0 228 44.5t204 127.5 q20 17 33 4l35 -35q8 -6 8 -16.5t-8 -18.5q-198 -195 -494 -198l-76 -121q12 4 39 4q74 0 130.5 -41t56.5 -125q0 -82 -61 -131t-152 -49q-99 0 -166 63q-12 12 -2 27l20 39q10 15 27 2q47 -51 117 -51q60 0 94.5 25t34.5 71q0 45 -33.5 68.5t-87.5 23.5q-58 0 -103 -18 q-10 -4 -20.5 5.5t-5.5 18.5l104 193q-138 14 -260.5 76t-211 158t-140 225t-51.5 272z" />
<glyph unicode="&#xc8;" horiz-adv-x="1185" d="M207 27v1380q0 11 8 19t18 8h822q10 0 18 -8t8 -19v-35q0 -10 -7.5 -18t-18.5 -8h-750v-566h649q11 0 19 -8t8 -18v-35q0 -11 -8.5 -19t-18.5 -8h-649v-606h750q10 0 18 -8t8 -19v-32q0 -11 -8 -19t-18 -8h-822q-10 0 -18 8t-8 19zM813 1602l-352 161q-19 9 -8 31l20 41 q10 18 35 6l336 -184q19 -11 12 -29l-10 -20q-8 -17 -33 -6z" />
<glyph unicode="&#xc9;" horiz-adv-x="1185" d="M207 27v1380q0 11 8 19t18 8h822q10 0 18 -8t8 -19v-35q0 -10 -7.5 -18t-18.5 -8h-750v-566h649q11 0 19 -8t8 -18v-35q0 -11 -8.5 -19t-18.5 -8h-649v-606h750q10 0 18 -8t8 -19v-32q0 -11 -8 -19t-18 -8h-822q-10 0 -18 8t-8 19zM494 1602q-25 -11 -33 6l-10 20 q-7 18 12 29l336 184q25 12 35 -6l20 -41q11 -22 -8 -31z" />
<glyph unicode="&#xca;" horiz-adv-x="1185" d="M207 27v1380q0 11 8 19t18 8h822q10 0 18 -8t8 -19v-35q0 -10 -7.5 -18t-18.5 -8h-750v-566h649q11 0 19 -8t8 -18v-35q0 -11 -8.5 -19t-18.5 -8h-649v-606h750q10 0 18 -8t8 -19v-32q0 -11 -8 -19t-18 -8h-822q-10 0 -18 8t-8 19zM401 1573q-17 -13 -30 4l-19 22 q-11 14 8 29l248 201q10 10 21 10h6q10 0 20 -10l248 -201q19 -15 8 -29l-18 -22q-13 -17 -31 -4l-231 172z" />
<glyph unicode="&#xcb;" horiz-adv-x="1185" d="M207 27v1380q0 11 8 19t18 8h822q10 0 18 -8t8 -19v-35q0 -10 -7.5 -18t-18.5 -8h-750v-566h649q11 0 19 -8t8 -18v-35q0 -11 -8.5 -19t-18.5 -8h-649v-606h750q10 0 18 -8t8 -19v-32q0 -11 -8 -19t-18 -8h-822q-10 0 -18 8t-8 19zM856 1628q-34 0 -58 24t-24 56 q0 35 24 59.5t58 24.5q35 0 59.5 -24.5t24.5 -59.5q0 -33 -24.5 -56.5t-59.5 -23.5zM428 1628q-34 0 -58 24t-24 56q0 35 24 59.5t58 24.5q35 0 59.5 -24.5t24.5 -59.5q0 -33 -24.5 -56.5t-59.5 -23.5z" />
<glyph unicode="&#xcc;" horiz-adv-x="512" d="M207 27v1380q0 11 8 19t18 8h46q10 0 18 -8t8 -19v-1380q0 -12 -9 -19.5t-20 -7.5h-43q-10 0 -18 8t-8 19zM434 1602l-352 161q-19 9 -8 31l20 41q10 18 35 6l336 -184q19 -11 12 -29l-10 -20q-8 -17 -33 -6z" />
<glyph unicode="&#xcd;" horiz-adv-x="512" d="M207 27v1380q0 11 8 19t18 8h46q10 0 18 -8t8 -19v-1380q0 -12 -9 -19.5t-20 -7.5h-43q-10 0 -18 8t-8 19zM115 1602q-25 -11 -33 6l-10 20q-7 18 12 29l336 184q25 12 35 -6l20 -41q11 -22 -8 -31z" />
<glyph unicode="&#xce;" horiz-adv-x="512" d="M207 27v1380q0 11 8 19t18 8h46q10 0 18 -8t8 -19v-1380q0 -12 -9 -19.5t-20 -7.5h-43q-10 0 -18 8t-8 19zM23 1573q-18 -13 -31 4l-19 22q-11 13 9 29l247 201q10 10 21 10h6q10 0 20 -10l248 -201q19 -15 8 -29l-18 -22q-13 -17 -31 -4l-231 172z" />
<glyph unicode="&#xcf;" horiz-adv-x="512" d="M207 27v1380q0 11 8 19t18 8h46q10 0 18 -8t8 -19v-1380q0 -12 -9 -19.5t-20 -7.5h-43q-10 0 -18 8t-8 19zM469 1628q-34 0 -58 24t-24 56q0 35 24 59.5t58 24.5q35 0 59.5 -24.5t24.5 -59.5q0 -33 -24.5 -56.5t-59.5 -23.5zM41 1628q-34 0 -58 24t-24 56q0 35 24 59.5 t58 24.5q35 0 59.5 -24.5t24.5 -59.5q0 -33 -24.5 -56.5t-59.5 -23.5z" />
<glyph unicode="&#xd0;" horiz-adv-x="1503" d="M207 27v653h-72q-10 0 -17 8t-7 19v10q0 11 7 18.5t17 7.5h72v664q0 11 7 19t17 8h435q146 0 279.5 -57t230 -153t153.5 -228t57 -277q0 -196 -96.5 -361.5t-262.5 -261.5t-361 -96h-435q-10 0 -17 8t-7 19zM303 88h346q176 0 321 82.5t228.5 227.5t83.5 321 q0 174 -83.5 318t-229 226.5t-320.5 82.5h-346v-603h512q11 0 19 -8t8 -18v-12q0 -10 -8 -17.5t-19 -7.5h-512v-592z" />
<glyph unicode="&#xd1;" horiz-adv-x="1562" d="M209 27v1400q0 12 9.5 19.5t21.5 7.5h14q22 0 33 -16l970 -1264h3v1233q0 11 8 19t18 8h41q11 0 19 -8t8 -19v-1401q0 -13 -10 -19.5t-23 -6.5h-6q-22 0 -33 16l-979 1276h-2v-1245q0 -11 -8.5 -19t-18.5 -8h-38q-10 0 -18.5 8t-8.5 19zM524 1636l-24 11q-20 7 -13 28 q35 92 79 132q49 44 112 44q41 0 70.5 -19t46.5 -46.5t32 -55t35 -46.5t47 -19q78 0 117 121q3 10 12.5 14.5t18.5 -0.5l22 -8q18 -9 13 -27q-3 -11 -7.5 -25t-20 -43t-35 -51t-53 -39.5t-73.5 -17.5t-69.5 19.5t-46.5 47.5t-32.5 55.5t-36 47t-46.5 19.5q-27 0 -48.5 -13 t-35.5 -37t-20 -39t-13 -38q-3 -11 -12 -15t-19 0z" />
<glyph unicode="&#xd2;" horiz-adv-x="1705" d="M115 715q0 151 58 288t156.5 236t235 157t287.5 58q152 0 289 -58t235.5 -157t156.5 -236t58 -288q0 -152 -58 -288.5t-156.5 -234t-235.5 -155t-289 -57.5q-151 0 -287.5 57.5t-235 155t-156.5 234t-58 288.5zM205 715q0 -176 86.5 -324.5t235.5 -234.5t325 -86 t325.5 86t236.5 234.5t87 324.5t-87 325.5t-236.5 236.5t-325.5 87t-325 -87t-235.5 -236.5t-86.5 -325.5zM1032 1602l-352 161q-19 9 -8 31l20 41q10 18 35 6l336 -184q19 -11 12 -29l-10 -20q-8 -17 -33 -6z" />
<glyph unicode="&#xd3;" horiz-adv-x="1705" d="M115 715q0 151 58 288t156.5 236t235 157t287.5 58q152 0 289 -58t235.5 -157t156.5 -236t58 -288q0 -152 -58 -288.5t-156.5 -234t-235.5 -155t-289 -57.5q-151 0 -287.5 57.5t-235 155t-156.5 234t-58 288.5zM205 715q0 -176 86.5 -324.5t235.5 -234.5t325 -86 t325.5 86t236.5 234.5t87 324.5t-87 325.5t-236.5 236.5t-325.5 87t-325 -87t-235.5 -236.5t-86.5 -325.5zM713 1602q-25 -11 -33 6l-10 20q-7 18 12 29l336 184q25 12 35 -6l20 -41q11 -22 -8 -31z" />
<glyph unicode="&#xd4;" horiz-adv-x="1705" d="M115 715q0 151 58 288t156.5 236t235 157t287.5 58q152 0 289 -58t235.5 -157t156.5 -236t58 -288q0 -152 -58 -288.5t-156.5 -234t-235.5 -155t-289 -57.5q-151 0 -287.5 57.5t-235 155t-156.5 234t-58 288.5zM205 715q0 -176 86.5 -324.5t235.5 -234.5t325 -86 t325.5 86t236.5 234.5t87 324.5t-87 325.5t-236.5 236.5t-325.5 87t-325 -87t-235.5 -236.5t-86.5 -325.5zM621 1573q-18 -13 -31 4l-19 22q-11 13 9 29l247 201q10 10 21 10h6q10 0 20 -10l248 -201q19 -15 8 -29l-18 -22q-13 -17 -31 -4l-231 172z" />
<glyph unicode="&#xd5;" horiz-adv-x="1705" d="M115 715q0 151 58 288t156.5 236t235 157t287.5 58q152 0 289 -58t235.5 -157t156.5 -236t58 -288q0 -152 -58 -288.5t-156.5 -234t-235.5 -155t-289 -57.5q-151 0 -287.5 57.5t-235 155t-156.5 234t-58 288.5zM205 715q0 -176 86.5 -324.5t235.5 -234.5t325 -86 t325.5 86t236.5 234.5t87 324.5t-87 325.5t-236.5 236.5t-325.5 87t-325 -87t-235.5 -236.5t-86.5 -325.5zM584 1636l-25 11q-19 6 -12 28q32 86 71 125q50 51 119 51q41 0 70.5 -19t47 -46.5t32.5 -55t35 -46.5t47 -19q77 0 116 121q3 10 12.5 14.5t18.5 -0.5l23 -8 q17 -8 12 -27q-3 -11 -7.5 -25t-20 -43t-34.5 -51t-52.5 -39.5t-73.5 -17.5t-69.5 19.5t-47 47.5t-33 55.5t-36 47t-46.5 19.5q-27 0 -48.5 -13t-35.5 -37t-20 -39t-13 -38q-7 -25 -30 -15z" />
<glyph unicode="&#xd6;" horiz-adv-x="1705" d="M115 715q0 151 58 288t156.5 236t235 157t287.5 58q152 0 289 -58t235.5 -157t156.5 -236t58 -288q0 -152 -58 -288.5t-156.5 -234t-235.5 -155t-289 -57.5q-151 0 -287.5 57.5t-235 155t-156.5 234t-58 288.5zM205 715q0 -176 86.5 -324.5t235.5 -234.5t325 -86 t325.5 86t236.5 234.5t87 324.5t-87 325.5t-236.5 236.5t-325.5 87t-325 -87t-235.5 -236.5t-86.5 -325.5zM1067 1628q-34 0 -58 24t-24 56q0 35 24 59.5t58 24.5q35 0 59.5 -24.5t24.5 -59.5q0 -33 -24.5 -56.5t-59.5 -23.5zM639 1628q-34 0 -58 24t-24 56q0 35 24 59.5 t58 24.5q35 0 59.5 -24.5t24.5 -59.5q0 -33 -24.5 -56.5t-59.5 -23.5z" />
<glyph unicode="&#xd7;" d="M328 403l-25 23q-7 8 -7 19t7 18l248 248l-248 247q-6 8 -6 20t6 19l23 23q8 8 20 8t19 -8l247 -248l248 250q7 6 18.5 5.5t18.5 -7.5l25 -23q16 -20 0 -36l-248 -250l248 -248q8 -7 8 -19t-8 -18l-25 -23q-6 -8 -17.5 -8.5t-17.5 6.5l-250 250l-250 -248q-6 -7 -17 -7 t-17 7z" />
<glyph unicode="&#xd8;" horiz-adv-x="1703" d="M170 57q-8 7 -8 18t8 19l129 127q-88 100 -136 227t-48 267q0 151 57.5 288t156 236t235 157t288.5 58q145 0 275.5 -53t230.5 -148l135 131q6 8 16.5 8t18.5 -8l8 -8q8 -8 8 -19t-8 -18l-133 -131q88 -101 138 -228t50 -265q0 -152 -58 -288.5t-157 -234t-236 -155 t-288 -57.5q-148 0 -278.5 51t-229.5 145l-131 -127q-6 -7 -16.5 -7t-18.5 7zM365 287l929 903q-187 174 -442 174q-176 0 -325 -87t-235.5 -236.5t-86.5 -325.5q0 -247 160 -428zM410 242q87 -83 200.5 -127.5t241.5 -44.5q176 0 325.5 86t236.5 234.5t87 324.5 q0 245 -164 430z" />
<glyph unicode="&#xd9;" horiz-adv-x="1460" d="M195 514v893q0 11 8 19t18 8h43q10 0 18.5 -8t8.5 -19v-883q0 -201 118.5 -325.5t319.5 -124.5q203 0 322.5 124t119.5 324v885q0 27 29 27h41q11 0 19 -8t8 -19v-893q0 -237 -148 -385.5t-391 -148.5q-241 0 -387.5 148.5t-146.5 385.5zM928 1602l-353 161q-19 9 -8 31 l21 41q10 18 35 6l335 -184q20 -11 13 -29l-10 -20q-8 -17 -33 -6z" />
<glyph unicode="&#xda;" horiz-adv-x="1460" d="M195 514v893q0 11 8 19t18 8h43q10 0 18.5 -8t8.5 -19v-883q0 -201 118.5 -325.5t319.5 -124.5q203 0 322.5 124t119.5 324v885q0 27 29 27h41q11 0 19 -8t8 -19v-893q0 -237 -148 -385.5t-391 -148.5q-241 0 -387.5 148.5t-146.5 385.5zM608 1602q-25 -11 -33 6l-10 20 q-7 18 13 29l335 184q25 12 35 -6l21 -41q11 -22 -8 -31z" />
<glyph unicode="&#xdb;" horiz-adv-x="1460" d="M195 514v893q0 11 8 19t18 8h43q10 0 18.5 -8t8.5 -19v-883q0 -201 118.5 -325.5t319.5 -124.5q203 0 322.5 124t119.5 324v885q0 27 29 27h41q11 0 19 -8t8 -19v-893q0 -237 -148 -385.5t-391 -148.5q-241 0 -387.5 148.5t-146.5 385.5zM516 1573q-18 -13 -31 4l-18 22 q-11 14 8 29l248 201q10 10 20 10h7q10 0 20 -10l248 -201q19 -15 8 -29l-18 -22q-13 -17 -31 -4l-232 172z" />
<glyph unicode="&#xdc;" horiz-adv-x="1460" d="M195 514v893q0 11 8 19t18 8h43q10 0 18.5 -8t8.5 -19v-883q0 -201 118.5 -325.5t319.5 -124.5q203 0 322.5 124t119.5 324v885q0 27 29 27h41q11 0 19 -8t8 -19v-893q0 -237 -148 -385.5t-391 -148.5q-241 0 -387.5 148.5t-146.5 385.5zM963 1628q-34 0 -58 24t-24 56 q0 35 24 59.5t58 24.5q35 0 59.5 -24.5t24.5 -59.5q0 -33 -24.5 -56.5t-59.5 -23.5zM535 1628q-34 0 -58 24t-24 56q0 35 24 59.5t58 24.5q35 0 59 -24.5t24 -59.5q0 -33 -24 -56.5t-59 -23.5z" />
<glyph unicode="&#xdd;" horiz-adv-x="1159" d="M530 27v669l-522 707q-9 12 -3.5 21.5t20.5 9.5h61q17 0 27 -13l467 -637l475 637q10 13 26 13h62q15 0 20 -9.5t-4 -21.5l-532 -705v-671q0 -11 -8.5 -19t-18.5 -8q-3 0 -12 -0.5t-14 0t-13 1t-12.5 2t-9 4.5t-7 8t-2.5 12zM420 1602q-25 -11 -33 6l-10 20q-7 18 12 29 l336 184q25 12 35 -6l20 -41q11 -22 -8 -31z" />
<glyph unicode="&#xde;" horiz-adv-x="1212" d="M207 27v1380q0 11 8 19t18 8h43q10 0 18.5 -8t8.5 -19v-227h371q125 0 231.5 -61.5t169 -167t62.5 -228.5q0 -127 -62.5 -234t-168.5 -169t-230 -62h-373v-231q0 -11 -9 -19t-24 -8h-37q-10 0 -18 8t-8 19zM303 350h367q152 0 261 109.5t109 265.5q0 150 -109.5 254 t-262.5 104h-365v-733z" />
<glyph unicode="&#xdf;" horiz-adv-x="1193" d="M172 29v874q0 275 103 413t331 138q153 0 252.5 -93t99.5 -255q0 -67 -25.5 -131t-56 -103.5t-56 -78.5t-25.5 -62q0 -15 31 -41t74.5 -61t87.5 -78.5t75 -108t31 -135.5q0 -165 -99.5 -247.5t-253.5 -82.5q-112 0 -223 54q-24 12 -14 37l10 26q13 30 33 19 q94 -47 194 -47q120 0 189 58t69 183q0 63 -31.5 118t-76.5 93.5t-89.5 72t-76 68.5t-31.5 68q0 31 27 76t59 86t59 99.5t27 111.5q0 120 -75.5 193t-186.5 73q-184 0 -263 -109.5t-79 -353.5v-874q0 -29 -29 -29h-36q-11 0 -18 9t-7 20z" />
<glyph unicode="&#xe0;" horiz-adv-x="980" d="M90 291q0 140 105.5 229.5t287.5 89.5q110 0 244 -43q0 68 -4.5 113.5t-17 87t-36 65t-62 37t-93.5 13.5q-44 0 -87 -6t-76 -15t-56.5 -17.5t-43 -17t-20.5 -8.5q-28 -11 -36 15l-11 28q-11 20 13 35q11 7 42 20.5t112.5 31.5t170.5 18q43 0 78 -4.5t62.5 -15.5 t49.5 -22.5t38 -32.5t27.5 -39t18.5 -48t11.5 -53t6.5 -60.5t2.5 -65t0.5 -71.5v-524q0 -12 -10.5 -21.5t-22.5 -9.5h-16q-26 0 -29 27l-10 86q-53 -53 -141.5 -94.5t-190.5 -41.5q-135 0 -221 85t-86 229zM178 293q0 -100 65.5 -163.5t164.5 -63.5q98 0 188.5 46t130.5 97 v272q-36 16 -103 32.5t-141 16.5q-135 0 -220 -66.5t-85 -170.5zM672 1145l-353 162q-18 9 -8 30l21 41q10 18 35 6l335 -184q20 -11 13 -29l-10 -20q-8 -17 -33 -6z" />
<glyph unicode="&#xe1;" horiz-adv-x="980" d="M90 291q0 140 105.5 229.5t287.5 89.5q110 0 244 -43q0 68 -4.5 113.5t-17 87t-36 65t-62 37t-93.5 13.5q-44 0 -87 -6t-76 -15t-56.5 -17.5t-43 -17t-20.5 -8.5q-28 -11 -36 15l-11 28q-11 20 13 35q11 7 42 20.5t112.5 31.5t170.5 18q43 0 78 -4.5t62.5 -15.5 t49.5 -22.5t38 -32.5t27.5 -39t18.5 -48t11.5 -53t6.5 -60.5t2.5 -65t0.5 -71.5v-524q0 -12 -10.5 -21.5t-22.5 -9.5h-16q-26 0 -29 27l-10 86q-53 -53 -141.5 -94.5t-190.5 -41.5q-135 0 -221 85t-86 229zM178 293q0 -100 65.5 -163.5t164.5 -63.5q98 0 188.5 46t130.5 97 v272q-36 16 -103 32.5t-141 16.5q-135 0 -220 -66.5t-85 -170.5zM346 1143q-14 -5 -19 -3.5t-10 11.5l-12 27q-7 17 12 28l338 178q24 14 35 -6l21 -41q11 -22 -19 -37z" />
<glyph unicode="&#xe2;" horiz-adv-x="980" d="M90 291q0 140 105.5 229.5t287.5 89.5q110 0 244 -43q0 68 -4.5 113.5t-17 87t-36 65t-62 37t-93.5 13.5q-44 0 -87 -6t-76 -15t-56.5 -17.5t-43 -17t-20.5 -8.5q-28 -11 -36 15l-11 28q-11 20 13 35q11 7 42 20.5t112.5 31.5t170.5 18q43 0 78 -4.5t62.5 -15.5 t49.5 -22.5t38 -32.5t27.5 -39t18.5 -48t11.5 -53t6.5 -60.5t2.5 -65t0.5 -71.5v-524q0 -12 -10.5 -21.5t-22.5 -9.5h-16q-26 0 -29 27l-10 86q-53 -53 -141.5 -94.5t-190.5 -41.5q-135 0 -221 85t-86 229zM178 293q0 -100 65.5 -163.5t164.5 -63.5q98 0 188.5 46t130.5 97 v272q-36 16 -103 32.5t-141 16.5q-135 0 -220 -66.5t-85 -170.5zM254 1126q-18 -13 -31 4l-18 23q-11 14 8 29l248 200q11 11 20 11h6q10 0 21 -11l248 -200q19 -15 8 -29l-19 -23q-13 -17 -30 -4l-232 172z" />
<glyph unicode="&#xe3;" horiz-adv-x="980" d="M90 291q0 140 105.5 229.5t287.5 89.5q110 0 244 -43q0 68 -4.5 113.5t-17 87t-36 65t-62 37t-93.5 13.5q-44 0 -87 -6t-76 -15t-56.5 -17.5t-43 -17t-20.5 -8.5q-28 -11 -36 15l-11 28q-11 20 13 35q11 7 42 20.5t112.5 31.5t170.5 18q43 0 78 -4.5t62.5 -15.5 t49.5 -22.5t38 -32.5t27.5 -39t18.5 -48t11.5 -53t6.5 -60.5t2.5 -65t0.5 -71.5v-524q0 -12 -10.5 -21.5t-22.5 -9.5h-16q-26 0 -29 27l-10 86q-53 -53 -141.5 -94.5t-190.5 -41.5q-135 0 -221 85t-86 229zM178 293q0 -100 65.5 -163.5t164.5 -63.5q98 0 188.5 46t130.5 97 v272q-36 16 -103 32.5t-141 16.5q-135 0 -220 -66.5t-85 -170.5zM223 1186l-24 10q-20 7 -13 29q35 92 79 132q49 44 112 44q41 0 70.5 -19.5t46.5 -46.5t32 -54.5t35 -47t47 -19.5q78 0 117 121q3 10 12.5 15t18.5 0l22 -9q17 -9 13 -26q-3 -11 -7.5 -25t-20 -43t-35 -51 t-53 -39.5t-73.5 -17.5t-69.5 19.5t-46.5 47t-32.5 55t-36 47t-46.5 19.5q-27 0 -48.5 -13t-35.5 -37t-20 -39t-13 -38q-7 -24 -31 -14z" />
<glyph unicode="&#xe4;" horiz-adv-x="980" d="M90 291q0 140 105.5 229.5t287.5 89.5q110 0 244 -43q0 68 -4.5 113.5t-17 87t-36 65t-62 37t-93.5 13.5q-44 0 -87 -6t-76 -15t-56.5 -17.5t-43 -17t-20.5 -8.5q-28 -11 -36 15l-11 28q-11 20 13 35q11 7 42 20.5t112.5 31.5t170.5 18q43 0 78 -4.5t62.5 -15.5 t49.5 -22.5t38 -32.5t27.5 -39t18.5 -48t11.5 -53t6.5 -60.5t2.5 -65t0.5 -71.5v-524q0 -12 -10.5 -21.5t-22.5 -9.5h-16q-26 0 -29 27l-10 86q-53 -53 -141.5 -94.5t-190.5 -41.5q-135 0 -221 85t-86 229zM178 293q0 -100 65.5 -163.5t164.5 -63.5q98 0 188.5 46t130.5 97 v272q-36 16 -103 32.5t-141 16.5q-135 0 -220 -66.5t-85 -170.5zM694 1208q-33 0 -56.5 23.5t-23.5 56.5q0 35 23 59.5t57 24.5q35 0 59.5 -24.5t24.5 -59.5q0 -33 -24.5 -56.5t-59.5 -23.5zM303 1208q-34 0 -58 24t-24 56q0 35 24 59.5t58 24.5q35 0 58.5 -24.5t23.5 -59.5 q0 -33 -23.5 -56.5t-58.5 -23.5z" />
<glyph unicode="&#xe5;" horiz-adv-x="980" d="M90 291q0 140 105.5 229.5t287.5 89.5q110 0 244 -43q0 68 -4.5 113.5t-17 87t-36 65t-62 37t-93.5 13.5q-44 0 -87 -6t-76 -15t-56.5 -17.5t-43 -17t-20.5 -8.5q-28 -11 -36 15l-11 28q-11 20 13 35q11 7 42 20.5t112.5 31.5t170.5 18q43 0 78 -4.5t62.5 -15.5 t49.5 -22.5t38 -32.5t27.5 -39t18.5 -48t11.5 -53t6.5 -60.5t2.5 -65t0.5 -71.5v-524q0 -12 -10.5 -21.5t-22.5 -9.5h-16q-26 0 -29 27l-10 86q-53 -53 -141.5 -94.5t-190.5 -41.5q-135 0 -221 85t-86 229zM178 293q0 -100 65.5 -163.5t164.5 -63.5q98 0 188.5 46t130.5 97 v272q-36 16 -103 32.5t-141 16.5q-135 0 -220 -66.5t-85 -170.5zM485 1040q-92 0 -155.5 62.5t-63.5 154.5t63.5 156t155.5 64q91 0 154 -64t63 -156t-63 -154.5t-154 -62.5zM485 1106q60 0 105 45t45 106t-45 106.5t-105 45.5q-62 0 -107.5 -45.5t-45.5 -106.5t45.5 -106 t107.5 -45z" />
<glyph unicode="&#xe6;" horiz-adv-x="1640" d="M90 295q0 139 103.5 227t277.5 88q80 0 154.5 -15t101.5 -28q0 69 -4 114.5t-16.5 87t-35 64.5t-59.5 36.5t-90 13.5q-34 0 -67 -3t-60.5 -8.5t-51 -11.5t-44 -13.5t-33.5 -12.5t-25.5 -10.5t-13.5 -6.5q-12 -3 -21.5 2.5t-12.5 16.5l-13 34q-1 9 5.5 18.5t15.5 12.5 q15 7 42.5 18t113 29.5t169.5 18.5q114 0 175 -35.5t90 -108.5q61 68 146 106t183 38q187 0 306.5 -121t119.5 -309q0 -20 -0.5 -31.5t-3.5 -28t-10 -25t-19 -8.5h-700v-202q51 -81 133 -128.5t182 -47.5q133 0 283 92q18 11 26.5 11.5t16.5 -9.5l23 -35q12 -17 -11 -37 q-42 -39 -143 -75t-203 -36q-214 0 -344 162q-53 -64 -154 -113t-214 -49q-140 0 -229 86.5t-89 231.5zM813 528h643q0 147 -91.5 251t-244.5 104q-99 0 -178 -47.5t-129 -126.5v-181zM178 293q0 -107 70.5 -167t173.5 -60q92 0 179.5 45.5t125.5 97.5v274l-17 6 q-18 6 -39 12.5t-50 13t-65.5 11t-72.5 4.5q-130 0 -217.5 -67t-87.5 -170z" />
<glyph unicode="&#xe7;" horiz-adv-x="1058" d="M106 473q0 139 66.5 253t178.5 177.5t245 63.5q122 0 215 -47t133 -99q19 -22 -2 -43l-16 -16q-24 -24 -52 4q-17 19 -48.5 41.5t-96.5 47t-133 24.5q-162 0 -280.5 -118.5t-118.5 -285.5q0 -172 116 -290.5t285 -118.5q49 0 95.5 13.5t75.5 28t61.5 41t40.5 35t26 27.5 q22 25 45 2l19 -16q18 -18 6 -37q-38 -57 -129.5 -114.5t-210.5 -65.5l-74 -121q12 4 39 4q74 0 130 -41t56 -125q0 -82 -61 -131t-152 -49q-99 0 -166 63q-12 12 -2 27l21 39q10 15 26 2q47 -51 117 -51q60 0 94.5 25t34.5 71q0 45 -33.5 68.5t-87.5 23.5q-57 0 -102 -18 q-10 -4 -21 5.5t-6 18.5l103 189q-186 19 -311.5 157t-125.5 336z" />
<glyph unicode="&#xe8;" horiz-adv-x="1083" d="M109 475q0 135 55 246t160 178.5t241 67.5q186 0 305 -123t119 -307q0 -20 -0.5 -31.5t-3.5 -28t-11 -25t-20 -8.5h-755q3 -159 108.5 -268.5t257.5 -109.5q154 0 291 94q29 17 41 0l23 -35q6 -6 3.5 -17t-14.5 -20q-50 -41 -146 -76t-198 -35q-136 0 -241 67t-160 180 t-55 251zM201 528h698q0 146 -90 248.5t-244 102.5q-152 0 -253.5 -100.5t-110.5 -250.5zM735 1145l-352 162q-18 9 -8 30l20 41q10 18 35 6l336 -184q19 -11 12 -29l-10 -20q-8 -17 -33 -6z" />
<glyph unicode="&#xe9;" horiz-adv-x="1083" d="M109 475q0 135 55 246t160 178.5t241 67.5q186 0 305 -123t119 -307q0 -20 -0.5 -31.5t-3.5 -28t-11 -25t-20 -8.5h-755q3 -159 108.5 -268.5t257.5 -109.5q154 0 291 94q29 17 41 0l23 -35q6 -6 3.5 -17t-14.5 -20q-50 -41 -146 -76t-198 -35q-136 0 -241 67t-160 180 t-55 251zM201 528h698q0 146 -90 248.5t-244 102.5q-152 0 -253.5 -100.5t-110.5 -250.5zM414 1143q-14 -5 -19 -3.5t-10 11.5l-12 27q-7 17 12 28l338 178q24 14 35 -6l20 -41q11 -22 -18 -37z" />
<glyph unicode="&#xea;" horiz-adv-x="1083" d="M109 475q0 135 55 246t160 178.5t241 67.5q186 0 305 -123t119 -307q0 -20 -0.5 -31.5t-3.5 -28t-11 -25t-20 -8.5h-755q3 -159 108.5 -268.5t257.5 -109.5q154 0 291 94q29 17 41 0l23 -35q6 -6 3.5 -17t-14.5 -20q-50 -41 -146 -76t-198 -35q-136 0 -241 67t-160 180 t-55 251zM201 528h698q0 146 -90 248.5t-244 102.5q-152 0 -253.5 -100.5t-110.5 -250.5zM346 1126q-18 -13 -31 4l-18 23q-11 14 8 29l248 200q11 11 20 11h7q9 0 20 -11l248 -200q19 -15 8 -29l-18 -23q-13 -17 -31 -4l-232 172z" />
<glyph unicode="&#xeb;" horiz-adv-x="1083" d="M109 475q0 135 55 246t160 178.5t241 67.5q186 0 305 -123t119 -307q0 -20 -0.5 -31.5t-3.5 -28t-11 -25t-20 -8.5h-755q3 -159 108.5 -268.5t257.5 -109.5q154 0 291 94q29 17 41 0l23 -35q6 -6 3.5 -17t-14.5 -20q-50 -41 -146 -76t-198 -35q-136 0 -241 67t-160 180 t-55 251zM201 528h698q0 146 -90 248.5t-244 102.5q-152 0 -253.5 -100.5t-110.5 -250.5zM770 1208q-33 0 -56.5 23.5t-23.5 56.5q0 35 23 59.5t57 24.5q35 0 59.5 -24.5t24.5 -59.5q0 -33 -24.5 -56.5t-59.5 -23.5zM379 1208q-34 0 -58 24t-24 56q0 35 24 59.5t58 24.5 q35 0 58.5 -24.5t23.5 -59.5q0 -33 -23.5 -56.5t-58.5 -23.5z" />
<glyph unicode="&#xec;" horiz-adv-x="434" d="M172 31v884q0 12 9 21.5t22 9.5h28q11 0 21 -9.5t10 -21.5v-884q0 -31 -31 -31h-32q-13 0 -20 9t-7 22zM385 1145l-352 162q-18 9 -8 30l20 41q10 18 35 6l336 -184q19 -11 12 -29l-10 -20q-8 -17 -33 -6z" />
<glyph unicode="&#xed;" horiz-adv-x="434" d="M172 31v884q0 12 9 21.5t22 9.5h28q11 0 21 -9.5t10 -21.5v-884q0 -31 -31 -31h-32q-13 0 -20 9t-7 22zM63 1143q-14 -5 -18.5 -3.5t-9.5 11.5l-12 27q-7 17 12 28l338 178q24 14 35 -6l20 -41q11 -22 -18 -37z" />
<glyph unicode="&#xee;" horiz-adv-x="434" d="M172 31v884q0 12 9 21.5t22 9.5h28q11 0 21 -9.5t10 -21.5v-884q0 -31 -31 -31h-32q-13 0 -20 9t-7 22zM-4 1126q-18 -13 -31 4l-18 23q-11 14 8 29l248 200q11 11 20 11h6q10 0 21 -11l248 -200q19 -15 8 -29l-19 -23q-13 -17 -30 -4l-232 172z" />
<glyph unicode="&#xef;" horiz-adv-x="434" d="M172 31v884q0 12 9 21.5t22 9.5h28q11 0 21 -9.5t10 -21.5v-884q0 -31 -31 -31h-32q-13 0 -20 9t-7 22zM420 1208q-33 0 -56.5 23.5t-23.5 56.5q0 35 23 59.5t57 24.5q35 0 59.5 -24.5t24.5 -59.5q0 -33 -24.5 -56.5t-59.5 -23.5zM29 1208q-34 0 -58 24t-24 56 q0 35 24 59.5t58 24.5q35 0 58.5 -24.5t23.5 -59.5q0 -33 -23.5 -56.5t-58.5 -23.5z" />
<glyph unicode="&#xf0;" horiz-adv-x="1204" d="M109 465q0 137 64.5 244t168 162t225.5 55q75 0 145.5 -20t119.5 -49.5t80 -55t46 -45.5q-42 260 -299 467l-241 -142q-9 -5 -21 -1t-16 14l-6 10q-6 9 -3.5 19.5t11.5 15.5l219 127q-138 95 -252 139q-27 9 -12 33l14 37q7 17 29 10q156 -57 307 -170l146 84 q21 12 36 -10l7 -11q10 -23 -11 -37l-123 -71q330 -281 330 -690q0 -171 -53.5 -304.5t-167 -214.5t-272.5 -81q-126 0 -234.5 65t-172.5 177t-64 243zM203 461q0 -163 110 -278t267 -115q98 0 176 41t126.5 111t73.5 158t25 187q0 24 -4 64q-11 15 -20 26.5t-50.5 50 t-83 64t-110 48t-140.5 22.5q-154 0 -262 -107.5t-108 -271.5z" />
<glyph unicode="&#xf1;" horiz-adv-x="1105" d="M172 31v884q0 13 9 22t24 9h10q26 0 29 -24l10 -101q18 19 40.5 38t65.5 46.5t103 44.5t125 17q191 0 273.5 -107.5t82.5 -306.5v-522q0 -12 -9.5 -21.5t-21.5 -9.5h-28q-12 0 -21.5 9.5t-9.5 21.5v518q0 330 -270 330q-54 0 -106.5 -16t-88 -37.5t-66 -47t-43.5 -40 t-18 -21.5v-686q0 -31 -31 -31h-32q-13 0 -20 9t-7 22zM299 1186l-25 10q-9 3 -12 11.5t0 17.5q35 92 79 132q49 44 112 44q41 0 70.5 -19.5t46.5 -46.5t32 -54.5t35 -47t47 -19.5q78 0 117 121q3 10 12 14.5t18 0.5l23 -9q16 -8 12 -26q-3 -11 -7.5 -25t-20 -43t-34.5 -51 t-52.5 -39.5t-73.5 -17.5t-69.5 19.5t-47 47t-33 55t-36 47t-46.5 19.5q-27 0 -48.5 -13t-35 -37.5t-19.5 -39t-13 -37.5q-7 -24 -31 -14z" />
<glyph unicode="&#xf2;" horiz-adv-x="1163" d="M106 475q0 133 62 245.5t172 179.5t242 67q129 0 239 -66.5t173 -180t63 -245.5q0 -136 -63 -250.5t-172.5 -181t-239.5 -66.5q-201 0 -338.5 145t-137.5 353zM197 475q0 -170 112 -289.5t273 -119.5q158 0 268.5 119.5t110.5 289.5q0 166 -110.5 285t-268.5 119 q-160 0 -272.5 -118.5t-112.5 -285.5zM743 1145l-352 162q-18 9 -8 30l20 41q10 18 35 6l336 -184q19 -11 12 -29l-10 -20q-8 -17 -33 -6z" />
<glyph unicode="&#xf3;" horiz-adv-x="1163" d="M106 475q0 133 62 245.5t172 179.5t242 67q129 0 239 -66.5t173 -180t63 -245.5q0 -136 -63 -250.5t-172.5 -181t-239.5 -66.5q-201 0 -338.5 145t-137.5 353zM197 475q0 -170 112 -289.5t273 -119.5q158 0 268.5 119.5t110.5 289.5q0 166 -110.5 285t-268.5 119 q-160 0 -272.5 -118.5t-112.5 -285.5zM422 1143q-14 -5 -19 -3.5t-10 11.5l-12 27q-7 17 12 28l338 178q24 14 35 -6l20 -41q11 -22 -18 -37z" />
<glyph unicode="&#xf4;" horiz-adv-x="1163" d="M106 475q0 133 62 245.5t172 179.5t242 67q129 0 239 -66.5t173 -180t63 -245.5q0 -136 -63 -250.5t-172.5 -181t-239.5 -66.5q-201 0 -338.5 145t-137.5 353zM197 475q0 -170 112 -289.5t273 -119.5q158 0 268.5 119.5t110.5 289.5q0 166 -110.5 285t-268.5 119 q-160 0 -272.5 -118.5t-112.5 -285.5zM354 1126q-17 -13 -30 4l-19 23q-11 14 8 29l248 200q11 11 21 11h6q9 0 20 -11l248 -200q19 -15 8 -29l-18 -23q-13 -17 -31 -4l-231 172z" />
<glyph unicode="&#xf5;" horiz-adv-x="1163" d="M106 475q0 133 62 245.5t172 179.5t242 67q129 0 239 -66.5t173 -180t63 -245.5q0 -136 -63 -250.5t-172.5 -181t-239.5 -66.5q-201 0 -338.5 145t-137.5 353zM197 475q0 -170 112 -289.5t273 -119.5q158 0 268.5 119.5t110.5 289.5q0 166 -110.5 285t-268.5 119 q-160 0 -272.5 -118.5t-112.5 -285.5zM319 1186l-24 10q-19 6 -12 29q32 86 71 125q50 51 119 51q41 0 70.5 -19.5t47 -46.5t32.5 -54.5t35 -47t47 -19.5q77 0 116 121q3 10 12.5 15t18.5 0l22 -9q17 -9 13 -26q-3 -11 -7.5 -25t-20 -43t-35 -51t-53 -39.5t-73.5 -17.5 t-69.5 19.5t-46.5 47t-32.5 55t-36 47t-46.5 19.5q-27 0 -48.5 -13t-35.5 -37t-20 -39t-13 -38q-7 -24 -31 -14z" />
<glyph unicode="&#xf6;" horiz-adv-x="1163" d="M106 475q0 133 62 245.5t172 179.5t242 67q129 0 239 -66.5t173 -180t63 -245.5q0 -136 -63 -250.5t-172.5 -181t-239.5 -66.5q-201 0 -338.5 145t-137.5 353zM197 475q0 -170 112 -289.5t273 -119.5q158 0 268.5 119.5t110.5 289.5q0 166 -110.5 285t-268.5 119 q-160 0 -272.5 -118.5t-112.5 -285.5zM778 1208q-33 0 -56.5 23.5t-23.5 56.5q0 35 23 59.5t57 24.5q35 0 59.5 -24.5t24.5 -59.5q0 -33 -24.5 -56.5t-59.5 -23.5zM387 1208q-34 0 -58 24t-24 56q0 35 24 59.5t58 24.5q35 0 58.5 -24.5t23.5 -59.5q0 -33 -23.5 -56.5 t-58.5 -23.5z" />
<glyph unicode="&#xf7;" d="M606 948q-34 0 -59 25t-25 59t25 58t59 24q35 0 58.5 -24t23.5 -58t-23.5 -59t-58.5 -25zM219 670q-11 0 -18.5 8t-7.5 18v31q0 11 8 19t18 8h789q10 0 17 -8t7 -19v-31q0 -11 -7 -18.5t-17 -7.5h-789zM522 389q0 34 25 58t59 24q35 0 58.5 -24t23.5 -58t-23.5 -59 t-58.5 -25q-34 0 -59 25t-25 59z" />
<glyph unicode="&#xf8;" horiz-adv-x="1163" d="M106 475q0 133 62 245.5t172 179.5t242 67q98 0 186 -40t154 -110l24 25q8 9 20 9t21 -9l10 -11q20 -20 -2 -38l-30 -29q92 -132 92 -289q0 -136 -63 -250.5t-172.5 -181t-239.5 -66.5q-185 0 -320 125l-33 -32q-17 -17 -36 2l-13 12q-20 20 0 37l35 33 q-109 134 -109 321zM197 475q0 -144 86 -258l571 537q-115 125 -272 125q-160 0 -272.5 -118.5t-112.5 -285.5zM961 475q0 120 -64 223l-569 -534q109 -98 254 -98q158 0 268.5 119.5t110.5 289.5z" />
<glyph unicode="&#xf9;" horiz-adv-x="1081" d="M162 385v530q0 12 9.5 21.5t21.5 9.5h30q12 0 20.5 -9.5t8.5 -21.5v-530q0 -167 62 -243t206 -76q175 0 299 176v673q0 31 31 31h31q11 0 19.5 -9.5t8.5 -21.5v-884q0 -12 -8.5 -21.5t-19.5 -9.5h-19q-11 0 -18.5 8.5t-9.5 20.5l-9 92q-14 -18 -34.5 -37.5t-59 -46 t-95.5 -43.5t-122 -17q-193 0 -272.5 100t-79.5 308zM698 1145l-352 162q-18 9 -8 30l20 41q10 18 35 6l336 -184q19 -11 12 -29l-10 -20q-8 -17 -33 -6z" />
<glyph unicode="&#xfa;" horiz-adv-x="1081" d="M162 385v530q0 12 9.5 21.5t21.5 9.5h30q12 0 20.5 -9.5t8.5 -21.5v-530q0 -167 62 -243t206 -76q175 0 299 176v673q0 31 31 31h31q11 0 19.5 -9.5t8.5 -21.5v-884q0 -12 -8.5 -21.5t-19.5 -9.5h-19q-11 0 -18.5 8.5t-9.5 20.5l-9 92q-14 -18 -34.5 -37.5t-59 -46 t-95.5 -43.5t-122 -17q-193 0 -272.5 100t-79.5 308zM377 1143q-14 -5 -19 -3.5t-10 11.5l-12 27q-7 17 12 28l338 178q24 14 35 -6l20 -41q11 -22 -18 -37z" />
<glyph unicode="&#xfb;" horiz-adv-x="1081" d="M162 385v530q0 12 9.5 21.5t21.5 9.5h30q12 0 20.5 -9.5t8.5 -21.5v-530q0 -167 62 -243t206 -76q175 0 299 176v673q0 31 31 31h31q11 0 19.5 -9.5t8.5 -21.5v-884q0 -12 -8.5 -21.5t-19.5 -9.5h-19q-11 0 -18.5 8.5t-9.5 20.5l-9 92q-14 -18 -34.5 -37.5t-59 -46 t-95.5 -43.5t-122 -17q-193 0 -272.5 100t-79.5 308zM309 1126q-17 -13 -30 4l-19 23q-11 14 8 29l248 200q11 11 21 11h6q9 0 20 -11l248 -200q19 -15 8 -29l-18 -23q-13 -17 -31 -4l-231 172z" />
<glyph unicode="&#xfc;" horiz-adv-x="1081" d="M162 385v530q0 12 9.5 21.5t21.5 9.5h30q12 0 20.5 -9.5t8.5 -21.5v-530q0 -167 62 -243t206 -76q175 0 299 176v673q0 31 31 31h31q11 0 19.5 -9.5t8.5 -21.5v-884q0 -12 -8.5 -21.5t-19.5 -9.5h-19q-11 0 -18.5 8.5t-9.5 20.5l-9 92q-14 -18 -34.5 -37.5t-59 -46 t-95.5 -43.5t-122 -17q-193 0 -272.5 100t-79.5 308zM735 1208q-33 0 -56.5 23.5t-23.5 56.5q0 35 23 59.5t57 24.5q35 0 59.5 -24.5t24.5 -59.5q0 -33 -24.5 -56.5t-59.5 -23.5zM344 1208q-34 0 -58 24t-24 56q0 35 24 59.5t58 24.5q35 0 58.5 -24.5t23.5 -59.5 q0 -33 -23.5 -56.5t-58.5 -23.5z" />
<glyph unicode="&#xfd;" horiz-adv-x="980" d="M434 2l-377 905q-7 15 -3 27t18 12h43q24 0 32 -22l334 -818h6l349 818q8 22 30 22h45q16 0 19.5 -12t-4.5 -27l-592 -1376q-9 -18 -31 -18h-47q-32 0 -18 32zM317 1143q-14 -5 -18.5 -3.5t-9.5 11.5l-13 27q-7 17 13 28l338 178q24 14 35 -6l20 -41q11 -22 -18 -37z" />
<glyph unicode="&#xfe;" horiz-adv-x="1126" d="M262 109v-568q0 -10 -9 -19t-20 -9h-32q-12 0 -20.5 8.5t-8.5 19.5v1864q0 13 9 21t22 8h30q11 0 20 -9t9 -20v-531q23 18 57.5 36t102.5 37.5t137 19.5q94 0 178.5 -36t148 -101t99.5 -164t33 -217q-2 -90 -33.5 -174.5t-86 -151t-137.5 -106.5t-181 -40q-107 0 -198 48 t-120 84zM262 772v-547q11 -18 35 -41t63 -51.5t97 -47.5t121 -19q146 0 248 111.5t102 271.5q0 202 -107.5 316t-271.5 114q-55 0 -108 -14t-91.5 -36t-57 -34.5t-30.5 -22.5z" />
<glyph unicode="&#xff;" horiz-adv-x="980" d="M434 2l-377 905q-7 15 -3 27t18 12h43q24 0 32 -22l334 -818h6l349 818q8 22 30 22h45q16 0 19.5 -12t-4.5 -27l-592 -1376q-9 -18 -31 -18h-47q-32 0 -18 32zM674 1208q-33 0 -56.5 23.5t-23.5 56.5q0 35 23 59.5t57 24.5q35 0 59.5 -24.5t24.5 -59.5q0 -33 -24.5 -56.5 t-59.5 -23.5zM283 1208q-34 0 -58 24t-24 56q0 35 24 59.5t58 24.5q35 0 58.5 -24.5t23.5 -59.5q0 -33 -23.5 -56.5t-58.5 -23.5z" />
<glyph unicode="&#x100;" horiz-adv-x="1333" d="M23 0q-24 0 -15 25l631 1415q7 14 25 14h6q19 0 26 -14l625 -1415q8 -25 -18 -25h-54q-19 0 -28 18l-166 377h-783l-163 -377q-9 -18 -29 -18h-57zM309 475h711l-350 815h-4zM395 1702q-12 0 -19 8t-7 19v24q0 27 26 27h557q11 0 19 -7.5t8 -19.5v-24q0 -11 -8.5 -19 t-18.5 -8h-557z" />
<glyph unicode="&#x101;" horiz-adv-x="980" d="M90 291q0 140 105.5 229.5t287.5 89.5q110 0 244 -43q0 68 -4.5 113.5t-17 87t-36 65t-62 37t-93.5 13.5q-44 0 -87 -6t-76 -15t-56.5 -17.5t-43 -17t-20.5 -8.5q-28 -11 -36 15l-11 28q-11 20 13 35q11 7 42 20.5t112.5 31.5t170.5 18q43 0 78 -4.5t62.5 -15.5 t49.5 -22.5t38 -32.5t27.5 -39t18.5 -48t11.5 -53t6.5 -60.5t2.5 -65t0.5 -71.5v-524q0 -12 -10.5 -21.5t-22.5 -9.5h-16q-26 0 -29 27l-10 86q-53 -53 -141.5 -94.5t-190.5 -41.5q-135 0 -221 85t-86 229zM178 293q0 -100 65.5 -163.5t164.5 -63.5q98 0 188.5 46t130.5 97 v272q-36 16 -103 32.5t-141 16.5q-135 0 -220 -66.5t-85 -170.5zM205 1219q-12 0 -19.5 6.5t-7.5 17.5v27q0 11 7.5 18.5t19.5 7.5h557q10 0 18 -8t8 -18v-27q0 -10 -7.5 -17t-18.5 -7h-557z" />
<glyph unicode="&#x102;" horiz-adv-x="1333" d="M23 0q-24 0 -15 25l631 1415q7 14 25 14h6q19 0 26 -14l625 -1415q8 -25 -18 -25h-54q-19 0 -28 18l-166 377h-783l-163 -377q-9 -18 -29 -18h-57zM309 475h711l-350 815h-4zM674 1587q-104 0 -179 65.5t-89 162.5q-2 11 3.5 19.5t16.5 8.5h27q16 0 24 -24 q20 -70 72 -115t125 -45q70 0 124.5 46t69.5 114q7 24 25 24h29q10 0 16 -8.5t4 -19.5q-18 -98 -92.5 -163t-175.5 -65z" />
<glyph unicode="&#x103;" horiz-adv-x="980" d="M90 291q0 140 105.5 229.5t287.5 89.5q110 0 244 -43q0 68 -4.5 113.5t-17 87t-36 65t-62 37t-93.5 13.5q-44 0 -87 -6t-76 -15t-56.5 -17.5t-43 -17t-20.5 -8.5q-28 -11 -36 15l-11 28q-11 20 13 35q11 7 42 20.5t112.5 31.5t170.5 18q43 0 78 -4.5t62.5 -15.5 t49.5 -22.5t38 -32.5t27.5 -39t18.5 -48t11.5 -53t6.5 -60.5t2.5 -65t0.5 -71.5v-524q0 -12 -10.5 -21.5t-22.5 -9.5h-16q-26 0 -29 27l-10 86q-53 -53 -141.5 -94.5t-190.5 -41.5q-135 0 -221 85t-86 229zM178 293q0 -100 65.5 -163.5t164.5 -63.5q98 0 188.5 46t130.5 97 v272q-36 16 -103 32.5t-141 16.5q-135 0 -220 -66.5t-85 -170.5zM485 1102q-103 0 -176.5 64.5t-91.5 160.5q-2 13 3.5 21t17.5 8h26q17 0 25 -23q18 -71 70.5 -116.5t125.5 -45.5q70 0 125 46t70 116q7 23 25 23h28q10 0 16.5 -8.5t4.5 -20.5q-15 -96 -91 -160.5 t-178 -64.5z" />
<glyph unicode="&#x104;" horiz-adv-x="1333" d="M23 0q-24 0 -15 25l631 1415q7 14 25 14h6q19 0 26 -14l625 -1415q8 -25 -18 -25h-9q-227 -126 -227 -295q0 -55 32.5 -88t88.5 -33q15 0 31 3.5t28.5 8t26 12t21 12t17.5 11t11 7.5q8 7 15.5 4.5t9.5 -13.5l4 -39q3 -23 -21 -36q-84 -50 -160 -50q-91 0 -142.5 55.5 t-51.5 143.5q0 49 17.5 94t41 76.5t60.5 63t62.5 48.5t60.5 38l-164 372h-783l-163 -377q-9 -18 -29 -18h-57zM309 475h711l-350 815h-4z" />
<glyph unicode="&#x105;" horiz-adv-x="980" d="M90 291q0 140 105.5 229.5t287.5 89.5q110 0 244 -43q0 68 -4.5 113.5t-17 87t-36 65t-62 37t-93.5 13.5q-44 0 -87 -6t-76 -15t-56.5 -17.5t-43 -17t-20.5 -8.5q-28 -11 -36 15l-11 28q-11 20 13 35q11 7 42 20.5t112.5 31.5t170.5 18q43 0 78 -4.5t62.5 -15.5 t49.5 -22.5t38 -32.5t27.5 -39t18.5 -48t11.5 -53t6.5 -60.5t2.5 -65t0.5 -71.5v-512q0 -27 -14 -37q-4 -2 -30 -19t-35 -23.5t-34 -24t-36.5 -29.5t-31.5 -31.5t-30 -37t-21.5 -40t-16.5 -46.5t-5 -50q0 -55 32.5 -88t88.5 -33q41 0 78 18.5t57 35.5q6 5 15 3t10 -12l4 -39 q3 -23 -21 -36q-84 -50 -159 -50q-91 0 -143 56t-52 143q0 49 18.5 95t45.5 80t65 66t69.5 51.5t65.5 37.5l-8 80q-53 -53 -141.5 -94.5t-190.5 -41.5q-135 0 -221 85t-86 229zM178 293q0 -100 65.5 -163.5t164.5 -63.5q98 0 188.5 46t130.5 97v272q-36 16 -103 32.5 t-141 16.5q-135 0 -220 -66.5t-85 -170.5z" />
<glyph unicode="&#x106;" horiz-adv-x="1464" d="M115 715q0 151 58.5 288t157.5 235.5t236.5 157t288.5 58.5q289 0 498 -190q8 -8 8.5 -18.5t-6.5 -18.5l-33 -35q-17 -16 -35 2q-189 168 -432 168q-176 0 -323 -87.5t-231.5 -236t-84.5 -323.5q0 -174 84.5 -321.5t231.5 -234.5t323 -87q124 0 228 44.5t204 127.5 q20 17 33 4l35 -35q8 -6 8 -16.5t-8 -18.5q-102 -99 -231 -148.5t-269 -49.5q-151 0 -288 57.5t-236.5 155t-158 234t-58.5 288.5zM717 1602q-25 -11 -33 6l-10 20q-7 18 12 29l336 184q25 12 35 -6l20 -41q11 -22 -8 -31z" />
<glyph unicode="&#x107;" horiz-adv-x="1058" d="M106 473q0 139 66.5 253t178.5 177.5t245 63.5q122 0 215 -47t133 -99q19 -22 -2 -43l-16 -16q-24 -24 -52 4q-17 19 -48.5 41.5t-96.5 47t-133 24.5q-162 0 -280.5 -118.5t-118.5 -285.5q0 -172 116 -290.5t285 -118.5q49 0 95.5 13.5t75.5 28t61.5 41t40.5 35t26 27.5 q22 25 45 2l19 -16q18 -18 6 -37q-17 -25 -48 -53.5t-77 -59t-111.5 -50.5t-134.5 -20q-133 0 -245 63.5t-178.5 178t-66.5 254.5zM410 1143q-14 -5 -19 -3.5t-10 11.5l-12 27q-7 17 12 28l338 178q24 14 35 -6l20 -41q11 -22 -18 -37z" />
<glyph unicode="&#x108;" horiz-adv-x="1464" d="M115 715q0 151 58.5 288t157.5 235.5t236.5 157t288.5 58.5q289 0 498 -190q8 -8 8.5 -18.5t-6.5 -18.5l-33 -35q-17 -16 -35 2q-189 168 -432 168q-176 0 -323 -87.5t-231.5 -236t-84.5 -323.5q0 -174 84.5 -321.5t231.5 -234.5t323 -87q124 0 228 44.5t204 127.5 q20 17 33 4l35 -35q8 -6 8 -16.5t-8 -18.5q-102 -99 -231 -148.5t-269 -49.5q-151 0 -288 57.5t-236.5 155t-158 234t-58.5 288.5zM625 1573q-18 -13 -31 4l-19 22q-11 13 9 29l247 201q10 10 21 10h6q11 0 21 -10l247 -201q20 -16 9 -29l-19 -22q-13 -17 -31 -4l-231 172z " />
<glyph unicode="&#x109;" horiz-adv-x="1058" d="M106 473q0 139 66.5 253t178.5 177.5t245 63.5q122 0 215 -47t133 -99q19 -22 -2 -43l-16 -16q-24 -24 -52 4q-17 19 -48.5 41.5t-96.5 47t-133 24.5q-162 0 -280.5 -118.5t-118.5 -285.5q0 -172 116 -290.5t285 -118.5q49 0 95.5 13.5t75.5 28t61.5 41t40.5 35t26 27.5 q22 25 45 2l19 -16q18 -18 6 -37q-17 -25 -48 -53.5t-77 -59t-111.5 -50.5t-134.5 -20q-133 0 -245 63.5t-178.5 178t-66.5 254.5zM377 1126q-18 -13 -31 4l-18 23q-11 14 8 29l248 200q11 11 20 11h6q10 0 21 -11l248 -200q19 -15 8 -29l-19 -23q-13 -17 -30 -4l-232 172z " />
<glyph unicode="&#x10a;" horiz-adv-x="1464" d="M115 715q0 151 58.5 288t157.5 235.5t236.5 157t288.5 58.5q289 0 498 -190q8 -8 8.5 -18.5t-6.5 -18.5l-33 -35q-17 -16 -35 2q-189 168 -432 168q-176 0 -323 -87.5t-231.5 -236t-84.5 -323.5q0 -174 84.5 -321.5t231.5 -234.5t323 -87q124 0 228 44.5t204 127.5 q20 17 33 4l35 -35q8 -6 8 -16.5t-8 -18.5q-102 -99 -231 -148.5t-269 -49.5q-151 0 -288 57.5t-236.5 155t-158 234t-58.5 288.5zM856 1657q-34 0 -58 23t-24 55q0 34 24 57t58 23t57 -23t23 -57q0 -32 -23 -55t-57 -23z" />
<glyph unicode="&#x10b;" horiz-adv-x="1058" d="M106 473q0 139 66.5 253t178.5 177.5t245 63.5q122 0 215 -47t133 -99q19 -22 -2 -43l-16 -16q-24 -24 -52 4q-17 19 -48.5 41.5t-96.5 47t-133 24.5q-162 0 -280.5 -118.5t-118.5 -285.5q0 -172 116 -290.5t285 -118.5q49 0 95.5 13.5t75.5 28t61.5 41t40.5 35t26 27.5 q22 25 45 2l19 -16q18 -18 6 -37q-17 -25 -48 -53.5t-77 -59t-111.5 -50.5t-134.5 -20q-133 0 -245 63.5t-178.5 178t-66.5 254.5zM610 1208q-34 0 -58 23t-24 55q0 34 24 57t58 23t57 -23t23 -57q0 -32 -23 -55t-57 -23z" />
<glyph unicode="&#x10c;" horiz-adv-x="1464" d="M115 715q0 151 58.5 288t157.5 235.5t236.5 157t288.5 58.5q289 0 498 -190q8 -8 8.5 -18.5t-6.5 -18.5l-33 -35q-17 -16 -35 2q-189 168 -432 168q-176 0 -323 -87.5t-231.5 -236t-84.5 -323.5q0 -174 84.5 -321.5t231.5 -234.5t323 -87q124 0 228 44.5t204 127.5 q20 17 33 4l35 -35q8 -6 8 -16.5t-8 -18.5q-102 -99 -231 -148.5t-269 -49.5q-151 0 -288 57.5t-236.5 155t-158 234t-58.5 288.5zM854 1563q-10 0 -20 10l-248 201q-19 15 -8 28l18 23q13 17 31 4l231 -172l229 172q18 13 31 -4l19 -23q10 -13 -9 -28l-247 -201 q-10 -10 -21 -10h-6z" />
<glyph unicode="&#x10d;" horiz-adv-x="1058" d="M106 473q0 139 66.5 253t178.5 177.5t245 63.5q122 0 215 -47t133 -99q19 -22 -2 -43l-16 -16q-24 -24 -52 4q-17 19 -48.5 41.5t-96.5 47t-133 24.5q-162 0 -280.5 -118.5t-118.5 -285.5q0 -172 116 -290.5t285 -118.5q49 0 95.5 13.5t75.5 28t61.5 41t40.5 35t26 27.5 q22 25 45 2l19 -16q18 -18 6 -37q-17 -25 -48 -53.5t-77 -59t-111.5 -50.5t-134.5 -20q-133 0 -245 63.5t-178.5 178t-66.5 254.5zM604 1116q-10 0 -20 10l-248 201q-19 15 -8 29l18 22q13 17 31 4l231 -172l230 172q17 13 30 -4l19 -22q11 -14 -8 -29l-248 -201 q-10 -10 -21 -10h-6z" />
<glyph unicode="&#x10e;" horiz-adv-x="1503" d="M207 27v1380q0 10 7.5 18.5t16.5 8.5h435q146 0 279.5 -57t230 -153t153.5 -228t57 -277q0 -196 -96.5 -361.5t-262.5 -261.5t-361 -96h-435q-9 0 -16.5 8.5t-7.5 18.5zM303 88h346q135 0 253 48.5t201.5 132.5t132 201t48.5 249q0 175 -81.5 318.5t-227.5 226t-326 82.5 h-346v-1258zM649 1563q-10 0 -20 10l-248 201q-19 15 -8 28l18 23q13 17 31 4l231 -172l230 172q17 13 30 -4l19 -23q11 -13 -8 -28l-248 -201q-10 -10 -21 -10h-6z" />
<glyph unicode="&#x10f;" horiz-adv-x="1138" d="M109 473q0 207 129 350.5t327 143.5q81 0 155.5 -23.5t109.5 -46.5l34 -23v529q0 13 8.5 22t22.5 9h31q9 0 18.5 -9.5t9.5 -21.5v-1372q0 -12 -9.5 -21.5t-20.5 -9.5h-13q-29 0 -34 31l-7 84q-19 -23 -56.5 -51t-114.5 -57.5t-160 -29.5q-183 0 -306.5 144t-123.5 352z M199 473q0 -167 99.5 -287t246.5 -120q58 0 112 15.5t89 37.5t63 46t40.5 39.5t14.5 20.5v547q-5 4 -13.5 11.5t-37.5 26t-60 32.5t-79 25.5t-96 11.5q-161 0 -270 -118.5t-109 -287.5zM1104 1376q0 35 24.5 56.5t61.5 21.5q55 0 86 -42.5t31 -115.5q0 -63 -24.5 -117.5 t-59.5 -86.5q-12 -12 -25 -2l-24 20q-14 14 2 29q24 21 40.5 57t16.5 76q0 36 -10 51q-14 -14 -45 -14q-32 0 -53 19t-21 48z" />
<glyph unicode="&#x110;" horiz-adv-x="1503" d="M207 27v653h-72q-10 0 -17 8t-7 19v10q0 11 7 18.5t17 7.5h72v664q0 11 7 19t17 8h435q146 0 279.5 -57t230 -153t153.5 -228t57 -277q0 -196 -96.5 -361.5t-262.5 -261.5t-361 -96h-435q-10 0 -17 8t-7 19zM303 88h346q176 0 321 82.5t228.5 227.5t83.5 321 q0 174 -83.5 318t-229 226.5t-320.5 82.5h-346v-603h512q11 0 19 -8t8 -18v-12q0 -10 -8 -17.5t-19 -7.5h-512v-592z" />
<glyph unicode="&#x111;" horiz-adv-x="1126" d="M109 473q0 207 129 350.5t327 143.5q81 0 155.5 -23.5t109.5 -46.5l34 -23v236h-395q-12 0 -19.5 8t-7.5 19v10q0 11 7.5 19t19.5 8h395v229q0 13 8.5 22t22.5 9h31q9 0 18.5 -9.5t9.5 -21.5v-229h74q11 0 18 -9t7 -22v-6q0 -11 -7.5 -19t-17.5 -8h-74v-1079 q0 -12 -9.5 -21.5t-20.5 -9.5h-13q-29 0 -34 31l-7 84q-19 -23 -56.5 -51t-114.5 -57.5t-160 -29.5q-183 0 -306.5 144t-123.5 352zM199 473q0 -167 99.5 -287t246.5 -120q58 0 112 15.5t89 37.5t63 46t40.5 39.5t14.5 20.5v547q-5 4 -13.5 11.5t-37.5 26t-60 32.5t-79 25.5 t-96 11.5q-161 0 -270 -118.5t-109 -287.5z" />
<glyph unicode="&#x112;" horiz-adv-x="1185" d="M207 27v1380q0 11 8 19t18 8h822q10 0 18 -8t8 -19v-35q0 -10 -7.5 -18t-18.5 -8h-750v-566h649q11 0 19 -8t8 -18v-35q0 -11 -8.5 -19t-18.5 -8h-649v-606h750q10 0 18 -8t8 -19v-32q0 -11 -8 -19t-18 -8h-822q-10 0 -18 8t-8 19zM379 1702q-12 0 -19.5 8t-7.5 19v24 q0 12 7.5 19.5t19.5 7.5h557q11 0 19 -7.5t8 -19.5v-24q0 -11 -8.5 -19t-18.5 -8h-557z" />
<glyph unicode="&#x113;" horiz-adv-x="1083" d="M109 475q0 135 55 246t160 178.5t241 67.5q186 0 305 -123t119 -307q0 -20 -0.5 -31.5t-3.5 -28t-11 -25t-20 -8.5h-755q3 -159 108.5 -268.5t257.5 -109.5q154 0 291 94q29 17 41 0l23 -35q6 -6 3.5 -17t-14.5 -20q-50 -41 -146 -76t-198 -35q-136 0 -241 67t-160 180 t-55 251zM201 528h698q0 146 -90 248.5t-244 102.5q-152 0 -253.5 -100.5t-110.5 -250.5zM297 1219q-12 0 -19.5 6.5t-7.5 17.5v27q0 11 7.5 18.5t19.5 7.5h557q11 0 19 -8t8 -18v-27q0 -10 -8 -17t-19 -7h-557z" />
<glyph unicode="&#x114;" horiz-adv-x="1185" d="M207 27v1380q0 11 8 19t18 8h822q10 0 18 -8t8 -19v-35q0 -10 -7.5 -18t-18.5 -8h-750v-566h649q11 0 19 -8t8 -18v-35q0 -11 -8.5 -19t-18.5 -8h-649v-606h750q10 0 18 -8t8 -19v-32q0 -11 -8 -19t-18 -8h-822q-10 0 -18 8t-8 19zM635 1587q-104 0 -179 65.5t-89 162.5 q-2 11 3.5 19.5t16.5 8.5h27q16 0 24 -24q20 -70 72 -115t125 -45q70 0 124.5 46t69.5 114q7 24 25 24h29q10 0 16 -8.5t4 -19.5q-18 -98 -92.5 -163t-175.5 -65z" />
<glyph unicode="&#x115;" horiz-adv-x="1083" d="M109 475q0 135 55 246t160 178.5t241 67.5q186 0 305 -123t119 -307q0 -20 -0.5 -31.5t-3.5 -28t-11 -25t-20 -8.5h-755q3 -159 108.5 -268.5t257.5 -109.5q154 0 291 94q29 17 41 0l23 -35q6 -6 3.5 -17t-14.5 -20q-50 -41 -146 -76t-198 -35q-136 0 -241 67t-160 180 t-55 251zM201 528h698q0 146 -90 248.5t-244 102.5q-152 0 -253.5 -100.5t-110.5 -250.5zM575 1102q-103 0 -176.5 64.5t-91.5 160.5q-2 13 3.5 21t17.5 8h26q17 0 25 -23q18 -71 70.5 -116.5t125.5 -45.5q70 0 125 46t70 116q7 23 25 23h28q10 0 16.5 -8.5t4.5 -20.5 q-15 -96 -91 -160.5t-178 -64.5z" />
<glyph unicode="&#x116;" horiz-adv-x="1185" d="M207 27v1380q0 11 8 19t18 8h822q10 0 18 -8t8 -19v-35q0 -10 -7.5 -18t-18.5 -8h-750v-566h649q11 0 19 -8t8 -18v-35q0 -11 -8.5 -19t-18.5 -8h-649v-606h750q10 0 18 -8t8 -19v-32q0 -11 -8 -19t-18 -8h-822q-10 0 -18 8t-8 19zM637 1657q-34 0 -58 23t-24 55 q0 34 24 57t58 23t57 -23t23 -57q0 -32 -23 -55t-57 -23z" />
<glyph unicode="&#x117;" horiz-adv-x="1083" d="M109 475q0 135 55 246t160 178.5t241 67.5q186 0 305 -123t119 -307q0 -20 -0.5 -31.5t-3.5 -28t-11 -25t-20 -8.5h-755q3 -159 108.5 -268.5t257.5 -109.5q154 0 291 94q29 17 41 0l23 -35q6 -6 3.5 -17t-14.5 -20q-50 -41 -146 -76t-198 -35q-136 0 -241 67t-160 180 t-55 251zM201 528h698q0 146 -90 248.5t-244 102.5q-152 0 -253.5 -100.5t-110.5 -250.5zM575 1208q-34 0 -57.5 23t-23.5 55q0 34 23.5 57t57.5 23t57 -23t23 -57q0 -32 -23 -55t-57 -23z" />
<glyph unicode="&#x118;" horiz-adv-x="1185" d="M207 27v1380q0 11 8 19t18 8h822q10 0 18 -8t8 -19v-35q0 -10 -7.5 -18t-18.5 -8h-750v-566h649q11 0 19 -8t8 -18v-35q0 -11 -8.5 -19t-18.5 -8h-649v-606h750q10 0 18 -8t8 -19v-22q0 -21 -26 -37q-34 -20 -58 -36t-59 -45.5t-56.5 -58.5t-38 -70t-16.5 -85 q0 -55 32.5 -88t88.5 -33q41 0 78 18.5t57 35.5q7 6 15.5 3.5t9.5 -12.5l4 -39q3 -23 -20 -36q-84 -50 -160 -50q-91 0 -143 56t-52 143q0 166 203 297h-707q-10 0 -18 8t-8 19z" />
<glyph unicode="&#x119;" horiz-adv-x="1083" d="M109 475q0 135 55 246t160 178.5t241 67.5q186 0 305 -123t119 -307q0 -20 -0.5 -31.5t-3.5 -28t-11 -25t-20 -8.5h-755q3 -159 108.5 -268.5t257.5 -109.5q154 0 291 94q29 17 41 0l23 -35q6 -6 3.5 -17t-14.5 -20q-78 -62 -207 -94q-41 -23 -73.5 -46.5t-68.5 -59.5 t-56.5 -83t-20.5 -100q0 -55 32.5 -88t88.5 -33q41 0 78 18.5t57 35.5q6 5 15 3t10 -12l4 -39q3 -23 -20 -36q-84 -50 -160 -50q-91 0 -143 56t-52 143q0 156 170 274q-135 1 -239.5 68t-159.5 179.5t-55 250.5zM201 528h698q0 146 -90 248.5t-244 102.5 q-152 0 -253.5 -100.5t-110.5 -250.5z" />
<glyph unicode="&#x11a;" horiz-adv-x="1185" d="M207 27v1380q0 11 8 19t18 8h822q10 0 18 -8t8 -19v-35q0 -10 -7.5 -18t-18.5 -8h-750v-566h649q11 0 19 -8t8 -18v-35q0 -11 -8.5 -19t-18.5 -8h-649v-606h750q10 0 18 -8t8 -19v-32q0 -11 -8 -19t-18 -8h-822q-10 0 -18 8t-8 19zM631 1563q-11 0 -21 10l-248 201 q-19 15 -8 28l19 23q13 17 30 4l232 -172l229 172q18 13 31 -4l18 -23q11 -13 -8 -28l-248 -201q-10 -10 -20 -10h-6z" />
<glyph unicode="&#x11b;" horiz-adv-x="1083" d="M109 475q0 135 55 246t160 178.5t241 67.5q186 0 305 -123t119 -307q0 -20 -0.5 -31.5t-3.5 -28t-11 -25t-20 -8.5h-755q3 -159 108.5 -268.5t257.5 -109.5q154 0 291 94q29 17 41 0l23 -35q6 -6 3.5 -17t-14.5 -20q-50 -41 -146 -76t-198 -35q-136 0 -241 67t-160 180 t-55 251zM201 528h698q0 146 -90 248.5t-244 102.5q-152 0 -253.5 -100.5t-110.5 -250.5zM573 1116q-10 0 -20 10l-248 201q-19 15 -8 29l18 22q13 17 31 4l232 -172l229 172q18 13 31 -4l18 -22q11 -14 -8 -29l-248 -201q-10 -10 -20 -10h-7z" />
<glyph unicode="&#x11c;" horiz-adv-x="1519" d="M115 715q0 151 58.5 288t157.5 236t236 157t289 58q287 0 496 -190q8 -8 8.5 -18.5t-6.5 -18.5q-10 -12 -33 -35q-16 -19 -35 0q-187 172 -432 172q-175 0 -321.5 -87t-231 -235t-84.5 -323t84.5 -323t231 -235t321.5 -87q87 0 167.5 14.5t133.5 36t83 36.5t42 25v385 h-350q-16 0 -21.5 6t-5.5 21v41q0 13 5.5 19t21.5 6h420q10 0 18 -8t8 -17v-475q0 -21 -6.5 -31.5t-21.5 -21.5q-21 -14 -57.5 -32t-99.5 -42.5t-152.5 -40.5t-182.5 -16q-152 0 -289 57.5t-236 155t-157.5 234t-58.5 288.5zM623 1573q-18 -13 -31 4l-19 22q-11 13 9 29 l247 201q10 10 21 10h6q11 0 21 -10l247 -201q20 -16 9 -29l-19 -22q-13 -17 -31 -4l-231 172z" />
<glyph unicode="&#x11d;" horiz-adv-x="1128" d="M354 1126q-17 -13 -30 4l-19 23q-11 14 8 29l248 200q11 11 21 11h6q9 0 20 -11l248 -200q19 -15 8 -29l-18 -23q-13 -17 -31 -4l-231 172zM866 180v574q-7 10 -28.5 27t-59 41t-96 40.5t-121.5 16.5q-159 0 -260.5 -117t-101.5 -285q0 -176 107 -293.5t276 -117.5 q55 0 108.5 15.5t90.5 38t56 36.5t29 24zM866 -25v101q-22 -19 -51 -37t-96 -40t-139 -22q-134 0 -242.5 66t-168.5 180t-60 252q0 137 57 249.5t160 177.5t231 65q180 0 320 -111l8 66q3 24 26 24h13q13 0 22.5 -8.5t9.5 -22.5v-940q0 -199 -117.5 -311.5t-301.5 -112.5 q-104 0 -189.5 40t-130.5 83q-16 16 -4 35l20 27q16 19 41 0q39 -33 111.5 -64.5t151.5 -31.5q146 0 237.5 87t91.5 248z" />
<glyph unicode="&#x11e;" horiz-adv-x="1519" d="M115 715q0 151 58.5 288t157.5 236t236 157t289 58q287 0 496 -190q8 -8 8.5 -18.5t-6.5 -18.5q-10 -12 -33 -35q-16 -19 -35 0q-187 172 -432 172q-175 0 -321.5 -87t-231 -235t-84.5 -323t84.5 -323t231 -235t321.5 -87q87 0 167.5 14.5t133.5 36t83 36.5t42 25v385 h-350q-16 0 -21.5 6t-5.5 21v41q0 13 5.5 19t21.5 6h420q10 0 18 -8t8 -17v-475q0 -21 -6.5 -31.5t-21.5 -21.5q-21 -14 -57.5 -32t-99.5 -42.5t-152.5 -40.5t-182.5 -16q-152 0 -289 57.5t-236 155t-157.5 234t-58.5 288.5zM856 1587q-104 0 -179 65.5t-89 162.5 q-2 11 3.5 19.5t16.5 8.5h27q16 0 24 -24q20 -70 72 -115t125 -45q70 0 125 46t70 114q7 24 24 24h29q10 0 16 -8.5t4 -19.5q-18 -98 -92.5 -163t-175.5 -65z" />
<glyph unicode="&#x11f;" horiz-adv-x="1128" d="M592 1102q-103 0 -176.5 64.5t-91.5 160.5q-4 29 20 29h27q16 0 24 -23q18 -71 71 -116.5t126 -45.5q70 0 124.5 46t69.5 116q7 23 25 23h29q10 0 16 -8.5t4 -20.5q-15 -96 -90.5 -160.5t-177.5 -64.5zM866 180v574q-7 10 -28.5 27t-59 41t-96 40.5t-121.5 16.5 q-159 0 -260.5 -117t-101.5 -285q0 -176 107 -293.5t276 -117.5q55 0 108.5 15.5t90.5 38t56 36.5t29 24zM866 -25v101q-22 -19 -51 -37t-96 -40t-139 -22q-134 0 -242.5 66t-168.5 180t-60 252q0 137 57 249.5t160 177.5t231 65q180 0 320 -111l8 66q3 24 26 24h13 q13 0 22.5 -8.5t9.5 -22.5v-940q0 -199 -117.5 -311.5t-301.5 -112.5q-104 0 -189.5 40t-130.5 83q-16 16 -4 35l20 27q16 19 41 0q39 -33 111.5 -64.5t151.5 -31.5q146 0 237.5 87t91.5 248z" />
<glyph unicode="&#x120;" horiz-adv-x="1519" d="M115 715q0 151 58.5 288t157.5 236t236 157t289 58q287 0 496 -190q8 -8 8.5 -18.5t-6.5 -18.5q-10 -12 -33 -35q-16 -19 -35 0q-187 172 -432 172q-175 0 -321.5 -87t-231 -235t-84.5 -323t84.5 -323t231 -235t321.5 -87q87 0 167.5 14.5t133.5 36t83 36.5t42 25v385 h-350q-16 0 -21.5 6t-5.5 21v41q0 13 5.5 19t21.5 6h420q10 0 18 -8t8 -17v-475q0 -21 -6.5 -31.5t-21.5 -21.5q-21 -14 -57.5 -32t-99.5 -42.5t-152.5 -40.5t-182.5 -16q-152 0 -289 57.5t-236 155t-157.5 234t-58.5 288.5zM854 1657q-34 0 -58 23t-24 55q0 34 24 57t58 23 t57 -23t23 -57q0 -32 -23 -55t-57 -23z" />
<glyph unicode="&#x121;" horiz-adv-x="1128" d="M584 1208q-34 0 -58 23t-24 55q0 34 24 57t58 23t57 -23t23 -57q0 -32 -23 -55t-57 -23zM866 180v574q-7 10 -28.5 27t-59 41t-96 40.5t-121.5 16.5q-159 0 -260.5 -117t-101.5 -285q0 -176 107 -293.5t276 -117.5q55 0 108.5 15.5t90.5 38t56 36.5t29 24zM866 -25v101 q-22 -19 -51 -37t-96 -40t-139 -22q-134 0 -242.5 66t-168.5 180t-60 252q0 137 57 249.5t160 177.5t231 65q180 0 320 -111l8 66q3 24 26 24h13q13 0 22.5 -8.5t9.5 -22.5v-940q0 -199 -117.5 -311.5t-301.5 -112.5q-104 0 -189.5 40t-130.5 83q-16 16 -4 35l20 27 q16 19 41 0q39 -33 111.5 -64.5t151.5 -31.5q146 0 237.5 87t91.5 248z" />
<glyph unicode="&#x122;" horiz-adv-x="1519" d="M115 715q0 151 58.5 288t157.5 236t236 157t289 58q287 0 496 -190q8 -8 8.5 -18.5t-6.5 -18.5q-10 -12 -33 -35q-16 -19 -35 0q-187 172 -432 172q-175 0 -321.5 -87t-231 -235t-84.5 -323t84.5 -323t231 -235t321.5 -87q87 0 167.5 14.5t133.5 36t83 36.5t42 25v385 h-350q-16 0 -21.5 6t-5.5 21v41q0 13 5.5 19t21.5 6h420q10 0 18 -8t8 -17v-475q0 -21 -6.5 -31.5t-21.5 -21.5q-21 -14 -57.5 -32t-99.5 -42.5t-152.5 -40.5t-182.5 -16q-152 0 -289 57.5t-236 155t-157.5 234t-58.5 288.5zM758 -233q0 35 24.5 56t61.5 21q55 0 86 -42 t31 -115q0 -63 -24.5 -118t-59.5 -87q-12 -12 -25 -2l-25 20q-13 14 2 29q25 22 41.5 58t16.5 75q0 36 -10 51q-14 -14 -46 -14t-52.5 19.5t-20.5 48.5z" />
<glyph unicode="&#x123;" horiz-adv-x="1128" d="M866 180v574q-7 10 -28.5 27t-59 41t-96 40.5t-121.5 16.5q-159 0 -260.5 -117t-101.5 -285q0 -176 107 -293.5t276 -117.5q55 0 108.5 15.5t90.5 38t56 36.5t29 24zM866 -25v101q-22 -19 -51 -37t-96 -40t-139 -22q-134 0 -242.5 66t-168.5 180t-60 252q0 137 57 249.5 t160 177.5t231 65q180 0 320 -111l8 66q3 24 26 24h13q13 0 22.5 -8.5t9.5 -22.5v-940q0 -199 -117.5 -311.5t-301.5 -112.5q-104 0 -189.5 40t-130.5 83q-16 16 -4 35l20 27q16 19 41 0q39 -33 111.5 -64.5t151.5 -31.5q146 0 237.5 87t91.5 248zM678 1231 q0 -35 -24.5 -56.5t-61.5 -21.5q-55 0 -86 42.5t-31 115.5q0 63 24.5 118t59.5 87q12 12 25 2l24 -21q14 -13 -2 -29q-24 -21 -40.5 -57t-16.5 -76q0 -36 10 -51q14 14 45 14q32 0 53 -19t21 -48z" />
<glyph unicode="&#x124;" horiz-adv-x="1525" d="M207 27v1380q0 11 8 19t18 8h43q12 0 19.5 -8t7.5 -19v-629h920v629q0 11 8 19t18 8h43q12 0 19.5 -8t7.5 -19v-1380q0 -11 -7.5 -19t-19.5 -8h-43q-10 0 -18 8t-8 19v665h-920v-665q0 -11 -7.5 -19t-19.5 -8h-43q-10 0 -18 8t-8 19zM549 1573q-18 -13 -31 4l-18 22 q-11 14 8 29l248 201q10 10 20 10h6q11 0 21 -10l248 -201q19 -15 8 -29l-19 -22q-13 -17 -30 -4l-232 172z" />
<glyph unicode="&#x125;" horiz-adv-x="1103" d="M172 31v1372q0 13 9 22t24 9h26q11 0 21 -9.5t10 -21.5v-584q138 148 326 148q354 0 354 -418v-518q0 -12 -9.5 -21.5t-21.5 -9.5h-28q-12 0 -21.5 9.5t-9.5 21.5v518q0 330 -268 330q-180 0 -322 -174v-674q0 -31 -31 -31h-32q-13 0 -20 9t-7 22zM-31 1571 q-17 -13 -30 4l-19 22q-11 14 8 29l248 201q10 10 21 10h6q10 0 20 -10l248 -201q19 -15 8 -29l-18 -22q-13 -17 -31 -4l-231 172z" />
<glyph unicode="&#x126;" horiz-adv-x="1527" d="M207 27v1083h-53q-10 0 -17.5 8.5t-7.5 20.5v8q0 11 7.5 19t17.5 8h53v233q0 11 8 19t18 8h43q12 0 19.5 -8t7.5 -19v-233h920v233q0 27 47 27h24q10 0 18.5 -8t8.5 -19v-233h53q13 0 20 -9t7 -22v-8q0 -11 -7.5 -18t-19.5 -7h-53v-1083q0 -11 -8.5 -19t-18.5 -8 q-4 0 -13 -0.5t-14 0t-13 1t-12.5 2t-9.5 4.5t-7 8t-2 12v665h-920v-665q0 -11 -9 -19t-24 -8h-37q-10 0 -18 8t-8 19zM303 780h920v330h-920v-330z" />
<glyph unicode="&#x127;" horiz-adv-x="1144" d="M172 31v1079h-74q-11 0 -17.5 9t-6.5 20v8q0 11 7 19t17 8h74v229q0 13 9 22t24 9h26q11 0 21 -9.5t10 -21.5v-229h395q13 0 20 -9t7 -22v-8q0 -9 -8.5 -17t-18.5 -8h-395v-291q15 16 42 37t71.5 48t106.5 45t126 18q184 0 279.5 -109t95.5 -309v-518q0 -12 -9.5 -21.5 t-21.5 -9.5h-28q-12 0 -21.5 9.5t-9.5 21.5v518q0 162 -75.5 246t-213.5 84q-63 0 -124.5 -21.5t-106.5 -54t-70.5 -56t-40.5 -42.5v-674q0 -31 -31 -31h-32q-13 0 -20 9t-7 22z" />
<glyph unicode="&#x128;" horiz-adv-x="512" d="M205 27v1380q0 11 8 19t18 8h45q10 0 18.5 -8t8.5 -19v-1380q0 -12 -9 -19.5t-20 -7.5h-43q-10 0 -18 8t-8 19zM-18 1636l-25 11q-19 6 -12 28q32 86 71 125q50 51 119 51q41 0 70.5 -19t47 -46.5t32.5 -55t35 -46.5t47 -19q77 0 116 121q3 10 12.5 14.5t18.5 -0.5l23 -8 q17 -8 12 -27q-3 -11 -7.5 -25t-20 -43t-35 -51t-53 -39.5t-73.5 -17.5t-69.5 19.5t-46.5 47.5t-32.5 55.5t-36 47t-46.5 19.5q-27 0 -48.5 -13t-35.5 -37t-20 -39t-13 -38q-7 -25 -30 -15z" />
<glyph unicode="&#x129;" horiz-adv-x="434" d="M170 31v884q0 12 9 21.5t22 9.5h28q11 0 21 -9.5t10 -21.5v-884q0 -31 -31 -31h-32q-13 0 -20 9t-7 22zM-41 1186l-25 10q-9 3 -12 11.5t0 17.5q35 92 79 132q49 44 112 44q41 0 70.5 -19.5t46.5 -46.5t32 -54.5t35 -47t47 -19.5q78 0 117 121q3 10 12.5 15t18.5 0l22 -9 q16 -8 12 -26q-3 -11 -7.5 -25t-20 -43t-34.5 -51t-52.5 -39.5t-73.5 -17.5t-69.5 19.5t-47 47t-33 55t-36 47t-46.5 19.5q-27 0 -48.5 -13t-35 -37.5t-19.5 -39t-13 -37.5q-7 -24 -31 -14z" />
<glyph unicode="&#x12a;" horiz-adv-x="512" d="M207 27v1380q0 11 8 19t18 8h46q10 0 18 -8t8 -19v-1380q0 -12 -9 -19.5t-20 -7.5h-43q-10 0 -18 8t-8 19zM-23 1702q-12 0 -19 8t-7 19v24q0 27 26 27h558q11 0 18.5 -7.5t7.5 -19.5v-24q0 -11 -8 -19t-18 -8h-558z" />
<glyph unicode="&#x12b;" horiz-adv-x="434" d="M172 31v884q0 12 9 21.5t22 9.5h28q11 0 21 -9.5t10 -21.5v-884q0 -31 -31 -31h-32q-13 0 -20 9t-7 22zM-53 1219q-12 0 -19.5 6.5t-7.5 17.5v27q0 11 7.5 18.5t19.5 7.5h557q10 0 18 -8t8 -18v-27q0 -10 -7.5 -17t-18.5 -7h-557z" />
<glyph unicode="&#x12c;" horiz-adv-x="512" d="M207 27v1380q0 11 8 19t18 8h46q10 0 18 -8t8 -19v-1380q0 -12 -9 -19.5t-20 -7.5h-43q-10 0 -18 8t-8 19zM256 1587q-104 0 -179 65.5t-89 162.5q-2 11 3.5 19.5t16.5 8.5h27q16 0 24 -24q20 -70 72 -115t125 -45q70 0 125 46t70 114q7 24 24 24h29q10 0 16 -8.5 t4 -19.5q-18 -98 -92.5 -163t-175.5 -65z" />
<glyph unicode="&#x12d;" horiz-adv-x="434" d="M172 31v884q0 12 9 21.5t22 9.5h28q11 0 21 -9.5t10 -21.5v-884q0 -31 -31 -31h-32q-13 0 -20 9t-7 22zM225 1102q-103 0 -176.5 64.5t-91.5 160.5q-4 29 20 29h27q17 0 25 -23q18 -71 70.5 -116.5t125.5 -45.5q70 0 125 46t70 116q7 23 24 23h29q10 0 16.5 -8.5 t4.5 -20.5q-15 -96 -91 -160.5t-178 -64.5z" />
<glyph unicode="&#x12e;" horiz-adv-x="514" d="M209 25v1382q0 11 8.5 19t18.5 8h45q10 0 18 -8t8 -19v-1380q0 -10 -5 -15t-17 -12q-42 -24 -74.5 -46.5t-72 -59.5t-61.5 -85.5t-22 -103.5t32.5 -88t88.5 -33q41 0 78 18.5t57 35.5q6 5 15 3t10 -12l4 -39q3 -23 -21 -36q-84 -50 -159 -50q-91 0 -143 56t-52 143 q0 49 17.5 94t41.5 77t61 64t63 49.5t61 37.5z" />
<glyph unicode="&#x12f;" horiz-adv-x="436" d="M174 29v886q0 12 9 21.5t22 9.5h28q11 0 21 -9.5t10 -21.5v-870q0 -35 -20 -45q-40 -20 -75 -44t-72.5 -60.5t-60 -86t-22.5 -104.5t32.5 -88t88.5 -33q41 0 78 18.5t57 35.5q6 5 15 3t10 -12l4 -39q3 -23 -20 -36q-84 -50 -160 -50q-91 0 -143 56t-52 143 q0 49 18.5 95.5t43.5 79t63 64.5t64.5 49.5t60.5 37.5zM217 1208q-34 0 -58 23t-24 55q0 34 24 57t58 23t57 -23t23 -57q0 -32 -23 -55t-57 -23z" />
<glyph unicode="&#x130;" horiz-adv-x="512" d="M207 27v1380q0 11 8 19t18 8h46q10 0 18 -8t8 -19v-1380q0 -12 -9 -19.5t-20 -7.5h-43q-10 0 -18 8t-8 19zM254 1657q-34 0 -58 23t-24 55q0 34 24 57t58 23t57 -23t23 -57q0 -32 -23 -55t-57 -23z" />
<glyph unicode="&#x131;" horiz-adv-x="434" d="M172 31v884q0 12 9 21.5t22 9.5h28q11 0 21 -9.5t10 -21.5v-884q0 -31 -31 -31h-32q-13 0 -20 9t-7 22z" />
<glyph unicode="&#x132;" horiz-adv-x="1396" d="M207 27v1380q0 11 8 19t18 8h46q10 0 18 -8t8 -19v-1380q0 -12 -9 -19.5t-20 -7.5h-43q-10 0 -18 8t-8 19zM489 133q-13 19 3 35l26 25q18 17 35 0q57 -57 89 -78q75 -49 163 -49q138 0 218.5 84.5t80.5 259.5v997q0 12 8.5 19.5t20.5 7.5h41q10 0 18 -8t8 -19v-995 q0 -211 -105 -321.5t-292 -110.5q-189 0 -314 153z" />
<glyph unicode="&#x133;" horiz-adv-x="919" d="M172 31v884q0 12 9 21.5t22 9.5h28q11 0 21 -9.5t10 -21.5v-884q0 -31 -31 -31h-32q-13 0 -20 9t-7 22zM215 1208q-34 0 -58 23t-24 55q0 34 24 57t58 23t57 -23t23 -57q0 -32 -23 -55t-57 -23zM700 1208q-34 0 -58 23t-24 55q0 34 24 57t58 23t57 -23t23 -57 q0 -32 -23 -55t-57 -23zM748 915v-1060q0 -157 -58 -238t-180 -121q-36 -11 -47 17l-8 20q-6 12 -1 26.5t21 18.5q88 22 135 82t47 176v1079q0 12 9 21.5t22 9.5h29q11 0 21 -9.5t10 -21.5z" />
<glyph unicode="&#x134;" horiz-adv-x="952" d="M45 133q-13 20 2 35l27 25q18 17 35 0q56 -56 86 -76q74 -51 165 -51q138 0 218.5 84.5t80.5 259.5v997q0 12 8.5 19.5t20.5 7.5h41q11 0 19 -8t8 -19v-995q0 -211 -105.5 -321.5t-292.5 -110.5q-188 0 -313 153zM475 1573q-18 -13 -31 4l-18 22q-11 14 8 29l248 201 q10 10 20 10h7q10 0 20 -10l248 -201q19 -15 8 -29l-18 -22q-13 -17 -31 -4l-231 172z" />
<glyph unicode="&#x135;" horiz-adv-x="434" d="M262 915v-1060q0 -157 -57.5 -238t-179.5 -121q-37 -12 -48 17l-8 20q-6 12 -0.5 26.5t21.5 18.5q88 22 135 82t47 176v1079q0 12 9 21.5t22 9.5h28q11 0 21 -9.5t10 -21.5zM-14 1126q-18 -13 -31 4l-18 23q-11 14 8 29l248 200q11 11 20 11h6q10 0 21 -11l247 -200 q20 -16 9 -29l-19 -23q-13 -17 -31 -4l-231 172z" />
<glyph unicode="&#x136;" horiz-adv-x="1169" d="M207 27v1376q0 13 8.5 22t22.5 9h36q14 0 22.5 -9t8.5 -22v-637l696 653q17 15 41 15h58q16 0 19 -13t-7 -22l-713 -666l736 -698q10 -7 5 -21t-24 -14h-65q-25 0 -45 20l-701 676v-669q0 -27 -31 -27h-41q-26 0 -26 27zM555 -233q0 35 24.5 56t61.5 21q55 0 86 -42 t31 -115q0 -63 -24.5 -118t-59.5 -87q-12 -12 -25 -2l-24 20q-13 14 2 29q24 21 40.5 57t16.5 76q0 36 -10 51q-14 -14 -45 -14q-32 0 -53 19.5t-21 48.5z" />
<glyph unicode="&#x137;" horiz-adv-x="946" d="M172 31v1372q0 12 9 21.5t22 9.5h26q11 0 21 -9.5t10 -21.5v-842l488 371q20 14 38 14h68q17 0 18.5 -16t-12.5 -27l-502 -379l525 -483q13 -12 7 -26.5t-20 -14.5h-53q-21 0 -47 18l-510 476v-463q0 -31 -31 -31h-30q-13 0 -20 9t-7 22zM436 -233q0 35 24.5 56t61.5 21 q55 0 86 -42t31 -115q0 -63 -24.5 -118t-59.5 -87q-12 -12 -25 -2l-24 20q-14 14 2 29q24 21 40.5 57t16.5 76q0 36 -10 51q-14 -14 -45 -14q-32 0 -53 19.5t-21 48.5z" />
<glyph unicode="&#x138;" horiz-adv-x="968" d="M172 29v843q0 11 8.5 20t20.5 9h35q10 0 18 -9t8 -20v-387l502 402q17 14 37 14h63q17 0 18.5 -15.5t-12.5 -25.5l-518 -405l551 -416q12 -11 7 -25t-19 -14h-64q-23 0 -45 18l-520 404v-393q0 -29 -26 -29h-39q-11 0 -18 9t-7 20z" />
<glyph unicode="&#x139;" horiz-adv-x="1011" d="M207 27v1380q0 11 8 19t18 8h46q9 0 16.5 -8.5t7.5 -18.5v-1321h653q17 0 22 -7t5 -20v-36q0 -10 -8 -16.5t-19 -6.5h-723q-10 0 -18 8t-8 19zM102 1602q-24 -11 -32 6l-11 20q-7 18 13 29l336 184q24 12 34 -6l21 -41q11 -22 -8 -31z" />
<glyph unicode="&#x13a;" horiz-adv-x="458" d="M184 31v1372q0 12 9 21.5t22 9.5h29q11 0 20.5 -9.5t9.5 -21.5v-1372q0 -31 -30 -31h-33q-13 0 -20 9t-7 22zM74 1587q-14 -5 -19 -3.5t-10 11.5l-12 27q-8 18 12 29l338 178q24 14 35 -6l20 -41q11 -22 -18 -37z" />
<glyph unicode="&#x13b;" horiz-adv-x="1011" d="M207 27v1380q0 11 8 19t18 8h46q9 0 16.5 -8.5t7.5 -18.5v-1321h653q17 0 22 -7t5 -20v-36q0 -10 -8 -16.5t-19 -6.5h-723q-10 0 -18 8t-8 19zM504 -233q0 35 24.5 56t61.5 21q55 0 86 -42t31 -115q0 -63 -24.5 -118t-59.5 -87q-12 -12 -25 -2l-25 20q-13 14 2 29 q25 22 41.5 58t16.5 75q0 36 -10 51q-14 -14 -45 -14q-32 0 -53 19.5t-21 48.5z" />
<glyph unicode="&#x13c;" horiz-adv-x="458" d="M184 31v1372q0 12 9 21.5t22 9.5h29q11 0 20.5 -9.5t9.5 -21.5v-1372q0 -31 -30 -31h-33q-13 0 -20 9t-7 22zM131 -233q0 35 24.5 56t61.5 21q55 0 86 -42t31 -115q0 -63 -24.5 -118t-59.5 -87q-12 -12 -25 -2l-24 20q-13 14 2 29q24 21 40.5 57t16.5 76q0 36 -10 51 q-14 -14 -45 -14q-32 0 -53 19.5t-21 48.5z" />
<glyph unicode="&#x13d;" horiz-adv-x="1024" d="M207 27v1380q0 11 8 19t18 8h46q9 0 16.5 -8.5t7.5 -18.5v-1321h653q17 0 22 -7t5 -20v-36q0 -10 -8 -16.5t-19 -6.5h-723q-10 0 -18 8t-8 19zM705 1376q0 35 24.5 56.5t61.5 21.5q55 0 85.5 -42.5t30.5 -115.5q0 -63 -24.5 -117.5t-59.5 -86.5q-11 -11 -24 -2l-25 20 q-14 14 2 29q25 22 41.5 58t16.5 75q0 34 -11 51q-14 -14 -45 -14q-32 0 -52.5 19t-20.5 48z" />
<glyph unicode="&#x13e;" horiz-adv-x="458" d="M184 31v1372q0 12 9 21.5t22 9.5h29q11 0 20.5 -9.5t9.5 -21.5v-1372q0 -31 -30 -31h-33q-13 0 -20 9t-7 22zM424 1376q0 35 24.5 56.5t61.5 21.5q55 0 86 -42.5t31 -115.5q0 -63 -24.5 -117.5t-59.5 -86.5q-12 -12 -25 -2l-24 20q-14 14 2 29q24 21 40.5 57t16.5 76 q0 36 -10 51q-14 -14 -45 -14q-32 0 -53 19t-21 48z" />
<glyph unicode="&#x13f;" horiz-adv-x="1067" d="M207 27v1380q0 11 8 19t18 8h46q9 0 16.5 -8.5t7.5 -18.5v-1321h653q17 0 22 -7t5 -20v-36q0 -10 -8 -16.5t-19 -6.5h-723q-10 0 -18 8t-8 19zM922 647q-34 0 -59 24t-25 58q0 35 25 58.5t59 23.5q35 0 58.5 -23.5t23.5 -58.5q0 -34 -23.5 -58t-58.5 -24z" />
<glyph unicode="&#x140;" horiz-adv-x="595" d="M184 31v1372q0 12 9 21.5t22 9.5h29q11 0 20.5 -9.5t9.5 -21.5v-1372q0 -31 -30 -31h-33q-13 0 -20 9t-7 22zM528 623q-34 0 -59 24t-25 58q0 35 25 58t59 23q35 0 58.5 -23t23.5 -58q0 -34 -23.5 -58t-58.5 -24z" />
<glyph unicode="&#x141;" horiz-adv-x="1013" d="M207 27v628l-68 -32q-9 -6 -18.5 -3.5t-14.5 11.5l-8 14q-5 7 -1.5 18t12.5 15l98 49v680q0 11 7 19t19 8h43q10 0 18.5 -8t8.5 -19v-625l299 152q9 6 20 3t15 -13l6 -13q5 -9 1.5 -18t-11.5 -14l-330 -170v-623h674q27 0 27 -41v-18q0 -11 -8 -19t-19 -8h-744 q-12 0 -19 8t-7 19z" />
<glyph unicode="&#x142;" horiz-adv-x="585" d="M205 31v657l-139 -72q-23 -11 -33 9l-6 12q-6 9 -3 19.5t11 15.5l170 88v643q0 12 9 21.5t22 9.5h28q11 0 21 -9.5t10 -21.5v-596l233 121q9 6 18.5 2.5t14.5 -12.5l6 -13q12 -20 -10 -33l-262 -137v-704q0 -31 -31 -31h-33q-26 0 -26 31z" />
<glyph unicode="&#x143;" horiz-adv-x="1562" d="M209 27v1400q0 12 9.5 19.5t21.5 7.5h14q22 0 33 -16l970 -1264h3v1233q0 11 8 19t18 8h41q11 0 19 -8t8 -19v-1401q0 -13 -10 -19.5t-23 -6.5h-6q-22 0 -33 16l-979 1276h-2v-1245q0 -11 -8.5 -19t-18.5 -8h-38q-10 0 -18.5 8t-8.5 19zM653 1602q-24 -11 -32 6l-11 20 q-7 18 13 29l335 184q25 12 35 -6l21 -41q11 -22 -8 -31z" />
<glyph unicode="&#x144;" horiz-adv-x="1105" d="M172 31v884q0 13 9 22t24 9h10q26 0 29 -24l10 -101q18 19 40.5 38t65.5 46.5t103 44.5t125 17q191 0 273.5 -107.5t82.5 -306.5v-522q0 -12 -9.5 -21.5t-21.5 -9.5h-28q-12 0 -21.5 9.5t-9.5 21.5v518q0 330 -270 330q-54 0 -106.5 -16t-88 -37.5t-66 -47t-43.5 -40 t-18 -21.5v-686q0 -31 -31 -31h-32q-13 0 -20 9t-7 22zM391 1143q-14 -5 -19 -3.5t-10 11.5l-12 27q-7 17 12 28l338 178q24 14 35 -6l21 -41q11 -22 -19 -37z" />
<glyph unicode="&#x145;" horiz-adv-x="1562" d="M209 27v1400q0 12 9.5 19.5t21.5 7.5h14q22 0 33 -16l970 -1264h3v1233q0 11 8 19t18 8h41q11 0 19 -8t8 -19v-1401q0 -13 -10 -19.5t-23 -6.5h-6q-22 0 -33 16l-979 1276h-2v-1245q0 -11 -8.5 -19t-18.5 -8h-38q-10 0 -18.5 8t-8.5 19zM711 -233q0 35 24.5 56t61.5 21 q55 0 85.5 -42t30.5 -115q0 -63 -24.5 -118t-59.5 -87q-11 -11 -24 -2l-25 20q-14 14 2 29q25 22 41.5 58t16.5 75q0 34 -11 51q-14 -14 -45 -14q-32 0 -52.5 19.5t-20.5 48.5z" />
<glyph unicode="&#x146;" horiz-adv-x="1105" d="M172 31v884q0 13 9 22t24 9h10q26 0 29 -24l10 -101q18 19 40.5 38t65.5 46.5t103 44.5t125 17q191 0 273.5 -107.5t82.5 -306.5v-522q0 -12 -9.5 -21.5t-21.5 -9.5h-28q-12 0 -21.5 9.5t-9.5 21.5v518q0 330 -270 330q-54 0 -106.5 -16t-88 -37.5t-66 -47t-43.5 -40 t-18 -21.5v-686q0 -31 -31 -31h-32q-13 0 -20 9t-7 22zM453 -233q0 35 24.5 56t61.5 21q55 0 85.5 -42t30.5 -115q0 -63 -24.5 -118t-59.5 -87q-11 -11 -24 -2l-25 20q-14 14 2 29q25 22 41.5 58t16.5 75q0 34 -11 51q-14 -14 -45 -14q-32 0 -52.5 19.5t-20.5 48.5z" />
<glyph unicode="&#x147;" horiz-adv-x="1562" d="M209 27v1400q0 12 9.5 19.5t21.5 7.5h14q22 0 33 -16l970 -1264h3v1233q0 11 8 19t18 8h41q11 0 19 -8t8 -19v-1401q0 -13 -10 -19.5t-23 -6.5h-6q-22 0 -33 16l-979 1276h-2v-1245q0 -11 -8.5 -19t-18.5 -8h-38q-10 0 -18.5 8t-8.5 19zM791 1563q-11 0 -21 10l-248 201 q-19 15 -8 28l18 23q13 17 31 4l232 -172l229 172q18 13 31 -4l18 -23q11 -13 -8 -28l-248 -201q-10 -10 -20 -10h-6z" />
<glyph unicode="&#x148;" horiz-adv-x="1105" d="M172 31v884q0 13 9 22t24 9h10q26 0 29 -24l10 -101q18 19 40.5 38t65.5 46.5t103 44.5t125 17q191 0 273.5 -107.5t82.5 -306.5v-522q0 -12 -9.5 -21.5t-21.5 -9.5h-28q-12 0 -21.5 9.5t-9.5 21.5v518q0 330 -270 330q-54 0 -106.5 -16t-88 -37.5t-66 -47t-43.5 -40 t-18 -21.5v-686q0 -31 -31 -31h-32q-13 0 -20 9t-7 22zM557 1116q-10 0 -20 10l-248 201q-19 15 -8 29l18 22q13 17 31 4l231 -172l230 172q17 13 30 -4l19 -22q11 -13 -9 -29l-247 -201q-10 -10 -21 -10h-6z" />
<glyph unicode="&#x149;" horiz-adv-x="1105" d="M-35 1378q0 35 24.5 56.5t61.5 21.5q55 0 86 -42.5t31 -115.5q0 -63 -24.5 -117.5t-59.5 -86.5q-12 -12 -25 -2l-24 20q-13 14 2 29q24 21 40.5 57t16.5 76q0 36 -10 51q-14 -14 -45 -14q-32 0 -53 19t-21 48zM172 31v884q0 13 9 22t24 9h10q26 0 29 -24l10 -101 q18 19 40.5 38t65.5 46.5t103 44.5t125 17q191 0 273.5 -107.5t82.5 -306.5v-522q0 -12 -9.5 -21.5t-21.5 -9.5h-28q-12 0 -21.5 9.5t-9.5 21.5v518q0 330 -270 330q-54 0 -106.5 -16t-88 -37.5t-66 -47t-43.5 -40t-18 -21.5v-686q0 -31 -31 -31h-32q-13 0 -20 9t-7 22z" />
<glyph unicode="&#x14a;" horiz-adv-x="1562" d="M1260 -166v180q-77 94 -957 1258h-2v-1245q0 -11 -8.5 -19t-18.5 -8h-38q-10 0 -18.5 8t-8.5 19v1400q0 12 9.5 19.5t21.5 7.5h14q22 0 33 -16l970 -1270h3v1239q0 11 8 19t18 8h41q11 0 19 -8t8 -19v-1552q0 -157 -58 -238t-180 -121q-36 -11 -47 17l-8 20 q-6 12 -1 26.5t21 18.5q88 22 133.5 80.5t45.5 175.5z" />
<glyph unicode="&#x14b;" horiz-adv-x="1105" d="M944 553v-698q0 -157 -57.5 -238t-179.5 -121q-37 -12 -48 17l-8 20q-6 12 -0.5 26.5t21.5 18.5q88 22 135 82t47 176v713q0 330 -270 330q-54 0 -106.5 -16t-88 -37.5t-66 -47t-43.5 -40t-18 -21.5v-686q0 -31 -31 -31h-32q-13 0 -20 9t-7 22v884q0 13 9 22t24 9h10 q26 0 29 -24l10 -101q18 19 40.5 38t65.5 46.5t103 44.5t125 17q191 0 273.5 -107.5t82.5 -306.5z" />
<glyph unicode="&#x14c;" horiz-adv-x="1705" d="M115 715q0 151 58 288t156.5 236t235 157t287.5 58q152 0 289 -58t235.5 -157t156.5 -236t58 -288q0 -152 -58 -288.5t-156.5 -234t-235.5 -155t-289 -57.5q-151 0 -287.5 57.5t-235 155t-156.5 234t-58 288.5zM205 715q0 -176 86.5 -324.5t235.5 -234.5t325 -86 t325.5 86t236.5 234.5t87 324.5t-87 325.5t-236.5 236.5t-325.5 87t-325 -87t-235.5 -236.5t-86.5 -325.5zM575 1702q-12 0 -19 8t-7 19v24q0 27 26 27h558q11 0 18.5 -7.5t7.5 -19.5v-24q0 -11 -8 -19t-18 -8h-558z" />
<glyph unicode="&#x14d;" horiz-adv-x="1163" d="M106 475q0 133 62 245.5t172 179.5t242 67q129 0 239 -66.5t173 -180t63 -245.5q0 -136 -63 -250.5t-172.5 -181t-239.5 -66.5q-201 0 -338.5 145t-137.5 353zM197 475q0 -170 112 -289.5t273 -119.5q158 0 268.5 119.5t110.5 289.5q0 166 -110.5 285t-268.5 119 q-160 0 -272.5 -118.5t-112.5 -285.5zM305 1219q-26 0 -26 24v27q0 11 7 18.5t19 7.5h557q11 0 19 -8t8 -18v-27q0 -10 -8 -17t-19 -7h-557z" />
<glyph unicode="&#x14e;" horiz-adv-x="1705" d="M115 715q0 151 58 288t156.5 236t235 157t287.5 58q152 0 289 -58t235.5 -157t156.5 -236t58 -288q0 -152 -58 -288.5t-156.5 -234t-235.5 -155t-289 -57.5q-151 0 -287.5 57.5t-235 155t-156.5 234t-58 288.5zM205 715q0 -176 86.5 -324.5t235.5 -234.5t325 -86 t325.5 86t236.5 234.5t87 324.5t-87 325.5t-236.5 236.5t-325.5 87t-325 -87t-235.5 -236.5t-86.5 -325.5zM854 1587q-104 0 -179 65.5t-89 162.5q-2 11 3.5 19.5t16.5 8.5h27q16 0 24 -24q20 -70 72 -115t125 -45q70 0 125 46t70 114q7 24 24 24h29q10 0 16 -8.5t4 -19.5 q-18 -98 -92.5 -163t-175.5 -65z" />
<glyph unicode="&#x14f;" horiz-adv-x="1163" d="M106 475q0 133 62 245.5t172 179.5t242 67q129 0 239 -66.5t173 -180t63 -245.5q0 -136 -63 -250.5t-172.5 -181t-239.5 -66.5q-201 0 -338.5 145t-137.5 353zM197 475q0 -170 112 -289.5t273 -119.5q158 0 268.5 119.5t110.5 289.5q0 166 -110.5 285t-268.5 119 q-160 0 -272.5 -118.5t-112.5 -285.5zM584 1102q-103 0 -177 64.5t-92 160.5q-2 13 3.5 21t17.5 8h26q17 0 25 -23q18 -71 71 -116.5t126 -45.5q70 0 124.5 46t69.5 116q7 23 25 23h28q10 0 16.5 -8.5t4.5 -20.5q-15 -96 -90.5 -160.5t-177.5 -64.5z" />
<glyph unicode="&#x150;" horiz-adv-x="1705" d="M115 715q0 151 58 288t156.5 236t235 157t287.5 58q152 0 289 -58t235.5 -157t156.5 -236t58 -288q0 -152 -58 -288.5t-156.5 -234t-235.5 -155t-289 -57.5q-151 0 -287.5 57.5t-235 155t-156.5 234t-58 288.5zM205 715q0 -176 86.5 -324.5t235.5 -234.5t325 -86 t325.5 86t236.5 234.5t87 324.5t-87 325.5t-236.5 236.5t-325.5 87t-325 -87t-235.5 -236.5t-86.5 -325.5zM1026 1569q-11 0 -14.5 6.5t0.5 17.5l162 326q10 23 28 23h45q17 0 23 -11t-2 -24l-191 -322q-8 -16 -26 -16h-25zM686 1569q-11 0 -14.5 6.5t0.5 17.5l162 326 q10 23 28 23h45q17 0 23 -11t-2 -24l-191 -322q-8 -16 -26 -16h-25z" />
<glyph unicode="&#x151;" horiz-adv-x="1163" d="M106 475q0 133 62 245.5t172 179.5t242 67q129 0 239 -66.5t173 -180t63 -245.5q0 -136 -63 -250.5t-172.5 -181t-239.5 -66.5q-201 0 -338.5 145t-137.5 353zM197 475q0 -170 112 -289.5t273 -119.5q158 0 268.5 119.5t110.5 289.5q0 166 -110.5 285t-268.5 119 q-160 0 -272.5 -118.5t-112.5 -285.5zM705 1061q-11 0 -15 7t0 17l162 326q10 23 29 23h45q17 0 22.5 -11t-2.5 -24l-190 -322q-8 -16 -27 -16h-24zM365 1061q-11 0 -15 7t0 17l162 326q10 23 29 23h45q17 0 22.5 -11t-2.5 -24l-190 -322q-8 -16 -27 -16h-24z" />
<glyph unicode="&#x152;" horiz-adv-x="1972" d="M115 715q0 101 26 197t73 177t114.5 149t148.5 115.5t176.5 74t196.5 26.5q77 0 174 -20h817q10 0 17.5 -8t7.5 -19v-35q0 -11 -7.5 -18.5t-17.5 -7.5h-749v-566h649q11 0 18.5 -8t7.5 -18v-35q0 -11 -8 -19t-18 -8h-649v-606h749q10 0 17.5 -8t7.5 -19v-32 q0 -11 -7.5 -19t-17.5 -8h-815q-97 -20 -176 -20q-152 0 -288.5 57.5t-234 155t-155 234t-57.5 288.5zM203 715q0 -176 86.5 -324.5t235.5 -234.5t325 -86q77 0 143 14v1262q-75 16 -143 16q-176 0 -325 -86.5t-235.5 -235.5t-86.5 -325z" />
<glyph unicode="&#x153;" horiz-adv-x="1847" d="M106 475q0 133 62 245.5t171.5 179.5t240.5 67q113 0 212 -51.5t166 -141.5q128 193 371 193q186 0 305 -120t119 -312q0 -91 -37 -91h-706v-176q38 -86 124 -144t203 -58q79 0 155 28t128 66q28 20 41 0l22 -35q11 -19 -8 -35q-53 -42 -149.5 -77.5t-196.5 -35.5 q-126 0 -214 50t-157 143q-67 -92 -165 -142.5t-213 -50.5q-132 0 -241 66.5t-171 181t-62 250.5zM1010 528h653q0 145 -90.5 248t-243.5 103q-101 0 -191.5 -54t-127.5 -141v-156zM197 475q0 -173 114 -291t273 -118q116 0 207.5 66t119.5 136l-2 414q-20 34 -47.5 65.5 t-67.5 62.5t-95 50t-115 19q-158 0 -272.5 -117.5t-114.5 -286.5z" />
<glyph unicode="&#x154;" horiz-adv-x="1318" d="M207 27v1380q0 11 7 19t19 8h508q190 0 323.5 -124t133.5 -309q0 -153 -95 -272.5t-243 -161.5l299 -530q8 -12 4 -24.5t-18 -12.5h-53q-18 0 -26.5 5.5t-16.5 19.5l-293 530q-27 -2 -76 -2h-377v-526q0 -11 -9 -19t-24 -8h-37q-10 0 -18 8t-8 19zM305 647h432 q150 0 256.5 102t106.5 252q0 144 -107 241t-258 97h-430v-692zM459 1602q-25 -11 -33 6l-10 20q-7 18 12 29l336 184q25 12 35 -6l20 -41q11 -22 -8 -31z" />
<glyph unicode="&#x155;" horiz-adv-x="765" d="M172 31v884q0 12 9 21.5t22 9.5h14q24 0 27 -26l10 -97q14 18 34.5 37.5t58 46t92.5 43.5t116 17q66 0 147 -27q15 -4 22.5 -16.5t2.5 -26.5l-12 -37q-9 -27 -39 -12q-52 31 -127 31q-52 0 -100 -15.5t-79.5 -37t-57 -46.5t-36.5 -40.5t-14 -22.5v-686q0 -31 -31 -31h-32 q-13 0 -20 9t-7 22zM262 1143q-14 -5 -19 -3.5t-10 11.5l-12 27q-7 17 12 28l338 178q24 14 35 -6l21 -41q11 -22 -19 -37z" />
<glyph unicode="&#x156;" horiz-adv-x="1318" d="M207 27v1380q0 11 7 19t19 8h508q190 0 323.5 -124t133.5 -309q0 -153 -95 -272.5t-243 -161.5l299 -530q8 -12 4 -24.5t-18 -12.5h-53q-18 0 -26.5 5.5t-16.5 19.5l-293 530q-27 -2 -76 -2h-377v-526q0 -11 -9 -19t-24 -8h-37q-10 0 -18 8t-8 19zM305 647h432 q150 0 256.5 102t106.5 252q0 144 -107 241t-258 97h-430v-692zM545 -233q0 35 24.5 56t61.5 21q55 0 86 -42t31 -115q0 -63 -24.5 -118t-59.5 -87q-12 -12 -25 -2l-25 20q-14 14 2 29q25 22 41.5 58t16.5 75q0 36 -10 51q-14 -14 -46 -14t-52.5 19.5t-20.5 48.5z" />
<glyph unicode="&#x157;" horiz-adv-x="765" d="M172 31v884q0 12 9 21.5t22 9.5h14q24 0 27 -26l10 -97q14 18 34.5 37.5t58 46t92.5 43.5t116 17q66 0 147 -27q15 -4 22.5 -16.5t2.5 -26.5l-12 -37q-9 -27 -39 -12q-52 31 -127 31q-52 0 -100 -15.5t-79.5 -37t-57 -46.5t-36.5 -40.5t-14 -22.5v-686q0 -31 -31 -31h-32 q-13 0 -20 9t-7 22zM121 -233q0 35 24.5 56t61.5 21q55 0 86 -42t31 -115q0 -63 -24.5 -118t-59.5 -87q-12 -12 -25 -2l-25 20q-13 13 3 29q24 21 40.5 57t16.5 76q0 36 -10 51q-14 -14 -45 -14q-32 0 -53 19.5t-21 48.5z" />
<glyph unicode="&#x158;" horiz-adv-x="1318" d="M207 27v1380q0 11 7 19t19 8h508q190 0 323.5 -124t133.5 -309q0 -153 -95 -272.5t-243 -161.5l299 -530q8 -12 4 -24.5t-18 -12.5h-53q-18 0 -26.5 5.5t-16.5 19.5l-293 530q-27 -2 -76 -2h-377v-526q0 -11 -9 -19t-24 -8h-37q-10 0 -18 8t-8 19zM305 647h432 q150 0 256.5 102t106.5 252q0 144 -107 241t-258 97h-430v-692zM596 1563q-11 0 -21 10l-247 201q-19 15 -9 28l19 23q13 17 31 4l231 -172l229 172q18 13 31 -4l19 -23q10 -13 -9 -28l-247 -201q-10 -10 -21 -10h-6z" />
<glyph unicode="&#x159;" horiz-adv-x="765" d="M172 31v884q0 12 9 21.5t22 9.5h14q24 0 27 -26l10 -97q14 18 34.5 37.5t58 46t92.5 43.5t116 17q66 0 147 -27q15 -4 22.5 -16.5t2.5 -26.5l-12 -37q-9 -27 -39 -12q-52 31 -127 31q-52 0 -100 -15.5t-79.5 -37t-57 -46.5t-36.5 -40.5t-14 -22.5v-686q0 -31 -31 -31h-32 q-13 0 -20 9t-7 22zM424 1116q-11 0 -21 10l-247 201q-20 16 -9 29l19 22q13 17 31 4l231 -172l229 172q18 13 31 -4l19 -22q11 -13 -9 -29l-247 -201q-10 -10 -21 -10h-6z" />
<glyph unicode="&#x15a;" horiz-adv-x="1107" d="M135 147q-23 19 -6 43l18 25q24 27 46 8q15 -13 28 -24t53.5 -38t80 -45.5t99 -34t117.5 -15.5q145 0 244.5 74t99.5 200q0 67 -26 119t-81 92.5t-122 71.5t-168 65q-79 28 -133 52t-107.5 58.5t-85 74t-50.5 95t-19 124.5q0 48 15 97t49 97t84 85t126 60t168 23 q57 0 114 -10.5t98.5 -26t74.5 -31t50 -26.5l16 -10q23 -18 8 -43l-17 -27q-15 -28 -45 -10q-8 5 -19 12t-44 23.5t-66 28.5t-80.5 22t-91.5 10q-90 0 -159.5 -25.5t-108.5 -67t-58.5 -87t-19.5 -92.5q0 -64 23 -113t70.5 -86.5t105 -64t141.5 -54.5q92 -31 156.5 -59 t125.5 -66t97.5 -80t58 -99.5t21.5 -127.5q0 -110 -63 -194t-164 -127t-220 -43q-69 0 -136.5 15.5t-114 35.5t-89.5 47t-61.5 41.5t-32.5 27.5zM422 1585q-25 -11 -33 6l-10 21q-7 17 12 28l336 185q25 12 35 -6l20 -41q11 -22 -8 -31z" />
<glyph unicode="&#x15b;" horiz-adv-x="847" d="M123 82q-21 16 -10 35l18 33q6 11 18.5 12t24.5 -8q21 -17 48.5 -34t88.5 -38t121 -21q107 0 171.5 47t64.5 123q0 32 -14 59.5t-36 48t-60 41.5t-74 36t-91 35q-69 24 -115.5 47t-87 55t-60 74.5t-19.5 97.5q0 40 17.5 81t52 78t95.5 60t138 23q149 0 266 -72 q25 -18 12 -43l-12 -23q-11 -23 -41 -8q-119 62 -225 62q-104 0 -158.5 -47.5t-54.5 -108.5q0 -66 58 -110t175 -87q38 -14 52.5 -19.5t48 -19t47.5 -21t41.5 -22t39.5 -25.5t31 -27.5t27.5 -33t19 -37t14 -44t3.5 -50.5q0 -108 -92.5 -181t-233.5 -73q-172 0 -309 105z M291 1145q-14 -5 -19 -3.5t-10 11.5l-12 27q-7 17 12 28l338 178q24 14 35 -6l20 -41q11 -22 -18 -36z" />
<glyph unicode="&#x15c;" horiz-adv-x="1107" d="M135 147q-23 19 -6 43l18 25q24 27 46 8q15 -13 28 -24t53.5 -38t80 -45.5t99 -34t117.5 -15.5q145 0 244.5 74t99.5 200q0 67 -26 119t-81 92.5t-122 71.5t-168 65q-79 28 -133 52t-107.5 58.5t-85 74t-50.5 95t-19 124.5q0 48 15 97t49 97t84 85t126 60t168 23 q57 0 114 -10.5t98.5 -26t74.5 -31t50 -26.5l16 -10q23 -18 8 -43l-17 -27q-15 -28 -45 -10q-8 5 -19 12t-44 23.5t-66 28.5t-80.5 22t-91.5 10q-90 0 -159.5 -25.5t-108.5 -67t-58.5 -87t-19.5 -92.5q0 -64 23 -113t70.5 -86.5t105 -64t141.5 -54.5q92 -31 156.5 -59 t125.5 -66t97.5 -80t58 -99.5t21.5 -127.5q0 -110 -63 -194t-164 -127t-220 -43q-69 0 -136.5 15.5t-114 35.5t-89.5 47t-61.5 41.5t-32.5 27.5zM330 1556q-17 -13 -31 5l-18 22q-11 14 8 29l248 200q11 11 20 11h6q10 0 21 -11l247 -200q20 -16 9 -29l-19 -22 q-13 -18 -30 -5l-232 173z" />
<glyph unicode="&#x15d;" horiz-adv-x="847" d="M123 82q-21 16 -10 35l18 33q6 11 18.5 12t24.5 -8q21 -17 48.5 -34t88.5 -38t121 -21q107 0 171.5 47t64.5 123q0 32 -14 59.5t-36 48t-60 41.5t-74 36t-91 35q-69 24 -115.5 47t-87 55t-60 74.5t-19.5 97.5q0 40 17.5 81t52 78t95.5 60t138 23q149 0 266 -72 q25 -18 12 -43l-12 -23q-11 -23 -41 -8q-119 62 -225 62q-104 0 -158.5 -47.5t-54.5 -108.5q0 -66 58 -110t175 -87q38 -14 52.5 -19.5t48 -19t47.5 -21t41.5 -22t39.5 -25.5t31 -27.5t27.5 -33t19 -37t14 -44t3.5 -50.5q0 -108 -92.5 -181t-233.5 -73q-172 0 -309 105z M190 1128q-17 -13 -30 5l-19 22q-11 13 9 29l247 200q11 11 21 11h6q9 0 20 -11l248 -200q19 -15 8 -29l-18 -22q-14 -18 -31 -5l-231 172z" />
<glyph unicode="&#x15e;" horiz-adv-x="1107" d="M135 147q-23 19 -6 43l18 25q24 27 46 8q15 -13 28 -24t53.5 -38t80 -45.5t99 -34t117.5 -15.5q145 0 244.5 74t99.5 200q0 67 -26 119t-81 92.5t-122 71.5t-168 65q-79 28 -133 52t-107.5 58.5t-85 74t-50.5 95t-19 124.5q0 48 15 97t49 97t84 85t126 60t168 23 q57 0 114 -10.5t98.5 -26t74.5 -31t50 -26.5l16 -10q23 -18 8 -43l-17 -27q-15 -28 -45 -10q-8 5 -19 12t-44 23.5t-66 28.5t-80.5 22t-91.5 10q-90 0 -159.5 -25.5t-108.5 -67t-58.5 -87t-19.5 -92.5q0 -64 23 -113t70.5 -86.5t105 -64t141.5 -54.5q92 -31 156.5 -59 t125.5 -66t97.5 -80t58 -99.5t21.5 -127.5q0 -102 -55 -182.5t-144.5 -125.5t-198.5 -54l-75 -123q12 4 39 4q74 0 130 -41t56 -125q0 -82 -61 -131t-152 -49q-99 0 -166 63q-12 12 -2 27l21 39q10 15 26 2q47 -51 117 -51q60 0 94.5 25t34.5 71q0 45 -33.5 68.5t-87.5 23.5 q-57 0 -102 -18q-10 -4 -21 5.5t-6 18.5l102 191q-77 4 -150.5 26t-124.5 52.5t-79 51t-43 35.5z" />
<glyph unicode="&#x15f;" horiz-adv-x="847" d="M123 82q-21 16 -10 35l18 33q6 11 18.5 12t24.5 -8q21 -17 48.5 -34t88.5 -38t121 -21q107 0 171.5 47t64.5 123q0 32 -14 59.5t-36 48t-60 41.5t-74 36t-91 35q-69 24 -115.5 47t-87 55t-60 74.5t-19.5 97.5q0 40 17.5 81t52 78t95.5 60t138 23q149 0 266 -72 q25 -18 12 -43l-12 -23q-11 -23 -41 -8q-119 62 -225 62q-104 0 -158.5 -47.5t-54.5 -108.5q0 -66 58 -110t175 -87q38 -14 52.5 -19.5t48 -19t47.5 -21t41.5 -22t39.5 -25.5t31 -27.5t27.5 -33t19 -37t14 -44t3.5 -50.5q0 -101 -80.5 -170.5t-208.5 -80.5l-74 -121 q12 4 39 4q74 0 130.5 -41t56.5 -125q0 -82 -61 -131t-152 -49q-99 0 -166 63q-12 12 -2 27l20 39q10 15 27 2q47 -51 116 -51q60 0 94.5 25t34.5 71q0 45 -33 68.5t-87 23.5q-58 0 -103 -18q-10 -4 -20.5 5.5t-5.5 18.5l102 189q-148 13 -262 102z" />
<glyph unicode="&#x160;" horiz-adv-x="1107" d="M135 147q-23 19 -6 43l18 25q24 27 46 8q15 -13 28 -24t53.5 -38t80 -45.5t99 -34t117.5 -15.5q145 0 244.5 74t99.5 200q0 67 -26 119t-81 92.5t-122 71.5t-168 65q-79 28 -133 52t-107.5 58.5t-85 74t-50.5 95t-19 124.5q0 48 15 97t49 97t84 85t126 60t168 23 q57 0 114 -10.5t98.5 -26t74.5 -31t50 -26.5l16 -10q23 -18 8 -43l-17 -27q-15 -28 -45 -10q-8 5 -19 12t-44 23.5t-66 28.5t-80.5 22t-91.5 10q-90 0 -159.5 -25.5t-108.5 -67t-58.5 -87t-19.5 -92.5q0 -64 23 -113t70.5 -86.5t105 -64t141.5 -54.5q92 -31 156.5 -59 t125.5 -66t97.5 -80t58 -99.5t21.5 -127.5q0 -110 -63 -194t-164 -127t-220 -43q-69 0 -136.5 15.5t-114 35.5t-89.5 47t-61.5 41.5t-32.5 27.5zM559 1546q-10 0 -20 10l-248 201q-19 15 -8 29l18 22q13 17 31 4l231 -172l230 172q17 13 30 -4l19 -22q11 -14 -8 -29 l-248 -201q-10 -10 -21 -10h-6z" />
<glyph unicode="&#x161;" horiz-adv-x="847" d="M123 82q-21 16 -10 35l18 33q6 11 18.5 12t24.5 -8q21 -17 48.5 -34t88.5 -38t121 -21q107 0 171.5 47t64.5 123q0 32 -14 59.5t-36 48t-60 41.5t-74 36t-91 35q-69 24 -115.5 47t-87 55t-60 74.5t-19.5 97.5q0 40 17.5 81t52 78t95.5 60t138 23q149 0 266 -72 q25 -18 12 -43l-12 -23q-11 -23 -41 -8q-119 62 -225 62q-104 0 -158.5 -47.5t-54.5 -108.5q0 -66 58 -110t175 -87q38 -14 52.5 -19.5t48 -19t47.5 -21t41.5 -22t39.5 -25.5t31 -27.5t27.5 -33t19 -37t14 -44t3.5 -50.5q0 -108 -92.5 -181t-233.5 -73q-172 0 -309 105z M418 1118q-11 0 -21 10l-247 201q-20 16 -9 29l19 22q13 17 30 4l232 -172l229 172q18 13 31 -4l18 -22q11 -14 -8 -29l-248 -201q-10 -10 -20 -10h-6z" />
<glyph unicode="&#x162;" horiz-adv-x="1040" d="M471 27v1319h-391q-27 0 -27 30v31q0 12 8 19.5t19 7.5h881q12 0 19 -8t7 -19v-35q0 -11 -7 -18.5t-19 -7.5h-394v-1319q0 -17 -14 -23l-98 -149q21 8 55 8q73 0 125.5 -41t52.5 -125q0 -83 -57.5 -131.5t-147.5 -48.5q-99 0 -166 63q-12 12 -2 27l21 33q10 15 26 2 q48 -52 117 -52q59 0 94 29.5t35 81.5t-33.5 79t-87.5 27q-49 0 -94 -18q-10 -4 -17.5 6t-2.5 19l110 190q-12 6 -12 23z" />
<glyph unicode="&#x163;" horiz-adv-x="743" d="M215 229v629h-115q-30 0 -30 31v33q0 24 30 24h115v258q0 27 33 31l26 2q12 1 21.5 -9t9.5 -22v-260h334q15 0 24 -9t9 -22v-26q0 -14 -9 -22.5t-24 -8.5h-334v-618q0 -97 25.5 -135.5t103.5 -38.5q96 0 217 75q25 13 37 -8l17 -29q10 -20 -9 -36q-31 -25 -92.5 -51.5 t-132.5 -34.5l-84 -127q21 8 55 8q73 0 126 -41t53 -125q0 -83 -57.5 -131.5t-147.5 -48.5q-99 0 -166 63q-12 12 -2 27l20 33q10 15 27 2q48 -52 117 -52q59 0 94 29.5t35 81.5t-33.5 79t-87.5 27q-49 0 -94 -18q-10 -4 -18 6t-3 19l96 166q-58 3 -96.5 23t-57 56.5 t-25.5 75.5t-7 94z" />
<glyph unicode="&#x164;" horiz-adv-x="1040" d="M471 27v1319h-391q-27 0 -27 30v31q0 12 8 19.5t19 7.5h881q12 0 19 -8t7 -19v-35q0 -11 -7 -18.5t-19 -7.5h-394v-1319q0 -11 -9 -19t-23 -8h-37q-10 0 -18.5 8t-8.5 19zM516 1563q-10 0 -20 10l-248 201q-19 15 -8 28l18 23q13 17 31 4l231 -172l230 172q17 13 30 -4 l19 -23q11 -13 -8 -28l-248 -201q-10 -10 -21 -10h-6z" />
<glyph unicode="&#x165;" horiz-adv-x="743" d="M215 229v629h-115q-30 0 -30 31v33q0 24 30 24h115v258q0 27 33 31l26 2q12 1 21.5 -9t9.5 -22v-260h334q15 0 24 -9t9 -22v-26q0 -14 -9 -22.5t-24 -8.5h-334v-618q0 -97 25.5 -135.5t103.5 -38.5q96 0 217 75q25 13 37 -8l17 -29q10 -20 -9 -36q-40 -31 -114.5 -61 t-159.5 -30q-63 0 -106 19.5t-64 57t-29 78.5t-8 97zM602 1376q0 35 24.5 56.5t61.5 21.5q55 0 86 -42.5t31 -115.5q0 -63 -24.5 -117.5t-59.5 -86.5q-12 -12 -25 -2l-24 20q-14 14 2 29q24 21 40.5 57t16.5 76q0 36 -10 51q-14 -14 -45 -14q-32 0 -53 19t-21 48z" />
<glyph unicode="&#x166;" horiz-adv-x="1044" d="M473 27v594h-256q-12 0 -19.5 9t-7.5 21v8q0 9 8.5 17t18.5 8h256v664h-391q-27 0 -27 41v18q0 11 8.5 19t18.5 8h881q12 0 19 -8t7 -19v-33q0 -11 -7 -18.5t-19 -7.5h-394v-664h262q10 0 18.5 -8t8.5 -17v-12q0 -10 -8 -18t-19 -8h-262v-594q0 -27 -45 -27h-24 q-10 0 -18.5 8t-8.5 19z" />
<glyph unicode="&#x167;" horiz-adv-x="743" d="M215 229v236h-80q-13 0 -22 9.5t-9 21.5v8q0 12 9.5 21.5t21.5 9.5h80v323h-115q-30 0 -30 31v33q0 24 30 24h115v258q0 27 33 31l26 2q12 1 21.5 -9t9.5 -22v-260h334q15 0 24 -9t9 -22v-26q0 -14 -9 -22.5t-24 -8.5h-334v-323h273q13 0 21.5 -9.5t8.5 -21.5v-12 q0 -12 -8.5 -19.5t-21.5 -7.5h-273v-225q0 -97 25.5 -135.5t103.5 -38.5q96 0 217 75q25 13 37 -8l17 -29q10 -20 -9 -36q-40 -31 -114.5 -61t-159.5 -30q-63 0 -106 19.5t-64 57t-29 78.5t-8 97z" />
<glyph unicode="&#x168;" horiz-adv-x="1460" d="M195 514v893q0 11 8 19t18 8h43q10 0 18.5 -8t8.5 -19v-883q0 -201 118.5 -325.5t319.5 -124.5q203 0 322.5 124t119.5 324v885q0 27 29 27h41q11 0 19 -8t8 -19v-893q0 -237 -148 -385.5t-391 -148.5q-241 0 -387.5 148.5t-146.5 385.5zM479 1636l-24 11q-20 7 -13 28 q35 92 79 132q49 44 112 44q41 0 70.5 -19t46.5 -46.5t32 -55t35 -46.5t47 -19q78 0 117 121q3 10 12.5 14.5t18.5 -0.5l22 -8q18 -9 13 -27q-3 -11 -7.5 -25t-20 -43t-35 -51t-53 -39.5t-73.5 -17.5t-69.5 19.5t-46.5 47.5t-32.5 55.5t-36 47t-46.5 19.5q-27 0 -48.5 -13 t-35.5 -37t-20 -39t-13 -38q-3 -11 -12 -15t-19 0z" />
<glyph unicode="&#x169;" horiz-adv-x="1081" d="M162 385v530q0 12 9.5 21.5t21.5 9.5h30q12 0 20.5 -9.5t8.5 -21.5v-530q0 -167 62 -243t206 -76q175 0 299 176v673q0 31 31 31h31q11 0 19.5 -9.5t8.5 -21.5v-884q0 -12 -8.5 -21.5t-19.5 -9.5h-19q-11 0 -18.5 8.5t-9.5 20.5l-9 92q-14 -18 -34.5 -37.5t-59 -46 t-95.5 -43.5t-122 -17q-193 0 -272.5 100t-79.5 308zM274 1186l-24 10q-9 3 -12 11.5t0 17.5q32 86 71 125q50 51 119 51q41 0 70.5 -19.5t46.5 -46.5t32 -54.5t35 -47t47 -19.5q78 0 117 121q3 10 12.5 15t18.5 0l22 -9q17 -9 13 -26q-3 -11 -7.5 -25t-20 -43t-35 -51 t-53 -39.5t-73.5 -17.5t-69.5 19.5t-46.5 47t-32.5 55t-36 47t-46.5 19.5q-27 0 -48.5 -13t-35.5 -37t-20 -39t-13 -38q-7 -24 -31 -14z" />
<glyph unicode="&#x16a;" horiz-adv-x="1460" d="M195 514v893q0 11 8 19t18 8h43q10 0 18.5 -8t8.5 -19v-883q0 -201 118.5 -325.5t319.5 -124.5q203 0 322.5 124t119.5 324v885q0 27 29 27h41q11 0 19 -8t8 -19v-893q0 -237 -148 -385.5t-391 -148.5q-241 0 -387.5 148.5t-146.5 385.5zM471 1702q-12 0 -19.5 8t-7.5 19 v24q0 12 7.5 19.5t19.5 7.5h557q11 0 19 -7.5t8 -19.5v-24q0 -11 -8.5 -19t-18.5 -8h-557z" />
<glyph unicode="&#x16b;" horiz-adv-x="1081" d="M162 385v530q0 12 9.5 21.5t21.5 9.5h30q12 0 20.5 -9.5t8.5 -21.5v-530q0 -167 62 -243t206 -76q175 0 299 176v673q0 31 31 31h31q11 0 19.5 -9.5t8.5 -21.5v-884q0 -12 -8.5 -21.5t-19.5 -9.5h-19q-11 0 -18.5 8.5t-9.5 20.5l-9 92q-14 -18 -34.5 -37.5t-59 -46 t-95.5 -43.5t-122 -17q-193 0 -272.5 100t-79.5 308zM260 1219q-12 0 -19.5 6.5t-7.5 17.5v27q0 11 7.5 18.5t19.5 7.5h557q11 0 19 -8t8 -18v-27q0 -10 -8 -17t-19 -7h-557z" />
<glyph unicode="&#x16c;" horiz-adv-x="1460" d="M195 514v893q0 11 8 19t18 8h43q10 0 18.5 -8t8.5 -19v-883q0 -201 118.5 -325.5t319.5 -124.5q203 0 322.5 124t119.5 324v885q0 27 29 27h41q11 0 19 -8t8 -19v-893q0 -237 -148 -385.5t-391 -148.5q-241 0 -387.5 148.5t-146.5 385.5zM750 1587q-104 0 -179.5 65.5 t-89.5 162.5q-2 11 4 19.5t17 8.5h26q17 0 25 -24q20 -70 72 -115t125 -45q70 0 124.5 46t69.5 114q7 24 25 24h28q10 0 16.5 -8.5t4.5 -19.5q-18 -98 -92.5 -163t-175.5 -65z" />
<glyph unicode="&#x16d;" horiz-adv-x="1081" d="M162 385v530q0 12 9.5 21.5t21.5 9.5h30q12 0 20.5 -9.5t8.5 -21.5v-530q0 -167 62 -243t206 -76q175 0 299 176v673q0 31 31 31h31q11 0 19.5 -9.5t8.5 -21.5v-884q0 -12 -8.5 -21.5t-19.5 -9.5h-19q-11 0 -18.5 8.5t-9.5 20.5l-9 92q-14 -18 -34.5 -37.5t-59 -46 t-95.5 -43.5t-122 -17q-193 0 -272.5 100t-79.5 308zM539 1102q-103 0 -177 64.5t-92 160.5q-2 13 3.5 21t17.5 8h26q17 0 25 -23q18 -71 71 -116.5t126 -45.5q70 0 124.5 46t69.5 116q7 23 25 23h28q10 0 16.5 -8.5t4.5 -20.5q-15 -96 -90.5 -160.5t-177.5 -64.5z" />
<glyph unicode="&#x16e;" horiz-adv-x="1460" d="M195 514v893q0 11 8 19t18 8h43q10 0 18.5 -8t8.5 -19v-883q0 -201 118.5 -325.5t319.5 -124.5q203 0 322.5 124t119.5 324v885q0 27 29 27h41q11 0 19 -8t8 -19v-893q0 -237 -148 -385.5t-391 -148.5q-241 0 -387.5 148.5t-146.5 385.5zM750 1544q-92 0 -155 62.5 t-63 154.5t63 155.5t155 63.5q91 0 155 -63.5t64 -155.5t-64 -154.5t-155 -62.5zM750 1610q62 0 106.5 45t44.5 106q0 62 -45 107t-106 45q-62 0 -107 -45.5t-45 -106.5t45 -106t107 -45z" />
<glyph unicode="&#x16f;" horiz-adv-x="1081" d="M162 385v530q0 12 9.5 21.5t21.5 9.5h30q12 0 20.5 -9.5t8.5 -21.5v-530q0 -167 62 -243t206 -76q175 0 299 176v673q0 31 31 31h31q11 0 19.5 -9.5t8.5 -21.5v-884q0 -12 -8.5 -21.5t-19.5 -9.5h-19q-11 0 -18.5 8.5t-9.5 20.5l-9 92q-14 -18 -34.5 -37.5t-59 -46 t-95.5 -43.5t-122 -17q-193 0 -272.5 100t-79.5 308zM541 1018q-92 0 -155.5 62.5t-63.5 154.5t63.5 155.5t155.5 63.5q91 0 154 -63.5t63 -155.5t-63 -154.5t-154 -62.5zM541 1083q60 0 104.5 45.5t44.5 106.5t-44.5 106t-104.5 45q-62 0 -108 -45t-46 -106t46 -106.5 t108 -45.5z" />
<glyph unicode="&#x170;" horiz-adv-x="1460" d="M195 514v893q0 11 8 19t18 8h43q10 0 18.5 -8t8.5 -19v-883q0 -201 118.5 -325.5t319.5 -124.5q203 0 322.5 124t119.5 324v885q0 27 29 27h41q11 0 19 -8t8 -19v-893q0 -237 -148 -385.5t-391 -148.5q-241 0 -387.5 148.5t-146.5 385.5zM901 1569q-11 0 -14.5 6.5 t0.5 17.5l162 326q10 23 28 23h45q17 0 23 -11t-2 -24l-191 -322q-8 -16 -26 -16h-25zM561 1569q-11 0 -14.5 6.5t0.5 17.5l162 326q10 23 28 23h45q17 0 23 -11t-2 -24l-191 -322q-8 -16 -26 -16h-25z" />
<glyph unicode="&#x171;" horiz-adv-x="1081" d="M162 385v530q0 12 9.5 21.5t21.5 9.5h30q12 0 20.5 -9.5t8.5 -21.5v-530q0 -167 62 -243t206 -76q175 0 299 176v673q0 31 31 31h31q11 0 19.5 -9.5t8.5 -21.5v-884q0 -12 -8.5 -21.5t-19.5 -9.5h-19q-11 0 -18.5 8.5t-9.5 20.5l-9 92q-14 -18 -34.5 -37.5t-59 -46 t-95.5 -43.5t-122 -17q-193 0 -272.5 100t-79.5 308zM694 1061q-11 0 -14.5 6.5t0.5 17.5l162 326q10 23 28 23h45q17 0 23 -11t-2 -24l-191 -322q-8 -16 -26 -16h-25zM354 1061q-11 0 -14.5 6.5t0.5 17.5l162 326q10 23 28 23h45q17 0 23 -11t-2 -24l-190 -322 q-8 -16 -27 -16h-25z" />
<glyph unicode="&#x172;" horiz-adv-x="1458" d="M193 522v885q0 11 8 19t18 8h43q10 0 18.5 -8t8.5 -19v-875q0 -202 118.5 -330t319.5 -128q202 0 322 127.5t120 328.5v877q0 27 29 27h41q11 0 19 -8t8 -19v-885q0 -221 -128.5 -368.5t-344.5 -169.5q-199 -123 -199 -279q0 -55 32.5 -88t88.5 -33q41 0 78 18.5t57 35.5 q6 5 14.5 3t9.5 -12l5 -39q3 -23 -21 -36q-84 -50 -160 -50q-91 0 -142.5 55.5t-51.5 143.5q0 157 176 279q-221 15 -354 164.5t-133 375.5z" />
<glyph unicode="&#x173;" horiz-adv-x="1081" d="M162 397v518q0 12 9.5 21.5t21.5 9.5h30q12 0 20.5 -9.5t8.5 -21.5v-518q0 -169 62.5 -250t205.5 -81q175 0 299 176v673q0 31 31 31h31q11 0 19.5 -9.5t8.5 -21.5v-880q0 -26 -22 -35q-39 -17 -75.5 -42t-73 -61.5t-59 -86.5t-22.5 -105t32.5 -88t88.5 -33q41 0 78 18.5 t57 35.5q6 5 15 3t10 -12l4 -39q3 -23 -20 -36q-84 -50 -160 -50q-91 0 -143 56t-52 143q0 61 27.5 117t71 96.5t85 68t83.5 46.5l-9 90q-14 -18 -34.5 -37.5t-59 -46t-95.5 -43.5t-122 -17q-192 0 -272 105t-80 315z" />
<glyph unicode="&#x174;" horiz-adv-x="1794" d="M465 -6l-406 1413q-5 27 23 27h49q9 0 16 -7t9 -16l344 -1200h4l360 1225q6 18 31 18h4q25 0 31 -18l362 -1225h4l342 1200q2 9 9 16t16 7h49q28 0 23 -27l-406 -1413q-3 -14 -18 -14h-23q-14 0 -20 14l-369 1247h-4l-369 -1247q-6 -14 -20 -14h-23q-15 0 -18 14z M668 1573q-18 -13 -31 4l-19 22q-11 13 9 29l247 201q10 10 21 10h6q11 0 21 -10l247 -201q20 -16 9 -29l-19 -22q-13 -17 -31 -4l-231 172z" />
<glyph unicode="&#x175;" horiz-adv-x="1431" d="M360 0l-282 907q-10 39 14 39h45q26 0 31 -22l223 -762h4l287 784q8 21 29 21h8q20 0 29 -21l282 -784h4l226 762q5 22 30 22h47q27 0 13 -39l-283 -907q-6 -23 -29 -23h-8q-21 0 -31 23l-282 807h-4l-285 -807q-7 -23 -29 -23h-8q-23 0 -31 23zM483 1126q-17 -13 -30 4 l-19 23q-11 14 8 29l248 200q11 11 21 11h6q9 0 20 -11l248 -200q19 -15 8 -29l-18 -23q-13 -17 -31 -4l-231 172z" />
<glyph unicode="&#x176;" horiz-adv-x="1159" d="M530 27v669l-522 707q-9 12 -3.5 21.5t20.5 9.5h61q17 0 27 -13l467 -637l475 637q10 13 26 13h62q15 0 20 -9.5t-4 -21.5l-532 -705v-671q0 -11 -8.5 -19t-18.5 -8q-3 0 -12 -0.5t-14 0t-13 1t-12.5 2t-9 4.5t-7 8t-2.5 12zM352 1573q-17 -13 -30 4l-19 22q-11 14 8 29 l248 201q10 10 21 10h6q10 0 20 -10l248 -201q19 -15 8 -29l-18 -22q-13 -17 -31 -4l-231 172z" />
<glyph unicode="&#x177;" horiz-adv-x="980" d="M434 2l-377 905q-7 15 -3 27t18 12h43q24 0 32 -22l334 -818h6l349 818q8 22 30 22h45q16 0 19.5 -12t-4.5 -27l-592 -1376q-9 -18 -31 -18h-47q-32 0 -18 32zM250 1126q-18 -13 -31 4l-18 23q-11 14 8 29l248 200q11 11 20 11h6q10 0 21 -11l248 -200q19 -15 8 -29 l-19 -23q-13 -17 -30 -4l-232 172z" />
<glyph unicode="&#x178;" horiz-adv-x="1159" d="M530 27v669l-522 707q-9 12 -3.5 21.5t20.5 9.5h61q17 0 27 -13l467 -637l475 637q10 13 26 13h62q15 0 20 -9.5t-4 -21.5l-532 -705v-671q0 -11 -8.5 -19t-18.5 -8q-3 0 -12 -0.5t-14 0t-13 1t-12.5 2t-9 4.5t-7 8t-2.5 12zM795 1628q-34 0 -58 24t-24 56q0 35 24 59.5 t58 24.5q35 0 59.5 -24.5t24.5 -59.5q0 -33 -24.5 -56.5t-59.5 -23.5zM367 1628q-34 0 -58 24t-24 56q0 35 24 59.5t58 24.5q35 0 59.5 -24.5t24.5 -59.5q0 -33 -24.5 -56.5t-59.5 -23.5z" />
<glyph unicode="&#x179;" horiz-adv-x="1075" d="M53 25v16q0 20 10 37l822 1261v4h-742q-11 0 -18.5 9t-7.5 22v33q0 11 8 19t18 8h844q12 0 19.5 -8t7.5 -19v-12q0 -20 -10 -37l-824 -1266v-2h764q12 0 19.5 -8t7.5 -19v-36q0 -11 -7.5 -19t-19.5 -8h-862q-12 0 -20.5 7.5t-8.5 17.5zM432 1602q-25 -11 -33 6l-10 20 q-7 18 12 29l336 184q25 12 35 -6l21 -41q11 -21 -9 -31z" />
<glyph unicode="&#x17a;" horiz-adv-x="856" d="M70 27v4q0 19 12 37l559 784v6h-498q-12 0 -20 9t-8 20v28q0 31 28 31h613q13 0 21.5 -9.5t8.5 -21.5q0 -10 -12 -26l-571 -795v-6h516q13 0 22 -9t9 -22v-26q0 -12 -9 -21.5t-22 -9.5h-619q-13 0 -21.5 7.5t-8.5 19.5zM281 1143q-14 -5 -19 -3.5t-10 11.5l-12 27 q-7 17 12 28l338 178q24 14 35 -6l20 -41q11 -22 -18 -37z" />
<glyph unicode="&#x17b;" horiz-adv-x="1075" d="M53 25v16q0 20 10 37l822 1261v4h-742q-11 0 -18.5 9t-7.5 22v33q0 11 8 19t18 8h844q12 0 19.5 -8t7.5 -19v-12q0 -20 -10 -37l-824 -1266v-2h764q12 0 19.5 -8t7.5 -19v-36q0 -11 -7.5 -19t-19.5 -8h-862q-12 0 -20.5 7.5t-8.5 17.5zM571 1657q-34 0 -58 23t-24 55 q0 34 24 57t58 23t57 -23t23 -57q0 -32 -23 -55t-57 -23z" />
<glyph unicode="&#x17c;" horiz-adv-x="856" d="M70 27v4q0 19 12 37l559 784v6h-498q-12 0 -20 9t-8 20v28q0 31 28 31h613q13 0 21.5 -9.5t8.5 -21.5q0 -10 -12 -26l-571 -795v-6h516q13 0 22 -9t9 -22v-26q0 -12 -9 -21.5t-22 -9.5h-619q-13 0 -21.5 7.5t-8.5 19.5zM442 1208q-34 0 -58 23t-24 55q0 34 24 57t58 23 t57 -23t23 -57q0 -32 -23 -55t-57 -23z" />
<glyph unicode="&#x17d;" horiz-adv-x="1075" d="M53 25v16q0 20 10 37l822 1261v4h-742q-11 0 -18.5 9t-7.5 22v33q0 11 8 19t18 8h844q12 0 19.5 -8t7.5 -19v-12q0 -20 -10 -37l-824 -1266v-2h764q12 0 19.5 -8t7.5 -19v-36q0 -11 -7.5 -19t-19.5 -8h-862q-12 0 -20.5 7.5t-8.5 17.5zM569 1563q-10 0 -20 10l-248 201 q-19 15 -8 28l18 23q13 17 31 4l231 -172l230 172q18 13 31 -4l18 -23q11 -13 -8 -28l-248 -201q-10 -10 -21 -10h-6z" />
<glyph unicode="&#x17e;" horiz-adv-x="856" d="M70 27v4q0 19 12 37l559 784v6h-498q-12 0 -20 9t-8 20v28q0 31 28 31h613q13 0 21.5 -9.5t8.5 -21.5q0 -10 -12 -26l-571 -795v-6h516q13 0 22 -9t9 -22v-26q0 -12 -9 -21.5t-22 -9.5h-619q-13 0 -21.5 7.5t-8.5 19.5zM440 1116q-10 0 -20 10l-248 201q-19 15 -8 29 l18 22q13 17 31 4l231 -172l230 172q18 13 31 -4l18 -22q11 -14 -8 -29l-248 -201q-10 -10 -21 -10h-6z" />
<glyph unicode="&#x192;" horiz-adv-x="741" d="M262 -156v895h-178q-13 0 -20 8.5t-7 18.5v27q0 10 8 18t19 8h178v281q0 175 84.5 264.5t224.5 89.5q73 0 139.5 -28t90.5 -60q15 -18 4 -33l-21 -28q-6 -9 -15.5 -10t-18.5 8q-28 26 -77.5 47.5t-101.5 21.5q-101 0 -160 -68t-59 -204v-281h303q12 0 19.5 -6.5 t7.5 -17.5v-31q0 -25 -27 -25h-303v-895q0 -175 -84.5 -264.5t-224.5 -89.5q-73 0 -139 28t-90 60q-15 18 -4 33l20 29q15 22 35 2q28 -26 77 -48t101 -22q101 0 160 68t59 204z" />
<glyph unicode="&#x1fa;" horiz-adv-x="1337" d="M477 1866l-10 20q-7 18 12 29l336 184q25 12 35 -6l20 -41q11 -22 -8 -31l-352 -161q-25 -11 -33 6zM25 0q-24 0 -15 25l615 1390q-73 17 -119.5 76t-46.5 137q0 92 62.5 155.5t154.5 63.5q91 0 155 -63.5t64 -155.5q0 -82 -51.5 -141.5t-130.5 -73.5l610 -1388 q8 -25 -18 -25h-54q-19 0 -28 18l-166 377h-783l-163 -377q-9 -18 -29 -18h-57zM676 1477q62 0 106.5 44.5t44.5 106.5t-45 107t-106 45q-62 0 -107 -45t-45 -107q0 -61 45 -106t107 -45zM311 475h711l-350 825h-4z" />
<glyph unicode="&#x1fb;" horiz-adv-x="980" d="M487 1040q-96 0 -157.5 50.5t-61.5 140.5t62 141t157 51q94 0 156 -51.5t62 -140.5t-62 -140t-156 -51zM487 1106q63 0 106.5 33t43.5 92t-43.5 92t-106.5 33q-65 0 -109 -33t-44 -92t44 -92t109 -33zM326 1430q-14 -5 -19 -3.5t-10 11.5l-12 26q-8 18 12 29l338 137 q24 14 35 -6l20 -41q11 -22 -18 -37zM90 291q0 140 105.5 229.5t287.5 89.5q110 0 244 -43q0 68 -4.5 113.5t-17 87t-36 65t-62 37t-93.5 13.5q-44 0 -87 -6t-76 -15t-56.5 -17.5t-43 -17t-20.5 -8.5q-28 -11 -36 15l-11 28q-11 20 13 35q11 7 42 20.5t112.5 31.5t170.5 18 q43 0 78 -4.5t62.5 -15.5t49.5 -22.5t38 -32.5t27.5 -39t18.5 -48t11.5 -53t6.5 -60.5t2.5 -65t0.5 -71.5v-524q0 -12 -10.5 -21.5t-22.5 -9.5h-16q-26 0 -29 27l-10 86q-53 -53 -141.5 -94.5t-190.5 -41.5q-135 0 -221 85t-86 229zM178 293q0 -100 65.5 -163.5t164.5 -63.5 q98 0 188.5 46t130.5 97v272q-36 16 -103 32.5t-141 16.5q-135 0 -220 -66.5t-85 -170.5z" />
<glyph unicode="&#x1fc;" horiz-adv-x="1847" d="M-6 0q-9 0 -13 5t-2.5 13t7.5 17l870 1364q11 18 21 26.5t30 8.5h805q12 0 19.5 -8t7.5 -19v-33q0 -11 -7.5 -18.5t-19.5 -7.5h-756v-568h658q10 0 18 -8t8 -18v-35q0 -27 -26 -27h-658v-606h756q27 0 27 -29v-30q0 -11 -7.5 -19t-19.5 -8h-819q-11 0 -19 8t-8 19v368 h-544l-238 -377q-13 -18 -33 -18h-57zM369 475h497v782zM1102 1604q-25 -11 -33 6l-10 20q-7 18 12 29l336 184q25 12 35 -6l20 -41q11 -22 -8 -31z" />
<glyph unicode="&#x1fd;" horiz-adv-x="1640" d="M90 295q0 139 103.5 227t277.5 88q80 0 154.5 -15t101.5 -28q0 69 -4 114.5t-16.5 87t-35 64.5t-59.5 36.5t-90 13.5q-34 0 -67 -3t-60.5 -8.5t-51 -11.5t-44 -13.5t-33.5 -12.5t-25.5 -10.5t-13.5 -6.5q-12 -3 -21.5 2.5t-12.5 16.5l-13 34q-1 9 5.5 18.5t15.5 12.5 q15 7 42.5 18t113 29.5t169.5 18.5q114 0 175 -35.5t90 -108.5q61 68 146 106t183 38q187 0 306.5 -121t119.5 -309q0 -20 -0.5 -31.5t-3.5 -28t-10 -25t-19 -8.5h-700v-202q51 -81 133 -128.5t182 -47.5q133 0 283 92q18 11 26.5 11.5t16.5 -9.5l23 -35q12 -17 -11 -37 q-42 -39 -143 -75t-203 -36q-214 0 -344 162q-53 -64 -154 -113t-214 -49q-140 0 -229 86.5t-89 231.5zM813 528h643q0 147 -91.5 251t-244.5 104q-99 0 -178 -47.5t-129 -126.5v-181zM178 293q0 -107 70.5 -167t173.5 -60q92 0 179.5 45.5t125.5 97.5v274l-17 6 q-18 6 -39 12.5t-50 13t-65.5 11t-72.5 4.5q-130 0 -217.5 -67t-87.5 -170zM735 1143q-14 -5 -18.5 -3.5t-9.5 11.5l-13 27q-7 17 13 28l337 178q24 14 35 -6l21 -41q11 -22 -19 -37z" />
<glyph unicode="&#x1fe;" horiz-adv-x="1703" d="M170 57q-8 7 -8 18t8 19l129 127q-88 100 -136 227t-48 267q0 151 57.5 288t156 236t235 157t288.5 58q145 0 275.5 -53t230.5 -148l135 131q6 8 16.5 8t18.5 -8l8 -8q8 -8 8 -19t-8 -18l-133 -131q88 -101 138 -228t50 -265q0 -152 -58 -288.5t-157 -234t-236 -155 t-288 -57.5q-148 0 -278.5 51t-229.5 145l-131 -127q-6 -7 -16.5 -7t-18.5 7zM365 287l929 903q-187 174 -442 174q-176 0 -325 -87t-235.5 -236.5t-86.5 -325.5q0 -247 160 -428zM410 242q87 -83 200.5 -127.5t241.5 -44.5q176 0 325.5 86t236.5 234.5t87 324.5 q0 245 -164 430zM711 1602q-25 -11 -33 6l-10 20q-7 18 12 29l336 184q25 12 35 -6l20 -41q11 -22 -8 -31z" />
<glyph unicode="&#x1ff;" horiz-adv-x="1165" d="M109 475q0 133 62 245.5t171.5 179.5t241.5 67q98 0 186 -40t154 -110l24 25q8 9 20 9t21 -9l10 -11q20 -20 -2 -38l-30 -29q92 -132 92 -289q0 -136 -63 -250.5t-172.5 -181t-239.5 -66.5q-185 0 -320 125l-33 -32q-17 -17 -36 2l-13 12q-20 20 0 37l35 33 q-108 133 -108 321zM199 475q0 -144 86 -258l571 537q-115 125 -272 125q-160 0 -272.5 -118.5t-112.5 -285.5zM963 475q0 120 -64 223l-569 -534q109 -98 254 -98q158 0 268.5 119.5t110.5 289.5zM424 1143q-14 -5 -19 -3.5t-10 11.5l-12 27q-7 17 12 28l338 178 q24 14 35 -6l20 -41q11 -22 -18 -37z" />
<glyph unicode="&#x218;" horiz-adv-x="1107" d="M135 147q-23 19 -6 43l18 25q24 27 46 8q15 -13 28 -24t53.5 -38t80 -45.5t99 -34t117.5 -15.5q145 0 244.5 74t99.5 200q0 67 -26 119t-81 92.5t-122 71.5t-168 65q-79 28 -133 52t-107.5 58.5t-85 74t-50.5 95t-19 124.5q0 48 15 97t49 97t84 85t126 60t168 23 q57 0 114 -10.5t98.5 -26t74.5 -31t50 -26.5l16 -10q23 -18 8 -43l-17 -27q-15 -28 -45 -10q-8 5 -19 12t-44 23.5t-66 28.5t-80.5 22t-91.5 10q-90 0 -159.5 -25.5t-108.5 -67t-58.5 -87t-19.5 -92.5q0 -64 23 -113t70.5 -86.5t105 -64t141.5 -54.5q92 -31 156.5 -59 t125.5 -66t97.5 -80t58 -99.5t21.5 -127.5q0 -110 -63 -194t-164 -127t-220 -43q-69 0 -136.5 15.5t-114 35.5t-89.5 47t-61.5 41.5t-32.5 27.5zM481 -250q0 35 24.5 56.5t61.5 21.5q55 0 86 -42.5t31 -115.5q0 -63 -24.5 -118t-59.5 -87q-12 -12 -25 -2l-24 21q-13 14 2 29 q24 21 40.5 57t16.5 76q0 36 -10 51q-14 -14 -45 -14q-32 0 -53 19t-21 48z" />
<glyph unicode="&#x219;" horiz-adv-x="847" d="M123 82q-21 16 -10 35l18 33q6 11 18.5 12t24.5 -8q21 -17 48.5 -34t88.5 -38t121 -21q107 0 171.5 47t64.5 123q0 32 -14 59.5t-36 48t-60 41.5t-74 36t-91 35q-69 24 -115.5 47t-87 55t-60 74.5t-19.5 97.5q0 40 17.5 81t52 78t95.5 60t138 23q149 0 266 -72 q25 -18 12 -43l-12 -23q-11 -23 -41 -8q-119 62 -225 62q-104 0 -158.5 -47.5t-54.5 -108.5q0 -66 58 -110t175 -87q38 -14 52.5 -19.5t48 -19t47.5 -21t41.5 -22t39.5 -25.5t31 -27.5t27.5 -33t19 -37t14 -44t3.5 -50.5q0 -108 -92.5 -181t-233.5 -73q-172 0 -309 105z M332 -231q0 35 24.5 56t61.5 21q55 0 86 -42t31 -115q0 -63 -24.5 -118t-59.5 -87q-12 -12 -25 -2l-25 20q-13 14 2 29q25 22 41.5 58t16.5 75q0 36 -10 51q-14 -14 -45 -14q-32 0 -53 19.5t-21 48.5z" />
<glyph unicode="&#x21a;" horiz-adv-x="1040" d="M471 27v1319h-391q-27 0 -27 30v31q0 12 8 19.5t19 7.5h881q12 0 19 -8t7 -19v-35q0 -11 -7 -18.5t-19 -7.5h-394v-1319q0 -11 -9 -19t-23 -8h-37q-10 0 -18.5 8t-8.5 19zM430 -233q0 35 24.5 56t61.5 21q55 0 86 -42t31 -115q0 -63 -24.5 -118t-59.5 -87q-12 -12 -25 -2 l-24 20q-14 14 2 29q24 21 40.5 57t16.5 76q0 36 -10 51q-14 -14 -45 -14q-32 0 -53 19.5t-21 48.5z" />
<glyph unicode="&#x21b;" horiz-adv-x="743" d="M215 229v629h-115q-30 0 -30 31v33q0 24 30 24h115v258q0 27 33 31l26 2q12 1 21.5 -9t9.5 -22v-260h334q15 0 24 -9t9 -22v-26q0 -14 -9 -22.5t-24 -8.5h-334v-618q0 -97 25.5 -135.5t103.5 -38.5q96 0 217 75q25 13 37 -8l17 -29q10 -20 -9 -36q-40 -31 -114.5 -61 t-159.5 -30q-63 0 -106 19.5t-64 57t-29 78.5t-8 97zM336 -233q0 35 24.5 56t61.5 21q55 0 86 -42t31 -115q0 -63 -24.5 -118t-59.5 -87q-12 -12 -25 -2l-24 20q-14 14 2 29q24 21 40.5 57t16.5 76q0 36 -10 51q-14 -14 -45 -14q-32 0 -53 19.5t-21 48.5z" />
<glyph unicode="&#x237;" horiz-adv-x="434" d="M262 915v-1060q0 -157 -57.5 -238t-179.5 -121q-37 -12 -48 17l-8 20q-6 12 -0.5 26.5t21.5 18.5q88 22 135 82t47 176v1079q0 12 9 21.5t22 9.5h28q11 0 21 -9.5t10 -21.5z" />
<glyph unicode="&#x2c6;" horiz-adv-x="763" d="M147 1126q-17 -13 -30 4l-19 23q-11 14 8 29l248 200q11 11 21 11h6q9 0 20 -11l248 -200q19 -15 8 -29l-18 -23q-13 -17 -31 -4l-231 172z" />
<glyph unicode="&#x2c7;" horiz-adv-x="763" d="M377 1116q-11 0 -21 10l-247 201q-20 16 -9 29l19 22q13 17 31 4l231 -172l229 172q18 13 31 -4l18 -22q11 -14 -8 -29l-248 -201q-10 -10 -20 -10h-6z" />
<glyph unicode="&#x2c9;" horiz-adv-x="847" d="M145 1219q-26 0 -26 24v27q0 11 7 18.5t19 7.5h557q11 0 19 -8t8 -18v-27q0 -10 -8 -17t-19 -7h-557z" />
<glyph unicode="&#x2d8;" horiz-adv-x="708" d="M354 1102q-103 0 -176.5 64.5t-91.5 160.5q-4 29 20 29h27q17 0 25 -23q18 -71 70.5 -116.5t125.5 -45.5q70 0 125 46t70 116q7 23 24 23h29q10 0 16.5 -8.5t4.5 -20.5q-15 -96 -91 -160.5t-178 -64.5z" />
<glyph unicode="&#x2d9;" horiz-adv-x="448" d="M221 1192q-34 0 -58 23t-24 55q0 34 24 57t58 23t57 -23t23 -57q0 -32 -23 -55t-57 -23z" />
<glyph unicode="&#x2da;" horiz-adv-x="593" d="M297 1018q-92 0 -155.5 62.5t-63.5 154.5t63.5 155.5t155.5 63.5q91 0 154 -63.5t63 -155.5t-63 -154.5t-154 -62.5zM297 1083q60 0 104.5 45.5t44.5 106.5t-44.5 106t-104.5 45q-62 0 -108 -45t-46 -106t46 -106.5t108 -45.5z" />
<glyph unicode="&#x2db;" horiz-adv-x="565" d="M391 6q-34 -19 -59.5 -35t-62 -45.5t-59.5 -59.5t-40.5 -72.5t-17.5 -88.5q0 -55 32 -88t88 -33q41 0 79 18.5t57 35.5q6 5 14.5 3t9.5 -12l4 -39q3 -23 -20 -36q-84 -50 -160 -50q-91 0 -143 56t-52 143q0 49 18.5 95t42.5 77.5t63 64.5t63 49t61 38z" />
<glyph unicode="&#x2dc;" horiz-adv-x="778" d="M106 1186l-24 10q-9 3 -12 11.5t0 17.5q32 86 71 125q50 51 119 51q41 0 70.5 -19.5t47 -46.5t32.5 -54.5t35 -47t47 -19.5q77 0 116 121q3 10 12.5 15t18.5 0l23 -9q16 -8 12 -26q-3 -11 -7.5 -25t-20 -43t-35 -51t-53 -39.5t-73.5 -17.5t-69.5 19.5t-46.5 47t-32.5 55 t-36 47t-46.5 19.5q-27 0 -48.5 -13t-35.5 -37t-20 -39t-13 -38q-7 -24 -31 -14z" />
<glyph unicode="&#x2dd;" horiz-adv-x="802" d="M473 1061q-11 0 -14.5 6.5t0.5 17.5l162 326q10 23 28 23h45q17 0 23 -11t-2 -24l-191 -322q-8 -16 -26 -16h-25zM133 1061q-11 0 -14.5 6.5t0.5 17.5l162 326q10 23 28 23h45q17 0 23 -11t-2 -24l-191 -322q-8 -16 -26 -16h-25z" />
<glyph unicode="&#x394;" horiz-adv-x="1441" d="M117 0q-64 0 -29 76l606 1364q7 14 25 14h6q20 0 27 -14l604 -1368q32 -72 -37 -72h-1202zM195 86h1046l-516 1204h-4z" />
<glyph unicode="&#x3a9;" horiz-adv-x="1716" d="M180 27v30q0 11 8 19t19 8h282q-166 97 -267 264t-101 367q0 151 58 288t156.5 236t235 157t287.5 58t287.5 -58t235 -157t156.5 -236t58 -288q0 -200 -101 -367t-267 -264h282q11 0 19 -8t8 -19v-30q0 -11 -8 -19t-19 -8h-485q-10 0 -17.5 8t-7.5 19v30q0 20 25 27 q211 53 346 229t135 402q0 176 -86.5 325.5t-235.5 236.5t-325 87t-325 -87t-235.5 -236.5t-86.5 -325.5q0 -226 135 -402t346 -229q25 -7 25 -27v-30q0 -11 -7.5 -19t-17.5 -8h-485q-11 0 -19 8t-8 19z" />
<glyph unicode="&#x3bc;" horiz-adv-x="1073" d="M188 -457v1372q0 12 9.5 21.5t21.5 9.5h31q12 0 20.5 -9.5t8.5 -21.5v-518q0 -169 62.5 -250t205.5 -81q175 0 299 176v673q0 31 31 31h30q11 0 20 -9.5t9 -21.5v-884q0 -12 -9 -21.5t-20 -9.5h-18q-11 0 -19 9t-10 20l-8 92q-14 -18 -34.5 -37.5t-59 -46t-95.5 -43.5 t-122 -17q-178 0 -262 93v-527q0 -30 -31 -30h-33q-27 0 -27 30z" />
<glyph unicode="&#x3c0;" horiz-adv-x="1320" d="M322 31v827h-248q-14 0 -22.5 9.5t-8.5 21.5v26q0 12 9.5 21.5t21.5 9.5h1171q14 0 23.5 -7.5t9.5 -20.5v-33q0 -27 -33 -27h-246v-827q0 -14 -8.5 -22.5t-21.5 -8.5h-29q-11 0 -21 9.5t-10 21.5v827h-497v-827q0 -14 -9.5 -22.5t-21.5 -8.5h-29q-13 0 -21.5 9.5 t-8.5 21.5z" />
<glyph unicode="&#x1e80;" horiz-adv-x="1794" d="M465 -6l-406 1413q-5 27 23 27h49q9 0 16 -7t9 -16l344 -1200h4l360 1225q6 18 31 18h4q25 0 31 -18l362 -1225h4l342 1200q2 9 9 16t16 7h49q28 0 23 -27l-406 -1413q-3 -14 -18 -14h-23q-14 0 -20 14l-369 1247h-4l-369 -1247q-6 -14 -20 -14h-23q-15 0 -18 14z M1057 1602l-352 161q-20 10 -9 31l21 41q10 18 35 6l335 -184q20 -11 13 -29l-10 -20q-8 -17 -33 -6z" />
<glyph unicode="&#x1e81;" horiz-adv-x="1431" d="M360 0l-282 907q-10 39 14 39h45q26 0 31 -22l223 -762h4l287 784q8 21 29 21h8q20 0 29 -21l282 -784h4l226 762q5 22 30 22h47q27 0 13 -39l-283 -907q-6 -23 -29 -23h-8q-21 0 -31 23l-282 807h-4l-285 -807q-7 -23 -29 -23h-8q-23 0 -31 23zM872 1145l-352 162 q-18 9 -8 30l20 41q10 18 35 6l336 -184q19 -11 12 -29l-10 -20q-8 -17 -33 -6z" />
<glyph unicode="&#x1e82;" horiz-adv-x="1794" d="M465 -6l-406 1413q-5 27 23 27h49q9 0 16 -7t9 -16l344 -1200h4l360 1225q6 18 31 18h4q25 0 31 -18l362 -1225h4l342 1200q2 9 9 16t16 7h49q28 0 23 -27l-406 -1413q-3 -14 -18 -14h-23q-14 0 -20 14l-369 1247h-4l-369 -1247q-6 -14 -20 -14h-23q-15 0 -18 14z M737 1602q-24 -11 -32 6l-11 20q-7 18 13 29l335 184q25 12 35 -6l21 -41q11 -22 -8 -31z" />
<glyph unicode="&#x1e83;" horiz-adv-x="1431" d="M360 0l-282 907q-10 39 14 39h45q26 0 31 -22l223 -762h4l287 784q8 21 29 21h8q20 0 29 -21l282 -784h4l226 762q5 22 30 22h47q27 0 13 -39l-283 -907q-6 -23 -29 -23h-8q-21 0 -31 23l-282 807h-4l-285 -807q-7 -23 -29 -23h-8q-23 0 -31 23zM551 1143 q-14 -5 -19 -3.5t-10 11.5l-12 27q-7 17 12 28l338 178q24 14 35 -6l20 -41q11 -22 -18 -37z" />
<glyph unicode="&#x1e84;" horiz-adv-x="1794" d="M465 -6l-406 1413q-5 27 23 27h49q9 0 16 -7t9 -16l344 -1200h4l360 1225q6 18 31 18h4q25 0 31 -18l362 -1225h4l342 1200q2 9 9 16t16 7h49q28 0 23 -27l-406 -1413q-3 -14 -18 -14h-23q-14 0 -20 14l-369 1247h-4l-369 -1247q-6 -14 -20 -14h-23q-15 0 -18 14z M1110 1628q-34 0 -58 24t-24 56q0 35 24 59.5t58 24.5q35 0 59.5 -24.5t24.5 -59.5q0 -33 -24.5 -56.5t-59.5 -23.5zM682 1628q-34 0 -58 24t-24 56q0 35 24 59.5t58 24.5q35 0 59.5 -24.5t24.5 -59.5q0 -33 -24.5 -56.5t-59.5 -23.5z" />
<glyph unicode="&#x1e85;" horiz-adv-x="1431" d="M360 0l-282 907q-10 39 14 39h45q26 0 31 -22l223 -762h4l287 784q8 21 29 21h8q20 0 29 -21l282 -784h4l226 762q5 22 30 22h47q27 0 13 -39l-283 -907q-6 -23 -29 -23h-8q-21 0 -31 23l-282 807h-4l-285 -807q-7 -23 -29 -23h-8q-23 0 -31 23zM907 1208 q-33 0 -56.5 23.5t-23.5 56.5q0 35 23 59.5t57 24.5q35 0 59.5 -24.5t24.5 -59.5q0 -33 -24.5 -56.5t-59.5 -23.5zM516 1208q-34 0 -58 24t-24 56q0 35 24 59.5t58 24.5q35 0 58.5 -24.5t23.5 -59.5q0 -33 -23.5 -56.5t-58.5 -23.5z" />
<glyph unicode="&#x1ef2;" horiz-adv-x="1159" d="M530 27v669l-522 707q-9 12 -3.5 21.5t20.5 9.5h61q17 0 27 -13l467 -637l475 637q10 13 26 13h62q15 0 20 -9.5t-4 -21.5l-532 -705v-671q0 -11 -8.5 -19t-18.5 -8q-3 0 -12 -0.5t-14 0t-13 1t-12.5 2t-9 4.5t-7 8t-2.5 12zM739 1602l-352 161q-19 9 -8 31l20 41 q10 18 35 6l336 -184q19 -11 12 -29l-10 -20q-8 -17 -33 -6z" />
<glyph unicode="&#x1ef3;" horiz-adv-x="980" d="M434 2l-377 905q-7 15 -3 27t18 12h43q24 0 32 -22l334 -818h6l349 818q8 22 30 22h45q16 0 19.5 -12t-4.5 -27l-592 -1376q-9 -18 -31 -18h-47q-32 0 -18 32zM639 1145l-352 162q-18 9 -8 30l20 41q10 18 35 6l336 -184q19 -11 12 -29l-10 -20q-8 -17 -33 -6z" />
<glyph unicode="&#x2000;" horiz-adv-x="1051" />
<glyph unicode="&#x2001;" horiz-adv-x="2103" />
<glyph unicode="&#x2002;" horiz-adv-x="1051" />
<glyph unicode="&#x2003;" horiz-adv-x="2103" />
<glyph unicode="&#x2004;" horiz-adv-x="701" />
<glyph unicode="&#x2005;" horiz-adv-x="525" />
<glyph unicode="&#x2006;" horiz-adv-x="350" />
<glyph unicode="&#x2007;" horiz-adv-x="350" />
<glyph unicode="&#x2008;" horiz-adv-x="262" />
<glyph unicode="&#x2009;" horiz-adv-x="420" />
<glyph unicode="&#x200a;" horiz-adv-x="116" />
<glyph unicode="&#x2010;" horiz-adv-x="808" d="M172 473q-10 0 -17.5 8t-7.5 19v22q0 12 7 19.5t18 7.5h463q11 0 19 -7.5t8 -19.5v-22q0 -10 -8 -18.5t-19 -8.5h-463z" />
<glyph unicode="&#x2011;" horiz-adv-x="808" d="M172 473q-10 0 -17.5 8t-7.5 19v22q0 12 7 19.5t18 7.5h463q11 0 19 -7.5t8 -19.5v-22q0 -10 -8 -18.5t-19 -8.5h-463z" />
<glyph unicode="&#x2012;" horiz-adv-x="808" d="M172 473q-10 0 -17.5 8t-7.5 19v22q0 12 7 19.5t18 7.5h463q11 0 19 -7.5t8 -19.5v-22q0 -10 -8 -18.5t-19 -8.5h-463z" />
<glyph unicode="&#x2013;" horiz-adv-x="1126" d="M170 477q-11 0 -19 7.5t-8 17.5v16q0 10 8.5 18.5t18.5 8.5h786q12 0 19.5 -8t7.5 -19v-16q0 -11 -7.5 -18t-19.5 -7h-786z" />
<glyph unicode="&#x2014;" horiz-adv-x="1572" d="M170 477q-11 0 -19 7.5t-8 17.5v16q0 10 8.5 18.5t18.5 8.5h1233q12 0 19.5 -8t7.5 -19v-16q0 -11 -7.5 -18t-19.5 -7h-1233z" />
<glyph unicode="&#x2018;" horiz-adv-x="444" d="M332 1032q0 -35 -24.5 -58.5t-61.5 -23.5q-58 0 -93.5 60.5t-35.5 142.5q0 168 127 291q16 16 26 0l23 -21q10 -15 -2 -30q-103 -96 -103 -213q0 -61 19 -93q20 23 51 23q32 0 53 -22.5t21 -55.5z" />
<glyph unicode="&#x2019;" horiz-adv-x="440" d="M113 1372q0 35 24.5 58.5t61.5 23.5q58 0 93.5 -60.5t35.5 -142.5q0 -167 -127 -290q-17 -17 -27 0l-22 20q-11 15 2 31q102 95 102 213q0 62 -18 92q-20 -23 -52 -23t-52.5 22.5t-20.5 55.5z" />
<glyph unicode="&#x201a;" horiz-adv-x="460" d="M135 55q0 35 24.5 58.5t61.5 23.5q58 0 93.5 -60.5t35.5 -142.5q0 -167 -127 -290q-16 -16 -26 0l-23 20q-11 15 2 31q103 96 103 213q0 60 -19 92q-20 -23 -51 -23q-32 0 -53 22.5t-21 55.5z" />
<glyph unicode="&#x201c;" horiz-adv-x="811" d="M332 1032q0 -35 -24.5 -58.5t-61.5 -23.5q-58 0 -93.5 60.5t-35.5 142.5q0 168 127 291q16 16 26 0l23 -21q10 -15 -2 -30q-103 -96 -103 -213q0 -61 19 -93q20 23 51 23q32 0 53 -22.5t21 -55.5zM698 1032q0 -35 -24.5 -58.5t-61.5 -23.5q-58 0 -93.5 60.5t-35.5 142.5 q0 168 127 291q17 17 27 0l22 -21q10 -15 -2 -30q-102 -95 -102 -213q0 -63 18 -93q20 23 52 23t52.5 -22.5t20.5 -55.5z" />
<glyph unicode="&#x201d;" horiz-adv-x="806" d="M113 1372q0 35 24.5 58.5t61.5 23.5q58 0 93.5 -60.5t35.5 -142.5q0 -167 -127 -290q-17 -17 -27 0l-22 20q-11 15 2 31q102 95 102 213q0 62 -18 92q-20 -23 -52 -23t-52.5 22.5t-20.5 55.5zM479 1372q0 35 24.5 58.5t61.5 23.5q58 0 93.5 -60.5t35.5 -142.5 q0 -167 -127 -290q-16 -16 -26 0l-23 20q-11 15 2 31q103 96 103 213q0 60 -19 92q-20 -23 -51 -23q-32 0 -53 22.5t-21 55.5z" />
<glyph unicode="&#x201e;" horiz-adv-x="829" d="M135 55q0 35 24.5 58.5t61.5 23.5q58 0 93.5 -60.5t35.5 -142.5q0 -167 -127 -290q-16 -16 -26 0l-23 20q-11 15 2 31q103 96 103 213q0 60 -19 92q-20 -23 -51 -23q-32 0 -53 22.5t-21 55.5zM502 55q0 35 24.5 58.5t61.5 23.5q58 0 93.5 -60.5t35.5 -142.5 q0 -167 -127 -290q-17 -17 -27 0l-22 20q-11 15 2 31q102 95 102 213q0 62 -18 92q-20 -23 -52 -23t-52.5 22.5t-20.5 55.5z" />
<glyph unicode="&#x2020;" horiz-adv-x="1157" d="M102 733q-26 0 -26 31v29q0 11 8 18.5t18 7.5h420v588q0 11 8.5 19t20.5 8h53q10 0 18.5 -8t8.5 -19v-588h424q10 0 17 -7.5t7 -18.5v-33q0 -11 -7 -19t-17 -8h-426l-19 -1198q0 -9 -7.5 -15.5t-18.5 -6.5h-17q-26 0 -26 22l-17 1198h-422z" />
<glyph unicode="&#x2021;" horiz-adv-x="1183" d="M152 29v30q0 11 8 19t18 8h367l-8 733h-420q-12 0 -19.5 8.5t-7.5 20.5v31q0 10 8 18t19 8h420v502q0 11 8 19t20 8h53q10 0 18.5 -8t8.5 -19v-502h424q11 0 18 -9t7 -22v-28q0 -11 -7.5 -19t-17.5 -8h-424l-10 -733h373q10 0 17 -8t7 -19v-32q0 -11 -7 -19t-17 -8h-375 l-8 -465q0 -9 -8 -15.5t-19 -6.5h-16q-27 0 -27 22l-8 465h-369q-12 0 -19 8.5t-7 20.5z" />
<glyph unicode="&#x2022;" horiz-adv-x="645" d="M319 377q-60 0 -102.5 42.5t-42.5 102.5q0 63 42.5 107.5t102.5 44.5q63 0 107.5 -44.5t44.5 -107.5q0 -60 -44.5 -102.5t-107.5 -42.5z" />
<glyph unicode="&#x2026;" horiz-adv-x="1222" d="M926 63q0 34 24 58t58 24q35 0 58.5 -24t23.5 -58t-23.5 -58.5t-58.5 -24.5q-34 0 -58 24.5t-24 58.5zM526 63q0 34 24 58t58 24q35 0 58.5 -24t23.5 -58t-23.5 -58.5t-58.5 -24.5q-34 0 -58 24.5t-24 58.5zM133 63q0 34 25 58t59 24q35 0 58.5 -24t23.5 -58t-23.5 -58.5 t-58.5 -24.5q-34 0 -59 24.5t-25 58.5z" />
<glyph unicode="&#x202f;" horiz-adv-x="420" />
<glyph unicode="&#x2030;" horiz-adv-x="2037" d="M381 889q-119 0 -201 82t-82 200q0 119 82 201t201 82q117 0 200 -82.5t83 -200.5t-83 -200t-200 -82zM256 35l778 1388q7 11 25 11h37q13 0 18.5 -13t-2.5 -26l-780 -1381q-7 -14 -25 -14h-37q-13 0 -17.5 11.5t3.5 23.5zM381 965q84 0 144.5 60t60.5 146 q0 84 -60.5 144.5t-144.5 60.5q-86 0 -146.5 -60t-60.5 -145q0 -86 60.5 -146t146.5 -60zM1386 260q0 118 83 201.5t202 83.5q116 0 199.5 -83.5t83.5 -201.5q0 -117 -83.5 -200t-199.5 -83q-118 0 -201.5 83t-83.5 200zM739 260q0 119 82.5 202t200.5 83q117 0 200 -83.5 t83 -201.5q0 -117 -83 -200t-200 -83q-118 0 -200.5 83t-82.5 200zM1464 260q0 -86 59.5 -145.5t147.5 -59.5q84 0 143.5 59.5t59.5 145.5q0 85 -60 145t-143 60q-87 0 -147 -60t-60 -145zM815 260q0 -86 60.5 -145.5t146.5 -59.5q84 0 144.5 59.5t60.5 145.5 q0 84 -60.5 144.5t-144.5 60.5q-86 0 -146.5 -60t-60.5 -145z" />
<glyph unicode="&#x2039;" horiz-adv-x="540" d="M334 147l-221 322q-12 15 0 35l221 315q13 19 33 19h32q12 0 16 -11t-5 -26l-193 -314l193 -321q9 -15 5 -26t-16 -11h-32q-20 0 -33 18z" />
<glyph unicode="&#x203a;" horiz-adv-x="540" d="M141 129q-12 0 -15.5 11t5.5 26l193 321l-193 314q-9 15 -5.5 26t15.5 11h33q20 0 33 -19l221 -315q12 -20 0 -35l-221 -322q-13 -18 -33 -18h-33z" />
<glyph unicode="&#x2044;" horiz-adv-x="245" d="M-231 10q-6 -10 -27 -10h-31q-12 0 -17 8.5t1 20.5l786 1394q7 11 27 11h31q12 0 17 -8.5t-1 -20.5z" />
<glyph unicode="&#x205f;" horiz-adv-x="525" />
<glyph unicode="&#x2070;" horiz-adv-x="673" d="M336 1012q-118 0 -184 85.5t-66 235.5q0 153 66 239.5t184 86.5q119 0 185.5 -86.5t66.5 -239.5q0 -150 -66.5 -235.5t-185.5 -85.5zM336 1079q85 0 131.5 67t46.5 187q0 122 -47 191t-131 69q-83 0 -129.5 -69t-46.5 -191q0 -120 46.5 -187t129.5 -67z" />
<glyph unicode="&#x2074;" horiz-adv-x="651" d="M432 1032q-8 0 -14 6t-6 13v123h-342q-8 0 -13.5 5.5t-5.5 12.5v18l387 428h29q8 0 14 -5.5t6 -12.5v-379h80q7 0 13 -5t6 -11v-33q0 -6 -6 -11t-13 -5h-80v-125q0 -7 -6 -13t-14 -6h-35zM168 1243h244v266z" />
<glyph unicode="&#x2075;" horiz-adv-x="600" d="M287 1012q-117 0 -201 78q-10 10 -10 15t8 15l18 23q4 6 12.5 6t14.5 -6q68 -68 160 -68q71 0 118.5 44t47.5 102q0 56 -41.5 91.5t-108.5 35.5h-160q-30 0 -30 30v242q0 8 5.5 13t12.5 5h303q8 0 13.5 -5.5t5.5 -12.5v-35q0 -6 -6 -11t-13 -5h-254v-154h121 q112 0 169.5 -49t57.5 -141q0 -89 -69.5 -151t-173.5 -62z" />
<glyph unicode="&#x2076;" horiz-adv-x="602" d="M313 1012q-112 0 -171.5 78.5t-59.5 195.5q0 70 27.5 132.5t65 102.5t87 73.5t84 49t64.5 25.5q17 7 24 -12l10 -23q13 -27 -12 -35q-87 -25 -163.5 -85t-108.5 -150q1 0 10.5 8t22.5 16t32.5 17t46.5 14.5t58 5.5q84 0 145.5 -53t61.5 -147q0 -88 -66 -150.5t-158 -62.5 zM315 1075q62 0 103 41.5t41 108.5q0 61 -43 100t-105 39q-53 0 -95.5 -28.5t-59.5 -59.5q-2 -78 41.5 -139.5t117.5 -61.5z" />
<glyph unicode="&#x2077;" horiz-adv-x="550" d="M164 1032q-29 0 -29 29l275 508h-330q-8 0 -13.5 5.5t-5.5 12.5v33q0 7 5.5 12.5t13.5 5.5h403q8 0 13.5 -5.5t5.5 -12.5v-33l-285 -536q-11 -19 -27 -19h-26z" />
<glyph unicode="&#x2078;" horiz-adv-x="626" d="M313 1012q-103 0 -166 50t-63 126q0 37 14 67t35.5 47.5t36 26t25.5 12.5v5q-40 18 -66.5 57.5t-26.5 87.5q0 77 59.5 122.5t151.5 45.5t151.5 -45.5t59.5 -122.5q0 -47 -27.5 -87t-66.5 -58v-5q11 -4 25 -12t36.5 -26t37 -48t14.5 -67q0 -76 -63.5 -126t-166.5 -50z M313 1370q65 5 100.5 33.5t35.5 79.5q0 50 -37.5 80t-98.5 30t-98 -29.5t-37 -80.5q0 -103 135 -113zM313 1075q68 0 110 32.5t42 84.5q0 46 -36.5 79.5t-115.5 37.5q-79 -4 -115 -37t-36 -80q0 -52 41.5 -84.5t109.5 -32.5z" />
<glyph unicode="&#x2079;" horiz-adv-x="604" d="M195 997q-7 -3 -14.5 1t-10.5 12l-10 22q-13 27 12 35q54 16 104.5 44.5t98 79t69.5 112.5q-1 0 -10.5 -8.5t-22.5 -16.5t-32.5 -17t-46.5 -14.5t-58 -5.5q-84 0 -145 53.5t-61 147.5q0 88 65.5 150.5t157.5 62.5q111 0 171 -78.5t60 -196.5q0 -70 -27 -132.5t-65 -102.5 t-87 -73.5t-83.5 -49t-64.5 -25.5zM293 1303q53 0 96 28.5t60 59.5q2 78 -42 139t-118 61q-62 0 -103 -41t-41 -108q0 -61 43 -100t105 -39z" />
<glyph unicode="&#x2080;" horiz-adv-x="673" d="M86 -6q0 153 66 239t184 86q120 0 186 -86t66 -239q0 -150 -66.5 -236t-185.5 -86q-118 0 -184 86t-66 236zM160 -6q0 -120 46.5 -187t129.5 -67q85 0 131.5 67t46.5 187q0 122 -47 191t-131 69q-83 0 -129.5 -69t-46.5 -191z" />
<glyph unicode="&#x2081;" horiz-adv-x="362" d="M70 150l-13 20q-6 13 6 23l150 106h25q20 0 20 -16v-574q0 -16 -16 -16h-41q-17 0 -17 16v494l-96 -58q-11 -5 -18 5z" />
<glyph unicode="&#x2082;" horiz-adv-x="587" d="M121 182l-27 25q-10 10 -2 20q3 4 8 10t23.5 22t39.5 28t54 22t68 10q101 0 159 -53.5t58 -130.5q0 -93 -94 -180l-218 -199h293q15 0 15 -16v-31q0 -16 -15 -16h-395q-18 0 -18 16v19l284 266q71 68 74 135q0 49 -39 86t-108 37q-72 0 -140 -68q-4 -6 -10.5 -6t-9.5 4z " />
<glyph unicode="&#x2083;" horiz-adv-x="610" d="M174 -10v24q0 17 16 17h93q66 0 107.5 28.5t41.5 83.5q0 50 -39 80.5t-100 30.5q-85 0 -146 -61q-11 -11 -20 -3l-27 23q-12 13 -2 23q8 9 24 23t67.5 37t107.5 23q93 0 152 -45t59 -122q0 -48 -32.5 -88.5t-74.5 -59.5q5 -2 13.5 -5t30 -16t38 -29.5t30 -44.5t13.5 -61 q0 -76 -65 -126t-168 -50q-83 0 -138 28t-77 56q-12 12 0 23l22 22q14 13 27 0q1 -1 7.5 -7t10.5 -9.5t13.5 -10t17.5 -11t21.5 -10.5t26.5 -9t30.5 -5.5t36.5 -2.5q69 0 113.5 33t44.5 84q0 49 -43 82.5t-123 33.5h-93q-16 0 -16 21z" />
<glyph unicode="&#x2084;" horiz-adv-x="655" d="M53 -129l387 428h29q8 0 14 -5.5t6 -12.5v-379h80q7 0 13 -5.5t6 -11.5v-32q0 -6 -6 -11.5t-13 -5.5h-80v-125q0 -7 -6 -12.5t-14 -5.5h-35q-8 0 -14 5.5t-6 12.5v123h-342q-8 0 -13.5 6t-5.5 13v18zM170 -96h244v266z" />
<glyph unicode="&#x2085;" horiz-adv-x="600" d="M115 39v242q0 7 5.5 12.5t12.5 5.5h303q8 0 13.5 -5.5t5.5 -12.5v-35q0 -6 -6 -11.5t-13 -5.5h-254v-153h121q111 0 169 -49.5t58 -141.5q0 -89 -69.5 -151t-173.5 -62q-117 0 -201 78q-10 10 -10 15.5t8 15.5l18 22q4 6 12.5 6t14.5 -6q67 -67 160 -67q71 0 118.5 43.5 t47.5 101.5q0 56 -41.5 91.5t-108.5 35.5h-160q-30 0 -30 31z" />
<glyph unicode="&#x2086;" horiz-adv-x="602" d="M82 -53q0 70 27.5 132.5t65 102.5t87 73.5t84 49t64.5 25.5q16 6 24 -13l10 -22q13 -27 -12 -35q-87 -25 -163.5 -85t-108.5 -150q1 0 10.5 8t22.5 16t32.5 17t46.5 14.5t58 5.5q84 0 145.5 -53.5t61.5 -147.5q0 -88 -66 -150.5t-158 -62.5q-111 0 -171 78.5t-60 196.5z M156 -63q-2 -78 41.5 -139.5t117.5 -61.5q62 0 103 41t41 108q0 61 -43 100.5t-105 39.5q-53 0 -95.5 -28.5t-59.5 -59.5z" />
<glyph unicode="&#x2087;" horiz-adv-x="550" d="M80 229q-8 0 -13.5 5.5t-5.5 13.5v33q0 7 5.5 12.5t13.5 5.5h403q8 0 13.5 -5.5t5.5 -12.5v-33l-285 -537q-10 -18 -27 -18h-26q-29 0 -29 28l275 508h-330z" />
<glyph unicode="&#x2088;" horiz-adv-x="628" d="M86 -152q0 37 14 67.5t35.5 48t36 26t25.5 12.5v4q-40 18 -66.5 58t-26.5 88q0 77 59 122t152 45t152 -45t59 -122q0 -47 -27.5 -87.5t-66.5 -58.5v-4q11 -4 25 -12.5t36.5 -26.5t37 -48t14.5 -67q0 -76 -63.5 -126t-166.5 -50t-166 50t-63 126zM180 143q0 -102 135 -112 q136 10 136 112q0 51 -37.5 81t-98.5 30q-60 0 -97.5 -30t-37.5 -81zM164 -147q0 -52 41.5 -84.5t109.5 -32.5t110 32.5t42 84.5q0 46 -36.5 79t-115.5 37q-79 -4 -115 -37t-36 -79z" />
<glyph unicode="&#x2089;" horiz-adv-x="600" d="M66 102q0 88 65.5 150.5t157.5 62.5q112 0 171.5 -78.5t59.5 -195.5q0 -70 -27 -132.5t-65 -102.5t-87 -73.5t-83.5 -49t-64.5 -25.5q-17 -7 -25 12l-10 23q-13 27 12 35q87 25 163.5 85t108.5 150q-1 0 -10.5 -8t-22.5 -16t-32.5 -17t-46.5 -14.5t-58 -5.5 q-84 0 -145 53t-61 147zM143 102q0 -61 43 -100t105 -39q53 0 95.5 28.5t59.5 59.5q2 78 -41.5 139.5t-117.5 61.5q-62 0 -103 -41.5t-41 -108.5z" />
<glyph unicode="&#x20ac;" d="M936 772h-674v-57q0 -63 6 -121h588q11 0 18 -9.5t7 -21.5v-8q0 -11 -7.5 -18t-17.5 -7h-580q34 -210 154 -334t328 -124q99 0 175 34.5t154 96.5q20 17 33 4l31 -37q19 -19 0 -35q-175 -155 -393 -155q-240 0 -391.5 147t-192.5 403h-100q-11 0 -18 8t-7 19v10 q0 11 7.5 19t17.5 8h92q-6 58 -6 121v57h-86q-10 0 -17.5 9t-7.5 20v10q0 11 7.5 19t17.5 8h92q15 126 59 235t115.5 195.5t179 136t238.5 49.5q125 0 211.5 -32.5t179.5 -112.5q9 -7 9.5 -19.5t-5.5 -19.5l-29 -33q-19 -19 -41 0q-131 125 -325 125q-204 0 -333.5 -142 t-156.5 -382h668q13 0 20 -9.5t7 -21.5v-8q0 -11 -7.5 -19t-19.5 -8z" />
<glyph unicode="&#x2113;" horiz-adv-x="964" d="M217 297q0 56 16 166q-65 -21 -114 -29q-28 -3 -35 17l-6 24q-11 35 24 39q98 16 150 33l39 203q35 173 73.5 299t88 219t110.5 139.5t135 46.5q101 0 158 -70.5t57 -191.5q0 -105 -33 -200t-88 -169t-132.5 -138t-161.5 -110t-179 -81q-22 -101 -22 -193 q0 -240 190 -240q36 0 71.5 4t63.5 10t55.5 14.5t46.5 16t38 17t29 15.5l20 12l10 6q24 15 35 -4l14 -27q7 -10 6 -17t-12 -18q-7 -6 -21 -15t-50.5 -27t-77.5 -32t-102.5 -25t-125.5 -11q-76 0 -130.5 26t-84 72t-42.5 99.5t-13 119.5zM336 575q102 43 187.5 101t157.5 134 t112.5 174.5t40.5 207.5q0 84 -36 132t-100 48q-58 0 -106 -42t-87.5 -128t-71.5 -197t-64 -268z" />
<glyph unicode="&#x2117;" horiz-adv-x="1738" d="M131 717q0 200 98.5 369.5t268 268.5t370.5 99q150 0 286.5 -58.5t236 -157.5t158.5 -235.5t59 -285.5q0 -150 -59 -286.5t-158.5 -235t-236 -157t-286.5 -58.5t-286.5 58t-235.5 157t-157 235.5t-58 286.5zM211 717q0 -178 88 -329.5t239.5 -240t329.5 -88.5t329.5 88.5 t240 240t88.5 329.5t-88.5 329t-240 238.5t-329.5 87.5q-133 0 -255 -52t-210 -139.5t-140 -209t-52 -254.5zM647 369v702q0 11 7.5 19t17.5 8h278q107 0 183.5 -59.5t76.5 -172.5t-76 -174t-182 -61h-223v-256q0 -33 -24 -33h-33q-10 0 -17.5 8t-7.5 19zM729 705h197 q97 0 148.5 36.5t51.5 124.5q0 84 -55 121t-145 37h-197v-319z" />
<glyph unicode="&#x2122;" horiz-adv-x="1548" d="M668 807q-13 0 -18.5 9t-2.5 22l139 596q6 20 23 20h10q13 0 21 -20l176 -502h2l178 502q8 20 21 20h10q10 0 14.5 -4.5t7.5 -15.5l140 -596q3 -13 -2.5 -22t-18.5 -9h-22q-19 0 -25 20l-109 445h-2l-163 -459q-5 -16 -19 -16h-20q-14 0 -19 16l-166 459h-2l-106 -445 q-6 -20 -25 -20h-22zM365 807q-9 0 -17 7.5t-8 19.5v532h-178q-12 0 -19.5 9.5t-7.5 21.5v10q0 11 8.5 19t18.5 8h426q10 0 18 -8t8 -19v-14q0 -12 -7.5 -19.5t-18.5 -7.5h-176v-532q0 -10 -8 -18.5t-19 -8.5h-20z" />
<glyph unicode="&#x2126;" horiz-adv-x="1716" d="M180 27v30q0 11 8 19t19 8h282q-166 97 -267 264t-101 367q0 151 58 288t156.5 236t235 157t287.5 58t287.5 -58t235 -157t156.5 -236t58 -288q0 -200 -101 -367t-267 -264h282q11 0 19 -8t8 -19v-30q0 -11 -8 -19t-19 -8h-485q-10 0 -17.5 8t-7.5 19v30q0 20 25 27 q211 53 346 229t135 402q0 176 -86.5 325.5t-235.5 236.5t-325 87t-325 -87t-235.5 -236.5t-86.5 -325.5q0 -226 135 -402t346 -229q25 -7 25 -27v-30q0 -11 -7.5 -19t-17.5 -8h-485q-11 0 -19 8t-8 19z" />
<glyph unicode="&#x212e;" horiz-adv-x="1714" d="M340 311q81 -120 228 -187t309 -67q119 0 235 47t215 134q21 20 41 0l16 -19q14 -17 -6 -37q-214 -202 -501 -202q-154 0 -291.5 57t-237 154.5t-157.5 234t-58 289.5t58 290.5t157.5 235.5t237 155.5t291.5 57.5q153 0 290 -57t236.5 -154.5t158.5 -234t60 -289.5 q0 -43 -35 -43h-1247v-365zM340 750h1077v364q-89 125 -230.5 193.5t-309.5 68.5q-167 0 -307.5 -67.5t-229.5 -190.5v-368z" />
<glyph unicode="&#x2153;" horiz-adv-x="1335" d="M156 29l786 1394q7 11 27 11h30q12 0 17.5 -8.5t-0.5 -20.5l-787 -1395q-6 -10 -26 -10h-31q-12 0 -17 8.5t1 20.5zM242 827q-17 0 -17 17v493l-96 -57q-11 -6 -18 4l-13 21q-6 12 6 22l150 107h25q20 0 20 -17v-573q0 -7 -5 -12t-11 -5h-41zM791 63q-11 11 0 23l22 23 q13 13 27 0l8 -7q8 -8 13.5 -12.5t16.5 -12.5t23 -13t27.5 -10.5t35 -8t40.5 -2.5q69 0 113 33t44 84q0 49 -43 82.5t-123 33.5h-92q-16 0 -16 21v25q0 16 16 16h92q66 0 108 29t42 84q0 50 -39 80t-100 30q-85 0 -146 -61q-11 -11 -20 -2l-27 22q-13 12 -2 23q3 3 8.5 9 t25.5 20.5t41.5 25.5t55 20t68.5 9q92 0 151.5 -45.5t59.5 -122.5q0 -48 -32.5 -88.5t-74.5 -59.5q5 -2 13.5 -5t30 -16t38 -29t30 -44t13.5 -61q0 -76 -65 -126t-168 -50q-83 0 -138 28t-77 55z" />
<glyph unicode="&#x2154;" horiz-adv-x="1470" d="M125 827q-9 0 -14 5.5t-5 11.5v18l285 266q71 68 74 136q0 48 -39.5 85t-108.5 37q-72 0 -139 -67q-4 -5 -10 -5t-10 3l-27 24q-10 10 -2 21q3 4 8 10t23.5 22t39.5 28t54 22t68 10q101 0 159 -53.5t58 -130.5q0 -92 -95 -180l-217 -199h293q15 0 15 -17v-30 q0 -17 -15 -17h-395zM289 29l786 1394q7 11 27 11h31q12 0 17 -8.5t-1 -20.5l-787 -1395q-6 -10 -26 -10h-31q-12 0 -17 8.5t1 20.5zM924 63q-12 11 0 23l22 23q14 13 27 0l8 -7q8 -8 13.5 -12.5t16.5 -12.5t23 -13t27.5 -10.5t35 -8t40.5 -2.5q69 0 113 33t44 84 q0 49 -43 82.5t-123 33.5h-92q-16 0 -16 21v25q0 16 16 16h92q66 0 108 29t42 84q0 50 -39 80t-100 30q-85 0 -146 -61q-11 -11 -20 -2l-27 22q-12 12 -2 23q3 3 8.5 9t25.5 20.5t41.5 25.5t55 20t68.5 9q92 0 151.5 -45.5t59.5 -122.5q0 -48 -32.5 -88.5t-74.5 -59.5 q5 -2 13.5 -5t30 -16t38 -29t30 -44t13.5 -61q0 -76 -65 -126t-168 -50q-83 0 -138 28t-77 55z" />
<glyph unicode="&#x215b;" horiz-adv-x="1335" d="M156 29l786 1394q7 11 27 11h30q12 0 17.5 -8.5t-0.5 -20.5l-787 -1395q-6 -10 -26 -10h-31q-12 0 -17 8.5t1 20.5zM242 827q-17 0 -17 17v493l-96 -57q-11 -6 -18 4l-13 21q-6 12 6 22l150 107h25q20 0 20 -17v-573q0 -7 -5 -12t-11 -5h-41zM780 156q0 37 14 67 t35.5 47.5t36 26t25.5 12.5v4q-40 18 -66 58t-26 88q0 77 59.5 122.5t151.5 45.5t151.5 -45.5t59.5 -122.5q0 -47 -28 -87.5t-67 -58.5v-4q11 -4 25 -12t36.5 -26t37 -48t14.5 -67q0 -76 -63 -126t-166 -50t-166.5 50t-63.5 126zM874 451q0 -51 35.5 -79.5t100.5 -33.5 q135 10 135 113q0 51 -37 80.5t-98 29.5t-98.5 -30t-37.5 -80zM858 160q0 -52 42 -84.5t110 -32.5t109.5 32.5t41.5 84.5q0 46 -36 79t-115 37q-79 -4 -115.5 -37t-36.5 -79z" />
<glyph unicode="&#x215c;" horiz-adv-x="1472" d="M322 807q-83 0 -138.5 28t-77.5 56q-11 11 0 22l23 23q13 14 27 0q1 -1 8.5 -8t13 -11.5t16.5 -12t22.5 -13t27 -11t35 -8t40.5 -2.5q69 0 113.5 33t44.5 84q0 49 -43 83t-123 34h-92q-16 0 -16 20v25q0 16 16 16h92q66 0 108 29t42 84q0 50 -39 80.5t-100 30.5 q-84 0 -146 -62q-11 -11 -20 -2l-27 23q-12 12 -2 22q3 3 8.5 9t25.5 20.5t41.5 25.5t55 20t68.5 9q92 0 151.5 -45.5t59.5 -122.5q0 -48 -32 -88t-75 -59q5 -2 13.5 -5t30 -16t38 -29.5t30 -44.5t13.5 -61q0 -76 -65 -126t-168 -50zM303 29l787 1394q7 11 26 11h31 q12 0 17 -8.5t-1 -20.5l-786 -1395q-6 -10 -27 -10h-31q-12 0 -17 8.5t1 20.5zM915 156q0 37 14 67t35.5 47.5t36 26t25.5 12.5v4q-40 18 -66 58t-26 88q0 77 59.5 122.5t151.5 45.5t151.5 -45.5t59.5 -122.5q0 -47 -27.5 -87.5t-66.5 -58.5v-4q11 -4 25 -12t36 -26 t36.5 -48t14.5 -67q0 -76 -63 -126t-166 -50t-166.5 50t-63.5 126zM1010 451q0 -103 135 -113q135 10 135 113q0 51 -37 80.5t-98 29.5t-98 -29.5t-37 -80.5zM993 160q0 -52 42 -84.5t110 -32.5t109.5 32.5t41.5 84.5q0 46 -36 79t-115 37q-79 -4 -115.5 -37t-36.5 -79z" />
<glyph unicode="&#x215d;" horiz-adv-x="1466" d="M297 29l786 1394q7 11 27 11h31q12 0 17 -8.5t-1 -20.5l-786 -1395q-6 -10 -27 -10h-31q-12 0 -17 8.5t1 20.5zM311 807q-116 0 -200 78q-10 10 -10 15t8 15l18 23q4 6 12.5 6t14.5 -6q68 -68 159 -68q71 0 118.5 44t47.5 102q0 56 -41 91.5t-108 35.5h-160q-31 0 -31 31 v241q0 7 5.5 13t13.5 6h303q7 0 12.5 -5.5t5.5 -13.5v-35q0 -6 -5.5 -11t-12.5 -5h-254v-154h121q112 0 169.5 -49t57.5 -141q0 -89 -69.5 -151t-174.5 -62zM909 156q0 37 14 67t35.5 47.5t36 26t25.5 12.5v4q-40 18 -66 58t-26 88q0 77 59.5 122.5t151.5 45.5t151.5 -45.5 t59.5 -122.5q0 -47 -28 -87.5t-67 -58.5v-4q11 -4 25 -12t36.5 -26t37 -48t14.5 -67q0 -76 -63 -126t-166 -50t-166.5 50t-63.5 126zM1004 451q0 -103 135 -113q135 10 135 113q0 51 -37 80.5t-98 29.5t-98 -29.5t-37 -80.5zM987 160q0 -52 42 -84.5t110 -32.5t109.5 32.5 t41.5 84.5q0 46 -36 79t-115 37q-79 -4 -115.5 -37t-36.5 -79z" />
<glyph unicode="&#x215e;" horiz-adv-x="1361" d="M193 29l786 1394q7 11 27 11h30q12 0 17.5 -8.5t-0.5 -20.5l-787 -1395q-6 -10 -26 -10h-31q-12 0 -17 8.5t1 20.5zM195 827q-29 0 -29 29l274 508h-329q-8 0 -13.5 5.5t-5.5 12.5v33q0 7 6 13t13 6h403q7 0 12.5 -5.5t5.5 -13.5v-33l-284 -536q-11 -19 -27 -19h-26z M805 156q0 37 14 67t35 47.5t35.5 26t25.5 12.5v4q-40 18 -66 58t-26 88q0 77 59.5 122.5t151.5 45.5t151.5 -45.5t59.5 -122.5q0 -47 -27.5 -87.5t-66.5 -58.5v-4q11 -4 25 -12t36.5 -26t37 -48t14.5 -67q0 -76 -63.5 -126t-166.5 -50t-166 50t-63 126zM899 451 q0 -103 135 -113q135 10 135 113q0 51 -37 80.5t-98 29.5t-98 -29.5t-37 -80.5zM883 160q0 -52 41.5 -84.5t109.5 -32.5t110 32.5t42 84.5q0 46 -36.5 79t-115.5 37q-79 -4 -115 -37t-36 -79z" />
<glyph unicode="&#x2202;" horiz-adv-x="1187" d="M94 465q0 103 37.5 191t101 146.5t146 91t172.5 32.5q75 0 146 -20t120.5 -50t80.5 -55t48 -45q-19 109 -77.5 210t-128 170.5t-151.5 128t-141.5 88.5t-103.5 46q-32 11 -22 39l14 32q7 21 33 15q47 -18 96.5 -42.5t119.5 -68.5t132.5 -95t126.5 -125t109.5 -156.5 t74.5 -191t29 -226.5q0 -172 -53.5 -305t-167 -214t-273.5 -81q-191 0 -330 142.5t-139 342.5zM186 461q0 -163 111 -280.5t266 -117.5q98 0 176.5 42t127.5 112.5t74.5 159.5t25.5 188q0 24 -4 64q-11 14 -20.5 26t-50.5 50t-83 64t-110.5 48.5t-139.5 22.5 q-154 0 -263.5 -107.5t-109.5 -271.5z" />
<glyph unicode="&#x2206;" horiz-adv-x="1441" d="M117 0q-64 0 -29 76l606 1364q7 14 25 14h6q20 0 27 -14l604 -1368q32 -72 -37 -72h-1202zM195 86h1046l-516 1204h-4z" />
<glyph unicode="&#x220f;" horiz-adv-x="1554" d="M221 27v1380q0 11 8.5 19t18.5 8h1059q12 0 19 -8t7 -19v-1380q0 -11 -7 -19t-19 -8h-43q-10 0 -18.5 8t-8.5 19v1321h-920v-1321q0 -11 -7 -19t-19 -8h-43q-10 0 -18.5 8t-8.5 19z" />
<glyph unicode="&#x2211;" horiz-adv-x="1095" d="M94 27v18l672 688l-672 653v21q0 11 8 19t19 8h821q10 0 18.5 -8t8.5 -19v-35q0 -10 -8 -18t-19 -8h-676l576 -558q26 -26 26 -40v-23q0 -15 -26 -41l-576 -598h676q10 0 18.5 -8t8.5 -19v-32q0 -11 -8.5 -19t-18.5 -8h-821q-11 0 -19 8t-8 19z" />
<glyph unicode="&#x2212;" d="M221 670q-11 0 -18.5 8t-7.5 18v31q0 11 8 19t18 8h789q10 0 17 -8t7 -19v-31q0 -11 -7 -18.5t-17 -7.5h-789z" />
<glyph unicode="&#x2215;" horiz-adv-x="245" d="M-231 10q-6 -10 -27 -10h-31q-12 0 -17 8.5t1 20.5l786 1394q7 11 27 11h31q12 0 17 -8.5t-1 -20.5z" />
<glyph unicode="&#x2219;" horiz-adv-x="460" d="M231 453q-34 0 -59 24t-25 58q0 35 25 58t59 23q35 0 58.5 -23t23.5 -58q0 -34 -23.5 -58t-58.5 -24z" />
<glyph unicode="&#x221a;" horiz-adv-x="1337" d="M412 -2l-344 795q-13 26 16 26h55q18 0 23 -14l278 -658h4l557 1268q8 19 29 19h262q10 0 17.5 -8t7.5 -19v-31q0 -11 -7.5 -18.5t-17.5 -7.5h-219l-604 -1352q-7 -18 -25 -18h-10q-16 0 -22 18z" />
<glyph unicode="&#x221e;" horiz-adv-x="1353" d="M432 324q-118 0 -200 82.5t-82 199.5q0 119 82 202t200 83q76 0 141 -41.5t103 -108.5q38 67 104.5 108.5t143.5 41.5q116 0 199 -83.5t83 -201.5q0 -117 -83 -199.5t-199 -82.5q-77 0 -143.5 41t-104.5 106q-38 -65 -103 -106t-141 -41zM717 606q0 -86 59.5 -145.5 t147.5 -59.5q84 0 143 59.5t59 145.5q0 85 -59.5 145t-142.5 60q-87 0 -147 -60t-60 -145zM432 401q84 0 144.5 59.5t60.5 145.5q0 84 -60.5 144.5t-144.5 60.5q-86 0 -146.5 -60t-60.5 -145q0 -86 60.5 -145.5t146.5 -59.5z" />
<glyph unicode="&#x222b;" horiz-adv-x="1019" d="M465 -156v1256q0 175 84.5 264.5t224.5 89.5q73 0 139.5 -28t90.5 -60q15 -18 4 -33l-21 -28q-15 -22 -35 -2q-28 26 -77 47.5t-101 21.5q-101 0 -160 -68t-59 -204v-1256q0 -175 -84.5 -264.5t-224.5 -89.5q-73 0 -139.5 28t-90.5 60q-15 18 -4 33l21 29q15 22 35 2 q28 -26 77 -48t101 -22q101 0 160 68t59 204z" />
<glyph unicode="&#x2248;" d="M276 682l-20 12q-27 19 -10 49q3 7 9.5 18t28 40t45.5 51.5t62.5 40.5t79.5 18q77 0 159 -73q4 -3 5 -4t16.5 -15t23 -19t21.5 -14.5t26.5 -13.5t25.5 -4q82 0 135 117q6 13 20.5 14.5t24.5 -6.5l26 -16q19 -13 4 -46q-3 -6 -8 -17t-24 -38t-41.5 -47.5t-59 -37.5 t-77.5 -17q-43 0 -84 22.5t-67.5 49t-61 49t-66.5 22.5q-50 0 -88 -36t-55 -74q-7 -16 -20.5 -25.5t-29.5 0.5zM309 338l-20 12q-27 19 -10 49q3 7 9.5 18t28 40t45.5 51.5t62.5 40.5t79.5 18q12 0 24 -2t22 -4.5t21 -7t19 -8t18 -10t16 -10.5t14.5 -10.5t11.5 -9.5t10 -9 t8 -7t16.5 -15t22.5 -19t21 -14t26.5 -13t25.5 -4q82 0 135 117q6 13 21 14.5t25 -6.5l26 -17q18 -13 4 -45q-3 -6 -8 -17t-24.5 -38t-41.5 -47.5t-59 -37.5t-78 -17q-43 0 -84 22.5t-67 49t-60.5 49t-66.5 22.5q-50 0 -88.5 -36.5t-55.5 -74.5q-19 -42 -49 -24z" />
<glyph unicode="&#x2260;" d="M403 143q-9 5 -12.5 14.5t0.5 18.5l78 148h-178q-27 0 -27 28v31q0 11 7.5 19t19.5 8h221l180 340h-401q-27 0 -27 30v29q0 11 7.5 19t19.5 8h442l76 147q4 10 16 13.5t21 -1.5l12 -6q6 -3 9 -13.5t-1 -19.5l-61 -120h131q10 0 18.5 -8t8.5 -19v-33q0 -10 -8 -18t-19 -8 h-174l-178 -340h352q27 0 27 -33v-27q0 -10 -8 -18t-19 -8h-397l-90 -174q-14 -24 -35 -13z" />
<glyph unicode="&#x2264;" d="M201 782q-21 13 -21 35v2q0 18 21 31l792 407q12 7 20.5 2t8.5 -22v-43q0 -22 -16 -31l-703 -346l703 -340q16 -9 16 -31v-43q0 -17 -8.5 -22t-20.5 2zM209 152q-11 0 -19 8t-8 18v31q0 11 8 19t19 8h788q10 0 17.5 -8t7.5 -19v-31q0 -11 -7.5 -18.5t-17.5 -7.5h-788z " />
<glyph unicode="&#x2265;" d="M236 383q-12 -7 -20.5 -2t-8.5 22v43q0 22 16 31l703 340l-703 346q-16 9 -16 31v43q0 17 8.5 22t20.5 -2l792 -407q21 -13 21 -31v-2q0 -22 -21 -35zM231 152q-10 0 -17 7.5t-7 18.5v31q0 11 7 19t17 8h789q10 0 18.5 -8t8.5 -19v-31q0 -10 -8 -18t-19 -8h-789z" />
<glyph unicode="&#x25ca;" horiz-adv-x="1241" d="M156 621q-34 46 -42 63.5t-8 46.5t8 45.5t42 65.5l438 598q7 14 24 14h7q19 0 26 -14l434 -594q5 -7 13.5 -20t11.5 -18t9 -14.5t7.5 -14.5t4.5 -13.5t3.5 -16.5t0.5 -18q0 -21 -6 -38.5t-13 -29.5t-31 -47l-434 -624q-7 -15 -26 -15h-7q-16 0 -24 15zM621 90h4l434 641 l-434 610h-4l-439 -610z" />
<glyph unicode="&#x25fc;" horiz-adv-x="942" d="M0 942h942v-942h-942v942z" />
<glyph unicode="&#xf6c3;" horiz-adv-x="598" d="M190 -233q0 35 24.5 56t61.5 21q55 0 86 -42t31 -115q0 -63 -24.5 -118t-59.5 -87q-11 -11 -24 -2l-25 20q-14 14 2 29q24 21 40.5 57t16.5 76q0 36 -10 51q-14 -14 -45 -14q-32 0 -53 19.5t-21 48.5z" />
<glyph unicode="&#xf8ff;" horiz-adv-x="1226" d="M102 61v1311q0 62 62 62h899q32 0 46.5 -15t14.5 -47v-1311q0 -32 -14.5 -46.5t-46.5 -14.5h-899q-32 0 -47 14.5t-15 46.5zM537 643q0 -10 8.5 -17.5t19.5 -7.5h74q31 0 31 27v53q0 23 16 44.5t40 39t51.5 40.5t51.5 46.5t40 59.5t16 78q0 99 -73 163t-183 64 q-50 0 -96 -13t-75.5 -31.5t-52.5 -36.5t-33 -31l-10 -13q-16 -24 0 -37l46 -45q17 -11 34 0q1 1 15 14.5t20.5 19t23.5 17.5t31.5 17.5t36.5 10.5t45 5q59 0 92 -31t33 -75q0 -35 -21 -65t-50.5 -53t-59 -47.5t-50.5 -59.5t-21 -77v-59zM502 319q0 -40 29 -69t69 -29 q41 0 70.5 29t29.5 69t-29.5 69.5t-70.5 29.5q-40 0 -69 -29.5t-29 -69.5z" />
<glyph unicode="&#xfb00;" horiz-adv-x="1409" d="M322 946h567v123q0 119 18 174q-31 35 -114.5 69t-171.5 34q-155 0 -227 -84.5t-72 -253.5v-62zM979 1077v-131h356q31 0 31 -28v-33q0 -11 -8.5 -19t-22.5 -8h-356v-827q0 -14 -10 -22.5t-23 -8.5h-26q-11 0 -21 9.5t-10 21.5v827h-567v-827q0 -14 -9.5 -22.5 t-23.5 -8.5h-29q-11 0 -20 9.5t-9 21.5v827h-151q-14 0 -22.5 9.5t-8.5 21.5v26q0 12 9.5 21.5t21.5 9.5h151v64q0 204 102 314t288 110q103 0 191 -34.5t132 -72.5q42 67 103 97t151 30q84 0 156.5 -30.5t107.5 -69.5q9 -10 10.5 -21.5t-4.5 -17.5l-20 -25q-17 -20 -41 -2 q-100 78 -209 78q-219 0 -219 -289z" />
<glyph unicode="&#xfb03;" horiz-adv-x="1804" d="M322 946h567v123q0 99 24 172q-31 35 -117.5 70t-174.5 35q-155 0 -227 -84.5t-72 -253.5v-62zM979 858v-827q0 -14 -10 -22.5t-23 -8.5h-26q-11 0 -21 9.5t-10 21.5v827h-567v-827q0 -14 -9.5 -22.5t-23.5 -8.5h-29q-11 0 -20 9.5t-9 21.5v827h-151q-14 0 -22.5 9.5 t-8.5 21.5v26q0 12 9.5 21.5t21.5 9.5h151v64q0 204 102 314t288 110q103 0 196.5 -35.5t136.5 -73.5q92 129 285 129q102 0 192.5 -37.5t131.5 -73.5q17 -17 2 -36l-23 -31q-13 -16 -37 -2q-136 92 -266 92q-125 0 -192.5 -74.5t-67.5 -218.5v-127h629q12 0 20 -9.5 t8 -21.5v-884q0 -14 -8.5 -22.5t-21.5 -8.5h-29q-13 0 -22 9.5t-9 21.5v827h-567z" />
<glyph unicode="&#xfb04;" horiz-adv-x="1855" d="M322 946h567v103q0 101 35 192q-30 34 -122 69.5t-181 35.5q-155 0 -227 -84.5t-72 -253.5v-62zM1249 1454q63 0 124 -15t104.5 -37t70 -39.5t41.5 -31.5l10 74q3 29 31 29h12q12 0 20.5 -8.5t8.5 -20.5v-1374q0 -14 -10 -22.5t-23 -8.5h-24q-13 0 -23 9.5t-10 21.5v1188 q-15 16 -37 34.5t-64.5 47t-102 47t-122.5 18.5q-126 0 -201 -81.5t-75 -242.5v-96h334q33 0 33 -28v-33q0 -27 -33 -27h-334v-827q0 -14 -10 -22.5t-23 -8.5h-26q-11 0 -21 9.5t-10 21.5v827h-567v-827q0 -14 -9.5 -22.5t-23.5 -8.5h-29q-11 0 -20 9.5t-9 21.5v827h-151 q-14 0 -22.5 9.5t-8.5 21.5v26q0 12 9.5 21.5t21.5 9.5h151v64q0 204 102 314t288 110q105 0 198 -33.5t148 -75.5q104 129 282 129z" />
<glyph horiz-adv-x="1105" d="M98 182q0 158 148 224q-25 29 -44.5 80.5t-19.5 119.5q0 169 111 265t301 96h389q14 0 22.5 -9t8.5 -20v-18q0 -22 -21 -31l-170 -10q21 -11 42.5 -29.5t46 -50t40 -81.5t15.5 -110q0 -160 -105 -259t-284 -99q-95 0 -171 29t-110 61q-12 -4 -25.5 -11.5t-35 -24.5 t-35 -47.5t-13.5 -68.5q0 -33 12.5 -56t30 -35t46.5 -19t52.5 -8.5t57.5 -1.5h342q164 0 253 -58t89 -196q0 -149 -132.5 -236.5t-344.5 -87.5q-221 0 -339 82.5t-118 210.5q0 49 14.5 88.5t38.5 63t47 37t48 20.5q-32 4 -60.5 14.5t-59 31t-49 57.5t-18.5 87zM580 336 q133 0 215 73.5t82 198.5q0 72 -24 126t-66.5 84.5t-94 45.5t-112.5 15q-139 0 -223.5 -72.5t-84.5 -198.5q0 -114 82.5 -193t225.5 -79zM227 -205q0 -98 98.5 -158.5t266.5 -60.5q109 0 195.5 25.5t140 80.5t53.5 132q0 84 -60.5 125t-191.5 41h-297q-14 -1 -31.5 -4 t-50.5 -15.5t-58.5 -31t-45 -53.5t-19.5 -81z" />
<glyph horiz-adv-x="618" d="M487 1602l-352 161q-19 9 -8 31l20 41q10 18 35 6l336 -184q19 -11 12 -29l-10 -20q-8 -17 -33 -6z" />
<glyph horiz-adv-x="618" d="M168 1602q-25 -11 -33 6l-10 20q-7 18 12 29l336 184q25 12 35 -6l20 -41q11 -22 -8 -31z" />
<glyph horiz-adv-x="763" d="M147 1573q-17 -13 -30 4l-19 22q-11 14 8 29l248 201q10 10 21 10h6q10 0 20 -10l248 -201q19 -15 8 -29l-18 -22q-13 -17 -31 -4l-231 172z" />
<glyph horiz-adv-x="763" d="M377 1563q-11 0 -21 10l-247 201q-19 15 -9 28l19 23q13 17 31 4l231 -172l229 172q18 13 31 -4l18 -23q11 -13 -8 -28l-248 -201q-10 -10 -20 -10h-6z" />
<glyph horiz-adv-x="763" d="M276 1378q0 35 24.5 56.5t61.5 21.5q55 0 86 -42.5t31 -115.5q0 -63 -24.5 -117.5t-59.5 -86.5q-11 -11 -24 -2l-25 20q-14 14 2 29q25 22 41.5 58t16.5 75q0 34 -11 51q-14 -14 -45 -14q-32 0 -53 19t-21 48z" />
<glyph horiz-adv-x="778" d="M115 1636l-25 11q-19 6 -12 28q32 86 71 125q50 51 119 51q41 0 70.5 -19t47 -46.5t32.5 -55t35 -46.5t47 -19q77 0 116 121q3 10 12.5 14.5t18.5 -0.5l23 -8q17 -8 12 -27q-3 -11 -7.5 -25t-20 -43t-34.5 -51t-52.5 -39.5t-73.5 -17.5t-69.5 19.5t-47 47.5t-33 55.5 t-36 47t-46.5 19.5q-27 0 -48.5 -13t-35.5 -37t-20 -39t-13 -38q-7 -25 -30 -15z" />
<glyph horiz-adv-x="970" d="M698 1628q-34 0 -58 24t-24 56q0 35 24 59.5t58 24.5q35 0 59.5 -24.5t24.5 -59.5q0 -33 -24.5 -56.5t-59.5 -23.5zM270 1628q-34 0 -58 24t-24 56q0 35 24 59.5t58 24.5q35 0 59.5 -24.5t24.5 -59.5q0 -33 -24.5 -56.5t-59.5 -23.5z" />
<glyph horiz-adv-x="847" d="M145 1702q-12 0 -19 8t-7 19v24q0 27 26 27h557q11 0 19 -7.5t8 -19.5v-24q0 -11 -8.5 -19t-18.5 -8h-557z" />
<glyph horiz-adv-x="708" d="M354 1587q-104 0 -179 65.5t-89 162.5q-2 11 3.5 19.5t16.5 8.5h27q17 0 25 -24q20 -70 72 -115t124 -45q70 0 125 46t70 114q7 24 24 24h29q10 0 16.5 -8.5t4.5 -19.5q-17 -98 -92.5 -163t-176.5 -65z" />
<glyph horiz-adv-x="593" d="M297 1544q-92 0 -154.5 62.5t-62.5 154.5t62.5 155.5t154.5 63.5q91 0 155 -63.5t64 -155.5t-64 -154.5t-155 -62.5zM297 1610q62 0 107 45t45 106t-45.5 106.5t-106.5 45.5t-106.5 -45.5t-45.5 -106.5t45 -106t107 -45z" />
<glyph horiz-adv-x="802" d="M451 1569q-11 0 -15 7t0 17l162 326q10 23 29 23h45q17 0 22.5 -11t-2.5 -24l-190 -322q-8 -16 -27 -16h-24zM111 1569q-11 0 -15 7t0 17l162 326q10 23 29 23h45q17 0 22.5 -11t-2.5 -24l-190 -322q-8 -16 -27 -16h-24z" />
<glyph horiz-adv-x="448" d="M221 1657q-34 0 -58 23t-24 55q0 34 24 57t58 23t57 -23t23 -57q0 -32 -23 -55t-57 -23z" />
<glyph horiz-adv-x="505" d="M238 4l88 -4h-4l-89 -141q12 4 39 4q74 0 130.5 -41t56.5 -125q0 -82 -61 -131t-152 -49q-99 0 -166 63q-12 12 -2 27l20 39q10 15 27 2q47 -51 117 -51q60 0 94.5 25t34.5 71q0 45 -33.5 68.5t-87.5 23.5q-58 0 -103 -18q-10 -4 -20.5 5.5t-5.5 18.5z" />
<glyph horiz-adv-x="565" d="M391 6q-34 -19 -59.5 -35t-62 -45.5t-59.5 -59.5t-40.5 -72.5t-17.5 -88.5q0 -55 32 -88t88 -33q41 0 79 18.5t57 35.5q6 5 14.5 3t9.5 -12l4 -39q3 -23 -20 -36q-84 -50 -160 -50q-91 0 -143 56t-52 143q0 49 18.5 95t42.5 77.5t63 64.5t63 49t61 38z" />
<glyph horiz-adv-x="598" d="M393 1231q0 -35 -24.5 -56.5t-61.5 -21.5q-55 0 -86 42.5t-31 115.5q0 63 24.5 118t59.5 87q12 12 25 2l25 -21q14 -13 -2 -29q-25 -22 -41.5 -58t-16.5 -75q0 -36 10 -51q14 14 45 14q32 0 53 -19t21 -48z" />
<glyph horiz-adv-x="598" d="M190 -233q0 35 24.5 56t61.5 21q55 0 86 -42t31 -115q0 -63 -24.5 -118t-59.5 -87q-11 -11 -24 -2l-25 20q-14 14 2 29q24 21 40.5 57t16.5 76q0 36 -10 51q-14 -14 -45 -14q-32 0 -53 19.5t-21 48.5z" />
<glyph horiz-adv-x="423" d="M207 940q-11 0 -19 8t-8 19v706q0 12 8 19.5t19 7.5h12q11 0 18 -7.5t7 -19.5v-706q0 -11 -8 -19t-19 -8h-10zM180 387q0 11 8 19t19 8h12q10 0 17.5 -8t7.5 -19v-704q0 -10 -8 -17.5t-19 -7.5h-10q-11 0 -19 7.5t-8 17.5v704z" />
<glyph d="M614 -20q-162 0 -271.5 89.5t-161.5 253t-52 396.5q0 354 121 544.5t364 190.5t364.5 -190.5t121.5 -544.5q0 -353 -121.5 -546t-364.5 -193zM614 68q392 0 392 651q0 647 -392 647q-393 0 -393 -647q0 -651 393 -651z" />
<glyph d="M623 1290h-2l-347 -235q-17 -14 -30 2l-25 28q-17 17 2 33l420 303q19 13 37 13h10q13 0 23 -7t10 -18v-1331h360q11 0 19 -7.5t8 -19.5v-24q0 -11 -8 -19t-19 -8h-854q-10 0 -17 8t-7 19v24q0 12 6.5 19.5t17.5 7.5h396v1212z" />
<glyph d="M305 88v-2h696q11 0 19 -8t8 -19v-32q0 -11 -8 -19t-19 -8h-815q-12 0 -20 8t-8 17v18q0 21 14 35l535 547q117 121 175 218.5t58 194.5q0 62 -22 118.5t-64 103t-111.5 74.5t-156.5 28q-40 0 -77 -7.5t-67.5 -22t-54.5 -28t-46.5 -34t-34 -31.5t-26.5 -29l-16 -18 q-18 -21 -43 -6l-24 20q-19 19 -4 39q5 8 15.5 22.5t47.5 50.5t78.5 63.5t110 50t141.5 22.5q108 0 195.5 -33.5t142.5 -91.5t84.5 -132t29.5 -157q0 -67 -18.5 -129t-58.5 -122.5t-81 -108.5t-106 -115z" />
<glyph d="M158 166q-15 22 0 37l26 26q17 14 37 -6q1 -1 27 -26.5t39 -36t48 -33.5t66.5 -34t80.5 -20.5t104 -9.5q164 0 270.5 87.5t106.5 228.5q0 98 -58.5 170t-144 105.5t-182.5 33.5h-199q-17 0 -23 6t-6 21v39q0 24 31 24h197q49 0 96 9.5t93 31.5t80.5 54t55.5 82t21 112 q0 131 -94 214t-230 83q-62 0 -118 -16t-101 -45t-68.5 -48t-52.5 -47q-22 -17 -35 -4l-28 27q-19 19 -2 35q22 25 53 51.5t83 60t123 55t146 21.5q183 0 303.5 -105t120.5 -272q0 -123 -71.5 -212.5t-170.5 -125.5v-6q111 -33 195 -130t84 -218q0 -176 -131.5 -290.5 t-349.5 -114.5q-251 0 -422 186z" />
<glyph d="M113 330q-35 0 -35 30v17q0 19 12 37l756 1024q11 16 33 16h18q23 0 23 -24v-1016h161q12 0 20.5 -7.5t8.5 -19.5v-31q0 -11 -8.5 -18.5t-20.5 -7.5h-161v-303q0 -11 -7.5 -19t-17.5 -8h-39q-25 0 -25 27v303h-718zM193 420v-6h638v862h-2z" />
<glyph d="M188 156q-12 18 -13 26t11 21l29 26q20 20 37 -4q129 -159 348 -159q172 0 283.5 118.5t111.5 280.5q0 163 -101 256.5t-294 93.5h-350q-19 0 -30 13t-11 30v549q0 11 8 19t21 8h661q11 0 19 -8t8 -19v-33q0 -12 -8 -20t-19 -8h-602v-443h303q240 0 367 -114t127 -324 q0 -132 -63 -243t-177.5 -176.5t-255.5 -65.5q-262 0 -410 176z" />
<glyph d="M156 580q0 118 29 226t74 188.5t109 153.5t125 122t131.5 92t119 66t96.5 42q25 7 32 -14l15 -33q10 -28 -25 -39q-45 -16 -102.5 -44.5t-139 -84.5t-149.5 -123.5t-126 -167t-77 -208.5q12 15 32 34t56.5 44t79 44.5t101 33.5t120.5 14q90 0 171.5 -32.5t143 -91 t98 -146.5t36.5 -191q0 -132 -62 -243.5t-168.5 -176.5t-232.5 -65q-120 0 -214 46t-153 128t-89.5 190t-30.5 236zM248 565q0 -99 24.5 -187.5t72 -159.5t124.5 -113t174 -42q154 0 262.5 117t108.5 281q0 165 -107 272t-260 107q-69 0 -134 -21t-105.5 -46t-80.5 -61.5 t-51 -50.5t-23 -31h-1v-1q-4 -40 -4 -64z" />
<glyph d="M965 1341v5h-777q-28 0 -28 30v31q0 13 8.5 20t19.5 7h873q14 0 22.5 -7.5t8.5 -17.5q0 -7 -11 -35l-610 -1341q-9 -21 -16 -27t-25 -6h-49q-16 0 -19 12t3 21z" />
<glyph d="M143 375q0 132 92 229.5t224 128.5v4q-117 34 -198 125t-81 211q0 164 114.5 272.5t317.5 108.5q205 0 322 -108.5t117 -272.5q0 -120 -81 -211t-198 -125v-4q133 -31 224 -126.5t91 -231.5q0 -185 -130 -290t-345 -105q-211 0 -340 105.5t-129 289.5zM616 784 q156 10 247 87.5t91 199.5q0 129 -91.5 216t-252.5 87q-158 0 -246 -87t-88 -216q0 -122 91 -199.5t249 -87.5zM240 367q0 -99 51 -170t133.5 -104.5t187.5 -33.5q168 0 273.5 79.5t105.5 228.5q0 121 -102.5 210.5t-272.5 104.5q-174 -15 -275 -101.5t-101 -213.5z" />
<glyph d="M342 8q-11 30 25 41q29 10 66.5 27t90.5 48t104.5 68t105.5 89t97.5 110t77 132.5t47.5 154.5q-15 -21 -44.5 -46.5t-77 -55.5t-117 -50t-144.5 -20q-122 0 -224 55.5t-165 163t-63 244.5q0 201 136.5 343t328.5 142q119 0 212.5 -46.5t152.5 -129t89.5 -190.5t30.5 -236 q0 -118 -28.5 -226t-73.5 -189t-108.5 -153.5t-124.5 -122t-131.5 -92.5t-120 -66t-97.5 -42q-23 -8 -33 16zM580 594q235 0 393 211q4 40 4 63q0 99 -23.5 186.5t-70 159t-123 113t-174.5 41.5q-156 0 -264.5 -116.5t-108.5 -278.5q0 -165 107 -272t260 -107z" />
<glyph horiz-adv-x="735" d="M117 301q0 153 66 239.5t184 86.5q119 0 185 -86.5t66 -239.5q0 -150 -66 -235.5t-185 -85.5q-118 0 -184 85.5t-66 235.5zM190 301q0 -120 47 -187t130 -67q85 0 131.5 67t46.5 187q0 122 -47 191t-131 69q-83 0 -130 -69t-47 -191z" />
<glyph horiz-adv-x="442" d="M219 16v494l-96 -57q-12 -6 -19 4l-12 20q-6 13 6 23l150 106h24q21 0 21 -16v-574q0 -7 -5.5 -11.5t-11.5 -4.5h-40q-17 0 -17 16z" />
<glyph horiz-adv-x="667" d="M113 16v19l284 266q71 68 74 135q0 49 -39 86t-108 37q-73 0 -140 -67q-10 -13 -20 -3l-27 25q-10 10 -2 21q3 4 8 10t23.5 22t39.5 28t54 22t68 10q101 0 159 -53.5t58 -131.5q0 -93 -94 -180l-218 -199h293q15 0 15 -16v-31q0 -16 -15 -16h-395q-18 0 -18 16z" />
<glyph horiz-adv-x="690" d="M121 63q-11 11 0 23l22 23q13 13 27 0l8 -7q8 -8 13.5 -12.5t16.5 -12.5t23 -13t27.5 -10.5t35 -8t40.5 -2.5q69 0 113.5 33t44.5 84q0 49 -43 82.5t-123 33.5h-93q-16 0 -16 21v25q0 16 16 16h93q66 0 107.5 29t41.5 84q0 50 -39 80t-100 30q-85 0 -146 -61 q-11 -11 -20 -2l-27 22q-13 12 -2 23q3 3 8.5 9t25.5 20.5t41.5 25.5t55 20t68.5 9q92 0 151.5 -45.5t59.5 -122.5q0 -48 -32.5 -88.5t-74.5 -59.5q5 -2 13.5 -5t30 -16t38 -29t30 -44t13.5 -61q0 -76 -65 -126t-168 -50q-83 0 -138 28t-77 55z" />
<glyph horiz-adv-x="704" d="M90 141q-7 0 -12.5 5.5t-5.5 13.5v18l387 428h28q8 0 14.5 -5.5t6.5 -12.5v-379h80q7 0 12.5 -5t5.5 -11v-33q0 -6 -5.5 -11.5t-12.5 -5.5h-80v-125q0 -7 -6.5 -12.5t-14.5 -5.5h-34q-8 0 -14.5 5.5t-6.5 12.5v123h-342zM188 211h244v266z" />
<glyph horiz-adv-x="686" d="M129 57q-10 10 -10 15.5t8 15.5l18 23q5 6 13 6t14 -6q68 -68 160 -68q71 0 118.5 43.5t47.5 101.5q0 56 -41.5 91.5t-108.5 35.5h-160q-30 0 -30 31v242q0 8 5 13t13 5h303q8 0 13.5 -5.5t5.5 -12.5v-35q0 -6 -6 -11t-13 -5h-254v-154h121q112 0 169.5 -49t57.5 -141 q0 -89 -69.5 -151t-173.5 -62q-118 0 -201 77z" />
<glyph horiz-adv-x="706" d="M129 254q0 70 27.5 132.5t65 102.5t87 73.5t84 49t64.5 25.5q17 7 24 -12l11 -23q13 -26 -13 -35q-87 -25 -163.5 -85t-108.5 -150q1 0 10.5 8t22.5 16t32.5 17t46.5 14.5t58 5.5q84 0 145.5 -53t61.5 -147q0 -88 -66 -150.5t-158 -62.5q-112 0 -171.5 78.5t-59.5 195.5z M203 244q-2 -78 41.5 -139.5t117.5 -61.5q62 0 103 41.5t41 108.5q0 61 -43 100t-105 39q-53 0 -95.5 -28.5t-59.5 -59.5z" />
<glyph horiz-adv-x="649" d="M188 29l275 508h-330q-7 0 -12.5 5.5t-5.5 12.5v33q0 8 5.5 13t12.5 5h404q7 0 12.5 -5t5.5 -13v-33l-285 -537q-10 -18 -26 -18h-27q-29 0 -29 29z" />
<glyph horiz-adv-x="700" d="M121 156q0 37 14 67t35 47.5t35.5 26t25.5 12.5v4q-40 18 -66 58t-26 88q0 77 59.5 122.5t151.5 45.5t151.5 -45.5t59.5 -122.5q0 -47 -27.5 -87.5t-66.5 -58.5v-4q11 -4 25 -12t36.5 -26t37 -48t14.5 -67q0 -76 -63.5 -126t-166.5 -50t-166 50t-63 126zM350 338 q135 10 135 113q0 51 -37 80.5t-98 29.5t-98 -29.5t-37 -80.5q0 -103 135 -113zM199 160q0 -52 41.5 -84.5t109.5 -32.5t110 32.5t42 84.5q0 46 -36.5 79t-115.5 37q-79 -4 -115 -37t-36 -79z" />
<glyph horiz-adv-x="669" d="M197 0q-13 27 12 35q87 25 163.5 85t108.5 150q-1 0 -10.5 -8t-22.5 -16t-32.5 -17t-46.5 -14.5t-58 -5.5q-84 0 -145.5 53.5t-61.5 147.5q0 88 66 150.5t158 62.5q111 0 171 -78.5t60 -196.5q0 -70 -27.5 -132.5t-65 -102.5t-87 -73.5t-84 -49t-64.5 -25.5 q-17 -7 -24 12zM330 270q53 0 95.5 28.5t59.5 59.5q2 78 -41.5 139.5t-117.5 61.5q-62 0 -103 -41t-41 -108q0 -61 43 -100.5t105 -39.5z" />
<glyph horiz-adv-x="673" d="M336 807q-118 0 -184 85.5t-66 235.5q0 153 66 239.5t184 86.5q119 0 185.5 -86.5t66.5 -239.5q0 -150 -66.5 -235.5t-185.5 -85.5zM336 874q85 0 131.5 67t46.5 187q0 122 -47 191.5t-131 69.5q-83 0 -129.5 -69.5t-46.5 -191.5q0 -120 46.5 -187t129.5 -67z" />
<glyph horiz-adv-x="362" d="M201 827q-17 0 -17 17v493l-96 -57q-12 -6 -18 4l-13 21q-6 12 6 22l150 107h25q20 0 20 -17v-573q0 -7 -5 -12t-11 -5h-41z" />
<glyph horiz-adv-x="589" d="M90 827q-18 0 -18 17v18l284 266q71 68 74 136q0 48 -39 85t-108 37q-73 0 -140 -67q-4 -5 -10.5 -5t-9.5 3l-27 24q-10 10 -2 21q3 4 8 10t23.5 22t39.5 28t54 22t68 10q101 0 159 -53.5t58 -130.5q0 -93 -94 -180l-217 -199h292q15 0 15 -17v-30q0 -17 -15 -17h-395z " />
<glyph horiz-adv-x="610" d="M293 807q-83 0 -138 28t-77 56q-11 11 0 22l22 23q14 14 27 0l8 -8q8 -7 13.5 -11.5t16.5 -12.5t23 -13t27.5 -10.5t35 -8t40.5 -2.5q69 0 113.5 33t44.5 84q0 49 -43 83t-123 34h-93q-16 0 -16 20v25q0 16 16 16h93q66 0 107.5 29t41.5 84q0 50 -39 80.5t-100 30.5 q-84 0 -146 -62q-11 -11 -20 -2l-27 23q-12 12 -2 22q3 3 8.5 9t25.5 20.5t41.5 25.5t55 20t68.5 9q92 0 151.5 -45.5t59.5 -122.5q0 -48 -32 -88t-75 -59q5 -2 13.5 -5t30 -16t38 -29.5t30 -44.5t13.5 -61q0 -76 -65 -126t-168 -50z" />
<glyph horiz-adv-x="651" d="M432 827q-8 0 -14 6t-6 13v123h-342q-8 0 -13.5 5.5t-5.5 12.5v19l387 428h29q8 0 14 -6t6 -13v-379h80q7 0 13 -5t6 -11v-33q0 -6 -6 -11t-13 -5h-80v-125q0 -7 -6 -13t-14 -6h-35zM168 1038h244v267z" />
<glyph horiz-adv-x="600" d="M287 807q-117 0 -201 78q-10 10 -10 15t8 15l18 23q4 6 12.5 6t14.5 -6q68 -68 160 -68q71 0 118.5 44t47.5 102q0 56 -41.5 91.5t-108.5 35.5h-160q-30 0 -30 31v241q0 8 5.5 13.5t12.5 5.5h303q8 0 13.5 -6t5.5 -13v-35q0 -6 -6 -11t-13 -5h-254v-154h121 q112 0 169.5 -49t57.5 -141q0 -89 -69.5 -151t-173.5 -62z" />
<glyph horiz-adv-x="602" d="M313 807q-112 0 -171.5 78.5t-59.5 195.5q0 70 27.5 132.5t65 102.5t87 73.5t84 49t64.5 25.5q17 7 24 -12l10 -22q13 -27 -12 -35q-54 -16 -104.5 -44.5t-98 -79t-69.5 -112.5q1 0 10.5 8.5t22.5 16.5t32.5 17t46.5 14.5t58 5.5q84 0 145.5 -53.5t61.5 -147.5 q0 -88 -66 -150.5t-158 -62.5zM315 870q62 0 103 41.5t41 108.5q0 61 -43 100t-105 39q-53 0 -95.5 -28.5t-59.5 -59.5q-2 -78 41.5 -139.5t117.5 -61.5z" />
<glyph horiz-adv-x="550" d="M164 827q-29 0 -29 29l275 508h-330q-8 0 -13.5 5.5t-5.5 12.5v33q0 7 5.5 13t13.5 6h403q7 0 13 -6t6 -13v-33l-285 -536q-11 -19 -27 -19h-26z" />
<glyph horiz-adv-x="626" d="M313 807q-103 0 -166 50t-63 126q0 37 14 67.5t35.5 48t36 26t25.5 12.5v4q-40 18 -66.5 57.5t-26.5 87.5q0 77 59.5 122.5t151.5 45.5t151.5 -45.5t59.5 -122.5q0 -47 -27.5 -87t-66.5 -58v-4q11 -4 25 -12.5t36.5 -26.5t37 -48t14.5 -67q0 -76 -63.5 -126t-166.5 -50z M313 1165q65 5 100.5 33.5t35.5 79.5t-37.5 81t-98.5 30q-60 0 -97.5 -30t-37.5 -81q0 -103 135 -113zM313 870q68 0 110 32.5t42 84.5q0 46 -36.5 79.5t-115.5 37.5q-79 -4 -115 -37t-36 -80q0 -52 41.5 -84.5t109.5 -32.5z" />
<glyph horiz-adv-x="604" d="M195 793q-17 -7 -25 12l-10 22q-13 27 12 35q54 16 104.5 44.5t98 79t69.5 112.5q-1 0 -10.5 -8.5t-22.5 -16.5t-32.5 -17t-46.5 -14.5t-58 -5.5q-84 0 -145 53.5t-61 147.5q0 88 65.5 150.5t157.5 62.5q112 0 171.5 -78.5t59.5 -195.5q0 -70 -27 -132.5t-65 -102.5 t-87 -73.5t-83.5 -49t-64.5 -25.5zM293 1098q53 0 96 28.5t60 59.5q2 78 -42 139t-118 61q-62 0 -103 -41t-41 -108q0 -61 43 -100t105 -39z" />
<glyph horiz-adv-x="1126" d="M954 915v-884q0 -12 -9.5 -21.5t-20.5 -9.5h-13q-31 0 -34 31l-7 84q-19 -23 -56.5 -51t-114.5 -57.5t-160 -29.5q-189 0 -309.5 141t-120.5 355q0 210 126 352t320 142q60 0 116.5 -13.5t97 -34.5t63 -35.5t38.5 -27.5l11 64q5 26 30 26h15q9 0 18.5 -9.5t9.5 -21.5z M864 229v521q-5 6 -16.5 17.5t-39.5 32t-61 37t-82.5 29.5t-101.5 13q-159 0 -261.5 -119t-102.5 -287q0 -167 99.5 -287t246.5 -120q58 0 112 16t89 38t63 47t40.5 41t14.5 21z" />
<glyph horiz-adv-x="1126" d="M754 1145l-353 162q-18 9 -8 30l21 41q10 18 35 6l335 -184q20 -11 13 -29l-11 -20q-8 -17 -32 -6zM954 915v-884q0 -12 -9.5 -21.5t-20.5 -9.5h-13q-31 0 -34 31l-7 84q-19 -23 -56.5 -51t-114.5 -57.5t-160 -29.5q-189 0 -309.5 141t-120.5 355q0 210 126 352t320 142 q60 0 116.5 -13.5t97 -34.5t63 -35.5t38.5 -27.5l11 64q5 26 30 26h15q9 0 18.5 -9.5t9.5 -21.5zM864 229v521q-5 6 -16.5 17.5t-39.5 32t-61 37t-82.5 29.5t-101.5 13q-159 0 -261.5 -119t-102.5 -287q0 -167 99.5 -287t246.5 -120q58 0 112 16t89 38t63 47t40.5 41 t14.5 21z" />
<glyph horiz-adv-x="1126" d="M428 1143q-14 -5 -19 -3.5t-10 11.5l-12 27q-7 17 12 28l338 178q24 14 35 -6l21 -41q11 -22 -19 -37zM954 915v-884q0 -12 -9.5 -21.5t-20.5 -9.5h-13q-31 0 -34 31l-7 84q-19 -23 -56.5 -51t-114.5 -57.5t-160 -29.5q-189 0 -309.5 141t-120.5 355q0 210 126 352 t320 142q60 0 116.5 -13.5t97 -34.5t63 -35.5t38.5 -27.5l11 64q5 26 30 26h15q9 0 18.5 -9.5t9.5 -21.5zM864 229v521q-5 6 -16.5 17.5t-39.5 32t-61 37t-82.5 29.5t-101.5 13q-159 0 -261.5 -119t-102.5 -287q0 -167 99.5 -287t246.5 -120q58 0 112 16t89 38t63 47 t40.5 41t14.5 21z" />
</font>
</defs>
</svg>
